M48
;DRILL file {Pcbnew (2012-jan-04)-stable} date Mon Sep 10 12:25:57 2012
;FORMAT={-:-/ absolute / inch / decimal}
FMAT,2
INCH,TZ
T1C0.008
%
G90
G05
M72
T1
X5.785Y4.222
X5.807Y2.909
X5.809Y3.113
X5.855Y3.892
X5.863Y3.654
X5.889Y3.926
X5.897Y3.704
X5.905Y3.765
X5.917Y3.516
X5.929Y3.691
X5.938Y3.630
X5.965Y3.971
X5.997Y3.884
X6.024Y3.774
X6.025Y3.595
X6.051Y3.445
X6.052Y3.530
X6.102Y2.788
X6.133Y3.404
X6.143Y3.652
X6.161Y3.749
X6.201Y3.679
X6.209Y3.402
X6.224Y3.445
X6.261Y2.788
X6.285Y4.242
X6.292Y4.467
X6.299Y3.719
X6.299Y3.849
X6.306Y4.180
X6.328Y4.274
X6.351Y3.720
X6.355Y4.461
X6.397Y3.571
X6.398Y3.719
X6.398Y2.929
X6.410Y4.246
X6.410Y4.191
X6.412Y4.155
X6.415Y3.451
X6.417Y4.465
X6.422Y3.909
X6.428Y3.032
X6.428Y4.217
X6.454Y3.685
X6.484Y3.414
X6.493Y2.789
X6.518Y2.929
X6.518Y2.956
X6.518Y3.083
X6.520Y4.276
X6.521Y4.352
X6.521Y4.378
X6.548Y4.139
X6.576Y3.185
X6.590Y2.885
X6.591Y4.421
X6.623Y4.137
X6.623Y4.290
X6.646Y3.727
X6.648Y2.907
X6.655Y2.929
X6.660Y3.083
X6.660Y4.377
X6.661Y3.134
X6.662Y2.956
X6.663Y4.352
X6.664Y3.702
X6.664Y4.224
X6.664Y2.878
X6.674Y2.800
X6.705Y3.728
X6.719Y4.462
X6.744Y4.370
X6.747Y3.028
X6.749Y2.997
X6.756Y3.184
X6.759Y4.175
X6.768Y2.937
X6.774Y3.026
X6.778Y4.241
X6.789Y3.184
X6.811Y2.900
X6.815Y4.278
X6.832Y4.462
X6.839Y3.003
X6.854Y3.211
X6.872Y4.276
X6.876Y3.674
X6.876Y3.709
X6.876Y3.776
X6.897Y4.321
X6.898Y4.495
X6.911Y2.962
X6.957Y3.179
X6.999Y3.179
X7.053Y3.179
X7.064Y4.131
X7.073Y4.258
X7.091Y3.179
X7.097Y3.045
X7.110Y4.454
X7.123Y4.133
X7.149Y2.994
X7.178Y4.382
X7.186Y4.133
X7.191Y2.952
X7.197Y3.031
X7.274Y3.032
X7.333Y3.123
X7.391Y3.123
X7.452Y3.123
X7.510Y3.081
T0
M30
