G04 (created by PCBNEW-RS274X (2012-jan-04)-stable) date Mon Sep 10 12:25:47 2012*
G01*
G70*
G90*
%MOIN*%
G04 Gerber Fmt 3.4, Leading zero omitted, Abs format*
%FSLAX34Y34*%
G04 APERTURE LIST*
%ADD10C,0.006000*%
%ADD11C,0.012000*%
%ADD12C,0.011800*%
%ADD13C,0.015000*%
%ADD14C,0.003900*%
%ADD15C,0.008000*%
%ADD16C,0.005000*%
%ADD17C,0.020100*%
%ADD18C,0.004100*%
%ADD19C,0.005200*%
%ADD20C,0.004300*%
%ADD21C,0.005500*%
%ADD22C,0.003000*%
%ADD23C,0.004500*%
%ADD24C,0.004900*%
%ADD25C,0.008800*%
G04 APERTURE END LIST*
G54D10*
X04000Y-04000D02*
X113000Y-04000D01*
X113000Y-78670D01*
X04000Y-78670D01*
X04000Y-04000D01*
X04700Y-04700D02*
X112300Y-04700D01*
X112300Y-77970D01*
X04700Y-77970D01*
X04700Y-04700D01*
X25800Y-04000D02*
X25800Y-04700D01*
X15043Y-04552D02*
X14757Y-04552D01*
X14900Y-04552D02*
X14900Y-04052D01*
X14852Y-04124D01*
X14805Y-04171D01*
X14757Y-04195D01*
X25800Y-78670D02*
X25800Y-77970D01*
X15043Y-78522D02*
X14757Y-78522D01*
X14900Y-78522D02*
X14900Y-78022D01*
X14852Y-78094D01*
X14805Y-78141D01*
X14757Y-78165D01*
X47600Y-04000D02*
X47600Y-04700D01*
X36557Y-04100D02*
X36581Y-04076D01*
X36629Y-04052D01*
X36748Y-04052D01*
X36795Y-04076D01*
X36819Y-04100D01*
X36843Y-04148D01*
X36843Y-04195D01*
X36819Y-04267D01*
X36533Y-04552D01*
X36843Y-04552D01*
X47600Y-78670D02*
X47600Y-77970D01*
X36557Y-78070D02*
X36581Y-78046D01*
X36629Y-78022D01*
X36748Y-78022D01*
X36795Y-78046D01*
X36819Y-78070D01*
X36843Y-78118D01*
X36843Y-78165D01*
X36819Y-78237D01*
X36533Y-78522D01*
X36843Y-78522D01*
X69400Y-04000D02*
X69400Y-04700D01*
X58333Y-04052D02*
X58643Y-04052D01*
X58476Y-04243D01*
X58548Y-04243D01*
X58595Y-04267D01*
X58619Y-04290D01*
X58643Y-04338D01*
X58643Y-04457D01*
X58619Y-04505D01*
X58595Y-04529D01*
X58548Y-04552D01*
X58405Y-04552D01*
X58357Y-04529D01*
X58333Y-04505D01*
X69400Y-78670D02*
X69400Y-77970D01*
X58333Y-78022D02*
X58643Y-78022D01*
X58476Y-78213D01*
X58548Y-78213D01*
X58595Y-78237D01*
X58619Y-78260D01*
X58643Y-78308D01*
X58643Y-78427D01*
X58619Y-78475D01*
X58595Y-78499D01*
X58548Y-78522D01*
X58405Y-78522D01*
X58357Y-78499D01*
X58333Y-78475D01*
X91200Y-04000D02*
X91200Y-04700D01*
X80395Y-04219D02*
X80395Y-04552D01*
X80276Y-04029D02*
X80157Y-04386D01*
X80467Y-04386D01*
X91200Y-78670D02*
X91200Y-77970D01*
X80395Y-78189D02*
X80395Y-78522D01*
X80276Y-77999D02*
X80157Y-78356D01*
X80467Y-78356D01*
X102219Y-04052D02*
X101981Y-04052D01*
X101957Y-04290D01*
X101981Y-04267D01*
X102029Y-04243D01*
X102148Y-04243D01*
X102195Y-04267D01*
X102219Y-04290D01*
X102243Y-04338D01*
X102243Y-04457D01*
X102219Y-04505D01*
X102195Y-04529D01*
X102148Y-04552D01*
X102029Y-04552D01*
X101981Y-04529D01*
X101957Y-04505D01*
X102219Y-78022D02*
X101981Y-78022D01*
X101957Y-78260D01*
X101981Y-78237D01*
X102029Y-78213D01*
X102148Y-78213D01*
X102195Y-78237D01*
X102219Y-78260D01*
X102243Y-78308D01*
X102243Y-78427D01*
X102219Y-78475D01*
X102195Y-78499D01*
X102148Y-78522D01*
X102029Y-78522D01*
X101981Y-78499D01*
X101957Y-78475D01*
X04000Y-28890D02*
X04700Y-28890D01*
X04231Y-16510D02*
X04469Y-16510D01*
X04184Y-16652D02*
X04350Y-16152D01*
X04517Y-16652D01*
X113000Y-28890D02*
X112300Y-28890D01*
X112531Y-16510D02*
X112769Y-16510D01*
X112484Y-16652D02*
X112650Y-16152D01*
X112817Y-16652D01*
X04000Y-53780D02*
X04700Y-53780D01*
X04386Y-41280D02*
X04457Y-41304D01*
X04481Y-41328D01*
X04505Y-41376D01*
X04505Y-41447D01*
X04481Y-41495D01*
X04457Y-41519D01*
X04410Y-41542D01*
X04219Y-41542D01*
X04219Y-41042D01*
X04386Y-41042D01*
X04433Y-41066D01*
X04457Y-41090D01*
X04481Y-41138D01*
X04481Y-41185D01*
X04457Y-41233D01*
X04433Y-41257D01*
X04386Y-41280D01*
X04219Y-41280D01*
X113000Y-53780D02*
X112300Y-53780D01*
X112686Y-41280D02*
X112757Y-41304D01*
X112781Y-41328D01*
X112805Y-41376D01*
X112805Y-41447D01*
X112781Y-41495D01*
X112757Y-41519D01*
X112710Y-41542D01*
X112519Y-41542D01*
X112519Y-41042D01*
X112686Y-41042D01*
X112733Y-41066D01*
X112757Y-41090D01*
X112781Y-41138D01*
X112781Y-41185D01*
X112757Y-41233D01*
X112733Y-41257D01*
X112686Y-41280D01*
X112519Y-41280D01*
X04505Y-66385D02*
X04481Y-66409D01*
X04410Y-66432D01*
X04362Y-66432D01*
X04290Y-66409D01*
X04243Y-66361D01*
X04219Y-66313D01*
X04195Y-66218D01*
X04195Y-66147D01*
X04219Y-66051D01*
X04243Y-66004D01*
X04290Y-65956D01*
X04362Y-65932D01*
X04410Y-65932D01*
X04481Y-65956D01*
X04505Y-65980D01*
X112805Y-66385D02*
X112781Y-66409D01*
X112710Y-66432D01*
X112662Y-66432D01*
X112590Y-66409D01*
X112543Y-66361D01*
X112519Y-66313D01*
X112495Y-66218D01*
X112495Y-66147D01*
X112519Y-66051D01*
X112543Y-66004D01*
X112590Y-65956D01*
X112662Y-65932D01*
X112710Y-65932D01*
X112781Y-65956D01*
X112805Y-65980D01*
G54D11*
X79443Y-76413D02*
X79443Y-75813D01*
X79586Y-75813D01*
X79671Y-75841D01*
X79729Y-75899D01*
X79757Y-75956D01*
X79786Y-76070D01*
X79786Y-76156D01*
X79757Y-76270D01*
X79729Y-76327D01*
X79671Y-76384D01*
X79586Y-76413D01*
X79443Y-76413D01*
X80300Y-76413D02*
X80300Y-76099D01*
X80271Y-76041D01*
X80214Y-76013D01*
X80100Y-76013D01*
X80043Y-76041D01*
X80300Y-76384D02*
X80243Y-76413D01*
X80100Y-76413D01*
X80043Y-76384D01*
X80014Y-76327D01*
X80014Y-76270D01*
X80043Y-76213D01*
X80100Y-76184D01*
X80243Y-76184D01*
X80300Y-76156D01*
X80500Y-76013D02*
X80729Y-76013D01*
X80586Y-75813D02*
X80586Y-76327D01*
X80614Y-76384D01*
X80672Y-76413D01*
X80729Y-76413D01*
X81157Y-76384D02*
X81100Y-76413D01*
X80986Y-76413D01*
X80929Y-76384D01*
X80900Y-76327D01*
X80900Y-76099D01*
X80929Y-76041D01*
X80986Y-76013D01*
X81100Y-76013D01*
X81157Y-76041D01*
X81186Y-76099D01*
X81186Y-76156D01*
X80900Y-76213D01*
X81443Y-76356D02*
X81471Y-76384D01*
X81443Y-76413D01*
X81414Y-76384D01*
X81443Y-76356D01*
X81443Y-76413D01*
X81443Y-76041D02*
X81471Y-76070D01*
X81443Y-76099D01*
X81414Y-76070D01*
X81443Y-76041D01*
X81443Y-76099D01*
X82500Y-76413D02*
X82157Y-76413D01*
X82329Y-76413D02*
X82329Y-75813D01*
X82272Y-75899D01*
X82214Y-75956D01*
X82157Y-75984D01*
X82871Y-75813D02*
X82928Y-75813D01*
X82985Y-75841D01*
X83014Y-75870D01*
X83043Y-75927D01*
X83071Y-76041D01*
X83071Y-76184D01*
X83043Y-76299D01*
X83014Y-76356D01*
X82985Y-76384D01*
X82928Y-76413D01*
X82871Y-76413D01*
X82814Y-76384D01*
X82785Y-76356D01*
X82757Y-76299D01*
X82728Y-76184D01*
X82728Y-76041D01*
X82757Y-75927D01*
X82785Y-75870D01*
X82814Y-75841D01*
X82871Y-75813D01*
X83756Y-76384D02*
X83813Y-76413D01*
X83928Y-76413D01*
X83985Y-76384D01*
X84013Y-76327D01*
X84013Y-76299D01*
X83985Y-76241D01*
X83928Y-76213D01*
X83842Y-76213D01*
X83785Y-76184D01*
X83756Y-76127D01*
X83756Y-76099D01*
X83785Y-76041D01*
X83842Y-76013D01*
X83928Y-76013D01*
X83985Y-76041D01*
X84499Y-76384D02*
X84442Y-76413D01*
X84328Y-76413D01*
X84271Y-76384D01*
X84242Y-76327D01*
X84242Y-76099D01*
X84271Y-76041D01*
X84328Y-76013D01*
X84442Y-76013D01*
X84499Y-76041D01*
X84528Y-76099D01*
X84528Y-76156D01*
X84242Y-76213D01*
X84785Y-76013D02*
X84785Y-76613D01*
X84785Y-76041D02*
X84842Y-76013D01*
X84956Y-76013D01*
X85013Y-76041D01*
X85042Y-76070D01*
X85071Y-76127D01*
X85071Y-76299D01*
X85042Y-76356D01*
X85013Y-76384D01*
X84956Y-76413D01*
X84842Y-76413D01*
X84785Y-76384D01*
X85756Y-75870D02*
X85785Y-75841D01*
X85842Y-75813D01*
X85985Y-75813D01*
X86042Y-75841D01*
X86071Y-75870D01*
X86099Y-75927D01*
X86099Y-75984D01*
X86071Y-76070D01*
X85728Y-76413D01*
X86099Y-76413D01*
X86470Y-75813D02*
X86527Y-75813D01*
X86584Y-75841D01*
X86613Y-75870D01*
X86642Y-75927D01*
X86670Y-76041D01*
X86670Y-76184D01*
X86642Y-76299D01*
X86613Y-76356D01*
X86584Y-76384D01*
X86527Y-76413D01*
X86470Y-76413D01*
X86413Y-76384D01*
X86384Y-76356D01*
X86356Y-76299D01*
X86327Y-76184D01*
X86327Y-76041D01*
X86356Y-75927D01*
X86384Y-75870D01*
X86413Y-75841D01*
X86470Y-75813D01*
X87241Y-76413D02*
X86898Y-76413D01*
X87070Y-76413D02*
X87070Y-75813D01*
X87013Y-75899D01*
X86955Y-75956D01*
X86898Y-75984D01*
X87469Y-75870D02*
X87498Y-75841D01*
X87555Y-75813D01*
X87698Y-75813D01*
X87755Y-75841D01*
X87784Y-75870D01*
X87812Y-75927D01*
X87812Y-75984D01*
X87784Y-76070D01*
X87441Y-76413D01*
X87812Y-76413D01*
G54D10*
X71043Y-77613D02*
X71043Y-77013D01*
X71386Y-77613D02*
X71129Y-77270D01*
X71386Y-77013D02*
X71043Y-77356D01*
X71643Y-77613D02*
X71643Y-77213D01*
X71643Y-77013D02*
X71614Y-77041D01*
X71643Y-77070D01*
X71671Y-77041D01*
X71643Y-77013D01*
X71643Y-77070D01*
X72272Y-77556D02*
X72243Y-77584D01*
X72157Y-77613D01*
X72100Y-77613D01*
X72015Y-77584D01*
X71957Y-77527D01*
X71929Y-77470D01*
X71900Y-77356D01*
X71900Y-77270D01*
X71929Y-77156D01*
X71957Y-77099D01*
X72015Y-77041D01*
X72100Y-77013D01*
X72157Y-77013D01*
X72243Y-77041D01*
X72272Y-77070D01*
X72786Y-77613D02*
X72786Y-77299D01*
X72757Y-77241D01*
X72700Y-77213D01*
X72586Y-77213D01*
X72529Y-77241D01*
X72786Y-77584D02*
X72729Y-77613D01*
X72586Y-77613D01*
X72529Y-77584D01*
X72500Y-77527D01*
X72500Y-77470D01*
X72529Y-77413D01*
X72586Y-77384D01*
X72729Y-77384D01*
X72786Y-77356D01*
X73329Y-77613D02*
X73329Y-77013D01*
X73329Y-77584D02*
X73272Y-77613D01*
X73158Y-77613D01*
X73100Y-77584D01*
X73072Y-77556D01*
X73043Y-77499D01*
X73043Y-77327D01*
X73072Y-77270D01*
X73100Y-77241D01*
X73158Y-77213D01*
X73272Y-77213D01*
X73329Y-77241D01*
X74072Y-77299D02*
X74272Y-77299D01*
X74358Y-77613D02*
X74072Y-77613D01*
X74072Y-77013D01*
X74358Y-77013D01*
X74615Y-77556D02*
X74643Y-77584D01*
X74615Y-77613D01*
X74586Y-77584D01*
X74615Y-77556D01*
X74615Y-77613D01*
X74901Y-77613D02*
X74901Y-77013D01*
X75044Y-77013D01*
X75129Y-77041D01*
X75187Y-77099D01*
X75215Y-77156D01*
X75244Y-77270D01*
X75244Y-77356D01*
X75215Y-77470D01*
X75187Y-77527D01*
X75129Y-77584D01*
X75044Y-77613D01*
X74901Y-77613D01*
X75501Y-77556D02*
X75529Y-77584D01*
X75501Y-77613D01*
X75472Y-77584D01*
X75501Y-77556D01*
X75501Y-77613D01*
X75758Y-77441D02*
X76044Y-77441D01*
X75701Y-77613D02*
X75901Y-77013D01*
X76101Y-77613D01*
X76301Y-77556D02*
X76329Y-77584D01*
X76301Y-77613D01*
X76272Y-77584D01*
X76301Y-77556D01*
X76301Y-77613D01*
G54D11*
X104586Y-76413D02*
X104386Y-76127D01*
X104243Y-76413D02*
X104243Y-75813D01*
X104471Y-75813D01*
X104529Y-75841D01*
X104557Y-75870D01*
X104586Y-75927D01*
X104586Y-76013D01*
X104557Y-76070D01*
X104529Y-76099D01*
X104471Y-76127D01*
X104243Y-76127D01*
X105071Y-76384D02*
X105014Y-76413D01*
X104900Y-76413D01*
X104843Y-76384D01*
X104814Y-76327D01*
X104814Y-76099D01*
X104843Y-76041D01*
X104900Y-76013D01*
X105014Y-76013D01*
X105071Y-76041D01*
X105100Y-76099D01*
X105100Y-76156D01*
X104814Y-76213D01*
X105300Y-76013D02*
X105443Y-76413D01*
X105585Y-76013D01*
X105814Y-76356D02*
X105842Y-76384D01*
X105814Y-76413D01*
X105785Y-76384D01*
X105814Y-76356D01*
X105814Y-76413D01*
X105814Y-76041D02*
X105842Y-76070D01*
X105814Y-76099D01*
X105785Y-76070D01*
X105814Y-76041D01*
X105814Y-76099D01*
X106671Y-75813D02*
X106728Y-75813D01*
X106785Y-75841D01*
X106814Y-75870D01*
X106843Y-75927D01*
X106871Y-76041D01*
X106871Y-76184D01*
X106843Y-76299D01*
X106814Y-76356D01*
X106785Y-76384D01*
X106728Y-76413D01*
X106671Y-76413D01*
X106614Y-76384D01*
X106585Y-76356D01*
X106557Y-76299D01*
X106528Y-76184D01*
X106528Y-76041D01*
X106557Y-75927D01*
X106585Y-75870D01*
X106614Y-75841D01*
X106671Y-75813D01*
X107442Y-76413D02*
X107099Y-76413D01*
X107271Y-76413D02*
X107271Y-75813D01*
X107214Y-75899D01*
X107156Y-75956D01*
X107099Y-75984D01*
G54D10*
X71014Y-76384D02*
X71100Y-76413D01*
X71243Y-76413D01*
X71300Y-76384D01*
X71329Y-76356D01*
X71357Y-76299D01*
X71357Y-76241D01*
X71329Y-76184D01*
X71300Y-76156D01*
X71243Y-76127D01*
X71129Y-76099D01*
X71071Y-76070D01*
X71043Y-76041D01*
X71014Y-75984D01*
X71014Y-75927D01*
X71043Y-75870D01*
X71071Y-75841D01*
X71129Y-75813D01*
X71271Y-75813D01*
X71357Y-75841D01*
X71614Y-76413D02*
X71614Y-76013D01*
X71614Y-75813D02*
X71585Y-75841D01*
X71614Y-75870D01*
X71642Y-75841D01*
X71614Y-75813D01*
X71614Y-75870D01*
X71843Y-76013D02*
X72157Y-76013D01*
X71843Y-76413D01*
X72157Y-76413D01*
X72614Y-76384D02*
X72557Y-76413D01*
X72443Y-76413D01*
X72386Y-76384D01*
X72357Y-76327D01*
X72357Y-76099D01*
X72386Y-76041D01*
X72443Y-76013D01*
X72557Y-76013D01*
X72614Y-76041D01*
X72643Y-76099D01*
X72643Y-76156D01*
X72357Y-76213D01*
X72900Y-76356D02*
X72928Y-76384D01*
X72900Y-76413D01*
X72871Y-76384D01*
X72900Y-76356D01*
X72900Y-76413D01*
X72900Y-76041D02*
X72928Y-76070D01*
X72900Y-76099D01*
X72871Y-76070D01*
X72900Y-76041D01*
X72900Y-76099D01*
X73614Y-76241D02*
X73900Y-76241D01*
X73557Y-76413D02*
X73757Y-75813D01*
X73957Y-76413D01*
X74414Y-76013D02*
X74414Y-76413D01*
X74271Y-75784D02*
X74128Y-76213D01*
X74500Y-76213D01*
X104243Y-77613D02*
X104243Y-77013D01*
X104786Y-77613D02*
X104786Y-77013D01*
X104786Y-77584D02*
X104729Y-77613D01*
X104615Y-77613D01*
X104557Y-77584D01*
X104529Y-77556D01*
X104500Y-77499D01*
X104500Y-77327D01*
X104529Y-77270D01*
X104557Y-77241D01*
X104615Y-77213D01*
X104729Y-77213D01*
X104786Y-77241D01*
X105072Y-77556D02*
X105100Y-77584D01*
X105072Y-77613D01*
X105043Y-77584D01*
X105072Y-77556D01*
X105072Y-77613D01*
X105072Y-77241D02*
X105100Y-77270D01*
X105072Y-77299D01*
X105043Y-77270D01*
X105072Y-77241D01*
X105072Y-77299D01*
X106129Y-77613D02*
X105786Y-77613D01*
X105958Y-77613D02*
X105958Y-77013D01*
X105901Y-77099D01*
X105843Y-77156D01*
X105786Y-77184D01*
X106814Y-76984D02*
X106300Y-77756D01*
X107329Y-77613D02*
X106986Y-77613D01*
X107158Y-77613D02*
X107158Y-77013D01*
X107101Y-77099D01*
X107043Y-77156D01*
X106986Y-77184D01*
G54D11*
X70957Y-74613D02*
X71300Y-74613D01*
X71129Y-75213D02*
X71129Y-74613D01*
X71500Y-75213D02*
X71500Y-74813D01*
X71500Y-74613D02*
X71471Y-74641D01*
X71500Y-74670D01*
X71528Y-74641D01*
X71500Y-74613D01*
X71500Y-74670D01*
X71700Y-74813D02*
X71929Y-74813D01*
X71786Y-74613D02*
X71786Y-75127D01*
X71814Y-75184D01*
X71872Y-75213D01*
X71929Y-75213D01*
X72215Y-75213D02*
X72157Y-75184D01*
X72129Y-75127D01*
X72129Y-74613D01*
X72671Y-75184D02*
X72614Y-75213D01*
X72500Y-75213D01*
X72443Y-75184D01*
X72414Y-75127D01*
X72414Y-74899D01*
X72443Y-74841D01*
X72500Y-74813D01*
X72614Y-74813D01*
X72671Y-74841D01*
X72700Y-74899D01*
X72700Y-74956D01*
X72414Y-75013D01*
X72957Y-75156D02*
X72985Y-75184D01*
X72957Y-75213D01*
X72928Y-75184D01*
X72957Y-75156D01*
X72957Y-75213D01*
X72957Y-74841D02*
X72985Y-74870D01*
X72957Y-74899D01*
X72928Y-74870D01*
X72957Y-74841D01*
X72957Y-74899D01*
X73900Y-74899D02*
X73986Y-74927D01*
X74014Y-74956D01*
X74043Y-75013D01*
X74043Y-75099D01*
X74014Y-75156D01*
X73986Y-75184D01*
X73928Y-75213D01*
X73700Y-75213D01*
X73700Y-74613D01*
X73900Y-74613D01*
X73957Y-74641D01*
X73986Y-74670D01*
X74014Y-74727D01*
X74014Y-74784D01*
X73986Y-74841D01*
X73957Y-74870D01*
X73900Y-74899D01*
X73700Y-74899D01*
X74528Y-75184D02*
X74471Y-75213D01*
X74357Y-75213D01*
X74300Y-75184D01*
X74271Y-75127D01*
X74271Y-74899D01*
X74300Y-74841D01*
X74357Y-74813D01*
X74471Y-74813D01*
X74528Y-74841D01*
X74557Y-74899D01*
X74557Y-74956D01*
X74271Y-75013D01*
X75071Y-75213D02*
X75071Y-74899D01*
X75042Y-74841D01*
X74985Y-74813D01*
X74871Y-74813D01*
X74814Y-74841D01*
X75071Y-75184D02*
X75014Y-75213D01*
X74871Y-75213D01*
X74814Y-75184D01*
X74785Y-75127D01*
X74785Y-75070D01*
X74814Y-75013D01*
X74871Y-74984D01*
X75014Y-74984D01*
X75071Y-74956D01*
X75614Y-74813D02*
X75614Y-75299D01*
X75585Y-75356D01*
X75557Y-75384D01*
X75500Y-75413D01*
X75414Y-75413D01*
X75357Y-75384D01*
X75614Y-75184D02*
X75557Y-75213D01*
X75443Y-75213D01*
X75385Y-75184D01*
X75357Y-75156D01*
X75328Y-75099D01*
X75328Y-74927D01*
X75357Y-74870D01*
X75385Y-74841D01*
X75443Y-74813D01*
X75557Y-74813D01*
X75614Y-74841D01*
X75986Y-75213D02*
X75928Y-75184D01*
X75900Y-75127D01*
X75900Y-74613D01*
X76442Y-75184D02*
X76385Y-75213D01*
X76271Y-75213D01*
X76214Y-75184D01*
X76185Y-75127D01*
X76185Y-74899D01*
X76214Y-74841D01*
X76271Y-74813D01*
X76385Y-74813D01*
X76442Y-74841D01*
X76471Y-74899D01*
X76471Y-74956D01*
X76185Y-75013D01*
X76728Y-75213D02*
X76728Y-74613D01*
X76728Y-74841D02*
X76785Y-74813D01*
X76899Y-74813D01*
X76956Y-74841D01*
X76985Y-74870D01*
X77014Y-74927D01*
X77014Y-75099D01*
X76985Y-75156D01*
X76956Y-75184D01*
X76899Y-75213D01*
X76785Y-75213D01*
X76728Y-75184D01*
X77357Y-75213D02*
X77299Y-75184D01*
X77271Y-75156D01*
X77242Y-75099D01*
X77242Y-74927D01*
X77271Y-74870D01*
X77299Y-74841D01*
X77357Y-74813D01*
X77442Y-74813D01*
X77499Y-74841D01*
X77528Y-74870D01*
X77557Y-74927D01*
X77557Y-75099D01*
X77528Y-75156D01*
X77499Y-75184D01*
X77442Y-75213D01*
X77357Y-75213D01*
X77814Y-74813D02*
X77814Y-75213D01*
X77814Y-74870D02*
X77842Y-74841D01*
X77900Y-74813D01*
X77985Y-74813D01*
X78042Y-74841D01*
X78071Y-74899D01*
X78071Y-75213D01*
X78585Y-75184D02*
X78528Y-75213D01*
X78414Y-75213D01*
X78357Y-75184D01*
X78328Y-75127D01*
X78328Y-74899D01*
X78357Y-74841D01*
X78414Y-74813D01*
X78528Y-74813D01*
X78585Y-74841D01*
X78614Y-74899D01*
X78614Y-74956D01*
X78328Y-75013D01*
X78871Y-74984D02*
X79328Y-74984D01*
X79585Y-75184D02*
X79671Y-75213D01*
X79814Y-75213D01*
X79871Y-75184D01*
X79900Y-75156D01*
X79928Y-75099D01*
X79928Y-75041D01*
X79900Y-74984D01*
X79871Y-74956D01*
X79814Y-74927D01*
X79700Y-74899D01*
X79642Y-74870D01*
X79614Y-74841D01*
X79585Y-74784D01*
X79585Y-74727D01*
X79614Y-74670D01*
X79642Y-74641D01*
X79700Y-74613D01*
X79842Y-74613D01*
X79928Y-74641D01*
X80185Y-74813D02*
X80185Y-75413D01*
X80185Y-74841D02*
X80242Y-74813D01*
X80356Y-74813D01*
X80413Y-74841D01*
X80442Y-74870D01*
X80471Y-74927D01*
X80471Y-75099D01*
X80442Y-75156D01*
X80413Y-75184D01*
X80356Y-75213D01*
X80242Y-75213D01*
X80185Y-75184D01*
X80985Y-75213D02*
X80985Y-74899D01*
X80956Y-74841D01*
X80899Y-74813D01*
X80785Y-74813D01*
X80728Y-74841D01*
X80985Y-75184D02*
X80928Y-75213D01*
X80785Y-75213D01*
X80728Y-75184D01*
X80699Y-75127D01*
X80699Y-75070D01*
X80728Y-75013D01*
X80785Y-74984D01*
X80928Y-74984D01*
X80985Y-74956D01*
X81271Y-75213D02*
X81271Y-74813D01*
X81271Y-74927D02*
X81299Y-74870D01*
X81328Y-74841D01*
X81385Y-74813D01*
X81442Y-74813D01*
X81556Y-74813D02*
X81785Y-74813D01*
X81642Y-74613D02*
X81642Y-75127D01*
X81670Y-75184D01*
X81728Y-75213D01*
X81785Y-75213D01*
X82242Y-75213D02*
X82242Y-74899D01*
X82213Y-74841D01*
X82156Y-74813D01*
X82042Y-74813D01*
X81985Y-74841D01*
X82242Y-75184D02*
X82185Y-75213D01*
X82042Y-75213D01*
X81985Y-75184D01*
X81956Y-75127D01*
X81956Y-75070D01*
X81985Y-75013D01*
X82042Y-74984D01*
X82185Y-74984D01*
X82242Y-74956D01*
X82528Y-74813D02*
X82528Y-75213D01*
X82528Y-74870D02*
X82556Y-74841D01*
X82614Y-74813D01*
X82699Y-74813D01*
X82756Y-74841D01*
X82785Y-74899D01*
X82785Y-75213D01*
X83328Y-74613D02*
X83214Y-74613D01*
X83157Y-74641D01*
X83128Y-74670D01*
X83071Y-74756D01*
X83042Y-74870D01*
X83042Y-75099D01*
X83071Y-75156D01*
X83099Y-75184D01*
X83157Y-75213D01*
X83271Y-75213D01*
X83328Y-75184D01*
X83357Y-75156D01*
X83385Y-75099D01*
X83385Y-74956D01*
X83357Y-74899D01*
X83328Y-74870D01*
X83271Y-74841D01*
X83157Y-74841D01*
X83099Y-74870D01*
X83071Y-74899D01*
X83042Y-74956D01*
X83642Y-74984D02*
X84099Y-74984D01*
X84728Y-75156D02*
X84699Y-75184D01*
X84613Y-75213D01*
X84556Y-75213D01*
X84471Y-75184D01*
X84413Y-75127D01*
X84385Y-75070D01*
X84356Y-74956D01*
X84356Y-74870D01*
X84385Y-74756D01*
X84413Y-74699D01*
X84471Y-74641D01*
X84556Y-74613D01*
X84613Y-74613D01*
X84699Y-74641D01*
X84728Y-74670D01*
X85242Y-75213D02*
X85242Y-74899D01*
X85213Y-74841D01*
X85156Y-74813D01*
X85042Y-74813D01*
X84985Y-74841D01*
X85242Y-75184D02*
X85185Y-75213D01*
X85042Y-75213D01*
X84985Y-75184D01*
X84956Y-75127D01*
X84956Y-75070D01*
X84985Y-75013D01*
X85042Y-74984D01*
X85185Y-74984D01*
X85242Y-74956D01*
X85528Y-74813D02*
X85528Y-75413D01*
X85528Y-74841D02*
X85585Y-74813D01*
X85699Y-74813D01*
X85756Y-74841D01*
X85785Y-74870D01*
X85814Y-74927D01*
X85814Y-75099D01*
X85785Y-75156D01*
X85756Y-75184D01*
X85699Y-75213D01*
X85585Y-75213D01*
X85528Y-75184D01*
X86299Y-75184D02*
X86242Y-75213D01*
X86128Y-75213D01*
X86071Y-75184D01*
X86042Y-75127D01*
X86042Y-74899D01*
X86071Y-74841D01*
X86128Y-74813D01*
X86242Y-74813D01*
X86299Y-74841D01*
X86328Y-74899D01*
X86328Y-74956D01*
X86042Y-75013D01*
G54D10*
X71243Y-72499D02*
X71043Y-72499D01*
X71043Y-72813D02*
X71043Y-72213D01*
X71329Y-72213D01*
X71557Y-72813D02*
X71557Y-72413D01*
X71557Y-72213D02*
X71528Y-72241D01*
X71557Y-72270D01*
X71585Y-72241D01*
X71557Y-72213D01*
X71557Y-72270D01*
X71929Y-72813D02*
X71871Y-72784D01*
X71843Y-72727D01*
X71843Y-72213D01*
X72385Y-72784D02*
X72328Y-72813D01*
X72214Y-72813D01*
X72157Y-72784D01*
X72128Y-72727D01*
X72128Y-72499D01*
X72157Y-72441D01*
X72214Y-72413D01*
X72328Y-72413D01*
X72385Y-72441D01*
X72414Y-72499D01*
X72414Y-72556D01*
X72128Y-72613D01*
X72671Y-72756D02*
X72699Y-72784D01*
X72671Y-72813D01*
X72642Y-72784D01*
X72671Y-72756D01*
X72671Y-72813D01*
X72671Y-72441D02*
X72699Y-72470D01*
X72671Y-72499D01*
X72642Y-72470D01*
X72671Y-72441D01*
X72671Y-72499D01*
X73414Y-72813D02*
X73414Y-72213D01*
X73414Y-72441D02*
X73471Y-72413D01*
X73585Y-72413D01*
X73642Y-72441D01*
X73671Y-72470D01*
X73700Y-72527D01*
X73700Y-72699D01*
X73671Y-72756D01*
X73642Y-72784D01*
X73585Y-72813D01*
X73471Y-72813D01*
X73414Y-72784D01*
X74043Y-72813D02*
X73985Y-72784D01*
X73957Y-72756D01*
X73928Y-72699D01*
X73928Y-72527D01*
X73957Y-72470D01*
X73985Y-72441D01*
X74043Y-72413D01*
X74128Y-72413D01*
X74185Y-72441D01*
X74214Y-72470D01*
X74243Y-72527D01*
X74243Y-72699D01*
X74214Y-72756D01*
X74185Y-72784D01*
X74128Y-72813D01*
X74043Y-72813D01*
X74500Y-72413D02*
X74500Y-72813D01*
X74500Y-72470D02*
X74528Y-72441D01*
X74586Y-72413D01*
X74671Y-72413D01*
X74728Y-72441D01*
X74757Y-72499D01*
X74757Y-72813D01*
X75271Y-72784D02*
X75214Y-72813D01*
X75100Y-72813D01*
X75043Y-72784D01*
X75014Y-72727D01*
X75014Y-72499D01*
X75043Y-72441D01*
X75100Y-72413D01*
X75214Y-72413D01*
X75271Y-72441D01*
X75300Y-72499D01*
X75300Y-72556D01*
X75014Y-72613D01*
X75471Y-72413D02*
X75700Y-72413D01*
X75557Y-72813D02*
X75557Y-72299D01*
X75585Y-72241D01*
X75643Y-72213D01*
X75700Y-72213D01*
X75900Y-72413D02*
X75900Y-73013D01*
X75900Y-72441D02*
X75957Y-72413D01*
X76071Y-72413D01*
X76128Y-72441D01*
X76157Y-72470D01*
X76186Y-72527D01*
X76186Y-72699D01*
X76157Y-72756D01*
X76128Y-72784D01*
X76071Y-72813D01*
X75957Y-72813D01*
X75900Y-72784D01*
X76700Y-72413D02*
X76700Y-72899D01*
X76671Y-72956D01*
X76643Y-72984D01*
X76586Y-73013D01*
X76500Y-73013D01*
X76443Y-72984D01*
X76700Y-72784D02*
X76643Y-72813D01*
X76529Y-72813D01*
X76471Y-72784D01*
X76443Y-72756D01*
X76414Y-72699D01*
X76414Y-72527D01*
X76443Y-72470D01*
X76471Y-72441D01*
X76529Y-72413D01*
X76643Y-72413D01*
X76700Y-72441D01*
X77243Y-72813D02*
X77243Y-72499D01*
X77214Y-72441D01*
X77157Y-72413D01*
X77043Y-72413D01*
X76986Y-72441D01*
X77243Y-72784D02*
X77186Y-72813D01*
X77043Y-72813D01*
X76986Y-72784D01*
X76957Y-72727D01*
X76957Y-72670D01*
X76986Y-72613D01*
X77043Y-72584D01*
X77186Y-72584D01*
X77243Y-72556D01*
X77529Y-72756D02*
X77557Y-72784D01*
X77529Y-72813D01*
X77500Y-72784D01*
X77529Y-72756D01*
X77529Y-72813D01*
X77815Y-72813D02*
X77815Y-72213D01*
X77815Y-72441D02*
X77872Y-72413D01*
X77986Y-72413D01*
X78043Y-72441D01*
X78072Y-72470D01*
X78101Y-72527D01*
X78101Y-72699D01*
X78072Y-72756D01*
X78043Y-72784D01*
X77986Y-72813D01*
X77872Y-72813D01*
X77815Y-72784D01*
X78358Y-72813D02*
X78358Y-72413D01*
X78358Y-72527D02*
X78386Y-72470D01*
X78415Y-72441D01*
X78472Y-72413D01*
X78529Y-72413D01*
X78986Y-72813D02*
X78986Y-72213D01*
X78986Y-72784D02*
X78929Y-72813D01*
X78815Y-72813D01*
X78757Y-72784D01*
X78729Y-72756D01*
X78700Y-72699D01*
X78700Y-72527D01*
X78729Y-72470D01*
X78757Y-72441D01*
X78815Y-72413D01*
X78929Y-72413D01*
X78986Y-72441D01*
X71014Y-73984D02*
X71100Y-74013D01*
X71243Y-74013D01*
X71300Y-73984D01*
X71329Y-73956D01*
X71357Y-73899D01*
X71357Y-73841D01*
X71329Y-73784D01*
X71300Y-73756D01*
X71243Y-73727D01*
X71129Y-73699D01*
X71071Y-73670D01*
X71043Y-73641D01*
X71014Y-73584D01*
X71014Y-73527D01*
X71043Y-73470D01*
X71071Y-73441D01*
X71129Y-73413D01*
X71271Y-73413D01*
X71357Y-73441D01*
X71614Y-74013D02*
X71614Y-73413D01*
X71871Y-74013D02*
X71871Y-73699D01*
X71842Y-73641D01*
X71785Y-73613D01*
X71700Y-73613D01*
X71642Y-73641D01*
X71614Y-73670D01*
X72385Y-73984D02*
X72328Y-74013D01*
X72214Y-74013D01*
X72157Y-73984D01*
X72128Y-73927D01*
X72128Y-73699D01*
X72157Y-73641D01*
X72214Y-73613D01*
X72328Y-73613D01*
X72385Y-73641D01*
X72414Y-73699D01*
X72414Y-73756D01*
X72128Y-73813D01*
X72899Y-73984D02*
X72842Y-74013D01*
X72728Y-74013D01*
X72671Y-73984D01*
X72642Y-73927D01*
X72642Y-73699D01*
X72671Y-73641D01*
X72728Y-73613D01*
X72842Y-73613D01*
X72899Y-73641D01*
X72928Y-73699D01*
X72928Y-73756D01*
X72642Y-73813D01*
X73099Y-73613D02*
X73328Y-73613D01*
X73185Y-73413D02*
X73185Y-73927D01*
X73213Y-73984D01*
X73271Y-74013D01*
X73328Y-74013D01*
X73528Y-73956D02*
X73556Y-73984D01*
X73528Y-74013D01*
X73499Y-73984D01*
X73528Y-73956D01*
X73528Y-74013D01*
X73528Y-73641D02*
X73556Y-73670D01*
X73528Y-73699D01*
X73499Y-73670D01*
X73528Y-73641D01*
X73528Y-73699D01*
X74585Y-74013D02*
X74242Y-74013D01*
X74414Y-74013D02*
X74414Y-73413D01*
X74357Y-73499D01*
X74299Y-73556D01*
X74242Y-73584D01*
X75270Y-73384D02*
X74756Y-74156D01*
X75785Y-74013D02*
X75442Y-74013D01*
X75614Y-74013D02*
X75614Y-73413D01*
X75557Y-73499D01*
X75499Y-73556D01*
X75442Y-73584D01*
X71043Y-70413D02*
X71043Y-69813D01*
X71243Y-70241D01*
X71443Y-69813D01*
X71443Y-70413D01*
X71729Y-70413D02*
X71729Y-70013D01*
X71729Y-69813D02*
X71700Y-69841D01*
X71729Y-69870D01*
X71757Y-69841D01*
X71729Y-69813D01*
X71729Y-69870D01*
X72272Y-70384D02*
X72215Y-70413D01*
X72101Y-70413D01*
X72043Y-70384D01*
X72015Y-70356D01*
X71986Y-70299D01*
X71986Y-70127D01*
X72015Y-70070D01*
X72043Y-70041D01*
X72101Y-70013D01*
X72215Y-70013D01*
X72272Y-70041D01*
X72529Y-70413D02*
X72529Y-69813D01*
X72786Y-70413D02*
X72786Y-70099D01*
X72757Y-70041D01*
X72700Y-70013D01*
X72615Y-70013D01*
X72557Y-70041D01*
X72529Y-70070D01*
X73329Y-70413D02*
X73329Y-70099D01*
X73300Y-70041D01*
X73243Y-70013D01*
X73129Y-70013D01*
X73072Y-70041D01*
X73329Y-70384D02*
X73272Y-70413D01*
X73129Y-70413D01*
X73072Y-70384D01*
X73043Y-70327D01*
X73043Y-70270D01*
X73072Y-70213D01*
X73129Y-70184D01*
X73272Y-70184D01*
X73329Y-70156D01*
X73843Y-70384D02*
X73786Y-70413D01*
X73672Y-70413D01*
X73615Y-70384D01*
X73586Y-70327D01*
X73586Y-70099D01*
X73615Y-70041D01*
X73672Y-70013D01*
X73786Y-70013D01*
X73843Y-70041D01*
X73872Y-70099D01*
X73872Y-70156D01*
X73586Y-70213D01*
X74215Y-70413D02*
X74157Y-70384D01*
X74129Y-70327D01*
X74129Y-69813D01*
X74900Y-70413D02*
X74900Y-69813D01*
X75100Y-70241D01*
X75300Y-69813D01*
X75300Y-70413D01*
X75843Y-70413D02*
X75843Y-70099D01*
X75814Y-70041D01*
X75757Y-70013D01*
X75643Y-70013D01*
X75586Y-70041D01*
X75843Y-70384D02*
X75786Y-70413D01*
X75643Y-70413D01*
X75586Y-70384D01*
X75557Y-70327D01*
X75557Y-70270D01*
X75586Y-70213D01*
X75643Y-70184D01*
X75786Y-70184D01*
X75843Y-70156D01*
X76386Y-70013D02*
X76386Y-70499D01*
X76357Y-70556D01*
X76329Y-70584D01*
X76272Y-70613D01*
X76186Y-70613D01*
X76129Y-70584D01*
X76386Y-70384D02*
X76329Y-70413D01*
X76215Y-70413D01*
X76157Y-70384D01*
X76129Y-70356D01*
X76100Y-70299D01*
X76100Y-70127D01*
X76129Y-70070D01*
X76157Y-70041D01*
X76215Y-70013D01*
X76329Y-70013D01*
X76386Y-70041D01*
X76615Y-70013D02*
X76758Y-70413D01*
X76900Y-70013D02*
X76758Y-70413D01*
X76700Y-70556D01*
X76672Y-70584D01*
X76615Y-70613D01*
X77386Y-70413D02*
X77386Y-70099D01*
X77357Y-70041D01*
X77300Y-70013D01*
X77186Y-70013D01*
X77129Y-70041D01*
X77386Y-70384D02*
X77329Y-70413D01*
X77186Y-70413D01*
X77129Y-70384D01*
X77100Y-70327D01*
X77100Y-70270D01*
X77129Y-70213D01*
X77186Y-70184D01*
X77329Y-70184D01*
X77386Y-70156D01*
X77672Y-70413D02*
X77672Y-70013D01*
X77672Y-70127D02*
X77700Y-70070D01*
X77729Y-70041D01*
X77786Y-70013D01*
X77843Y-70013D01*
X70300Y-69570D02*
X70300Y-77970D01*
X70300Y-71970D02*
X112300Y-71970D01*
X70300Y-69570D02*
X112300Y-69570D01*
X70300Y-74370D02*
X112300Y-74370D01*
X103500Y-75570D02*
X103500Y-77970D01*
X70300Y-76770D02*
X112300Y-76770D01*
X70300Y-75570D02*
X112300Y-75570D01*
X76900Y-75570D02*
X76900Y-76770D01*
G54D12*
X51862Y-30468D02*
X54618Y-30468D01*
X54618Y-30468D02*
X54618Y-28894D01*
X54618Y-28894D02*
X51862Y-28894D01*
G54D13*
X51862Y-30468D02*
X48319Y-30468D01*
X48319Y-30468D02*
X48319Y-28894D01*
X48319Y-28894D02*
X51862Y-28894D01*
X49197Y-46947D02*
X75447Y-46947D01*
X75447Y-40847D02*
X70147Y-40847D01*
X75447Y-46947D02*
X75447Y-40847D01*
X78197Y-33547D02*
X78197Y-28447D01*
X78197Y-33547D02*
X70147Y-33547D01*
X70147Y-33547D02*
X70147Y-40847D01*
X78197Y-27947D02*
X78197Y-28447D01*
X49197Y-25447D02*
X75697Y-25447D01*
X44197Y-30447D02*
X44197Y-41947D01*
X49197Y-25447D02*
X48762Y-25467D01*
X48329Y-25523D01*
X47903Y-25618D01*
X47487Y-25749D01*
X47084Y-25916D01*
X46698Y-26117D01*
X46330Y-26352D01*
X45984Y-26617D01*
X45662Y-26912D01*
X45367Y-27234D01*
X45102Y-27580D01*
X44867Y-27948D01*
X44666Y-28334D01*
X44499Y-28737D01*
X44368Y-29153D01*
X44273Y-29579D01*
X44217Y-30012D01*
X44197Y-30447D01*
X44197Y-41947D02*
X44217Y-42382D01*
X44273Y-42815D01*
X44368Y-43241D01*
X44499Y-43657D01*
X44666Y-44060D01*
X44867Y-44446D01*
X45102Y-44814D01*
X45367Y-45160D01*
X45662Y-45482D01*
X45984Y-45777D01*
X46330Y-46042D01*
X46698Y-46277D01*
X47084Y-46478D01*
X47487Y-46645D01*
X47903Y-46776D01*
X48329Y-46871D01*
X48762Y-46927D01*
X49197Y-46947D01*
X78197Y-27947D02*
X78187Y-27730D01*
X78159Y-27513D01*
X78111Y-27300D01*
X78046Y-27092D01*
X77962Y-26891D01*
X77862Y-26698D01*
X77744Y-26514D01*
X77612Y-26341D01*
X77464Y-26180D01*
X77303Y-26032D01*
X77130Y-25900D01*
X76947Y-25782D01*
X76753Y-25682D01*
X76552Y-25598D01*
X76344Y-25533D01*
X76131Y-25485D01*
X75914Y-25457D01*
X75697Y-25447D01*
G54D14*
X65666Y-40111D02*
X67949Y-40111D01*
X67949Y-40111D02*
X67949Y-37040D01*
X67949Y-37040D02*
X65666Y-37040D01*
X65666Y-37040D02*
X65666Y-40111D01*
X62697Y-28846D02*
X62697Y-30106D01*
X64115Y-28846D02*
X64115Y-30106D01*
G54D15*
X64106Y-30111D02*
X62706Y-30111D01*
X62706Y-28841D02*
X64106Y-28841D01*
X63106Y-29091D02*
X63103Y-29120D01*
X63094Y-29148D01*
X63080Y-29174D01*
X63062Y-29196D01*
X63039Y-29215D01*
X63014Y-29229D01*
X62986Y-29237D01*
X62957Y-29240D01*
X62928Y-29238D01*
X62900Y-29230D01*
X62874Y-29216D01*
X62852Y-29198D01*
X62833Y-29175D01*
X62819Y-29150D01*
X62810Y-29122D01*
X62807Y-29093D01*
X62809Y-29064D01*
X62817Y-29036D01*
X62830Y-29010D01*
X62849Y-28987D01*
X62871Y-28968D01*
X62896Y-28954D01*
X62924Y-28945D01*
X62953Y-28942D01*
X62982Y-28944D01*
X63010Y-28952D01*
X63036Y-28965D01*
X63059Y-28983D01*
X63078Y-29005D01*
X63093Y-29030D01*
X63102Y-29058D01*
X63105Y-29087D01*
X63106Y-29091D01*
G54D14*
X65500Y-33728D02*
X65500Y-30303D01*
X66918Y-30303D02*
X66918Y-33728D01*
G54D16*
X66909Y-30302D02*
X65509Y-30302D01*
X66909Y-33729D02*
X65509Y-33729D01*
X65920Y-30602D02*
X65917Y-30623D01*
X65911Y-30644D01*
X65901Y-30663D01*
X65887Y-30680D01*
X65871Y-30694D01*
X65852Y-30704D01*
X65831Y-30710D01*
X65809Y-30712D01*
X65789Y-30711D01*
X65768Y-30704D01*
X65749Y-30694D01*
X65732Y-30681D01*
X65718Y-30664D01*
X65707Y-30645D01*
X65701Y-30625D01*
X65699Y-30603D01*
X65700Y-30582D01*
X65706Y-30562D01*
X65716Y-30542D01*
X65730Y-30525D01*
X65746Y-30511D01*
X65765Y-30501D01*
X65786Y-30494D01*
X65807Y-30492D01*
X65828Y-30493D01*
X65849Y-30499D01*
X65868Y-30509D01*
X65885Y-30522D01*
X65899Y-30539D01*
X65910Y-30557D01*
X65917Y-30578D01*
X65919Y-30599D01*
X65920Y-30602D01*
X69212Y-28910D02*
X69412Y-28610D01*
X69212Y-29610D02*
X69212Y-28585D01*
X69212Y-28585D02*
X69812Y-28585D01*
X69812Y-28585D02*
X69812Y-29610D01*
X69812Y-29610D02*
X69212Y-29610D01*
X68869Y-29978D02*
X69769Y-29978D01*
X69769Y-29978D02*
X69769Y-30478D01*
X69769Y-30478D02*
X68869Y-30478D01*
X68869Y-30478D02*
X68869Y-29978D01*
X67978Y-29600D02*
X67978Y-28700D01*
X67978Y-28700D02*
X68478Y-28700D01*
X68478Y-28700D02*
X68478Y-29600D01*
X68478Y-29600D02*
X67978Y-29600D01*
X60526Y-27774D02*
X60526Y-28674D01*
X60526Y-28674D02*
X60026Y-28674D01*
X60026Y-28674D02*
X60026Y-27774D01*
X60026Y-27774D02*
X60526Y-27774D01*
X61191Y-27782D02*
X61191Y-28682D01*
X61191Y-28682D02*
X60691Y-28682D01*
X60691Y-28682D02*
X60691Y-27782D01*
X60691Y-27782D02*
X61191Y-27782D01*
X61817Y-27759D02*
X61817Y-28659D01*
X61817Y-28659D02*
X61317Y-28659D01*
X61317Y-28659D02*
X61317Y-27759D01*
X61317Y-27759D02*
X61817Y-27759D01*
X66281Y-27802D02*
X66281Y-28702D01*
X66281Y-28702D02*
X65781Y-28702D01*
X65781Y-28702D02*
X65781Y-27802D01*
X65781Y-27802D02*
X66281Y-27802D01*
X65616Y-27786D02*
X65616Y-28686D01*
X65616Y-28686D02*
X65116Y-28686D01*
X65116Y-28686D02*
X65116Y-27786D01*
X65116Y-27786D02*
X65616Y-27786D01*
X67454Y-29841D02*
X66554Y-29841D01*
X66554Y-29841D02*
X66554Y-29341D01*
X66554Y-29341D02*
X67454Y-29341D01*
X67454Y-29341D02*
X67454Y-29841D01*
X64427Y-30499D02*
X64427Y-31399D01*
X64427Y-31399D02*
X63927Y-31399D01*
X63927Y-31399D02*
X63927Y-30499D01*
X63927Y-30499D02*
X64427Y-30499D01*
X67863Y-35053D02*
X66963Y-35053D01*
X66963Y-35053D02*
X66963Y-34553D01*
X66963Y-34553D02*
X67863Y-34553D01*
X67863Y-34553D02*
X67863Y-35053D01*
X67871Y-34392D02*
X66971Y-34392D01*
X66971Y-34392D02*
X66971Y-33892D01*
X66971Y-33892D02*
X67871Y-33892D01*
X67871Y-33892D02*
X67871Y-34392D01*
X67863Y-35719D02*
X66963Y-35719D01*
X66963Y-35719D02*
X66963Y-35219D01*
X66963Y-35219D02*
X67863Y-35219D01*
X67863Y-35219D02*
X67863Y-35719D01*
X70206Y-42860D02*
X69306Y-42860D01*
X69306Y-42860D02*
X69306Y-42360D01*
X69306Y-42360D02*
X70206Y-42360D01*
X70206Y-42360D02*
X70206Y-42860D01*
X70202Y-42041D02*
X69302Y-42041D01*
X69302Y-42041D02*
X69302Y-41541D01*
X69302Y-41541D02*
X70202Y-41541D01*
X70202Y-41541D02*
X70202Y-42041D01*
X70190Y-43699D02*
X69290Y-43699D01*
X69290Y-43699D02*
X69290Y-43199D01*
X69290Y-43199D02*
X70190Y-43199D01*
X70190Y-43199D02*
X70190Y-43699D01*
X65774Y-36396D02*
X66674Y-36396D01*
X66674Y-36396D02*
X66674Y-36896D01*
X66674Y-36896D02*
X65774Y-36896D01*
X65774Y-36896D02*
X65774Y-36396D01*
X63828Y-28667D02*
X62928Y-28667D01*
X62928Y-28667D02*
X62928Y-28167D01*
X62928Y-28167D02*
X63828Y-28167D01*
X63828Y-28167D02*
X63828Y-28667D01*
G54D14*
X50527Y-41303D02*
X46275Y-41303D01*
X46275Y-41303D02*
X46275Y-31382D01*
X46275Y-31382D02*
X50527Y-31382D01*
X50527Y-31382D02*
X50527Y-41303D01*
X56480Y-41303D02*
X52228Y-41303D01*
X52228Y-41303D02*
X52228Y-31382D01*
X52228Y-31382D02*
X56480Y-31382D01*
X56480Y-31382D02*
X56480Y-41303D01*
X59780Y-30043D02*
X59780Y-27996D01*
X59780Y-27996D02*
X55213Y-27996D01*
X55213Y-27996D02*
X55213Y-30043D01*
X55213Y-30043D02*
X59780Y-30043D01*
G54D13*
X78130Y-27850D02*
X75886Y-27850D01*
X78130Y-31236D02*
X75886Y-31236D01*
X78130Y-28283D02*
X78130Y-27850D01*
X78130Y-27890D02*
X78130Y-28087D01*
X78130Y-30606D02*
X78130Y-31236D01*
X78129Y-30685D02*
X78129Y-28244D01*
G54D14*
X72685Y-42398D02*
X72685Y-43342D01*
X72685Y-43342D02*
X70638Y-43342D01*
X70638Y-43342D02*
X70638Y-42398D01*
X70638Y-42398D02*
X72685Y-42398D01*
X72669Y-41331D02*
X72669Y-42275D01*
X72669Y-42275D02*
X70622Y-42275D01*
X70622Y-42275D02*
X70622Y-41331D01*
X70622Y-41331D02*
X72669Y-41331D01*
X72669Y-43473D02*
X72669Y-44417D01*
X72669Y-44417D02*
X70622Y-44417D01*
X70622Y-44417D02*
X70622Y-43473D01*
X70622Y-43473D02*
X72669Y-43473D01*
X70386Y-28677D02*
X71330Y-28677D01*
X71330Y-28677D02*
X71330Y-30724D01*
X71330Y-30724D02*
X70386Y-30724D01*
X70386Y-30724D02*
X70386Y-28677D01*
G54D13*
X68248Y-40795D02*
X68248Y-37252D01*
X68248Y-37252D02*
X69822Y-37252D01*
X69822Y-37252D02*
X69822Y-40795D01*
X69822Y-40795D02*
X68248Y-40795D01*
X69832Y-33484D02*
X69832Y-37027D01*
X69832Y-37027D02*
X68258Y-37027D01*
X68258Y-37027D02*
X68258Y-33484D01*
X68258Y-33484D02*
X69832Y-33484D01*
G54D17*
X58453Y-33941D02*
X65146Y-33941D01*
X65146Y-33941D02*
X65146Y-40634D01*
X65146Y-40634D02*
X58453Y-40634D01*
X58453Y-40634D02*
X58453Y-33941D01*
G54D11*
X50834Y-28143D02*
X50834Y-28629D01*
X50862Y-28686D01*
X50891Y-28714D01*
X50948Y-28743D01*
X51062Y-28743D01*
X51120Y-28714D01*
X51148Y-28686D01*
X51177Y-28629D01*
X51177Y-28143D01*
X51406Y-28143D02*
X51806Y-28143D01*
X51549Y-28743D01*
X52148Y-28143D02*
X52205Y-28143D01*
X52262Y-28171D01*
X52291Y-28200D01*
X52320Y-28257D01*
X52348Y-28371D01*
X52348Y-28514D01*
X52320Y-28629D01*
X52291Y-28686D01*
X52262Y-28714D01*
X52205Y-28743D01*
X52148Y-28743D01*
X52091Y-28714D01*
X52062Y-28686D01*
X52034Y-28629D01*
X52005Y-28514D01*
X52005Y-28371D01*
X52034Y-28257D01*
X52062Y-28200D01*
X52091Y-28171D01*
X52148Y-28143D01*
X52919Y-28743D02*
X52576Y-28743D01*
X52748Y-28743D02*
X52748Y-28143D01*
X52691Y-28229D01*
X52633Y-28286D01*
X52576Y-28314D01*
X49158Y-31489D02*
X49158Y-31917D01*
X49130Y-32003D01*
X49073Y-32060D01*
X48987Y-32089D01*
X48930Y-32089D01*
X49358Y-31489D02*
X49701Y-31489D01*
X49530Y-32089D02*
X49530Y-31489D01*
X49872Y-31917D02*
X50158Y-31917D01*
X49815Y-32089D02*
X50015Y-31489D01*
X50215Y-32089D01*
X50729Y-31517D02*
X50672Y-31489D01*
X50586Y-31489D01*
X50501Y-31517D01*
X50443Y-31575D01*
X50415Y-31632D01*
X50386Y-31746D01*
X50386Y-31832D01*
X50415Y-31946D01*
X50443Y-32003D01*
X50501Y-32060D01*
X50586Y-32089D01*
X50643Y-32089D01*
X50729Y-32060D01*
X50758Y-32032D01*
X50758Y-31832D01*
X50643Y-31832D01*
X50872Y-32146D02*
X51329Y-32146D01*
X51815Y-32032D02*
X51786Y-32060D01*
X51700Y-32089D01*
X51643Y-32089D01*
X51558Y-32060D01*
X51500Y-32003D01*
X51472Y-31946D01*
X51443Y-31832D01*
X51443Y-31746D01*
X51472Y-31632D01*
X51500Y-31575D01*
X51558Y-31517D01*
X51643Y-31489D01*
X51700Y-31489D01*
X51786Y-31517D01*
X51815Y-31546D01*
X52186Y-31489D02*
X52300Y-31489D01*
X52358Y-31517D01*
X52415Y-31575D01*
X52443Y-31689D01*
X52443Y-31889D01*
X52415Y-32003D01*
X52358Y-32060D01*
X52300Y-32089D01*
X52186Y-32089D01*
X52129Y-32060D01*
X52072Y-32003D01*
X52043Y-31889D01*
X52043Y-31689D01*
X52072Y-31575D01*
X52129Y-31517D01*
X52186Y-31489D01*
X52701Y-32089D02*
X52701Y-31489D01*
X53044Y-32089D01*
X53044Y-31489D01*
X53330Y-32089D02*
X53330Y-31489D01*
X53673Y-32089D01*
X53673Y-31489D01*
G54D14*
X50021Y-31104D02*
X50021Y-30992D01*
X50218Y-31048D02*
X50021Y-31048D01*
X50218Y-30926D02*
X50021Y-30926D01*
X50162Y-30860D01*
X50021Y-30795D01*
X50218Y-30795D01*
X50209Y-30710D02*
X50218Y-30682D01*
X50218Y-30635D01*
X50209Y-30617D01*
X50199Y-30607D01*
X50181Y-30598D01*
X50162Y-30598D01*
X50143Y-30607D01*
X50134Y-30617D01*
X50124Y-30635D01*
X50115Y-30673D01*
X50106Y-30692D01*
X50096Y-30701D01*
X50078Y-30710D01*
X50059Y-30710D01*
X50040Y-30701D01*
X50031Y-30692D01*
X50021Y-30673D01*
X50021Y-30626D01*
X50031Y-30598D01*
X49027Y-31053D02*
X49027Y-30941D01*
X49224Y-30997D02*
X49027Y-30997D01*
X49224Y-30875D02*
X49027Y-30875D01*
X49027Y-30828D01*
X49037Y-30800D01*
X49055Y-30781D01*
X49074Y-30772D01*
X49112Y-30763D01*
X49140Y-30763D01*
X49177Y-30772D01*
X49196Y-30781D01*
X49215Y-30800D01*
X49224Y-30828D01*
X49224Y-30875D01*
X49224Y-30678D02*
X49027Y-30678D01*
G54D18*
X52000Y-31158D02*
X52000Y-31046D01*
X52197Y-31102D02*
X52000Y-31102D01*
X52197Y-30980D02*
X52000Y-30980D01*
X52000Y-30933D01*
X52010Y-30905D01*
X52028Y-30886D01*
X52047Y-30877D01*
X52085Y-30868D01*
X52113Y-30868D01*
X52150Y-30877D01*
X52169Y-30886D01*
X52188Y-30905D01*
X52197Y-30933D01*
X52197Y-30980D01*
X52000Y-30746D02*
X52000Y-30708D01*
X52010Y-30689D01*
X52028Y-30671D01*
X52066Y-30661D01*
X52132Y-30661D01*
X52169Y-30671D01*
X52188Y-30689D01*
X52197Y-30708D01*
X52197Y-30746D01*
X52188Y-30764D01*
X52169Y-30783D01*
X52132Y-30792D01*
X52066Y-30792D01*
X52028Y-30783D01*
X52010Y-30764D01*
X52000Y-30746D01*
G54D14*
X51016Y-31105D02*
X51016Y-30993D01*
X51213Y-31049D02*
X51016Y-31049D01*
X51194Y-30815D02*
X51204Y-30824D01*
X51213Y-30852D01*
X51213Y-30871D01*
X51204Y-30899D01*
X51185Y-30918D01*
X51166Y-30927D01*
X51129Y-30936D01*
X51101Y-30936D01*
X51063Y-30927D01*
X51044Y-30918D01*
X51026Y-30899D01*
X51016Y-30871D01*
X51016Y-30852D01*
X51026Y-30824D01*
X51035Y-30815D01*
X51213Y-30730D02*
X51016Y-30730D01*
X51213Y-30618D02*
X51101Y-30702D01*
X51016Y-30618D02*
X51129Y-30730D01*
X53063Y-31032D02*
X53053Y-31051D01*
X53053Y-31079D01*
X53063Y-31107D01*
X53081Y-31126D01*
X53100Y-31135D01*
X53138Y-31144D01*
X53166Y-31144D01*
X53203Y-31135D01*
X53222Y-31126D01*
X53241Y-31107D01*
X53250Y-31079D01*
X53250Y-31060D01*
X53241Y-31032D01*
X53231Y-31023D01*
X53166Y-31023D01*
X53166Y-31060D01*
X53250Y-30938D02*
X53053Y-30938D01*
X53250Y-30826D01*
X53053Y-30826D01*
X53250Y-30732D02*
X53053Y-30732D01*
X53053Y-30685D01*
X53063Y-30657D01*
X53081Y-30638D01*
X53100Y-30629D01*
X53138Y-30620D01*
X53166Y-30620D01*
X53203Y-30629D01*
X53222Y-30638D01*
X53241Y-30657D01*
X53250Y-30685D01*
X53250Y-30732D01*
G54D18*
X53973Y-31363D02*
X54179Y-31295D01*
X53973Y-31226D01*
X54121Y-31167D02*
X54121Y-31069D01*
X54179Y-31186D02*
X53973Y-31118D01*
X54179Y-31049D01*
X53973Y-30980D02*
X54140Y-30980D01*
X54160Y-30970D01*
X54170Y-30960D01*
X54179Y-30941D01*
X54179Y-30901D01*
X54170Y-30882D01*
X54160Y-30872D01*
X54140Y-30862D01*
X53973Y-30862D01*
X53973Y-30784D02*
X54179Y-30646D01*
X53973Y-30646D02*
X54179Y-30784D01*
G54D11*
X69029Y-38698D02*
X69515Y-38698D01*
X69572Y-38670D01*
X69600Y-38641D01*
X69629Y-38584D01*
X69629Y-38470D01*
X69600Y-38412D01*
X69572Y-38384D01*
X69515Y-38355D01*
X69029Y-38355D01*
X69229Y-37812D02*
X69629Y-37812D01*
X69000Y-37955D02*
X69429Y-38098D01*
X69429Y-37726D01*
X69029Y-37384D02*
X69029Y-37327D01*
X69057Y-37270D01*
X69086Y-37241D01*
X69143Y-37212D01*
X69257Y-37184D01*
X69400Y-37184D01*
X69515Y-37212D01*
X69572Y-37241D01*
X69600Y-37270D01*
X69629Y-37327D01*
X69629Y-37384D01*
X69600Y-37441D01*
X69572Y-37470D01*
X69515Y-37498D01*
X69400Y-37527D01*
X69257Y-37527D01*
X69143Y-37498D01*
X69086Y-37470D01*
X69057Y-37441D01*
X69029Y-37384D01*
X69029Y-36641D02*
X69029Y-36927D01*
X69315Y-36956D01*
X69286Y-36927D01*
X69257Y-36870D01*
X69257Y-36727D01*
X69286Y-36670D01*
X69315Y-36641D01*
X69372Y-36613D01*
X69515Y-36613D01*
X69572Y-36641D01*
X69600Y-36670D01*
X69629Y-36727D01*
X69629Y-36870D01*
X69600Y-36927D01*
X69572Y-36956D01*
G54D19*
X66822Y-40722D02*
X66822Y-40840D01*
X66822Y-40781D02*
X66616Y-40781D01*
X66646Y-40801D01*
X66665Y-40820D01*
X66675Y-40840D01*
X66616Y-40595D02*
X66616Y-40575D01*
X66626Y-40555D01*
X66636Y-40546D01*
X66656Y-40536D01*
X66695Y-40526D01*
X66744Y-40526D01*
X66783Y-40536D01*
X66803Y-40546D01*
X66813Y-40555D01*
X66822Y-40575D01*
X66822Y-40595D01*
X66813Y-40614D01*
X66803Y-40624D01*
X66783Y-40634D01*
X66744Y-40644D01*
X66695Y-40644D01*
X66656Y-40634D01*
X66636Y-40624D01*
X66626Y-40614D01*
X66616Y-40595D01*
X66616Y-40399D02*
X66616Y-40379D01*
X66626Y-40359D01*
X66636Y-40350D01*
X66656Y-40340D01*
X66695Y-40330D01*
X66744Y-40330D01*
X66783Y-40340D01*
X66803Y-40350D01*
X66813Y-40359D01*
X66822Y-40379D01*
X66822Y-40399D01*
X66813Y-40418D01*
X66803Y-40428D01*
X66783Y-40438D01*
X66744Y-40448D01*
X66695Y-40448D01*
X66656Y-40438D01*
X66636Y-40428D01*
X66626Y-40418D01*
X66616Y-40399D01*
X66822Y-40242D02*
X66616Y-40242D01*
X66764Y-40173D01*
X66616Y-40105D01*
X66822Y-40105D01*
X66822Y-40007D02*
X66616Y-40007D01*
X66714Y-40007D02*
X66714Y-39889D01*
X66822Y-39889D02*
X66616Y-39889D01*
X66616Y-39811D02*
X66616Y-39673D01*
X66822Y-39811D01*
X66822Y-39673D01*
X66616Y-39556D02*
X66616Y-39516D01*
X66626Y-39497D01*
X66646Y-39477D01*
X66685Y-39467D01*
X66754Y-39467D01*
X66793Y-39477D01*
X66813Y-39497D01*
X66822Y-39516D01*
X66822Y-39556D01*
X66813Y-39575D01*
X66793Y-39595D01*
X66754Y-39605D01*
X66685Y-39605D01*
X66646Y-39595D01*
X66626Y-39575D01*
X66616Y-39556D01*
X66813Y-39389D02*
X66822Y-39359D01*
X66822Y-39310D01*
X66813Y-39291D01*
X66803Y-39281D01*
X66783Y-39271D01*
X66764Y-39271D01*
X66744Y-39281D01*
X66734Y-39291D01*
X66724Y-39310D01*
X66714Y-39350D01*
X66705Y-39369D01*
X66695Y-39379D01*
X66675Y-39389D01*
X66656Y-39389D01*
X66636Y-39379D01*
X66626Y-39369D01*
X66616Y-39350D01*
X66616Y-39300D01*
X66626Y-39271D01*
X66803Y-39065D02*
X66813Y-39075D01*
X66822Y-39104D01*
X66822Y-39124D01*
X66813Y-39154D01*
X66793Y-39173D01*
X66773Y-39183D01*
X66734Y-39193D01*
X66705Y-39193D01*
X66665Y-39183D01*
X66646Y-39173D01*
X66626Y-39154D01*
X66616Y-39124D01*
X66616Y-39104D01*
X66626Y-39075D01*
X66636Y-39065D01*
G54D20*
X63746Y-29769D02*
X63925Y-29769D01*
X63946Y-29761D01*
X63956Y-29753D01*
X63967Y-29737D01*
X63967Y-29704D01*
X63956Y-29688D01*
X63946Y-29680D01*
X63925Y-29672D01*
X63746Y-29672D01*
X63820Y-29517D02*
X63967Y-29517D01*
X63735Y-29558D02*
X63893Y-29598D01*
X63893Y-29493D01*
X63746Y-29395D02*
X63746Y-29378D01*
X63756Y-29362D01*
X63767Y-29354D01*
X63788Y-29346D01*
X63830Y-29338D01*
X63883Y-29338D01*
X63925Y-29346D01*
X63946Y-29354D01*
X63956Y-29362D01*
X63967Y-29378D01*
X63967Y-29395D01*
X63956Y-29411D01*
X63946Y-29419D01*
X63925Y-29427D01*
X63883Y-29435D01*
X63830Y-29435D01*
X63788Y-29427D01*
X63767Y-29419D01*
X63756Y-29411D01*
X63746Y-29395D01*
X63746Y-29281D02*
X63746Y-29167D01*
X63967Y-29240D01*
G54D21*
X63435Y-30142D02*
X63445Y-30153D01*
X63456Y-30184D01*
X63456Y-30205D01*
X63445Y-30237D01*
X63424Y-30258D01*
X63403Y-30268D01*
X63361Y-30279D01*
X63330Y-30279D01*
X63288Y-30268D01*
X63267Y-30258D01*
X63245Y-30237D01*
X63235Y-30205D01*
X63235Y-30184D01*
X63245Y-30153D01*
X63256Y-30142D01*
X63393Y-30058D02*
X63393Y-29953D01*
X63456Y-30079D02*
X63235Y-30005D01*
X63456Y-29932D01*
X63235Y-29890D02*
X63235Y-29764D01*
X63456Y-29827D02*
X63235Y-29827D01*
X63256Y-29701D02*
X63245Y-29690D01*
X63235Y-29669D01*
X63235Y-29617D01*
X63245Y-29596D01*
X63256Y-29585D01*
X63277Y-29575D01*
X63298Y-29575D01*
X63330Y-29585D01*
X63456Y-29711D01*
X63456Y-29575D01*
X63309Y-29386D02*
X63456Y-29386D01*
X63224Y-29438D02*
X63382Y-29491D01*
X63382Y-29354D01*
X63435Y-29144D02*
X63445Y-29155D01*
X63456Y-29186D01*
X63456Y-29207D01*
X63445Y-29239D01*
X63424Y-29260D01*
X63403Y-29270D01*
X63361Y-29281D01*
X63330Y-29281D01*
X63288Y-29270D01*
X63267Y-29260D01*
X63245Y-29239D01*
X63235Y-29207D01*
X63235Y-29186D01*
X63245Y-29155D01*
X63256Y-29144D01*
X63256Y-29060D02*
X63245Y-29049D01*
X63235Y-29028D01*
X63235Y-28976D01*
X63245Y-28955D01*
X63256Y-28944D01*
X63277Y-28934D01*
X63298Y-28934D01*
X63330Y-28944D01*
X63456Y-29070D01*
X63456Y-28934D01*
X63235Y-28734D02*
X63235Y-28839D01*
X63340Y-28850D01*
X63330Y-28839D01*
X63319Y-28818D01*
X63319Y-28766D01*
X63330Y-28745D01*
X63340Y-28734D01*
X63361Y-28724D01*
X63414Y-28724D01*
X63435Y-28734D01*
X63445Y-28745D01*
X63456Y-28766D01*
X63456Y-28818D01*
X63445Y-28839D01*
X63435Y-28850D01*
X63235Y-28535D02*
X63235Y-28577D01*
X63245Y-28598D01*
X63256Y-28608D01*
X63288Y-28629D01*
X63330Y-28640D01*
X63414Y-28640D01*
X63435Y-28629D01*
X63445Y-28619D01*
X63456Y-28598D01*
X63456Y-28556D01*
X63445Y-28535D01*
X63435Y-28524D01*
X63414Y-28514D01*
X63361Y-28514D01*
X63340Y-28524D01*
X63330Y-28535D01*
X63319Y-28556D01*
X63319Y-28598D01*
X63330Y-28619D01*
X63340Y-28629D01*
X63361Y-28640D01*
G54D14*
X65891Y-32590D02*
X66051Y-32590D01*
X66069Y-32581D01*
X66079Y-32571D01*
X66088Y-32553D01*
X66088Y-32515D01*
X66079Y-32496D01*
X66069Y-32487D01*
X66051Y-32478D01*
X65891Y-32478D01*
X65957Y-32300D02*
X66088Y-32300D01*
X65882Y-32347D02*
X66023Y-32393D01*
X66023Y-32272D01*
X65891Y-32159D02*
X65891Y-32140D01*
X65901Y-32121D01*
X65910Y-32112D01*
X65929Y-32102D01*
X65966Y-32093D01*
X66013Y-32093D01*
X66051Y-32102D01*
X66069Y-32112D01*
X66079Y-32121D01*
X66088Y-32140D01*
X66088Y-32159D01*
X66079Y-32177D01*
X66069Y-32187D01*
X66051Y-32196D01*
X66013Y-32205D01*
X65966Y-32205D01*
X65929Y-32196D01*
X65910Y-32187D01*
X65901Y-32177D01*
X65891Y-32159D01*
X65957Y-31924D02*
X66088Y-31924D01*
X65882Y-31971D02*
X66023Y-32017D01*
X66023Y-31896D01*
X66541Y-32877D02*
X66738Y-32746D01*
X66541Y-32746D02*
X66738Y-32877D01*
X66738Y-32558D02*
X66644Y-32623D01*
X66738Y-32670D02*
X66541Y-32670D01*
X66541Y-32595D01*
X66551Y-32576D01*
X66560Y-32567D01*
X66579Y-32558D01*
X66607Y-32558D01*
X66626Y-32567D01*
X66635Y-32576D01*
X66644Y-32595D01*
X66644Y-32670D01*
X66682Y-32482D02*
X66682Y-32389D01*
X66738Y-32501D02*
X66541Y-32436D01*
X66738Y-32370D01*
X66738Y-32201D02*
X66738Y-32313D01*
X66738Y-32257D02*
X66541Y-32257D01*
X66569Y-32276D01*
X66588Y-32295D01*
X66598Y-32313D01*
X66560Y-32125D02*
X66551Y-32116D01*
X66541Y-32097D01*
X66541Y-32050D01*
X66551Y-32032D01*
X66560Y-32022D01*
X66579Y-32013D01*
X66598Y-32013D01*
X66626Y-32022D01*
X66738Y-32135D01*
X66738Y-32013D01*
X66541Y-31891D02*
X66541Y-31872D01*
X66551Y-31853D01*
X66560Y-31844D01*
X66579Y-31834D01*
X66616Y-31825D01*
X66663Y-31825D01*
X66701Y-31834D01*
X66719Y-31844D01*
X66729Y-31853D01*
X66738Y-31872D01*
X66738Y-31891D01*
X66729Y-31909D01*
X66719Y-31919D01*
X66701Y-31928D01*
X66663Y-31937D01*
X66616Y-31937D01*
X66579Y-31928D01*
X66560Y-31919D01*
X66551Y-31909D01*
X66541Y-31891D01*
X66541Y-31759D02*
X66541Y-31628D01*
X66738Y-31712D01*
G54D22*
X69236Y-30047D02*
X69208Y-30033D01*
X69179Y-30004D01*
X69136Y-29961D01*
X69108Y-29947D01*
X69079Y-29947D01*
X69094Y-30018D02*
X69065Y-30004D01*
X69036Y-29976D01*
X69022Y-29918D01*
X69022Y-29818D01*
X69036Y-29761D01*
X69065Y-29733D01*
X69094Y-29718D01*
X69151Y-29718D01*
X69179Y-29733D01*
X69208Y-29761D01*
X69222Y-29818D01*
X69222Y-29918D01*
X69208Y-29976D01*
X69179Y-30004D01*
X69151Y-30018D01*
X69094Y-30018D01*
X69336Y-29747D02*
X69350Y-29733D01*
X69379Y-29718D01*
X69450Y-29718D01*
X69479Y-29733D01*
X69493Y-29747D01*
X69508Y-29776D01*
X69508Y-29804D01*
X69493Y-29847D01*
X69322Y-30018D01*
X69508Y-30018D01*
X69694Y-29718D02*
X69722Y-29718D01*
X69751Y-29733D01*
X69765Y-29747D01*
X69779Y-29776D01*
X69794Y-29833D01*
X69794Y-29904D01*
X69779Y-29961D01*
X69765Y-29990D01*
X69751Y-30004D01*
X69722Y-30018D01*
X69694Y-30018D01*
X69665Y-30004D01*
X69651Y-29990D01*
X69636Y-29961D01*
X69622Y-29904D01*
X69622Y-29833D01*
X69636Y-29776D01*
X69651Y-29747D01*
X69665Y-29733D01*
X69694Y-29718D01*
X70080Y-30018D02*
X69908Y-30018D01*
X69994Y-30018D02*
X69994Y-29718D01*
X69965Y-29761D01*
X69937Y-29790D01*
X69908Y-29804D01*
X69413Y-29768D02*
X69404Y-29759D01*
X69394Y-29740D01*
X69394Y-29693D01*
X69404Y-29675D01*
X69413Y-29665D01*
X69432Y-29656D01*
X69451Y-29656D01*
X69479Y-29665D01*
X69591Y-29778D01*
X69591Y-29656D01*
X69591Y-29571D02*
X69394Y-29571D01*
X69591Y-29459D01*
X69394Y-29459D01*
X69394Y-29384D02*
X69394Y-29253D01*
X69591Y-29337D01*
X69394Y-29140D02*
X69394Y-29121D01*
X69404Y-29102D01*
X69413Y-29093D01*
X69432Y-29083D01*
X69469Y-29074D01*
X69516Y-29074D01*
X69554Y-29083D01*
X69572Y-29093D01*
X69582Y-29102D01*
X69591Y-29121D01*
X69591Y-29140D01*
X69582Y-29158D01*
X69572Y-29168D01*
X69554Y-29177D01*
X69516Y-29186D01*
X69469Y-29186D01*
X69432Y-29177D01*
X69413Y-29168D01*
X69404Y-29158D01*
X69394Y-29140D01*
X69394Y-28952D02*
X69394Y-28933D01*
X69404Y-28914D01*
X69413Y-28905D01*
X69432Y-28895D01*
X69469Y-28886D01*
X69516Y-28886D01*
X69554Y-28895D01*
X69572Y-28905D01*
X69582Y-28914D01*
X69591Y-28933D01*
X69591Y-28952D01*
X69582Y-28970D01*
X69572Y-28980D01*
X69554Y-28989D01*
X69516Y-28998D01*
X69469Y-28998D01*
X69432Y-28989D01*
X69413Y-28980D01*
X69404Y-28970D01*
X69394Y-28952D01*
X69413Y-28810D02*
X69404Y-28801D01*
X69394Y-28782D01*
X69394Y-28735D01*
X69404Y-28717D01*
X69413Y-28707D01*
X69432Y-28698D01*
X69451Y-28698D01*
X69479Y-28707D01*
X69591Y-28820D01*
X69591Y-28698D01*
X69591Y-28613D02*
X69394Y-28613D01*
X69591Y-28501D02*
X69479Y-28585D01*
X69394Y-28501D02*
X69507Y-28613D01*
G54D23*
X69119Y-30341D02*
X69059Y-30208D01*
X69016Y-30341D02*
X69016Y-30061D01*
X69084Y-30061D01*
X69102Y-30075D01*
X69110Y-30088D01*
X69119Y-30115D01*
X69119Y-30155D01*
X69110Y-30181D01*
X69102Y-30195D01*
X69084Y-30208D01*
X69016Y-30208D01*
X69187Y-30088D02*
X69196Y-30075D01*
X69213Y-30061D01*
X69256Y-30061D01*
X69273Y-30075D01*
X69282Y-30088D01*
X69290Y-30115D01*
X69290Y-30141D01*
X69282Y-30181D01*
X69179Y-30341D01*
X69290Y-30341D01*
X69461Y-30341D02*
X69358Y-30341D01*
X69410Y-30341D02*
X69410Y-30061D01*
X69393Y-30101D01*
X69375Y-30128D01*
X69358Y-30141D01*
X69546Y-30341D02*
X69581Y-30341D01*
X69598Y-30328D01*
X69606Y-30315D01*
X69624Y-30275D01*
X69632Y-30221D01*
X69632Y-30115D01*
X69624Y-30088D01*
X69615Y-30075D01*
X69598Y-30061D01*
X69564Y-30061D01*
X69546Y-30075D01*
X69538Y-30088D01*
X69529Y-30115D01*
X69529Y-30181D01*
X69538Y-30208D01*
X69546Y-30221D01*
X69564Y-30235D01*
X69598Y-30235D01*
X69615Y-30221D01*
X69624Y-30208D01*
X69632Y-30181D01*
X68341Y-29350D02*
X68208Y-29410D01*
X68341Y-29453D02*
X68061Y-29453D01*
X68061Y-29385D01*
X68075Y-29367D01*
X68088Y-29359D01*
X68115Y-29350D01*
X68155Y-29350D01*
X68181Y-29359D01*
X68195Y-29367D01*
X68208Y-29385D01*
X68208Y-29453D01*
X68088Y-29282D02*
X68075Y-29273D01*
X68061Y-29256D01*
X68061Y-29213D01*
X68075Y-29196D01*
X68088Y-29187D01*
X68115Y-29179D01*
X68141Y-29179D01*
X68181Y-29187D01*
X68341Y-29290D01*
X68341Y-29179D01*
X68341Y-29008D02*
X68341Y-29111D01*
X68341Y-29059D02*
X68061Y-29059D01*
X68101Y-29076D01*
X68128Y-29094D01*
X68141Y-29111D01*
X68061Y-28948D02*
X68061Y-28828D01*
X68341Y-28905D01*
X60389Y-28424D02*
X60256Y-28484D01*
X60389Y-28527D02*
X60109Y-28527D01*
X60109Y-28459D01*
X60123Y-28441D01*
X60136Y-28433D01*
X60163Y-28424D01*
X60203Y-28424D01*
X60229Y-28433D01*
X60243Y-28441D01*
X60256Y-28459D01*
X60256Y-28527D01*
X60203Y-28270D02*
X60389Y-28270D01*
X60096Y-28313D02*
X60296Y-28356D01*
X60296Y-28244D01*
X60389Y-28082D02*
X60389Y-28185D01*
X60389Y-28133D02*
X60109Y-28133D01*
X60149Y-28150D01*
X60176Y-28168D01*
X60189Y-28185D01*
X60109Y-27971D02*
X60109Y-27954D01*
X60123Y-27937D01*
X60136Y-27928D01*
X60163Y-27919D01*
X60216Y-27911D01*
X60283Y-27911D01*
X60336Y-27919D01*
X60363Y-27928D01*
X60376Y-27937D01*
X60389Y-27954D01*
X60389Y-27971D01*
X60376Y-27988D01*
X60363Y-27997D01*
X60336Y-28005D01*
X60283Y-28014D01*
X60216Y-28014D01*
X60163Y-28005D01*
X60136Y-27997D01*
X60123Y-27988D01*
X60109Y-27971D01*
X61054Y-28432D02*
X60921Y-28492D01*
X61054Y-28535D02*
X60774Y-28535D01*
X60774Y-28467D01*
X60788Y-28449D01*
X60801Y-28441D01*
X60828Y-28432D01*
X60868Y-28432D01*
X60894Y-28441D01*
X60908Y-28449D01*
X60921Y-28467D01*
X60921Y-28535D01*
X60868Y-28278D02*
X61054Y-28278D01*
X60761Y-28321D02*
X60961Y-28364D01*
X60961Y-28252D01*
X60774Y-28150D02*
X60774Y-28133D01*
X60788Y-28116D01*
X60801Y-28107D01*
X60828Y-28098D01*
X60881Y-28090D01*
X60948Y-28090D01*
X61001Y-28098D01*
X61028Y-28107D01*
X61041Y-28116D01*
X61054Y-28133D01*
X61054Y-28150D01*
X61041Y-28167D01*
X61028Y-28176D01*
X61001Y-28184D01*
X60948Y-28193D01*
X60881Y-28193D01*
X60828Y-28184D01*
X60801Y-28176D01*
X60788Y-28167D01*
X60774Y-28150D01*
X61054Y-28005D02*
X61054Y-27970D01*
X61041Y-27953D01*
X61028Y-27945D01*
X60988Y-27927D01*
X60934Y-27919D01*
X60828Y-27919D01*
X60801Y-27927D01*
X60788Y-27936D01*
X60774Y-27953D01*
X60774Y-27987D01*
X60788Y-28005D01*
X60801Y-28013D01*
X60828Y-28022D01*
X60894Y-28022D01*
X60921Y-28013D01*
X60934Y-28005D01*
X60948Y-27987D01*
X60948Y-27953D01*
X60934Y-27936D01*
X60921Y-27927D01*
X60894Y-27919D01*
X61680Y-28409D02*
X61547Y-28469D01*
X61680Y-28512D02*
X61400Y-28512D01*
X61400Y-28444D01*
X61414Y-28426D01*
X61427Y-28418D01*
X61454Y-28409D01*
X61494Y-28409D01*
X61520Y-28418D01*
X61534Y-28426D01*
X61547Y-28444D01*
X61547Y-28512D01*
X61494Y-28255D02*
X61680Y-28255D01*
X61387Y-28298D02*
X61587Y-28341D01*
X61587Y-28229D01*
X61400Y-28127D02*
X61400Y-28110D01*
X61414Y-28093D01*
X61427Y-28084D01*
X61454Y-28075D01*
X61507Y-28067D01*
X61574Y-28067D01*
X61627Y-28075D01*
X61654Y-28084D01*
X61667Y-28093D01*
X61680Y-28110D01*
X61680Y-28127D01*
X61667Y-28144D01*
X61654Y-28153D01*
X61627Y-28161D01*
X61574Y-28170D01*
X61507Y-28170D01*
X61454Y-28161D01*
X61427Y-28153D01*
X61414Y-28144D01*
X61400Y-28127D01*
X61520Y-27964D02*
X61507Y-27982D01*
X61494Y-27990D01*
X61467Y-27999D01*
X61454Y-27999D01*
X61427Y-27990D01*
X61414Y-27982D01*
X61400Y-27964D01*
X61400Y-27930D01*
X61414Y-27913D01*
X61427Y-27904D01*
X61454Y-27896D01*
X61467Y-27896D01*
X61494Y-27904D01*
X61507Y-27913D01*
X61520Y-27930D01*
X61520Y-27964D01*
X61534Y-27982D01*
X61547Y-27990D01*
X61574Y-27999D01*
X61627Y-27999D01*
X61654Y-27990D01*
X61667Y-27982D01*
X61680Y-27964D01*
X61680Y-27930D01*
X61667Y-27913D01*
X61654Y-27904D01*
X61627Y-27896D01*
X61574Y-27896D01*
X61547Y-27904D01*
X61534Y-27913D01*
X61520Y-27930D01*
X66144Y-28452D02*
X66011Y-28512D01*
X66144Y-28555D02*
X65864Y-28555D01*
X65864Y-28487D01*
X65878Y-28469D01*
X65891Y-28461D01*
X65918Y-28452D01*
X65958Y-28452D01*
X65984Y-28461D01*
X65998Y-28469D01*
X66011Y-28487D01*
X66011Y-28555D01*
X65958Y-28298D02*
X66144Y-28298D01*
X65851Y-28341D02*
X66051Y-28384D01*
X66051Y-28272D01*
X65864Y-28170D02*
X65864Y-28153D01*
X65878Y-28136D01*
X65891Y-28127D01*
X65918Y-28118D01*
X65971Y-28110D01*
X66038Y-28110D01*
X66091Y-28118D01*
X66118Y-28127D01*
X66131Y-28136D01*
X66144Y-28153D01*
X66144Y-28170D01*
X66131Y-28187D01*
X66118Y-28196D01*
X66091Y-28204D01*
X66038Y-28213D01*
X65971Y-28213D01*
X65918Y-28204D01*
X65891Y-28196D01*
X65878Y-28187D01*
X65864Y-28170D01*
X65864Y-28050D02*
X65864Y-27930D01*
X66144Y-28007D01*
X65479Y-28436D02*
X65346Y-28496D01*
X65479Y-28539D02*
X65199Y-28539D01*
X65199Y-28471D01*
X65213Y-28453D01*
X65226Y-28445D01*
X65253Y-28436D01*
X65293Y-28436D01*
X65319Y-28445D01*
X65333Y-28453D01*
X65346Y-28471D01*
X65346Y-28539D01*
X65293Y-28282D02*
X65479Y-28282D01*
X65186Y-28325D02*
X65386Y-28368D01*
X65386Y-28256D01*
X65199Y-28154D02*
X65199Y-28137D01*
X65213Y-28120D01*
X65226Y-28111D01*
X65253Y-28102D01*
X65306Y-28094D01*
X65373Y-28094D01*
X65426Y-28102D01*
X65453Y-28111D01*
X65466Y-28120D01*
X65479Y-28137D01*
X65479Y-28154D01*
X65466Y-28171D01*
X65453Y-28180D01*
X65426Y-28188D01*
X65373Y-28197D01*
X65306Y-28197D01*
X65253Y-28188D01*
X65226Y-28180D01*
X65213Y-28171D01*
X65199Y-28154D01*
X65199Y-27940D02*
X65199Y-27974D01*
X65213Y-27991D01*
X65226Y-28000D01*
X65266Y-28017D01*
X65319Y-28026D01*
X65426Y-28026D01*
X65453Y-28017D01*
X65466Y-28009D01*
X65479Y-27991D01*
X65479Y-27957D01*
X65466Y-27940D01*
X65453Y-27931D01*
X65426Y-27923D01*
X65359Y-27923D01*
X65333Y-27931D01*
X65319Y-27940D01*
X65306Y-27957D01*
X65306Y-27991D01*
X65319Y-28009D01*
X65333Y-28017D01*
X65359Y-28026D01*
X66804Y-29704D02*
X66744Y-29571D01*
X66701Y-29704D02*
X66701Y-29424D01*
X66769Y-29424D01*
X66787Y-29438D01*
X66795Y-29451D01*
X66804Y-29478D01*
X66804Y-29518D01*
X66795Y-29544D01*
X66787Y-29558D01*
X66769Y-29571D01*
X66701Y-29571D01*
X66958Y-29518D02*
X66958Y-29704D01*
X66915Y-29411D02*
X66872Y-29611D01*
X66984Y-29611D01*
X67086Y-29424D02*
X67103Y-29424D01*
X67120Y-29438D01*
X67129Y-29451D01*
X67138Y-29478D01*
X67146Y-29531D01*
X67146Y-29598D01*
X67138Y-29651D01*
X67129Y-29678D01*
X67120Y-29691D01*
X67103Y-29704D01*
X67086Y-29704D01*
X67069Y-29691D01*
X67060Y-29678D01*
X67052Y-29651D01*
X67043Y-29598D01*
X67043Y-29531D01*
X67052Y-29478D01*
X67060Y-29451D01*
X67069Y-29438D01*
X67086Y-29424D01*
X67309Y-29424D02*
X67223Y-29424D01*
X67214Y-29558D01*
X67223Y-29544D01*
X67240Y-29531D01*
X67283Y-29531D01*
X67300Y-29544D01*
X67309Y-29558D01*
X67317Y-29584D01*
X67317Y-29651D01*
X67309Y-29678D01*
X67300Y-29691D01*
X67283Y-29704D01*
X67240Y-29704D01*
X67223Y-29691D01*
X67214Y-29678D01*
X64290Y-31149D02*
X64157Y-31209D01*
X64290Y-31252D02*
X64010Y-31252D01*
X64010Y-31184D01*
X64024Y-31166D01*
X64037Y-31158D01*
X64064Y-31149D01*
X64104Y-31149D01*
X64130Y-31158D01*
X64144Y-31166D01*
X64157Y-31184D01*
X64157Y-31252D01*
X64104Y-30995D02*
X64290Y-30995D01*
X63997Y-31038D02*
X64197Y-31081D01*
X64197Y-30969D01*
X64010Y-30867D02*
X64010Y-30850D01*
X64024Y-30833D01*
X64037Y-30824D01*
X64064Y-30815D01*
X64117Y-30807D01*
X64184Y-30807D01*
X64237Y-30815D01*
X64264Y-30824D01*
X64277Y-30833D01*
X64290Y-30850D01*
X64290Y-30867D01*
X64277Y-30884D01*
X64264Y-30893D01*
X64237Y-30901D01*
X64184Y-30910D01*
X64117Y-30910D01*
X64064Y-30901D01*
X64037Y-30893D01*
X64024Y-30884D01*
X64010Y-30867D01*
X64104Y-30653D02*
X64290Y-30653D01*
X63997Y-30696D02*
X64197Y-30739D01*
X64197Y-30627D01*
X67213Y-34916D02*
X67153Y-34783D01*
X67110Y-34916D02*
X67110Y-34636D01*
X67178Y-34636D01*
X67196Y-34650D01*
X67204Y-34663D01*
X67213Y-34690D01*
X67213Y-34730D01*
X67204Y-34756D01*
X67196Y-34770D01*
X67178Y-34783D01*
X67110Y-34783D01*
X67367Y-34730D02*
X67367Y-34916D01*
X67324Y-34623D02*
X67281Y-34823D01*
X67393Y-34823D01*
X67495Y-34636D02*
X67512Y-34636D01*
X67529Y-34650D01*
X67538Y-34663D01*
X67547Y-34690D01*
X67555Y-34743D01*
X67555Y-34810D01*
X67547Y-34863D01*
X67538Y-34890D01*
X67529Y-34903D01*
X67512Y-34916D01*
X67495Y-34916D01*
X67478Y-34903D01*
X67469Y-34890D01*
X67461Y-34863D01*
X67452Y-34810D01*
X67452Y-34743D01*
X67461Y-34690D01*
X67469Y-34663D01*
X67478Y-34650D01*
X67495Y-34636D01*
X67615Y-34636D02*
X67726Y-34636D01*
X67666Y-34743D01*
X67692Y-34743D01*
X67709Y-34756D01*
X67718Y-34770D01*
X67726Y-34796D01*
X67726Y-34863D01*
X67718Y-34890D01*
X67709Y-34903D01*
X67692Y-34916D01*
X67640Y-34916D01*
X67623Y-34903D01*
X67615Y-34890D01*
X67221Y-34255D02*
X67161Y-34122D01*
X67118Y-34255D02*
X67118Y-33975D01*
X67186Y-33975D01*
X67204Y-33989D01*
X67212Y-34002D01*
X67221Y-34029D01*
X67221Y-34069D01*
X67212Y-34095D01*
X67204Y-34109D01*
X67186Y-34122D01*
X67118Y-34122D01*
X67375Y-34069D02*
X67375Y-34255D01*
X67332Y-33962D02*
X67289Y-34162D01*
X67401Y-34162D01*
X67503Y-33975D02*
X67520Y-33975D01*
X67537Y-33989D01*
X67546Y-34002D01*
X67555Y-34029D01*
X67563Y-34082D01*
X67563Y-34149D01*
X67555Y-34202D01*
X67546Y-34229D01*
X67537Y-34242D01*
X67520Y-34255D01*
X67503Y-34255D01*
X67486Y-34242D01*
X67477Y-34229D01*
X67469Y-34202D01*
X67460Y-34149D01*
X67460Y-34082D01*
X67469Y-34029D01*
X67477Y-34002D01*
X67486Y-33989D01*
X67503Y-33975D01*
X67631Y-34002D02*
X67640Y-33989D01*
X67657Y-33975D01*
X67700Y-33975D01*
X67717Y-33989D01*
X67726Y-34002D01*
X67734Y-34029D01*
X67734Y-34055D01*
X67726Y-34095D01*
X67623Y-34255D01*
X67734Y-34255D01*
X67213Y-35582D02*
X67153Y-35449D01*
X67110Y-35582D02*
X67110Y-35302D01*
X67178Y-35302D01*
X67196Y-35316D01*
X67204Y-35329D01*
X67213Y-35356D01*
X67213Y-35396D01*
X67204Y-35422D01*
X67196Y-35436D01*
X67178Y-35449D01*
X67110Y-35449D01*
X67367Y-35396D02*
X67367Y-35582D01*
X67324Y-35289D02*
X67281Y-35489D01*
X67393Y-35489D01*
X67495Y-35302D02*
X67512Y-35302D01*
X67529Y-35316D01*
X67538Y-35329D01*
X67547Y-35356D01*
X67555Y-35409D01*
X67555Y-35476D01*
X67547Y-35529D01*
X67538Y-35556D01*
X67529Y-35569D01*
X67512Y-35582D01*
X67495Y-35582D01*
X67478Y-35569D01*
X67469Y-35556D01*
X67461Y-35529D01*
X67452Y-35476D01*
X67452Y-35409D01*
X67461Y-35356D01*
X67469Y-35329D01*
X67478Y-35316D01*
X67495Y-35302D01*
X67726Y-35582D02*
X67623Y-35582D01*
X67675Y-35582D02*
X67675Y-35302D01*
X67658Y-35342D01*
X67640Y-35369D01*
X67623Y-35382D01*
X69556Y-42723D02*
X69496Y-42590D01*
X69453Y-42723D02*
X69453Y-42443D01*
X69521Y-42443D01*
X69539Y-42457D01*
X69547Y-42470D01*
X69556Y-42497D01*
X69556Y-42537D01*
X69547Y-42563D01*
X69539Y-42577D01*
X69521Y-42590D01*
X69453Y-42590D01*
X69616Y-42443D02*
X69727Y-42443D01*
X69667Y-42550D01*
X69693Y-42550D01*
X69710Y-42563D01*
X69719Y-42577D01*
X69727Y-42603D01*
X69727Y-42670D01*
X69719Y-42697D01*
X69710Y-42710D01*
X69693Y-42723D01*
X69641Y-42723D01*
X69624Y-42710D01*
X69616Y-42697D01*
X69898Y-42723D02*
X69795Y-42723D01*
X69847Y-42723D02*
X69847Y-42443D01*
X69830Y-42483D01*
X69812Y-42510D01*
X69795Y-42523D01*
X70069Y-42723D02*
X69966Y-42723D01*
X70018Y-42723D02*
X70018Y-42443D01*
X70001Y-42483D01*
X69983Y-42510D01*
X69966Y-42523D01*
X69552Y-41904D02*
X69492Y-41771D01*
X69449Y-41904D02*
X69449Y-41624D01*
X69517Y-41624D01*
X69535Y-41638D01*
X69543Y-41651D01*
X69552Y-41678D01*
X69552Y-41718D01*
X69543Y-41744D01*
X69535Y-41758D01*
X69517Y-41771D01*
X69449Y-41771D01*
X69612Y-41624D02*
X69723Y-41624D01*
X69663Y-41731D01*
X69689Y-41731D01*
X69706Y-41744D01*
X69715Y-41758D01*
X69723Y-41784D01*
X69723Y-41851D01*
X69715Y-41878D01*
X69706Y-41891D01*
X69689Y-41904D01*
X69637Y-41904D01*
X69620Y-41891D01*
X69612Y-41878D01*
X69894Y-41904D02*
X69791Y-41904D01*
X69843Y-41904D02*
X69843Y-41624D01*
X69826Y-41664D01*
X69808Y-41691D01*
X69791Y-41704D01*
X70005Y-41624D02*
X70022Y-41624D01*
X70039Y-41638D01*
X70048Y-41651D01*
X70057Y-41678D01*
X70065Y-41731D01*
X70065Y-41798D01*
X70057Y-41851D01*
X70048Y-41878D01*
X70039Y-41891D01*
X70022Y-41904D01*
X70005Y-41904D01*
X69988Y-41891D01*
X69979Y-41878D01*
X69971Y-41851D01*
X69962Y-41798D01*
X69962Y-41731D01*
X69971Y-41678D01*
X69979Y-41651D01*
X69988Y-41638D01*
X70005Y-41624D01*
X69540Y-43562D02*
X69480Y-43429D01*
X69437Y-43562D02*
X69437Y-43282D01*
X69505Y-43282D01*
X69523Y-43296D01*
X69531Y-43309D01*
X69540Y-43336D01*
X69540Y-43376D01*
X69531Y-43402D01*
X69523Y-43416D01*
X69505Y-43429D01*
X69437Y-43429D01*
X69600Y-43282D02*
X69711Y-43282D01*
X69651Y-43389D01*
X69677Y-43389D01*
X69694Y-43402D01*
X69703Y-43416D01*
X69711Y-43442D01*
X69711Y-43509D01*
X69703Y-43536D01*
X69694Y-43549D01*
X69677Y-43562D01*
X69625Y-43562D01*
X69608Y-43549D01*
X69600Y-43536D01*
X69822Y-43282D02*
X69839Y-43282D01*
X69856Y-43296D01*
X69865Y-43309D01*
X69874Y-43336D01*
X69882Y-43389D01*
X69882Y-43456D01*
X69874Y-43509D01*
X69865Y-43536D01*
X69856Y-43549D01*
X69839Y-43562D01*
X69822Y-43562D01*
X69805Y-43549D01*
X69796Y-43536D01*
X69788Y-43509D01*
X69779Y-43456D01*
X69779Y-43389D01*
X69788Y-43336D01*
X69796Y-43309D01*
X69805Y-43296D01*
X69822Y-43282D01*
X69985Y-43402D02*
X69967Y-43389D01*
X69959Y-43376D01*
X69950Y-43349D01*
X69950Y-43336D01*
X69959Y-43309D01*
X69967Y-43296D01*
X69985Y-43282D01*
X70019Y-43282D01*
X70036Y-43296D01*
X70045Y-43309D01*
X70053Y-43336D01*
X70053Y-43349D01*
X70045Y-43376D01*
X70036Y-43389D01*
X70019Y-43402D01*
X69985Y-43402D01*
X69967Y-43416D01*
X69959Y-43429D01*
X69950Y-43456D01*
X69950Y-43509D01*
X69959Y-43536D01*
X69967Y-43549D01*
X69985Y-43562D01*
X70019Y-43562D01*
X70036Y-43549D01*
X70045Y-43536D01*
X70053Y-43509D01*
X70053Y-43456D01*
X70045Y-43429D01*
X70036Y-43416D01*
X70019Y-43402D01*
X66024Y-36708D02*
X66015Y-36717D01*
X65989Y-36727D01*
X65972Y-36727D01*
X65947Y-36717D01*
X65929Y-36698D01*
X65921Y-36679D01*
X65912Y-36641D01*
X65912Y-36613D01*
X65921Y-36575D01*
X65929Y-36556D01*
X65947Y-36536D01*
X65972Y-36527D01*
X65989Y-36527D01*
X66015Y-36536D01*
X66024Y-36546D01*
X66178Y-36594D02*
X66178Y-36727D01*
X66135Y-36517D02*
X66092Y-36660D01*
X66204Y-36660D01*
X66306Y-36527D02*
X66323Y-36527D01*
X66340Y-36536D01*
X66349Y-36546D01*
X66358Y-36565D01*
X66366Y-36603D01*
X66366Y-36651D01*
X66358Y-36689D01*
X66349Y-36708D01*
X66340Y-36717D01*
X66323Y-36727D01*
X66306Y-36727D01*
X66289Y-36717D01*
X66280Y-36708D01*
X66272Y-36689D01*
X66263Y-36651D01*
X66263Y-36603D01*
X66272Y-36565D01*
X66280Y-36546D01*
X66289Y-36536D01*
X66306Y-36527D01*
X66537Y-36727D02*
X66434Y-36727D01*
X66486Y-36727D02*
X66486Y-36527D01*
X66469Y-36556D01*
X66451Y-36575D01*
X66434Y-36584D01*
X63178Y-28479D02*
X63169Y-28488D01*
X63143Y-28498D01*
X63126Y-28498D01*
X63101Y-28488D01*
X63083Y-28469D01*
X63075Y-28450D01*
X63066Y-28412D01*
X63066Y-28384D01*
X63075Y-28346D01*
X63083Y-28327D01*
X63101Y-28307D01*
X63126Y-28298D01*
X63143Y-28298D01*
X63169Y-28307D01*
X63178Y-28317D01*
X63332Y-28365D02*
X63332Y-28498D01*
X63289Y-28288D02*
X63246Y-28431D01*
X63358Y-28431D01*
X63460Y-28298D02*
X63477Y-28298D01*
X63494Y-28307D01*
X63503Y-28317D01*
X63512Y-28336D01*
X63520Y-28374D01*
X63520Y-28422D01*
X63512Y-28460D01*
X63503Y-28479D01*
X63494Y-28488D01*
X63477Y-28498D01*
X63460Y-28498D01*
X63443Y-28488D01*
X63434Y-28479D01*
X63426Y-28460D01*
X63417Y-28422D01*
X63417Y-28374D01*
X63426Y-28336D01*
X63434Y-28317D01*
X63443Y-28307D01*
X63460Y-28298D01*
X63588Y-28317D02*
X63597Y-28307D01*
X63614Y-28298D01*
X63657Y-28298D01*
X63674Y-28307D01*
X63683Y-28317D01*
X63691Y-28336D01*
X63691Y-28355D01*
X63683Y-28384D01*
X63580Y-28498D01*
X63691Y-28498D01*
G54D11*
X45603Y-39654D02*
X46089Y-39654D01*
X46146Y-39626D01*
X46174Y-39597D01*
X46203Y-39540D01*
X46203Y-39426D01*
X46174Y-39368D01*
X46146Y-39340D01*
X46089Y-39311D01*
X45603Y-39311D01*
X45603Y-38739D02*
X45603Y-39025D01*
X45889Y-39054D01*
X45860Y-39025D01*
X45831Y-38968D01*
X45831Y-38825D01*
X45860Y-38768D01*
X45889Y-38739D01*
X45946Y-38711D01*
X46089Y-38711D01*
X46146Y-38739D01*
X46174Y-38768D01*
X46203Y-38825D01*
X46203Y-38968D01*
X46174Y-39025D01*
X46146Y-39054D01*
X45603Y-38340D02*
X45603Y-38283D01*
X45631Y-38226D01*
X45660Y-38197D01*
X45717Y-38168D01*
X45831Y-38140D01*
X45974Y-38140D01*
X46089Y-38168D01*
X46146Y-38197D01*
X46174Y-38226D01*
X46203Y-38283D01*
X46203Y-38340D01*
X46174Y-38397D01*
X46146Y-38426D01*
X46089Y-38454D01*
X45974Y-38483D01*
X45831Y-38483D01*
X45717Y-38454D01*
X45660Y-38426D01*
X45631Y-38397D01*
X45603Y-38340D01*
X46203Y-37569D02*
X46203Y-37912D01*
X46203Y-37740D02*
X45603Y-37740D01*
X45689Y-37797D01*
X45746Y-37855D01*
X45774Y-37912D01*
G54D19*
X48277Y-38390D02*
X48277Y-38459D01*
X48385Y-38459D02*
X48179Y-38459D01*
X48179Y-38361D01*
X48385Y-38282D02*
X48179Y-38282D01*
X48179Y-38203D01*
X48189Y-38184D01*
X48199Y-38174D01*
X48219Y-38164D01*
X48248Y-38164D01*
X48268Y-38174D01*
X48277Y-38184D01*
X48287Y-38203D01*
X48287Y-38282D01*
X48189Y-37968D02*
X48179Y-37988D01*
X48179Y-38017D01*
X48189Y-38047D01*
X48209Y-38066D01*
X48228Y-38076D01*
X48268Y-38086D01*
X48297Y-38086D01*
X48336Y-38076D01*
X48356Y-38066D01*
X48376Y-38047D01*
X48385Y-38017D01*
X48385Y-37997D01*
X48376Y-37968D01*
X48366Y-37958D01*
X48297Y-37958D01*
X48297Y-37997D01*
X48327Y-37880D02*
X48327Y-37782D01*
X48385Y-37899D02*
X48179Y-37831D01*
X48385Y-37762D01*
X48405Y-37742D02*
X48405Y-37585D01*
X48199Y-37546D02*
X48189Y-37536D01*
X48179Y-37516D01*
X48179Y-37467D01*
X48189Y-37448D01*
X48199Y-37438D01*
X48219Y-37428D01*
X48238Y-37428D01*
X48268Y-37438D01*
X48385Y-37556D01*
X48385Y-37428D01*
X48179Y-37301D02*
X48179Y-37281D01*
X48189Y-37261D01*
X48199Y-37252D01*
X48219Y-37242D01*
X48258Y-37232D01*
X48307Y-37232D01*
X48346Y-37242D01*
X48366Y-37252D01*
X48376Y-37261D01*
X48385Y-37281D01*
X48385Y-37301D01*
X48376Y-37320D01*
X48366Y-37330D01*
X48346Y-37340D01*
X48307Y-37350D01*
X48258Y-37350D01*
X48219Y-37340D01*
X48199Y-37330D01*
X48189Y-37320D01*
X48179Y-37301D01*
X48405Y-37193D02*
X48405Y-37036D01*
X48385Y-36987D02*
X48179Y-36987D01*
X48179Y-36908D01*
X48189Y-36889D01*
X48199Y-36879D01*
X48219Y-36869D01*
X48248Y-36869D01*
X48268Y-36879D01*
X48277Y-36889D01*
X48287Y-36908D01*
X48287Y-36987D01*
X48385Y-36781D02*
X48179Y-36781D01*
X48385Y-36683D02*
X48179Y-36683D01*
X48385Y-36565D01*
X48179Y-36565D01*
X48405Y-36516D02*
X48405Y-36359D01*
X48385Y-36310D02*
X48179Y-36310D01*
X48277Y-36310D02*
X48277Y-36192D01*
X48385Y-36192D02*
X48179Y-36192D01*
X48277Y-36094D02*
X48277Y-36025D01*
X48385Y-35996D02*
X48385Y-36094D01*
X48179Y-36094D01*
X48179Y-35996D01*
X48327Y-35918D02*
X48327Y-35820D01*
X48385Y-35937D02*
X48179Y-35869D01*
X48385Y-35800D01*
X48385Y-35731D02*
X48179Y-35731D01*
X48179Y-35682D01*
X48189Y-35652D01*
X48209Y-35633D01*
X48228Y-35623D01*
X48268Y-35613D01*
X48297Y-35613D01*
X48336Y-35623D01*
X48356Y-35633D01*
X48376Y-35652D01*
X48385Y-35682D01*
X48385Y-35731D01*
X48277Y-35525D02*
X48277Y-35456D01*
X48385Y-35427D02*
X48385Y-35525D01*
X48179Y-35525D01*
X48179Y-35427D01*
X48385Y-35221D02*
X48287Y-35290D01*
X48385Y-35339D02*
X48179Y-35339D01*
X48179Y-35260D01*
X48189Y-35241D01*
X48199Y-35231D01*
X48219Y-35221D01*
X48248Y-35221D01*
X48268Y-35231D01*
X48277Y-35241D01*
X48287Y-35260D01*
X48287Y-35339D01*
G54D11*
X51556Y-39654D02*
X52042Y-39654D01*
X52099Y-39626D01*
X52127Y-39597D01*
X52156Y-39540D01*
X52156Y-39426D01*
X52127Y-39368D01*
X52099Y-39340D01*
X52042Y-39311D01*
X51556Y-39311D01*
X51556Y-38768D02*
X51556Y-38882D01*
X51584Y-38939D01*
X51613Y-38968D01*
X51699Y-39025D01*
X51813Y-39054D01*
X52042Y-39054D01*
X52099Y-39025D01*
X52127Y-38997D01*
X52156Y-38939D01*
X52156Y-38825D01*
X52127Y-38768D01*
X52099Y-38739D01*
X52042Y-38711D01*
X51899Y-38711D01*
X51842Y-38739D01*
X51813Y-38768D01*
X51784Y-38825D01*
X51784Y-38939D01*
X51813Y-38997D01*
X51842Y-39025D01*
X51899Y-39054D01*
X51556Y-38340D02*
X51556Y-38283D01*
X51584Y-38226D01*
X51613Y-38197D01*
X51670Y-38168D01*
X51784Y-38140D01*
X51927Y-38140D01*
X52042Y-38168D01*
X52099Y-38197D01*
X52127Y-38226D01*
X52156Y-38283D01*
X52156Y-38340D01*
X52127Y-38397D01*
X52099Y-38426D01*
X52042Y-38454D01*
X51927Y-38483D01*
X51784Y-38483D01*
X51670Y-38454D01*
X51613Y-38426D01*
X51584Y-38397D01*
X51556Y-38340D01*
X52156Y-37569D02*
X52156Y-37912D01*
X52156Y-37740D02*
X51556Y-37740D01*
X51642Y-37797D01*
X51699Y-37855D01*
X51727Y-37912D01*
G54D19*
X54337Y-38490D02*
X54337Y-38559D01*
X54445Y-38559D02*
X54239Y-38559D01*
X54239Y-38461D01*
X54445Y-38382D02*
X54239Y-38382D01*
X54239Y-38303D01*
X54249Y-38284D01*
X54259Y-38274D01*
X54279Y-38264D01*
X54308Y-38264D01*
X54328Y-38274D01*
X54337Y-38284D01*
X54347Y-38303D01*
X54347Y-38382D01*
X54249Y-38068D02*
X54239Y-38088D01*
X54239Y-38117D01*
X54249Y-38147D01*
X54269Y-38166D01*
X54288Y-38176D01*
X54328Y-38186D01*
X54357Y-38186D01*
X54396Y-38176D01*
X54416Y-38166D01*
X54436Y-38147D01*
X54445Y-38117D01*
X54445Y-38097D01*
X54436Y-38068D01*
X54426Y-38058D01*
X54357Y-38058D01*
X54357Y-38097D01*
X54387Y-37980D02*
X54387Y-37882D01*
X54445Y-37999D02*
X54239Y-37931D01*
X54445Y-37862D01*
X54465Y-37842D02*
X54465Y-37685D01*
X54259Y-37646D02*
X54249Y-37636D01*
X54239Y-37616D01*
X54239Y-37567D01*
X54249Y-37548D01*
X54259Y-37538D01*
X54279Y-37528D01*
X54298Y-37528D01*
X54328Y-37538D01*
X54445Y-37656D01*
X54445Y-37528D01*
X54239Y-37401D02*
X54239Y-37381D01*
X54249Y-37361D01*
X54259Y-37352D01*
X54279Y-37342D01*
X54318Y-37332D01*
X54367Y-37332D01*
X54406Y-37342D01*
X54426Y-37352D01*
X54436Y-37361D01*
X54445Y-37381D01*
X54445Y-37401D01*
X54436Y-37420D01*
X54426Y-37430D01*
X54406Y-37440D01*
X54367Y-37450D01*
X54318Y-37450D01*
X54279Y-37440D01*
X54259Y-37430D01*
X54249Y-37420D01*
X54239Y-37401D01*
X54465Y-37293D02*
X54465Y-37136D01*
X54445Y-37087D02*
X54239Y-37087D01*
X54239Y-37008D01*
X54249Y-36989D01*
X54259Y-36979D01*
X54279Y-36969D01*
X54308Y-36969D01*
X54328Y-36979D01*
X54337Y-36989D01*
X54347Y-37008D01*
X54347Y-37087D01*
X54445Y-36881D02*
X54239Y-36881D01*
X54445Y-36783D02*
X54239Y-36783D01*
X54445Y-36665D01*
X54239Y-36665D01*
X54465Y-36616D02*
X54465Y-36459D01*
X54445Y-36410D02*
X54239Y-36410D01*
X54337Y-36410D02*
X54337Y-36292D01*
X54445Y-36292D02*
X54239Y-36292D01*
X54337Y-36194D02*
X54337Y-36125D01*
X54445Y-36096D02*
X54445Y-36194D01*
X54239Y-36194D01*
X54239Y-36096D01*
X54387Y-36018D02*
X54387Y-35920D01*
X54445Y-36037D02*
X54239Y-35969D01*
X54445Y-35900D01*
X54445Y-35831D02*
X54239Y-35831D01*
X54239Y-35782D01*
X54249Y-35752D01*
X54269Y-35733D01*
X54288Y-35723D01*
X54328Y-35713D01*
X54357Y-35713D01*
X54396Y-35723D01*
X54416Y-35733D01*
X54436Y-35752D01*
X54445Y-35782D01*
X54445Y-35831D01*
X54337Y-35625D02*
X54337Y-35556D01*
X54445Y-35527D02*
X54445Y-35625D01*
X54239Y-35625D01*
X54239Y-35527D01*
X54445Y-35321D02*
X54347Y-35390D01*
X54445Y-35439D02*
X54239Y-35439D01*
X54239Y-35360D01*
X54249Y-35341D01*
X54259Y-35331D01*
X54279Y-35321D01*
X54308Y-35321D01*
X54328Y-35331D01*
X54337Y-35341D01*
X54347Y-35360D01*
X54347Y-35439D01*
G54D11*
X56472Y-28406D02*
X56472Y-28892D01*
X56500Y-28949D01*
X56529Y-28977D01*
X56586Y-29006D01*
X56700Y-29006D01*
X56758Y-28977D01*
X56786Y-28949D01*
X56815Y-28892D01*
X56815Y-28406D01*
X57358Y-28606D02*
X57358Y-29006D01*
X57215Y-28377D02*
X57072Y-28806D01*
X57444Y-28806D01*
X57786Y-28406D02*
X57843Y-28406D01*
X57900Y-28434D01*
X57929Y-28463D01*
X57958Y-28520D01*
X57986Y-28634D01*
X57986Y-28777D01*
X57958Y-28892D01*
X57929Y-28949D01*
X57900Y-28977D01*
X57843Y-29006D01*
X57786Y-29006D01*
X57729Y-28977D01*
X57700Y-28949D01*
X57672Y-28892D01*
X57643Y-28777D01*
X57643Y-28634D01*
X57672Y-28520D01*
X57700Y-28463D01*
X57729Y-28434D01*
X57786Y-28406D01*
X58500Y-28406D02*
X58386Y-28406D01*
X58329Y-28434D01*
X58300Y-28463D01*
X58243Y-28549D01*
X58214Y-28663D01*
X58214Y-28892D01*
X58243Y-28949D01*
X58271Y-28977D01*
X58329Y-29006D01*
X58443Y-29006D01*
X58500Y-28977D01*
X58529Y-28949D01*
X58557Y-28892D01*
X58557Y-28749D01*
X58529Y-28692D01*
X58500Y-28663D01*
X58443Y-28634D01*
X58329Y-28634D01*
X58271Y-28663D01*
X58243Y-28692D01*
X58214Y-28749D01*
G54D19*
X56347Y-29688D02*
X56416Y-29688D01*
X56445Y-29796D02*
X56347Y-29796D01*
X56347Y-29590D01*
X56445Y-29590D01*
X56533Y-29688D02*
X56602Y-29688D01*
X56631Y-29796D02*
X56533Y-29796D01*
X56533Y-29590D01*
X56631Y-29590D01*
X56719Y-29796D02*
X56719Y-29590D01*
X56798Y-29590D01*
X56817Y-29600D01*
X56827Y-29610D01*
X56837Y-29630D01*
X56837Y-29659D01*
X56827Y-29679D01*
X56817Y-29688D01*
X56798Y-29698D01*
X56719Y-29698D01*
X57043Y-29796D02*
X56974Y-29698D01*
X56925Y-29796D02*
X56925Y-29590D01*
X57004Y-29590D01*
X57023Y-29600D01*
X57033Y-29610D01*
X57043Y-29630D01*
X57043Y-29659D01*
X57033Y-29679D01*
X57023Y-29688D01*
X57004Y-29698D01*
X56925Y-29698D01*
X57170Y-29590D02*
X57210Y-29590D01*
X57229Y-29600D01*
X57249Y-29620D01*
X57259Y-29659D01*
X57259Y-29728D01*
X57249Y-29767D01*
X57229Y-29787D01*
X57210Y-29796D01*
X57170Y-29796D01*
X57151Y-29787D01*
X57131Y-29767D01*
X57121Y-29728D01*
X57121Y-29659D01*
X57131Y-29620D01*
X57151Y-29600D01*
X57170Y-29590D01*
X57347Y-29796D02*
X57347Y-29590D01*
X57416Y-29738D01*
X57484Y-29590D01*
X57484Y-29796D01*
X57533Y-29816D02*
X57690Y-29816D01*
X57729Y-29787D02*
X57759Y-29796D01*
X57808Y-29796D01*
X57827Y-29787D01*
X57837Y-29777D01*
X57847Y-29757D01*
X57847Y-29738D01*
X57837Y-29718D01*
X57827Y-29708D01*
X57808Y-29698D01*
X57768Y-29688D01*
X57749Y-29679D01*
X57739Y-29669D01*
X57729Y-29649D01*
X57729Y-29630D01*
X57739Y-29610D01*
X57749Y-29600D01*
X57768Y-29590D01*
X57818Y-29590D01*
X57847Y-29600D01*
X57915Y-29590D02*
X57964Y-29796D01*
X58004Y-29649D01*
X58043Y-29796D01*
X58092Y-29590D01*
X58170Y-29796D02*
X58170Y-29590D01*
X58239Y-29590D02*
X58356Y-29590D01*
X58297Y-29796D02*
X58297Y-29590D01*
X58543Y-29777D02*
X58533Y-29787D01*
X58504Y-29796D01*
X58484Y-29796D01*
X58454Y-29787D01*
X58435Y-29767D01*
X58425Y-29747D01*
X58415Y-29708D01*
X58415Y-29679D01*
X58425Y-29639D01*
X58435Y-29620D01*
X58454Y-29600D01*
X58484Y-29590D01*
X58504Y-29590D01*
X58533Y-29600D01*
X58543Y-29610D01*
X58631Y-29796D02*
X58631Y-29590D01*
X58631Y-29688D02*
X58749Y-29688D01*
X58749Y-29796D02*
X58749Y-29590D01*
G54D11*
X75803Y-28060D02*
X75803Y-28546D01*
X75831Y-28603D01*
X75860Y-28631D01*
X75917Y-28660D01*
X76031Y-28660D01*
X76089Y-28631D01*
X76117Y-28603D01*
X76146Y-28546D01*
X76146Y-28060D01*
X76403Y-28117D02*
X76432Y-28088D01*
X76489Y-28060D01*
X76632Y-28060D01*
X76689Y-28088D01*
X76718Y-28117D01*
X76746Y-28174D01*
X76746Y-28231D01*
X76718Y-28317D01*
X76375Y-28660D01*
X76746Y-28660D01*
X77117Y-28060D02*
X77174Y-28060D01*
X77231Y-28088D01*
X77260Y-28117D01*
X77289Y-28174D01*
X77317Y-28288D01*
X77317Y-28431D01*
X77289Y-28546D01*
X77260Y-28603D01*
X77231Y-28631D01*
X77174Y-28660D01*
X77117Y-28660D01*
X77060Y-28631D01*
X77031Y-28603D01*
X77003Y-28546D01*
X76974Y-28431D01*
X76974Y-28288D01*
X77003Y-28174D01*
X77031Y-28117D01*
X77060Y-28088D01*
X77117Y-28060D01*
X77888Y-28660D02*
X77545Y-28660D01*
X77717Y-28660D02*
X77717Y-28060D01*
X77660Y-28146D01*
X77602Y-28203D01*
X77545Y-28231D01*
G54D19*
X73530Y-28437D02*
X73530Y-28231D01*
X73579Y-28231D01*
X73609Y-28241D01*
X73628Y-28261D01*
X73638Y-28280D01*
X73648Y-28320D01*
X73648Y-28349D01*
X73638Y-28388D01*
X73628Y-28408D01*
X73609Y-28428D01*
X73579Y-28437D01*
X73530Y-28437D01*
X73854Y-28418D02*
X73844Y-28428D01*
X73815Y-28437D01*
X73795Y-28437D01*
X73765Y-28428D01*
X73746Y-28408D01*
X73736Y-28388D01*
X73726Y-28349D01*
X73726Y-28320D01*
X73736Y-28280D01*
X73746Y-28261D01*
X73765Y-28241D01*
X73795Y-28231D01*
X73815Y-28231D01*
X73844Y-28241D01*
X73854Y-28251D01*
X73893Y-28457D02*
X74050Y-28457D01*
X74168Y-28329D02*
X74197Y-28339D01*
X74207Y-28349D01*
X74217Y-28369D01*
X74217Y-28398D01*
X74207Y-28418D01*
X74197Y-28428D01*
X74178Y-28437D01*
X74099Y-28437D01*
X74099Y-28231D01*
X74168Y-28231D01*
X74187Y-28241D01*
X74197Y-28251D01*
X74207Y-28271D01*
X74207Y-28290D01*
X74197Y-28310D01*
X74187Y-28320D01*
X74168Y-28329D01*
X74099Y-28329D01*
X74295Y-28379D02*
X74393Y-28379D01*
X74276Y-28437D02*
X74344Y-28231D01*
X74413Y-28437D01*
X74600Y-28437D02*
X74531Y-28339D01*
X74482Y-28437D02*
X74482Y-28231D01*
X74561Y-28231D01*
X74580Y-28241D01*
X74590Y-28251D01*
X74600Y-28271D01*
X74600Y-28300D01*
X74590Y-28320D01*
X74580Y-28329D01*
X74561Y-28339D01*
X74482Y-28339D01*
X74806Y-28437D02*
X74737Y-28339D01*
X74688Y-28437D02*
X74688Y-28231D01*
X74767Y-28231D01*
X74786Y-28241D01*
X74796Y-28251D01*
X74806Y-28271D01*
X74806Y-28300D01*
X74796Y-28320D01*
X74786Y-28329D01*
X74767Y-28339D01*
X74688Y-28339D01*
X74894Y-28329D02*
X74963Y-28329D01*
X74992Y-28437D02*
X74894Y-28437D01*
X74894Y-28231D01*
X74992Y-28231D01*
X75178Y-28437D02*
X75080Y-28437D01*
X75080Y-28231D01*
X71505Y-43692D02*
X71505Y-43859D01*
X71515Y-43879D01*
X71525Y-43889D01*
X71544Y-43898D01*
X71584Y-43898D01*
X71603Y-43889D01*
X71613Y-43879D01*
X71623Y-43859D01*
X71623Y-43692D01*
X71701Y-43692D02*
X71829Y-43692D01*
X71760Y-43771D01*
X71790Y-43771D01*
X71809Y-43781D01*
X71819Y-43790D01*
X71829Y-43810D01*
X71829Y-43859D01*
X71819Y-43879D01*
X71809Y-43889D01*
X71790Y-43898D01*
X71731Y-43898D01*
X71711Y-43889D01*
X71701Y-43879D01*
X71956Y-43692D02*
X71976Y-43692D01*
X71996Y-43702D01*
X72005Y-43712D01*
X72015Y-43732D01*
X72025Y-43771D01*
X72025Y-43820D01*
X72015Y-43859D01*
X72005Y-43879D01*
X71996Y-43889D01*
X71976Y-43898D01*
X71956Y-43898D01*
X71937Y-43889D01*
X71927Y-43879D01*
X71917Y-43859D01*
X71907Y-43820D01*
X71907Y-43771D01*
X71917Y-43732D01*
X71927Y-43712D01*
X71937Y-43702D01*
X71956Y-43692D01*
X72201Y-43692D02*
X72162Y-43692D01*
X72142Y-43702D01*
X72133Y-43712D01*
X72113Y-43741D01*
X72103Y-43781D01*
X72103Y-43859D01*
X72113Y-43879D01*
X72123Y-43889D01*
X72142Y-43898D01*
X72182Y-43898D01*
X72201Y-43889D01*
X72211Y-43879D01*
X72221Y-43859D01*
X72221Y-43810D01*
X72211Y-43790D01*
X72201Y-43781D01*
X72182Y-43771D01*
X72142Y-43771D01*
X72123Y-43781D01*
X72113Y-43790D01*
X72103Y-43810D01*
X71074Y-41979D02*
X71103Y-41989D01*
X71113Y-41999D01*
X71123Y-42019D01*
X71123Y-42048D01*
X71113Y-42068D01*
X71103Y-42078D01*
X71084Y-42087D01*
X71005Y-42087D01*
X71005Y-41881D01*
X71074Y-41881D01*
X71093Y-41891D01*
X71103Y-41901D01*
X71113Y-41921D01*
X71113Y-41940D01*
X71103Y-41960D01*
X71093Y-41970D01*
X71074Y-41979D01*
X71005Y-41979D01*
X71309Y-42087D02*
X71211Y-42087D01*
X71211Y-41881D01*
X71378Y-41881D02*
X71378Y-42048D01*
X71388Y-42068D01*
X71398Y-42078D01*
X71417Y-42087D01*
X71457Y-42087D01*
X71476Y-42078D01*
X71486Y-42068D01*
X71496Y-42048D01*
X71496Y-41881D01*
X71594Y-41979D02*
X71663Y-41979D01*
X71692Y-42087D02*
X71594Y-42087D01*
X71594Y-41881D01*
X71692Y-41881D01*
X71731Y-42107D02*
X71888Y-42107D01*
X72035Y-42087D02*
X71937Y-42087D01*
X71937Y-41881D01*
X72104Y-41979D02*
X72173Y-41979D01*
X72202Y-42087D02*
X72104Y-42087D01*
X72104Y-41881D01*
X72202Y-41881D01*
X72290Y-42087D02*
X72290Y-41881D01*
X72339Y-41881D01*
X72369Y-41891D01*
X72388Y-41911D01*
X72398Y-41930D01*
X72408Y-41970D01*
X72408Y-41999D01*
X72398Y-42038D01*
X72388Y-42058D01*
X72369Y-42078D01*
X72339Y-42087D01*
X72290Y-42087D01*
G54D11*
X70814Y-42391D02*
X70814Y-42877D01*
X70842Y-42934D01*
X70871Y-42962D01*
X70928Y-42991D01*
X71042Y-42991D01*
X71100Y-42962D01*
X71128Y-42934D01*
X71157Y-42877D01*
X71157Y-42391D01*
X71386Y-42391D02*
X71757Y-42391D01*
X71557Y-42619D01*
X71643Y-42619D01*
X71700Y-42648D01*
X71729Y-42677D01*
X71757Y-42734D01*
X71757Y-42877D01*
X71729Y-42934D01*
X71700Y-42962D01*
X71643Y-42991D01*
X71471Y-42991D01*
X71414Y-42962D01*
X71386Y-42934D01*
X72128Y-42391D02*
X72185Y-42391D01*
X72242Y-42419D01*
X72271Y-42448D01*
X72300Y-42505D01*
X72328Y-42619D01*
X72328Y-42762D01*
X72300Y-42877D01*
X72271Y-42934D01*
X72242Y-42962D01*
X72185Y-42991D01*
X72128Y-42991D01*
X72071Y-42962D01*
X72042Y-42934D01*
X72014Y-42877D01*
X71985Y-42762D01*
X71985Y-42619D01*
X72014Y-42505D01*
X72042Y-42448D01*
X72071Y-42419D01*
X72128Y-42391D01*
X72871Y-42391D02*
X72585Y-42391D01*
X72556Y-42677D01*
X72585Y-42648D01*
X72642Y-42619D01*
X72785Y-42619D01*
X72842Y-42648D01*
X72871Y-42677D01*
X72899Y-42734D01*
X72899Y-42877D01*
X72871Y-42934D01*
X72842Y-42962D01*
X72785Y-42991D01*
X72642Y-42991D01*
X72585Y-42962D01*
X72556Y-42934D01*
X69856Y-40866D02*
X69942Y-40894D01*
X69970Y-40923D01*
X69999Y-40980D01*
X69999Y-41066D01*
X69970Y-41123D01*
X69942Y-41151D01*
X69884Y-41180D01*
X69656Y-41180D01*
X69656Y-40580D01*
X69856Y-40580D01*
X69913Y-40608D01*
X69942Y-40637D01*
X69970Y-40694D01*
X69970Y-40751D01*
X69942Y-40808D01*
X69913Y-40837D01*
X69856Y-40866D01*
X69656Y-40866D01*
X70542Y-41180D02*
X70256Y-41180D01*
X70256Y-40580D01*
X70742Y-40580D02*
X70742Y-41066D01*
X70770Y-41123D01*
X70799Y-41151D01*
X70856Y-41180D01*
X70970Y-41180D01*
X71028Y-41151D01*
X71056Y-41123D01*
X71085Y-41066D01*
X71085Y-40580D01*
X71371Y-40866D02*
X71571Y-40866D01*
X71657Y-41180D02*
X71371Y-41180D01*
X71371Y-40580D01*
X71657Y-40580D01*
X71771Y-41237D02*
X72228Y-41237D01*
X72657Y-41180D02*
X72371Y-41180D01*
X72371Y-40580D01*
X72857Y-40866D02*
X73057Y-40866D01*
X73143Y-41180D02*
X72857Y-41180D01*
X72857Y-40580D01*
X73143Y-40580D01*
X73400Y-41180D02*
X73400Y-40580D01*
X73543Y-40580D01*
X73628Y-40608D01*
X73686Y-40666D01*
X73714Y-40723D01*
X73743Y-40837D01*
X73743Y-40923D01*
X73714Y-41037D01*
X73686Y-41094D01*
X73628Y-41151D01*
X73543Y-41180D01*
X73400Y-41180D01*
X70814Y-44533D02*
X70814Y-45019D01*
X70842Y-45076D01*
X70871Y-45104D01*
X70928Y-45133D01*
X71042Y-45133D01*
X71100Y-45104D01*
X71128Y-45076D01*
X71157Y-45019D01*
X71157Y-44533D01*
X71386Y-44533D02*
X71757Y-44533D01*
X71557Y-44761D01*
X71643Y-44761D01*
X71700Y-44790D01*
X71729Y-44819D01*
X71757Y-44876D01*
X71757Y-45019D01*
X71729Y-45076D01*
X71700Y-45104D01*
X71643Y-45133D01*
X71471Y-45133D01*
X71414Y-45104D01*
X71386Y-45076D01*
X72128Y-44533D02*
X72185Y-44533D01*
X72242Y-44561D01*
X72271Y-44590D01*
X72300Y-44647D01*
X72328Y-44761D01*
X72328Y-44904D01*
X72300Y-45019D01*
X72271Y-45076D01*
X72242Y-45104D01*
X72185Y-45133D01*
X72128Y-45133D01*
X72071Y-45104D01*
X72042Y-45076D01*
X72014Y-45019D01*
X71985Y-44904D01*
X71985Y-44761D01*
X72014Y-44647D01*
X72042Y-44590D01*
X72071Y-44561D01*
X72128Y-44533D01*
X72528Y-44533D02*
X72899Y-44533D01*
X72699Y-44761D01*
X72785Y-44761D01*
X72842Y-44790D01*
X72871Y-44819D01*
X72899Y-44876D01*
X72899Y-45019D01*
X72871Y-45076D01*
X72842Y-45104D01*
X72785Y-45133D01*
X72613Y-45133D01*
X72556Y-45104D01*
X72528Y-45076D01*
G54D24*
X71086Y-43055D02*
X71114Y-43064D01*
X71123Y-43074D01*
X71132Y-43093D01*
X71132Y-43121D01*
X71123Y-43139D01*
X71114Y-43149D01*
X71095Y-43158D01*
X71020Y-43158D01*
X71020Y-42961D01*
X71086Y-42961D01*
X71104Y-42971D01*
X71114Y-42980D01*
X71123Y-42999D01*
X71123Y-43018D01*
X71114Y-43036D01*
X71104Y-43046D01*
X71086Y-43055D01*
X71020Y-43055D01*
X71311Y-43158D02*
X71217Y-43158D01*
X71217Y-42961D01*
X71376Y-42961D02*
X71376Y-43121D01*
X71385Y-43139D01*
X71395Y-43149D01*
X71413Y-43158D01*
X71451Y-43158D01*
X71470Y-43149D01*
X71479Y-43139D01*
X71488Y-43121D01*
X71488Y-42961D01*
X71582Y-43055D02*
X71648Y-43055D01*
X71676Y-43158D02*
X71582Y-43158D01*
X71582Y-42961D01*
X71676Y-42961D01*
X71713Y-43177D02*
X71863Y-43177D01*
X72004Y-43158D02*
X71910Y-43158D01*
X71910Y-42961D01*
X72069Y-43055D02*
X72135Y-43055D01*
X72163Y-43158D02*
X72069Y-43158D01*
X72069Y-42961D01*
X72163Y-42961D01*
X72247Y-43158D02*
X72247Y-42961D01*
X72294Y-42961D01*
X72322Y-42971D01*
X72341Y-42989D01*
X72350Y-43008D01*
X72359Y-43046D01*
X72359Y-43074D01*
X72350Y-43111D01*
X72341Y-43130D01*
X72322Y-43149D01*
X72294Y-43158D01*
X72247Y-43158D01*
G54D19*
X71404Y-30069D02*
X71571Y-30069D01*
X71591Y-30059D01*
X71601Y-30049D01*
X71610Y-30030D01*
X71610Y-29990D01*
X71601Y-29971D01*
X71591Y-29961D01*
X71571Y-29951D01*
X71404Y-29951D01*
X71424Y-29863D02*
X71414Y-29853D01*
X71404Y-29833D01*
X71404Y-29784D01*
X71414Y-29765D01*
X71424Y-29755D01*
X71444Y-29745D01*
X71463Y-29745D01*
X71493Y-29755D01*
X71610Y-29873D01*
X71610Y-29745D01*
X71404Y-29618D02*
X71404Y-29598D01*
X71414Y-29578D01*
X71424Y-29569D01*
X71444Y-29559D01*
X71483Y-29549D01*
X71532Y-29549D01*
X71571Y-29559D01*
X71591Y-29569D01*
X71601Y-29578D01*
X71610Y-29598D01*
X71610Y-29618D01*
X71601Y-29637D01*
X71591Y-29647D01*
X71571Y-29657D01*
X71532Y-29667D01*
X71483Y-29667D01*
X71444Y-29657D01*
X71424Y-29647D01*
X71414Y-29637D01*
X71404Y-29618D01*
X71404Y-29363D02*
X71404Y-29461D01*
X71502Y-29471D01*
X71493Y-29461D01*
X71483Y-29441D01*
X71483Y-29392D01*
X71493Y-29373D01*
X71502Y-29363D01*
X71522Y-29353D01*
X71571Y-29353D01*
X71591Y-29363D01*
X71601Y-29373D01*
X71610Y-29392D01*
X71610Y-29441D01*
X71601Y-29461D01*
X71591Y-29471D01*
X70183Y-30280D02*
X70193Y-30251D01*
X70203Y-30241D01*
X70223Y-30231D01*
X70252Y-30231D01*
X70272Y-30241D01*
X70282Y-30251D01*
X70291Y-30270D01*
X70291Y-30349D01*
X70085Y-30349D01*
X70085Y-30280D01*
X70095Y-30261D01*
X70105Y-30251D01*
X70125Y-30241D01*
X70144Y-30241D01*
X70164Y-30251D01*
X70174Y-30261D01*
X70183Y-30280D01*
X70183Y-30349D01*
X70291Y-30045D02*
X70291Y-30143D01*
X70085Y-30143D01*
X70085Y-29976D02*
X70252Y-29976D01*
X70272Y-29966D01*
X70282Y-29956D01*
X70291Y-29937D01*
X70291Y-29897D01*
X70282Y-29878D01*
X70272Y-29868D01*
X70252Y-29858D01*
X70085Y-29858D01*
X70183Y-29760D02*
X70183Y-29691D01*
X70291Y-29662D02*
X70291Y-29760D01*
X70085Y-29760D01*
X70085Y-29662D01*
X70311Y-29623D02*
X70311Y-29466D01*
X70291Y-29319D02*
X70291Y-29417D01*
X70085Y-29417D01*
X70183Y-29250D02*
X70183Y-29181D01*
X70291Y-29152D02*
X70291Y-29250D01*
X70085Y-29250D01*
X70085Y-29152D01*
X70291Y-29064D02*
X70085Y-29064D01*
X70085Y-29015D01*
X70095Y-28985D01*
X70115Y-28966D01*
X70134Y-28956D01*
X70174Y-28946D01*
X70203Y-28946D01*
X70242Y-28956D01*
X70262Y-28966D01*
X70282Y-28985D01*
X70291Y-29015D01*
X70291Y-29064D01*
G54D11*
X69859Y-39597D02*
X70287Y-39597D01*
X70373Y-39625D01*
X70430Y-39682D01*
X70459Y-39768D01*
X70459Y-39825D01*
X69859Y-39368D02*
X69859Y-38968D01*
X70459Y-39225D01*
X69859Y-38626D02*
X69859Y-38569D01*
X69887Y-38512D01*
X69916Y-38483D01*
X69973Y-38454D01*
X70087Y-38426D01*
X70230Y-38426D01*
X70345Y-38454D01*
X70402Y-38483D01*
X70430Y-38512D01*
X70459Y-38569D01*
X70459Y-38626D01*
X70430Y-38683D01*
X70402Y-38712D01*
X70345Y-38740D01*
X70230Y-38769D01*
X70087Y-38769D01*
X69973Y-38740D01*
X69916Y-38712D01*
X69887Y-38683D01*
X69859Y-38626D01*
X69916Y-38198D02*
X69887Y-38169D01*
X69859Y-38112D01*
X69859Y-37969D01*
X69887Y-37912D01*
X69916Y-37883D01*
X69973Y-37855D01*
X70030Y-37855D01*
X70116Y-37883D01*
X70459Y-38226D01*
X70459Y-37855D01*
G54D19*
X67731Y-40343D02*
X67731Y-40215D01*
X67810Y-40284D01*
X67810Y-40254D01*
X67820Y-40235D01*
X67829Y-40225D01*
X67849Y-40215D01*
X67898Y-40215D01*
X67918Y-40225D01*
X67928Y-40235D01*
X67937Y-40254D01*
X67937Y-40313D01*
X67928Y-40333D01*
X67918Y-40343D01*
X67957Y-40176D02*
X67957Y-40019D01*
X67731Y-39990D02*
X67937Y-39941D01*
X67790Y-39901D01*
X67937Y-39862D01*
X67731Y-39813D01*
X67879Y-39745D02*
X67879Y-39647D01*
X67937Y-39764D02*
X67731Y-39696D01*
X67937Y-39627D01*
X67839Y-39519D02*
X67937Y-39519D01*
X67731Y-39587D02*
X67839Y-39519D01*
X67731Y-39450D01*
X67957Y-39430D02*
X67957Y-39273D01*
X67731Y-39165D02*
X67879Y-39165D01*
X67908Y-39175D01*
X67928Y-39195D01*
X67937Y-39224D01*
X67937Y-39244D01*
X67731Y-39067D02*
X67898Y-39067D01*
X67918Y-39057D01*
X67928Y-39047D01*
X67937Y-39028D01*
X67937Y-38988D01*
X67928Y-38969D01*
X67918Y-38959D01*
X67898Y-38949D01*
X67731Y-38949D01*
X67937Y-38851D02*
X67731Y-38851D01*
X67879Y-38782D01*
X67731Y-38714D01*
X67937Y-38714D01*
X67937Y-38616D02*
X67731Y-38616D01*
X67731Y-38537D01*
X67741Y-38518D01*
X67751Y-38508D01*
X67771Y-38498D01*
X67800Y-38498D01*
X67820Y-38508D01*
X67829Y-38518D01*
X67839Y-38537D01*
X67839Y-38616D01*
X67829Y-38410D02*
X67829Y-38341D01*
X67937Y-38312D02*
X67937Y-38410D01*
X67731Y-38410D01*
X67731Y-38312D01*
X67937Y-38106D02*
X67839Y-38175D01*
X67937Y-38224D02*
X67731Y-38224D01*
X67731Y-38145D01*
X67741Y-38126D01*
X67751Y-38116D01*
X67771Y-38106D01*
X67800Y-38106D01*
X67820Y-38116D01*
X67829Y-38126D01*
X67839Y-38145D01*
X67839Y-38224D01*
G54D11*
X67507Y-36224D02*
X67935Y-36224D01*
X68021Y-36252D01*
X68078Y-36309D01*
X68107Y-36395D01*
X68107Y-36452D01*
X67507Y-35995D02*
X67507Y-35595D01*
X68107Y-35852D01*
X67507Y-35253D02*
X67507Y-35196D01*
X67535Y-35139D01*
X67564Y-35110D01*
X67621Y-35081D01*
X67735Y-35053D01*
X67878Y-35053D01*
X67993Y-35081D01*
X68050Y-35110D01*
X68078Y-35139D01*
X68107Y-35196D01*
X68107Y-35253D01*
X68078Y-35310D01*
X68050Y-35339D01*
X67993Y-35367D01*
X67878Y-35396D01*
X67735Y-35396D01*
X67621Y-35367D01*
X67564Y-35339D01*
X67535Y-35310D01*
X67507Y-35253D01*
X68107Y-34482D02*
X68107Y-34825D01*
X68107Y-34653D02*
X67507Y-34653D01*
X67593Y-34710D01*
X67650Y-34768D01*
X67678Y-34825D01*
G54D19*
X70103Y-36182D02*
X70103Y-36054D01*
X70182Y-36123D01*
X70182Y-36093D01*
X70192Y-36074D01*
X70201Y-36064D01*
X70221Y-36054D01*
X70270Y-36054D01*
X70290Y-36064D01*
X70300Y-36074D01*
X70309Y-36093D01*
X70309Y-36152D01*
X70300Y-36172D01*
X70290Y-36182D01*
X70329Y-36015D02*
X70329Y-35858D01*
X70103Y-35829D02*
X70309Y-35780D01*
X70162Y-35740D01*
X70309Y-35701D01*
X70103Y-35652D01*
X70251Y-35584D02*
X70251Y-35486D01*
X70309Y-35603D02*
X70103Y-35535D01*
X70309Y-35466D01*
X70211Y-35358D02*
X70309Y-35358D01*
X70103Y-35426D02*
X70211Y-35358D01*
X70103Y-35289D01*
X70329Y-35269D02*
X70329Y-35112D01*
X70103Y-35004D02*
X70251Y-35004D01*
X70280Y-35014D01*
X70300Y-35034D01*
X70309Y-35063D01*
X70309Y-35083D01*
X70103Y-34906D02*
X70270Y-34906D01*
X70290Y-34896D01*
X70300Y-34886D01*
X70309Y-34867D01*
X70309Y-34827D01*
X70300Y-34808D01*
X70290Y-34798D01*
X70270Y-34788D01*
X70103Y-34788D01*
X70309Y-34690D02*
X70103Y-34690D01*
X70251Y-34621D01*
X70103Y-34553D01*
X70309Y-34553D01*
X70309Y-34455D02*
X70103Y-34455D01*
X70103Y-34376D01*
X70113Y-34357D01*
X70123Y-34347D01*
X70143Y-34337D01*
X70172Y-34337D01*
X70192Y-34347D01*
X70201Y-34357D01*
X70211Y-34376D01*
X70211Y-34455D01*
X70201Y-34249D02*
X70201Y-34180D01*
X70309Y-34151D02*
X70309Y-34249D01*
X70103Y-34249D01*
X70103Y-34151D01*
X70309Y-33945D02*
X70211Y-34014D01*
X70309Y-34063D02*
X70103Y-34063D01*
X70103Y-33984D01*
X70113Y-33965D01*
X70123Y-33955D01*
X70143Y-33945D01*
X70172Y-33945D01*
X70192Y-33955D01*
X70201Y-33965D01*
X70211Y-33984D01*
X70211Y-34063D01*
G54D25*
X57853Y-33339D02*
X57853Y-33622D01*
X57870Y-33655D01*
X57887Y-33672D01*
X57920Y-33689D01*
X57987Y-33689D01*
X58020Y-33672D01*
X58037Y-33655D01*
X58053Y-33622D01*
X58053Y-33339D01*
X58187Y-33339D02*
X58420Y-33339D01*
X58270Y-33689D01*
X58620Y-33339D02*
X58653Y-33339D01*
X58687Y-33355D01*
X58703Y-33372D01*
X58720Y-33405D01*
X58737Y-33472D01*
X58737Y-33555D01*
X58720Y-33622D01*
X58703Y-33655D01*
X58687Y-33672D01*
X58653Y-33689D01*
X58620Y-33689D01*
X58587Y-33672D01*
X58570Y-33655D01*
X58553Y-33622D01*
X58537Y-33555D01*
X58537Y-33472D01*
X58553Y-33405D01*
X58570Y-33372D01*
X58587Y-33355D01*
X58620Y-33339D01*
X58870Y-33372D02*
X58886Y-33355D01*
X58920Y-33339D01*
X59003Y-33339D01*
X59036Y-33355D01*
X59053Y-33372D01*
X59070Y-33405D01*
X59070Y-33439D01*
X59053Y-33489D01*
X58853Y-33689D01*
X59070Y-33689D01*
X58199Y-40820D02*
X58432Y-41170D01*
X58432Y-40820D02*
X58199Y-41170D01*
X58765Y-41136D02*
X58749Y-41153D01*
X58699Y-41170D01*
X58665Y-41170D01*
X58615Y-41153D01*
X58582Y-41120D01*
X58565Y-41086D01*
X58549Y-41020D01*
X58549Y-40970D01*
X58565Y-40903D01*
X58582Y-40870D01*
X58615Y-40836D01*
X58665Y-40820D01*
X58699Y-40820D01*
X58749Y-40836D01*
X58765Y-40853D01*
X59065Y-40820D02*
X58999Y-40820D01*
X58965Y-40836D01*
X58949Y-40853D01*
X58915Y-40903D01*
X58899Y-40970D01*
X58899Y-41103D01*
X58915Y-41136D01*
X58932Y-41153D01*
X58965Y-41170D01*
X59032Y-41170D01*
X59065Y-41153D01*
X59082Y-41136D01*
X59099Y-41103D01*
X59099Y-41020D01*
X59082Y-40986D01*
X59065Y-40970D01*
X59032Y-40953D01*
X58965Y-40953D01*
X58932Y-40970D01*
X58915Y-40986D01*
X58899Y-41020D01*
X59232Y-41153D02*
X59282Y-41170D01*
X59365Y-41170D01*
X59398Y-41153D01*
X59415Y-41136D01*
X59432Y-41103D01*
X59432Y-41070D01*
X59415Y-41036D01*
X59398Y-41020D01*
X59365Y-41003D01*
X59298Y-40986D01*
X59265Y-40970D01*
X59248Y-40953D01*
X59232Y-40920D01*
X59232Y-40886D01*
X59248Y-40853D01*
X59265Y-40836D01*
X59298Y-40820D01*
X59382Y-40820D01*
X59432Y-40836D01*
X59748Y-41170D02*
X59581Y-41170D01*
X59581Y-40820D01*
X59831Y-40820D02*
X60064Y-41170D01*
X60064Y-40820D02*
X59831Y-41170D01*
X60181Y-40853D02*
X60197Y-40836D01*
X60231Y-40820D01*
X60314Y-40820D01*
X60347Y-40836D01*
X60364Y-40853D01*
X60381Y-40886D01*
X60381Y-40920D01*
X60364Y-40970D01*
X60164Y-41170D01*
X60381Y-41170D01*
X60697Y-40820D02*
X60530Y-40820D01*
X60514Y-40986D01*
X60530Y-40970D01*
X60564Y-40953D01*
X60647Y-40953D01*
X60680Y-40970D01*
X60697Y-40986D01*
X60714Y-41020D01*
X60714Y-41103D01*
X60697Y-41136D01*
X60680Y-41153D01*
X60647Y-41170D01*
X60564Y-41170D01*
X60530Y-41153D01*
X60514Y-41136D01*
X60980Y-40986D02*
X60863Y-40986D01*
X60863Y-41170D02*
X60863Y-40820D01*
X61030Y-40820D01*
X61113Y-40820D02*
X61313Y-40820D01*
X61213Y-41170D02*
X61213Y-40820D01*
X61614Y-40836D02*
X61580Y-40820D01*
X61530Y-40820D01*
X61480Y-40836D01*
X61447Y-40870D01*
X61430Y-40903D01*
X61414Y-40970D01*
X61414Y-41020D01*
X61430Y-41086D01*
X61447Y-41120D01*
X61480Y-41153D01*
X61530Y-41170D01*
X61564Y-41170D01*
X61614Y-41153D01*
X61630Y-41136D01*
X61630Y-41020D01*
X61564Y-41020D01*
X61764Y-40853D02*
X61780Y-40836D01*
X61814Y-40820D01*
X61897Y-40820D01*
X61930Y-40836D01*
X61947Y-40853D01*
X61964Y-40886D01*
X61964Y-40920D01*
X61947Y-40970D01*
X61747Y-41170D01*
X61964Y-41170D01*
X62280Y-40820D02*
X62113Y-40820D01*
X62097Y-40986D01*
X62113Y-40970D01*
X62147Y-40953D01*
X62230Y-40953D01*
X62263Y-40970D01*
X62280Y-40986D01*
X62297Y-41020D01*
X62297Y-41103D01*
X62280Y-41136D01*
X62263Y-41153D01*
X62230Y-41170D01*
X62147Y-41170D01*
X62113Y-41153D01*
X62097Y-41136D01*
X62596Y-40820D02*
X62530Y-40820D01*
X62496Y-40836D01*
X62480Y-40853D01*
X62446Y-40903D01*
X62430Y-40970D01*
X62430Y-41103D01*
X62446Y-41136D01*
X62463Y-41153D01*
X62496Y-41170D01*
X62563Y-41170D01*
X62596Y-41153D01*
X62613Y-41136D01*
X62630Y-41103D01*
X62630Y-41020D01*
X62613Y-40986D01*
X62596Y-40970D01*
X62563Y-40953D01*
X62496Y-40953D01*
X62463Y-40970D01*
X62446Y-40986D01*
X62430Y-41020D01*
M02*
