M48
;DRILL file {Pcbnew (2012-jan-04)-stable} date Mon Sep 10 12:25:55 2012
;FORMAT={-:-/ absolute / inch / decimal}
FMAT,2
INCH,TZ
T1C0.032
T2C0.032
T3C0.040
T4C0.125
%
G90
G05
M72
T1
X4.845Y2.620
X4.845Y2.720
X4.845Y4.520
X4.845Y4.620
X4.945Y2.620
X4.945Y2.720
X4.945Y4.520
X4.945Y4.620
X5.045Y2.620
X5.045Y2.720
X5.045Y4.520
X5.045Y4.620
X5.145Y2.620
X5.145Y2.720
X5.145Y4.520
X5.145Y4.620
X5.245Y2.620
X5.245Y2.720
X5.245Y4.520
X5.245Y4.620
X5.345Y2.620
X5.345Y2.720
X5.345Y4.520
X5.345Y4.620
X5.445Y2.620
X5.445Y2.720
X5.445Y4.520
X5.445Y4.620
X5.545Y2.620
X5.545Y2.720
X5.545Y4.520
X5.545Y4.620
X5.645Y2.620
X5.645Y2.720
X5.645Y4.520
X5.645Y4.620
X5.745Y2.620
X5.745Y2.720
X5.745Y4.520
X5.745Y4.620
X5.845Y2.620
X5.845Y2.720
X5.845Y4.520
X5.845Y4.620
X5.945Y2.620
X5.945Y2.720
X5.945Y4.520
X5.945Y4.620
X6.045Y2.620
X6.045Y2.720
X6.045Y4.520
X6.045Y4.620
X6.145Y2.620
X6.145Y2.720
X6.145Y4.520
X6.145Y4.620
X6.245Y2.620
X6.245Y2.720
X6.245Y4.520
X6.245Y4.620
X6.345Y2.620
X6.345Y2.720
X6.345Y4.520
X6.345Y4.620
X6.445Y2.620
X6.445Y2.720
X6.445Y4.520
X6.445Y4.620
X6.545Y2.620
X6.545Y2.720
X6.545Y4.520
X6.545Y4.620
X6.645Y2.620
X6.645Y2.720
X6.645Y4.520
X6.645Y4.620
X6.745Y2.620
X6.745Y2.720
X6.745Y4.520
X6.745Y4.620
X6.845Y2.620
X6.845Y2.720
X6.845Y4.520
X6.845Y4.620
X6.945Y2.620
X6.945Y2.720
X6.945Y4.520
X6.945Y4.620
X7.045Y2.720
X7.045Y4.620
X7.145Y3.195
X7.145Y3.295
X7.245Y3.195
X7.245Y3.295
X7.345Y3.195
X7.345Y3.295
X7.445Y3.195
X7.445Y3.295
X7.545Y3.295
T2
X4.911Y2.968
X5.011Y2.968
X5.111Y2.968
X5.211Y2.968
X5.311Y2.968
X5.411Y2.968
X6.904Y3.804
X6.904Y3.904
X6.904Y4.004
X6.905Y3.424
X6.905Y3.524
X6.905Y3.624
T3
X7.045Y2.620
X7.045Y4.520
X7.545Y3.195
T4
X4.645Y2.795
X4.645Y4.445
X7.245Y2.670
X7.245Y4.570
T0
M30
