G04 (created by PCBNEW-RS274X (2012-jan-04)-stable) date Tue Nov 13 20:46:58 2012*
G01*
G70*
G90*
%MOIN*%
G04 Gerber Fmt 3.4, Leading zero omitted, Abs format*
%FSLAX34Y34*%
G04 APERTURE LIST*
%ADD10C,0.006000*%
%ADD11C,0.012000*%
%ADD12C,0.051200*%
%ADD13R,0.039400X0.137800*%
%ADD14R,0.039400X0.118100*%
%ADD15C,0.180000*%
%ADD16C,0.015000*%
%ADD17C,0.002800*%
%ADD18C,0.011800*%
%ADD19C,0.039400*%
%ADD20C,0.005100*%
%ADD21C,0.009800*%
%ADD22C,0.010000*%
G04 APERTURE END LIST*
G54D10*
X04000Y-04000D02*
X113000Y-04000D01*
X113000Y-78670D01*
X04000Y-78670D01*
X04000Y-04000D01*
X04700Y-04700D02*
X112300Y-04700D01*
X112300Y-77970D01*
X04700Y-77970D01*
X04700Y-04700D01*
X25800Y-04000D02*
X25800Y-04700D01*
X15043Y-04552D02*
X14757Y-04552D01*
X14900Y-04552D02*
X14900Y-04052D01*
X14852Y-04124D01*
X14805Y-04171D01*
X14757Y-04195D01*
X25800Y-78670D02*
X25800Y-77970D01*
X15043Y-78522D02*
X14757Y-78522D01*
X14900Y-78522D02*
X14900Y-78022D01*
X14852Y-78094D01*
X14805Y-78141D01*
X14757Y-78165D01*
X47600Y-04000D02*
X47600Y-04700D01*
X36557Y-04100D02*
X36581Y-04076D01*
X36629Y-04052D01*
X36748Y-04052D01*
X36795Y-04076D01*
X36819Y-04100D01*
X36843Y-04148D01*
X36843Y-04195D01*
X36819Y-04267D01*
X36533Y-04552D01*
X36843Y-04552D01*
X47600Y-78670D02*
X47600Y-77970D01*
X36557Y-78070D02*
X36581Y-78046D01*
X36629Y-78022D01*
X36748Y-78022D01*
X36795Y-78046D01*
X36819Y-78070D01*
X36843Y-78118D01*
X36843Y-78165D01*
X36819Y-78237D01*
X36533Y-78522D01*
X36843Y-78522D01*
X69400Y-04000D02*
X69400Y-04700D01*
X58333Y-04052D02*
X58643Y-04052D01*
X58476Y-04243D01*
X58548Y-04243D01*
X58595Y-04267D01*
X58619Y-04290D01*
X58643Y-04338D01*
X58643Y-04457D01*
X58619Y-04505D01*
X58595Y-04529D01*
X58548Y-04552D01*
X58405Y-04552D01*
X58357Y-04529D01*
X58333Y-04505D01*
X69400Y-78670D02*
X69400Y-77970D01*
X58333Y-78022D02*
X58643Y-78022D01*
X58476Y-78213D01*
X58548Y-78213D01*
X58595Y-78237D01*
X58619Y-78260D01*
X58643Y-78308D01*
X58643Y-78427D01*
X58619Y-78475D01*
X58595Y-78499D01*
X58548Y-78522D01*
X58405Y-78522D01*
X58357Y-78499D01*
X58333Y-78475D01*
X91200Y-04000D02*
X91200Y-04700D01*
X80395Y-04219D02*
X80395Y-04552D01*
X80276Y-04029D02*
X80157Y-04386D01*
X80467Y-04386D01*
X91200Y-78670D02*
X91200Y-77970D01*
X80395Y-78189D02*
X80395Y-78522D01*
X80276Y-77999D02*
X80157Y-78356D01*
X80467Y-78356D01*
X102219Y-04052D02*
X101981Y-04052D01*
X101957Y-04290D01*
X101981Y-04267D01*
X102029Y-04243D01*
X102148Y-04243D01*
X102195Y-04267D01*
X102219Y-04290D01*
X102243Y-04338D01*
X102243Y-04457D01*
X102219Y-04505D01*
X102195Y-04529D01*
X102148Y-04552D01*
X102029Y-04552D01*
X101981Y-04529D01*
X101957Y-04505D01*
X102219Y-78022D02*
X101981Y-78022D01*
X101957Y-78260D01*
X101981Y-78237D01*
X102029Y-78213D01*
X102148Y-78213D01*
X102195Y-78237D01*
X102219Y-78260D01*
X102243Y-78308D01*
X102243Y-78427D01*
X102219Y-78475D01*
X102195Y-78499D01*
X102148Y-78522D01*
X102029Y-78522D01*
X101981Y-78499D01*
X101957Y-78475D01*
X04000Y-28890D02*
X04700Y-28890D01*
X04231Y-16510D02*
X04469Y-16510D01*
X04184Y-16652D02*
X04350Y-16152D01*
X04517Y-16652D01*
X113000Y-28890D02*
X112300Y-28890D01*
X112531Y-16510D02*
X112769Y-16510D01*
X112484Y-16652D02*
X112650Y-16152D01*
X112817Y-16652D01*
X04000Y-53780D02*
X04700Y-53780D01*
X04386Y-41280D02*
X04457Y-41304D01*
X04481Y-41328D01*
X04505Y-41376D01*
X04505Y-41447D01*
X04481Y-41495D01*
X04457Y-41519D01*
X04410Y-41542D01*
X04219Y-41542D01*
X04219Y-41042D01*
X04386Y-41042D01*
X04433Y-41066D01*
X04457Y-41090D01*
X04481Y-41138D01*
X04481Y-41185D01*
X04457Y-41233D01*
X04433Y-41257D01*
X04386Y-41280D01*
X04219Y-41280D01*
X113000Y-53780D02*
X112300Y-53780D01*
X112686Y-41280D02*
X112757Y-41304D01*
X112781Y-41328D01*
X112805Y-41376D01*
X112805Y-41447D01*
X112781Y-41495D01*
X112757Y-41519D01*
X112710Y-41542D01*
X112519Y-41542D01*
X112519Y-41042D01*
X112686Y-41042D01*
X112733Y-41066D01*
X112757Y-41090D01*
X112781Y-41138D01*
X112781Y-41185D01*
X112757Y-41233D01*
X112733Y-41257D01*
X112686Y-41280D01*
X112519Y-41280D01*
X04505Y-66385D02*
X04481Y-66409D01*
X04410Y-66432D01*
X04362Y-66432D01*
X04290Y-66409D01*
X04243Y-66361D01*
X04219Y-66313D01*
X04195Y-66218D01*
X04195Y-66147D01*
X04219Y-66051D01*
X04243Y-66004D01*
X04290Y-65956D01*
X04362Y-65932D01*
X04410Y-65932D01*
X04481Y-65956D01*
X04505Y-65980D01*
X112805Y-66385D02*
X112781Y-66409D01*
X112710Y-66432D01*
X112662Y-66432D01*
X112590Y-66409D01*
X112543Y-66361D01*
X112519Y-66313D01*
X112495Y-66218D01*
X112495Y-66147D01*
X112519Y-66051D01*
X112543Y-66004D01*
X112590Y-65956D01*
X112662Y-65932D01*
X112710Y-65932D01*
X112781Y-65956D01*
X112805Y-65980D01*
G54D11*
X79443Y-76413D02*
X79443Y-75813D01*
X79586Y-75813D01*
X79671Y-75841D01*
X79729Y-75899D01*
X79757Y-75956D01*
X79786Y-76070D01*
X79786Y-76156D01*
X79757Y-76270D01*
X79729Y-76327D01*
X79671Y-76384D01*
X79586Y-76413D01*
X79443Y-76413D01*
X80300Y-76413D02*
X80300Y-76099D01*
X80271Y-76041D01*
X80214Y-76013D01*
X80100Y-76013D01*
X80043Y-76041D01*
X80300Y-76384D02*
X80243Y-76413D01*
X80100Y-76413D01*
X80043Y-76384D01*
X80014Y-76327D01*
X80014Y-76270D01*
X80043Y-76213D01*
X80100Y-76184D01*
X80243Y-76184D01*
X80300Y-76156D01*
X80500Y-76013D02*
X80729Y-76013D01*
X80586Y-75813D02*
X80586Y-76327D01*
X80614Y-76384D01*
X80672Y-76413D01*
X80729Y-76413D01*
X81157Y-76384D02*
X81100Y-76413D01*
X80986Y-76413D01*
X80929Y-76384D01*
X80900Y-76327D01*
X80900Y-76099D01*
X80929Y-76041D01*
X80986Y-76013D01*
X81100Y-76013D01*
X81157Y-76041D01*
X81186Y-76099D01*
X81186Y-76156D01*
X80900Y-76213D01*
X81443Y-76356D02*
X81471Y-76384D01*
X81443Y-76413D01*
X81414Y-76384D01*
X81443Y-76356D01*
X81443Y-76413D01*
X81443Y-76041D02*
X81471Y-76070D01*
X81443Y-76099D01*
X81414Y-76070D01*
X81443Y-76041D01*
X81443Y-76099D01*
X82500Y-76413D02*
X82157Y-76413D01*
X82329Y-76413D02*
X82329Y-75813D01*
X82272Y-75899D01*
X82214Y-75956D01*
X82157Y-75984D01*
X83014Y-76013D02*
X83014Y-76413D01*
X82871Y-75784D02*
X82728Y-76213D01*
X83100Y-76213D01*
X83785Y-76013D02*
X83785Y-76413D01*
X83785Y-76070D02*
X83813Y-76041D01*
X83871Y-76013D01*
X83956Y-76013D01*
X84013Y-76041D01*
X84042Y-76099D01*
X84042Y-76413D01*
X84414Y-76413D02*
X84356Y-76384D01*
X84328Y-76356D01*
X84299Y-76299D01*
X84299Y-76127D01*
X84328Y-76070D01*
X84356Y-76041D01*
X84414Y-76013D01*
X84499Y-76013D01*
X84556Y-76041D01*
X84585Y-76070D01*
X84614Y-76127D01*
X84614Y-76299D01*
X84585Y-76356D01*
X84556Y-76384D01*
X84499Y-76413D01*
X84414Y-76413D01*
X84814Y-76013D02*
X84957Y-76413D01*
X85099Y-76013D01*
X85756Y-75870D02*
X85785Y-75841D01*
X85842Y-75813D01*
X85985Y-75813D01*
X86042Y-75841D01*
X86071Y-75870D01*
X86099Y-75927D01*
X86099Y-75984D01*
X86071Y-76070D01*
X85728Y-76413D01*
X86099Y-76413D01*
X86470Y-75813D02*
X86527Y-75813D01*
X86584Y-75841D01*
X86613Y-75870D01*
X86642Y-75927D01*
X86670Y-76041D01*
X86670Y-76184D01*
X86642Y-76299D01*
X86613Y-76356D01*
X86584Y-76384D01*
X86527Y-76413D01*
X86470Y-76413D01*
X86413Y-76384D01*
X86384Y-76356D01*
X86356Y-76299D01*
X86327Y-76184D01*
X86327Y-76041D01*
X86356Y-75927D01*
X86384Y-75870D01*
X86413Y-75841D01*
X86470Y-75813D01*
X87241Y-76413D02*
X86898Y-76413D01*
X87070Y-76413D02*
X87070Y-75813D01*
X87013Y-75899D01*
X86955Y-75956D01*
X86898Y-75984D01*
X87469Y-75870D02*
X87498Y-75841D01*
X87555Y-75813D01*
X87698Y-75813D01*
X87755Y-75841D01*
X87784Y-75870D01*
X87812Y-75927D01*
X87812Y-75984D01*
X87784Y-76070D01*
X87441Y-76413D01*
X87812Y-76413D01*
G54D10*
X71043Y-77613D02*
X71043Y-77013D01*
X71386Y-77613D02*
X71129Y-77270D01*
X71386Y-77013D02*
X71043Y-77356D01*
X71643Y-77613D02*
X71643Y-77213D01*
X71643Y-77013D02*
X71614Y-77041D01*
X71643Y-77070D01*
X71671Y-77041D01*
X71643Y-77013D01*
X71643Y-77070D01*
X72272Y-77556D02*
X72243Y-77584D01*
X72157Y-77613D01*
X72100Y-77613D01*
X72015Y-77584D01*
X71957Y-77527D01*
X71929Y-77470D01*
X71900Y-77356D01*
X71900Y-77270D01*
X71929Y-77156D01*
X71957Y-77099D01*
X72015Y-77041D01*
X72100Y-77013D01*
X72157Y-77013D01*
X72243Y-77041D01*
X72272Y-77070D01*
X72786Y-77613D02*
X72786Y-77299D01*
X72757Y-77241D01*
X72700Y-77213D01*
X72586Y-77213D01*
X72529Y-77241D01*
X72786Y-77584D02*
X72729Y-77613D01*
X72586Y-77613D01*
X72529Y-77584D01*
X72500Y-77527D01*
X72500Y-77470D01*
X72529Y-77413D01*
X72586Y-77384D01*
X72729Y-77384D01*
X72786Y-77356D01*
X73329Y-77613D02*
X73329Y-77013D01*
X73329Y-77584D02*
X73272Y-77613D01*
X73158Y-77613D01*
X73100Y-77584D01*
X73072Y-77556D01*
X73043Y-77499D01*
X73043Y-77327D01*
X73072Y-77270D01*
X73100Y-77241D01*
X73158Y-77213D01*
X73272Y-77213D01*
X73329Y-77241D01*
X74072Y-77299D02*
X74272Y-77299D01*
X74358Y-77613D02*
X74072Y-77613D01*
X74072Y-77013D01*
X74358Y-77013D01*
X74615Y-77556D02*
X74643Y-77584D01*
X74615Y-77613D01*
X74586Y-77584D01*
X74615Y-77556D01*
X74615Y-77613D01*
X74901Y-77613D02*
X74901Y-77013D01*
X75044Y-77013D01*
X75129Y-77041D01*
X75187Y-77099D01*
X75215Y-77156D01*
X75244Y-77270D01*
X75244Y-77356D01*
X75215Y-77470D01*
X75187Y-77527D01*
X75129Y-77584D01*
X75044Y-77613D01*
X74901Y-77613D01*
X75501Y-77556D02*
X75529Y-77584D01*
X75501Y-77613D01*
X75472Y-77584D01*
X75501Y-77556D01*
X75501Y-77613D01*
X75758Y-77441D02*
X76044Y-77441D01*
X75701Y-77613D02*
X75901Y-77013D01*
X76101Y-77613D01*
X76301Y-77556D02*
X76329Y-77584D01*
X76301Y-77613D01*
X76272Y-77584D01*
X76301Y-77556D01*
X76301Y-77613D01*
G54D11*
X104586Y-76413D02*
X104386Y-76127D01*
X104243Y-76413D02*
X104243Y-75813D01*
X104471Y-75813D01*
X104529Y-75841D01*
X104557Y-75870D01*
X104586Y-75927D01*
X104586Y-76013D01*
X104557Y-76070D01*
X104529Y-76099D01*
X104471Y-76127D01*
X104243Y-76127D01*
X105071Y-76384D02*
X105014Y-76413D01*
X104900Y-76413D01*
X104843Y-76384D01*
X104814Y-76327D01*
X104814Y-76099D01*
X104843Y-76041D01*
X104900Y-76013D01*
X105014Y-76013D01*
X105071Y-76041D01*
X105100Y-76099D01*
X105100Y-76156D01*
X104814Y-76213D01*
X105300Y-76013D02*
X105443Y-76413D01*
X105585Y-76013D01*
X105814Y-76356D02*
X105842Y-76384D01*
X105814Y-76413D01*
X105785Y-76384D01*
X105814Y-76356D01*
X105814Y-76413D01*
X105814Y-76041D02*
X105842Y-76070D01*
X105814Y-76099D01*
X105785Y-76070D01*
X105814Y-76041D01*
X105814Y-76099D01*
X106671Y-75813D02*
X106728Y-75813D01*
X106785Y-75841D01*
X106814Y-75870D01*
X106843Y-75927D01*
X106871Y-76041D01*
X106871Y-76184D01*
X106843Y-76299D01*
X106814Y-76356D01*
X106785Y-76384D01*
X106728Y-76413D01*
X106671Y-76413D01*
X106614Y-76384D01*
X106585Y-76356D01*
X106557Y-76299D01*
X106528Y-76184D01*
X106528Y-76041D01*
X106557Y-75927D01*
X106585Y-75870D01*
X106614Y-75841D01*
X106671Y-75813D01*
X107442Y-76413D02*
X107099Y-76413D01*
X107271Y-76413D02*
X107271Y-75813D01*
X107214Y-75899D01*
X107156Y-75956D01*
X107099Y-75984D01*
G54D10*
X71014Y-76384D02*
X71100Y-76413D01*
X71243Y-76413D01*
X71300Y-76384D01*
X71329Y-76356D01*
X71357Y-76299D01*
X71357Y-76241D01*
X71329Y-76184D01*
X71300Y-76156D01*
X71243Y-76127D01*
X71129Y-76099D01*
X71071Y-76070D01*
X71043Y-76041D01*
X71014Y-75984D01*
X71014Y-75927D01*
X71043Y-75870D01*
X71071Y-75841D01*
X71129Y-75813D01*
X71271Y-75813D01*
X71357Y-75841D01*
X71614Y-76413D02*
X71614Y-76013D01*
X71614Y-75813D02*
X71585Y-75841D01*
X71614Y-75870D01*
X71642Y-75841D01*
X71614Y-75813D01*
X71614Y-75870D01*
X71843Y-76013D02*
X72157Y-76013D01*
X71843Y-76413D01*
X72157Y-76413D01*
X72614Y-76384D02*
X72557Y-76413D01*
X72443Y-76413D01*
X72386Y-76384D01*
X72357Y-76327D01*
X72357Y-76099D01*
X72386Y-76041D01*
X72443Y-76013D01*
X72557Y-76013D01*
X72614Y-76041D01*
X72643Y-76099D01*
X72643Y-76156D01*
X72357Y-76213D01*
X72900Y-76356D02*
X72928Y-76384D01*
X72900Y-76413D01*
X72871Y-76384D01*
X72900Y-76356D01*
X72900Y-76413D01*
X72900Y-76041D02*
X72928Y-76070D01*
X72900Y-76099D01*
X72871Y-76070D01*
X72900Y-76041D01*
X72900Y-76099D01*
X73614Y-76241D02*
X73900Y-76241D01*
X73557Y-76413D02*
X73757Y-75813D01*
X73957Y-76413D01*
X74414Y-76013D02*
X74414Y-76413D01*
X74271Y-75784D02*
X74128Y-76213D01*
X74500Y-76213D01*
X104243Y-77613D02*
X104243Y-77013D01*
X104786Y-77613D02*
X104786Y-77013D01*
X104786Y-77584D02*
X104729Y-77613D01*
X104615Y-77613D01*
X104557Y-77584D01*
X104529Y-77556D01*
X104500Y-77499D01*
X104500Y-77327D01*
X104529Y-77270D01*
X104557Y-77241D01*
X104615Y-77213D01*
X104729Y-77213D01*
X104786Y-77241D01*
X105072Y-77556D02*
X105100Y-77584D01*
X105072Y-77613D01*
X105043Y-77584D01*
X105072Y-77556D01*
X105072Y-77613D01*
X105072Y-77241D02*
X105100Y-77270D01*
X105072Y-77299D01*
X105043Y-77270D01*
X105072Y-77241D01*
X105072Y-77299D01*
X106129Y-77613D02*
X105786Y-77613D01*
X105958Y-77613D02*
X105958Y-77013D01*
X105901Y-77099D01*
X105843Y-77156D01*
X105786Y-77184D01*
X106814Y-76984D02*
X106300Y-77756D01*
X107329Y-77613D02*
X106986Y-77613D01*
X107158Y-77613D02*
X107158Y-77013D01*
X107101Y-77099D01*
X107043Y-77156D01*
X106986Y-77184D01*
G54D11*
X70957Y-74613D02*
X71300Y-74613D01*
X71129Y-75213D02*
X71129Y-74613D01*
X71500Y-75213D02*
X71500Y-74813D01*
X71500Y-74613D02*
X71471Y-74641D01*
X71500Y-74670D01*
X71528Y-74641D01*
X71500Y-74613D01*
X71500Y-74670D01*
X71700Y-74813D02*
X71929Y-74813D01*
X71786Y-74613D02*
X71786Y-75127D01*
X71814Y-75184D01*
X71872Y-75213D01*
X71929Y-75213D01*
X72215Y-75213D02*
X72157Y-75184D01*
X72129Y-75127D01*
X72129Y-74613D01*
X72671Y-75184D02*
X72614Y-75213D01*
X72500Y-75213D01*
X72443Y-75184D01*
X72414Y-75127D01*
X72414Y-74899D01*
X72443Y-74841D01*
X72500Y-74813D01*
X72614Y-74813D01*
X72671Y-74841D01*
X72700Y-74899D01*
X72700Y-74956D01*
X72414Y-75013D01*
X72957Y-75156D02*
X72985Y-75184D01*
X72957Y-75213D01*
X72928Y-75184D01*
X72957Y-75156D01*
X72957Y-75213D01*
X72957Y-74841D02*
X72985Y-74870D01*
X72957Y-74899D01*
X72928Y-74870D01*
X72957Y-74841D01*
X72957Y-74899D01*
X73900Y-74899D02*
X73986Y-74927D01*
X74014Y-74956D01*
X74043Y-75013D01*
X74043Y-75099D01*
X74014Y-75156D01*
X73986Y-75184D01*
X73928Y-75213D01*
X73700Y-75213D01*
X73700Y-74613D01*
X73900Y-74613D01*
X73957Y-74641D01*
X73986Y-74670D01*
X74014Y-74727D01*
X74014Y-74784D01*
X73986Y-74841D01*
X73957Y-74870D01*
X73900Y-74899D01*
X73700Y-74899D01*
X74528Y-75184D02*
X74471Y-75213D01*
X74357Y-75213D01*
X74300Y-75184D01*
X74271Y-75127D01*
X74271Y-74899D01*
X74300Y-74841D01*
X74357Y-74813D01*
X74471Y-74813D01*
X74528Y-74841D01*
X74557Y-74899D01*
X74557Y-74956D01*
X74271Y-75013D01*
X75071Y-75213D02*
X75071Y-74899D01*
X75042Y-74841D01*
X74985Y-74813D01*
X74871Y-74813D01*
X74814Y-74841D01*
X75071Y-75184D02*
X75014Y-75213D01*
X74871Y-75213D01*
X74814Y-75184D01*
X74785Y-75127D01*
X74785Y-75070D01*
X74814Y-75013D01*
X74871Y-74984D01*
X75014Y-74984D01*
X75071Y-74956D01*
X75614Y-74813D02*
X75614Y-75299D01*
X75585Y-75356D01*
X75557Y-75384D01*
X75500Y-75413D01*
X75414Y-75413D01*
X75357Y-75384D01*
X75614Y-75184D02*
X75557Y-75213D01*
X75443Y-75213D01*
X75385Y-75184D01*
X75357Y-75156D01*
X75328Y-75099D01*
X75328Y-74927D01*
X75357Y-74870D01*
X75385Y-74841D01*
X75443Y-74813D01*
X75557Y-74813D01*
X75614Y-74841D01*
X75986Y-75213D02*
X75928Y-75184D01*
X75900Y-75127D01*
X75900Y-74613D01*
X76442Y-75184D02*
X76385Y-75213D01*
X76271Y-75213D01*
X76214Y-75184D01*
X76185Y-75127D01*
X76185Y-74899D01*
X76214Y-74841D01*
X76271Y-74813D01*
X76385Y-74813D01*
X76442Y-74841D01*
X76471Y-74899D01*
X76471Y-74956D01*
X76185Y-75013D01*
X76728Y-75213D02*
X76728Y-74613D01*
X76728Y-74841D02*
X76785Y-74813D01*
X76899Y-74813D01*
X76956Y-74841D01*
X76985Y-74870D01*
X77014Y-74927D01*
X77014Y-75099D01*
X76985Y-75156D01*
X76956Y-75184D01*
X76899Y-75213D01*
X76785Y-75213D01*
X76728Y-75184D01*
X77357Y-75213D02*
X77299Y-75184D01*
X77271Y-75156D01*
X77242Y-75099D01*
X77242Y-74927D01*
X77271Y-74870D01*
X77299Y-74841D01*
X77357Y-74813D01*
X77442Y-74813D01*
X77499Y-74841D01*
X77528Y-74870D01*
X77557Y-74927D01*
X77557Y-75099D01*
X77528Y-75156D01*
X77499Y-75184D01*
X77442Y-75213D01*
X77357Y-75213D01*
X77814Y-74813D02*
X77814Y-75213D01*
X77814Y-74870D02*
X77842Y-74841D01*
X77900Y-74813D01*
X77985Y-74813D01*
X78042Y-74841D01*
X78071Y-74899D01*
X78071Y-75213D01*
X78585Y-75184D02*
X78528Y-75213D01*
X78414Y-75213D01*
X78357Y-75184D01*
X78328Y-75127D01*
X78328Y-74899D01*
X78357Y-74841D01*
X78414Y-74813D01*
X78528Y-74813D01*
X78585Y-74841D01*
X78614Y-74899D01*
X78614Y-74956D01*
X78328Y-75013D01*
X78871Y-74984D02*
X79328Y-74984D01*
X79585Y-75184D02*
X79671Y-75213D01*
X79814Y-75213D01*
X79871Y-75184D01*
X79900Y-75156D01*
X79928Y-75099D01*
X79928Y-75041D01*
X79900Y-74984D01*
X79871Y-74956D01*
X79814Y-74927D01*
X79700Y-74899D01*
X79642Y-74870D01*
X79614Y-74841D01*
X79585Y-74784D01*
X79585Y-74727D01*
X79614Y-74670D01*
X79642Y-74641D01*
X79700Y-74613D01*
X79842Y-74613D01*
X79928Y-74641D01*
X80185Y-74813D02*
X80185Y-75413D01*
X80185Y-74841D02*
X80242Y-74813D01*
X80356Y-74813D01*
X80413Y-74841D01*
X80442Y-74870D01*
X80471Y-74927D01*
X80471Y-75099D01*
X80442Y-75156D01*
X80413Y-75184D01*
X80356Y-75213D01*
X80242Y-75213D01*
X80185Y-75184D01*
X80985Y-75213D02*
X80985Y-74899D01*
X80956Y-74841D01*
X80899Y-74813D01*
X80785Y-74813D01*
X80728Y-74841D01*
X80985Y-75184D02*
X80928Y-75213D01*
X80785Y-75213D01*
X80728Y-75184D01*
X80699Y-75127D01*
X80699Y-75070D01*
X80728Y-75013D01*
X80785Y-74984D01*
X80928Y-74984D01*
X80985Y-74956D01*
X81271Y-75213D02*
X81271Y-74813D01*
X81271Y-74927D02*
X81299Y-74870D01*
X81328Y-74841D01*
X81385Y-74813D01*
X81442Y-74813D01*
X81556Y-74813D02*
X81785Y-74813D01*
X81642Y-74613D02*
X81642Y-75127D01*
X81670Y-75184D01*
X81728Y-75213D01*
X81785Y-75213D01*
X82242Y-75213D02*
X82242Y-74899D01*
X82213Y-74841D01*
X82156Y-74813D01*
X82042Y-74813D01*
X81985Y-74841D01*
X82242Y-75184D02*
X82185Y-75213D01*
X82042Y-75213D01*
X81985Y-75184D01*
X81956Y-75127D01*
X81956Y-75070D01*
X81985Y-75013D01*
X82042Y-74984D01*
X82185Y-74984D01*
X82242Y-74956D01*
X82528Y-74813D02*
X82528Y-75213D01*
X82528Y-74870D02*
X82556Y-74841D01*
X82614Y-74813D01*
X82699Y-74813D01*
X82756Y-74841D01*
X82785Y-74899D01*
X82785Y-75213D01*
X83328Y-74613D02*
X83214Y-74613D01*
X83157Y-74641D01*
X83128Y-74670D01*
X83071Y-74756D01*
X83042Y-74870D01*
X83042Y-75099D01*
X83071Y-75156D01*
X83099Y-75184D01*
X83157Y-75213D01*
X83271Y-75213D01*
X83328Y-75184D01*
X83357Y-75156D01*
X83385Y-75099D01*
X83385Y-74956D01*
X83357Y-74899D01*
X83328Y-74870D01*
X83271Y-74841D01*
X83157Y-74841D01*
X83099Y-74870D01*
X83071Y-74899D01*
X83042Y-74956D01*
X83642Y-74984D02*
X84099Y-74984D01*
X84728Y-75156D02*
X84699Y-75184D01*
X84613Y-75213D01*
X84556Y-75213D01*
X84471Y-75184D01*
X84413Y-75127D01*
X84385Y-75070D01*
X84356Y-74956D01*
X84356Y-74870D01*
X84385Y-74756D01*
X84413Y-74699D01*
X84471Y-74641D01*
X84556Y-74613D01*
X84613Y-74613D01*
X84699Y-74641D01*
X84728Y-74670D01*
X85242Y-75213D02*
X85242Y-74899D01*
X85213Y-74841D01*
X85156Y-74813D01*
X85042Y-74813D01*
X84985Y-74841D01*
X85242Y-75184D02*
X85185Y-75213D01*
X85042Y-75213D01*
X84985Y-75184D01*
X84956Y-75127D01*
X84956Y-75070D01*
X84985Y-75013D01*
X85042Y-74984D01*
X85185Y-74984D01*
X85242Y-74956D01*
X85528Y-74813D02*
X85528Y-75413D01*
X85528Y-74841D02*
X85585Y-74813D01*
X85699Y-74813D01*
X85756Y-74841D01*
X85785Y-74870D01*
X85814Y-74927D01*
X85814Y-75099D01*
X85785Y-75156D01*
X85756Y-75184D01*
X85699Y-75213D01*
X85585Y-75213D01*
X85528Y-75184D01*
X86299Y-75184D02*
X86242Y-75213D01*
X86128Y-75213D01*
X86071Y-75184D01*
X86042Y-75127D01*
X86042Y-74899D01*
X86071Y-74841D01*
X86128Y-74813D01*
X86242Y-74813D01*
X86299Y-74841D01*
X86328Y-74899D01*
X86328Y-74956D01*
X86042Y-75013D01*
G54D10*
X71243Y-72499D02*
X71043Y-72499D01*
X71043Y-72813D02*
X71043Y-72213D01*
X71329Y-72213D01*
X71557Y-72813D02*
X71557Y-72413D01*
X71557Y-72213D02*
X71528Y-72241D01*
X71557Y-72270D01*
X71585Y-72241D01*
X71557Y-72213D01*
X71557Y-72270D01*
X71929Y-72813D02*
X71871Y-72784D01*
X71843Y-72727D01*
X71843Y-72213D01*
X72385Y-72784D02*
X72328Y-72813D01*
X72214Y-72813D01*
X72157Y-72784D01*
X72128Y-72727D01*
X72128Y-72499D01*
X72157Y-72441D01*
X72214Y-72413D01*
X72328Y-72413D01*
X72385Y-72441D01*
X72414Y-72499D01*
X72414Y-72556D01*
X72128Y-72613D01*
X72671Y-72756D02*
X72699Y-72784D01*
X72671Y-72813D01*
X72642Y-72784D01*
X72671Y-72756D01*
X72671Y-72813D01*
X72671Y-72441D02*
X72699Y-72470D01*
X72671Y-72499D01*
X72642Y-72470D01*
X72671Y-72441D01*
X72671Y-72499D01*
X73414Y-72813D02*
X73414Y-72213D01*
X73414Y-72441D02*
X73471Y-72413D01*
X73585Y-72413D01*
X73642Y-72441D01*
X73671Y-72470D01*
X73700Y-72527D01*
X73700Y-72699D01*
X73671Y-72756D01*
X73642Y-72784D01*
X73585Y-72813D01*
X73471Y-72813D01*
X73414Y-72784D01*
X74043Y-72813D02*
X73985Y-72784D01*
X73957Y-72756D01*
X73928Y-72699D01*
X73928Y-72527D01*
X73957Y-72470D01*
X73985Y-72441D01*
X74043Y-72413D01*
X74128Y-72413D01*
X74185Y-72441D01*
X74214Y-72470D01*
X74243Y-72527D01*
X74243Y-72699D01*
X74214Y-72756D01*
X74185Y-72784D01*
X74128Y-72813D01*
X74043Y-72813D01*
X74500Y-72413D02*
X74500Y-72813D01*
X74500Y-72470D02*
X74528Y-72441D01*
X74586Y-72413D01*
X74671Y-72413D01*
X74728Y-72441D01*
X74757Y-72499D01*
X74757Y-72813D01*
X75271Y-72784D02*
X75214Y-72813D01*
X75100Y-72813D01*
X75043Y-72784D01*
X75014Y-72727D01*
X75014Y-72499D01*
X75043Y-72441D01*
X75100Y-72413D01*
X75214Y-72413D01*
X75271Y-72441D01*
X75300Y-72499D01*
X75300Y-72556D01*
X75014Y-72613D01*
X75471Y-72413D02*
X75700Y-72413D01*
X75557Y-72813D02*
X75557Y-72299D01*
X75585Y-72241D01*
X75643Y-72213D01*
X75700Y-72213D01*
X75900Y-72413D02*
X75900Y-73013D01*
X75900Y-72441D02*
X75957Y-72413D01*
X76071Y-72413D01*
X76128Y-72441D01*
X76157Y-72470D01*
X76186Y-72527D01*
X76186Y-72699D01*
X76157Y-72756D01*
X76128Y-72784D01*
X76071Y-72813D01*
X75957Y-72813D01*
X75900Y-72784D01*
X76700Y-72413D02*
X76700Y-72899D01*
X76671Y-72956D01*
X76643Y-72984D01*
X76586Y-73013D01*
X76500Y-73013D01*
X76443Y-72984D01*
X76700Y-72784D02*
X76643Y-72813D01*
X76529Y-72813D01*
X76471Y-72784D01*
X76443Y-72756D01*
X76414Y-72699D01*
X76414Y-72527D01*
X76443Y-72470D01*
X76471Y-72441D01*
X76529Y-72413D01*
X76643Y-72413D01*
X76700Y-72441D01*
X77243Y-72813D02*
X77243Y-72499D01*
X77214Y-72441D01*
X77157Y-72413D01*
X77043Y-72413D01*
X76986Y-72441D01*
X77243Y-72784D02*
X77186Y-72813D01*
X77043Y-72813D01*
X76986Y-72784D01*
X76957Y-72727D01*
X76957Y-72670D01*
X76986Y-72613D01*
X77043Y-72584D01*
X77186Y-72584D01*
X77243Y-72556D01*
X77529Y-72756D02*
X77557Y-72784D01*
X77529Y-72813D01*
X77500Y-72784D01*
X77529Y-72756D01*
X77529Y-72813D01*
X77815Y-72813D02*
X77815Y-72213D01*
X77815Y-72441D02*
X77872Y-72413D01*
X77986Y-72413D01*
X78043Y-72441D01*
X78072Y-72470D01*
X78101Y-72527D01*
X78101Y-72699D01*
X78072Y-72756D01*
X78043Y-72784D01*
X77986Y-72813D01*
X77872Y-72813D01*
X77815Y-72784D01*
X78358Y-72813D02*
X78358Y-72413D01*
X78358Y-72527D02*
X78386Y-72470D01*
X78415Y-72441D01*
X78472Y-72413D01*
X78529Y-72413D01*
X78986Y-72813D02*
X78986Y-72213D01*
X78986Y-72784D02*
X78929Y-72813D01*
X78815Y-72813D01*
X78757Y-72784D01*
X78729Y-72756D01*
X78700Y-72699D01*
X78700Y-72527D01*
X78729Y-72470D01*
X78757Y-72441D01*
X78815Y-72413D01*
X78929Y-72413D01*
X78986Y-72441D01*
X71014Y-73984D02*
X71100Y-74013D01*
X71243Y-74013D01*
X71300Y-73984D01*
X71329Y-73956D01*
X71357Y-73899D01*
X71357Y-73841D01*
X71329Y-73784D01*
X71300Y-73756D01*
X71243Y-73727D01*
X71129Y-73699D01*
X71071Y-73670D01*
X71043Y-73641D01*
X71014Y-73584D01*
X71014Y-73527D01*
X71043Y-73470D01*
X71071Y-73441D01*
X71129Y-73413D01*
X71271Y-73413D01*
X71357Y-73441D01*
X71614Y-74013D02*
X71614Y-73413D01*
X71871Y-74013D02*
X71871Y-73699D01*
X71842Y-73641D01*
X71785Y-73613D01*
X71700Y-73613D01*
X71642Y-73641D01*
X71614Y-73670D01*
X72385Y-73984D02*
X72328Y-74013D01*
X72214Y-74013D01*
X72157Y-73984D01*
X72128Y-73927D01*
X72128Y-73699D01*
X72157Y-73641D01*
X72214Y-73613D01*
X72328Y-73613D01*
X72385Y-73641D01*
X72414Y-73699D01*
X72414Y-73756D01*
X72128Y-73813D01*
X72899Y-73984D02*
X72842Y-74013D01*
X72728Y-74013D01*
X72671Y-73984D01*
X72642Y-73927D01*
X72642Y-73699D01*
X72671Y-73641D01*
X72728Y-73613D01*
X72842Y-73613D01*
X72899Y-73641D01*
X72928Y-73699D01*
X72928Y-73756D01*
X72642Y-73813D01*
X73099Y-73613D02*
X73328Y-73613D01*
X73185Y-73413D02*
X73185Y-73927D01*
X73213Y-73984D01*
X73271Y-74013D01*
X73328Y-74013D01*
X73528Y-73956D02*
X73556Y-73984D01*
X73528Y-74013D01*
X73499Y-73984D01*
X73528Y-73956D01*
X73528Y-74013D01*
X73528Y-73641D02*
X73556Y-73670D01*
X73528Y-73699D01*
X73499Y-73670D01*
X73528Y-73641D01*
X73528Y-73699D01*
X74585Y-74013D02*
X74242Y-74013D01*
X74414Y-74013D02*
X74414Y-73413D01*
X74357Y-73499D01*
X74299Y-73556D01*
X74242Y-73584D01*
X75270Y-73384D02*
X74756Y-74156D01*
X75785Y-74013D02*
X75442Y-74013D01*
X75614Y-74013D02*
X75614Y-73413D01*
X75557Y-73499D01*
X75499Y-73556D01*
X75442Y-73584D01*
X71043Y-70413D02*
X71043Y-69813D01*
X71243Y-70241D01*
X71443Y-69813D01*
X71443Y-70413D01*
X71729Y-70413D02*
X71729Y-70013D01*
X71729Y-69813D02*
X71700Y-69841D01*
X71729Y-69870D01*
X71757Y-69841D01*
X71729Y-69813D01*
X71729Y-69870D01*
X72272Y-70384D02*
X72215Y-70413D01*
X72101Y-70413D01*
X72043Y-70384D01*
X72015Y-70356D01*
X71986Y-70299D01*
X71986Y-70127D01*
X72015Y-70070D01*
X72043Y-70041D01*
X72101Y-70013D01*
X72215Y-70013D01*
X72272Y-70041D01*
X72529Y-70413D02*
X72529Y-69813D01*
X72786Y-70413D02*
X72786Y-70099D01*
X72757Y-70041D01*
X72700Y-70013D01*
X72615Y-70013D01*
X72557Y-70041D01*
X72529Y-70070D01*
X73329Y-70413D02*
X73329Y-70099D01*
X73300Y-70041D01*
X73243Y-70013D01*
X73129Y-70013D01*
X73072Y-70041D01*
X73329Y-70384D02*
X73272Y-70413D01*
X73129Y-70413D01*
X73072Y-70384D01*
X73043Y-70327D01*
X73043Y-70270D01*
X73072Y-70213D01*
X73129Y-70184D01*
X73272Y-70184D01*
X73329Y-70156D01*
X73843Y-70384D02*
X73786Y-70413D01*
X73672Y-70413D01*
X73615Y-70384D01*
X73586Y-70327D01*
X73586Y-70099D01*
X73615Y-70041D01*
X73672Y-70013D01*
X73786Y-70013D01*
X73843Y-70041D01*
X73872Y-70099D01*
X73872Y-70156D01*
X73586Y-70213D01*
X74215Y-70413D02*
X74157Y-70384D01*
X74129Y-70327D01*
X74129Y-69813D01*
X74900Y-70413D02*
X74900Y-69813D01*
X75100Y-70241D01*
X75300Y-69813D01*
X75300Y-70413D01*
X75843Y-70413D02*
X75843Y-70099D01*
X75814Y-70041D01*
X75757Y-70013D01*
X75643Y-70013D01*
X75586Y-70041D01*
X75843Y-70384D02*
X75786Y-70413D01*
X75643Y-70413D01*
X75586Y-70384D01*
X75557Y-70327D01*
X75557Y-70270D01*
X75586Y-70213D01*
X75643Y-70184D01*
X75786Y-70184D01*
X75843Y-70156D01*
X76386Y-70013D02*
X76386Y-70499D01*
X76357Y-70556D01*
X76329Y-70584D01*
X76272Y-70613D01*
X76186Y-70613D01*
X76129Y-70584D01*
X76386Y-70384D02*
X76329Y-70413D01*
X76215Y-70413D01*
X76157Y-70384D01*
X76129Y-70356D01*
X76100Y-70299D01*
X76100Y-70127D01*
X76129Y-70070D01*
X76157Y-70041D01*
X76215Y-70013D01*
X76329Y-70013D01*
X76386Y-70041D01*
X76615Y-70013D02*
X76758Y-70413D01*
X76900Y-70013D02*
X76758Y-70413D01*
X76700Y-70556D01*
X76672Y-70584D01*
X76615Y-70613D01*
X77386Y-70413D02*
X77386Y-70099D01*
X77357Y-70041D01*
X77300Y-70013D01*
X77186Y-70013D01*
X77129Y-70041D01*
X77386Y-70384D02*
X77329Y-70413D01*
X77186Y-70413D01*
X77129Y-70384D01*
X77100Y-70327D01*
X77100Y-70270D01*
X77129Y-70213D01*
X77186Y-70184D01*
X77329Y-70184D01*
X77386Y-70156D01*
X77672Y-70413D02*
X77672Y-70013D01*
X77672Y-70127D02*
X77700Y-70070D01*
X77729Y-70041D01*
X77786Y-70013D01*
X77843Y-70013D01*
X70300Y-69570D02*
X70300Y-77970D01*
X70300Y-71970D02*
X112300Y-71970D01*
X70300Y-69570D02*
X112300Y-69570D01*
X70300Y-74370D02*
X112300Y-74370D01*
X103500Y-75570D02*
X103500Y-77970D01*
X70300Y-76770D02*
X112300Y-76770D01*
X70300Y-75570D02*
X112300Y-75570D01*
X76900Y-75570D02*
X76900Y-76770D01*
G54D11*
X79910Y-71198D02*
X79910Y-70398D01*
X80196Y-70664D02*
X80196Y-71198D01*
X80196Y-70741D02*
X80224Y-70703D01*
X80282Y-70664D01*
X80367Y-70664D01*
X80424Y-70703D01*
X80453Y-70779D01*
X80453Y-71198D01*
X80739Y-70664D02*
X80739Y-71198D01*
X80739Y-70741D02*
X80767Y-70703D01*
X80825Y-70664D01*
X80910Y-70664D01*
X80967Y-70703D01*
X80996Y-70779D01*
X80996Y-71198D01*
X81510Y-71160D02*
X81453Y-71198D01*
X81339Y-71198D01*
X81282Y-71160D01*
X81253Y-71084D01*
X81253Y-70779D01*
X81282Y-70703D01*
X81339Y-70664D01*
X81453Y-70664D01*
X81510Y-70703D01*
X81539Y-70779D01*
X81539Y-70855D01*
X81253Y-70931D01*
X81796Y-71198D02*
X81796Y-70664D01*
X81796Y-70817D02*
X81824Y-70741D01*
X81853Y-70703D01*
X81910Y-70664D01*
X81967Y-70664D01*
X82595Y-70474D02*
X82624Y-70436D01*
X82681Y-70398D01*
X82824Y-70398D01*
X82881Y-70436D01*
X82910Y-70474D01*
X82938Y-70550D01*
X82938Y-70626D01*
X82910Y-70741D01*
X82567Y-71198D01*
X82938Y-71198D01*
G54D12*
X45850Y-38992D03*
X45850Y-37992D03*
X45850Y-36992D03*
X45850Y-33992D03*
X45850Y-34992D03*
X45850Y-35992D03*
G54D13*
X72736Y-29504D03*
G54D14*
X75098Y-29504D03*
G54D12*
X51949Y-32949D03*
X52956Y-32949D03*
X51949Y-31949D03*
X52956Y-31949D03*
X52956Y-35949D03*
X51949Y-35949D03*
X52956Y-36949D03*
X51949Y-36949D03*
X52956Y-33949D03*
X51949Y-33949D03*
X52956Y-34949D03*
X51949Y-34949D03*
X51949Y-38949D03*
X52956Y-38949D03*
X51949Y-37949D03*
X52956Y-37949D03*
X51949Y-40949D03*
X52956Y-40949D03*
X51949Y-39949D03*
X52956Y-39949D03*
X55610Y-29925D03*
X54610Y-29925D03*
X53610Y-29925D03*
X50610Y-29925D03*
X51610Y-29925D03*
X52610Y-29925D03*
G54D15*
X46447Y-27947D03*
X72447Y-26697D03*
X72447Y-45697D03*
X46447Y-44447D03*
G54D12*
X70447Y-26197D03*
X70447Y-27197D03*
X69447Y-26197D03*
X69447Y-27197D03*
X68447Y-26197D03*
X68447Y-27197D03*
X67447Y-26197D03*
X67447Y-27197D03*
X66447Y-26197D03*
X66447Y-27197D03*
X65447Y-26197D03*
X65447Y-27197D03*
X64447Y-26197D03*
X64447Y-27197D03*
X63447Y-26197D03*
X63447Y-27197D03*
X62447Y-26197D03*
X62447Y-27197D03*
X61447Y-26197D03*
X61447Y-27197D03*
X60447Y-26197D03*
X60447Y-27197D03*
X59447Y-26197D03*
X59447Y-27197D03*
X58447Y-26197D03*
X58447Y-27197D03*
X57447Y-26197D03*
X57447Y-27197D03*
X56447Y-26197D03*
X56447Y-27197D03*
X55447Y-26197D03*
X55447Y-27197D03*
X54447Y-26197D03*
X54447Y-27197D03*
X53447Y-26197D03*
X53447Y-27197D03*
X52447Y-26197D03*
X52447Y-27197D03*
X51447Y-26197D03*
X51447Y-27197D03*
X50447Y-26197D03*
X50447Y-27197D03*
X49447Y-26197D03*
X49447Y-27197D03*
X48447Y-26197D03*
X48447Y-27197D03*
X70447Y-45197D03*
X70447Y-46197D03*
X69447Y-45197D03*
X69447Y-46197D03*
X68447Y-45197D03*
X68447Y-46197D03*
X67447Y-45197D03*
X67447Y-46197D03*
X66447Y-45197D03*
X66447Y-46197D03*
X65447Y-45197D03*
X65447Y-46197D03*
X64447Y-45197D03*
X64447Y-46197D03*
X63447Y-45197D03*
X63447Y-46197D03*
X62447Y-45197D03*
X62447Y-46197D03*
X61447Y-45197D03*
X61447Y-46197D03*
X60447Y-45197D03*
X60447Y-46197D03*
X59447Y-45197D03*
X59447Y-46197D03*
X58447Y-45197D03*
X58447Y-46197D03*
X57447Y-45197D03*
X57447Y-46197D03*
X56447Y-45197D03*
X56447Y-46197D03*
X55447Y-45197D03*
X55447Y-46197D03*
X54447Y-45197D03*
X54447Y-46197D03*
X53447Y-45197D03*
X53447Y-46197D03*
X52447Y-45197D03*
X52447Y-46197D03*
X51447Y-45197D03*
X51447Y-46197D03*
X50447Y-45197D03*
X50447Y-46197D03*
X49447Y-45197D03*
X49447Y-46197D03*
X48447Y-45197D03*
X48447Y-46197D03*
X75447Y-31947D03*
X75447Y-32947D03*
X74447Y-31947D03*
X74447Y-32947D03*
X73447Y-31947D03*
X73447Y-32947D03*
X72447Y-31947D03*
X72447Y-32947D03*
X71447Y-31947D03*
X71447Y-32947D03*
X48059Y-32949D03*
X49066Y-32949D03*
X48059Y-31949D03*
X49066Y-31949D03*
X49066Y-35949D03*
X48059Y-35949D03*
X49066Y-36949D03*
X48059Y-36949D03*
X49066Y-33949D03*
X48059Y-33949D03*
X49066Y-34949D03*
X48059Y-34949D03*
X48059Y-38949D03*
X49066Y-38949D03*
X48059Y-37949D03*
X49066Y-37949D03*
X48059Y-40949D03*
X49066Y-40949D03*
X48059Y-39949D03*
X49066Y-39949D03*
G54D16*
X55122Y-44465D03*
X55134Y-44626D03*
X55465Y-44614D03*
X69504Y-41756D03*
X55465Y-44453D03*
X54795Y-44634D03*
X69528Y-42909D03*
X69334Y-41756D03*
X54795Y-44461D03*
X69346Y-42913D03*
X69331Y-42209D03*
X69508Y-42201D03*
X66268Y-39339D03*
G54D17*
X64945Y-38055D03*
X65016Y-37181D03*
G54D16*
X64646Y-29146D03*
X67717Y-36339D03*
X68063Y-35929D03*
X68118Y-36169D03*
G54D17*
X64984Y-37669D03*
G54D16*
X65126Y-29295D03*
X66264Y-31835D03*
G54D17*
X65024Y-36563D03*
G54D16*
X65882Y-33504D03*
X66067Y-34571D03*
G54D17*
X65028Y-36902D03*
X61455Y-36845D03*
X62140Y-37734D03*
X62248Y-36839D03*
X61451Y-37636D03*
X62254Y-37620D03*
X61363Y-36937D03*
X62154Y-36933D03*
G54D16*
X65398Y-35417D03*
G54D17*
X61398Y-39240D03*
X61811Y-34516D03*
X63654Y-34524D03*
G54D16*
X65248Y-35583D03*
X56642Y-33697D03*
G54D17*
X64559Y-38862D03*
X62984Y-37291D03*
X64236Y-33594D03*
X62181Y-35323D03*
X63760Y-38063D03*
X62197Y-36102D03*
X60622Y-37673D03*
X64543Y-35323D03*
X59925Y-34551D03*
G54D16*
X62094Y-29244D03*
G54D17*
X61039Y-35343D03*
G54D16*
X65122Y-33689D03*
G54D17*
X64543Y-37642D03*
G54D16*
X65591Y-39335D03*
G54D17*
X63366Y-38465D03*
X60610Y-38846D03*
G54D16*
X65575Y-39988D03*
X65594Y-37496D03*
X61126Y-33622D03*
X62594Y-33583D03*
G54D17*
X63756Y-40035D03*
X63406Y-36874D03*
X61791Y-39256D03*
X61429Y-38453D03*
X61819Y-39673D03*
X64948Y-35662D03*
X63740Y-35724D03*
X61016Y-36492D03*
G54D16*
X61654Y-30173D03*
G54D17*
X59854Y-39689D03*
X59854Y-37992D03*
G54D16*
X56776Y-42520D03*
X58406Y-40465D03*
X58461Y-39539D03*
X56634Y-44146D03*
G54D17*
X59055Y-39146D03*
G54D16*
X58437Y-39854D03*
G54D17*
X59839Y-36921D03*
X59047Y-35516D03*
X59055Y-37165D03*
X59882Y-38795D03*
X58240Y-38913D03*
X59772Y-38528D03*
X58287Y-38520D03*
X60602Y-38091D03*
X60260Y-38433D03*
X60236Y-37665D03*
X60197Y-38102D03*
X59819Y-37689D03*
X60638Y-36909D03*
X59858Y-37268D03*
X60264Y-36535D03*
G54D16*
X57567Y-36677D03*
G54D17*
X60272Y-36150D03*
X60610Y-36488D03*
X58287Y-36055D03*
X58252Y-36295D03*
X59787Y-36051D03*
X59835Y-35850D03*
G54D16*
X63602Y-27984D03*
X62661Y-28012D03*
X65449Y-34016D03*
G54D17*
X62217Y-34949D03*
G54D16*
X65098Y-33031D03*
G54D17*
X63425Y-33760D03*
X63370Y-37307D03*
G54D16*
X67323Y-41370D03*
G54D17*
X61800Y-38075D03*
X63752Y-39264D03*
G54D16*
X64476Y-29331D03*
X56024Y-43606D03*
G54D17*
X59831Y-39224D03*
G54D16*
X65665Y-34740D03*
G54D17*
X59047Y-36291D03*
X62949Y-39776D03*
X62594Y-34543D03*
X61413Y-35724D03*
X61390Y-37303D03*
X62571Y-36909D03*
X61331Y-34492D03*
G54D16*
X69047Y-38165D03*
G54D17*
X64539Y-38091D03*
X59075Y-38008D03*
G54D16*
X69079Y-36134D03*
G54D17*
X61835Y-38858D03*
G54D16*
X69071Y-37157D03*
G54D17*
X60228Y-37272D03*
X63776Y-35311D03*
G54D16*
X55921Y-42787D03*
G54D17*
X61799Y-37287D03*
G54D16*
X73669Y-41972D03*
G54D17*
X58661Y-34331D03*
G54D16*
X73681Y-43331D03*
X61752Y-33646D03*
G54D17*
X65020Y-39433D03*
G54D16*
X65598Y-29134D03*
G54D17*
X61024Y-39650D03*
X64949Y-34315D03*
X60232Y-35480D03*
G54D16*
X55768Y-43878D03*
X54398Y-42862D03*
X55398Y-41614D03*
X66386Y-38736D03*
X68043Y-40008D03*
X71374Y-29445D03*
G54D17*
X64984Y-38441D03*
G54D16*
X61024Y-29969D03*
X62744Y-29941D03*
X57555Y-40228D03*
G54D17*
X63370Y-37669D03*
G54D16*
X56394Y-44157D03*
G54D17*
X64177Y-36567D03*
X65059Y-37866D03*
X64980Y-40118D03*
G54D16*
X65445Y-34575D03*
X68776Y-42551D03*
G54D17*
X64972Y-39638D03*
G54D16*
X68650Y-42012D03*
G54D17*
X64969Y-39051D03*
G54D16*
X55819Y-41417D03*
X56559Y-42181D03*
X65579Y-43575D03*
X67181Y-42169D03*
X67961Y-28610D03*
X69819Y-29744D03*
G54D17*
X61772Y-35012D03*
X60630Y-35327D03*
X60606Y-35724D03*
X60232Y-35630D03*
X60256Y-35760D03*
G54D16*
X57252Y-30598D03*
X57559Y-30587D03*
X57874Y-30598D03*
X58189Y-30591D03*
X58504Y-30598D03*
X58819Y-30618D03*
G54D17*
X61008Y-35720D03*
G54D16*
X59134Y-30638D03*
X59445Y-30626D03*
G54D17*
X61409Y-35031D03*
X61421Y-35346D03*
X61811Y-35350D03*
G54D16*
X60079Y-30646D03*
X59768Y-30626D03*
X64661Y-32406D03*
G54D17*
X63339Y-35346D03*
X62961Y-35362D03*
G54D16*
X62531Y-33134D03*
X62776Y-33331D03*
X62126Y-33406D03*
G54D17*
X61618Y-31921D03*
X61425Y-31815D03*
G54D16*
X60965Y-30673D03*
X61976Y-31283D03*
X62606Y-31563D03*
X63319Y-31673D03*
X63965Y-31992D03*
X63980Y-31535D03*
X64177Y-31480D03*
X64807Y-31421D03*
X61165Y-33272D03*
X60394Y-30646D03*
G54D17*
X62220Y-34598D03*
G54D16*
X63055Y-30866D03*
X62579Y-30728D03*
G54D18*
X69331Y-42209D02*
X69335Y-42213D01*
G54D19*
X55122Y-44535D02*
X54870Y-44535D01*
X69402Y-43125D02*
X67992Y-44535D01*
G54D18*
X54869Y-44535D02*
X54795Y-44461D01*
G54D19*
X69402Y-41858D02*
X69402Y-42220D01*
G54D18*
X55122Y-44465D02*
X55122Y-44535D01*
G54D19*
X55665Y-44535D02*
X55287Y-44535D01*
G54D18*
X69402Y-42220D02*
X69402Y-42201D01*
X69351Y-42898D02*
X69402Y-42898D01*
G54D20*
X71870Y-29504D02*
X69402Y-31972D01*
G54D18*
X54795Y-44634D02*
X54799Y-44630D01*
X55469Y-44535D02*
X55437Y-44567D01*
G54D19*
X69402Y-42220D02*
X69402Y-42898D01*
G54D18*
X55606Y-44535D02*
X55665Y-44594D01*
X69508Y-42201D02*
X69402Y-42201D01*
G54D19*
X54870Y-44535D02*
X54799Y-44535D01*
X69402Y-31972D02*
X69402Y-41858D01*
G54D18*
X69465Y-41717D02*
X69402Y-41717D01*
X69504Y-41756D02*
X69465Y-41717D01*
X69402Y-41717D02*
X69402Y-41756D01*
X55665Y-44594D02*
X55665Y-44535D01*
X69402Y-42843D02*
X69402Y-42898D01*
G54D19*
X71870Y-29504D02*
X72736Y-29504D01*
G54D18*
X69335Y-42213D02*
X69402Y-42213D01*
G54D19*
X71870Y-29504D02*
X69402Y-31972D01*
G54D18*
X69402Y-41756D02*
X69402Y-41792D01*
X69402Y-42201D02*
X69402Y-42201D01*
X69334Y-41756D02*
X69402Y-41756D01*
X55287Y-44567D02*
X55287Y-44535D01*
G54D19*
X55469Y-44535D02*
X55122Y-44535D01*
X67992Y-44535D02*
X55665Y-44535D01*
G54D18*
X69442Y-42843D02*
X69402Y-42843D01*
X69346Y-42913D02*
X69351Y-42898D01*
X55225Y-44535D02*
X55469Y-44535D01*
X55544Y-44535D02*
X55606Y-44535D01*
X55469Y-44535D02*
X55465Y-44531D01*
X55134Y-44626D02*
X55225Y-44535D01*
X69402Y-42213D02*
X69402Y-42201D01*
X55437Y-44567D02*
X55287Y-44567D01*
X69402Y-42898D02*
X69402Y-42898D01*
X55465Y-44614D02*
X55544Y-44535D01*
G54D19*
X54799Y-44535D02*
X54799Y-44535D01*
G54D18*
X54799Y-44630D02*
X54799Y-44535D01*
X69402Y-41792D02*
X69402Y-41792D01*
G54D19*
X55287Y-44535D02*
X55469Y-44535D01*
X69402Y-42898D02*
X69402Y-43125D01*
G54D18*
X69402Y-41792D02*
X69402Y-41858D01*
X69402Y-42220D02*
X69402Y-42220D01*
X54870Y-44535D02*
X54869Y-44535D01*
X55465Y-44531D02*
X55465Y-44453D01*
X69528Y-42909D02*
X69442Y-42843D01*
G54D21*
X66261Y-39346D02*
X66268Y-39339D01*
X64945Y-38055D02*
X66236Y-39346D01*
X66236Y-39346D02*
X66261Y-39346D01*
G54D20*
X66385Y-32200D02*
X66385Y-35389D01*
X65850Y-29803D02*
X65850Y-31665D01*
X65850Y-31665D02*
X66385Y-32200D01*
X66925Y-35929D02*
X68063Y-35929D01*
X66385Y-35389D02*
X66925Y-35929D01*
X64646Y-29146D02*
X65193Y-29146D01*
X65193Y-29146D02*
X65850Y-29803D01*
X66812Y-37181D02*
X65016Y-37181D01*
X67717Y-36339D02*
X66812Y-37181D01*
X67996Y-36213D02*
X68036Y-36173D01*
X68036Y-36173D02*
X68083Y-36173D01*
X66260Y-32248D02*
X66260Y-35513D01*
X66811Y-37677D02*
X64992Y-37677D01*
X66260Y-35513D02*
X66920Y-36173D01*
X68114Y-36173D02*
X68118Y-36169D01*
X68083Y-36173D02*
X68114Y-36173D01*
X67996Y-36492D02*
X66811Y-37677D01*
X67996Y-36492D02*
X67996Y-36213D01*
X66920Y-36173D02*
X68036Y-36173D01*
X65669Y-29976D02*
X65669Y-31657D01*
X65669Y-31657D02*
X66260Y-32248D01*
X65126Y-29295D02*
X65669Y-29976D01*
X64992Y-37677D02*
X64984Y-37669D01*
X65756Y-26709D02*
X66024Y-26977D01*
X66024Y-31595D02*
X66264Y-31835D01*
X66024Y-26977D02*
X66024Y-31595D01*
X63447Y-26197D02*
X63959Y-26709D01*
X63959Y-26709D02*
X65756Y-26709D01*
X65145Y-36563D02*
X65437Y-36563D01*
X65024Y-36563D02*
X65145Y-36563D01*
X65858Y-36142D02*
X65882Y-36118D01*
X65437Y-36563D02*
X65858Y-36142D01*
X65882Y-36118D02*
X65882Y-33504D01*
X65445Y-36902D02*
X66016Y-36331D01*
X66016Y-36331D02*
X66067Y-34571D01*
X65028Y-36902D02*
X65445Y-36902D01*
G54D21*
X65406Y-35409D02*
X65406Y-35406D01*
X65122Y-33689D02*
X65122Y-33744D01*
X64948Y-35662D02*
X64949Y-35661D01*
X65398Y-35417D02*
X65406Y-35409D01*
X65575Y-39988D02*
X65571Y-39988D01*
X65122Y-33744D02*
X65138Y-33760D01*
X58461Y-39539D02*
X58457Y-39539D01*
X58437Y-39854D02*
X58441Y-39854D01*
G54D18*
X56634Y-44146D02*
X56634Y-42662D01*
X56634Y-42662D02*
X56776Y-42520D01*
G54D20*
X58240Y-38913D02*
X55630Y-38913D01*
X49409Y-41295D02*
X49066Y-40949D01*
X53248Y-41295D02*
X49409Y-41295D01*
X55630Y-38913D02*
X53248Y-41295D01*
X55590Y-38520D02*
X53811Y-40299D01*
X58287Y-38520D02*
X55590Y-38520D01*
X49413Y-40299D02*
X49066Y-39949D01*
X53811Y-40299D02*
X49413Y-40299D01*
X49519Y-33406D02*
X49066Y-32949D01*
X58252Y-36295D02*
X57645Y-36295D01*
X54756Y-33406D02*
X49519Y-33406D01*
X57645Y-36295D02*
X54756Y-33406D01*
X63447Y-27197D02*
X63447Y-31207D01*
X65453Y-34016D02*
X65449Y-34016D01*
X64429Y-32189D02*
X64670Y-32189D01*
X63447Y-31207D02*
X64429Y-32189D01*
X65453Y-32972D02*
X65453Y-34016D01*
X64670Y-32189D02*
X65453Y-32972D01*
X63843Y-33031D02*
X63425Y-33449D01*
X63425Y-33449D02*
X63425Y-33760D01*
X65098Y-33031D02*
X63843Y-33031D01*
X63866Y-30921D02*
X63866Y-28778D01*
X63866Y-28778D02*
X65447Y-27197D01*
X63866Y-30921D02*
X65669Y-32724D01*
X65669Y-34351D02*
X65445Y-34575D01*
X65669Y-32724D02*
X65669Y-34351D01*
X64972Y-39638D02*
X67208Y-41874D01*
X68099Y-41874D02*
X68776Y-42551D01*
X67208Y-41874D02*
X68099Y-41874D01*
X65599Y-39681D02*
X66319Y-39681D01*
X66319Y-39681D02*
X68650Y-42012D01*
X64969Y-39051D02*
X65599Y-39681D01*
G54D18*
X55819Y-41417D02*
X56559Y-42157D01*
X56559Y-42157D02*
X56559Y-42181D01*
X65579Y-43575D02*
X66985Y-42169D01*
X66985Y-42169D02*
X67181Y-42169D01*
X67961Y-28610D02*
X69095Y-29744D01*
X69095Y-29744D02*
X69819Y-29744D01*
G54D20*
X62953Y-26798D02*
X62447Y-26197D01*
X63055Y-30866D02*
X62953Y-26798D01*
X62447Y-30596D02*
X62447Y-27197D01*
X62579Y-30728D02*
X62447Y-30596D01*
G54D10*
G36*
X60229Y-37918D02*
X60160Y-37918D01*
X60092Y-37946D01*
X60042Y-37996D01*
X60042Y-37304D01*
X60042Y-37231D01*
X60019Y-37175D01*
X60019Y-35886D01*
X60019Y-35813D01*
X59991Y-35745D01*
X59939Y-35694D01*
X59871Y-35666D01*
X59798Y-35666D01*
X59730Y-35694D01*
X59679Y-35746D01*
X59651Y-35814D01*
X59651Y-35887D01*
X59662Y-35914D01*
X59631Y-35947D01*
X59603Y-36015D01*
X59603Y-36088D01*
X59631Y-36156D01*
X59683Y-36207D01*
X59751Y-36235D01*
X59824Y-36235D01*
X59892Y-36207D01*
X59943Y-36155D01*
X59971Y-36087D01*
X59971Y-36014D01*
X59959Y-35986D01*
X59991Y-35954D01*
X60019Y-35886D01*
X60019Y-37175D01*
X60014Y-37163D01*
X59962Y-37112D01*
X59894Y-37084D01*
X59821Y-37084D01*
X59753Y-37112D01*
X59702Y-37164D01*
X59674Y-37232D01*
X59674Y-37305D01*
X59702Y-37373D01*
X59754Y-37424D01*
X59822Y-37452D01*
X59895Y-37452D01*
X59963Y-37424D01*
X60014Y-37372D01*
X60042Y-37304D01*
X60042Y-37996D01*
X60041Y-37998D01*
X60013Y-38066D01*
X60013Y-38139D01*
X60041Y-38207D01*
X60093Y-38258D01*
X60139Y-38277D01*
X60109Y-38323D01*
X60104Y-38329D01*
X60101Y-38335D01*
X60003Y-38483D01*
X60003Y-37725D01*
X60003Y-37652D01*
X59975Y-37584D01*
X59923Y-37533D01*
X59855Y-37505D01*
X59782Y-37505D01*
X59714Y-37533D01*
X59663Y-37585D01*
X59635Y-37653D01*
X59635Y-37726D01*
X59663Y-37794D01*
X59715Y-37845D01*
X59783Y-37873D01*
X59856Y-37873D01*
X59924Y-37845D01*
X59975Y-37793D01*
X60003Y-37725D01*
X60003Y-38483D01*
X59956Y-38555D01*
X59956Y-38491D01*
X59928Y-38423D01*
X59876Y-38372D01*
X59808Y-38344D01*
X59735Y-38344D01*
X59667Y-38372D01*
X59616Y-38424D01*
X59588Y-38492D01*
X59588Y-38565D01*
X59616Y-38633D01*
X59668Y-38684D01*
X59720Y-38705D01*
X59698Y-38759D01*
X59698Y-38832D01*
X59726Y-38900D01*
X59727Y-38901D01*
X59354Y-39468D01*
X59454Y-40685D01*
X59259Y-40695D01*
X59259Y-38044D01*
X59259Y-37971D01*
X59231Y-37903D01*
X59231Y-36327D01*
X59231Y-36254D01*
X59203Y-36186D01*
X59151Y-36135D01*
X59083Y-36107D01*
X59010Y-36107D01*
X58942Y-36135D01*
X58891Y-36187D01*
X58863Y-36255D01*
X58863Y-36328D01*
X58891Y-36396D01*
X58943Y-36447D01*
X59011Y-36475D01*
X59084Y-36475D01*
X59152Y-36447D01*
X59203Y-36395D01*
X59231Y-36327D01*
X59231Y-37903D01*
X59179Y-37852D01*
X59111Y-37824D01*
X59038Y-37824D01*
X58970Y-37852D01*
X58919Y-37904D01*
X58891Y-37972D01*
X58891Y-38045D01*
X58919Y-38113D01*
X58971Y-38164D01*
X59039Y-38192D01*
X59112Y-38192D01*
X59180Y-38164D01*
X59231Y-38112D01*
X59259Y-38044D01*
X59259Y-40695D01*
X58483Y-40736D01*
X58483Y-38520D01*
X58471Y-38460D01*
X58471Y-36091D01*
X58471Y-36018D01*
X58443Y-35950D01*
X58391Y-35899D01*
X58323Y-35871D01*
X58250Y-35871D01*
X58182Y-35899D01*
X58131Y-35951D01*
X58103Y-36019D01*
X58103Y-36092D01*
X58105Y-36099D01*
X57726Y-36099D01*
X54895Y-33267D01*
X54831Y-33225D01*
X54756Y-33209D01*
X54751Y-33210D01*
X53298Y-33210D01*
X53317Y-33192D01*
X53383Y-33035D01*
X53383Y-32865D01*
X53383Y-32035D01*
X53383Y-31865D01*
X53318Y-31708D01*
X53199Y-31588D01*
X53042Y-31522D01*
X52872Y-31522D01*
X52715Y-31587D01*
X52595Y-31706D01*
X52529Y-31863D01*
X52529Y-32033D01*
X52594Y-32190D01*
X52713Y-32310D01*
X52870Y-32376D01*
X53040Y-32376D01*
X53197Y-32311D01*
X53317Y-32192D01*
X53383Y-32035D01*
X53383Y-32865D01*
X53318Y-32708D01*
X53199Y-32588D01*
X53042Y-32522D01*
X52872Y-32522D01*
X52715Y-32587D01*
X52595Y-32706D01*
X52529Y-32863D01*
X52529Y-33033D01*
X52594Y-33190D01*
X52613Y-33210D01*
X52291Y-33210D01*
X52310Y-33192D01*
X52376Y-33035D01*
X52376Y-32865D01*
X52376Y-32035D01*
X52376Y-31865D01*
X52311Y-31708D01*
X52192Y-31588D01*
X52035Y-31522D01*
X51865Y-31522D01*
X51708Y-31587D01*
X51588Y-31706D01*
X51522Y-31863D01*
X51522Y-32033D01*
X51587Y-32190D01*
X51706Y-32310D01*
X51863Y-32376D01*
X52033Y-32376D01*
X52190Y-32311D01*
X52310Y-32192D01*
X52376Y-32035D01*
X52376Y-32865D01*
X52311Y-32708D01*
X52192Y-32588D01*
X52035Y-32522D01*
X51865Y-32522D01*
X51708Y-32587D01*
X51588Y-32706D01*
X51522Y-32863D01*
X51522Y-33033D01*
X51587Y-33190D01*
X51606Y-33210D01*
X49600Y-33210D01*
X49473Y-33081D01*
X49493Y-33035D01*
X49493Y-32865D01*
X49493Y-32035D01*
X49493Y-31865D01*
X49428Y-31708D01*
X49309Y-31588D01*
X49152Y-31522D01*
X48982Y-31522D01*
X48825Y-31587D01*
X48705Y-31706D01*
X48639Y-31863D01*
X48639Y-32033D01*
X48704Y-32190D01*
X48823Y-32310D01*
X48980Y-32376D01*
X49150Y-32376D01*
X49307Y-32311D01*
X49427Y-32192D01*
X49493Y-32035D01*
X49493Y-32865D01*
X49428Y-32708D01*
X49309Y-32588D01*
X49152Y-32522D01*
X48982Y-32522D01*
X48825Y-32587D01*
X48705Y-32706D01*
X48639Y-32863D01*
X48639Y-33033D01*
X48704Y-33190D01*
X48823Y-33310D01*
X48980Y-33376D01*
X49150Y-33376D01*
X49194Y-33357D01*
X49379Y-33544D01*
X49380Y-33545D01*
X49392Y-33552D01*
X49442Y-33587D01*
X49444Y-33587D01*
X49517Y-33603D01*
X49519Y-33602D01*
X49521Y-33602D01*
X51692Y-33602D01*
X51588Y-33706D01*
X51522Y-33863D01*
X51522Y-34033D01*
X51587Y-34190D01*
X51706Y-34310D01*
X51863Y-34376D01*
X52033Y-34376D01*
X52190Y-34311D01*
X52310Y-34192D01*
X52376Y-34035D01*
X52376Y-33865D01*
X52311Y-33708D01*
X52205Y-33602D01*
X52699Y-33602D01*
X52595Y-33706D01*
X52529Y-33863D01*
X52529Y-34033D01*
X52594Y-34190D01*
X52713Y-34310D01*
X52870Y-34376D01*
X53040Y-34376D01*
X53197Y-34311D01*
X53317Y-34192D01*
X53383Y-34035D01*
X53383Y-33865D01*
X53318Y-33708D01*
X53212Y-33602D01*
X54674Y-33602D01*
X57504Y-36431D01*
X57506Y-36434D01*
X57508Y-36435D01*
X57428Y-36469D01*
X57359Y-36538D01*
X57322Y-36629D01*
X57322Y-36726D01*
X57359Y-36816D01*
X57428Y-36885D01*
X57519Y-36922D01*
X57616Y-36922D01*
X57706Y-36885D01*
X57775Y-36816D01*
X57812Y-36725D01*
X57812Y-36628D01*
X57775Y-36538D01*
X57728Y-36491D01*
X58252Y-36491D01*
X58327Y-36476D01*
X58391Y-36434D01*
X58433Y-36370D01*
X58448Y-36295D01*
X58433Y-36220D01*
X58413Y-36189D01*
X58443Y-36159D01*
X58471Y-36091D01*
X58471Y-38460D01*
X58468Y-38445D01*
X58426Y-38381D01*
X58362Y-38339D01*
X58287Y-38324D01*
X55590Y-38324D01*
X55589Y-38324D01*
X55574Y-38327D01*
X55515Y-38339D01*
X55451Y-38381D01*
X55449Y-38383D01*
X53729Y-40103D01*
X53354Y-40103D01*
X53383Y-40035D01*
X53383Y-39865D01*
X53383Y-39035D01*
X53383Y-38865D01*
X53383Y-38035D01*
X53383Y-37865D01*
X53383Y-37035D01*
X53383Y-36865D01*
X53383Y-36035D01*
X53383Y-35865D01*
X53383Y-35035D01*
X53383Y-34865D01*
X53318Y-34708D01*
X53199Y-34588D01*
X53042Y-34522D01*
X52872Y-34522D01*
X52715Y-34587D01*
X52595Y-34706D01*
X52529Y-34863D01*
X52529Y-35033D01*
X52594Y-35190D01*
X52713Y-35310D01*
X52870Y-35376D01*
X53040Y-35376D01*
X53197Y-35311D01*
X53317Y-35192D01*
X53383Y-35035D01*
X53383Y-35865D01*
X53318Y-35708D01*
X53199Y-35588D01*
X53042Y-35522D01*
X52872Y-35522D01*
X52715Y-35587D01*
X52595Y-35706D01*
X52529Y-35863D01*
X52529Y-36033D01*
X52594Y-36190D01*
X52713Y-36310D01*
X52870Y-36376D01*
X53040Y-36376D01*
X53197Y-36311D01*
X53317Y-36192D01*
X53383Y-36035D01*
X53383Y-36865D01*
X53318Y-36708D01*
X53199Y-36588D01*
X53042Y-36522D01*
X52872Y-36522D01*
X52715Y-36587D01*
X52595Y-36706D01*
X52529Y-36863D01*
X52529Y-37033D01*
X52594Y-37190D01*
X52713Y-37310D01*
X52870Y-37376D01*
X53040Y-37376D01*
X53197Y-37311D01*
X53317Y-37192D01*
X53383Y-37035D01*
X53383Y-37865D01*
X53318Y-37708D01*
X53199Y-37588D01*
X53042Y-37522D01*
X52872Y-37522D01*
X52715Y-37587D01*
X52595Y-37706D01*
X52529Y-37863D01*
X52529Y-38033D01*
X52594Y-38190D01*
X52713Y-38310D01*
X52870Y-38376D01*
X53040Y-38376D01*
X53197Y-38311D01*
X53317Y-38192D01*
X53383Y-38035D01*
X53383Y-38865D01*
X53318Y-38708D01*
X53199Y-38588D01*
X53042Y-38522D01*
X52872Y-38522D01*
X52715Y-38587D01*
X52595Y-38706D01*
X52529Y-38863D01*
X52529Y-39033D01*
X52594Y-39190D01*
X52713Y-39310D01*
X52870Y-39376D01*
X53040Y-39376D01*
X53197Y-39311D01*
X53317Y-39192D01*
X53383Y-39035D01*
X53383Y-39865D01*
X53318Y-39708D01*
X53199Y-39588D01*
X53042Y-39522D01*
X52872Y-39522D01*
X52715Y-39587D01*
X52595Y-39706D01*
X52529Y-39863D01*
X52529Y-40033D01*
X52557Y-40103D01*
X52347Y-40103D01*
X52376Y-40035D01*
X52376Y-39865D01*
X52376Y-39035D01*
X52376Y-38865D01*
X52376Y-38035D01*
X52376Y-37865D01*
X52376Y-37035D01*
X52376Y-36865D01*
X52376Y-36035D01*
X52376Y-35865D01*
X52376Y-35035D01*
X52376Y-34865D01*
X52311Y-34708D01*
X52192Y-34588D01*
X52035Y-34522D01*
X51865Y-34522D01*
X51708Y-34587D01*
X51588Y-34706D01*
X51522Y-34863D01*
X51522Y-35033D01*
X51587Y-35190D01*
X51706Y-35310D01*
X51863Y-35376D01*
X52033Y-35376D01*
X52190Y-35311D01*
X52310Y-35192D01*
X52376Y-35035D01*
X52376Y-35865D01*
X52311Y-35708D01*
X52192Y-35588D01*
X52035Y-35522D01*
X51865Y-35522D01*
X51708Y-35587D01*
X51588Y-35706D01*
X51522Y-35863D01*
X51522Y-36033D01*
X51587Y-36190D01*
X51706Y-36310D01*
X51863Y-36376D01*
X52033Y-36376D01*
X52190Y-36311D01*
X52310Y-36192D01*
X52376Y-36035D01*
X52376Y-36865D01*
X52311Y-36708D01*
X52192Y-36588D01*
X52035Y-36522D01*
X51865Y-36522D01*
X51708Y-36587D01*
X51588Y-36706D01*
X51522Y-36863D01*
X51522Y-37033D01*
X51587Y-37190D01*
X51706Y-37310D01*
X51863Y-37376D01*
X52033Y-37376D01*
X52190Y-37311D01*
X52310Y-37192D01*
X52376Y-37035D01*
X52376Y-37865D01*
X52311Y-37708D01*
X52192Y-37588D01*
X52035Y-37522D01*
X51865Y-37522D01*
X51708Y-37587D01*
X51588Y-37706D01*
X51522Y-37863D01*
X51522Y-38033D01*
X51587Y-38190D01*
X51706Y-38310D01*
X51863Y-38376D01*
X52033Y-38376D01*
X52190Y-38311D01*
X52310Y-38192D01*
X52376Y-38035D01*
X52376Y-38865D01*
X52311Y-38708D01*
X52192Y-38588D01*
X52035Y-38522D01*
X51865Y-38522D01*
X51708Y-38587D01*
X51588Y-38706D01*
X51522Y-38863D01*
X51522Y-39033D01*
X51587Y-39190D01*
X51706Y-39310D01*
X51863Y-39376D01*
X52033Y-39376D01*
X52190Y-39311D01*
X52310Y-39192D01*
X52376Y-39035D01*
X52376Y-39865D01*
X52311Y-39708D01*
X52192Y-39588D01*
X52035Y-39522D01*
X51865Y-39522D01*
X51708Y-39587D01*
X51588Y-39706D01*
X51522Y-39863D01*
X51522Y-40033D01*
X51550Y-40103D01*
X49495Y-40103D01*
X49473Y-40081D01*
X49493Y-40035D01*
X49493Y-39865D01*
X49493Y-39035D01*
X49493Y-38865D01*
X49493Y-38035D01*
X49493Y-37865D01*
X49493Y-37035D01*
X49493Y-36865D01*
X49493Y-36035D01*
X49493Y-35865D01*
X49493Y-35035D01*
X49493Y-34865D01*
X49493Y-34035D01*
X49493Y-33865D01*
X49428Y-33708D01*
X49309Y-33588D01*
X49152Y-33522D01*
X48982Y-33522D01*
X48825Y-33587D01*
X48705Y-33706D01*
X48639Y-33863D01*
X48639Y-34033D01*
X48704Y-34190D01*
X48823Y-34310D01*
X48980Y-34376D01*
X49150Y-34376D01*
X49307Y-34311D01*
X49427Y-34192D01*
X49493Y-34035D01*
X49493Y-34865D01*
X49428Y-34708D01*
X49309Y-34588D01*
X49152Y-34522D01*
X48982Y-34522D01*
X48825Y-34587D01*
X48705Y-34706D01*
X48639Y-34863D01*
X48639Y-35033D01*
X48704Y-35190D01*
X48823Y-35310D01*
X48980Y-35376D01*
X49150Y-35376D01*
X49307Y-35311D01*
X49427Y-35192D01*
X49493Y-35035D01*
X49493Y-35865D01*
X49428Y-35708D01*
X49309Y-35588D01*
X49152Y-35522D01*
X48982Y-35522D01*
X48825Y-35587D01*
X48705Y-35706D01*
X48639Y-35863D01*
X48639Y-36033D01*
X48704Y-36190D01*
X48823Y-36310D01*
X48980Y-36376D01*
X49150Y-36376D01*
X49307Y-36311D01*
X49427Y-36192D01*
X49493Y-36035D01*
X49493Y-36865D01*
X49428Y-36708D01*
X49309Y-36588D01*
X49152Y-36522D01*
X48982Y-36522D01*
X48825Y-36587D01*
X48705Y-36706D01*
X48639Y-36863D01*
X48639Y-37033D01*
X48704Y-37190D01*
X48823Y-37310D01*
X48980Y-37376D01*
X49150Y-37376D01*
X49307Y-37311D01*
X49427Y-37192D01*
X49493Y-37035D01*
X49493Y-37865D01*
X49428Y-37708D01*
X49309Y-37588D01*
X49152Y-37522D01*
X48982Y-37522D01*
X48825Y-37587D01*
X48705Y-37706D01*
X48639Y-37863D01*
X48639Y-38033D01*
X48704Y-38190D01*
X48823Y-38310D01*
X48980Y-38376D01*
X49150Y-38376D01*
X49307Y-38311D01*
X49427Y-38192D01*
X49493Y-38035D01*
X49493Y-38865D01*
X49428Y-38708D01*
X49309Y-38588D01*
X49152Y-38522D01*
X48982Y-38522D01*
X48825Y-38587D01*
X48705Y-38706D01*
X48639Y-38863D01*
X48639Y-39033D01*
X48704Y-39190D01*
X48823Y-39310D01*
X48980Y-39376D01*
X49150Y-39376D01*
X49307Y-39311D01*
X49427Y-39192D01*
X49493Y-39035D01*
X49493Y-39865D01*
X49428Y-39708D01*
X49309Y-39588D01*
X49152Y-39522D01*
X48982Y-39522D01*
X48825Y-39587D01*
X48705Y-39706D01*
X48639Y-39863D01*
X48639Y-40033D01*
X48704Y-40190D01*
X48823Y-40310D01*
X48980Y-40376D01*
X49150Y-40376D01*
X49195Y-40357D01*
X49270Y-40432D01*
X49274Y-40438D01*
X49337Y-40479D01*
X49338Y-40480D01*
X49397Y-40491D01*
X49412Y-40495D01*
X49412Y-40494D01*
X49413Y-40495D01*
X53770Y-40495D01*
X53383Y-40882D01*
X53383Y-40865D01*
X53318Y-40708D01*
X53199Y-40588D01*
X53042Y-40522D01*
X52872Y-40522D01*
X52715Y-40587D01*
X52595Y-40706D01*
X52529Y-40863D01*
X52529Y-41033D01*
X52556Y-41099D01*
X52349Y-41099D01*
X52376Y-41035D01*
X52376Y-40865D01*
X52311Y-40708D01*
X52192Y-40588D01*
X52035Y-40522D01*
X51865Y-40522D01*
X51708Y-40587D01*
X51588Y-40706D01*
X51522Y-40863D01*
X51522Y-41033D01*
X51549Y-41099D01*
X49491Y-41099D01*
X49473Y-41081D01*
X49493Y-41035D01*
X49493Y-40865D01*
X49428Y-40708D01*
X49309Y-40588D01*
X49152Y-40522D01*
X48982Y-40522D01*
X48825Y-40587D01*
X48705Y-40706D01*
X48639Y-40863D01*
X48639Y-41033D01*
X48704Y-41190D01*
X48823Y-41310D01*
X48980Y-41376D01*
X49150Y-41376D01*
X49195Y-41357D01*
X49268Y-41431D01*
X49270Y-41434D01*
X49334Y-41476D01*
X49395Y-41488D01*
X49408Y-41491D01*
X49408Y-41490D01*
X49409Y-41491D01*
X53243Y-41491D01*
X53248Y-41492D01*
X53248Y-41491D01*
X53323Y-41476D01*
X53387Y-41434D01*
X55711Y-39109D01*
X58240Y-39109D01*
X58315Y-39094D01*
X58379Y-39052D01*
X58421Y-38988D01*
X58436Y-38913D01*
X58421Y-38838D01*
X58379Y-38774D01*
X58315Y-38732D01*
X58240Y-38717D01*
X55670Y-38717D01*
X55671Y-38716D01*
X58287Y-38716D01*
X58362Y-38701D01*
X58426Y-38659D01*
X58468Y-38595D01*
X58483Y-38520D01*
X58483Y-40736D01*
X58151Y-40754D01*
X58151Y-40755D01*
X57800Y-40717D01*
X57800Y-40276D01*
X57800Y-40179D01*
X57763Y-40089D01*
X57694Y-40020D01*
X57603Y-39983D01*
X57506Y-39983D01*
X57416Y-40020D01*
X57347Y-40089D01*
X57310Y-40180D01*
X57310Y-40277D01*
X57347Y-40367D01*
X57416Y-40436D01*
X57507Y-40473D01*
X57604Y-40473D01*
X57694Y-40436D01*
X57763Y-40367D01*
X57800Y-40276D01*
X57800Y-40717D01*
X55803Y-40507D01*
X54344Y-41706D01*
X48486Y-41733D01*
X48486Y-41035D01*
X48486Y-40865D01*
X48486Y-40035D01*
X48486Y-39865D01*
X48486Y-39035D01*
X48486Y-38865D01*
X48486Y-38035D01*
X48486Y-37865D01*
X48486Y-37035D01*
X48486Y-36865D01*
X48486Y-36035D01*
X48486Y-35865D01*
X48486Y-35035D01*
X48486Y-34865D01*
X48486Y-34035D01*
X48486Y-33865D01*
X48486Y-33035D01*
X48486Y-32865D01*
X48486Y-32035D01*
X48486Y-31865D01*
X48421Y-31708D01*
X48302Y-31588D01*
X48145Y-31522D01*
X47975Y-31522D01*
X47818Y-31587D01*
X47698Y-31706D01*
X47632Y-31863D01*
X47632Y-32033D01*
X47697Y-32190D01*
X47816Y-32310D01*
X47973Y-32376D01*
X48143Y-32376D01*
X48300Y-32311D01*
X48420Y-32192D01*
X48486Y-32035D01*
X48486Y-32865D01*
X48421Y-32708D01*
X48302Y-32588D01*
X48145Y-32522D01*
X47975Y-32522D01*
X47818Y-32587D01*
X47698Y-32706D01*
X47632Y-32863D01*
X47632Y-33033D01*
X47697Y-33190D01*
X47816Y-33310D01*
X47973Y-33376D01*
X48143Y-33376D01*
X48300Y-33311D01*
X48420Y-33192D01*
X48486Y-33035D01*
X48486Y-33865D01*
X48421Y-33708D01*
X48302Y-33588D01*
X48145Y-33522D01*
X47975Y-33522D01*
X47818Y-33587D01*
X47698Y-33706D01*
X47632Y-33863D01*
X47632Y-34033D01*
X47697Y-34190D01*
X47816Y-34310D01*
X47973Y-34376D01*
X48143Y-34376D01*
X48300Y-34311D01*
X48420Y-34192D01*
X48486Y-34035D01*
X48486Y-34865D01*
X48421Y-34708D01*
X48302Y-34588D01*
X48145Y-34522D01*
X47975Y-34522D01*
X47818Y-34587D01*
X47698Y-34706D01*
X47632Y-34863D01*
X47632Y-35033D01*
X47697Y-35190D01*
X47816Y-35310D01*
X47973Y-35376D01*
X48143Y-35376D01*
X48300Y-35311D01*
X48420Y-35192D01*
X48486Y-35035D01*
X48486Y-35865D01*
X48421Y-35708D01*
X48302Y-35588D01*
X48145Y-35522D01*
X47975Y-35522D01*
X47818Y-35587D01*
X47698Y-35706D01*
X47632Y-35863D01*
X47632Y-36033D01*
X47697Y-36190D01*
X47816Y-36310D01*
X47973Y-36376D01*
X48143Y-36376D01*
X48300Y-36311D01*
X48420Y-36192D01*
X48486Y-36035D01*
X48486Y-36865D01*
X48421Y-36708D01*
X48302Y-36588D01*
X48145Y-36522D01*
X47975Y-36522D01*
X47818Y-36587D01*
X47698Y-36706D01*
X47632Y-36863D01*
X47632Y-37033D01*
X47697Y-37190D01*
X47816Y-37310D01*
X47973Y-37376D01*
X48143Y-37376D01*
X48300Y-37311D01*
X48420Y-37192D01*
X48486Y-37035D01*
X48486Y-37865D01*
X48421Y-37708D01*
X48302Y-37588D01*
X48145Y-37522D01*
X47975Y-37522D01*
X47818Y-37587D01*
X47698Y-37706D01*
X47632Y-37863D01*
X47632Y-38033D01*
X47697Y-38190D01*
X47816Y-38310D01*
X47973Y-38376D01*
X48143Y-38376D01*
X48300Y-38311D01*
X48420Y-38192D01*
X48486Y-38035D01*
X48486Y-38865D01*
X48421Y-38708D01*
X48302Y-38588D01*
X48145Y-38522D01*
X47975Y-38522D01*
X47818Y-38587D01*
X47698Y-38706D01*
X47632Y-38863D01*
X47632Y-39033D01*
X47697Y-39190D01*
X47816Y-39310D01*
X47973Y-39376D01*
X48143Y-39376D01*
X48300Y-39311D01*
X48420Y-39192D01*
X48486Y-39035D01*
X48486Y-39865D01*
X48421Y-39708D01*
X48302Y-39588D01*
X48145Y-39522D01*
X47975Y-39522D01*
X47818Y-39587D01*
X47698Y-39706D01*
X47632Y-39863D01*
X47632Y-40033D01*
X47697Y-40190D01*
X47816Y-40310D01*
X47973Y-40376D01*
X48143Y-40376D01*
X48300Y-40311D01*
X48420Y-40192D01*
X48486Y-40035D01*
X48486Y-40865D01*
X48421Y-40708D01*
X48302Y-40588D01*
X48145Y-40522D01*
X47975Y-40522D01*
X47818Y-40587D01*
X47698Y-40706D01*
X47632Y-40863D01*
X47632Y-41033D01*
X47697Y-41190D01*
X47816Y-41310D01*
X47973Y-41376D01*
X48143Y-41376D01*
X48300Y-41311D01*
X48420Y-41192D01*
X48486Y-41035D01*
X48486Y-41733D01*
X46277Y-41743D01*
X46277Y-39078D01*
X46277Y-38908D01*
X46277Y-38078D01*
X46277Y-37908D01*
X46277Y-37078D01*
X46277Y-36908D01*
X46235Y-36806D01*
X46235Y-36033D01*
X46235Y-35033D01*
X46235Y-34033D01*
X46221Y-33882D01*
X46189Y-33807D01*
X46134Y-33779D01*
X46063Y-33850D01*
X46063Y-33708D01*
X46035Y-33653D01*
X45891Y-33607D01*
X45740Y-33621D01*
X45665Y-33653D01*
X45637Y-33708D01*
X45850Y-33921D01*
X46063Y-33708D01*
X46063Y-33850D01*
X45921Y-33992D01*
X46134Y-34205D01*
X46189Y-34177D01*
X46235Y-34033D01*
X46235Y-35033D01*
X46221Y-34882D01*
X46189Y-34807D01*
X46134Y-34779D01*
X46063Y-34850D01*
X46063Y-34708D01*
X46063Y-34276D01*
X45850Y-34063D01*
X45779Y-34134D01*
X45779Y-33992D01*
X45566Y-33779D01*
X45511Y-33807D01*
X45465Y-33951D01*
X45479Y-34102D01*
X45511Y-34177D01*
X45566Y-34205D01*
X45779Y-33992D01*
X45779Y-34134D01*
X45637Y-34276D01*
X45665Y-34331D01*
X45809Y-34377D01*
X45960Y-34363D01*
X46035Y-34331D01*
X46063Y-34276D01*
X46063Y-34708D01*
X46035Y-34653D01*
X45891Y-34607D01*
X45740Y-34621D01*
X45665Y-34653D01*
X45637Y-34708D01*
X45850Y-34921D01*
X46063Y-34708D01*
X46063Y-34850D01*
X45921Y-34992D01*
X46134Y-35205D01*
X46189Y-35177D01*
X46235Y-35033D01*
X46235Y-36033D01*
X46221Y-35882D01*
X46189Y-35807D01*
X46134Y-35779D01*
X46063Y-35850D01*
X46063Y-35708D01*
X46063Y-35276D01*
X45850Y-35063D01*
X45779Y-35134D01*
X45779Y-34992D01*
X45566Y-34779D01*
X45511Y-34807D01*
X45465Y-34951D01*
X45479Y-35102D01*
X45511Y-35177D01*
X45566Y-35205D01*
X45779Y-34992D01*
X45779Y-35134D01*
X45637Y-35276D01*
X45665Y-35331D01*
X45809Y-35377D01*
X45960Y-35363D01*
X46035Y-35331D01*
X46063Y-35276D01*
X46063Y-35708D01*
X46035Y-35653D01*
X45891Y-35607D01*
X45740Y-35621D01*
X45665Y-35653D01*
X45637Y-35708D01*
X45850Y-35921D01*
X46063Y-35708D01*
X46063Y-35850D01*
X45921Y-35992D01*
X46134Y-36205D01*
X46189Y-36177D01*
X46235Y-36033D01*
X46235Y-36806D01*
X46212Y-36751D01*
X46093Y-36631D01*
X46063Y-36618D01*
X46063Y-36276D01*
X45850Y-36063D01*
X45779Y-36134D01*
X45779Y-35992D01*
X45566Y-35779D01*
X45511Y-35807D01*
X45465Y-35951D01*
X45479Y-36102D01*
X45511Y-36177D01*
X45566Y-36205D01*
X45779Y-35992D01*
X45779Y-36134D01*
X45637Y-36276D01*
X45665Y-36331D01*
X45809Y-36377D01*
X45960Y-36363D01*
X46035Y-36331D01*
X46063Y-36276D01*
X46063Y-36618D01*
X45936Y-36565D01*
X45766Y-36565D01*
X45609Y-36630D01*
X45489Y-36749D01*
X45423Y-36906D01*
X45423Y-37076D01*
X45488Y-37233D01*
X45607Y-37353D01*
X45764Y-37419D01*
X45934Y-37419D01*
X46091Y-37354D01*
X46211Y-37235D01*
X46277Y-37078D01*
X46277Y-37908D01*
X46212Y-37751D01*
X46093Y-37631D01*
X45936Y-37565D01*
X45766Y-37565D01*
X45609Y-37630D01*
X45489Y-37749D01*
X45423Y-37906D01*
X45423Y-38076D01*
X45488Y-38233D01*
X45607Y-38353D01*
X45764Y-38419D01*
X45934Y-38419D01*
X46091Y-38354D01*
X46211Y-38235D01*
X46277Y-38078D01*
X46277Y-38908D01*
X46212Y-38751D01*
X46093Y-38631D01*
X45936Y-38565D01*
X45766Y-38565D01*
X45609Y-38630D01*
X45489Y-38749D01*
X45423Y-38906D01*
X45423Y-39076D01*
X45488Y-39233D01*
X45607Y-39353D01*
X45764Y-39419D01*
X45934Y-39419D01*
X46091Y-39354D01*
X46211Y-39235D01*
X46277Y-39078D01*
X46277Y-41743D01*
X45199Y-41749D01*
X45094Y-31444D01*
X53737Y-31491D01*
X55523Y-33606D01*
X56684Y-34652D01*
X57859Y-35253D01*
X58470Y-35336D01*
X58793Y-35338D01*
X60127Y-35323D01*
X60127Y-35324D01*
X60076Y-35376D01*
X60048Y-35444D01*
X60048Y-35517D01*
X60063Y-35555D01*
X60048Y-35594D01*
X60048Y-35667D01*
X60072Y-35725D01*
X60072Y-35797D01*
X60100Y-35865D01*
X60152Y-35916D01*
X60200Y-35935D01*
X60200Y-35980D01*
X60167Y-35994D01*
X60116Y-36046D01*
X60088Y-36114D01*
X60088Y-36187D01*
X60116Y-36255D01*
X60168Y-36306D01*
X60205Y-36321D01*
X60206Y-36359D01*
X60159Y-36379D01*
X60108Y-36431D01*
X60080Y-36499D01*
X60080Y-36572D01*
X60108Y-36640D01*
X60160Y-36691D01*
X60211Y-36712D01*
X60217Y-37088D01*
X60191Y-37088D01*
X60123Y-37116D01*
X60072Y-37168D01*
X60044Y-37236D01*
X60044Y-37309D01*
X60072Y-37377D01*
X60124Y-37428D01*
X60192Y-37456D01*
X60222Y-37456D01*
X60223Y-37481D01*
X60199Y-37481D01*
X60131Y-37509D01*
X60080Y-37561D01*
X60052Y-37629D01*
X60052Y-37702D01*
X60080Y-37770D01*
X60132Y-37821D01*
X60200Y-37849D01*
X60228Y-37849D01*
X60229Y-37918D01*
X60229Y-37918D01*
G37*
G54D22*
X60229Y-37918D02*
X60160Y-37918D01*
X60092Y-37946D01*
X60042Y-37996D01*
X60042Y-37304D01*
X60042Y-37231D01*
X60019Y-37175D01*
X60019Y-35886D01*
X60019Y-35813D01*
X59991Y-35745D01*
X59939Y-35694D01*
X59871Y-35666D01*
X59798Y-35666D01*
X59730Y-35694D01*
X59679Y-35746D01*
X59651Y-35814D01*
X59651Y-35887D01*
X59662Y-35914D01*
X59631Y-35947D01*
X59603Y-36015D01*
X59603Y-36088D01*
X59631Y-36156D01*
X59683Y-36207D01*
X59751Y-36235D01*
X59824Y-36235D01*
X59892Y-36207D01*
X59943Y-36155D01*
X59971Y-36087D01*
X59971Y-36014D01*
X59959Y-35986D01*
X59991Y-35954D01*
X60019Y-35886D01*
X60019Y-37175D01*
X60014Y-37163D01*
X59962Y-37112D01*
X59894Y-37084D01*
X59821Y-37084D01*
X59753Y-37112D01*
X59702Y-37164D01*
X59674Y-37232D01*
X59674Y-37305D01*
X59702Y-37373D01*
X59754Y-37424D01*
X59822Y-37452D01*
X59895Y-37452D01*
X59963Y-37424D01*
X60014Y-37372D01*
X60042Y-37304D01*
X60042Y-37996D01*
X60041Y-37998D01*
X60013Y-38066D01*
X60013Y-38139D01*
X60041Y-38207D01*
X60093Y-38258D01*
X60139Y-38277D01*
X60109Y-38323D01*
X60104Y-38329D01*
X60101Y-38335D01*
X60003Y-38483D01*
X60003Y-37725D01*
X60003Y-37652D01*
X59975Y-37584D01*
X59923Y-37533D01*
X59855Y-37505D01*
X59782Y-37505D01*
X59714Y-37533D01*
X59663Y-37585D01*
X59635Y-37653D01*
X59635Y-37726D01*
X59663Y-37794D01*
X59715Y-37845D01*
X59783Y-37873D01*
X59856Y-37873D01*
X59924Y-37845D01*
X59975Y-37793D01*
X60003Y-37725D01*
X60003Y-38483D01*
X59956Y-38555D01*
X59956Y-38491D01*
X59928Y-38423D01*
X59876Y-38372D01*
X59808Y-38344D01*
X59735Y-38344D01*
X59667Y-38372D01*
X59616Y-38424D01*
X59588Y-38492D01*
X59588Y-38565D01*
X59616Y-38633D01*
X59668Y-38684D01*
X59720Y-38705D01*
X59698Y-38759D01*
X59698Y-38832D01*
X59726Y-38900D01*
X59727Y-38901D01*
X59354Y-39468D01*
X59454Y-40685D01*
X59259Y-40695D01*
X59259Y-38044D01*
X59259Y-37971D01*
X59231Y-37903D01*
X59231Y-36327D01*
X59231Y-36254D01*
X59203Y-36186D01*
X59151Y-36135D01*
X59083Y-36107D01*
X59010Y-36107D01*
X58942Y-36135D01*
X58891Y-36187D01*
X58863Y-36255D01*
X58863Y-36328D01*
X58891Y-36396D01*
X58943Y-36447D01*
X59011Y-36475D01*
X59084Y-36475D01*
X59152Y-36447D01*
X59203Y-36395D01*
X59231Y-36327D01*
X59231Y-37903D01*
X59179Y-37852D01*
X59111Y-37824D01*
X59038Y-37824D01*
X58970Y-37852D01*
X58919Y-37904D01*
X58891Y-37972D01*
X58891Y-38045D01*
X58919Y-38113D01*
X58971Y-38164D01*
X59039Y-38192D01*
X59112Y-38192D01*
X59180Y-38164D01*
X59231Y-38112D01*
X59259Y-38044D01*
X59259Y-40695D01*
X58483Y-40736D01*
X58483Y-38520D01*
X58471Y-38460D01*
X58471Y-36091D01*
X58471Y-36018D01*
X58443Y-35950D01*
X58391Y-35899D01*
X58323Y-35871D01*
X58250Y-35871D01*
X58182Y-35899D01*
X58131Y-35951D01*
X58103Y-36019D01*
X58103Y-36092D01*
X58105Y-36099D01*
X57726Y-36099D01*
X54895Y-33267D01*
X54831Y-33225D01*
X54756Y-33209D01*
X54751Y-33210D01*
X53298Y-33210D01*
X53317Y-33192D01*
X53383Y-33035D01*
X53383Y-32865D01*
X53383Y-32035D01*
X53383Y-31865D01*
X53318Y-31708D01*
X53199Y-31588D01*
X53042Y-31522D01*
X52872Y-31522D01*
X52715Y-31587D01*
X52595Y-31706D01*
X52529Y-31863D01*
X52529Y-32033D01*
X52594Y-32190D01*
X52713Y-32310D01*
X52870Y-32376D01*
X53040Y-32376D01*
X53197Y-32311D01*
X53317Y-32192D01*
X53383Y-32035D01*
X53383Y-32865D01*
X53318Y-32708D01*
X53199Y-32588D01*
X53042Y-32522D01*
X52872Y-32522D01*
X52715Y-32587D01*
X52595Y-32706D01*
X52529Y-32863D01*
X52529Y-33033D01*
X52594Y-33190D01*
X52613Y-33210D01*
X52291Y-33210D01*
X52310Y-33192D01*
X52376Y-33035D01*
X52376Y-32865D01*
X52376Y-32035D01*
X52376Y-31865D01*
X52311Y-31708D01*
X52192Y-31588D01*
X52035Y-31522D01*
X51865Y-31522D01*
X51708Y-31587D01*
X51588Y-31706D01*
X51522Y-31863D01*
X51522Y-32033D01*
X51587Y-32190D01*
X51706Y-32310D01*
X51863Y-32376D01*
X52033Y-32376D01*
X52190Y-32311D01*
X52310Y-32192D01*
X52376Y-32035D01*
X52376Y-32865D01*
X52311Y-32708D01*
X52192Y-32588D01*
X52035Y-32522D01*
X51865Y-32522D01*
X51708Y-32587D01*
X51588Y-32706D01*
X51522Y-32863D01*
X51522Y-33033D01*
X51587Y-33190D01*
X51606Y-33210D01*
X49600Y-33210D01*
X49473Y-33081D01*
X49493Y-33035D01*
X49493Y-32865D01*
X49493Y-32035D01*
X49493Y-31865D01*
X49428Y-31708D01*
X49309Y-31588D01*
X49152Y-31522D01*
X48982Y-31522D01*
X48825Y-31587D01*
X48705Y-31706D01*
X48639Y-31863D01*
X48639Y-32033D01*
X48704Y-32190D01*
X48823Y-32310D01*
X48980Y-32376D01*
X49150Y-32376D01*
X49307Y-32311D01*
X49427Y-32192D01*
X49493Y-32035D01*
X49493Y-32865D01*
X49428Y-32708D01*
X49309Y-32588D01*
X49152Y-32522D01*
X48982Y-32522D01*
X48825Y-32587D01*
X48705Y-32706D01*
X48639Y-32863D01*
X48639Y-33033D01*
X48704Y-33190D01*
X48823Y-33310D01*
X48980Y-33376D01*
X49150Y-33376D01*
X49194Y-33357D01*
X49379Y-33544D01*
X49380Y-33545D01*
X49392Y-33552D01*
X49442Y-33587D01*
X49444Y-33587D01*
X49517Y-33603D01*
X49519Y-33602D01*
X49521Y-33602D01*
X51692Y-33602D01*
X51588Y-33706D01*
X51522Y-33863D01*
X51522Y-34033D01*
X51587Y-34190D01*
X51706Y-34310D01*
X51863Y-34376D01*
X52033Y-34376D01*
X52190Y-34311D01*
X52310Y-34192D01*
X52376Y-34035D01*
X52376Y-33865D01*
X52311Y-33708D01*
X52205Y-33602D01*
X52699Y-33602D01*
X52595Y-33706D01*
X52529Y-33863D01*
X52529Y-34033D01*
X52594Y-34190D01*
X52713Y-34310D01*
X52870Y-34376D01*
X53040Y-34376D01*
X53197Y-34311D01*
X53317Y-34192D01*
X53383Y-34035D01*
X53383Y-33865D01*
X53318Y-33708D01*
X53212Y-33602D01*
X54674Y-33602D01*
X57504Y-36431D01*
X57506Y-36434D01*
X57508Y-36435D01*
X57428Y-36469D01*
X57359Y-36538D01*
X57322Y-36629D01*
X57322Y-36726D01*
X57359Y-36816D01*
X57428Y-36885D01*
X57519Y-36922D01*
X57616Y-36922D01*
X57706Y-36885D01*
X57775Y-36816D01*
X57812Y-36725D01*
X57812Y-36628D01*
X57775Y-36538D01*
X57728Y-36491D01*
X58252Y-36491D01*
X58327Y-36476D01*
X58391Y-36434D01*
X58433Y-36370D01*
X58448Y-36295D01*
X58433Y-36220D01*
X58413Y-36189D01*
X58443Y-36159D01*
X58471Y-36091D01*
X58471Y-38460D01*
X58468Y-38445D01*
X58426Y-38381D01*
X58362Y-38339D01*
X58287Y-38324D01*
X55590Y-38324D01*
X55589Y-38324D01*
X55574Y-38327D01*
X55515Y-38339D01*
X55451Y-38381D01*
X55449Y-38383D01*
X53729Y-40103D01*
X53354Y-40103D01*
X53383Y-40035D01*
X53383Y-39865D01*
X53383Y-39035D01*
X53383Y-38865D01*
X53383Y-38035D01*
X53383Y-37865D01*
X53383Y-37035D01*
X53383Y-36865D01*
X53383Y-36035D01*
X53383Y-35865D01*
X53383Y-35035D01*
X53383Y-34865D01*
X53318Y-34708D01*
X53199Y-34588D01*
X53042Y-34522D01*
X52872Y-34522D01*
X52715Y-34587D01*
X52595Y-34706D01*
X52529Y-34863D01*
X52529Y-35033D01*
X52594Y-35190D01*
X52713Y-35310D01*
X52870Y-35376D01*
X53040Y-35376D01*
X53197Y-35311D01*
X53317Y-35192D01*
X53383Y-35035D01*
X53383Y-35865D01*
X53318Y-35708D01*
X53199Y-35588D01*
X53042Y-35522D01*
X52872Y-35522D01*
X52715Y-35587D01*
X52595Y-35706D01*
X52529Y-35863D01*
X52529Y-36033D01*
X52594Y-36190D01*
X52713Y-36310D01*
X52870Y-36376D01*
X53040Y-36376D01*
X53197Y-36311D01*
X53317Y-36192D01*
X53383Y-36035D01*
X53383Y-36865D01*
X53318Y-36708D01*
X53199Y-36588D01*
X53042Y-36522D01*
X52872Y-36522D01*
X52715Y-36587D01*
X52595Y-36706D01*
X52529Y-36863D01*
X52529Y-37033D01*
X52594Y-37190D01*
X52713Y-37310D01*
X52870Y-37376D01*
X53040Y-37376D01*
X53197Y-37311D01*
X53317Y-37192D01*
X53383Y-37035D01*
X53383Y-37865D01*
X53318Y-37708D01*
X53199Y-37588D01*
X53042Y-37522D01*
X52872Y-37522D01*
X52715Y-37587D01*
X52595Y-37706D01*
X52529Y-37863D01*
X52529Y-38033D01*
X52594Y-38190D01*
X52713Y-38310D01*
X52870Y-38376D01*
X53040Y-38376D01*
X53197Y-38311D01*
X53317Y-38192D01*
X53383Y-38035D01*
X53383Y-38865D01*
X53318Y-38708D01*
X53199Y-38588D01*
X53042Y-38522D01*
X52872Y-38522D01*
X52715Y-38587D01*
X52595Y-38706D01*
X52529Y-38863D01*
X52529Y-39033D01*
X52594Y-39190D01*
X52713Y-39310D01*
X52870Y-39376D01*
X53040Y-39376D01*
X53197Y-39311D01*
X53317Y-39192D01*
X53383Y-39035D01*
X53383Y-39865D01*
X53318Y-39708D01*
X53199Y-39588D01*
X53042Y-39522D01*
X52872Y-39522D01*
X52715Y-39587D01*
X52595Y-39706D01*
X52529Y-39863D01*
X52529Y-40033D01*
X52557Y-40103D01*
X52347Y-40103D01*
X52376Y-40035D01*
X52376Y-39865D01*
X52376Y-39035D01*
X52376Y-38865D01*
X52376Y-38035D01*
X52376Y-37865D01*
X52376Y-37035D01*
X52376Y-36865D01*
X52376Y-36035D01*
X52376Y-35865D01*
X52376Y-35035D01*
X52376Y-34865D01*
X52311Y-34708D01*
X52192Y-34588D01*
X52035Y-34522D01*
X51865Y-34522D01*
X51708Y-34587D01*
X51588Y-34706D01*
X51522Y-34863D01*
X51522Y-35033D01*
X51587Y-35190D01*
X51706Y-35310D01*
X51863Y-35376D01*
X52033Y-35376D01*
X52190Y-35311D01*
X52310Y-35192D01*
X52376Y-35035D01*
X52376Y-35865D01*
X52311Y-35708D01*
X52192Y-35588D01*
X52035Y-35522D01*
X51865Y-35522D01*
X51708Y-35587D01*
X51588Y-35706D01*
X51522Y-35863D01*
X51522Y-36033D01*
X51587Y-36190D01*
X51706Y-36310D01*
X51863Y-36376D01*
X52033Y-36376D01*
X52190Y-36311D01*
X52310Y-36192D01*
X52376Y-36035D01*
X52376Y-36865D01*
X52311Y-36708D01*
X52192Y-36588D01*
X52035Y-36522D01*
X51865Y-36522D01*
X51708Y-36587D01*
X51588Y-36706D01*
X51522Y-36863D01*
X51522Y-37033D01*
X51587Y-37190D01*
X51706Y-37310D01*
X51863Y-37376D01*
X52033Y-37376D01*
X52190Y-37311D01*
X52310Y-37192D01*
X52376Y-37035D01*
X52376Y-37865D01*
X52311Y-37708D01*
X52192Y-37588D01*
X52035Y-37522D01*
X51865Y-37522D01*
X51708Y-37587D01*
X51588Y-37706D01*
X51522Y-37863D01*
X51522Y-38033D01*
X51587Y-38190D01*
X51706Y-38310D01*
X51863Y-38376D01*
X52033Y-38376D01*
X52190Y-38311D01*
X52310Y-38192D01*
X52376Y-38035D01*
X52376Y-38865D01*
X52311Y-38708D01*
X52192Y-38588D01*
X52035Y-38522D01*
X51865Y-38522D01*
X51708Y-38587D01*
X51588Y-38706D01*
X51522Y-38863D01*
X51522Y-39033D01*
X51587Y-39190D01*
X51706Y-39310D01*
X51863Y-39376D01*
X52033Y-39376D01*
X52190Y-39311D01*
X52310Y-39192D01*
X52376Y-39035D01*
X52376Y-39865D01*
X52311Y-39708D01*
X52192Y-39588D01*
X52035Y-39522D01*
X51865Y-39522D01*
X51708Y-39587D01*
X51588Y-39706D01*
X51522Y-39863D01*
X51522Y-40033D01*
X51550Y-40103D01*
X49495Y-40103D01*
X49473Y-40081D01*
X49493Y-40035D01*
X49493Y-39865D01*
X49493Y-39035D01*
X49493Y-38865D01*
X49493Y-38035D01*
X49493Y-37865D01*
X49493Y-37035D01*
X49493Y-36865D01*
X49493Y-36035D01*
X49493Y-35865D01*
X49493Y-35035D01*
X49493Y-34865D01*
X49493Y-34035D01*
X49493Y-33865D01*
X49428Y-33708D01*
X49309Y-33588D01*
X49152Y-33522D01*
X48982Y-33522D01*
X48825Y-33587D01*
X48705Y-33706D01*
X48639Y-33863D01*
X48639Y-34033D01*
X48704Y-34190D01*
X48823Y-34310D01*
X48980Y-34376D01*
X49150Y-34376D01*
X49307Y-34311D01*
X49427Y-34192D01*
X49493Y-34035D01*
X49493Y-34865D01*
X49428Y-34708D01*
X49309Y-34588D01*
X49152Y-34522D01*
X48982Y-34522D01*
X48825Y-34587D01*
X48705Y-34706D01*
X48639Y-34863D01*
X48639Y-35033D01*
X48704Y-35190D01*
X48823Y-35310D01*
X48980Y-35376D01*
X49150Y-35376D01*
X49307Y-35311D01*
X49427Y-35192D01*
X49493Y-35035D01*
X49493Y-35865D01*
X49428Y-35708D01*
X49309Y-35588D01*
X49152Y-35522D01*
X48982Y-35522D01*
X48825Y-35587D01*
X48705Y-35706D01*
X48639Y-35863D01*
X48639Y-36033D01*
X48704Y-36190D01*
X48823Y-36310D01*
X48980Y-36376D01*
X49150Y-36376D01*
X49307Y-36311D01*
X49427Y-36192D01*
X49493Y-36035D01*
X49493Y-36865D01*
X49428Y-36708D01*
X49309Y-36588D01*
X49152Y-36522D01*
X48982Y-36522D01*
X48825Y-36587D01*
X48705Y-36706D01*
X48639Y-36863D01*
X48639Y-37033D01*
X48704Y-37190D01*
X48823Y-37310D01*
X48980Y-37376D01*
X49150Y-37376D01*
X49307Y-37311D01*
X49427Y-37192D01*
X49493Y-37035D01*
X49493Y-37865D01*
X49428Y-37708D01*
X49309Y-37588D01*
X49152Y-37522D01*
X48982Y-37522D01*
X48825Y-37587D01*
X48705Y-37706D01*
X48639Y-37863D01*
X48639Y-38033D01*
X48704Y-38190D01*
X48823Y-38310D01*
X48980Y-38376D01*
X49150Y-38376D01*
X49307Y-38311D01*
X49427Y-38192D01*
X49493Y-38035D01*
X49493Y-38865D01*
X49428Y-38708D01*
X49309Y-38588D01*
X49152Y-38522D01*
X48982Y-38522D01*
X48825Y-38587D01*
X48705Y-38706D01*
X48639Y-38863D01*
X48639Y-39033D01*
X48704Y-39190D01*
X48823Y-39310D01*
X48980Y-39376D01*
X49150Y-39376D01*
X49307Y-39311D01*
X49427Y-39192D01*
X49493Y-39035D01*
X49493Y-39865D01*
X49428Y-39708D01*
X49309Y-39588D01*
X49152Y-39522D01*
X48982Y-39522D01*
X48825Y-39587D01*
X48705Y-39706D01*
X48639Y-39863D01*
X48639Y-40033D01*
X48704Y-40190D01*
X48823Y-40310D01*
X48980Y-40376D01*
X49150Y-40376D01*
X49195Y-40357D01*
X49270Y-40432D01*
X49274Y-40438D01*
X49337Y-40479D01*
X49338Y-40480D01*
X49397Y-40491D01*
X49412Y-40495D01*
X49412Y-40494D01*
X49413Y-40495D01*
X53770Y-40495D01*
X53383Y-40882D01*
X53383Y-40865D01*
X53318Y-40708D01*
X53199Y-40588D01*
X53042Y-40522D01*
X52872Y-40522D01*
X52715Y-40587D01*
X52595Y-40706D01*
X52529Y-40863D01*
X52529Y-41033D01*
X52556Y-41099D01*
X52349Y-41099D01*
X52376Y-41035D01*
X52376Y-40865D01*
X52311Y-40708D01*
X52192Y-40588D01*
X52035Y-40522D01*
X51865Y-40522D01*
X51708Y-40587D01*
X51588Y-40706D01*
X51522Y-40863D01*
X51522Y-41033D01*
X51549Y-41099D01*
X49491Y-41099D01*
X49473Y-41081D01*
X49493Y-41035D01*
X49493Y-40865D01*
X49428Y-40708D01*
X49309Y-40588D01*
X49152Y-40522D01*
X48982Y-40522D01*
X48825Y-40587D01*
X48705Y-40706D01*
X48639Y-40863D01*
X48639Y-41033D01*
X48704Y-41190D01*
X48823Y-41310D01*
X48980Y-41376D01*
X49150Y-41376D01*
X49195Y-41357D01*
X49268Y-41431D01*
X49270Y-41434D01*
X49334Y-41476D01*
X49395Y-41488D01*
X49408Y-41491D01*
X49408Y-41490D01*
X49409Y-41491D01*
X53243Y-41491D01*
X53248Y-41492D01*
X53248Y-41491D01*
X53323Y-41476D01*
X53387Y-41434D01*
X55711Y-39109D01*
X58240Y-39109D01*
X58315Y-39094D01*
X58379Y-39052D01*
X58421Y-38988D01*
X58436Y-38913D01*
X58421Y-38838D01*
X58379Y-38774D01*
X58315Y-38732D01*
X58240Y-38717D01*
X55670Y-38717D01*
X55671Y-38716D01*
X58287Y-38716D01*
X58362Y-38701D01*
X58426Y-38659D01*
X58468Y-38595D01*
X58483Y-38520D01*
X58483Y-40736D01*
X58151Y-40754D01*
X58151Y-40755D01*
X57800Y-40717D01*
X57800Y-40276D01*
X57800Y-40179D01*
X57763Y-40089D01*
X57694Y-40020D01*
X57603Y-39983D01*
X57506Y-39983D01*
X57416Y-40020D01*
X57347Y-40089D01*
X57310Y-40180D01*
X57310Y-40277D01*
X57347Y-40367D01*
X57416Y-40436D01*
X57507Y-40473D01*
X57604Y-40473D01*
X57694Y-40436D01*
X57763Y-40367D01*
X57800Y-40276D01*
X57800Y-40717D01*
X55803Y-40507D01*
X54344Y-41706D01*
X48486Y-41733D01*
X48486Y-41035D01*
X48486Y-40865D01*
X48486Y-40035D01*
X48486Y-39865D01*
X48486Y-39035D01*
X48486Y-38865D01*
X48486Y-38035D01*
X48486Y-37865D01*
X48486Y-37035D01*
X48486Y-36865D01*
X48486Y-36035D01*
X48486Y-35865D01*
X48486Y-35035D01*
X48486Y-34865D01*
X48486Y-34035D01*
X48486Y-33865D01*
X48486Y-33035D01*
X48486Y-32865D01*
X48486Y-32035D01*
X48486Y-31865D01*
X48421Y-31708D01*
X48302Y-31588D01*
X48145Y-31522D01*
X47975Y-31522D01*
X47818Y-31587D01*
X47698Y-31706D01*
X47632Y-31863D01*
X47632Y-32033D01*
X47697Y-32190D01*
X47816Y-32310D01*
X47973Y-32376D01*
X48143Y-32376D01*
X48300Y-32311D01*
X48420Y-32192D01*
X48486Y-32035D01*
X48486Y-32865D01*
X48421Y-32708D01*
X48302Y-32588D01*
X48145Y-32522D01*
X47975Y-32522D01*
X47818Y-32587D01*
X47698Y-32706D01*
X47632Y-32863D01*
X47632Y-33033D01*
X47697Y-33190D01*
X47816Y-33310D01*
X47973Y-33376D01*
X48143Y-33376D01*
X48300Y-33311D01*
X48420Y-33192D01*
X48486Y-33035D01*
X48486Y-33865D01*
X48421Y-33708D01*
X48302Y-33588D01*
X48145Y-33522D01*
X47975Y-33522D01*
X47818Y-33587D01*
X47698Y-33706D01*
X47632Y-33863D01*
X47632Y-34033D01*
X47697Y-34190D01*
X47816Y-34310D01*
X47973Y-34376D01*
X48143Y-34376D01*
X48300Y-34311D01*
X48420Y-34192D01*
X48486Y-34035D01*
X48486Y-34865D01*
X48421Y-34708D01*
X48302Y-34588D01*
X48145Y-34522D01*
X47975Y-34522D01*
X47818Y-34587D01*
X47698Y-34706D01*
X47632Y-34863D01*
X47632Y-35033D01*
X47697Y-35190D01*
X47816Y-35310D01*
X47973Y-35376D01*
X48143Y-35376D01*
X48300Y-35311D01*
X48420Y-35192D01*
X48486Y-35035D01*
X48486Y-35865D01*
X48421Y-35708D01*
X48302Y-35588D01*
X48145Y-35522D01*
X47975Y-35522D01*
X47818Y-35587D01*
X47698Y-35706D01*
X47632Y-35863D01*
X47632Y-36033D01*
X47697Y-36190D01*
X47816Y-36310D01*
X47973Y-36376D01*
X48143Y-36376D01*
X48300Y-36311D01*
X48420Y-36192D01*
X48486Y-36035D01*
X48486Y-36865D01*
X48421Y-36708D01*
X48302Y-36588D01*
X48145Y-36522D01*
X47975Y-36522D01*
X47818Y-36587D01*
X47698Y-36706D01*
X47632Y-36863D01*
X47632Y-37033D01*
X47697Y-37190D01*
X47816Y-37310D01*
X47973Y-37376D01*
X48143Y-37376D01*
X48300Y-37311D01*
X48420Y-37192D01*
X48486Y-37035D01*
X48486Y-37865D01*
X48421Y-37708D01*
X48302Y-37588D01*
X48145Y-37522D01*
X47975Y-37522D01*
X47818Y-37587D01*
X47698Y-37706D01*
X47632Y-37863D01*
X47632Y-38033D01*
X47697Y-38190D01*
X47816Y-38310D01*
X47973Y-38376D01*
X48143Y-38376D01*
X48300Y-38311D01*
X48420Y-38192D01*
X48486Y-38035D01*
X48486Y-38865D01*
X48421Y-38708D01*
X48302Y-38588D01*
X48145Y-38522D01*
X47975Y-38522D01*
X47818Y-38587D01*
X47698Y-38706D01*
X47632Y-38863D01*
X47632Y-39033D01*
X47697Y-39190D01*
X47816Y-39310D01*
X47973Y-39376D01*
X48143Y-39376D01*
X48300Y-39311D01*
X48420Y-39192D01*
X48486Y-39035D01*
X48486Y-39865D01*
X48421Y-39708D01*
X48302Y-39588D01*
X48145Y-39522D01*
X47975Y-39522D01*
X47818Y-39587D01*
X47698Y-39706D01*
X47632Y-39863D01*
X47632Y-40033D01*
X47697Y-40190D01*
X47816Y-40310D01*
X47973Y-40376D01*
X48143Y-40376D01*
X48300Y-40311D01*
X48420Y-40192D01*
X48486Y-40035D01*
X48486Y-40865D01*
X48421Y-40708D01*
X48302Y-40588D01*
X48145Y-40522D01*
X47975Y-40522D01*
X47818Y-40587D01*
X47698Y-40706D01*
X47632Y-40863D01*
X47632Y-41033D01*
X47697Y-41190D01*
X47816Y-41310D01*
X47973Y-41376D01*
X48143Y-41376D01*
X48300Y-41311D01*
X48420Y-41192D01*
X48486Y-41035D01*
X48486Y-41733D01*
X46277Y-41743D01*
X46277Y-39078D01*
X46277Y-38908D01*
X46277Y-38078D01*
X46277Y-37908D01*
X46277Y-37078D01*
X46277Y-36908D01*
X46235Y-36806D01*
X46235Y-36033D01*
X46235Y-35033D01*
X46235Y-34033D01*
X46221Y-33882D01*
X46189Y-33807D01*
X46134Y-33779D01*
X46063Y-33850D01*
X46063Y-33708D01*
X46035Y-33653D01*
X45891Y-33607D01*
X45740Y-33621D01*
X45665Y-33653D01*
X45637Y-33708D01*
X45850Y-33921D01*
X46063Y-33708D01*
X46063Y-33850D01*
X45921Y-33992D01*
X46134Y-34205D01*
X46189Y-34177D01*
X46235Y-34033D01*
X46235Y-35033D01*
X46221Y-34882D01*
X46189Y-34807D01*
X46134Y-34779D01*
X46063Y-34850D01*
X46063Y-34708D01*
X46063Y-34276D01*
X45850Y-34063D01*
X45779Y-34134D01*
X45779Y-33992D01*
X45566Y-33779D01*
X45511Y-33807D01*
X45465Y-33951D01*
X45479Y-34102D01*
X45511Y-34177D01*
X45566Y-34205D01*
X45779Y-33992D01*
X45779Y-34134D01*
X45637Y-34276D01*
X45665Y-34331D01*
X45809Y-34377D01*
X45960Y-34363D01*
X46035Y-34331D01*
X46063Y-34276D01*
X46063Y-34708D01*
X46035Y-34653D01*
X45891Y-34607D01*
X45740Y-34621D01*
X45665Y-34653D01*
X45637Y-34708D01*
X45850Y-34921D01*
X46063Y-34708D01*
X46063Y-34850D01*
X45921Y-34992D01*
X46134Y-35205D01*
X46189Y-35177D01*
X46235Y-35033D01*
X46235Y-36033D01*
X46221Y-35882D01*
X46189Y-35807D01*
X46134Y-35779D01*
X46063Y-35850D01*
X46063Y-35708D01*
X46063Y-35276D01*
X45850Y-35063D01*
X45779Y-35134D01*
X45779Y-34992D01*
X45566Y-34779D01*
X45511Y-34807D01*
X45465Y-34951D01*
X45479Y-35102D01*
X45511Y-35177D01*
X45566Y-35205D01*
X45779Y-34992D01*
X45779Y-35134D01*
X45637Y-35276D01*
X45665Y-35331D01*
X45809Y-35377D01*
X45960Y-35363D01*
X46035Y-35331D01*
X46063Y-35276D01*
X46063Y-35708D01*
X46035Y-35653D01*
X45891Y-35607D01*
X45740Y-35621D01*
X45665Y-35653D01*
X45637Y-35708D01*
X45850Y-35921D01*
X46063Y-35708D01*
X46063Y-35850D01*
X45921Y-35992D01*
X46134Y-36205D01*
X46189Y-36177D01*
X46235Y-36033D01*
X46235Y-36806D01*
X46212Y-36751D01*
X46093Y-36631D01*
X46063Y-36618D01*
X46063Y-36276D01*
X45850Y-36063D01*
X45779Y-36134D01*
X45779Y-35992D01*
X45566Y-35779D01*
X45511Y-35807D01*
X45465Y-35951D01*
X45479Y-36102D01*
X45511Y-36177D01*
X45566Y-36205D01*
X45779Y-35992D01*
X45779Y-36134D01*
X45637Y-36276D01*
X45665Y-36331D01*
X45809Y-36377D01*
X45960Y-36363D01*
X46035Y-36331D01*
X46063Y-36276D01*
X46063Y-36618D01*
X45936Y-36565D01*
X45766Y-36565D01*
X45609Y-36630D01*
X45489Y-36749D01*
X45423Y-36906D01*
X45423Y-37076D01*
X45488Y-37233D01*
X45607Y-37353D01*
X45764Y-37419D01*
X45934Y-37419D01*
X46091Y-37354D01*
X46211Y-37235D01*
X46277Y-37078D01*
X46277Y-37908D01*
X46212Y-37751D01*
X46093Y-37631D01*
X45936Y-37565D01*
X45766Y-37565D01*
X45609Y-37630D01*
X45489Y-37749D01*
X45423Y-37906D01*
X45423Y-38076D01*
X45488Y-38233D01*
X45607Y-38353D01*
X45764Y-38419D01*
X45934Y-38419D01*
X46091Y-38354D01*
X46211Y-38235D01*
X46277Y-38078D01*
X46277Y-38908D01*
X46212Y-38751D01*
X46093Y-38631D01*
X45936Y-38565D01*
X45766Y-38565D01*
X45609Y-38630D01*
X45489Y-38749D01*
X45423Y-38906D01*
X45423Y-39076D01*
X45488Y-39233D01*
X45607Y-39353D01*
X45764Y-39419D01*
X45934Y-39419D01*
X46091Y-39354D01*
X46211Y-39235D01*
X46277Y-39078D01*
X46277Y-41743D01*
X45199Y-41749D01*
X45094Y-31444D01*
X53737Y-31491D01*
X55523Y-33606D01*
X56684Y-34652D01*
X57859Y-35253D01*
X58470Y-35336D01*
X58793Y-35338D01*
X60127Y-35323D01*
X60127Y-35324D01*
X60076Y-35376D01*
X60048Y-35444D01*
X60048Y-35517D01*
X60063Y-35555D01*
X60048Y-35594D01*
X60048Y-35667D01*
X60072Y-35725D01*
X60072Y-35797D01*
X60100Y-35865D01*
X60152Y-35916D01*
X60200Y-35935D01*
X60200Y-35980D01*
X60167Y-35994D01*
X60116Y-36046D01*
X60088Y-36114D01*
X60088Y-36187D01*
X60116Y-36255D01*
X60168Y-36306D01*
X60205Y-36321D01*
X60206Y-36359D01*
X60159Y-36379D01*
X60108Y-36431D01*
X60080Y-36499D01*
X60080Y-36572D01*
X60108Y-36640D01*
X60160Y-36691D01*
X60211Y-36712D01*
X60217Y-37088D01*
X60191Y-37088D01*
X60123Y-37116D01*
X60072Y-37168D01*
X60044Y-37236D01*
X60044Y-37309D01*
X60072Y-37377D01*
X60124Y-37428D01*
X60192Y-37456D01*
X60222Y-37456D01*
X60223Y-37481D01*
X60199Y-37481D01*
X60131Y-37509D01*
X60080Y-37561D01*
X60052Y-37629D01*
X60052Y-37702D01*
X60080Y-37770D01*
X60132Y-37821D01*
X60200Y-37849D01*
X60228Y-37849D01*
X60229Y-37918D01*
G54D10*
G36*
X65962Y-39485D02*
X65680Y-39485D01*
X65108Y-38912D01*
X65044Y-38870D01*
X64969Y-38854D01*
X64894Y-38870D01*
X64830Y-38912D01*
X64788Y-38976D01*
X64772Y-39051D01*
X64788Y-39126D01*
X64830Y-39190D01*
X64916Y-39276D01*
X64915Y-39277D01*
X64864Y-39329D01*
X64836Y-39397D01*
X64836Y-39470D01*
X64844Y-39491D01*
X64833Y-39499D01*
X64791Y-39563D01*
X64775Y-39638D01*
X64791Y-39713D01*
X64833Y-39777D01*
X64990Y-39934D01*
X64943Y-39934D01*
X64875Y-39962D01*
X64824Y-40014D01*
X64796Y-40082D01*
X64796Y-40155D01*
X64824Y-40223D01*
X64876Y-40274D01*
X64923Y-40293D01*
X64723Y-40291D01*
X64723Y-38127D01*
X64723Y-38054D01*
X64695Y-37986D01*
X64643Y-37935D01*
X64575Y-37907D01*
X64502Y-37907D01*
X64434Y-37935D01*
X64383Y-37987D01*
X64361Y-38040D01*
X64361Y-36603D01*
X64361Y-36530D01*
X64333Y-36462D01*
X64281Y-36411D01*
X64213Y-36383D01*
X64140Y-36383D01*
X64072Y-36411D01*
X64021Y-36463D01*
X63993Y-36531D01*
X63993Y-36604D01*
X64021Y-36672D01*
X64073Y-36723D01*
X64141Y-36751D01*
X64214Y-36751D01*
X64282Y-36723D01*
X64333Y-36671D01*
X64361Y-36603D01*
X64361Y-38040D01*
X64355Y-38055D01*
X64355Y-38128D01*
X64383Y-38196D01*
X64435Y-38247D01*
X64503Y-38275D01*
X64576Y-38275D01*
X64644Y-38247D01*
X64695Y-38195D01*
X64723Y-38127D01*
X64723Y-40291D01*
X63960Y-40287D01*
X63960Y-35347D01*
X63960Y-35274D01*
X63932Y-35206D01*
X63880Y-35155D01*
X63812Y-35127D01*
X63739Y-35127D01*
X63671Y-35155D01*
X63620Y-35207D01*
X63592Y-35275D01*
X63592Y-35348D01*
X63620Y-35416D01*
X63672Y-35467D01*
X63740Y-35495D01*
X63813Y-35495D01*
X63881Y-35467D01*
X63932Y-35415D01*
X63960Y-35347D01*
X63960Y-40287D01*
X63936Y-40286D01*
X63936Y-39300D01*
X63936Y-39227D01*
X63908Y-39159D01*
X63856Y-39108D01*
X63788Y-39080D01*
X63715Y-39080D01*
X63647Y-39108D01*
X63596Y-39160D01*
X63568Y-39228D01*
X63568Y-39301D01*
X63596Y-39369D01*
X63648Y-39420D01*
X63716Y-39448D01*
X63789Y-39448D01*
X63857Y-39420D01*
X63908Y-39368D01*
X63936Y-39300D01*
X63936Y-40286D01*
X63554Y-40284D01*
X63554Y-37705D01*
X63554Y-37632D01*
X63526Y-37564D01*
X63474Y-37513D01*
X63413Y-37488D01*
X63475Y-37463D01*
X63526Y-37411D01*
X63554Y-37343D01*
X63554Y-37270D01*
X63526Y-37202D01*
X63523Y-37199D01*
X63523Y-35382D01*
X63523Y-35309D01*
X63495Y-35241D01*
X63443Y-35190D01*
X63375Y-35162D01*
X63302Y-35162D01*
X63234Y-35190D01*
X63183Y-35242D01*
X63155Y-35310D01*
X63155Y-35383D01*
X63183Y-35451D01*
X63235Y-35502D01*
X63303Y-35530D01*
X63376Y-35530D01*
X63444Y-35502D01*
X63495Y-35450D01*
X63523Y-35382D01*
X63523Y-37199D01*
X63474Y-37151D01*
X63406Y-37123D01*
X63333Y-37123D01*
X63265Y-37151D01*
X63214Y-37203D01*
X63186Y-37271D01*
X63186Y-37344D01*
X63214Y-37412D01*
X63266Y-37463D01*
X63326Y-37487D01*
X63265Y-37513D01*
X63214Y-37565D01*
X63186Y-37633D01*
X63186Y-37706D01*
X63214Y-37774D01*
X63266Y-37825D01*
X63334Y-37853D01*
X63407Y-37853D01*
X63475Y-37825D01*
X63526Y-37773D01*
X63554Y-37705D01*
X63554Y-40284D01*
X63145Y-40281D01*
X63145Y-35398D01*
X63145Y-35325D01*
X63117Y-35257D01*
X63065Y-35206D01*
X63021Y-35187D01*
X63021Y-33379D01*
X63021Y-33282D01*
X62984Y-33192D01*
X62915Y-33123D01*
X62851Y-33096D01*
X62851Y-31611D01*
X62851Y-31514D01*
X62814Y-31424D01*
X62745Y-31355D01*
X62654Y-31318D01*
X62557Y-31318D01*
X62467Y-31355D01*
X62398Y-31424D01*
X62361Y-31515D01*
X62361Y-31612D01*
X62398Y-31702D01*
X62467Y-31771D01*
X62558Y-31808D01*
X62655Y-31808D01*
X62745Y-31771D01*
X62814Y-31702D01*
X62851Y-31611D01*
X62851Y-33096D01*
X62824Y-33086D01*
X62776Y-33086D01*
X62776Y-33085D01*
X62739Y-32995D01*
X62670Y-32926D01*
X62579Y-32889D01*
X62482Y-32889D01*
X62392Y-32926D01*
X62323Y-32995D01*
X62286Y-33086D01*
X62286Y-33183D01*
X62311Y-33244D01*
X62265Y-33198D01*
X62221Y-33180D01*
X62221Y-31331D01*
X62221Y-31234D01*
X62184Y-31144D01*
X62115Y-31075D01*
X62024Y-31038D01*
X61927Y-31038D01*
X61837Y-31075D01*
X61768Y-31144D01*
X61731Y-31235D01*
X61731Y-31332D01*
X61768Y-31422D01*
X61837Y-31491D01*
X61928Y-31528D01*
X62025Y-31528D01*
X62115Y-31491D01*
X62184Y-31422D01*
X62221Y-31331D01*
X62221Y-33180D01*
X62174Y-33161D01*
X62077Y-33161D01*
X61987Y-33198D01*
X61918Y-33267D01*
X61881Y-33358D01*
X61881Y-33433D01*
X61802Y-33401D01*
X61802Y-31957D01*
X61802Y-31884D01*
X61774Y-31816D01*
X61722Y-31765D01*
X61654Y-31737D01*
X61592Y-31737D01*
X61581Y-31710D01*
X61529Y-31659D01*
X61461Y-31631D01*
X61388Y-31631D01*
X61320Y-31659D01*
X61269Y-31711D01*
X61269Y-30017D01*
X61269Y-29920D01*
X61232Y-29830D01*
X61163Y-29761D01*
X61072Y-29724D01*
X60975Y-29724D01*
X60885Y-29761D01*
X60816Y-29830D01*
X60779Y-29921D01*
X60779Y-30018D01*
X60816Y-30108D01*
X60885Y-30177D01*
X60976Y-30214D01*
X61073Y-30214D01*
X61163Y-30177D01*
X61232Y-30108D01*
X61269Y-30017D01*
X61269Y-31711D01*
X61241Y-31779D01*
X61241Y-31852D01*
X61269Y-31920D01*
X61321Y-31971D01*
X61389Y-31999D01*
X61450Y-31999D01*
X61462Y-32026D01*
X61514Y-32077D01*
X61582Y-32105D01*
X61655Y-32105D01*
X61723Y-32077D01*
X61774Y-32025D01*
X61802Y-31957D01*
X61802Y-33401D01*
X61800Y-33401D01*
X61703Y-33401D01*
X61613Y-33438D01*
X61544Y-33507D01*
X61507Y-33598D01*
X61507Y-33695D01*
X61544Y-33785D01*
X61613Y-33854D01*
X61704Y-33891D01*
X61801Y-33891D01*
X61891Y-33854D01*
X61960Y-33785D01*
X61997Y-33694D01*
X61997Y-33618D01*
X62078Y-33651D01*
X62175Y-33651D01*
X62265Y-33614D01*
X62334Y-33545D01*
X62371Y-33454D01*
X62371Y-33357D01*
X62345Y-33295D01*
X62392Y-33342D01*
X62483Y-33379D01*
X62531Y-33379D01*
X62531Y-33380D01*
X62568Y-33470D01*
X62637Y-33539D01*
X62728Y-33576D01*
X62825Y-33576D01*
X62915Y-33539D01*
X62984Y-33470D01*
X63021Y-33379D01*
X63021Y-35187D01*
X62997Y-35178D01*
X62924Y-35178D01*
X62856Y-35206D01*
X62805Y-35258D01*
X62778Y-35323D01*
X62778Y-34579D01*
X62778Y-34506D01*
X62750Y-34438D01*
X62698Y-34387D01*
X62630Y-34359D01*
X62557Y-34359D01*
X62489Y-34387D01*
X62438Y-34439D01*
X62410Y-34507D01*
X62410Y-34580D01*
X62438Y-34648D01*
X62490Y-34699D01*
X62558Y-34727D01*
X62631Y-34727D01*
X62699Y-34699D01*
X62750Y-34647D01*
X62778Y-34579D01*
X62778Y-35323D01*
X62777Y-35326D01*
X62777Y-35399D01*
X62805Y-35467D01*
X62857Y-35518D01*
X62925Y-35546D01*
X62998Y-35546D01*
X63066Y-35518D01*
X63117Y-35466D01*
X63145Y-35398D01*
X63145Y-40281D01*
X63133Y-40281D01*
X63133Y-39812D01*
X63133Y-39739D01*
X63105Y-39671D01*
X63053Y-39620D01*
X62985Y-39592D01*
X62912Y-39592D01*
X62844Y-39620D01*
X62793Y-39672D01*
X62765Y-39740D01*
X62765Y-39813D01*
X62793Y-39881D01*
X62845Y-39932D01*
X62913Y-39960D01*
X62986Y-39960D01*
X63054Y-39932D01*
X63105Y-39880D01*
X63133Y-39812D01*
X63133Y-40281D01*
X62755Y-40279D01*
X62755Y-36945D01*
X62755Y-36872D01*
X62727Y-36804D01*
X62675Y-36753D01*
X62607Y-36725D01*
X62534Y-36725D01*
X62466Y-36753D01*
X62427Y-36791D01*
X62404Y-36734D01*
X62404Y-34634D01*
X62404Y-34561D01*
X62376Y-34493D01*
X62324Y-34442D01*
X62256Y-34414D01*
X62183Y-34414D01*
X62115Y-34442D01*
X62064Y-34494D01*
X62036Y-34562D01*
X62036Y-34635D01*
X62064Y-34703D01*
X62116Y-34754D01*
X62161Y-34772D01*
X62112Y-34793D01*
X62061Y-34845D01*
X62033Y-34913D01*
X62033Y-34986D01*
X62061Y-35054D01*
X62113Y-35105D01*
X62181Y-35133D01*
X62254Y-35133D01*
X62322Y-35105D01*
X62373Y-35053D01*
X62401Y-34985D01*
X62401Y-34912D01*
X62373Y-34844D01*
X62321Y-34793D01*
X62275Y-34774D01*
X62325Y-34754D01*
X62376Y-34702D01*
X62404Y-34634D01*
X62404Y-36734D01*
X62352Y-36683D01*
X62284Y-36655D01*
X62211Y-36655D01*
X62143Y-36683D01*
X62092Y-36735D01*
X62079Y-36764D01*
X62049Y-36777D01*
X61998Y-36829D01*
X61995Y-36836D01*
X61995Y-35386D01*
X61995Y-35313D01*
X61967Y-35245D01*
X61915Y-35194D01*
X61864Y-35173D01*
X61877Y-35168D01*
X61928Y-35116D01*
X61956Y-35048D01*
X61956Y-34975D01*
X61928Y-34907D01*
X61876Y-34856D01*
X61808Y-34828D01*
X61735Y-34828D01*
X61667Y-34856D01*
X61616Y-34908D01*
X61588Y-34976D01*
X61588Y-34981D01*
X61565Y-34926D01*
X61515Y-34876D01*
X61515Y-34528D01*
X61515Y-34455D01*
X61487Y-34387D01*
X61435Y-34336D01*
X61410Y-34325D01*
X61410Y-33320D01*
X61410Y-33223D01*
X61373Y-33133D01*
X61304Y-33064D01*
X61213Y-33027D01*
X61210Y-33027D01*
X61210Y-30721D01*
X61210Y-30624D01*
X61173Y-30534D01*
X61104Y-30465D01*
X61013Y-30428D01*
X60916Y-30428D01*
X60826Y-30465D01*
X60757Y-30534D01*
X60720Y-30625D01*
X60720Y-30722D01*
X60757Y-30812D01*
X60826Y-30881D01*
X60917Y-30918D01*
X61014Y-30918D01*
X61104Y-30881D01*
X61173Y-30812D01*
X61210Y-30721D01*
X61210Y-33027D01*
X61116Y-33027D01*
X61026Y-33064D01*
X60957Y-33133D01*
X60920Y-33224D01*
X60920Y-33321D01*
X60957Y-33411D01*
X61026Y-33480D01*
X61117Y-33517D01*
X61214Y-33517D01*
X61304Y-33480D01*
X61373Y-33411D01*
X61410Y-33320D01*
X61410Y-34325D01*
X61367Y-34308D01*
X61294Y-34308D01*
X61226Y-34336D01*
X61175Y-34388D01*
X61147Y-34456D01*
X61147Y-34529D01*
X61175Y-34597D01*
X61227Y-34648D01*
X61295Y-34676D01*
X61368Y-34676D01*
X61436Y-34648D01*
X61487Y-34596D01*
X61515Y-34528D01*
X61515Y-34876D01*
X61513Y-34875D01*
X61445Y-34847D01*
X61372Y-34847D01*
X61304Y-34875D01*
X61253Y-34927D01*
X61225Y-34995D01*
X61225Y-35068D01*
X61253Y-35136D01*
X61305Y-35187D01*
X61314Y-35191D01*
X61265Y-35242D01*
X61237Y-35310D01*
X61237Y-35383D01*
X61265Y-35451D01*
X61317Y-35502D01*
X61385Y-35530D01*
X61458Y-35530D01*
X61526Y-35502D01*
X61577Y-35450D01*
X61605Y-35382D01*
X61605Y-35309D01*
X61577Y-35241D01*
X61525Y-35190D01*
X61515Y-35185D01*
X61565Y-35135D01*
X61593Y-35067D01*
X61593Y-35061D01*
X61616Y-35117D01*
X61668Y-35168D01*
X61718Y-35188D01*
X61706Y-35194D01*
X61655Y-35246D01*
X61627Y-35314D01*
X61627Y-35387D01*
X61655Y-35455D01*
X61707Y-35506D01*
X61775Y-35534D01*
X61848Y-35534D01*
X61916Y-35506D01*
X61967Y-35454D01*
X61995Y-35386D01*
X61995Y-36836D01*
X61970Y-36897D01*
X61970Y-36970D01*
X61998Y-37038D01*
X62050Y-37089D01*
X62118Y-37117D01*
X62191Y-37117D01*
X62259Y-37089D01*
X62310Y-37037D01*
X62322Y-37007D01*
X62353Y-36995D01*
X62391Y-36956D01*
X62415Y-37014D01*
X62467Y-37065D01*
X62535Y-37093D01*
X62608Y-37093D01*
X62676Y-37065D01*
X62727Y-37013D01*
X62755Y-36945D01*
X62755Y-40279D01*
X62438Y-40277D01*
X62438Y-37656D01*
X62438Y-37583D01*
X62410Y-37515D01*
X62358Y-37464D01*
X62290Y-37436D01*
X62217Y-37436D01*
X62149Y-37464D01*
X62098Y-37516D01*
X62080Y-37559D01*
X62035Y-37578D01*
X61984Y-37630D01*
X61983Y-37632D01*
X61983Y-37323D01*
X61983Y-37250D01*
X61955Y-37182D01*
X61903Y-37131D01*
X61835Y-37103D01*
X61762Y-37103D01*
X61694Y-37131D01*
X61643Y-37183D01*
X61639Y-37192D01*
X61639Y-36881D01*
X61639Y-36808D01*
X61611Y-36740D01*
X61597Y-36726D01*
X61597Y-35760D01*
X61597Y-35687D01*
X61569Y-35619D01*
X61517Y-35568D01*
X61449Y-35540D01*
X61376Y-35540D01*
X61308Y-35568D01*
X61257Y-35620D01*
X61229Y-35688D01*
X61229Y-35761D01*
X61257Y-35829D01*
X61309Y-35880D01*
X61377Y-35908D01*
X61450Y-35908D01*
X61518Y-35880D01*
X61569Y-35828D01*
X61597Y-35760D01*
X61597Y-36726D01*
X61559Y-36689D01*
X61491Y-36661D01*
X61418Y-36661D01*
X61350Y-36689D01*
X61299Y-36741D01*
X61287Y-36768D01*
X61258Y-36781D01*
X61207Y-36833D01*
X61192Y-36869D01*
X61192Y-35756D01*
X61192Y-35683D01*
X61164Y-35615D01*
X61112Y-35564D01*
X61044Y-35536D01*
X60971Y-35536D01*
X60903Y-35564D01*
X60852Y-35616D01*
X60824Y-35684D01*
X60824Y-35757D01*
X60852Y-35825D01*
X60904Y-35876D01*
X60972Y-35904D01*
X61045Y-35904D01*
X61113Y-35876D01*
X61164Y-35824D01*
X61192Y-35756D01*
X61192Y-36869D01*
X61179Y-36901D01*
X61179Y-36974D01*
X61207Y-37042D01*
X61259Y-37093D01*
X61327Y-37121D01*
X61348Y-37121D01*
X61285Y-37147D01*
X61234Y-37199D01*
X61206Y-37267D01*
X61206Y-37340D01*
X61234Y-37408D01*
X61286Y-37459D01*
X61343Y-37482D01*
X61295Y-37532D01*
X61267Y-37600D01*
X61267Y-37673D01*
X61295Y-37741D01*
X61347Y-37792D01*
X61415Y-37820D01*
X61488Y-37820D01*
X61556Y-37792D01*
X61607Y-37740D01*
X61635Y-37672D01*
X61635Y-37599D01*
X61607Y-37531D01*
X61555Y-37480D01*
X61497Y-37456D01*
X61546Y-37407D01*
X61574Y-37339D01*
X61574Y-37266D01*
X61546Y-37198D01*
X61494Y-37147D01*
X61426Y-37119D01*
X61404Y-37119D01*
X61468Y-37093D01*
X61519Y-37041D01*
X61530Y-37013D01*
X61560Y-37001D01*
X61611Y-36949D01*
X61639Y-36881D01*
X61639Y-37192D01*
X61615Y-37251D01*
X61615Y-37324D01*
X61643Y-37392D01*
X61695Y-37443D01*
X61763Y-37471D01*
X61836Y-37471D01*
X61904Y-37443D01*
X61955Y-37391D01*
X61983Y-37323D01*
X61983Y-37632D01*
X61956Y-37698D01*
X61956Y-37771D01*
X61984Y-37839D01*
X62036Y-37890D01*
X62104Y-37918D01*
X62177Y-37918D01*
X62245Y-37890D01*
X62296Y-37838D01*
X62313Y-37794D01*
X62359Y-37776D01*
X62410Y-37724D01*
X62438Y-37656D01*
X62438Y-40277D01*
X62019Y-40274D01*
X62019Y-38894D01*
X62019Y-38821D01*
X61991Y-38753D01*
X61984Y-38746D01*
X61984Y-38111D01*
X61984Y-38038D01*
X61956Y-37970D01*
X61904Y-37919D01*
X61836Y-37891D01*
X61763Y-37891D01*
X61695Y-37919D01*
X61644Y-37971D01*
X61616Y-38039D01*
X61616Y-38112D01*
X61644Y-38180D01*
X61696Y-38231D01*
X61764Y-38259D01*
X61837Y-38259D01*
X61905Y-38231D01*
X61956Y-38179D01*
X61984Y-38111D01*
X61984Y-38746D01*
X61939Y-38702D01*
X61871Y-38674D01*
X61798Y-38674D01*
X61730Y-38702D01*
X61679Y-38754D01*
X61651Y-38822D01*
X61651Y-38895D01*
X61679Y-38963D01*
X61731Y-39014D01*
X61799Y-39042D01*
X61872Y-39042D01*
X61940Y-39014D01*
X61991Y-38962D01*
X62019Y-38894D01*
X62019Y-40274D01*
X61208Y-40269D01*
X61208Y-39686D01*
X61208Y-39613D01*
X61180Y-39545D01*
X61128Y-39494D01*
X61060Y-39466D01*
X60987Y-39466D01*
X60919Y-39494D01*
X60868Y-39546D01*
X60840Y-39614D01*
X60840Y-39687D01*
X60868Y-39755D01*
X60920Y-39806D01*
X60988Y-39834D01*
X61061Y-39834D01*
X61129Y-39806D01*
X61180Y-39754D01*
X61208Y-39686D01*
X61208Y-40269D01*
X60890Y-40268D01*
X59678Y-40261D01*
X59664Y-39857D01*
X59668Y-39526D01*
X59752Y-39390D01*
X59795Y-39408D01*
X59868Y-39408D01*
X59936Y-39380D01*
X59987Y-39328D01*
X60015Y-39260D01*
X60015Y-39187D01*
X59987Y-39119D01*
X59945Y-39078D01*
X60230Y-38617D01*
X60297Y-38617D01*
X60365Y-38589D01*
X60416Y-38537D01*
X60444Y-38469D01*
X60444Y-38396D01*
X60416Y-38328D01*
X60412Y-38324D01*
X60474Y-38223D01*
X60498Y-38247D01*
X60566Y-38275D01*
X60639Y-38275D01*
X60707Y-38247D01*
X60758Y-38195D01*
X60786Y-38127D01*
X60786Y-38054D01*
X60758Y-37986D01*
X60706Y-37935D01*
X60638Y-37907D01*
X60565Y-37907D01*
X60513Y-37928D01*
X60492Y-37024D01*
X60534Y-37065D01*
X60602Y-37093D01*
X60675Y-37093D01*
X60743Y-37065D01*
X60794Y-37013D01*
X60822Y-36945D01*
X60822Y-36872D01*
X60794Y-36804D01*
X60742Y-36753D01*
X60674Y-36725D01*
X60601Y-36725D01*
X60533Y-36753D01*
X60486Y-36799D01*
X60482Y-36621D01*
X60506Y-36644D01*
X60574Y-36672D01*
X60647Y-36672D01*
X60715Y-36644D01*
X60766Y-36592D01*
X60794Y-36524D01*
X60794Y-36451D01*
X60766Y-36383D01*
X60714Y-36332D01*
X60646Y-36304D01*
X60573Y-36304D01*
X60505Y-36332D01*
X60476Y-36361D01*
X60464Y-35842D01*
X60502Y-35880D01*
X60570Y-35908D01*
X60643Y-35908D01*
X60711Y-35880D01*
X60762Y-35828D01*
X60790Y-35760D01*
X60790Y-35687D01*
X60762Y-35619D01*
X60710Y-35568D01*
X60642Y-35540D01*
X60569Y-35540D01*
X60501Y-35568D01*
X60458Y-35611D01*
X60453Y-35381D01*
X60474Y-35432D01*
X60526Y-35483D01*
X60594Y-35511D01*
X60667Y-35511D01*
X60735Y-35483D01*
X60786Y-35431D01*
X60814Y-35363D01*
X60814Y-35290D01*
X60786Y-35222D01*
X60734Y-35171D01*
X60666Y-35143D01*
X60639Y-35143D01*
X60639Y-30694D01*
X60639Y-30597D01*
X60602Y-30507D01*
X60533Y-30438D01*
X60442Y-30401D01*
X60345Y-30401D01*
X60255Y-30438D01*
X60236Y-30456D01*
X60218Y-30438D01*
X60127Y-30401D01*
X60030Y-30401D01*
X59940Y-30438D01*
X59933Y-30444D01*
X59907Y-30418D01*
X59816Y-30381D01*
X59719Y-30381D01*
X59629Y-30418D01*
X59606Y-30440D01*
X59584Y-30418D01*
X59493Y-30381D01*
X59396Y-30381D01*
X59306Y-30418D01*
X59283Y-30440D01*
X59273Y-30430D01*
X59182Y-30393D01*
X59085Y-30393D01*
X58995Y-30430D01*
X58986Y-30438D01*
X58958Y-30410D01*
X58867Y-30373D01*
X58770Y-30373D01*
X58680Y-30410D01*
X58671Y-30418D01*
X58643Y-30390D01*
X58552Y-30353D01*
X58455Y-30353D01*
X58365Y-30390D01*
X58350Y-30405D01*
X58328Y-30383D01*
X58237Y-30346D01*
X58140Y-30346D01*
X58050Y-30383D01*
X58028Y-30405D01*
X58013Y-30390D01*
X57922Y-30353D01*
X57825Y-30353D01*
X57735Y-30390D01*
X57722Y-30403D01*
X57698Y-30379D01*
X57607Y-30342D01*
X57510Y-30342D01*
X57420Y-30379D01*
X57400Y-30399D01*
X57391Y-30390D01*
X57300Y-30353D01*
X57203Y-30353D01*
X57113Y-30390D01*
X57044Y-30459D01*
X57007Y-30550D01*
X57007Y-30647D01*
X57044Y-30737D01*
X57113Y-30806D01*
X57204Y-30843D01*
X57301Y-30843D01*
X57391Y-30806D01*
X57411Y-30786D01*
X57420Y-30795D01*
X57511Y-30832D01*
X57608Y-30832D01*
X57698Y-30795D01*
X57711Y-30782D01*
X57735Y-30806D01*
X57826Y-30843D01*
X57923Y-30843D01*
X58013Y-30806D01*
X58035Y-30784D01*
X58050Y-30799D01*
X58141Y-30836D01*
X58238Y-30836D01*
X58328Y-30799D01*
X58343Y-30784D01*
X58365Y-30806D01*
X58456Y-30843D01*
X58553Y-30843D01*
X58643Y-30806D01*
X58651Y-30797D01*
X58680Y-30826D01*
X58771Y-30863D01*
X58868Y-30863D01*
X58958Y-30826D01*
X58966Y-30817D01*
X58995Y-30846D01*
X59086Y-30883D01*
X59183Y-30883D01*
X59273Y-30846D01*
X59295Y-30823D01*
X59306Y-30834D01*
X59397Y-30871D01*
X59494Y-30871D01*
X59584Y-30834D01*
X59606Y-30811D01*
X59629Y-30834D01*
X59720Y-30871D01*
X59817Y-30871D01*
X59907Y-30834D01*
X59913Y-30827D01*
X59940Y-30854D01*
X60031Y-30891D01*
X60128Y-30891D01*
X60218Y-30854D01*
X60236Y-30835D01*
X60255Y-30854D01*
X60346Y-30891D01*
X60443Y-30891D01*
X60533Y-30854D01*
X60602Y-30785D01*
X60639Y-30694D01*
X60639Y-35143D01*
X60593Y-35143D01*
X60525Y-35171D01*
X60474Y-35223D01*
X60450Y-35279D01*
X60447Y-35117D01*
X60188Y-35084D01*
X58845Y-35089D01*
X58845Y-34367D01*
X58845Y-34294D01*
X58817Y-34226D01*
X58765Y-34175D01*
X58697Y-34147D01*
X58624Y-34147D01*
X58556Y-34175D01*
X58505Y-34227D01*
X58477Y-34295D01*
X58477Y-34368D01*
X58505Y-34436D01*
X58557Y-34487D01*
X58625Y-34515D01*
X58698Y-34515D01*
X58766Y-34487D01*
X58817Y-34435D01*
X58845Y-34367D01*
X58845Y-35089D01*
X58362Y-35092D01*
X56696Y-34275D01*
X56037Y-33505D01*
X56037Y-30011D01*
X56037Y-29841D01*
X55972Y-29684D01*
X55853Y-29564D01*
X55696Y-29498D01*
X55526Y-29498D01*
X55369Y-29563D01*
X55249Y-29682D01*
X55183Y-29839D01*
X55183Y-30009D01*
X55248Y-30166D01*
X55367Y-30286D01*
X55524Y-30352D01*
X55694Y-30352D01*
X55851Y-30287D01*
X55971Y-30168D01*
X56037Y-30011D01*
X56037Y-33505D01*
X55037Y-32337D01*
X55037Y-30011D01*
X55037Y-29841D01*
X54972Y-29684D01*
X54853Y-29564D01*
X54696Y-29498D01*
X54526Y-29498D01*
X54369Y-29563D01*
X54249Y-29682D01*
X54183Y-29839D01*
X54183Y-30009D01*
X54248Y-30166D01*
X54367Y-30286D01*
X54524Y-30352D01*
X54694Y-30352D01*
X54851Y-30287D01*
X54971Y-30168D01*
X55037Y-30011D01*
X55037Y-32337D01*
X54094Y-31236D01*
X54037Y-31190D01*
X54037Y-30011D01*
X54037Y-29841D01*
X53972Y-29684D01*
X53853Y-29564D01*
X53696Y-29498D01*
X53526Y-29498D01*
X53369Y-29563D01*
X53249Y-29682D01*
X53183Y-29839D01*
X53183Y-30009D01*
X53248Y-30166D01*
X53367Y-30286D01*
X53524Y-30352D01*
X53694Y-30352D01*
X53851Y-30287D01*
X53971Y-30168D01*
X54037Y-30011D01*
X54037Y-31190D01*
X53820Y-31017D01*
X53037Y-31029D01*
X53037Y-30011D01*
X53037Y-29841D01*
X52972Y-29684D01*
X52853Y-29564D01*
X52696Y-29498D01*
X52526Y-29498D01*
X52369Y-29563D01*
X52249Y-29682D01*
X52183Y-29839D01*
X52183Y-30009D01*
X52248Y-30166D01*
X52367Y-30286D01*
X52524Y-30352D01*
X52694Y-30352D01*
X52851Y-30287D01*
X52971Y-30168D01*
X53037Y-30011D01*
X53037Y-31029D01*
X51995Y-31046D01*
X51995Y-29966D01*
X51981Y-29815D01*
X51949Y-29740D01*
X51894Y-29712D01*
X51823Y-29783D01*
X51823Y-29641D01*
X51795Y-29586D01*
X51651Y-29540D01*
X51500Y-29554D01*
X51425Y-29586D01*
X51397Y-29641D01*
X51610Y-29854D01*
X51823Y-29641D01*
X51823Y-29783D01*
X51681Y-29925D01*
X51894Y-30138D01*
X51949Y-30110D01*
X51995Y-29966D01*
X51995Y-31046D01*
X51823Y-31048D01*
X51823Y-30209D01*
X51610Y-29996D01*
X51539Y-30067D01*
X51539Y-29925D01*
X51326Y-29712D01*
X51271Y-29740D01*
X51225Y-29884D01*
X51239Y-30035D01*
X51271Y-30110D01*
X51326Y-30138D01*
X51539Y-29925D01*
X51539Y-30067D01*
X51397Y-30209D01*
X51425Y-30264D01*
X51569Y-30310D01*
X51720Y-30296D01*
X51795Y-30264D01*
X51823Y-30209D01*
X51823Y-31048D01*
X51183Y-31059D01*
X51157Y-28908D01*
X62251Y-28893D01*
X62251Y-30591D01*
X62250Y-30596D01*
X62266Y-30671D01*
X62308Y-30735D01*
X62334Y-30760D01*
X62334Y-30777D01*
X62371Y-30867D01*
X62440Y-30936D01*
X62531Y-30973D01*
X62628Y-30973D01*
X62674Y-30953D01*
X63225Y-31446D01*
X63180Y-31465D01*
X63111Y-31534D01*
X63074Y-31625D01*
X63074Y-31722D01*
X63111Y-31812D01*
X63180Y-31881D01*
X63271Y-31918D01*
X63368Y-31918D01*
X63458Y-31881D01*
X63527Y-31812D01*
X63555Y-31740D01*
X63736Y-31902D01*
X63720Y-31944D01*
X63720Y-32041D01*
X63757Y-32131D01*
X63826Y-32200D01*
X63917Y-32237D01*
X64014Y-32237D01*
X64080Y-32209D01*
X64450Y-32540D01*
X64453Y-32545D01*
X64522Y-32614D01*
X64543Y-32622D01*
X64781Y-32835D01*
X63843Y-32835D01*
X63768Y-32850D01*
X63704Y-32892D01*
X63702Y-32894D01*
X63286Y-33310D01*
X63244Y-33374D01*
X63228Y-33449D01*
X63229Y-33453D01*
X63229Y-33760D01*
X63244Y-33835D01*
X63286Y-33899D01*
X63350Y-33941D01*
X63425Y-33956D01*
X63500Y-33941D01*
X63564Y-33899D01*
X63606Y-33835D01*
X63621Y-33760D01*
X63621Y-33530D01*
X63924Y-33227D01*
X64947Y-33227D01*
X64959Y-33239D01*
X65050Y-33276D01*
X65147Y-33276D01*
X65234Y-33239D01*
X65257Y-33259D01*
X65257Y-33861D01*
X65241Y-33877D01*
X65204Y-33968D01*
X65204Y-34065D01*
X65241Y-34155D01*
X65310Y-34224D01*
X65401Y-34261D01*
X65455Y-34261D01*
X65463Y-34278D01*
X65412Y-34330D01*
X65396Y-34330D01*
X65306Y-34367D01*
X65237Y-34436D01*
X65200Y-34527D01*
X65200Y-34624D01*
X65237Y-34714D01*
X65306Y-34783D01*
X65397Y-34820D01*
X65432Y-34820D01*
X65457Y-34879D01*
X65526Y-34948D01*
X65617Y-34985D01*
X65686Y-34985D01*
X65686Y-36036D01*
X65355Y-36367D01*
X65145Y-36367D01*
X65133Y-36367D01*
X65133Y-34351D01*
X65133Y-34278D01*
X65105Y-34210D01*
X65053Y-34159D01*
X64985Y-34131D01*
X64912Y-34131D01*
X64844Y-34159D01*
X64793Y-34211D01*
X64765Y-34279D01*
X64765Y-34352D01*
X64793Y-34420D01*
X64845Y-34471D01*
X64913Y-34499D01*
X64986Y-34499D01*
X65054Y-34471D01*
X65105Y-34419D01*
X65133Y-34351D01*
X65133Y-36367D01*
X65024Y-36367D01*
X64949Y-36382D01*
X64885Y-36424D01*
X64843Y-36488D01*
X64828Y-36563D01*
X64843Y-36638D01*
X64885Y-36702D01*
X64933Y-36733D01*
X64889Y-36763D01*
X64847Y-36827D01*
X64832Y-36902D01*
X64847Y-36977D01*
X64885Y-37036D01*
X64877Y-37042D01*
X64835Y-37106D01*
X64820Y-37181D01*
X64835Y-37256D01*
X64877Y-37320D01*
X64941Y-37362D01*
X65016Y-37377D01*
X65962Y-37377D01*
X65962Y-37481D01*
X65026Y-37481D01*
X64984Y-37472D01*
X64909Y-37488D01*
X64845Y-37530D01*
X64803Y-37594D01*
X64787Y-37669D01*
X64803Y-37744D01*
X64845Y-37808D01*
X64851Y-37813D01*
X64853Y-37816D01*
X64875Y-37830D01*
X64875Y-37849D01*
X64861Y-37852D01*
X64789Y-37899D01*
X64742Y-37971D01*
X64724Y-38055D01*
X64742Y-38139D01*
X64789Y-38211D01*
X64871Y-38293D01*
X64828Y-38337D01*
X64800Y-38405D01*
X64800Y-38478D01*
X64828Y-38546D01*
X64880Y-38597D01*
X64948Y-38625D01*
X65021Y-38625D01*
X65089Y-38597D01*
X65131Y-38553D01*
X65962Y-39383D01*
X65962Y-39485D01*
X65962Y-39485D01*
G37*
G54D22*
X65962Y-39485D02*
X65680Y-39485D01*
X65108Y-38912D01*
X65044Y-38870D01*
X64969Y-38854D01*
X64894Y-38870D01*
X64830Y-38912D01*
X64788Y-38976D01*
X64772Y-39051D01*
X64788Y-39126D01*
X64830Y-39190D01*
X64916Y-39276D01*
X64915Y-39277D01*
X64864Y-39329D01*
X64836Y-39397D01*
X64836Y-39470D01*
X64844Y-39491D01*
X64833Y-39499D01*
X64791Y-39563D01*
X64775Y-39638D01*
X64791Y-39713D01*
X64833Y-39777D01*
X64990Y-39934D01*
X64943Y-39934D01*
X64875Y-39962D01*
X64824Y-40014D01*
X64796Y-40082D01*
X64796Y-40155D01*
X64824Y-40223D01*
X64876Y-40274D01*
X64923Y-40293D01*
X64723Y-40291D01*
X64723Y-38127D01*
X64723Y-38054D01*
X64695Y-37986D01*
X64643Y-37935D01*
X64575Y-37907D01*
X64502Y-37907D01*
X64434Y-37935D01*
X64383Y-37987D01*
X64361Y-38040D01*
X64361Y-36603D01*
X64361Y-36530D01*
X64333Y-36462D01*
X64281Y-36411D01*
X64213Y-36383D01*
X64140Y-36383D01*
X64072Y-36411D01*
X64021Y-36463D01*
X63993Y-36531D01*
X63993Y-36604D01*
X64021Y-36672D01*
X64073Y-36723D01*
X64141Y-36751D01*
X64214Y-36751D01*
X64282Y-36723D01*
X64333Y-36671D01*
X64361Y-36603D01*
X64361Y-38040D01*
X64355Y-38055D01*
X64355Y-38128D01*
X64383Y-38196D01*
X64435Y-38247D01*
X64503Y-38275D01*
X64576Y-38275D01*
X64644Y-38247D01*
X64695Y-38195D01*
X64723Y-38127D01*
X64723Y-40291D01*
X63960Y-40287D01*
X63960Y-35347D01*
X63960Y-35274D01*
X63932Y-35206D01*
X63880Y-35155D01*
X63812Y-35127D01*
X63739Y-35127D01*
X63671Y-35155D01*
X63620Y-35207D01*
X63592Y-35275D01*
X63592Y-35348D01*
X63620Y-35416D01*
X63672Y-35467D01*
X63740Y-35495D01*
X63813Y-35495D01*
X63881Y-35467D01*
X63932Y-35415D01*
X63960Y-35347D01*
X63960Y-40287D01*
X63936Y-40286D01*
X63936Y-39300D01*
X63936Y-39227D01*
X63908Y-39159D01*
X63856Y-39108D01*
X63788Y-39080D01*
X63715Y-39080D01*
X63647Y-39108D01*
X63596Y-39160D01*
X63568Y-39228D01*
X63568Y-39301D01*
X63596Y-39369D01*
X63648Y-39420D01*
X63716Y-39448D01*
X63789Y-39448D01*
X63857Y-39420D01*
X63908Y-39368D01*
X63936Y-39300D01*
X63936Y-40286D01*
X63554Y-40284D01*
X63554Y-37705D01*
X63554Y-37632D01*
X63526Y-37564D01*
X63474Y-37513D01*
X63413Y-37488D01*
X63475Y-37463D01*
X63526Y-37411D01*
X63554Y-37343D01*
X63554Y-37270D01*
X63526Y-37202D01*
X63523Y-37199D01*
X63523Y-35382D01*
X63523Y-35309D01*
X63495Y-35241D01*
X63443Y-35190D01*
X63375Y-35162D01*
X63302Y-35162D01*
X63234Y-35190D01*
X63183Y-35242D01*
X63155Y-35310D01*
X63155Y-35383D01*
X63183Y-35451D01*
X63235Y-35502D01*
X63303Y-35530D01*
X63376Y-35530D01*
X63444Y-35502D01*
X63495Y-35450D01*
X63523Y-35382D01*
X63523Y-37199D01*
X63474Y-37151D01*
X63406Y-37123D01*
X63333Y-37123D01*
X63265Y-37151D01*
X63214Y-37203D01*
X63186Y-37271D01*
X63186Y-37344D01*
X63214Y-37412D01*
X63266Y-37463D01*
X63326Y-37487D01*
X63265Y-37513D01*
X63214Y-37565D01*
X63186Y-37633D01*
X63186Y-37706D01*
X63214Y-37774D01*
X63266Y-37825D01*
X63334Y-37853D01*
X63407Y-37853D01*
X63475Y-37825D01*
X63526Y-37773D01*
X63554Y-37705D01*
X63554Y-40284D01*
X63145Y-40281D01*
X63145Y-35398D01*
X63145Y-35325D01*
X63117Y-35257D01*
X63065Y-35206D01*
X63021Y-35187D01*
X63021Y-33379D01*
X63021Y-33282D01*
X62984Y-33192D01*
X62915Y-33123D01*
X62851Y-33096D01*
X62851Y-31611D01*
X62851Y-31514D01*
X62814Y-31424D01*
X62745Y-31355D01*
X62654Y-31318D01*
X62557Y-31318D01*
X62467Y-31355D01*
X62398Y-31424D01*
X62361Y-31515D01*
X62361Y-31612D01*
X62398Y-31702D01*
X62467Y-31771D01*
X62558Y-31808D01*
X62655Y-31808D01*
X62745Y-31771D01*
X62814Y-31702D01*
X62851Y-31611D01*
X62851Y-33096D01*
X62824Y-33086D01*
X62776Y-33086D01*
X62776Y-33085D01*
X62739Y-32995D01*
X62670Y-32926D01*
X62579Y-32889D01*
X62482Y-32889D01*
X62392Y-32926D01*
X62323Y-32995D01*
X62286Y-33086D01*
X62286Y-33183D01*
X62311Y-33244D01*
X62265Y-33198D01*
X62221Y-33180D01*
X62221Y-31331D01*
X62221Y-31234D01*
X62184Y-31144D01*
X62115Y-31075D01*
X62024Y-31038D01*
X61927Y-31038D01*
X61837Y-31075D01*
X61768Y-31144D01*
X61731Y-31235D01*
X61731Y-31332D01*
X61768Y-31422D01*
X61837Y-31491D01*
X61928Y-31528D01*
X62025Y-31528D01*
X62115Y-31491D01*
X62184Y-31422D01*
X62221Y-31331D01*
X62221Y-33180D01*
X62174Y-33161D01*
X62077Y-33161D01*
X61987Y-33198D01*
X61918Y-33267D01*
X61881Y-33358D01*
X61881Y-33433D01*
X61802Y-33401D01*
X61802Y-31957D01*
X61802Y-31884D01*
X61774Y-31816D01*
X61722Y-31765D01*
X61654Y-31737D01*
X61592Y-31737D01*
X61581Y-31710D01*
X61529Y-31659D01*
X61461Y-31631D01*
X61388Y-31631D01*
X61320Y-31659D01*
X61269Y-31711D01*
X61269Y-30017D01*
X61269Y-29920D01*
X61232Y-29830D01*
X61163Y-29761D01*
X61072Y-29724D01*
X60975Y-29724D01*
X60885Y-29761D01*
X60816Y-29830D01*
X60779Y-29921D01*
X60779Y-30018D01*
X60816Y-30108D01*
X60885Y-30177D01*
X60976Y-30214D01*
X61073Y-30214D01*
X61163Y-30177D01*
X61232Y-30108D01*
X61269Y-30017D01*
X61269Y-31711D01*
X61241Y-31779D01*
X61241Y-31852D01*
X61269Y-31920D01*
X61321Y-31971D01*
X61389Y-31999D01*
X61450Y-31999D01*
X61462Y-32026D01*
X61514Y-32077D01*
X61582Y-32105D01*
X61655Y-32105D01*
X61723Y-32077D01*
X61774Y-32025D01*
X61802Y-31957D01*
X61802Y-33401D01*
X61800Y-33401D01*
X61703Y-33401D01*
X61613Y-33438D01*
X61544Y-33507D01*
X61507Y-33598D01*
X61507Y-33695D01*
X61544Y-33785D01*
X61613Y-33854D01*
X61704Y-33891D01*
X61801Y-33891D01*
X61891Y-33854D01*
X61960Y-33785D01*
X61997Y-33694D01*
X61997Y-33618D01*
X62078Y-33651D01*
X62175Y-33651D01*
X62265Y-33614D01*
X62334Y-33545D01*
X62371Y-33454D01*
X62371Y-33357D01*
X62345Y-33295D01*
X62392Y-33342D01*
X62483Y-33379D01*
X62531Y-33379D01*
X62531Y-33380D01*
X62568Y-33470D01*
X62637Y-33539D01*
X62728Y-33576D01*
X62825Y-33576D01*
X62915Y-33539D01*
X62984Y-33470D01*
X63021Y-33379D01*
X63021Y-35187D01*
X62997Y-35178D01*
X62924Y-35178D01*
X62856Y-35206D01*
X62805Y-35258D01*
X62778Y-35323D01*
X62778Y-34579D01*
X62778Y-34506D01*
X62750Y-34438D01*
X62698Y-34387D01*
X62630Y-34359D01*
X62557Y-34359D01*
X62489Y-34387D01*
X62438Y-34439D01*
X62410Y-34507D01*
X62410Y-34580D01*
X62438Y-34648D01*
X62490Y-34699D01*
X62558Y-34727D01*
X62631Y-34727D01*
X62699Y-34699D01*
X62750Y-34647D01*
X62778Y-34579D01*
X62778Y-35323D01*
X62777Y-35326D01*
X62777Y-35399D01*
X62805Y-35467D01*
X62857Y-35518D01*
X62925Y-35546D01*
X62998Y-35546D01*
X63066Y-35518D01*
X63117Y-35466D01*
X63145Y-35398D01*
X63145Y-40281D01*
X63133Y-40281D01*
X63133Y-39812D01*
X63133Y-39739D01*
X63105Y-39671D01*
X63053Y-39620D01*
X62985Y-39592D01*
X62912Y-39592D01*
X62844Y-39620D01*
X62793Y-39672D01*
X62765Y-39740D01*
X62765Y-39813D01*
X62793Y-39881D01*
X62845Y-39932D01*
X62913Y-39960D01*
X62986Y-39960D01*
X63054Y-39932D01*
X63105Y-39880D01*
X63133Y-39812D01*
X63133Y-40281D01*
X62755Y-40279D01*
X62755Y-36945D01*
X62755Y-36872D01*
X62727Y-36804D01*
X62675Y-36753D01*
X62607Y-36725D01*
X62534Y-36725D01*
X62466Y-36753D01*
X62427Y-36791D01*
X62404Y-36734D01*
X62404Y-34634D01*
X62404Y-34561D01*
X62376Y-34493D01*
X62324Y-34442D01*
X62256Y-34414D01*
X62183Y-34414D01*
X62115Y-34442D01*
X62064Y-34494D01*
X62036Y-34562D01*
X62036Y-34635D01*
X62064Y-34703D01*
X62116Y-34754D01*
X62161Y-34772D01*
X62112Y-34793D01*
X62061Y-34845D01*
X62033Y-34913D01*
X62033Y-34986D01*
X62061Y-35054D01*
X62113Y-35105D01*
X62181Y-35133D01*
X62254Y-35133D01*
X62322Y-35105D01*
X62373Y-35053D01*
X62401Y-34985D01*
X62401Y-34912D01*
X62373Y-34844D01*
X62321Y-34793D01*
X62275Y-34774D01*
X62325Y-34754D01*
X62376Y-34702D01*
X62404Y-34634D01*
X62404Y-36734D01*
X62352Y-36683D01*
X62284Y-36655D01*
X62211Y-36655D01*
X62143Y-36683D01*
X62092Y-36735D01*
X62079Y-36764D01*
X62049Y-36777D01*
X61998Y-36829D01*
X61995Y-36836D01*
X61995Y-35386D01*
X61995Y-35313D01*
X61967Y-35245D01*
X61915Y-35194D01*
X61864Y-35173D01*
X61877Y-35168D01*
X61928Y-35116D01*
X61956Y-35048D01*
X61956Y-34975D01*
X61928Y-34907D01*
X61876Y-34856D01*
X61808Y-34828D01*
X61735Y-34828D01*
X61667Y-34856D01*
X61616Y-34908D01*
X61588Y-34976D01*
X61588Y-34981D01*
X61565Y-34926D01*
X61515Y-34876D01*
X61515Y-34528D01*
X61515Y-34455D01*
X61487Y-34387D01*
X61435Y-34336D01*
X61410Y-34325D01*
X61410Y-33320D01*
X61410Y-33223D01*
X61373Y-33133D01*
X61304Y-33064D01*
X61213Y-33027D01*
X61210Y-33027D01*
X61210Y-30721D01*
X61210Y-30624D01*
X61173Y-30534D01*
X61104Y-30465D01*
X61013Y-30428D01*
X60916Y-30428D01*
X60826Y-30465D01*
X60757Y-30534D01*
X60720Y-30625D01*
X60720Y-30722D01*
X60757Y-30812D01*
X60826Y-30881D01*
X60917Y-30918D01*
X61014Y-30918D01*
X61104Y-30881D01*
X61173Y-30812D01*
X61210Y-30721D01*
X61210Y-33027D01*
X61116Y-33027D01*
X61026Y-33064D01*
X60957Y-33133D01*
X60920Y-33224D01*
X60920Y-33321D01*
X60957Y-33411D01*
X61026Y-33480D01*
X61117Y-33517D01*
X61214Y-33517D01*
X61304Y-33480D01*
X61373Y-33411D01*
X61410Y-33320D01*
X61410Y-34325D01*
X61367Y-34308D01*
X61294Y-34308D01*
X61226Y-34336D01*
X61175Y-34388D01*
X61147Y-34456D01*
X61147Y-34529D01*
X61175Y-34597D01*
X61227Y-34648D01*
X61295Y-34676D01*
X61368Y-34676D01*
X61436Y-34648D01*
X61487Y-34596D01*
X61515Y-34528D01*
X61515Y-34876D01*
X61513Y-34875D01*
X61445Y-34847D01*
X61372Y-34847D01*
X61304Y-34875D01*
X61253Y-34927D01*
X61225Y-34995D01*
X61225Y-35068D01*
X61253Y-35136D01*
X61305Y-35187D01*
X61314Y-35191D01*
X61265Y-35242D01*
X61237Y-35310D01*
X61237Y-35383D01*
X61265Y-35451D01*
X61317Y-35502D01*
X61385Y-35530D01*
X61458Y-35530D01*
X61526Y-35502D01*
X61577Y-35450D01*
X61605Y-35382D01*
X61605Y-35309D01*
X61577Y-35241D01*
X61525Y-35190D01*
X61515Y-35185D01*
X61565Y-35135D01*
X61593Y-35067D01*
X61593Y-35061D01*
X61616Y-35117D01*
X61668Y-35168D01*
X61718Y-35188D01*
X61706Y-35194D01*
X61655Y-35246D01*
X61627Y-35314D01*
X61627Y-35387D01*
X61655Y-35455D01*
X61707Y-35506D01*
X61775Y-35534D01*
X61848Y-35534D01*
X61916Y-35506D01*
X61967Y-35454D01*
X61995Y-35386D01*
X61995Y-36836D01*
X61970Y-36897D01*
X61970Y-36970D01*
X61998Y-37038D01*
X62050Y-37089D01*
X62118Y-37117D01*
X62191Y-37117D01*
X62259Y-37089D01*
X62310Y-37037D01*
X62322Y-37007D01*
X62353Y-36995D01*
X62391Y-36956D01*
X62415Y-37014D01*
X62467Y-37065D01*
X62535Y-37093D01*
X62608Y-37093D01*
X62676Y-37065D01*
X62727Y-37013D01*
X62755Y-36945D01*
X62755Y-40279D01*
X62438Y-40277D01*
X62438Y-37656D01*
X62438Y-37583D01*
X62410Y-37515D01*
X62358Y-37464D01*
X62290Y-37436D01*
X62217Y-37436D01*
X62149Y-37464D01*
X62098Y-37516D01*
X62080Y-37559D01*
X62035Y-37578D01*
X61984Y-37630D01*
X61983Y-37632D01*
X61983Y-37323D01*
X61983Y-37250D01*
X61955Y-37182D01*
X61903Y-37131D01*
X61835Y-37103D01*
X61762Y-37103D01*
X61694Y-37131D01*
X61643Y-37183D01*
X61639Y-37192D01*
X61639Y-36881D01*
X61639Y-36808D01*
X61611Y-36740D01*
X61597Y-36726D01*
X61597Y-35760D01*
X61597Y-35687D01*
X61569Y-35619D01*
X61517Y-35568D01*
X61449Y-35540D01*
X61376Y-35540D01*
X61308Y-35568D01*
X61257Y-35620D01*
X61229Y-35688D01*
X61229Y-35761D01*
X61257Y-35829D01*
X61309Y-35880D01*
X61377Y-35908D01*
X61450Y-35908D01*
X61518Y-35880D01*
X61569Y-35828D01*
X61597Y-35760D01*
X61597Y-36726D01*
X61559Y-36689D01*
X61491Y-36661D01*
X61418Y-36661D01*
X61350Y-36689D01*
X61299Y-36741D01*
X61287Y-36768D01*
X61258Y-36781D01*
X61207Y-36833D01*
X61192Y-36869D01*
X61192Y-35756D01*
X61192Y-35683D01*
X61164Y-35615D01*
X61112Y-35564D01*
X61044Y-35536D01*
X60971Y-35536D01*
X60903Y-35564D01*
X60852Y-35616D01*
X60824Y-35684D01*
X60824Y-35757D01*
X60852Y-35825D01*
X60904Y-35876D01*
X60972Y-35904D01*
X61045Y-35904D01*
X61113Y-35876D01*
X61164Y-35824D01*
X61192Y-35756D01*
X61192Y-36869D01*
X61179Y-36901D01*
X61179Y-36974D01*
X61207Y-37042D01*
X61259Y-37093D01*
X61327Y-37121D01*
X61348Y-37121D01*
X61285Y-37147D01*
X61234Y-37199D01*
X61206Y-37267D01*
X61206Y-37340D01*
X61234Y-37408D01*
X61286Y-37459D01*
X61343Y-37482D01*
X61295Y-37532D01*
X61267Y-37600D01*
X61267Y-37673D01*
X61295Y-37741D01*
X61347Y-37792D01*
X61415Y-37820D01*
X61488Y-37820D01*
X61556Y-37792D01*
X61607Y-37740D01*
X61635Y-37672D01*
X61635Y-37599D01*
X61607Y-37531D01*
X61555Y-37480D01*
X61497Y-37456D01*
X61546Y-37407D01*
X61574Y-37339D01*
X61574Y-37266D01*
X61546Y-37198D01*
X61494Y-37147D01*
X61426Y-37119D01*
X61404Y-37119D01*
X61468Y-37093D01*
X61519Y-37041D01*
X61530Y-37013D01*
X61560Y-37001D01*
X61611Y-36949D01*
X61639Y-36881D01*
X61639Y-37192D01*
X61615Y-37251D01*
X61615Y-37324D01*
X61643Y-37392D01*
X61695Y-37443D01*
X61763Y-37471D01*
X61836Y-37471D01*
X61904Y-37443D01*
X61955Y-37391D01*
X61983Y-37323D01*
X61983Y-37632D01*
X61956Y-37698D01*
X61956Y-37771D01*
X61984Y-37839D01*
X62036Y-37890D01*
X62104Y-37918D01*
X62177Y-37918D01*
X62245Y-37890D01*
X62296Y-37838D01*
X62313Y-37794D01*
X62359Y-37776D01*
X62410Y-37724D01*
X62438Y-37656D01*
X62438Y-40277D01*
X62019Y-40274D01*
X62019Y-38894D01*
X62019Y-38821D01*
X61991Y-38753D01*
X61984Y-38746D01*
X61984Y-38111D01*
X61984Y-38038D01*
X61956Y-37970D01*
X61904Y-37919D01*
X61836Y-37891D01*
X61763Y-37891D01*
X61695Y-37919D01*
X61644Y-37971D01*
X61616Y-38039D01*
X61616Y-38112D01*
X61644Y-38180D01*
X61696Y-38231D01*
X61764Y-38259D01*
X61837Y-38259D01*
X61905Y-38231D01*
X61956Y-38179D01*
X61984Y-38111D01*
X61984Y-38746D01*
X61939Y-38702D01*
X61871Y-38674D01*
X61798Y-38674D01*
X61730Y-38702D01*
X61679Y-38754D01*
X61651Y-38822D01*
X61651Y-38895D01*
X61679Y-38963D01*
X61731Y-39014D01*
X61799Y-39042D01*
X61872Y-39042D01*
X61940Y-39014D01*
X61991Y-38962D01*
X62019Y-38894D01*
X62019Y-40274D01*
X61208Y-40269D01*
X61208Y-39686D01*
X61208Y-39613D01*
X61180Y-39545D01*
X61128Y-39494D01*
X61060Y-39466D01*
X60987Y-39466D01*
X60919Y-39494D01*
X60868Y-39546D01*
X60840Y-39614D01*
X60840Y-39687D01*
X60868Y-39755D01*
X60920Y-39806D01*
X60988Y-39834D01*
X61061Y-39834D01*
X61129Y-39806D01*
X61180Y-39754D01*
X61208Y-39686D01*
X61208Y-40269D01*
X60890Y-40268D01*
X59678Y-40261D01*
X59664Y-39857D01*
X59668Y-39526D01*
X59752Y-39390D01*
X59795Y-39408D01*
X59868Y-39408D01*
X59936Y-39380D01*
X59987Y-39328D01*
X60015Y-39260D01*
X60015Y-39187D01*
X59987Y-39119D01*
X59945Y-39078D01*
X60230Y-38617D01*
X60297Y-38617D01*
X60365Y-38589D01*
X60416Y-38537D01*
X60444Y-38469D01*
X60444Y-38396D01*
X60416Y-38328D01*
X60412Y-38324D01*
X60474Y-38223D01*
X60498Y-38247D01*
X60566Y-38275D01*
X60639Y-38275D01*
X60707Y-38247D01*
X60758Y-38195D01*
X60786Y-38127D01*
X60786Y-38054D01*
X60758Y-37986D01*
X60706Y-37935D01*
X60638Y-37907D01*
X60565Y-37907D01*
X60513Y-37928D01*
X60492Y-37024D01*
X60534Y-37065D01*
X60602Y-37093D01*
X60675Y-37093D01*
X60743Y-37065D01*
X60794Y-37013D01*
X60822Y-36945D01*
X60822Y-36872D01*
X60794Y-36804D01*
X60742Y-36753D01*
X60674Y-36725D01*
X60601Y-36725D01*
X60533Y-36753D01*
X60486Y-36799D01*
X60482Y-36621D01*
X60506Y-36644D01*
X60574Y-36672D01*
X60647Y-36672D01*
X60715Y-36644D01*
X60766Y-36592D01*
X60794Y-36524D01*
X60794Y-36451D01*
X60766Y-36383D01*
X60714Y-36332D01*
X60646Y-36304D01*
X60573Y-36304D01*
X60505Y-36332D01*
X60476Y-36361D01*
X60464Y-35842D01*
X60502Y-35880D01*
X60570Y-35908D01*
X60643Y-35908D01*
X60711Y-35880D01*
X60762Y-35828D01*
X60790Y-35760D01*
X60790Y-35687D01*
X60762Y-35619D01*
X60710Y-35568D01*
X60642Y-35540D01*
X60569Y-35540D01*
X60501Y-35568D01*
X60458Y-35611D01*
X60453Y-35381D01*
X60474Y-35432D01*
X60526Y-35483D01*
X60594Y-35511D01*
X60667Y-35511D01*
X60735Y-35483D01*
X60786Y-35431D01*
X60814Y-35363D01*
X60814Y-35290D01*
X60786Y-35222D01*
X60734Y-35171D01*
X60666Y-35143D01*
X60639Y-35143D01*
X60639Y-30694D01*
X60639Y-30597D01*
X60602Y-30507D01*
X60533Y-30438D01*
X60442Y-30401D01*
X60345Y-30401D01*
X60255Y-30438D01*
X60236Y-30456D01*
X60218Y-30438D01*
X60127Y-30401D01*
X60030Y-30401D01*
X59940Y-30438D01*
X59933Y-30444D01*
X59907Y-30418D01*
X59816Y-30381D01*
X59719Y-30381D01*
X59629Y-30418D01*
X59606Y-30440D01*
X59584Y-30418D01*
X59493Y-30381D01*
X59396Y-30381D01*
X59306Y-30418D01*
X59283Y-30440D01*
X59273Y-30430D01*
X59182Y-30393D01*
X59085Y-30393D01*
X58995Y-30430D01*
X58986Y-30438D01*
X58958Y-30410D01*
X58867Y-30373D01*
X58770Y-30373D01*
X58680Y-30410D01*
X58671Y-30418D01*
X58643Y-30390D01*
X58552Y-30353D01*
X58455Y-30353D01*
X58365Y-30390D01*
X58350Y-30405D01*
X58328Y-30383D01*
X58237Y-30346D01*
X58140Y-30346D01*
X58050Y-30383D01*
X58028Y-30405D01*
X58013Y-30390D01*
X57922Y-30353D01*
X57825Y-30353D01*
X57735Y-30390D01*
X57722Y-30403D01*
X57698Y-30379D01*
X57607Y-30342D01*
X57510Y-30342D01*
X57420Y-30379D01*
X57400Y-30399D01*
X57391Y-30390D01*
X57300Y-30353D01*
X57203Y-30353D01*
X57113Y-30390D01*
X57044Y-30459D01*
X57007Y-30550D01*
X57007Y-30647D01*
X57044Y-30737D01*
X57113Y-30806D01*
X57204Y-30843D01*
X57301Y-30843D01*
X57391Y-30806D01*
X57411Y-30786D01*
X57420Y-30795D01*
X57511Y-30832D01*
X57608Y-30832D01*
X57698Y-30795D01*
X57711Y-30782D01*
X57735Y-30806D01*
X57826Y-30843D01*
X57923Y-30843D01*
X58013Y-30806D01*
X58035Y-30784D01*
X58050Y-30799D01*
X58141Y-30836D01*
X58238Y-30836D01*
X58328Y-30799D01*
X58343Y-30784D01*
X58365Y-30806D01*
X58456Y-30843D01*
X58553Y-30843D01*
X58643Y-30806D01*
X58651Y-30797D01*
X58680Y-30826D01*
X58771Y-30863D01*
X58868Y-30863D01*
X58958Y-30826D01*
X58966Y-30817D01*
X58995Y-30846D01*
X59086Y-30883D01*
X59183Y-30883D01*
X59273Y-30846D01*
X59295Y-30823D01*
X59306Y-30834D01*
X59397Y-30871D01*
X59494Y-30871D01*
X59584Y-30834D01*
X59606Y-30811D01*
X59629Y-30834D01*
X59720Y-30871D01*
X59817Y-30871D01*
X59907Y-30834D01*
X59913Y-30827D01*
X59940Y-30854D01*
X60031Y-30891D01*
X60128Y-30891D01*
X60218Y-30854D01*
X60236Y-30835D01*
X60255Y-30854D01*
X60346Y-30891D01*
X60443Y-30891D01*
X60533Y-30854D01*
X60602Y-30785D01*
X60639Y-30694D01*
X60639Y-35143D01*
X60593Y-35143D01*
X60525Y-35171D01*
X60474Y-35223D01*
X60450Y-35279D01*
X60447Y-35117D01*
X60188Y-35084D01*
X58845Y-35089D01*
X58845Y-34367D01*
X58845Y-34294D01*
X58817Y-34226D01*
X58765Y-34175D01*
X58697Y-34147D01*
X58624Y-34147D01*
X58556Y-34175D01*
X58505Y-34227D01*
X58477Y-34295D01*
X58477Y-34368D01*
X58505Y-34436D01*
X58557Y-34487D01*
X58625Y-34515D01*
X58698Y-34515D01*
X58766Y-34487D01*
X58817Y-34435D01*
X58845Y-34367D01*
X58845Y-35089D01*
X58362Y-35092D01*
X56696Y-34275D01*
X56037Y-33505D01*
X56037Y-30011D01*
X56037Y-29841D01*
X55972Y-29684D01*
X55853Y-29564D01*
X55696Y-29498D01*
X55526Y-29498D01*
X55369Y-29563D01*
X55249Y-29682D01*
X55183Y-29839D01*
X55183Y-30009D01*
X55248Y-30166D01*
X55367Y-30286D01*
X55524Y-30352D01*
X55694Y-30352D01*
X55851Y-30287D01*
X55971Y-30168D01*
X56037Y-30011D01*
X56037Y-33505D01*
X55037Y-32337D01*
X55037Y-30011D01*
X55037Y-29841D01*
X54972Y-29684D01*
X54853Y-29564D01*
X54696Y-29498D01*
X54526Y-29498D01*
X54369Y-29563D01*
X54249Y-29682D01*
X54183Y-29839D01*
X54183Y-30009D01*
X54248Y-30166D01*
X54367Y-30286D01*
X54524Y-30352D01*
X54694Y-30352D01*
X54851Y-30287D01*
X54971Y-30168D01*
X55037Y-30011D01*
X55037Y-32337D01*
X54094Y-31236D01*
X54037Y-31190D01*
X54037Y-30011D01*
X54037Y-29841D01*
X53972Y-29684D01*
X53853Y-29564D01*
X53696Y-29498D01*
X53526Y-29498D01*
X53369Y-29563D01*
X53249Y-29682D01*
X53183Y-29839D01*
X53183Y-30009D01*
X53248Y-30166D01*
X53367Y-30286D01*
X53524Y-30352D01*
X53694Y-30352D01*
X53851Y-30287D01*
X53971Y-30168D01*
X54037Y-30011D01*
X54037Y-31190D01*
X53820Y-31017D01*
X53037Y-31029D01*
X53037Y-30011D01*
X53037Y-29841D01*
X52972Y-29684D01*
X52853Y-29564D01*
X52696Y-29498D01*
X52526Y-29498D01*
X52369Y-29563D01*
X52249Y-29682D01*
X52183Y-29839D01*
X52183Y-30009D01*
X52248Y-30166D01*
X52367Y-30286D01*
X52524Y-30352D01*
X52694Y-30352D01*
X52851Y-30287D01*
X52971Y-30168D01*
X53037Y-30011D01*
X53037Y-31029D01*
X51995Y-31046D01*
X51995Y-29966D01*
X51981Y-29815D01*
X51949Y-29740D01*
X51894Y-29712D01*
X51823Y-29783D01*
X51823Y-29641D01*
X51795Y-29586D01*
X51651Y-29540D01*
X51500Y-29554D01*
X51425Y-29586D01*
X51397Y-29641D01*
X51610Y-29854D01*
X51823Y-29641D01*
X51823Y-29783D01*
X51681Y-29925D01*
X51894Y-30138D01*
X51949Y-30110D01*
X51995Y-29966D01*
X51995Y-31046D01*
X51823Y-31048D01*
X51823Y-30209D01*
X51610Y-29996D01*
X51539Y-30067D01*
X51539Y-29925D01*
X51326Y-29712D01*
X51271Y-29740D01*
X51225Y-29884D01*
X51239Y-30035D01*
X51271Y-30110D01*
X51326Y-30138D01*
X51539Y-29925D01*
X51539Y-30067D01*
X51397Y-30209D01*
X51425Y-30264D01*
X51569Y-30310D01*
X51720Y-30296D01*
X51795Y-30264D01*
X51823Y-30209D01*
X51823Y-31048D01*
X51183Y-31059D01*
X51157Y-28908D01*
X62251Y-28893D01*
X62251Y-30591D01*
X62250Y-30596D01*
X62266Y-30671D01*
X62308Y-30735D01*
X62334Y-30760D01*
X62334Y-30777D01*
X62371Y-30867D01*
X62440Y-30936D01*
X62531Y-30973D01*
X62628Y-30973D01*
X62674Y-30953D01*
X63225Y-31446D01*
X63180Y-31465D01*
X63111Y-31534D01*
X63074Y-31625D01*
X63074Y-31722D01*
X63111Y-31812D01*
X63180Y-31881D01*
X63271Y-31918D01*
X63368Y-31918D01*
X63458Y-31881D01*
X63527Y-31812D01*
X63555Y-31740D01*
X63736Y-31902D01*
X63720Y-31944D01*
X63720Y-32041D01*
X63757Y-32131D01*
X63826Y-32200D01*
X63917Y-32237D01*
X64014Y-32237D01*
X64080Y-32209D01*
X64450Y-32540D01*
X64453Y-32545D01*
X64522Y-32614D01*
X64543Y-32622D01*
X64781Y-32835D01*
X63843Y-32835D01*
X63768Y-32850D01*
X63704Y-32892D01*
X63702Y-32894D01*
X63286Y-33310D01*
X63244Y-33374D01*
X63228Y-33449D01*
X63229Y-33453D01*
X63229Y-33760D01*
X63244Y-33835D01*
X63286Y-33899D01*
X63350Y-33941D01*
X63425Y-33956D01*
X63500Y-33941D01*
X63564Y-33899D01*
X63606Y-33835D01*
X63621Y-33760D01*
X63621Y-33530D01*
X63924Y-33227D01*
X64947Y-33227D01*
X64959Y-33239D01*
X65050Y-33276D01*
X65147Y-33276D01*
X65234Y-33239D01*
X65257Y-33259D01*
X65257Y-33861D01*
X65241Y-33877D01*
X65204Y-33968D01*
X65204Y-34065D01*
X65241Y-34155D01*
X65310Y-34224D01*
X65401Y-34261D01*
X65455Y-34261D01*
X65463Y-34278D01*
X65412Y-34330D01*
X65396Y-34330D01*
X65306Y-34367D01*
X65237Y-34436D01*
X65200Y-34527D01*
X65200Y-34624D01*
X65237Y-34714D01*
X65306Y-34783D01*
X65397Y-34820D01*
X65432Y-34820D01*
X65457Y-34879D01*
X65526Y-34948D01*
X65617Y-34985D01*
X65686Y-34985D01*
X65686Y-36036D01*
X65355Y-36367D01*
X65145Y-36367D01*
X65133Y-36367D01*
X65133Y-34351D01*
X65133Y-34278D01*
X65105Y-34210D01*
X65053Y-34159D01*
X64985Y-34131D01*
X64912Y-34131D01*
X64844Y-34159D01*
X64793Y-34211D01*
X64765Y-34279D01*
X64765Y-34352D01*
X64793Y-34420D01*
X64845Y-34471D01*
X64913Y-34499D01*
X64986Y-34499D01*
X65054Y-34471D01*
X65105Y-34419D01*
X65133Y-34351D01*
X65133Y-36367D01*
X65024Y-36367D01*
X64949Y-36382D01*
X64885Y-36424D01*
X64843Y-36488D01*
X64828Y-36563D01*
X64843Y-36638D01*
X64885Y-36702D01*
X64933Y-36733D01*
X64889Y-36763D01*
X64847Y-36827D01*
X64832Y-36902D01*
X64847Y-36977D01*
X64885Y-37036D01*
X64877Y-37042D01*
X64835Y-37106D01*
X64820Y-37181D01*
X64835Y-37256D01*
X64877Y-37320D01*
X64941Y-37362D01*
X65016Y-37377D01*
X65962Y-37377D01*
X65962Y-37481D01*
X65026Y-37481D01*
X64984Y-37472D01*
X64909Y-37488D01*
X64845Y-37530D01*
X64803Y-37594D01*
X64787Y-37669D01*
X64803Y-37744D01*
X64845Y-37808D01*
X64851Y-37813D01*
X64853Y-37816D01*
X64875Y-37830D01*
X64875Y-37849D01*
X64861Y-37852D01*
X64789Y-37899D01*
X64742Y-37971D01*
X64724Y-38055D01*
X64742Y-38139D01*
X64789Y-38211D01*
X64871Y-38293D01*
X64828Y-38337D01*
X64800Y-38405D01*
X64800Y-38478D01*
X64828Y-38546D01*
X64880Y-38597D01*
X64948Y-38625D01*
X65021Y-38625D01*
X65089Y-38597D01*
X65131Y-38553D01*
X65962Y-39383D01*
X65962Y-39485D01*
M02*
