G04 (created by PCBNEW-RS274X (2012-jan-04)-stable) date Sat Nov 10 16:51:16 2012*
G01*
G70*
G90*
%MOIN*%
G04 Gerber Fmt 3.4, Leading zero omitted, Abs format*
%FSLAX34Y34*%
G04 APERTURE LIST*
%ADD10C,0.006000*%
%ADD11C,0.012000*%
%ADD12C,0.051200*%
%ADD13R,0.039400X0.137800*%
%ADD14R,0.039400X0.118100*%
%ADD15C,0.180000*%
%ADD16C,0.002800*%
%ADD17C,0.011800*%
%ADD18C,0.039400*%
%ADD19C,0.005100*%
%ADD20C,0.009800*%
%ADD21C,0.010000*%
G04 APERTURE END LIST*
G54D10*
X04000Y-04000D02*
X113000Y-04000D01*
X113000Y-78670D01*
X04000Y-78670D01*
X04000Y-04000D01*
X04700Y-04700D02*
X112300Y-04700D01*
X112300Y-77970D01*
X04700Y-77970D01*
X04700Y-04700D01*
X25800Y-04000D02*
X25800Y-04700D01*
X15043Y-04552D02*
X14757Y-04552D01*
X14900Y-04552D02*
X14900Y-04052D01*
X14852Y-04124D01*
X14805Y-04171D01*
X14757Y-04195D01*
X25800Y-78670D02*
X25800Y-77970D01*
X15043Y-78522D02*
X14757Y-78522D01*
X14900Y-78522D02*
X14900Y-78022D01*
X14852Y-78094D01*
X14805Y-78141D01*
X14757Y-78165D01*
X47600Y-04000D02*
X47600Y-04700D01*
X36557Y-04100D02*
X36581Y-04076D01*
X36629Y-04052D01*
X36748Y-04052D01*
X36795Y-04076D01*
X36819Y-04100D01*
X36843Y-04148D01*
X36843Y-04195D01*
X36819Y-04267D01*
X36533Y-04552D01*
X36843Y-04552D01*
X47600Y-78670D02*
X47600Y-77970D01*
X36557Y-78070D02*
X36581Y-78046D01*
X36629Y-78022D01*
X36748Y-78022D01*
X36795Y-78046D01*
X36819Y-78070D01*
X36843Y-78118D01*
X36843Y-78165D01*
X36819Y-78237D01*
X36533Y-78522D01*
X36843Y-78522D01*
X69400Y-04000D02*
X69400Y-04700D01*
X58333Y-04052D02*
X58643Y-04052D01*
X58476Y-04243D01*
X58548Y-04243D01*
X58595Y-04267D01*
X58619Y-04290D01*
X58643Y-04338D01*
X58643Y-04457D01*
X58619Y-04505D01*
X58595Y-04529D01*
X58548Y-04552D01*
X58405Y-04552D01*
X58357Y-04529D01*
X58333Y-04505D01*
X69400Y-78670D02*
X69400Y-77970D01*
X58333Y-78022D02*
X58643Y-78022D01*
X58476Y-78213D01*
X58548Y-78213D01*
X58595Y-78237D01*
X58619Y-78260D01*
X58643Y-78308D01*
X58643Y-78427D01*
X58619Y-78475D01*
X58595Y-78499D01*
X58548Y-78522D01*
X58405Y-78522D01*
X58357Y-78499D01*
X58333Y-78475D01*
X91200Y-04000D02*
X91200Y-04700D01*
X80395Y-04219D02*
X80395Y-04552D01*
X80276Y-04029D02*
X80157Y-04386D01*
X80467Y-04386D01*
X91200Y-78670D02*
X91200Y-77970D01*
X80395Y-78189D02*
X80395Y-78522D01*
X80276Y-77999D02*
X80157Y-78356D01*
X80467Y-78356D01*
X102219Y-04052D02*
X101981Y-04052D01*
X101957Y-04290D01*
X101981Y-04267D01*
X102029Y-04243D01*
X102148Y-04243D01*
X102195Y-04267D01*
X102219Y-04290D01*
X102243Y-04338D01*
X102243Y-04457D01*
X102219Y-04505D01*
X102195Y-04529D01*
X102148Y-04552D01*
X102029Y-04552D01*
X101981Y-04529D01*
X101957Y-04505D01*
X102219Y-78022D02*
X101981Y-78022D01*
X101957Y-78260D01*
X101981Y-78237D01*
X102029Y-78213D01*
X102148Y-78213D01*
X102195Y-78237D01*
X102219Y-78260D01*
X102243Y-78308D01*
X102243Y-78427D01*
X102219Y-78475D01*
X102195Y-78499D01*
X102148Y-78522D01*
X102029Y-78522D01*
X101981Y-78499D01*
X101957Y-78475D01*
X04000Y-28890D02*
X04700Y-28890D01*
X04231Y-16510D02*
X04469Y-16510D01*
X04184Y-16652D02*
X04350Y-16152D01*
X04517Y-16652D01*
X113000Y-28890D02*
X112300Y-28890D01*
X112531Y-16510D02*
X112769Y-16510D01*
X112484Y-16652D02*
X112650Y-16152D01*
X112817Y-16652D01*
X04000Y-53780D02*
X04700Y-53780D01*
X04386Y-41280D02*
X04457Y-41304D01*
X04481Y-41328D01*
X04505Y-41376D01*
X04505Y-41447D01*
X04481Y-41495D01*
X04457Y-41519D01*
X04410Y-41542D01*
X04219Y-41542D01*
X04219Y-41042D01*
X04386Y-41042D01*
X04433Y-41066D01*
X04457Y-41090D01*
X04481Y-41138D01*
X04481Y-41185D01*
X04457Y-41233D01*
X04433Y-41257D01*
X04386Y-41280D01*
X04219Y-41280D01*
X113000Y-53780D02*
X112300Y-53780D01*
X112686Y-41280D02*
X112757Y-41304D01*
X112781Y-41328D01*
X112805Y-41376D01*
X112805Y-41447D01*
X112781Y-41495D01*
X112757Y-41519D01*
X112710Y-41542D01*
X112519Y-41542D01*
X112519Y-41042D01*
X112686Y-41042D01*
X112733Y-41066D01*
X112757Y-41090D01*
X112781Y-41138D01*
X112781Y-41185D01*
X112757Y-41233D01*
X112733Y-41257D01*
X112686Y-41280D01*
X112519Y-41280D01*
X04505Y-66385D02*
X04481Y-66409D01*
X04410Y-66432D01*
X04362Y-66432D01*
X04290Y-66409D01*
X04243Y-66361D01*
X04219Y-66313D01*
X04195Y-66218D01*
X04195Y-66147D01*
X04219Y-66051D01*
X04243Y-66004D01*
X04290Y-65956D01*
X04362Y-65932D01*
X04410Y-65932D01*
X04481Y-65956D01*
X04505Y-65980D01*
X112805Y-66385D02*
X112781Y-66409D01*
X112710Y-66432D01*
X112662Y-66432D01*
X112590Y-66409D01*
X112543Y-66361D01*
X112519Y-66313D01*
X112495Y-66218D01*
X112495Y-66147D01*
X112519Y-66051D01*
X112543Y-66004D01*
X112590Y-65956D01*
X112662Y-65932D01*
X112710Y-65932D01*
X112781Y-65956D01*
X112805Y-65980D01*
G54D11*
X79443Y-76413D02*
X79443Y-75813D01*
X79586Y-75813D01*
X79671Y-75841D01*
X79729Y-75899D01*
X79757Y-75956D01*
X79786Y-76070D01*
X79786Y-76156D01*
X79757Y-76270D01*
X79729Y-76327D01*
X79671Y-76384D01*
X79586Y-76413D01*
X79443Y-76413D01*
X80300Y-76413D02*
X80300Y-76099D01*
X80271Y-76041D01*
X80214Y-76013D01*
X80100Y-76013D01*
X80043Y-76041D01*
X80300Y-76384D02*
X80243Y-76413D01*
X80100Y-76413D01*
X80043Y-76384D01*
X80014Y-76327D01*
X80014Y-76270D01*
X80043Y-76213D01*
X80100Y-76184D01*
X80243Y-76184D01*
X80300Y-76156D01*
X80500Y-76013D02*
X80729Y-76013D01*
X80586Y-75813D02*
X80586Y-76327D01*
X80614Y-76384D01*
X80672Y-76413D01*
X80729Y-76413D01*
X81157Y-76384D02*
X81100Y-76413D01*
X80986Y-76413D01*
X80929Y-76384D01*
X80900Y-76327D01*
X80900Y-76099D01*
X80929Y-76041D01*
X80986Y-76013D01*
X81100Y-76013D01*
X81157Y-76041D01*
X81186Y-76099D01*
X81186Y-76156D01*
X80900Y-76213D01*
X81443Y-76356D02*
X81471Y-76384D01*
X81443Y-76413D01*
X81414Y-76384D01*
X81443Y-76356D01*
X81443Y-76413D01*
X81443Y-76041D02*
X81471Y-76070D01*
X81443Y-76099D01*
X81414Y-76070D01*
X81443Y-76041D01*
X81443Y-76099D01*
X82500Y-76413D02*
X82157Y-76413D01*
X82329Y-76413D02*
X82329Y-75813D01*
X82272Y-75899D01*
X82214Y-75956D01*
X82157Y-75984D01*
X82871Y-75813D02*
X82928Y-75813D01*
X82985Y-75841D01*
X83014Y-75870D01*
X83043Y-75927D01*
X83071Y-76041D01*
X83071Y-76184D01*
X83043Y-76299D01*
X83014Y-76356D01*
X82985Y-76384D01*
X82928Y-76413D01*
X82871Y-76413D01*
X82814Y-76384D01*
X82785Y-76356D01*
X82757Y-76299D01*
X82728Y-76184D01*
X82728Y-76041D01*
X82757Y-75927D01*
X82785Y-75870D01*
X82814Y-75841D01*
X82871Y-75813D01*
X83785Y-76013D02*
X83785Y-76413D01*
X83785Y-76070D02*
X83813Y-76041D01*
X83871Y-76013D01*
X83956Y-76013D01*
X84013Y-76041D01*
X84042Y-76099D01*
X84042Y-76413D01*
X84414Y-76413D02*
X84356Y-76384D01*
X84328Y-76356D01*
X84299Y-76299D01*
X84299Y-76127D01*
X84328Y-76070D01*
X84356Y-76041D01*
X84414Y-76013D01*
X84499Y-76013D01*
X84556Y-76041D01*
X84585Y-76070D01*
X84614Y-76127D01*
X84614Y-76299D01*
X84585Y-76356D01*
X84556Y-76384D01*
X84499Y-76413D01*
X84414Y-76413D01*
X84814Y-76013D02*
X84957Y-76413D01*
X85099Y-76013D01*
X85756Y-75870D02*
X85785Y-75841D01*
X85842Y-75813D01*
X85985Y-75813D01*
X86042Y-75841D01*
X86071Y-75870D01*
X86099Y-75927D01*
X86099Y-75984D01*
X86071Y-76070D01*
X85728Y-76413D01*
X86099Y-76413D01*
X86470Y-75813D02*
X86527Y-75813D01*
X86584Y-75841D01*
X86613Y-75870D01*
X86642Y-75927D01*
X86670Y-76041D01*
X86670Y-76184D01*
X86642Y-76299D01*
X86613Y-76356D01*
X86584Y-76384D01*
X86527Y-76413D01*
X86470Y-76413D01*
X86413Y-76384D01*
X86384Y-76356D01*
X86356Y-76299D01*
X86327Y-76184D01*
X86327Y-76041D01*
X86356Y-75927D01*
X86384Y-75870D01*
X86413Y-75841D01*
X86470Y-75813D01*
X87241Y-76413D02*
X86898Y-76413D01*
X87070Y-76413D02*
X87070Y-75813D01*
X87013Y-75899D01*
X86955Y-75956D01*
X86898Y-75984D01*
X87469Y-75870D02*
X87498Y-75841D01*
X87555Y-75813D01*
X87698Y-75813D01*
X87755Y-75841D01*
X87784Y-75870D01*
X87812Y-75927D01*
X87812Y-75984D01*
X87784Y-76070D01*
X87441Y-76413D01*
X87812Y-76413D01*
G54D10*
X71043Y-77613D02*
X71043Y-77013D01*
X71386Y-77613D02*
X71129Y-77270D01*
X71386Y-77013D02*
X71043Y-77356D01*
X71643Y-77613D02*
X71643Y-77213D01*
X71643Y-77013D02*
X71614Y-77041D01*
X71643Y-77070D01*
X71671Y-77041D01*
X71643Y-77013D01*
X71643Y-77070D01*
X72272Y-77556D02*
X72243Y-77584D01*
X72157Y-77613D01*
X72100Y-77613D01*
X72015Y-77584D01*
X71957Y-77527D01*
X71929Y-77470D01*
X71900Y-77356D01*
X71900Y-77270D01*
X71929Y-77156D01*
X71957Y-77099D01*
X72015Y-77041D01*
X72100Y-77013D01*
X72157Y-77013D01*
X72243Y-77041D01*
X72272Y-77070D01*
X72786Y-77613D02*
X72786Y-77299D01*
X72757Y-77241D01*
X72700Y-77213D01*
X72586Y-77213D01*
X72529Y-77241D01*
X72786Y-77584D02*
X72729Y-77613D01*
X72586Y-77613D01*
X72529Y-77584D01*
X72500Y-77527D01*
X72500Y-77470D01*
X72529Y-77413D01*
X72586Y-77384D01*
X72729Y-77384D01*
X72786Y-77356D01*
X73329Y-77613D02*
X73329Y-77013D01*
X73329Y-77584D02*
X73272Y-77613D01*
X73158Y-77613D01*
X73100Y-77584D01*
X73072Y-77556D01*
X73043Y-77499D01*
X73043Y-77327D01*
X73072Y-77270D01*
X73100Y-77241D01*
X73158Y-77213D01*
X73272Y-77213D01*
X73329Y-77241D01*
X74072Y-77299D02*
X74272Y-77299D01*
X74358Y-77613D02*
X74072Y-77613D01*
X74072Y-77013D01*
X74358Y-77013D01*
X74615Y-77556D02*
X74643Y-77584D01*
X74615Y-77613D01*
X74586Y-77584D01*
X74615Y-77556D01*
X74615Y-77613D01*
X74901Y-77613D02*
X74901Y-77013D01*
X75044Y-77013D01*
X75129Y-77041D01*
X75187Y-77099D01*
X75215Y-77156D01*
X75244Y-77270D01*
X75244Y-77356D01*
X75215Y-77470D01*
X75187Y-77527D01*
X75129Y-77584D01*
X75044Y-77613D01*
X74901Y-77613D01*
X75501Y-77556D02*
X75529Y-77584D01*
X75501Y-77613D01*
X75472Y-77584D01*
X75501Y-77556D01*
X75501Y-77613D01*
X75758Y-77441D02*
X76044Y-77441D01*
X75701Y-77613D02*
X75901Y-77013D01*
X76101Y-77613D01*
X76301Y-77556D02*
X76329Y-77584D01*
X76301Y-77613D01*
X76272Y-77584D01*
X76301Y-77556D01*
X76301Y-77613D01*
G54D11*
X104586Y-76413D02*
X104386Y-76127D01*
X104243Y-76413D02*
X104243Y-75813D01*
X104471Y-75813D01*
X104529Y-75841D01*
X104557Y-75870D01*
X104586Y-75927D01*
X104586Y-76013D01*
X104557Y-76070D01*
X104529Y-76099D01*
X104471Y-76127D01*
X104243Y-76127D01*
X105071Y-76384D02*
X105014Y-76413D01*
X104900Y-76413D01*
X104843Y-76384D01*
X104814Y-76327D01*
X104814Y-76099D01*
X104843Y-76041D01*
X104900Y-76013D01*
X105014Y-76013D01*
X105071Y-76041D01*
X105100Y-76099D01*
X105100Y-76156D01*
X104814Y-76213D01*
X105300Y-76013D02*
X105443Y-76413D01*
X105585Y-76013D01*
X105814Y-76356D02*
X105842Y-76384D01*
X105814Y-76413D01*
X105785Y-76384D01*
X105814Y-76356D01*
X105814Y-76413D01*
X105814Y-76041D02*
X105842Y-76070D01*
X105814Y-76099D01*
X105785Y-76070D01*
X105814Y-76041D01*
X105814Y-76099D01*
X106671Y-75813D02*
X106728Y-75813D01*
X106785Y-75841D01*
X106814Y-75870D01*
X106843Y-75927D01*
X106871Y-76041D01*
X106871Y-76184D01*
X106843Y-76299D01*
X106814Y-76356D01*
X106785Y-76384D01*
X106728Y-76413D01*
X106671Y-76413D01*
X106614Y-76384D01*
X106585Y-76356D01*
X106557Y-76299D01*
X106528Y-76184D01*
X106528Y-76041D01*
X106557Y-75927D01*
X106585Y-75870D01*
X106614Y-75841D01*
X106671Y-75813D01*
X107442Y-76413D02*
X107099Y-76413D01*
X107271Y-76413D02*
X107271Y-75813D01*
X107214Y-75899D01*
X107156Y-75956D01*
X107099Y-75984D01*
G54D10*
X71014Y-76384D02*
X71100Y-76413D01*
X71243Y-76413D01*
X71300Y-76384D01*
X71329Y-76356D01*
X71357Y-76299D01*
X71357Y-76241D01*
X71329Y-76184D01*
X71300Y-76156D01*
X71243Y-76127D01*
X71129Y-76099D01*
X71071Y-76070D01*
X71043Y-76041D01*
X71014Y-75984D01*
X71014Y-75927D01*
X71043Y-75870D01*
X71071Y-75841D01*
X71129Y-75813D01*
X71271Y-75813D01*
X71357Y-75841D01*
X71614Y-76413D02*
X71614Y-76013D01*
X71614Y-75813D02*
X71585Y-75841D01*
X71614Y-75870D01*
X71642Y-75841D01*
X71614Y-75813D01*
X71614Y-75870D01*
X71843Y-76013D02*
X72157Y-76013D01*
X71843Y-76413D01*
X72157Y-76413D01*
X72614Y-76384D02*
X72557Y-76413D01*
X72443Y-76413D01*
X72386Y-76384D01*
X72357Y-76327D01*
X72357Y-76099D01*
X72386Y-76041D01*
X72443Y-76013D01*
X72557Y-76013D01*
X72614Y-76041D01*
X72643Y-76099D01*
X72643Y-76156D01*
X72357Y-76213D01*
X72900Y-76356D02*
X72928Y-76384D01*
X72900Y-76413D01*
X72871Y-76384D01*
X72900Y-76356D01*
X72900Y-76413D01*
X72900Y-76041D02*
X72928Y-76070D01*
X72900Y-76099D01*
X72871Y-76070D01*
X72900Y-76041D01*
X72900Y-76099D01*
X73614Y-76241D02*
X73900Y-76241D01*
X73557Y-76413D02*
X73757Y-75813D01*
X73957Y-76413D01*
X74414Y-76013D02*
X74414Y-76413D01*
X74271Y-75784D02*
X74128Y-76213D01*
X74500Y-76213D01*
X104243Y-77613D02*
X104243Y-77013D01*
X104786Y-77613D02*
X104786Y-77013D01*
X104786Y-77584D02*
X104729Y-77613D01*
X104615Y-77613D01*
X104557Y-77584D01*
X104529Y-77556D01*
X104500Y-77499D01*
X104500Y-77327D01*
X104529Y-77270D01*
X104557Y-77241D01*
X104615Y-77213D01*
X104729Y-77213D01*
X104786Y-77241D01*
X105072Y-77556D02*
X105100Y-77584D01*
X105072Y-77613D01*
X105043Y-77584D01*
X105072Y-77556D01*
X105072Y-77613D01*
X105072Y-77241D02*
X105100Y-77270D01*
X105072Y-77299D01*
X105043Y-77270D01*
X105072Y-77241D01*
X105072Y-77299D01*
X106129Y-77613D02*
X105786Y-77613D01*
X105958Y-77613D02*
X105958Y-77013D01*
X105901Y-77099D01*
X105843Y-77156D01*
X105786Y-77184D01*
X106814Y-76984D02*
X106300Y-77756D01*
X107329Y-77613D02*
X106986Y-77613D01*
X107158Y-77613D02*
X107158Y-77013D01*
X107101Y-77099D01*
X107043Y-77156D01*
X106986Y-77184D01*
G54D11*
X70957Y-74613D02*
X71300Y-74613D01*
X71129Y-75213D02*
X71129Y-74613D01*
X71500Y-75213D02*
X71500Y-74813D01*
X71500Y-74613D02*
X71471Y-74641D01*
X71500Y-74670D01*
X71528Y-74641D01*
X71500Y-74613D01*
X71500Y-74670D01*
X71700Y-74813D02*
X71929Y-74813D01*
X71786Y-74613D02*
X71786Y-75127D01*
X71814Y-75184D01*
X71872Y-75213D01*
X71929Y-75213D01*
X72215Y-75213D02*
X72157Y-75184D01*
X72129Y-75127D01*
X72129Y-74613D01*
X72671Y-75184D02*
X72614Y-75213D01*
X72500Y-75213D01*
X72443Y-75184D01*
X72414Y-75127D01*
X72414Y-74899D01*
X72443Y-74841D01*
X72500Y-74813D01*
X72614Y-74813D01*
X72671Y-74841D01*
X72700Y-74899D01*
X72700Y-74956D01*
X72414Y-75013D01*
X72957Y-75156D02*
X72985Y-75184D01*
X72957Y-75213D01*
X72928Y-75184D01*
X72957Y-75156D01*
X72957Y-75213D01*
X72957Y-74841D02*
X72985Y-74870D01*
X72957Y-74899D01*
X72928Y-74870D01*
X72957Y-74841D01*
X72957Y-74899D01*
X73900Y-74899D02*
X73986Y-74927D01*
X74014Y-74956D01*
X74043Y-75013D01*
X74043Y-75099D01*
X74014Y-75156D01*
X73986Y-75184D01*
X73928Y-75213D01*
X73700Y-75213D01*
X73700Y-74613D01*
X73900Y-74613D01*
X73957Y-74641D01*
X73986Y-74670D01*
X74014Y-74727D01*
X74014Y-74784D01*
X73986Y-74841D01*
X73957Y-74870D01*
X73900Y-74899D01*
X73700Y-74899D01*
X74528Y-75184D02*
X74471Y-75213D01*
X74357Y-75213D01*
X74300Y-75184D01*
X74271Y-75127D01*
X74271Y-74899D01*
X74300Y-74841D01*
X74357Y-74813D01*
X74471Y-74813D01*
X74528Y-74841D01*
X74557Y-74899D01*
X74557Y-74956D01*
X74271Y-75013D01*
X75071Y-75213D02*
X75071Y-74899D01*
X75042Y-74841D01*
X74985Y-74813D01*
X74871Y-74813D01*
X74814Y-74841D01*
X75071Y-75184D02*
X75014Y-75213D01*
X74871Y-75213D01*
X74814Y-75184D01*
X74785Y-75127D01*
X74785Y-75070D01*
X74814Y-75013D01*
X74871Y-74984D01*
X75014Y-74984D01*
X75071Y-74956D01*
X75614Y-74813D02*
X75614Y-75299D01*
X75585Y-75356D01*
X75557Y-75384D01*
X75500Y-75413D01*
X75414Y-75413D01*
X75357Y-75384D01*
X75614Y-75184D02*
X75557Y-75213D01*
X75443Y-75213D01*
X75385Y-75184D01*
X75357Y-75156D01*
X75328Y-75099D01*
X75328Y-74927D01*
X75357Y-74870D01*
X75385Y-74841D01*
X75443Y-74813D01*
X75557Y-74813D01*
X75614Y-74841D01*
X75986Y-75213D02*
X75928Y-75184D01*
X75900Y-75127D01*
X75900Y-74613D01*
X76442Y-75184D02*
X76385Y-75213D01*
X76271Y-75213D01*
X76214Y-75184D01*
X76185Y-75127D01*
X76185Y-74899D01*
X76214Y-74841D01*
X76271Y-74813D01*
X76385Y-74813D01*
X76442Y-74841D01*
X76471Y-74899D01*
X76471Y-74956D01*
X76185Y-75013D01*
X76728Y-75213D02*
X76728Y-74613D01*
X76728Y-74841D02*
X76785Y-74813D01*
X76899Y-74813D01*
X76956Y-74841D01*
X76985Y-74870D01*
X77014Y-74927D01*
X77014Y-75099D01*
X76985Y-75156D01*
X76956Y-75184D01*
X76899Y-75213D01*
X76785Y-75213D01*
X76728Y-75184D01*
X77357Y-75213D02*
X77299Y-75184D01*
X77271Y-75156D01*
X77242Y-75099D01*
X77242Y-74927D01*
X77271Y-74870D01*
X77299Y-74841D01*
X77357Y-74813D01*
X77442Y-74813D01*
X77499Y-74841D01*
X77528Y-74870D01*
X77557Y-74927D01*
X77557Y-75099D01*
X77528Y-75156D01*
X77499Y-75184D01*
X77442Y-75213D01*
X77357Y-75213D01*
X77814Y-74813D02*
X77814Y-75213D01*
X77814Y-74870D02*
X77842Y-74841D01*
X77900Y-74813D01*
X77985Y-74813D01*
X78042Y-74841D01*
X78071Y-74899D01*
X78071Y-75213D01*
X78585Y-75184D02*
X78528Y-75213D01*
X78414Y-75213D01*
X78357Y-75184D01*
X78328Y-75127D01*
X78328Y-74899D01*
X78357Y-74841D01*
X78414Y-74813D01*
X78528Y-74813D01*
X78585Y-74841D01*
X78614Y-74899D01*
X78614Y-74956D01*
X78328Y-75013D01*
X78871Y-74984D02*
X79328Y-74984D01*
X79585Y-75184D02*
X79671Y-75213D01*
X79814Y-75213D01*
X79871Y-75184D01*
X79900Y-75156D01*
X79928Y-75099D01*
X79928Y-75041D01*
X79900Y-74984D01*
X79871Y-74956D01*
X79814Y-74927D01*
X79700Y-74899D01*
X79642Y-74870D01*
X79614Y-74841D01*
X79585Y-74784D01*
X79585Y-74727D01*
X79614Y-74670D01*
X79642Y-74641D01*
X79700Y-74613D01*
X79842Y-74613D01*
X79928Y-74641D01*
X80185Y-74813D02*
X80185Y-75413D01*
X80185Y-74841D02*
X80242Y-74813D01*
X80356Y-74813D01*
X80413Y-74841D01*
X80442Y-74870D01*
X80471Y-74927D01*
X80471Y-75099D01*
X80442Y-75156D01*
X80413Y-75184D01*
X80356Y-75213D01*
X80242Y-75213D01*
X80185Y-75184D01*
X80985Y-75213D02*
X80985Y-74899D01*
X80956Y-74841D01*
X80899Y-74813D01*
X80785Y-74813D01*
X80728Y-74841D01*
X80985Y-75184D02*
X80928Y-75213D01*
X80785Y-75213D01*
X80728Y-75184D01*
X80699Y-75127D01*
X80699Y-75070D01*
X80728Y-75013D01*
X80785Y-74984D01*
X80928Y-74984D01*
X80985Y-74956D01*
X81271Y-75213D02*
X81271Y-74813D01*
X81271Y-74927D02*
X81299Y-74870D01*
X81328Y-74841D01*
X81385Y-74813D01*
X81442Y-74813D01*
X81556Y-74813D02*
X81785Y-74813D01*
X81642Y-74613D02*
X81642Y-75127D01*
X81670Y-75184D01*
X81728Y-75213D01*
X81785Y-75213D01*
X82242Y-75213D02*
X82242Y-74899D01*
X82213Y-74841D01*
X82156Y-74813D01*
X82042Y-74813D01*
X81985Y-74841D01*
X82242Y-75184D02*
X82185Y-75213D01*
X82042Y-75213D01*
X81985Y-75184D01*
X81956Y-75127D01*
X81956Y-75070D01*
X81985Y-75013D01*
X82042Y-74984D01*
X82185Y-74984D01*
X82242Y-74956D01*
X82528Y-74813D02*
X82528Y-75213D01*
X82528Y-74870D02*
X82556Y-74841D01*
X82614Y-74813D01*
X82699Y-74813D01*
X82756Y-74841D01*
X82785Y-74899D01*
X82785Y-75213D01*
X83328Y-74613D02*
X83214Y-74613D01*
X83157Y-74641D01*
X83128Y-74670D01*
X83071Y-74756D01*
X83042Y-74870D01*
X83042Y-75099D01*
X83071Y-75156D01*
X83099Y-75184D01*
X83157Y-75213D01*
X83271Y-75213D01*
X83328Y-75184D01*
X83357Y-75156D01*
X83385Y-75099D01*
X83385Y-74956D01*
X83357Y-74899D01*
X83328Y-74870D01*
X83271Y-74841D01*
X83157Y-74841D01*
X83099Y-74870D01*
X83071Y-74899D01*
X83042Y-74956D01*
X83642Y-74984D02*
X84099Y-74984D01*
X84728Y-75156D02*
X84699Y-75184D01*
X84613Y-75213D01*
X84556Y-75213D01*
X84471Y-75184D01*
X84413Y-75127D01*
X84385Y-75070D01*
X84356Y-74956D01*
X84356Y-74870D01*
X84385Y-74756D01*
X84413Y-74699D01*
X84471Y-74641D01*
X84556Y-74613D01*
X84613Y-74613D01*
X84699Y-74641D01*
X84728Y-74670D01*
X85242Y-75213D02*
X85242Y-74899D01*
X85213Y-74841D01*
X85156Y-74813D01*
X85042Y-74813D01*
X84985Y-74841D01*
X85242Y-75184D02*
X85185Y-75213D01*
X85042Y-75213D01*
X84985Y-75184D01*
X84956Y-75127D01*
X84956Y-75070D01*
X84985Y-75013D01*
X85042Y-74984D01*
X85185Y-74984D01*
X85242Y-74956D01*
X85528Y-74813D02*
X85528Y-75413D01*
X85528Y-74841D02*
X85585Y-74813D01*
X85699Y-74813D01*
X85756Y-74841D01*
X85785Y-74870D01*
X85814Y-74927D01*
X85814Y-75099D01*
X85785Y-75156D01*
X85756Y-75184D01*
X85699Y-75213D01*
X85585Y-75213D01*
X85528Y-75184D01*
X86299Y-75184D02*
X86242Y-75213D01*
X86128Y-75213D01*
X86071Y-75184D01*
X86042Y-75127D01*
X86042Y-74899D01*
X86071Y-74841D01*
X86128Y-74813D01*
X86242Y-74813D01*
X86299Y-74841D01*
X86328Y-74899D01*
X86328Y-74956D01*
X86042Y-75013D01*
G54D10*
X71243Y-72499D02*
X71043Y-72499D01*
X71043Y-72813D02*
X71043Y-72213D01*
X71329Y-72213D01*
X71557Y-72813D02*
X71557Y-72413D01*
X71557Y-72213D02*
X71528Y-72241D01*
X71557Y-72270D01*
X71585Y-72241D01*
X71557Y-72213D01*
X71557Y-72270D01*
X71929Y-72813D02*
X71871Y-72784D01*
X71843Y-72727D01*
X71843Y-72213D01*
X72385Y-72784D02*
X72328Y-72813D01*
X72214Y-72813D01*
X72157Y-72784D01*
X72128Y-72727D01*
X72128Y-72499D01*
X72157Y-72441D01*
X72214Y-72413D01*
X72328Y-72413D01*
X72385Y-72441D01*
X72414Y-72499D01*
X72414Y-72556D01*
X72128Y-72613D01*
X72671Y-72756D02*
X72699Y-72784D01*
X72671Y-72813D01*
X72642Y-72784D01*
X72671Y-72756D01*
X72671Y-72813D01*
X72671Y-72441D02*
X72699Y-72470D01*
X72671Y-72499D01*
X72642Y-72470D01*
X72671Y-72441D01*
X72671Y-72499D01*
X73414Y-72813D02*
X73414Y-72213D01*
X73414Y-72441D02*
X73471Y-72413D01*
X73585Y-72413D01*
X73642Y-72441D01*
X73671Y-72470D01*
X73700Y-72527D01*
X73700Y-72699D01*
X73671Y-72756D01*
X73642Y-72784D01*
X73585Y-72813D01*
X73471Y-72813D01*
X73414Y-72784D01*
X74043Y-72813D02*
X73985Y-72784D01*
X73957Y-72756D01*
X73928Y-72699D01*
X73928Y-72527D01*
X73957Y-72470D01*
X73985Y-72441D01*
X74043Y-72413D01*
X74128Y-72413D01*
X74185Y-72441D01*
X74214Y-72470D01*
X74243Y-72527D01*
X74243Y-72699D01*
X74214Y-72756D01*
X74185Y-72784D01*
X74128Y-72813D01*
X74043Y-72813D01*
X74500Y-72413D02*
X74500Y-72813D01*
X74500Y-72470D02*
X74528Y-72441D01*
X74586Y-72413D01*
X74671Y-72413D01*
X74728Y-72441D01*
X74757Y-72499D01*
X74757Y-72813D01*
X75271Y-72784D02*
X75214Y-72813D01*
X75100Y-72813D01*
X75043Y-72784D01*
X75014Y-72727D01*
X75014Y-72499D01*
X75043Y-72441D01*
X75100Y-72413D01*
X75214Y-72413D01*
X75271Y-72441D01*
X75300Y-72499D01*
X75300Y-72556D01*
X75014Y-72613D01*
X75471Y-72413D02*
X75700Y-72413D01*
X75557Y-72813D02*
X75557Y-72299D01*
X75585Y-72241D01*
X75643Y-72213D01*
X75700Y-72213D01*
X75900Y-72413D02*
X75900Y-73013D01*
X75900Y-72441D02*
X75957Y-72413D01*
X76071Y-72413D01*
X76128Y-72441D01*
X76157Y-72470D01*
X76186Y-72527D01*
X76186Y-72699D01*
X76157Y-72756D01*
X76128Y-72784D01*
X76071Y-72813D01*
X75957Y-72813D01*
X75900Y-72784D01*
X76700Y-72413D02*
X76700Y-72899D01*
X76671Y-72956D01*
X76643Y-72984D01*
X76586Y-73013D01*
X76500Y-73013D01*
X76443Y-72984D01*
X76700Y-72784D02*
X76643Y-72813D01*
X76529Y-72813D01*
X76471Y-72784D01*
X76443Y-72756D01*
X76414Y-72699D01*
X76414Y-72527D01*
X76443Y-72470D01*
X76471Y-72441D01*
X76529Y-72413D01*
X76643Y-72413D01*
X76700Y-72441D01*
X77243Y-72813D02*
X77243Y-72499D01*
X77214Y-72441D01*
X77157Y-72413D01*
X77043Y-72413D01*
X76986Y-72441D01*
X77243Y-72784D02*
X77186Y-72813D01*
X77043Y-72813D01*
X76986Y-72784D01*
X76957Y-72727D01*
X76957Y-72670D01*
X76986Y-72613D01*
X77043Y-72584D01*
X77186Y-72584D01*
X77243Y-72556D01*
X77529Y-72756D02*
X77557Y-72784D01*
X77529Y-72813D01*
X77500Y-72784D01*
X77529Y-72756D01*
X77529Y-72813D01*
X77815Y-72813D02*
X77815Y-72213D01*
X77815Y-72441D02*
X77872Y-72413D01*
X77986Y-72413D01*
X78043Y-72441D01*
X78072Y-72470D01*
X78101Y-72527D01*
X78101Y-72699D01*
X78072Y-72756D01*
X78043Y-72784D01*
X77986Y-72813D01*
X77872Y-72813D01*
X77815Y-72784D01*
X78358Y-72813D02*
X78358Y-72413D01*
X78358Y-72527D02*
X78386Y-72470D01*
X78415Y-72441D01*
X78472Y-72413D01*
X78529Y-72413D01*
X78986Y-72813D02*
X78986Y-72213D01*
X78986Y-72784D02*
X78929Y-72813D01*
X78815Y-72813D01*
X78757Y-72784D01*
X78729Y-72756D01*
X78700Y-72699D01*
X78700Y-72527D01*
X78729Y-72470D01*
X78757Y-72441D01*
X78815Y-72413D01*
X78929Y-72413D01*
X78986Y-72441D01*
X71014Y-73984D02*
X71100Y-74013D01*
X71243Y-74013D01*
X71300Y-73984D01*
X71329Y-73956D01*
X71357Y-73899D01*
X71357Y-73841D01*
X71329Y-73784D01*
X71300Y-73756D01*
X71243Y-73727D01*
X71129Y-73699D01*
X71071Y-73670D01*
X71043Y-73641D01*
X71014Y-73584D01*
X71014Y-73527D01*
X71043Y-73470D01*
X71071Y-73441D01*
X71129Y-73413D01*
X71271Y-73413D01*
X71357Y-73441D01*
X71614Y-74013D02*
X71614Y-73413D01*
X71871Y-74013D02*
X71871Y-73699D01*
X71842Y-73641D01*
X71785Y-73613D01*
X71700Y-73613D01*
X71642Y-73641D01*
X71614Y-73670D01*
X72385Y-73984D02*
X72328Y-74013D01*
X72214Y-74013D01*
X72157Y-73984D01*
X72128Y-73927D01*
X72128Y-73699D01*
X72157Y-73641D01*
X72214Y-73613D01*
X72328Y-73613D01*
X72385Y-73641D01*
X72414Y-73699D01*
X72414Y-73756D01*
X72128Y-73813D01*
X72899Y-73984D02*
X72842Y-74013D01*
X72728Y-74013D01*
X72671Y-73984D01*
X72642Y-73927D01*
X72642Y-73699D01*
X72671Y-73641D01*
X72728Y-73613D01*
X72842Y-73613D01*
X72899Y-73641D01*
X72928Y-73699D01*
X72928Y-73756D01*
X72642Y-73813D01*
X73099Y-73613D02*
X73328Y-73613D01*
X73185Y-73413D02*
X73185Y-73927D01*
X73213Y-73984D01*
X73271Y-74013D01*
X73328Y-74013D01*
X73528Y-73956D02*
X73556Y-73984D01*
X73528Y-74013D01*
X73499Y-73984D01*
X73528Y-73956D01*
X73528Y-74013D01*
X73528Y-73641D02*
X73556Y-73670D01*
X73528Y-73699D01*
X73499Y-73670D01*
X73528Y-73641D01*
X73528Y-73699D01*
X74585Y-74013D02*
X74242Y-74013D01*
X74414Y-74013D02*
X74414Y-73413D01*
X74357Y-73499D01*
X74299Y-73556D01*
X74242Y-73584D01*
X75270Y-73384D02*
X74756Y-74156D01*
X75785Y-74013D02*
X75442Y-74013D01*
X75614Y-74013D02*
X75614Y-73413D01*
X75557Y-73499D01*
X75499Y-73556D01*
X75442Y-73584D01*
X71043Y-70413D02*
X71043Y-69813D01*
X71243Y-70241D01*
X71443Y-69813D01*
X71443Y-70413D01*
X71729Y-70413D02*
X71729Y-70013D01*
X71729Y-69813D02*
X71700Y-69841D01*
X71729Y-69870D01*
X71757Y-69841D01*
X71729Y-69813D01*
X71729Y-69870D01*
X72272Y-70384D02*
X72215Y-70413D01*
X72101Y-70413D01*
X72043Y-70384D01*
X72015Y-70356D01*
X71986Y-70299D01*
X71986Y-70127D01*
X72015Y-70070D01*
X72043Y-70041D01*
X72101Y-70013D01*
X72215Y-70013D01*
X72272Y-70041D01*
X72529Y-70413D02*
X72529Y-69813D01*
X72786Y-70413D02*
X72786Y-70099D01*
X72757Y-70041D01*
X72700Y-70013D01*
X72615Y-70013D01*
X72557Y-70041D01*
X72529Y-70070D01*
X73329Y-70413D02*
X73329Y-70099D01*
X73300Y-70041D01*
X73243Y-70013D01*
X73129Y-70013D01*
X73072Y-70041D01*
X73329Y-70384D02*
X73272Y-70413D01*
X73129Y-70413D01*
X73072Y-70384D01*
X73043Y-70327D01*
X73043Y-70270D01*
X73072Y-70213D01*
X73129Y-70184D01*
X73272Y-70184D01*
X73329Y-70156D01*
X73843Y-70384D02*
X73786Y-70413D01*
X73672Y-70413D01*
X73615Y-70384D01*
X73586Y-70327D01*
X73586Y-70099D01*
X73615Y-70041D01*
X73672Y-70013D01*
X73786Y-70013D01*
X73843Y-70041D01*
X73872Y-70099D01*
X73872Y-70156D01*
X73586Y-70213D01*
X74215Y-70413D02*
X74157Y-70384D01*
X74129Y-70327D01*
X74129Y-69813D01*
X74900Y-70413D02*
X74900Y-69813D01*
X75100Y-70241D01*
X75300Y-69813D01*
X75300Y-70413D01*
X75843Y-70413D02*
X75843Y-70099D01*
X75814Y-70041D01*
X75757Y-70013D01*
X75643Y-70013D01*
X75586Y-70041D01*
X75843Y-70384D02*
X75786Y-70413D01*
X75643Y-70413D01*
X75586Y-70384D01*
X75557Y-70327D01*
X75557Y-70270D01*
X75586Y-70213D01*
X75643Y-70184D01*
X75786Y-70184D01*
X75843Y-70156D01*
X76386Y-70013D02*
X76386Y-70499D01*
X76357Y-70556D01*
X76329Y-70584D01*
X76272Y-70613D01*
X76186Y-70613D01*
X76129Y-70584D01*
X76386Y-70384D02*
X76329Y-70413D01*
X76215Y-70413D01*
X76157Y-70384D01*
X76129Y-70356D01*
X76100Y-70299D01*
X76100Y-70127D01*
X76129Y-70070D01*
X76157Y-70041D01*
X76215Y-70013D01*
X76329Y-70013D01*
X76386Y-70041D01*
X76615Y-70013D02*
X76758Y-70413D01*
X76900Y-70013D02*
X76758Y-70413D01*
X76700Y-70556D01*
X76672Y-70584D01*
X76615Y-70613D01*
X77386Y-70413D02*
X77386Y-70099D01*
X77357Y-70041D01*
X77300Y-70013D01*
X77186Y-70013D01*
X77129Y-70041D01*
X77386Y-70384D02*
X77329Y-70413D01*
X77186Y-70413D01*
X77129Y-70384D01*
X77100Y-70327D01*
X77100Y-70270D01*
X77129Y-70213D01*
X77186Y-70184D01*
X77329Y-70184D01*
X77386Y-70156D01*
X77672Y-70413D02*
X77672Y-70013D01*
X77672Y-70127D02*
X77700Y-70070D01*
X77729Y-70041D01*
X77786Y-70013D01*
X77843Y-70013D01*
X70300Y-69570D02*
X70300Y-77970D01*
X70300Y-71970D02*
X112300Y-71970D01*
X70300Y-69570D02*
X112300Y-69570D01*
X70300Y-74370D02*
X112300Y-74370D01*
X103500Y-75570D02*
X103500Y-77970D01*
X70300Y-76770D02*
X112300Y-76770D01*
X70300Y-75570D02*
X112300Y-75570D01*
X76900Y-75570D02*
X76900Y-76770D01*
G54D12*
X45850Y-38992D03*
X45850Y-37992D03*
X45850Y-36992D03*
X45850Y-33992D03*
X45850Y-34992D03*
X45850Y-35992D03*
G54D13*
X72736Y-29504D03*
G54D14*
X75098Y-29504D03*
G54D12*
X51949Y-32949D03*
X52956Y-32949D03*
X51949Y-31949D03*
X52956Y-31949D03*
X52956Y-35949D03*
X51949Y-35949D03*
X52956Y-36949D03*
X51949Y-36949D03*
X52956Y-33949D03*
X51949Y-33949D03*
X52956Y-34949D03*
X51949Y-34949D03*
X51949Y-38949D03*
X52956Y-38949D03*
X51949Y-37949D03*
X52956Y-37949D03*
X51949Y-40949D03*
X52956Y-40949D03*
X51949Y-39949D03*
X52956Y-39949D03*
X55610Y-29925D03*
X54610Y-29925D03*
X53610Y-29925D03*
X50610Y-29925D03*
X51610Y-29925D03*
X52610Y-29925D03*
G54D15*
X46447Y-27947D03*
X72447Y-26697D03*
X72447Y-45697D03*
X46447Y-44447D03*
G54D12*
X70447Y-26197D03*
X70447Y-27197D03*
X69447Y-26197D03*
X69447Y-27197D03*
X68447Y-26197D03*
X68447Y-27197D03*
X67447Y-26197D03*
X67447Y-27197D03*
X66447Y-26197D03*
X66447Y-27197D03*
X65447Y-26197D03*
X65447Y-27197D03*
X64447Y-26197D03*
X64447Y-27197D03*
X63447Y-26197D03*
X63447Y-27197D03*
X62447Y-26197D03*
X62447Y-27197D03*
X61447Y-26197D03*
X61447Y-27197D03*
X60447Y-26197D03*
X60447Y-27197D03*
X59447Y-26197D03*
X59447Y-27197D03*
X58447Y-26197D03*
X58447Y-27197D03*
X57447Y-26197D03*
X57447Y-27197D03*
X56447Y-26197D03*
X56447Y-27197D03*
X55447Y-26197D03*
X55447Y-27197D03*
X54447Y-26197D03*
X54447Y-27197D03*
X53447Y-26197D03*
X53447Y-27197D03*
X52447Y-26197D03*
X52447Y-27197D03*
X51447Y-26197D03*
X51447Y-27197D03*
X50447Y-26197D03*
X50447Y-27197D03*
X49447Y-26197D03*
X49447Y-27197D03*
X48447Y-26197D03*
X48447Y-27197D03*
X70447Y-45197D03*
X70447Y-46197D03*
X69447Y-45197D03*
X69447Y-46197D03*
X68447Y-45197D03*
X68447Y-46197D03*
X67447Y-45197D03*
X67447Y-46197D03*
X66447Y-45197D03*
X66447Y-46197D03*
X65447Y-45197D03*
X65447Y-46197D03*
X64447Y-45197D03*
X64447Y-46197D03*
X63447Y-45197D03*
X63447Y-46197D03*
X62447Y-45197D03*
X62447Y-46197D03*
X61447Y-45197D03*
X61447Y-46197D03*
X60447Y-45197D03*
X60447Y-46197D03*
X59447Y-45197D03*
X59447Y-46197D03*
X58447Y-45197D03*
X58447Y-46197D03*
X57447Y-45197D03*
X57447Y-46197D03*
X56447Y-45197D03*
X56447Y-46197D03*
X55447Y-45197D03*
X55447Y-46197D03*
X54447Y-45197D03*
X54447Y-46197D03*
X53447Y-45197D03*
X53447Y-46197D03*
X52447Y-45197D03*
X52447Y-46197D03*
X51447Y-45197D03*
X51447Y-46197D03*
X50447Y-45197D03*
X50447Y-46197D03*
X49447Y-45197D03*
X49447Y-46197D03*
X48447Y-45197D03*
X48447Y-46197D03*
X75447Y-31947D03*
X75447Y-32947D03*
X74447Y-31947D03*
X74447Y-32947D03*
X73447Y-31947D03*
X73447Y-32947D03*
X72447Y-31947D03*
X72447Y-32947D03*
X71447Y-31947D03*
X71447Y-32947D03*
X48059Y-32949D03*
X49066Y-32949D03*
X48059Y-31949D03*
X49066Y-31949D03*
X49066Y-35949D03*
X48059Y-35949D03*
X49066Y-36949D03*
X48059Y-36949D03*
X49066Y-33949D03*
X48059Y-33949D03*
X49066Y-34949D03*
X48059Y-34949D03*
X48059Y-38949D03*
X49066Y-38949D03*
X48059Y-37949D03*
X49066Y-37949D03*
X48059Y-40949D03*
X49066Y-40949D03*
X48059Y-39949D03*
X49066Y-39949D03*
G54D16*
X69335Y-42914D03*
X55122Y-44465D03*
X69334Y-41756D03*
X55134Y-44626D03*
X69331Y-42209D03*
X55465Y-44453D03*
X55465Y-44614D03*
X54795Y-44461D03*
X54795Y-44634D03*
X69512Y-42913D03*
X69508Y-42201D03*
X69504Y-41756D03*
X64945Y-38055D03*
X66268Y-39339D03*
X64646Y-29146D03*
X65016Y-37181D03*
X68063Y-35929D03*
X67713Y-36280D03*
X67988Y-36173D03*
X67996Y-36492D03*
X65012Y-29319D03*
X64984Y-37669D03*
X66264Y-31835D03*
X65024Y-36563D03*
X65882Y-33504D03*
X66016Y-34571D03*
X65028Y-36902D03*
X61363Y-36937D03*
X62140Y-37734D03*
X62248Y-36839D03*
X61455Y-36845D03*
X61451Y-37636D03*
X62254Y-37620D03*
X62154Y-36933D03*
X56665Y-33669D03*
X64232Y-33638D03*
X65248Y-35583D03*
X65398Y-35417D03*
X64559Y-38862D03*
X65732Y-35417D03*
X61398Y-39240D03*
X61854Y-34878D03*
X62984Y-37291D03*
X62181Y-35323D03*
X65591Y-39335D03*
X64543Y-37642D03*
X60622Y-37673D03*
X64543Y-35323D03*
X59925Y-34551D03*
X65122Y-33689D03*
X63366Y-38465D03*
X61039Y-35343D03*
X63760Y-38063D03*
X63654Y-34524D03*
X62094Y-29244D03*
X62197Y-36102D03*
X62594Y-33583D03*
X61429Y-38453D03*
X63740Y-35724D03*
X65594Y-37496D03*
X65575Y-39988D03*
X63756Y-40035D03*
X63406Y-36874D03*
X60610Y-38846D03*
X61791Y-39256D03*
X61091Y-33602D03*
X61819Y-39673D03*
X61016Y-36492D03*
X59854Y-39689D03*
X64948Y-35662D03*
X61654Y-30173D03*
X58437Y-39854D03*
X56634Y-44146D03*
X59055Y-37165D03*
X59854Y-37992D03*
X59839Y-36921D03*
X59055Y-39146D03*
X59047Y-35516D03*
X56776Y-42520D03*
X58461Y-39539D03*
X58406Y-40465D03*
X59882Y-38795D03*
X58240Y-38913D03*
X59772Y-38528D03*
X58287Y-38520D03*
X60602Y-38091D03*
X60260Y-38433D03*
X60236Y-37665D03*
X60197Y-38102D03*
X59819Y-37689D03*
X60638Y-36909D03*
X59858Y-37268D03*
X60264Y-36535D03*
X57610Y-36697D03*
X60272Y-36150D03*
X60610Y-36488D03*
X58287Y-36055D03*
X58252Y-36295D03*
X59787Y-36051D03*
X59835Y-35850D03*
X62661Y-28012D03*
X63602Y-27984D03*
X65327Y-34142D03*
X62217Y-34949D03*
X63425Y-33760D03*
X65098Y-33031D03*
X59831Y-39224D03*
X65598Y-29134D03*
X63752Y-39264D03*
X62949Y-39776D03*
X60228Y-37272D03*
X59075Y-38008D03*
X59047Y-36291D03*
X65665Y-34740D03*
X64619Y-29354D03*
X63370Y-37307D03*
X60232Y-35480D03*
X61800Y-38075D03*
X61390Y-37303D03*
X61331Y-34492D03*
X61413Y-35724D03*
X62571Y-36909D03*
X64949Y-34315D03*
X58661Y-34331D03*
X73681Y-43331D03*
X69638Y-28846D03*
X61835Y-38858D03*
X68169Y-29205D03*
X69071Y-37157D03*
X69079Y-36134D03*
X71012Y-28551D03*
X63776Y-35311D03*
X62594Y-34543D03*
X64539Y-38091D03*
X69047Y-38165D03*
X69606Y-28406D03*
X67953Y-28811D03*
X56024Y-43606D03*
X55921Y-42787D03*
X54398Y-42862D03*
X63665Y-33488D03*
X62713Y-29929D03*
X61024Y-29969D03*
X55681Y-43961D03*
X61024Y-39650D03*
X58437Y-40240D03*
X67992Y-40059D03*
X61799Y-37287D03*
X64980Y-40118D03*
X61752Y-33646D03*
X55398Y-41614D03*
X56929Y-29961D03*
X71374Y-29445D03*
X67323Y-41370D03*
X57555Y-40228D03*
X66496Y-41480D03*
X63370Y-37669D03*
X73669Y-41972D03*
X66622Y-42169D03*
X65020Y-39433D03*
X64984Y-38441D03*
X56461Y-44209D03*
X66386Y-38736D03*
X59780Y-41386D03*
X65059Y-37866D03*
X67319Y-43795D03*
X64177Y-36567D03*
X65445Y-34575D03*
X68776Y-42551D03*
X64972Y-39638D03*
X64969Y-39051D03*
X68650Y-42012D03*
X56575Y-42449D03*
X55819Y-41417D03*
X67181Y-42169D03*
X65579Y-43575D03*
X69819Y-29744D03*
X67961Y-28610D03*
X61772Y-35012D03*
X60630Y-35327D03*
X60606Y-35724D03*
X60232Y-35630D03*
X60256Y-35760D03*
X57252Y-30598D03*
X57559Y-30587D03*
X57874Y-30598D03*
X58189Y-30591D03*
X58504Y-30598D03*
X58819Y-30618D03*
X61008Y-35720D03*
X59134Y-30638D03*
X59445Y-30626D03*
X61409Y-35031D03*
X61421Y-35346D03*
X61811Y-35350D03*
X60079Y-30646D03*
X59768Y-30626D03*
X64622Y-32354D03*
X63339Y-35346D03*
X62961Y-35362D03*
X62531Y-33134D03*
X62776Y-33264D03*
X62126Y-33406D03*
X61618Y-31921D03*
X61425Y-31815D03*
X60965Y-30673D03*
X61976Y-31283D03*
X62606Y-31563D03*
X63323Y-31606D03*
X63921Y-31949D03*
X63980Y-31535D03*
X64177Y-31480D03*
X64807Y-31421D03*
X61181Y-33409D03*
X60394Y-30646D03*
X62220Y-34598D03*
X62992Y-30764D03*
X62579Y-30728D03*
G54D17*
X55134Y-44626D02*
X55225Y-44535D01*
X69402Y-42220D02*
X69402Y-42220D01*
G54D18*
X69402Y-42898D02*
X69402Y-43125D01*
X69402Y-41858D02*
X69402Y-42220D01*
G54D17*
X69504Y-41756D02*
X69465Y-41717D01*
X55465Y-44614D02*
X55544Y-44535D01*
G54D18*
X55469Y-44535D02*
X55122Y-44535D01*
X67992Y-44535D02*
X55665Y-44535D01*
G54D17*
X55544Y-44535D02*
X55606Y-44535D01*
G54D18*
X55122Y-44535D02*
X54870Y-44535D01*
G54D17*
X69402Y-41792D02*
X69402Y-41792D01*
G54D18*
X71870Y-29504D02*
X69402Y-31972D01*
G54D17*
X69402Y-42201D02*
X69402Y-42201D01*
X55606Y-44535D02*
X55665Y-44594D01*
X55287Y-44567D02*
X55287Y-44535D01*
X69335Y-42213D02*
X69402Y-42213D01*
X69402Y-42898D02*
X69402Y-42898D01*
X55665Y-44594D02*
X55665Y-44535D01*
X55225Y-44535D02*
X55469Y-44535D01*
X69402Y-42220D02*
X69402Y-42201D01*
G54D18*
X54870Y-44535D02*
X54799Y-44535D01*
G54D17*
X69442Y-42843D02*
X69402Y-42843D01*
X55122Y-44465D02*
X55122Y-44535D01*
X69335Y-42914D02*
X69351Y-42898D01*
G54D18*
X54799Y-44535D02*
X54799Y-44535D01*
G54D17*
X55437Y-44567D02*
X55287Y-44567D01*
X69465Y-41717D02*
X69402Y-41717D01*
X69508Y-42201D02*
X69402Y-42201D01*
X54799Y-44630D02*
X54799Y-44535D01*
X54795Y-44634D02*
X54799Y-44630D01*
G54D18*
X69402Y-42220D02*
X69402Y-42898D01*
G54D17*
X69512Y-42913D02*
X69442Y-42843D01*
X55469Y-44535D02*
X55437Y-44567D01*
X54870Y-44535D02*
X54869Y-44535D01*
X69402Y-41717D02*
X69402Y-41756D01*
G54D18*
X55287Y-44535D02*
X55469Y-44535D01*
X69402Y-43125D02*
X67992Y-44535D01*
G54D17*
X69402Y-42213D02*
X69402Y-42201D01*
X69334Y-41756D02*
X69402Y-41756D01*
X55469Y-44535D02*
X55465Y-44531D01*
X55465Y-44531D02*
X55465Y-44453D01*
X69351Y-42898D02*
X69402Y-42898D01*
X69402Y-41756D02*
X69402Y-41792D01*
X69331Y-42209D02*
X69335Y-42213D01*
G54D19*
X71870Y-29504D02*
X69402Y-31972D01*
G54D17*
X54869Y-44535D02*
X54795Y-44461D01*
G54D18*
X55665Y-44535D02*
X55287Y-44535D01*
X69402Y-31972D02*
X69402Y-41858D01*
G54D17*
X69402Y-42843D02*
X69402Y-42898D01*
X69402Y-41792D02*
X69402Y-41858D01*
G54D19*
X72736Y-29504D02*
X71870Y-29504D01*
G54D20*
X64945Y-38055D02*
X66236Y-39346D01*
X66236Y-39346D02*
X66261Y-39346D01*
X66261Y-39346D02*
X66268Y-39339D01*
G54D19*
X65850Y-29803D02*
X65850Y-31665D01*
X66925Y-35929D02*
X68063Y-35929D01*
X66385Y-32200D02*
X66385Y-35389D01*
X65193Y-29146D02*
X65850Y-29803D01*
X66385Y-35389D02*
X66925Y-35929D01*
X65850Y-31665D02*
X66385Y-32200D01*
X64646Y-29146D02*
X65193Y-29146D01*
X66812Y-37181D02*
X65016Y-37181D01*
X67713Y-36280D02*
X66812Y-37181D01*
X64992Y-37677D02*
X64984Y-37669D01*
X66260Y-35513D02*
X66920Y-36173D01*
X66811Y-37677D02*
X64992Y-37677D01*
X66260Y-32248D02*
X66260Y-35513D01*
X66920Y-36173D02*
X67988Y-36173D01*
X65012Y-29319D02*
X65669Y-29976D01*
X65669Y-29976D02*
X65669Y-31657D01*
X65669Y-31657D02*
X66260Y-32248D01*
X67996Y-36492D02*
X66811Y-37677D01*
X63959Y-26709D02*
X65756Y-26709D01*
X63447Y-26197D02*
X63959Y-26709D01*
X66024Y-31595D02*
X66264Y-31835D01*
X65756Y-26709D02*
X66024Y-26977D01*
X66024Y-26977D02*
X66024Y-31595D01*
X65145Y-36563D02*
X65437Y-36563D01*
X65024Y-36563D02*
X65145Y-36563D01*
X65437Y-36563D02*
X65858Y-36142D01*
X65882Y-36118D02*
X65882Y-33504D01*
X65858Y-36142D02*
X65882Y-36118D01*
X65445Y-36902D02*
X66016Y-36331D01*
X65028Y-36902D02*
X65445Y-36902D01*
X66016Y-36331D02*
X66016Y-34571D01*
G54D20*
X64948Y-35662D02*
X64949Y-35661D01*
X65406Y-35409D02*
X65406Y-35406D01*
X65398Y-35417D02*
X65406Y-35409D01*
X65122Y-33689D02*
X65122Y-33744D01*
X65575Y-39988D02*
X65571Y-39988D01*
X65122Y-33744D02*
X65138Y-33760D01*
X65732Y-35417D02*
X65736Y-35417D01*
G54D17*
X56634Y-44146D02*
X56634Y-42662D01*
G54D20*
X58437Y-39854D02*
X58441Y-39854D01*
G54D17*
X56634Y-42662D02*
X56776Y-42520D01*
G54D20*
X58461Y-39539D02*
X58457Y-39539D01*
G54D19*
X49409Y-41295D02*
X49066Y-40949D01*
X53248Y-41295D02*
X49409Y-41295D01*
X58240Y-38913D02*
X55630Y-38913D01*
X55630Y-38913D02*
X53248Y-41295D01*
X49413Y-40299D02*
X49066Y-39949D01*
X55590Y-38520D02*
X53811Y-40299D01*
X58287Y-38520D02*
X55590Y-38520D01*
X53811Y-40299D02*
X49413Y-40299D01*
X58252Y-36295D02*
X57645Y-36295D01*
X49519Y-33406D02*
X49066Y-32949D01*
X54756Y-33406D02*
X49519Y-33406D01*
X57645Y-36295D02*
X54756Y-33406D01*
X64670Y-32189D02*
X65453Y-32972D01*
X65453Y-32972D02*
X65453Y-34016D01*
X63447Y-31207D02*
X64429Y-32189D01*
X65453Y-34016D02*
X65327Y-34142D01*
X64429Y-32189D02*
X64670Y-32189D01*
X63447Y-27197D02*
X63447Y-31207D01*
X63843Y-33031D02*
X63425Y-33449D01*
X63425Y-33449D02*
X63425Y-33760D01*
X65098Y-33031D02*
X63843Y-33031D01*
X63866Y-31047D02*
X63866Y-28778D01*
X63866Y-28778D02*
X65447Y-27197D01*
X63866Y-31047D02*
X65669Y-32850D01*
X65669Y-34351D02*
X65445Y-34575D01*
X65669Y-32850D02*
X65669Y-34351D01*
X68099Y-41874D02*
X68776Y-42551D01*
X67208Y-41874D02*
X68099Y-41874D01*
X64972Y-39638D02*
X67208Y-41874D01*
X66319Y-39681D02*
X68650Y-42012D01*
X64969Y-39051D02*
X65599Y-39681D01*
X65599Y-39681D02*
X66319Y-39681D01*
G54D17*
X55819Y-41417D02*
X56559Y-42157D01*
X56559Y-42157D02*
X56575Y-42449D01*
X65579Y-43575D02*
X66985Y-42169D01*
X66985Y-42169D02*
X67181Y-42169D01*
X67961Y-28610D02*
X69095Y-29744D01*
X69095Y-29744D02*
X69819Y-29744D01*
G54D19*
X62953Y-26798D02*
X62447Y-26197D01*
X62992Y-30764D02*
X62953Y-26798D01*
X62447Y-30596D02*
X62447Y-27197D01*
X62579Y-30728D02*
X62447Y-30596D01*
G54D10*
G36*
X60286Y-37986D02*
X60279Y-37979D01*
X60226Y-37957D01*
X60168Y-37957D01*
X60115Y-37979D01*
X60074Y-38020D01*
X60052Y-38073D01*
X60052Y-38131D01*
X60074Y-38184D01*
X60115Y-38225D01*
X60168Y-38247D01*
X60226Y-38247D01*
X60232Y-38244D01*
X60197Y-38301D01*
X60178Y-38310D01*
X60137Y-38351D01*
X60115Y-38404D01*
X60115Y-38437D01*
X60003Y-38621D01*
X60003Y-37297D01*
X60003Y-37239D01*
X59981Y-37186D01*
X59980Y-37185D01*
X59980Y-35879D01*
X59980Y-35821D01*
X59958Y-35768D01*
X59917Y-35727D01*
X59864Y-35705D01*
X59806Y-35705D01*
X59753Y-35727D01*
X59712Y-35768D01*
X59690Y-35821D01*
X59690Y-35879D01*
X59709Y-35926D01*
X59705Y-35928D01*
X59664Y-35969D01*
X59642Y-36022D01*
X59642Y-36080D01*
X59664Y-36133D01*
X59705Y-36174D01*
X59758Y-36196D01*
X59816Y-36196D01*
X59869Y-36174D01*
X59910Y-36133D01*
X59932Y-36080D01*
X59932Y-36022D01*
X59912Y-35974D01*
X59917Y-35973D01*
X59958Y-35932D01*
X59980Y-35879D01*
X59980Y-37185D01*
X59940Y-37145D01*
X59887Y-37123D01*
X59829Y-37123D01*
X59776Y-37145D01*
X59735Y-37186D01*
X59713Y-37239D01*
X59713Y-37297D01*
X59735Y-37350D01*
X59776Y-37391D01*
X59829Y-37413D01*
X59887Y-37413D01*
X59940Y-37391D01*
X59981Y-37350D01*
X60003Y-37297D01*
X60003Y-38621D01*
X59969Y-38677D01*
X59964Y-38672D01*
X59964Y-37718D01*
X59964Y-37660D01*
X59942Y-37607D01*
X59901Y-37566D01*
X59848Y-37544D01*
X59790Y-37544D01*
X59737Y-37566D01*
X59696Y-37607D01*
X59674Y-37660D01*
X59674Y-37718D01*
X59696Y-37771D01*
X59737Y-37812D01*
X59790Y-37834D01*
X59848Y-37834D01*
X59901Y-37812D01*
X59942Y-37771D01*
X59964Y-37718D01*
X59964Y-38672D01*
X59911Y-38650D01*
X59855Y-38650D01*
X59895Y-38610D01*
X59917Y-38557D01*
X59917Y-38499D01*
X59895Y-38446D01*
X59854Y-38405D01*
X59801Y-38383D01*
X59743Y-38383D01*
X59690Y-38405D01*
X59649Y-38446D01*
X59627Y-38499D01*
X59627Y-38557D01*
X59649Y-38610D01*
X59690Y-38651D01*
X59743Y-38673D01*
X59799Y-38673D01*
X59759Y-38713D01*
X59737Y-38766D01*
X59737Y-38824D01*
X59759Y-38877D01*
X59800Y-38918D01*
X59817Y-38925D01*
X59461Y-39511D01*
X59458Y-40685D01*
X59220Y-40697D01*
X59220Y-38037D01*
X59220Y-37979D01*
X59198Y-37926D01*
X59192Y-37920D01*
X59192Y-36320D01*
X59192Y-36262D01*
X59170Y-36209D01*
X59129Y-36168D01*
X59076Y-36146D01*
X59018Y-36146D01*
X58965Y-36168D01*
X58924Y-36209D01*
X58902Y-36262D01*
X58902Y-36320D01*
X58924Y-36373D01*
X58965Y-36414D01*
X59018Y-36436D01*
X59076Y-36436D01*
X59129Y-36414D01*
X59170Y-36373D01*
X59192Y-36320D01*
X59192Y-37920D01*
X59157Y-37885D01*
X59104Y-37863D01*
X59046Y-37863D01*
X58993Y-37885D01*
X58952Y-37926D01*
X58930Y-37979D01*
X58930Y-38037D01*
X58952Y-38090D01*
X58993Y-38131D01*
X59046Y-38153D01*
X59104Y-38153D01*
X59157Y-38131D01*
X59198Y-38090D01*
X59220Y-38037D01*
X59220Y-40697D01*
X58582Y-40731D01*
X58582Y-40269D01*
X58582Y-40211D01*
X58560Y-40158D01*
X58519Y-40117D01*
X58466Y-40095D01*
X58444Y-40095D01*
X58444Y-38520D01*
X58432Y-38460D01*
X58432Y-36084D01*
X58432Y-36026D01*
X58410Y-35973D01*
X58369Y-35932D01*
X58316Y-35910D01*
X58258Y-35910D01*
X58205Y-35932D01*
X58164Y-35973D01*
X58142Y-36026D01*
X58142Y-36084D01*
X58164Y-36137D01*
X58165Y-36138D01*
X57710Y-36138D01*
X54867Y-33295D01*
X54816Y-33261D01*
X54756Y-33249D01*
X53203Y-33249D01*
X53284Y-33168D01*
X53343Y-33026D01*
X53343Y-32872D01*
X53343Y-32026D01*
X53343Y-31872D01*
X53284Y-31730D01*
X53175Y-31621D01*
X53033Y-31562D01*
X52879Y-31562D01*
X52737Y-31621D01*
X52628Y-31730D01*
X52569Y-31872D01*
X52569Y-32026D01*
X52628Y-32168D01*
X52737Y-32277D01*
X52879Y-32336D01*
X53033Y-32336D01*
X53175Y-32277D01*
X53284Y-32168D01*
X53343Y-32026D01*
X53343Y-32872D01*
X53284Y-32730D01*
X53175Y-32621D01*
X53033Y-32562D01*
X52879Y-32562D01*
X52737Y-32621D01*
X52628Y-32730D01*
X52569Y-32872D01*
X52569Y-33026D01*
X52628Y-33168D01*
X52709Y-33249D01*
X52196Y-33249D01*
X52277Y-33168D01*
X52336Y-33026D01*
X52336Y-32872D01*
X52336Y-32026D01*
X52336Y-31872D01*
X52277Y-31730D01*
X52168Y-31621D01*
X52026Y-31562D01*
X51872Y-31562D01*
X51730Y-31621D01*
X51621Y-31730D01*
X51562Y-31872D01*
X51562Y-32026D01*
X51621Y-32168D01*
X51730Y-32277D01*
X51872Y-32336D01*
X52026Y-32336D01*
X52168Y-32277D01*
X52277Y-32168D01*
X52336Y-32026D01*
X52336Y-32872D01*
X52277Y-32730D01*
X52168Y-32621D01*
X52026Y-32562D01*
X51872Y-32562D01*
X51730Y-32621D01*
X51621Y-32730D01*
X51562Y-32872D01*
X51562Y-33026D01*
X51621Y-33168D01*
X51702Y-33249D01*
X49583Y-33249D01*
X49426Y-33090D01*
X49453Y-33026D01*
X49453Y-32872D01*
X49453Y-32026D01*
X49453Y-31872D01*
X49394Y-31730D01*
X49285Y-31621D01*
X49143Y-31562D01*
X48989Y-31562D01*
X48847Y-31621D01*
X48738Y-31730D01*
X48679Y-31872D01*
X48679Y-32026D01*
X48738Y-32168D01*
X48847Y-32277D01*
X48989Y-32336D01*
X49143Y-32336D01*
X49285Y-32277D01*
X49394Y-32168D01*
X49453Y-32026D01*
X49453Y-32872D01*
X49394Y-32730D01*
X49285Y-32621D01*
X49143Y-32562D01*
X48989Y-32562D01*
X48847Y-32621D01*
X48738Y-32730D01*
X48679Y-32872D01*
X48679Y-33026D01*
X48738Y-33168D01*
X48847Y-33277D01*
X48989Y-33336D01*
X49143Y-33336D01*
X49203Y-33310D01*
X49407Y-33516D01*
X49408Y-33517D01*
X49417Y-33523D01*
X49457Y-33551D01*
X49459Y-33551D01*
X49517Y-33563D01*
X49518Y-33562D01*
X49519Y-33563D01*
X51869Y-33563D01*
X51730Y-33621D01*
X51621Y-33730D01*
X51562Y-33872D01*
X51562Y-34026D01*
X51621Y-34168D01*
X51730Y-34277D01*
X51872Y-34336D01*
X52026Y-34336D01*
X52168Y-34277D01*
X52277Y-34168D01*
X52336Y-34026D01*
X52336Y-33872D01*
X52277Y-33730D01*
X52168Y-33621D01*
X52028Y-33563D01*
X52876Y-33563D01*
X52737Y-33621D01*
X52628Y-33730D01*
X52569Y-33872D01*
X52569Y-34026D01*
X52628Y-34168D01*
X52737Y-34277D01*
X52879Y-34336D01*
X53033Y-34336D01*
X53175Y-34277D01*
X53284Y-34168D01*
X53343Y-34026D01*
X53343Y-33872D01*
X53284Y-33730D01*
X53175Y-33621D01*
X53035Y-33563D01*
X54691Y-33563D01*
X57534Y-36406D01*
X57584Y-36439D01*
X57585Y-36440D01*
X57645Y-36452D01*
X58252Y-36452D01*
X58312Y-36440D01*
X58363Y-36406D01*
X58397Y-36355D01*
X58409Y-36295D01*
X58397Y-36235D01*
X58363Y-36184D01*
X58359Y-36181D01*
X58369Y-36178D01*
X58410Y-36137D01*
X58432Y-36084D01*
X58432Y-38460D01*
X58398Y-38409D01*
X58347Y-38375D01*
X58287Y-38363D01*
X57755Y-38363D01*
X57755Y-36726D01*
X57755Y-36668D01*
X57733Y-36615D01*
X57692Y-36574D01*
X57639Y-36552D01*
X57581Y-36552D01*
X57528Y-36574D01*
X57487Y-36615D01*
X57465Y-36668D01*
X57465Y-36726D01*
X57487Y-36779D01*
X57528Y-36820D01*
X57581Y-36842D01*
X57639Y-36842D01*
X57692Y-36820D01*
X57733Y-36779D01*
X57755Y-36726D01*
X57755Y-38363D01*
X55590Y-38363D01*
X55530Y-38375D01*
X55479Y-38409D01*
X55478Y-38409D01*
X55478Y-38410D01*
X53746Y-40142D01*
X53294Y-40142D01*
X53343Y-40026D01*
X53343Y-39872D01*
X53343Y-39026D01*
X53343Y-38872D01*
X53343Y-38026D01*
X53343Y-37872D01*
X53343Y-37026D01*
X53343Y-36872D01*
X53343Y-36026D01*
X53343Y-35872D01*
X53343Y-35026D01*
X53343Y-34872D01*
X53284Y-34730D01*
X53175Y-34621D01*
X53033Y-34562D01*
X52879Y-34562D01*
X52737Y-34621D01*
X52628Y-34730D01*
X52569Y-34872D01*
X52569Y-35026D01*
X52628Y-35168D01*
X52737Y-35277D01*
X52879Y-35336D01*
X53033Y-35336D01*
X53175Y-35277D01*
X53284Y-35168D01*
X53343Y-35026D01*
X53343Y-35872D01*
X53284Y-35730D01*
X53175Y-35621D01*
X53033Y-35562D01*
X52879Y-35562D01*
X52737Y-35621D01*
X52628Y-35730D01*
X52569Y-35872D01*
X52569Y-36026D01*
X52628Y-36168D01*
X52737Y-36277D01*
X52879Y-36336D01*
X53033Y-36336D01*
X53175Y-36277D01*
X53284Y-36168D01*
X53343Y-36026D01*
X53343Y-36872D01*
X53284Y-36730D01*
X53175Y-36621D01*
X53033Y-36562D01*
X52879Y-36562D01*
X52737Y-36621D01*
X52628Y-36730D01*
X52569Y-36872D01*
X52569Y-37026D01*
X52628Y-37168D01*
X52737Y-37277D01*
X52879Y-37336D01*
X53033Y-37336D01*
X53175Y-37277D01*
X53284Y-37168D01*
X53343Y-37026D01*
X53343Y-37872D01*
X53284Y-37730D01*
X53175Y-37621D01*
X53033Y-37562D01*
X52879Y-37562D01*
X52737Y-37621D01*
X52628Y-37730D01*
X52569Y-37872D01*
X52569Y-38026D01*
X52628Y-38168D01*
X52737Y-38277D01*
X52879Y-38336D01*
X53033Y-38336D01*
X53175Y-38277D01*
X53284Y-38168D01*
X53343Y-38026D01*
X53343Y-38872D01*
X53284Y-38730D01*
X53175Y-38621D01*
X53033Y-38562D01*
X52879Y-38562D01*
X52737Y-38621D01*
X52628Y-38730D01*
X52569Y-38872D01*
X52569Y-39026D01*
X52628Y-39168D01*
X52737Y-39277D01*
X52879Y-39336D01*
X53033Y-39336D01*
X53175Y-39277D01*
X53284Y-39168D01*
X53343Y-39026D01*
X53343Y-39872D01*
X53284Y-39730D01*
X53175Y-39621D01*
X53033Y-39562D01*
X52879Y-39562D01*
X52737Y-39621D01*
X52628Y-39730D01*
X52569Y-39872D01*
X52569Y-40026D01*
X52617Y-40142D01*
X52287Y-40142D01*
X52336Y-40026D01*
X52336Y-39872D01*
X52336Y-39026D01*
X52336Y-38872D01*
X52336Y-38026D01*
X52336Y-37872D01*
X52336Y-37026D01*
X52336Y-36872D01*
X52336Y-36026D01*
X52336Y-35872D01*
X52336Y-35026D01*
X52336Y-34872D01*
X52277Y-34730D01*
X52168Y-34621D01*
X52026Y-34562D01*
X51872Y-34562D01*
X51730Y-34621D01*
X51621Y-34730D01*
X51562Y-34872D01*
X51562Y-35026D01*
X51621Y-35168D01*
X51730Y-35277D01*
X51872Y-35336D01*
X52026Y-35336D01*
X52168Y-35277D01*
X52277Y-35168D01*
X52336Y-35026D01*
X52336Y-35872D01*
X52277Y-35730D01*
X52168Y-35621D01*
X52026Y-35562D01*
X51872Y-35562D01*
X51730Y-35621D01*
X51621Y-35730D01*
X51562Y-35872D01*
X51562Y-36026D01*
X51621Y-36168D01*
X51730Y-36277D01*
X51872Y-36336D01*
X52026Y-36336D01*
X52168Y-36277D01*
X52277Y-36168D01*
X52336Y-36026D01*
X52336Y-36872D01*
X52277Y-36730D01*
X52168Y-36621D01*
X52026Y-36562D01*
X51872Y-36562D01*
X51730Y-36621D01*
X51621Y-36730D01*
X51562Y-36872D01*
X51562Y-37026D01*
X51621Y-37168D01*
X51730Y-37277D01*
X51872Y-37336D01*
X52026Y-37336D01*
X52168Y-37277D01*
X52277Y-37168D01*
X52336Y-37026D01*
X52336Y-37872D01*
X52277Y-37730D01*
X52168Y-37621D01*
X52026Y-37562D01*
X51872Y-37562D01*
X51730Y-37621D01*
X51621Y-37730D01*
X51562Y-37872D01*
X51562Y-38026D01*
X51621Y-38168D01*
X51730Y-38277D01*
X51872Y-38336D01*
X52026Y-38336D01*
X52168Y-38277D01*
X52277Y-38168D01*
X52336Y-38026D01*
X52336Y-38872D01*
X52277Y-38730D01*
X52168Y-38621D01*
X52026Y-38562D01*
X51872Y-38562D01*
X51730Y-38621D01*
X51621Y-38730D01*
X51562Y-38872D01*
X51562Y-39026D01*
X51621Y-39168D01*
X51730Y-39277D01*
X51872Y-39336D01*
X52026Y-39336D01*
X52168Y-39277D01*
X52277Y-39168D01*
X52336Y-39026D01*
X52336Y-39872D01*
X52277Y-39730D01*
X52168Y-39621D01*
X52026Y-39562D01*
X51872Y-39562D01*
X51730Y-39621D01*
X51621Y-39730D01*
X51562Y-39872D01*
X51562Y-40026D01*
X51610Y-40142D01*
X49479Y-40142D01*
X49426Y-40089D01*
X49453Y-40026D01*
X49453Y-39872D01*
X49453Y-39026D01*
X49453Y-38872D01*
X49453Y-38026D01*
X49453Y-37872D01*
X49453Y-37026D01*
X49453Y-36872D01*
X49453Y-36026D01*
X49453Y-35872D01*
X49453Y-35026D01*
X49453Y-34872D01*
X49453Y-34026D01*
X49453Y-33872D01*
X49394Y-33730D01*
X49285Y-33621D01*
X49143Y-33562D01*
X48989Y-33562D01*
X48847Y-33621D01*
X48738Y-33730D01*
X48679Y-33872D01*
X48679Y-34026D01*
X48738Y-34168D01*
X48847Y-34277D01*
X48989Y-34336D01*
X49143Y-34336D01*
X49285Y-34277D01*
X49394Y-34168D01*
X49453Y-34026D01*
X49453Y-34872D01*
X49394Y-34730D01*
X49285Y-34621D01*
X49143Y-34562D01*
X48989Y-34562D01*
X48847Y-34621D01*
X48738Y-34730D01*
X48679Y-34872D01*
X48679Y-35026D01*
X48738Y-35168D01*
X48847Y-35277D01*
X48989Y-35336D01*
X49143Y-35336D01*
X49285Y-35277D01*
X49394Y-35168D01*
X49453Y-35026D01*
X49453Y-35872D01*
X49394Y-35730D01*
X49285Y-35621D01*
X49143Y-35562D01*
X48989Y-35562D01*
X48847Y-35621D01*
X48738Y-35730D01*
X48679Y-35872D01*
X48679Y-36026D01*
X48738Y-36168D01*
X48847Y-36277D01*
X48989Y-36336D01*
X49143Y-36336D01*
X49285Y-36277D01*
X49394Y-36168D01*
X49453Y-36026D01*
X49453Y-36872D01*
X49394Y-36730D01*
X49285Y-36621D01*
X49143Y-36562D01*
X48989Y-36562D01*
X48847Y-36621D01*
X48738Y-36730D01*
X48679Y-36872D01*
X48679Y-37026D01*
X48738Y-37168D01*
X48847Y-37277D01*
X48989Y-37336D01*
X49143Y-37336D01*
X49285Y-37277D01*
X49394Y-37168D01*
X49453Y-37026D01*
X49453Y-37872D01*
X49394Y-37730D01*
X49285Y-37621D01*
X49143Y-37562D01*
X48989Y-37562D01*
X48847Y-37621D01*
X48738Y-37730D01*
X48679Y-37872D01*
X48679Y-38026D01*
X48738Y-38168D01*
X48847Y-38277D01*
X48989Y-38336D01*
X49143Y-38336D01*
X49285Y-38277D01*
X49394Y-38168D01*
X49453Y-38026D01*
X49453Y-38872D01*
X49394Y-38730D01*
X49285Y-38621D01*
X49143Y-38562D01*
X48989Y-38562D01*
X48847Y-38621D01*
X48738Y-38730D01*
X48679Y-38872D01*
X48679Y-39026D01*
X48738Y-39168D01*
X48847Y-39277D01*
X48989Y-39336D01*
X49143Y-39336D01*
X49285Y-39277D01*
X49394Y-39168D01*
X49453Y-39026D01*
X49453Y-39872D01*
X49394Y-39730D01*
X49285Y-39621D01*
X49143Y-39562D01*
X48989Y-39562D01*
X48847Y-39621D01*
X48738Y-39730D01*
X48679Y-39872D01*
X48679Y-40026D01*
X48738Y-40168D01*
X48847Y-40277D01*
X48989Y-40336D01*
X49143Y-40336D01*
X49203Y-40310D01*
X49301Y-40409D01*
X49302Y-40410D01*
X49352Y-40443D01*
X49353Y-40444D01*
X49412Y-40455D01*
X49413Y-40456D01*
X53811Y-40456D01*
X53871Y-40444D01*
X53889Y-40432D01*
X53343Y-40978D01*
X53343Y-40872D01*
X53284Y-40730D01*
X53175Y-40621D01*
X53033Y-40562D01*
X52879Y-40562D01*
X52737Y-40621D01*
X52628Y-40730D01*
X52569Y-40872D01*
X52569Y-41026D01*
X52615Y-41138D01*
X52289Y-41138D01*
X52336Y-41026D01*
X52336Y-40872D01*
X52277Y-40730D01*
X52168Y-40621D01*
X52026Y-40562D01*
X51872Y-40562D01*
X51730Y-40621D01*
X51621Y-40730D01*
X51562Y-40872D01*
X51562Y-41026D01*
X51608Y-41138D01*
X49475Y-41138D01*
X49426Y-41089D01*
X49453Y-41026D01*
X49453Y-40872D01*
X49394Y-40730D01*
X49285Y-40621D01*
X49143Y-40562D01*
X48989Y-40562D01*
X48847Y-40621D01*
X48738Y-40730D01*
X48679Y-40872D01*
X48679Y-41026D01*
X48738Y-41168D01*
X48847Y-41277D01*
X48989Y-41336D01*
X49143Y-41336D01*
X49204Y-41310D01*
X49295Y-41402D01*
X49298Y-41406D01*
X49349Y-41440D01*
X49409Y-41452D01*
X53248Y-41452D01*
X53308Y-41440D01*
X53359Y-41406D01*
X55695Y-39070D01*
X58240Y-39070D01*
X58300Y-39058D01*
X58351Y-39024D01*
X58385Y-38973D01*
X58397Y-38913D01*
X58385Y-38853D01*
X58351Y-38802D01*
X58300Y-38768D01*
X58240Y-38756D01*
X55630Y-38756D01*
X55570Y-38768D01*
X55552Y-38780D01*
X55655Y-38677D01*
X58287Y-38677D01*
X58347Y-38665D01*
X58398Y-38631D01*
X58432Y-38580D01*
X58444Y-38520D01*
X58444Y-40095D01*
X58408Y-40095D01*
X58355Y-40117D01*
X58314Y-40158D01*
X58292Y-40211D01*
X58292Y-40269D01*
X58314Y-40322D01*
X58355Y-40363D01*
X58408Y-40385D01*
X58466Y-40385D01*
X58519Y-40363D01*
X58560Y-40322D01*
X58582Y-40269D01*
X58582Y-40731D01*
X58151Y-40754D01*
X58151Y-40755D01*
X57700Y-40707D01*
X57700Y-40257D01*
X57700Y-40199D01*
X57678Y-40146D01*
X57637Y-40105D01*
X57584Y-40083D01*
X57526Y-40083D01*
X57473Y-40105D01*
X57432Y-40146D01*
X57410Y-40199D01*
X57410Y-40257D01*
X57432Y-40310D01*
X57473Y-40351D01*
X57526Y-40373D01*
X57584Y-40373D01*
X57637Y-40351D01*
X57678Y-40310D01*
X57700Y-40257D01*
X57700Y-40707D01*
X55803Y-40507D01*
X54344Y-41706D01*
X48446Y-41733D01*
X48446Y-41026D01*
X48446Y-40872D01*
X48446Y-40026D01*
X48446Y-39872D01*
X48446Y-39026D01*
X48446Y-38872D01*
X48446Y-38026D01*
X48446Y-37872D01*
X48446Y-37026D01*
X48446Y-36872D01*
X48446Y-36026D01*
X48446Y-35872D01*
X48446Y-35026D01*
X48446Y-34872D01*
X48446Y-34026D01*
X48446Y-33872D01*
X48446Y-33026D01*
X48446Y-32872D01*
X48446Y-32026D01*
X48446Y-31872D01*
X48387Y-31730D01*
X48278Y-31621D01*
X48136Y-31562D01*
X47982Y-31562D01*
X47840Y-31621D01*
X47731Y-31730D01*
X47672Y-31872D01*
X47672Y-32026D01*
X47731Y-32168D01*
X47840Y-32277D01*
X47982Y-32336D01*
X48136Y-32336D01*
X48278Y-32277D01*
X48387Y-32168D01*
X48446Y-32026D01*
X48446Y-32872D01*
X48387Y-32730D01*
X48278Y-32621D01*
X48136Y-32562D01*
X47982Y-32562D01*
X47840Y-32621D01*
X47731Y-32730D01*
X47672Y-32872D01*
X47672Y-33026D01*
X47731Y-33168D01*
X47840Y-33277D01*
X47982Y-33336D01*
X48136Y-33336D01*
X48278Y-33277D01*
X48387Y-33168D01*
X48446Y-33026D01*
X48446Y-33872D01*
X48387Y-33730D01*
X48278Y-33621D01*
X48136Y-33562D01*
X47982Y-33562D01*
X47840Y-33621D01*
X47731Y-33730D01*
X47672Y-33872D01*
X47672Y-34026D01*
X47731Y-34168D01*
X47840Y-34277D01*
X47982Y-34336D01*
X48136Y-34336D01*
X48278Y-34277D01*
X48387Y-34168D01*
X48446Y-34026D01*
X48446Y-34872D01*
X48387Y-34730D01*
X48278Y-34621D01*
X48136Y-34562D01*
X47982Y-34562D01*
X47840Y-34621D01*
X47731Y-34730D01*
X47672Y-34872D01*
X47672Y-35026D01*
X47731Y-35168D01*
X47840Y-35277D01*
X47982Y-35336D01*
X48136Y-35336D01*
X48278Y-35277D01*
X48387Y-35168D01*
X48446Y-35026D01*
X48446Y-35872D01*
X48387Y-35730D01*
X48278Y-35621D01*
X48136Y-35562D01*
X47982Y-35562D01*
X47840Y-35621D01*
X47731Y-35730D01*
X47672Y-35872D01*
X47672Y-36026D01*
X47731Y-36168D01*
X47840Y-36277D01*
X47982Y-36336D01*
X48136Y-36336D01*
X48278Y-36277D01*
X48387Y-36168D01*
X48446Y-36026D01*
X48446Y-36872D01*
X48387Y-36730D01*
X48278Y-36621D01*
X48136Y-36562D01*
X47982Y-36562D01*
X47840Y-36621D01*
X47731Y-36730D01*
X47672Y-36872D01*
X47672Y-37026D01*
X47731Y-37168D01*
X47840Y-37277D01*
X47982Y-37336D01*
X48136Y-37336D01*
X48278Y-37277D01*
X48387Y-37168D01*
X48446Y-37026D01*
X48446Y-37872D01*
X48387Y-37730D01*
X48278Y-37621D01*
X48136Y-37562D01*
X47982Y-37562D01*
X47840Y-37621D01*
X47731Y-37730D01*
X47672Y-37872D01*
X47672Y-38026D01*
X47731Y-38168D01*
X47840Y-38277D01*
X47982Y-38336D01*
X48136Y-38336D01*
X48278Y-38277D01*
X48387Y-38168D01*
X48446Y-38026D01*
X48446Y-38872D01*
X48387Y-38730D01*
X48278Y-38621D01*
X48136Y-38562D01*
X47982Y-38562D01*
X47840Y-38621D01*
X47731Y-38730D01*
X47672Y-38872D01*
X47672Y-39026D01*
X47731Y-39168D01*
X47840Y-39277D01*
X47982Y-39336D01*
X48136Y-39336D01*
X48278Y-39277D01*
X48387Y-39168D01*
X48446Y-39026D01*
X48446Y-39872D01*
X48387Y-39730D01*
X48278Y-39621D01*
X48136Y-39562D01*
X47982Y-39562D01*
X47840Y-39621D01*
X47731Y-39730D01*
X47672Y-39872D01*
X47672Y-40026D01*
X47731Y-40168D01*
X47840Y-40277D01*
X47982Y-40336D01*
X48136Y-40336D01*
X48278Y-40277D01*
X48387Y-40168D01*
X48446Y-40026D01*
X48446Y-40872D01*
X48387Y-40730D01*
X48278Y-40621D01*
X48136Y-40562D01*
X47982Y-40562D01*
X47840Y-40621D01*
X47731Y-40730D01*
X47672Y-40872D01*
X47672Y-41026D01*
X47731Y-41168D01*
X47840Y-41277D01*
X47982Y-41336D01*
X48136Y-41336D01*
X48278Y-41277D01*
X48387Y-41168D01*
X48446Y-41026D01*
X48446Y-41733D01*
X46237Y-41744D01*
X46237Y-39069D01*
X46237Y-38915D01*
X46237Y-38069D01*
X46237Y-37915D01*
X46237Y-37069D01*
X46237Y-36915D01*
X46235Y-36910D01*
X46235Y-36033D01*
X46235Y-35033D01*
X46235Y-34033D01*
X46221Y-33882D01*
X46189Y-33807D01*
X46134Y-33779D01*
X46063Y-33850D01*
X46063Y-33708D01*
X46035Y-33653D01*
X45891Y-33607D01*
X45740Y-33621D01*
X45665Y-33653D01*
X45637Y-33708D01*
X45850Y-33921D01*
X46063Y-33708D01*
X46063Y-33850D01*
X45921Y-33992D01*
X46134Y-34205D01*
X46189Y-34177D01*
X46235Y-34033D01*
X46235Y-35033D01*
X46221Y-34882D01*
X46189Y-34807D01*
X46134Y-34779D01*
X46063Y-34850D01*
X46063Y-34708D01*
X46063Y-34276D01*
X45850Y-34063D01*
X45779Y-34134D01*
X45779Y-33992D01*
X45566Y-33779D01*
X45511Y-33807D01*
X45465Y-33951D01*
X45479Y-34102D01*
X45511Y-34177D01*
X45566Y-34205D01*
X45779Y-33992D01*
X45779Y-34134D01*
X45637Y-34276D01*
X45665Y-34331D01*
X45809Y-34377D01*
X45960Y-34363D01*
X46035Y-34331D01*
X46063Y-34276D01*
X46063Y-34708D01*
X46035Y-34653D01*
X45891Y-34607D01*
X45740Y-34621D01*
X45665Y-34653D01*
X45637Y-34708D01*
X45850Y-34921D01*
X46063Y-34708D01*
X46063Y-34850D01*
X45921Y-34992D01*
X46134Y-35205D01*
X46189Y-35177D01*
X46235Y-35033D01*
X46235Y-36033D01*
X46221Y-35882D01*
X46189Y-35807D01*
X46134Y-35779D01*
X46063Y-35850D01*
X46063Y-35708D01*
X46063Y-35276D01*
X45850Y-35063D01*
X45779Y-35134D01*
X45779Y-34992D01*
X45566Y-34779D01*
X45511Y-34807D01*
X45465Y-34951D01*
X45479Y-35102D01*
X45511Y-35177D01*
X45566Y-35205D01*
X45779Y-34992D01*
X45779Y-35134D01*
X45637Y-35276D01*
X45665Y-35331D01*
X45809Y-35377D01*
X45960Y-35363D01*
X46035Y-35331D01*
X46063Y-35276D01*
X46063Y-35708D01*
X46035Y-35653D01*
X45891Y-35607D01*
X45740Y-35621D01*
X45665Y-35653D01*
X45637Y-35708D01*
X45850Y-35921D01*
X46063Y-35708D01*
X46063Y-35850D01*
X45921Y-35992D01*
X46134Y-36205D01*
X46189Y-36177D01*
X46235Y-36033D01*
X46235Y-36910D01*
X46178Y-36773D01*
X46069Y-36664D01*
X46063Y-36661D01*
X46063Y-36276D01*
X45850Y-36063D01*
X45779Y-36134D01*
X45779Y-35992D01*
X45566Y-35779D01*
X45511Y-35807D01*
X45465Y-35951D01*
X45479Y-36102D01*
X45511Y-36177D01*
X45566Y-36205D01*
X45779Y-35992D01*
X45779Y-36134D01*
X45637Y-36276D01*
X45665Y-36331D01*
X45809Y-36377D01*
X45960Y-36363D01*
X46035Y-36331D01*
X46063Y-36276D01*
X46063Y-36661D01*
X45927Y-36605D01*
X45773Y-36605D01*
X45631Y-36664D01*
X45522Y-36773D01*
X45463Y-36915D01*
X45463Y-37069D01*
X45522Y-37211D01*
X45631Y-37320D01*
X45773Y-37379D01*
X45927Y-37379D01*
X46069Y-37320D01*
X46178Y-37211D01*
X46237Y-37069D01*
X46237Y-37915D01*
X46178Y-37773D01*
X46069Y-37664D01*
X45927Y-37605D01*
X45773Y-37605D01*
X45631Y-37664D01*
X45522Y-37773D01*
X45463Y-37915D01*
X45463Y-38069D01*
X45522Y-38211D01*
X45631Y-38320D01*
X45773Y-38379D01*
X45927Y-38379D01*
X46069Y-38320D01*
X46178Y-38211D01*
X46237Y-38069D01*
X46237Y-38915D01*
X46178Y-38773D01*
X46069Y-38664D01*
X45927Y-38605D01*
X45773Y-38605D01*
X45631Y-38664D01*
X45522Y-38773D01*
X45463Y-38915D01*
X45463Y-39069D01*
X45522Y-39211D01*
X45631Y-39320D01*
X45773Y-39379D01*
X45927Y-39379D01*
X46069Y-39320D01*
X46178Y-39211D01*
X46237Y-39069D01*
X46237Y-41744D01*
X45199Y-41749D01*
X45094Y-31444D01*
X53737Y-31491D01*
X55523Y-33606D01*
X56685Y-34652D01*
X57863Y-35217D01*
X58475Y-35300D01*
X58856Y-35298D01*
X60254Y-35283D01*
X60254Y-35335D01*
X60203Y-35335D01*
X60150Y-35357D01*
X60109Y-35398D01*
X60087Y-35451D01*
X60087Y-35509D01*
X60106Y-35555D01*
X60087Y-35601D01*
X60087Y-35659D01*
X60109Y-35712D01*
X60115Y-35718D01*
X60111Y-35731D01*
X60111Y-35789D01*
X60133Y-35842D01*
X60174Y-35883D01*
X60227Y-35905D01*
X60261Y-35905D01*
X60262Y-36005D01*
X60243Y-36005D01*
X60190Y-36027D01*
X60149Y-36068D01*
X60127Y-36121D01*
X60127Y-36179D01*
X60149Y-36232D01*
X60190Y-36273D01*
X60243Y-36295D01*
X60266Y-36295D01*
X60267Y-36390D01*
X60235Y-36390D01*
X60182Y-36412D01*
X60141Y-36453D01*
X60119Y-36506D01*
X60119Y-36564D01*
X60141Y-36617D01*
X60182Y-36658D01*
X60235Y-36680D01*
X60271Y-36680D01*
X60276Y-37135D01*
X60257Y-37127D01*
X60199Y-37127D01*
X60146Y-37149D01*
X60105Y-37190D01*
X60083Y-37243D01*
X60083Y-37301D01*
X60105Y-37354D01*
X60146Y-37395D01*
X60199Y-37417D01*
X60257Y-37417D01*
X60279Y-37407D01*
X60281Y-37526D01*
X60265Y-37520D01*
X60207Y-37520D01*
X60154Y-37542D01*
X60113Y-37583D01*
X60091Y-37636D01*
X60091Y-37694D01*
X60113Y-37747D01*
X60154Y-37788D01*
X60207Y-37810D01*
X60265Y-37810D01*
X60284Y-37801D01*
X60286Y-37986D01*
X60286Y-37986D01*
G37*
G54D21*
X60286Y-37986D02*
X60279Y-37979D01*
X60226Y-37957D01*
X60168Y-37957D01*
X60115Y-37979D01*
X60074Y-38020D01*
X60052Y-38073D01*
X60052Y-38131D01*
X60074Y-38184D01*
X60115Y-38225D01*
X60168Y-38247D01*
X60226Y-38247D01*
X60232Y-38244D01*
X60197Y-38301D01*
X60178Y-38310D01*
X60137Y-38351D01*
X60115Y-38404D01*
X60115Y-38437D01*
X60003Y-38621D01*
X60003Y-37297D01*
X60003Y-37239D01*
X59981Y-37186D01*
X59980Y-37185D01*
X59980Y-35879D01*
X59980Y-35821D01*
X59958Y-35768D01*
X59917Y-35727D01*
X59864Y-35705D01*
X59806Y-35705D01*
X59753Y-35727D01*
X59712Y-35768D01*
X59690Y-35821D01*
X59690Y-35879D01*
X59709Y-35926D01*
X59705Y-35928D01*
X59664Y-35969D01*
X59642Y-36022D01*
X59642Y-36080D01*
X59664Y-36133D01*
X59705Y-36174D01*
X59758Y-36196D01*
X59816Y-36196D01*
X59869Y-36174D01*
X59910Y-36133D01*
X59932Y-36080D01*
X59932Y-36022D01*
X59912Y-35974D01*
X59917Y-35973D01*
X59958Y-35932D01*
X59980Y-35879D01*
X59980Y-37185D01*
X59940Y-37145D01*
X59887Y-37123D01*
X59829Y-37123D01*
X59776Y-37145D01*
X59735Y-37186D01*
X59713Y-37239D01*
X59713Y-37297D01*
X59735Y-37350D01*
X59776Y-37391D01*
X59829Y-37413D01*
X59887Y-37413D01*
X59940Y-37391D01*
X59981Y-37350D01*
X60003Y-37297D01*
X60003Y-38621D01*
X59969Y-38677D01*
X59964Y-38672D01*
X59964Y-37718D01*
X59964Y-37660D01*
X59942Y-37607D01*
X59901Y-37566D01*
X59848Y-37544D01*
X59790Y-37544D01*
X59737Y-37566D01*
X59696Y-37607D01*
X59674Y-37660D01*
X59674Y-37718D01*
X59696Y-37771D01*
X59737Y-37812D01*
X59790Y-37834D01*
X59848Y-37834D01*
X59901Y-37812D01*
X59942Y-37771D01*
X59964Y-37718D01*
X59964Y-38672D01*
X59911Y-38650D01*
X59855Y-38650D01*
X59895Y-38610D01*
X59917Y-38557D01*
X59917Y-38499D01*
X59895Y-38446D01*
X59854Y-38405D01*
X59801Y-38383D01*
X59743Y-38383D01*
X59690Y-38405D01*
X59649Y-38446D01*
X59627Y-38499D01*
X59627Y-38557D01*
X59649Y-38610D01*
X59690Y-38651D01*
X59743Y-38673D01*
X59799Y-38673D01*
X59759Y-38713D01*
X59737Y-38766D01*
X59737Y-38824D01*
X59759Y-38877D01*
X59800Y-38918D01*
X59817Y-38925D01*
X59461Y-39511D01*
X59458Y-40685D01*
X59220Y-40697D01*
X59220Y-38037D01*
X59220Y-37979D01*
X59198Y-37926D01*
X59192Y-37920D01*
X59192Y-36320D01*
X59192Y-36262D01*
X59170Y-36209D01*
X59129Y-36168D01*
X59076Y-36146D01*
X59018Y-36146D01*
X58965Y-36168D01*
X58924Y-36209D01*
X58902Y-36262D01*
X58902Y-36320D01*
X58924Y-36373D01*
X58965Y-36414D01*
X59018Y-36436D01*
X59076Y-36436D01*
X59129Y-36414D01*
X59170Y-36373D01*
X59192Y-36320D01*
X59192Y-37920D01*
X59157Y-37885D01*
X59104Y-37863D01*
X59046Y-37863D01*
X58993Y-37885D01*
X58952Y-37926D01*
X58930Y-37979D01*
X58930Y-38037D01*
X58952Y-38090D01*
X58993Y-38131D01*
X59046Y-38153D01*
X59104Y-38153D01*
X59157Y-38131D01*
X59198Y-38090D01*
X59220Y-38037D01*
X59220Y-40697D01*
X58582Y-40731D01*
X58582Y-40269D01*
X58582Y-40211D01*
X58560Y-40158D01*
X58519Y-40117D01*
X58466Y-40095D01*
X58444Y-40095D01*
X58444Y-38520D01*
X58432Y-38460D01*
X58432Y-36084D01*
X58432Y-36026D01*
X58410Y-35973D01*
X58369Y-35932D01*
X58316Y-35910D01*
X58258Y-35910D01*
X58205Y-35932D01*
X58164Y-35973D01*
X58142Y-36026D01*
X58142Y-36084D01*
X58164Y-36137D01*
X58165Y-36138D01*
X57710Y-36138D01*
X54867Y-33295D01*
X54816Y-33261D01*
X54756Y-33249D01*
X53203Y-33249D01*
X53284Y-33168D01*
X53343Y-33026D01*
X53343Y-32872D01*
X53343Y-32026D01*
X53343Y-31872D01*
X53284Y-31730D01*
X53175Y-31621D01*
X53033Y-31562D01*
X52879Y-31562D01*
X52737Y-31621D01*
X52628Y-31730D01*
X52569Y-31872D01*
X52569Y-32026D01*
X52628Y-32168D01*
X52737Y-32277D01*
X52879Y-32336D01*
X53033Y-32336D01*
X53175Y-32277D01*
X53284Y-32168D01*
X53343Y-32026D01*
X53343Y-32872D01*
X53284Y-32730D01*
X53175Y-32621D01*
X53033Y-32562D01*
X52879Y-32562D01*
X52737Y-32621D01*
X52628Y-32730D01*
X52569Y-32872D01*
X52569Y-33026D01*
X52628Y-33168D01*
X52709Y-33249D01*
X52196Y-33249D01*
X52277Y-33168D01*
X52336Y-33026D01*
X52336Y-32872D01*
X52336Y-32026D01*
X52336Y-31872D01*
X52277Y-31730D01*
X52168Y-31621D01*
X52026Y-31562D01*
X51872Y-31562D01*
X51730Y-31621D01*
X51621Y-31730D01*
X51562Y-31872D01*
X51562Y-32026D01*
X51621Y-32168D01*
X51730Y-32277D01*
X51872Y-32336D01*
X52026Y-32336D01*
X52168Y-32277D01*
X52277Y-32168D01*
X52336Y-32026D01*
X52336Y-32872D01*
X52277Y-32730D01*
X52168Y-32621D01*
X52026Y-32562D01*
X51872Y-32562D01*
X51730Y-32621D01*
X51621Y-32730D01*
X51562Y-32872D01*
X51562Y-33026D01*
X51621Y-33168D01*
X51702Y-33249D01*
X49583Y-33249D01*
X49426Y-33090D01*
X49453Y-33026D01*
X49453Y-32872D01*
X49453Y-32026D01*
X49453Y-31872D01*
X49394Y-31730D01*
X49285Y-31621D01*
X49143Y-31562D01*
X48989Y-31562D01*
X48847Y-31621D01*
X48738Y-31730D01*
X48679Y-31872D01*
X48679Y-32026D01*
X48738Y-32168D01*
X48847Y-32277D01*
X48989Y-32336D01*
X49143Y-32336D01*
X49285Y-32277D01*
X49394Y-32168D01*
X49453Y-32026D01*
X49453Y-32872D01*
X49394Y-32730D01*
X49285Y-32621D01*
X49143Y-32562D01*
X48989Y-32562D01*
X48847Y-32621D01*
X48738Y-32730D01*
X48679Y-32872D01*
X48679Y-33026D01*
X48738Y-33168D01*
X48847Y-33277D01*
X48989Y-33336D01*
X49143Y-33336D01*
X49203Y-33310D01*
X49407Y-33516D01*
X49408Y-33517D01*
X49417Y-33523D01*
X49457Y-33551D01*
X49459Y-33551D01*
X49517Y-33563D01*
X49518Y-33562D01*
X49519Y-33563D01*
X51869Y-33563D01*
X51730Y-33621D01*
X51621Y-33730D01*
X51562Y-33872D01*
X51562Y-34026D01*
X51621Y-34168D01*
X51730Y-34277D01*
X51872Y-34336D01*
X52026Y-34336D01*
X52168Y-34277D01*
X52277Y-34168D01*
X52336Y-34026D01*
X52336Y-33872D01*
X52277Y-33730D01*
X52168Y-33621D01*
X52028Y-33563D01*
X52876Y-33563D01*
X52737Y-33621D01*
X52628Y-33730D01*
X52569Y-33872D01*
X52569Y-34026D01*
X52628Y-34168D01*
X52737Y-34277D01*
X52879Y-34336D01*
X53033Y-34336D01*
X53175Y-34277D01*
X53284Y-34168D01*
X53343Y-34026D01*
X53343Y-33872D01*
X53284Y-33730D01*
X53175Y-33621D01*
X53035Y-33563D01*
X54691Y-33563D01*
X57534Y-36406D01*
X57584Y-36439D01*
X57585Y-36440D01*
X57645Y-36452D01*
X58252Y-36452D01*
X58312Y-36440D01*
X58363Y-36406D01*
X58397Y-36355D01*
X58409Y-36295D01*
X58397Y-36235D01*
X58363Y-36184D01*
X58359Y-36181D01*
X58369Y-36178D01*
X58410Y-36137D01*
X58432Y-36084D01*
X58432Y-38460D01*
X58398Y-38409D01*
X58347Y-38375D01*
X58287Y-38363D01*
X57755Y-38363D01*
X57755Y-36726D01*
X57755Y-36668D01*
X57733Y-36615D01*
X57692Y-36574D01*
X57639Y-36552D01*
X57581Y-36552D01*
X57528Y-36574D01*
X57487Y-36615D01*
X57465Y-36668D01*
X57465Y-36726D01*
X57487Y-36779D01*
X57528Y-36820D01*
X57581Y-36842D01*
X57639Y-36842D01*
X57692Y-36820D01*
X57733Y-36779D01*
X57755Y-36726D01*
X57755Y-38363D01*
X55590Y-38363D01*
X55530Y-38375D01*
X55479Y-38409D01*
X55478Y-38409D01*
X55478Y-38410D01*
X53746Y-40142D01*
X53294Y-40142D01*
X53343Y-40026D01*
X53343Y-39872D01*
X53343Y-39026D01*
X53343Y-38872D01*
X53343Y-38026D01*
X53343Y-37872D01*
X53343Y-37026D01*
X53343Y-36872D01*
X53343Y-36026D01*
X53343Y-35872D01*
X53343Y-35026D01*
X53343Y-34872D01*
X53284Y-34730D01*
X53175Y-34621D01*
X53033Y-34562D01*
X52879Y-34562D01*
X52737Y-34621D01*
X52628Y-34730D01*
X52569Y-34872D01*
X52569Y-35026D01*
X52628Y-35168D01*
X52737Y-35277D01*
X52879Y-35336D01*
X53033Y-35336D01*
X53175Y-35277D01*
X53284Y-35168D01*
X53343Y-35026D01*
X53343Y-35872D01*
X53284Y-35730D01*
X53175Y-35621D01*
X53033Y-35562D01*
X52879Y-35562D01*
X52737Y-35621D01*
X52628Y-35730D01*
X52569Y-35872D01*
X52569Y-36026D01*
X52628Y-36168D01*
X52737Y-36277D01*
X52879Y-36336D01*
X53033Y-36336D01*
X53175Y-36277D01*
X53284Y-36168D01*
X53343Y-36026D01*
X53343Y-36872D01*
X53284Y-36730D01*
X53175Y-36621D01*
X53033Y-36562D01*
X52879Y-36562D01*
X52737Y-36621D01*
X52628Y-36730D01*
X52569Y-36872D01*
X52569Y-37026D01*
X52628Y-37168D01*
X52737Y-37277D01*
X52879Y-37336D01*
X53033Y-37336D01*
X53175Y-37277D01*
X53284Y-37168D01*
X53343Y-37026D01*
X53343Y-37872D01*
X53284Y-37730D01*
X53175Y-37621D01*
X53033Y-37562D01*
X52879Y-37562D01*
X52737Y-37621D01*
X52628Y-37730D01*
X52569Y-37872D01*
X52569Y-38026D01*
X52628Y-38168D01*
X52737Y-38277D01*
X52879Y-38336D01*
X53033Y-38336D01*
X53175Y-38277D01*
X53284Y-38168D01*
X53343Y-38026D01*
X53343Y-38872D01*
X53284Y-38730D01*
X53175Y-38621D01*
X53033Y-38562D01*
X52879Y-38562D01*
X52737Y-38621D01*
X52628Y-38730D01*
X52569Y-38872D01*
X52569Y-39026D01*
X52628Y-39168D01*
X52737Y-39277D01*
X52879Y-39336D01*
X53033Y-39336D01*
X53175Y-39277D01*
X53284Y-39168D01*
X53343Y-39026D01*
X53343Y-39872D01*
X53284Y-39730D01*
X53175Y-39621D01*
X53033Y-39562D01*
X52879Y-39562D01*
X52737Y-39621D01*
X52628Y-39730D01*
X52569Y-39872D01*
X52569Y-40026D01*
X52617Y-40142D01*
X52287Y-40142D01*
X52336Y-40026D01*
X52336Y-39872D01*
X52336Y-39026D01*
X52336Y-38872D01*
X52336Y-38026D01*
X52336Y-37872D01*
X52336Y-37026D01*
X52336Y-36872D01*
X52336Y-36026D01*
X52336Y-35872D01*
X52336Y-35026D01*
X52336Y-34872D01*
X52277Y-34730D01*
X52168Y-34621D01*
X52026Y-34562D01*
X51872Y-34562D01*
X51730Y-34621D01*
X51621Y-34730D01*
X51562Y-34872D01*
X51562Y-35026D01*
X51621Y-35168D01*
X51730Y-35277D01*
X51872Y-35336D01*
X52026Y-35336D01*
X52168Y-35277D01*
X52277Y-35168D01*
X52336Y-35026D01*
X52336Y-35872D01*
X52277Y-35730D01*
X52168Y-35621D01*
X52026Y-35562D01*
X51872Y-35562D01*
X51730Y-35621D01*
X51621Y-35730D01*
X51562Y-35872D01*
X51562Y-36026D01*
X51621Y-36168D01*
X51730Y-36277D01*
X51872Y-36336D01*
X52026Y-36336D01*
X52168Y-36277D01*
X52277Y-36168D01*
X52336Y-36026D01*
X52336Y-36872D01*
X52277Y-36730D01*
X52168Y-36621D01*
X52026Y-36562D01*
X51872Y-36562D01*
X51730Y-36621D01*
X51621Y-36730D01*
X51562Y-36872D01*
X51562Y-37026D01*
X51621Y-37168D01*
X51730Y-37277D01*
X51872Y-37336D01*
X52026Y-37336D01*
X52168Y-37277D01*
X52277Y-37168D01*
X52336Y-37026D01*
X52336Y-37872D01*
X52277Y-37730D01*
X52168Y-37621D01*
X52026Y-37562D01*
X51872Y-37562D01*
X51730Y-37621D01*
X51621Y-37730D01*
X51562Y-37872D01*
X51562Y-38026D01*
X51621Y-38168D01*
X51730Y-38277D01*
X51872Y-38336D01*
X52026Y-38336D01*
X52168Y-38277D01*
X52277Y-38168D01*
X52336Y-38026D01*
X52336Y-38872D01*
X52277Y-38730D01*
X52168Y-38621D01*
X52026Y-38562D01*
X51872Y-38562D01*
X51730Y-38621D01*
X51621Y-38730D01*
X51562Y-38872D01*
X51562Y-39026D01*
X51621Y-39168D01*
X51730Y-39277D01*
X51872Y-39336D01*
X52026Y-39336D01*
X52168Y-39277D01*
X52277Y-39168D01*
X52336Y-39026D01*
X52336Y-39872D01*
X52277Y-39730D01*
X52168Y-39621D01*
X52026Y-39562D01*
X51872Y-39562D01*
X51730Y-39621D01*
X51621Y-39730D01*
X51562Y-39872D01*
X51562Y-40026D01*
X51610Y-40142D01*
X49479Y-40142D01*
X49426Y-40089D01*
X49453Y-40026D01*
X49453Y-39872D01*
X49453Y-39026D01*
X49453Y-38872D01*
X49453Y-38026D01*
X49453Y-37872D01*
X49453Y-37026D01*
X49453Y-36872D01*
X49453Y-36026D01*
X49453Y-35872D01*
X49453Y-35026D01*
X49453Y-34872D01*
X49453Y-34026D01*
X49453Y-33872D01*
X49394Y-33730D01*
X49285Y-33621D01*
X49143Y-33562D01*
X48989Y-33562D01*
X48847Y-33621D01*
X48738Y-33730D01*
X48679Y-33872D01*
X48679Y-34026D01*
X48738Y-34168D01*
X48847Y-34277D01*
X48989Y-34336D01*
X49143Y-34336D01*
X49285Y-34277D01*
X49394Y-34168D01*
X49453Y-34026D01*
X49453Y-34872D01*
X49394Y-34730D01*
X49285Y-34621D01*
X49143Y-34562D01*
X48989Y-34562D01*
X48847Y-34621D01*
X48738Y-34730D01*
X48679Y-34872D01*
X48679Y-35026D01*
X48738Y-35168D01*
X48847Y-35277D01*
X48989Y-35336D01*
X49143Y-35336D01*
X49285Y-35277D01*
X49394Y-35168D01*
X49453Y-35026D01*
X49453Y-35872D01*
X49394Y-35730D01*
X49285Y-35621D01*
X49143Y-35562D01*
X48989Y-35562D01*
X48847Y-35621D01*
X48738Y-35730D01*
X48679Y-35872D01*
X48679Y-36026D01*
X48738Y-36168D01*
X48847Y-36277D01*
X48989Y-36336D01*
X49143Y-36336D01*
X49285Y-36277D01*
X49394Y-36168D01*
X49453Y-36026D01*
X49453Y-36872D01*
X49394Y-36730D01*
X49285Y-36621D01*
X49143Y-36562D01*
X48989Y-36562D01*
X48847Y-36621D01*
X48738Y-36730D01*
X48679Y-36872D01*
X48679Y-37026D01*
X48738Y-37168D01*
X48847Y-37277D01*
X48989Y-37336D01*
X49143Y-37336D01*
X49285Y-37277D01*
X49394Y-37168D01*
X49453Y-37026D01*
X49453Y-37872D01*
X49394Y-37730D01*
X49285Y-37621D01*
X49143Y-37562D01*
X48989Y-37562D01*
X48847Y-37621D01*
X48738Y-37730D01*
X48679Y-37872D01*
X48679Y-38026D01*
X48738Y-38168D01*
X48847Y-38277D01*
X48989Y-38336D01*
X49143Y-38336D01*
X49285Y-38277D01*
X49394Y-38168D01*
X49453Y-38026D01*
X49453Y-38872D01*
X49394Y-38730D01*
X49285Y-38621D01*
X49143Y-38562D01*
X48989Y-38562D01*
X48847Y-38621D01*
X48738Y-38730D01*
X48679Y-38872D01*
X48679Y-39026D01*
X48738Y-39168D01*
X48847Y-39277D01*
X48989Y-39336D01*
X49143Y-39336D01*
X49285Y-39277D01*
X49394Y-39168D01*
X49453Y-39026D01*
X49453Y-39872D01*
X49394Y-39730D01*
X49285Y-39621D01*
X49143Y-39562D01*
X48989Y-39562D01*
X48847Y-39621D01*
X48738Y-39730D01*
X48679Y-39872D01*
X48679Y-40026D01*
X48738Y-40168D01*
X48847Y-40277D01*
X48989Y-40336D01*
X49143Y-40336D01*
X49203Y-40310D01*
X49301Y-40409D01*
X49302Y-40410D01*
X49352Y-40443D01*
X49353Y-40444D01*
X49412Y-40455D01*
X49413Y-40456D01*
X53811Y-40456D01*
X53871Y-40444D01*
X53889Y-40432D01*
X53343Y-40978D01*
X53343Y-40872D01*
X53284Y-40730D01*
X53175Y-40621D01*
X53033Y-40562D01*
X52879Y-40562D01*
X52737Y-40621D01*
X52628Y-40730D01*
X52569Y-40872D01*
X52569Y-41026D01*
X52615Y-41138D01*
X52289Y-41138D01*
X52336Y-41026D01*
X52336Y-40872D01*
X52277Y-40730D01*
X52168Y-40621D01*
X52026Y-40562D01*
X51872Y-40562D01*
X51730Y-40621D01*
X51621Y-40730D01*
X51562Y-40872D01*
X51562Y-41026D01*
X51608Y-41138D01*
X49475Y-41138D01*
X49426Y-41089D01*
X49453Y-41026D01*
X49453Y-40872D01*
X49394Y-40730D01*
X49285Y-40621D01*
X49143Y-40562D01*
X48989Y-40562D01*
X48847Y-40621D01*
X48738Y-40730D01*
X48679Y-40872D01*
X48679Y-41026D01*
X48738Y-41168D01*
X48847Y-41277D01*
X48989Y-41336D01*
X49143Y-41336D01*
X49204Y-41310D01*
X49295Y-41402D01*
X49298Y-41406D01*
X49349Y-41440D01*
X49409Y-41452D01*
X53248Y-41452D01*
X53308Y-41440D01*
X53359Y-41406D01*
X55695Y-39070D01*
X58240Y-39070D01*
X58300Y-39058D01*
X58351Y-39024D01*
X58385Y-38973D01*
X58397Y-38913D01*
X58385Y-38853D01*
X58351Y-38802D01*
X58300Y-38768D01*
X58240Y-38756D01*
X55630Y-38756D01*
X55570Y-38768D01*
X55552Y-38780D01*
X55655Y-38677D01*
X58287Y-38677D01*
X58347Y-38665D01*
X58398Y-38631D01*
X58432Y-38580D01*
X58444Y-38520D01*
X58444Y-40095D01*
X58408Y-40095D01*
X58355Y-40117D01*
X58314Y-40158D01*
X58292Y-40211D01*
X58292Y-40269D01*
X58314Y-40322D01*
X58355Y-40363D01*
X58408Y-40385D01*
X58466Y-40385D01*
X58519Y-40363D01*
X58560Y-40322D01*
X58582Y-40269D01*
X58582Y-40731D01*
X58151Y-40754D01*
X58151Y-40755D01*
X57700Y-40707D01*
X57700Y-40257D01*
X57700Y-40199D01*
X57678Y-40146D01*
X57637Y-40105D01*
X57584Y-40083D01*
X57526Y-40083D01*
X57473Y-40105D01*
X57432Y-40146D01*
X57410Y-40199D01*
X57410Y-40257D01*
X57432Y-40310D01*
X57473Y-40351D01*
X57526Y-40373D01*
X57584Y-40373D01*
X57637Y-40351D01*
X57678Y-40310D01*
X57700Y-40257D01*
X57700Y-40707D01*
X55803Y-40507D01*
X54344Y-41706D01*
X48446Y-41733D01*
X48446Y-41026D01*
X48446Y-40872D01*
X48446Y-40026D01*
X48446Y-39872D01*
X48446Y-39026D01*
X48446Y-38872D01*
X48446Y-38026D01*
X48446Y-37872D01*
X48446Y-37026D01*
X48446Y-36872D01*
X48446Y-36026D01*
X48446Y-35872D01*
X48446Y-35026D01*
X48446Y-34872D01*
X48446Y-34026D01*
X48446Y-33872D01*
X48446Y-33026D01*
X48446Y-32872D01*
X48446Y-32026D01*
X48446Y-31872D01*
X48387Y-31730D01*
X48278Y-31621D01*
X48136Y-31562D01*
X47982Y-31562D01*
X47840Y-31621D01*
X47731Y-31730D01*
X47672Y-31872D01*
X47672Y-32026D01*
X47731Y-32168D01*
X47840Y-32277D01*
X47982Y-32336D01*
X48136Y-32336D01*
X48278Y-32277D01*
X48387Y-32168D01*
X48446Y-32026D01*
X48446Y-32872D01*
X48387Y-32730D01*
X48278Y-32621D01*
X48136Y-32562D01*
X47982Y-32562D01*
X47840Y-32621D01*
X47731Y-32730D01*
X47672Y-32872D01*
X47672Y-33026D01*
X47731Y-33168D01*
X47840Y-33277D01*
X47982Y-33336D01*
X48136Y-33336D01*
X48278Y-33277D01*
X48387Y-33168D01*
X48446Y-33026D01*
X48446Y-33872D01*
X48387Y-33730D01*
X48278Y-33621D01*
X48136Y-33562D01*
X47982Y-33562D01*
X47840Y-33621D01*
X47731Y-33730D01*
X47672Y-33872D01*
X47672Y-34026D01*
X47731Y-34168D01*
X47840Y-34277D01*
X47982Y-34336D01*
X48136Y-34336D01*
X48278Y-34277D01*
X48387Y-34168D01*
X48446Y-34026D01*
X48446Y-34872D01*
X48387Y-34730D01*
X48278Y-34621D01*
X48136Y-34562D01*
X47982Y-34562D01*
X47840Y-34621D01*
X47731Y-34730D01*
X47672Y-34872D01*
X47672Y-35026D01*
X47731Y-35168D01*
X47840Y-35277D01*
X47982Y-35336D01*
X48136Y-35336D01*
X48278Y-35277D01*
X48387Y-35168D01*
X48446Y-35026D01*
X48446Y-35872D01*
X48387Y-35730D01*
X48278Y-35621D01*
X48136Y-35562D01*
X47982Y-35562D01*
X47840Y-35621D01*
X47731Y-35730D01*
X47672Y-35872D01*
X47672Y-36026D01*
X47731Y-36168D01*
X47840Y-36277D01*
X47982Y-36336D01*
X48136Y-36336D01*
X48278Y-36277D01*
X48387Y-36168D01*
X48446Y-36026D01*
X48446Y-36872D01*
X48387Y-36730D01*
X48278Y-36621D01*
X48136Y-36562D01*
X47982Y-36562D01*
X47840Y-36621D01*
X47731Y-36730D01*
X47672Y-36872D01*
X47672Y-37026D01*
X47731Y-37168D01*
X47840Y-37277D01*
X47982Y-37336D01*
X48136Y-37336D01*
X48278Y-37277D01*
X48387Y-37168D01*
X48446Y-37026D01*
X48446Y-37872D01*
X48387Y-37730D01*
X48278Y-37621D01*
X48136Y-37562D01*
X47982Y-37562D01*
X47840Y-37621D01*
X47731Y-37730D01*
X47672Y-37872D01*
X47672Y-38026D01*
X47731Y-38168D01*
X47840Y-38277D01*
X47982Y-38336D01*
X48136Y-38336D01*
X48278Y-38277D01*
X48387Y-38168D01*
X48446Y-38026D01*
X48446Y-38872D01*
X48387Y-38730D01*
X48278Y-38621D01*
X48136Y-38562D01*
X47982Y-38562D01*
X47840Y-38621D01*
X47731Y-38730D01*
X47672Y-38872D01*
X47672Y-39026D01*
X47731Y-39168D01*
X47840Y-39277D01*
X47982Y-39336D01*
X48136Y-39336D01*
X48278Y-39277D01*
X48387Y-39168D01*
X48446Y-39026D01*
X48446Y-39872D01*
X48387Y-39730D01*
X48278Y-39621D01*
X48136Y-39562D01*
X47982Y-39562D01*
X47840Y-39621D01*
X47731Y-39730D01*
X47672Y-39872D01*
X47672Y-40026D01*
X47731Y-40168D01*
X47840Y-40277D01*
X47982Y-40336D01*
X48136Y-40336D01*
X48278Y-40277D01*
X48387Y-40168D01*
X48446Y-40026D01*
X48446Y-40872D01*
X48387Y-40730D01*
X48278Y-40621D01*
X48136Y-40562D01*
X47982Y-40562D01*
X47840Y-40621D01*
X47731Y-40730D01*
X47672Y-40872D01*
X47672Y-41026D01*
X47731Y-41168D01*
X47840Y-41277D01*
X47982Y-41336D01*
X48136Y-41336D01*
X48278Y-41277D01*
X48387Y-41168D01*
X48446Y-41026D01*
X48446Y-41733D01*
X46237Y-41744D01*
X46237Y-39069D01*
X46237Y-38915D01*
X46237Y-38069D01*
X46237Y-37915D01*
X46237Y-37069D01*
X46237Y-36915D01*
X46235Y-36910D01*
X46235Y-36033D01*
X46235Y-35033D01*
X46235Y-34033D01*
X46221Y-33882D01*
X46189Y-33807D01*
X46134Y-33779D01*
X46063Y-33850D01*
X46063Y-33708D01*
X46035Y-33653D01*
X45891Y-33607D01*
X45740Y-33621D01*
X45665Y-33653D01*
X45637Y-33708D01*
X45850Y-33921D01*
X46063Y-33708D01*
X46063Y-33850D01*
X45921Y-33992D01*
X46134Y-34205D01*
X46189Y-34177D01*
X46235Y-34033D01*
X46235Y-35033D01*
X46221Y-34882D01*
X46189Y-34807D01*
X46134Y-34779D01*
X46063Y-34850D01*
X46063Y-34708D01*
X46063Y-34276D01*
X45850Y-34063D01*
X45779Y-34134D01*
X45779Y-33992D01*
X45566Y-33779D01*
X45511Y-33807D01*
X45465Y-33951D01*
X45479Y-34102D01*
X45511Y-34177D01*
X45566Y-34205D01*
X45779Y-33992D01*
X45779Y-34134D01*
X45637Y-34276D01*
X45665Y-34331D01*
X45809Y-34377D01*
X45960Y-34363D01*
X46035Y-34331D01*
X46063Y-34276D01*
X46063Y-34708D01*
X46035Y-34653D01*
X45891Y-34607D01*
X45740Y-34621D01*
X45665Y-34653D01*
X45637Y-34708D01*
X45850Y-34921D01*
X46063Y-34708D01*
X46063Y-34850D01*
X45921Y-34992D01*
X46134Y-35205D01*
X46189Y-35177D01*
X46235Y-35033D01*
X46235Y-36033D01*
X46221Y-35882D01*
X46189Y-35807D01*
X46134Y-35779D01*
X46063Y-35850D01*
X46063Y-35708D01*
X46063Y-35276D01*
X45850Y-35063D01*
X45779Y-35134D01*
X45779Y-34992D01*
X45566Y-34779D01*
X45511Y-34807D01*
X45465Y-34951D01*
X45479Y-35102D01*
X45511Y-35177D01*
X45566Y-35205D01*
X45779Y-34992D01*
X45779Y-35134D01*
X45637Y-35276D01*
X45665Y-35331D01*
X45809Y-35377D01*
X45960Y-35363D01*
X46035Y-35331D01*
X46063Y-35276D01*
X46063Y-35708D01*
X46035Y-35653D01*
X45891Y-35607D01*
X45740Y-35621D01*
X45665Y-35653D01*
X45637Y-35708D01*
X45850Y-35921D01*
X46063Y-35708D01*
X46063Y-35850D01*
X45921Y-35992D01*
X46134Y-36205D01*
X46189Y-36177D01*
X46235Y-36033D01*
X46235Y-36910D01*
X46178Y-36773D01*
X46069Y-36664D01*
X46063Y-36661D01*
X46063Y-36276D01*
X45850Y-36063D01*
X45779Y-36134D01*
X45779Y-35992D01*
X45566Y-35779D01*
X45511Y-35807D01*
X45465Y-35951D01*
X45479Y-36102D01*
X45511Y-36177D01*
X45566Y-36205D01*
X45779Y-35992D01*
X45779Y-36134D01*
X45637Y-36276D01*
X45665Y-36331D01*
X45809Y-36377D01*
X45960Y-36363D01*
X46035Y-36331D01*
X46063Y-36276D01*
X46063Y-36661D01*
X45927Y-36605D01*
X45773Y-36605D01*
X45631Y-36664D01*
X45522Y-36773D01*
X45463Y-36915D01*
X45463Y-37069D01*
X45522Y-37211D01*
X45631Y-37320D01*
X45773Y-37379D01*
X45927Y-37379D01*
X46069Y-37320D01*
X46178Y-37211D01*
X46237Y-37069D01*
X46237Y-37915D01*
X46178Y-37773D01*
X46069Y-37664D01*
X45927Y-37605D01*
X45773Y-37605D01*
X45631Y-37664D01*
X45522Y-37773D01*
X45463Y-37915D01*
X45463Y-38069D01*
X45522Y-38211D01*
X45631Y-38320D01*
X45773Y-38379D01*
X45927Y-38379D01*
X46069Y-38320D01*
X46178Y-38211D01*
X46237Y-38069D01*
X46237Y-38915D01*
X46178Y-38773D01*
X46069Y-38664D01*
X45927Y-38605D01*
X45773Y-38605D01*
X45631Y-38664D01*
X45522Y-38773D01*
X45463Y-38915D01*
X45463Y-39069D01*
X45522Y-39211D01*
X45631Y-39320D01*
X45773Y-39379D01*
X45927Y-39379D01*
X46069Y-39320D01*
X46178Y-39211D01*
X46237Y-39069D01*
X46237Y-41744D01*
X45199Y-41749D01*
X45094Y-31444D01*
X53737Y-31491D01*
X55523Y-33606D01*
X56685Y-34652D01*
X57863Y-35217D01*
X58475Y-35300D01*
X58856Y-35298D01*
X60254Y-35283D01*
X60254Y-35335D01*
X60203Y-35335D01*
X60150Y-35357D01*
X60109Y-35398D01*
X60087Y-35451D01*
X60087Y-35509D01*
X60106Y-35555D01*
X60087Y-35601D01*
X60087Y-35659D01*
X60109Y-35712D01*
X60115Y-35718D01*
X60111Y-35731D01*
X60111Y-35789D01*
X60133Y-35842D01*
X60174Y-35883D01*
X60227Y-35905D01*
X60261Y-35905D01*
X60262Y-36005D01*
X60243Y-36005D01*
X60190Y-36027D01*
X60149Y-36068D01*
X60127Y-36121D01*
X60127Y-36179D01*
X60149Y-36232D01*
X60190Y-36273D01*
X60243Y-36295D01*
X60266Y-36295D01*
X60267Y-36390D01*
X60235Y-36390D01*
X60182Y-36412D01*
X60141Y-36453D01*
X60119Y-36506D01*
X60119Y-36564D01*
X60141Y-36617D01*
X60182Y-36658D01*
X60235Y-36680D01*
X60271Y-36680D01*
X60276Y-37135D01*
X60257Y-37127D01*
X60199Y-37127D01*
X60146Y-37149D01*
X60105Y-37190D01*
X60083Y-37243D01*
X60083Y-37301D01*
X60105Y-37354D01*
X60146Y-37395D01*
X60199Y-37417D01*
X60257Y-37417D01*
X60279Y-37407D01*
X60281Y-37526D01*
X60265Y-37520D01*
X60207Y-37520D01*
X60154Y-37542D01*
X60113Y-37583D01*
X60091Y-37636D01*
X60091Y-37694D01*
X60113Y-37747D01*
X60154Y-37788D01*
X60207Y-37810D01*
X60265Y-37810D01*
X60284Y-37801D01*
X60286Y-37986D01*
G54D10*
G36*
X65962Y-39524D02*
X65664Y-39524D01*
X65080Y-38940D01*
X65029Y-38906D01*
X64969Y-38894D01*
X64909Y-38906D01*
X64858Y-38940D01*
X64824Y-38991D01*
X64812Y-39051D01*
X64824Y-39111D01*
X64858Y-39162D01*
X64986Y-39290D01*
X64938Y-39310D01*
X64897Y-39351D01*
X64875Y-39404D01*
X64875Y-39462D01*
X64893Y-39505D01*
X64861Y-39527D01*
X64827Y-39578D01*
X64815Y-39638D01*
X64827Y-39698D01*
X64861Y-39749D01*
X65408Y-40296D01*
X65125Y-40294D01*
X65125Y-40147D01*
X65125Y-40089D01*
X65103Y-40036D01*
X65062Y-39995D01*
X65009Y-39973D01*
X64951Y-39973D01*
X64898Y-39995D01*
X64857Y-40036D01*
X64835Y-40089D01*
X64835Y-40147D01*
X64857Y-40200D01*
X64898Y-40241D01*
X64951Y-40263D01*
X65009Y-40263D01*
X65062Y-40241D01*
X65103Y-40200D01*
X65125Y-40147D01*
X65125Y-40294D01*
X64684Y-40291D01*
X64684Y-38120D01*
X64684Y-38062D01*
X64662Y-38009D01*
X64621Y-37968D01*
X64568Y-37946D01*
X64510Y-37946D01*
X64457Y-37968D01*
X64416Y-38009D01*
X64394Y-38062D01*
X64394Y-38120D01*
X64416Y-38173D01*
X64457Y-38214D01*
X64510Y-38236D01*
X64568Y-38236D01*
X64621Y-38214D01*
X64662Y-38173D01*
X64684Y-38120D01*
X64684Y-40291D01*
X64322Y-40289D01*
X64322Y-36596D01*
X64322Y-36538D01*
X64300Y-36485D01*
X64259Y-36444D01*
X64206Y-36422D01*
X64148Y-36422D01*
X64095Y-36444D01*
X64054Y-36485D01*
X64032Y-36538D01*
X64032Y-36596D01*
X64054Y-36649D01*
X64095Y-36690D01*
X64148Y-36712D01*
X64206Y-36712D01*
X64259Y-36690D01*
X64300Y-36649D01*
X64322Y-36596D01*
X64322Y-40289D01*
X63921Y-40286D01*
X63921Y-35340D01*
X63921Y-35282D01*
X63899Y-35229D01*
X63858Y-35188D01*
X63805Y-35166D01*
X63747Y-35166D01*
X63694Y-35188D01*
X63653Y-35229D01*
X63631Y-35282D01*
X63631Y-35340D01*
X63653Y-35393D01*
X63694Y-35434D01*
X63747Y-35456D01*
X63805Y-35456D01*
X63858Y-35434D01*
X63899Y-35393D01*
X63921Y-35340D01*
X63921Y-40286D01*
X63897Y-40286D01*
X63897Y-39293D01*
X63897Y-39235D01*
X63875Y-39182D01*
X63834Y-39141D01*
X63781Y-39119D01*
X63723Y-39119D01*
X63670Y-39141D01*
X63629Y-39182D01*
X63607Y-39235D01*
X63607Y-39293D01*
X63629Y-39346D01*
X63670Y-39387D01*
X63723Y-39409D01*
X63781Y-39409D01*
X63834Y-39387D01*
X63875Y-39346D01*
X63897Y-39293D01*
X63897Y-40286D01*
X63515Y-40284D01*
X63515Y-37698D01*
X63515Y-37640D01*
X63515Y-37336D01*
X63515Y-37278D01*
X63493Y-37225D01*
X63484Y-37216D01*
X63484Y-35375D01*
X63484Y-35317D01*
X63462Y-35264D01*
X63421Y-35223D01*
X63368Y-35201D01*
X63310Y-35201D01*
X63257Y-35223D01*
X63216Y-35264D01*
X63194Y-35317D01*
X63194Y-35375D01*
X63216Y-35428D01*
X63257Y-35469D01*
X63310Y-35491D01*
X63368Y-35491D01*
X63421Y-35469D01*
X63462Y-35428D01*
X63484Y-35375D01*
X63484Y-37216D01*
X63452Y-37184D01*
X63399Y-37162D01*
X63341Y-37162D01*
X63288Y-37184D01*
X63247Y-37225D01*
X63225Y-37278D01*
X63225Y-37336D01*
X63247Y-37389D01*
X63288Y-37430D01*
X63341Y-37452D01*
X63399Y-37452D01*
X63452Y-37430D01*
X63493Y-37389D01*
X63515Y-37336D01*
X63515Y-37640D01*
X63493Y-37587D01*
X63452Y-37546D01*
X63399Y-37524D01*
X63341Y-37524D01*
X63288Y-37546D01*
X63247Y-37587D01*
X63225Y-37640D01*
X63225Y-37698D01*
X63247Y-37751D01*
X63288Y-37792D01*
X63341Y-37814D01*
X63399Y-37814D01*
X63452Y-37792D01*
X63493Y-37751D01*
X63515Y-37698D01*
X63515Y-40284D01*
X63106Y-40281D01*
X63106Y-35391D01*
X63106Y-35333D01*
X63084Y-35280D01*
X63043Y-35239D01*
X62990Y-35217D01*
X62932Y-35217D01*
X62921Y-35221D01*
X62921Y-33293D01*
X62921Y-33235D01*
X62899Y-33182D01*
X62858Y-33141D01*
X62805Y-33119D01*
X62751Y-33119D01*
X62751Y-31592D01*
X62751Y-31534D01*
X62729Y-31481D01*
X62688Y-31440D01*
X62635Y-31418D01*
X62577Y-31418D01*
X62524Y-31440D01*
X62483Y-31481D01*
X62461Y-31534D01*
X62461Y-31592D01*
X62483Y-31645D01*
X62524Y-31686D01*
X62577Y-31708D01*
X62635Y-31708D01*
X62688Y-31686D01*
X62729Y-31645D01*
X62751Y-31592D01*
X62751Y-33119D01*
X62747Y-33119D01*
X62694Y-33141D01*
X62676Y-33159D01*
X62676Y-33105D01*
X62654Y-33052D01*
X62613Y-33011D01*
X62560Y-32989D01*
X62502Y-32989D01*
X62449Y-33011D01*
X62408Y-33052D01*
X62386Y-33105D01*
X62386Y-33163D01*
X62408Y-33216D01*
X62449Y-33257D01*
X62502Y-33279D01*
X62560Y-33279D01*
X62613Y-33257D01*
X62631Y-33239D01*
X62631Y-33293D01*
X62653Y-33346D01*
X62694Y-33387D01*
X62747Y-33409D01*
X62805Y-33409D01*
X62858Y-33387D01*
X62899Y-33346D01*
X62921Y-33293D01*
X62921Y-35221D01*
X62879Y-35239D01*
X62838Y-35280D01*
X62816Y-35333D01*
X62816Y-35391D01*
X62838Y-35444D01*
X62879Y-35485D01*
X62932Y-35507D01*
X62990Y-35507D01*
X63043Y-35485D01*
X63084Y-35444D01*
X63106Y-35391D01*
X63106Y-40281D01*
X63094Y-40281D01*
X63094Y-39805D01*
X63094Y-39747D01*
X63072Y-39694D01*
X63031Y-39653D01*
X62978Y-39631D01*
X62920Y-39631D01*
X62867Y-39653D01*
X62826Y-39694D01*
X62804Y-39747D01*
X62804Y-39805D01*
X62826Y-39858D01*
X62867Y-39899D01*
X62920Y-39921D01*
X62978Y-39921D01*
X63031Y-39899D01*
X63072Y-39858D01*
X63094Y-39805D01*
X63094Y-40281D01*
X62739Y-40279D01*
X62739Y-34572D01*
X62739Y-34514D01*
X62717Y-34461D01*
X62676Y-34420D01*
X62623Y-34398D01*
X62565Y-34398D01*
X62512Y-34420D01*
X62471Y-34461D01*
X62449Y-34514D01*
X62449Y-34572D01*
X62471Y-34625D01*
X62512Y-34666D01*
X62565Y-34688D01*
X62623Y-34688D01*
X62676Y-34666D01*
X62717Y-34625D01*
X62739Y-34572D01*
X62739Y-40279D01*
X62716Y-40279D01*
X62716Y-36938D01*
X62716Y-36880D01*
X62694Y-36827D01*
X62653Y-36786D01*
X62600Y-36764D01*
X62542Y-36764D01*
X62489Y-36786D01*
X62448Y-36827D01*
X62426Y-36880D01*
X62426Y-36938D01*
X62448Y-36991D01*
X62489Y-37032D01*
X62542Y-37054D01*
X62600Y-37054D01*
X62653Y-37032D01*
X62694Y-36991D01*
X62716Y-36938D01*
X62716Y-40279D01*
X62399Y-40277D01*
X62399Y-37649D01*
X62399Y-37591D01*
X62393Y-37576D01*
X62393Y-36868D01*
X62393Y-36810D01*
X62371Y-36757D01*
X62365Y-36751D01*
X62365Y-34627D01*
X62365Y-34569D01*
X62343Y-34516D01*
X62302Y-34475D01*
X62271Y-34462D01*
X62271Y-33435D01*
X62271Y-33377D01*
X62249Y-33324D01*
X62208Y-33283D01*
X62155Y-33261D01*
X62121Y-33261D01*
X62121Y-31312D01*
X62121Y-31254D01*
X62099Y-31201D01*
X62058Y-31160D01*
X62005Y-31138D01*
X61947Y-31138D01*
X61894Y-31160D01*
X61853Y-31201D01*
X61831Y-31254D01*
X61831Y-31312D01*
X61853Y-31365D01*
X61894Y-31406D01*
X61947Y-31428D01*
X62005Y-31428D01*
X62058Y-31406D01*
X62099Y-31365D01*
X62121Y-31312D01*
X62121Y-33261D01*
X62097Y-33261D01*
X62044Y-33283D01*
X62003Y-33324D01*
X61981Y-33377D01*
X61981Y-33435D01*
X62003Y-33488D01*
X62044Y-33529D01*
X62097Y-33551D01*
X62155Y-33551D01*
X62208Y-33529D01*
X62249Y-33488D01*
X62271Y-33435D01*
X62271Y-34462D01*
X62249Y-34453D01*
X62191Y-34453D01*
X62138Y-34475D01*
X62097Y-34516D01*
X62075Y-34569D01*
X62075Y-34627D01*
X62097Y-34680D01*
X62138Y-34721D01*
X62191Y-34743D01*
X62249Y-34743D01*
X62302Y-34721D01*
X62343Y-34680D01*
X62365Y-34627D01*
X62365Y-36751D01*
X62362Y-36748D01*
X62362Y-34978D01*
X62362Y-34920D01*
X62340Y-34867D01*
X62299Y-34826D01*
X62246Y-34804D01*
X62188Y-34804D01*
X62135Y-34826D01*
X62094Y-34867D01*
X62072Y-34920D01*
X62072Y-34978D01*
X62094Y-35031D01*
X62135Y-35072D01*
X62188Y-35094D01*
X62246Y-35094D01*
X62299Y-35072D01*
X62340Y-35031D01*
X62362Y-34978D01*
X62362Y-36748D01*
X62330Y-36716D01*
X62277Y-36694D01*
X62219Y-36694D01*
X62166Y-36716D01*
X62125Y-36757D01*
X62109Y-36794D01*
X62072Y-36810D01*
X62031Y-36851D01*
X62009Y-36904D01*
X62009Y-36962D01*
X62031Y-37015D01*
X62072Y-37056D01*
X62125Y-37078D01*
X62183Y-37078D01*
X62236Y-37056D01*
X62277Y-37015D01*
X62292Y-36977D01*
X62330Y-36962D01*
X62371Y-36921D01*
X62393Y-36868D01*
X62393Y-37576D01*
X62377Y-37538D01*
X62336Y-37497D01*
X62283Y-37475D01*
X62225Y-37475D01*
X62172Y-37497D01*
X62131Y-37538D01*
X62109Y-37589D01*
X62058Y-37611D01*
X62017Y-37652D01*
X61995Y-37705D01*
X61995Y-37763D01*
X62017Y-37816D01*
X62058Y-37857D01*
X62111Y-37879D01*
X62169Y-37879D01*
X62222Y-37857D01*
X62263Y-37816D01*
X62283Y-37765D01*
X62284Y-37764D01*
X62285Y-37763D01*
X62336Y-37743D01*
X62377Y-37702D01*
X62399Y-37649D01*
X62399Y-40277D01*
X61980Y-40274D01*
X61980Y-38887D01*
X61980Y-38829D01*
X61958Y-38776D01*
X61956Y-38774D01*
X61956Y-35379D01*
X61956Y-35321D01*
X61934Y-35268D01*
X61917Y-35251D01*
X61917Y-35041D01*
X61917Y-34983D01*
X61897Y-34934D01*
X61897Y-33675D01*
X61897Y-33617D01*
X61875Y-33564D01*
X61834Y-33523D01*
X61781Y-33501D01*
X61763Y-33501D01*
X61763Y-31950D01*
X61763Y-31892D01*
X61741Y-31839D01*
X61700Y-31798D01*
X61647Y-31776D01*
X61589Y-31776D01*
X61569Y-31784D01*
X61548Y-31733D01*
X61507Y-31692D01*
X61454Y-31670D01*
X61396Y-31670D01*
X61343Y-31692D01*
X61302Y-31733D01*
X61280Y-31786D01*
X61280Y-31844D01*
X61302Y-31897D01*
X61343Y-31938D01*
X61396Y-31960D01*
X61454Y-31960D01*
X61473Y-31951D01*
X61495Y-32003D01*
X61536Y-32044D01*
X61589Y-32066D01*
X61647Y-32066D01*
X61700Y-32044D01*
X61741Y-32003D01*
X61763Y-31950D01*
X61763Y-33501D01*
X61723Y-33501D01*
X61670Y-33523D01*
X61629Y-33564D01*
X61607Y-33617D01*
X61607Y-33675D01*
X61629Y-33728D01*
X61670Y-33769D01*
X61723Y-33791D01*
X61781Y-33791D01*
X61834Y-33769D01*
X61875Y-33728D01*
X61897Y-33675D01*
X61897Y-34934D01*
X61895Y-34930D01*
X61854Y-34889D01*
X61801Y-34867D01*
X61743Y-34867D01*
X61690Y-34889D01*
X61649Y-34930D01*
X61627Y-34983D01*
X61627Y-35041D01*
X61649Y-35094D01*
X61690Y-35135D01*
X61743Y-35157D01*
X61801Y-35157D01*
X61854Y-35135D01*
X61895Y-35094D01*
X61917Y-35041D01*
X61917Y-35251D01*
X61893Y-35227D01*
X61840Y-35205D01*
X61782Y-35205D01*
X61729Y-35227D01*
X61688Y-35268D01*
X61666Y-35321D01*
X61666Y-35379D01*
X61688Y-35432D01*
X61729Y-35473D01*
X61782Y-35495D01*
X61840Y-35495D01*
X61893Y-35473D01*
X61934Y-35432D01*
X61956Y-35379D01*
X61956Y-38774D01*
X61945Y-38763D01*
X61945Y-38104D01*
X61945Y-38046D01*
X61944Y-38043D01*
X61944Y-37316D01*
X61944Y-37258D01*
X61922Y-37205D01*
X61881Y-37164D01*
X61828Y-37142D01*
X61770Y-37142D01*
X61717Y-37164D01*
X61676Y-37205D01*
X61654Y-37258D01*
X61654Y-37316D01*
X61676Y-37369D01*
X61717Y-37410D01*
X61770Y-37432D01*
X61828Y-37432D01*
X61881Y-37410D01*
X61922Y-37369D01*
X61944Y-37316D01*
X61944Y-38043D01*
X61923Y-37993D01*
X61882Y-37952D01*
X61829Y-37930D01*
X61771Y-37930D01*
X61718Y-37952D01*
X61677Y-37993D01*
X61655Y-38046D01*
X61655Y-38104D01*
X61677Y-38157D01*
X61718Y-38198D01*
X61771Y-38220D01*
X61829Y-38220D01*
X61882Y-38198D01*
X61923Y-38157D01*
X61945Y-38104D01*
X61945Y-38763D01*
X61917Y-38735D01*
X61864Y-38713D01*
X61806Y-38713D01*
X61753Y-38735D01*
X61712Y-38776D01*
X61690Y-38829D01*
X61690Y-38887D01*
X61712Y-38940D01*
X61753Y-38981D01*
X61806Y-39003D01*
X61864Y-39003D01*
X61917Y-38981D01*
X61958Y-38940D01*
X61980Y-38887D01*
X61980Y-40274D01*
X61600Y-40272D01*
X61600Y-36874D01*
X61600Y-36816D01*
X61578Y-36763D01*
X61566Y-36751D01*
X61566Y-35375D01*
X61566Y-35317D01*
X61554Y-35288D01*
X61554Y-35060D01*
X61554Y-35002D01*
X61532Y-34949D01*
X61491Y-34908D01*
X61476Y-34901D01*
X61476Y-34521D01*
X61476Y-34463D01*
X61454Y-34410D01*
X61413Y-34369D01*
X61360Y-34347D01*
X61326Y-34347D01*
X61326Y-33438D01*
X61326Y-33380D01*
X61304Y-33327D01*
X61263Y-33286D01*
X61210Y-33264D01*
X61169Y-33264D01*
X61169Y-29998D01*
X61169Y-29940D01*
X61147Y-29887D01*
X61106Y-29846D01*
X61053Y-29824D01*
X60995Y-29824D01*
X60942Y-29846D01*
X60901Y-29887D01*
X60879Y-29940D01*
X60879Y-29998D01*
X60901Y-30051D01*
X60942Y-30092D01*
X60995Y-30114D01*
X61053Y-30114D01*
X61106Y-30092D01*
X61147Y-30051D01*
X61169Y-29998D01*
X61169Y-33264D01*
X61152Y-33264D01*
X61110Y-33281D01*
X61110Y-30702D01*
X61110Y-30644D01*
X61088Y-30591D01*
X61047Y-30550D01*
X60994Y-30528D01*
X60936Y-30528D01*
X60883Y-30550D01*
X60842Y-30591D01*
X60820Y-30644D01*
X60820Y-30702D01*
X60842Y-30755D01*
X60883Y-30796D01*
X60936Y-30818D01*
X60994Y-30818D01*
X61047Y-30796D01*
X61088Y-30755D01*
X61110Y-30702D01*
X61110Y-33281D01*
X61099Y-33286D01*
X61058Y-33327D01*
X61036Y-33380D01*
X61036Y-33438D01*
X61058Y-33491D01*
X61099Y-33532D01*
X61152Y-33554D01*
X61210Y-33554D01*
X61263Y-33532D01*
X61304Y-33491D01*
X61326Y-33438D01*
X61326Y-34347D01*
X61302Y-34347D01*
X61249Y-34369D01*
X61208Y-34410D01*
X61186Y-34463D01*
X61186Y-34521D01*
X61208Y-34574D01*
X61249Y-34615D01*
X61302Y-34637D01*
X61360Y-34637D01*
X61413Y-34615D01*
X61454Y-34574D01*
X61476Y-34521D01*
X61476Y-34901D01*
X61438Y-34886D01*
X61380Y-34886D01*
X61327Y-34908D01*
X61286Y-34949D01*
X61264Y-35002D01*
X61264Y-35060D01*
X61286Y-35113D01*
X61327Y-35154D01*
X61380Y-35176D01*
X61438Y-35176D01*
X61491Y-35154D01*
X61532Y-35113D01*
X61554Y-35060D01*
X61554Y-35288D01*
X61544Y-35264D01*
X61503Y-35223D01*
X61450Y-35201D01*
X61392Y-35201D01*
X61339Y-35223D01*
X61298Y-35264D01*
X61276Y-35317D01*
X61276Y-35375D01*
X61298Y-35428D01*
X61339Y-35469D01*
X61392Y-35491D01*
X61450Y-35491D01*
X61503Y-35469D01*
X61544Y-35428D01*
X61566Y-35375D01*
X61566Y-36751D01*
X61558Y-36743D01*
X61558Y-35753D01*
X61558Y-35695D01*
X61536Y-35642D01*
X61495Y-35601D01*
X61442Y-35579D01*
X61384Y-35579D01*
X61331Y-35601D01*
X61290Y-35642D01*
X61268Y-35695D01*
X61268Y-35753D01*
X61290Y-35806D01*
X61331Y-35847D01*
X61384Y-35869D01*
X61442Y-35869D01*
X61495Y-35847D01*
X61536Y-35806D01*
X61558Y-35753D01*
X61558Y-36743D01*
X61537Y-36722D01*
X61484Y-36700D01*
X61426Y-36700D01*
X61373Y-36722D01*
X61332Y-36763D01*
X61317Y-36799D01*
X61281Y-36814D01*
X61240Y-36855D01*
X61218Y-36908D01*
X61218Y-36966D01*
X61240Y-37019D01*
X61281Y-37060D01*
X61334Y-37082D01*
X61392Y-37082D01*
X61445Y-37060D01*
X61486Y-37019D01*
X61500Y-36982D01*
X61537Y-36968D01*
X61578Y-36927D01*
X61600Y-36874D01*
X61600Y-40272D01*
X61596Y-40272D01*
X61596Y-37665D01*
X61596Y-37607D01*
X61574Y-37554D01*
X61535Y-37515D01*
X61535Y-37332D01*
X61535Y-37274D01*
X61513Y-37221D01*
X61472Y-37180D01*
X61419Y-37158D01*
X61361Y-37158D01*
X61308Y-37180D01*
X61267Y-37221D01*
X61245Y-37274D01*
X61245Y-37332D01*
X61267Y-37385D01*
X61308Y-37426D01*
X61361Y-37448D01*
X61419Y-37448D01*
X61472Y-37426D01*
X61513Y-37385D01*
X61535Y-37332D01*
X61535Y-37515D01*
X61533Y-37513D01*
X61480Y-37491D01*
X61422Y-37491D01*
X61369Y-37513D01*
X61328Y-37554D01*
X61306Y-37607D01*
X61306Y-37665D01*
X61328Y-37718D01*
X61369Y-37759D01*
X61422Y-37781D01*
X61480Y-37781D01*
X61533Y-37759D01*
X61574Y-37718D01*
X61596Y-37665D01*
X61596Y-40272D01*
X61169Y-40269D01*
X61169Y-39679D01*
X61169Y-39621D01*
X61153Y-39582D01*
X61153Y-35749D01*
X61153Y-35691D01*
X61131Y-35638D01*
X61090Y-35597D01*
X61037Y-35575D01*
X60979Y-35575D01*
X60926Y-35597D01*
X60885Y-35638D01*
X60863Y-35691D01*
X60863Y-35749D01*
X60885Y-35802D01*
X60926Y-35843D01*
X60979Y-35865D01*
X61037Y-35865D01*
X61090Y-35843D01*
X61131Y-35802D01*
X61153Y-35749D01*
X61153Y-39582D01*
X61147Y-39568D01*
X61106Y-39527D01*
X61053Y-39505D01*
X60995Y-39505D01*
X60942Y-39527D01*
X60901Y-39568D01*
X60879Y-39621D01*
X60879Y-39679D01*
X60901Y-39732D01*
X60942Y-39773D01*
X60995Y-39795D01*
X61053Y-39795D01*
X61106Y-39773D01*
X61147Y-39732D01*
X61169Y-39679D01*
X61169Y-40269D01*
X60890Y-40268D01*
X60783Y-40267D01*
X60783Y-36938D01*
X60783Y-36880D01*
X60775Y-36860D01*
X60775Y-35356D01*
X60775Y-35298D01*
X60753Y-35245D01*
X60712Y-35204D01*
X60659Y-35182D01*
X60601Y-35182D01*
X60548Y-35204D01*
X60539Y-35213D01*
X60539Y-30675D01*
X60539Y-30617D01*
X60517Y-30564D01*
X60476Y-30523D01*
X60423Y-30501D01*
X60365Y-30501D01*
X60312Y-30523D01*
X60271Y-30564D01*
X60249Y-30617D01*
X60249Y-30675D01*
X60271Y-30728D01*
X60312Y-30769D01*
X60365Y-30791D01*
X60423Y-30791D01*
X60476Y-30769D01*
X60517Y-30728D01*
X60539Y-30675D01*
X60539Y-35213D01*
X60507Y-35245D01*
X60485Y-35298D01*
X60485Y-35356D01*
X60507Y-35409D01*
X60548Y-35450D01*
X60601Y-35472D01*
X60659Y-35472D01*
X60712Y-35450D01*
X60753Y-35409D01*
X60775Y-35356D01*
X60775Y-36860D01*
X60761Y-36827D01*
X60720Y-36786D01*
X60667Y-36764D01*
X60609Y-36764D01*
X60556Y-36786D01*
X60515Y-36827D01*
X60493Y-36880D01*
X60493Y-36938D01*
X60515Y-36991D01*
X60556Y-37032D01*
X60609Y-37054D01*
X60667Y-37054D01*
X60720Y-37032D01*
X60761Y-36991D01*
X60783Y-36938D01*
X60783Y-40267D01*
X59678Y-40261D01*
X59664Y-39857D01*
X59668Y-39526D01*
X59772Y-39356D01*
X59802Y-39369D01*
X59860Y-39369D01*
X59913Y-39347D01*
X59954Y-39306D01*
X59976Y-39253D01*
X59976Y-39195D01*
X59954Y-39142D01*
X59924Y-39112D01*
X60255Y-38578D01*
X60289Y-38578D01*
X60342Y-38556D01*
X60383Y-38515D01*
X60405Y-38462D01*
X60405Y-38404D01*
X60388Y-38363D01*
X60495Y-38189D01*
X60520Y-38214D01*
X60573Y-38236D01*
X60631Y-38236D01*
X60684Y-38214D01*
X60725Y-38173D01*
X60747Y-38120D01*
X60747Y-38062D01*
X60725Y-38009D01*
X60684Y-37968D01*
X60631Y-37946D01*
X60573Y-37946D01*
X60520Y-37968D01*
X60514Y-37973D01*
X60481Y-36555D01*
X60487Y-36570D01*
X60528Y-36611D01*
X60581Y-36633D01*
X60639Y-36633D01*
X60692Y-36611D01*
X60733Y-36570D01*
X60755Y-36517D01*
X60755Y-36459D01*
X60733Y-36406D01*
X60692Y-36365D01*
X60639Y-36343D01*
X60581Y-36343D01*
X60528Y-36365D01*
X60487Y-36406D01*
X60478Y-36427D01*
X60462Y-35755D01*
X60483Y-35806D01*
X60524Y-35847D01*
X60577Y-35869D01*
X60635Y-35869D01*
X60688Y-35847D01*
X60729Y-35806D01*
X60751Y-35753D01*
X60751Y-35695D01*
X60729Y-35642D01*
X60688Y-35601D01*
X60635Y-35579D01*
X60577Y-35579D01*
X60524Y-35601D01*
X60483Y-35642D01*
X60461Y-35695D01*
X60461Y-35707D01*
X60447Y-35117D01*
X60224Y-35088D01*
X60224Y-30675D01*
X60224Y-30617D01*
X60202Y-30564D01*
X60161Y-30523D01*
X60108Y-30501D01*
X60050Y-30501D01*
X59997Y-30523D01*
X59956Y-30564D01*
X59934Y-30617D01*
X59934Y-30675D01*
X59956Y-30728D01*
X59997Y-30769D01*
X60050Y-30791D01*
X60108Y-30791D01*
X60161Y-30769D01*
X60202Y-30728D01*
X60224Y-30675D01*
X60224Y-35088D01*
X60188Y-35084D01*
X59913Y-35085D01*
X59913Y-30655D01*
X59913Y-30597D01*
X59891Y-30544D01*
X59850Y-30503D01*
X59797Y-30481D01*
X59739Y-30481D01*
X59686Y-30503D01*
X59645Y-30544D01*
X59623Y-30597D01*
X59623Y-30655D01*
X59645Y-30708D01*
X59686Y-30749D01*
X59739Y-30771D01*
X59797Y-30771D01*
X59850Y-30749D01*
X59891Y-30708D01*
X59913Y-30655D01*
X59913Y-35085D01*
X59590Y-35086D01*
X59590Y-30655D01*
X59590Y-30597D01*
X59568Y-30544D01*
X59527Y-30503D01*
X59474Y-30481D01*
X59416Y-30481D01*
X59363Y-30503D01*
X59322Y-30544D01*
X59300Y-30597D01*
X59300Y-30655D01*
X59322Y-30708D01*
X59363Y-30749D01*
X59416Y-30771D01*
X59474Y-30771D01*
X59527Y-30749D01*
X59568Y-30708D01*
X59590Y-30655D01*
X59590Y-35086D01*
X59279Y-35087D01*
X59279Y-30667D01*
X59279Y-30609D01*
X59257Y-30556D01*
X59216Y-30515D01*
X59163Y-30493D01*
X59105Y-30493D01*
X59052Y-30515D01*
X59011Y-30556D01*
X58989Y-30609D01*
X58989Y-30667D01*
X59011Y-30720D01*
X59052Y-30761D01*
X59105Y-30783D01*
X59163Y-30783D01*
X59216Y-30761D01*
X59257Y-30720D01*
X59279Y-30667D01*
X59279Y-35087D01*
X58964Y-35089D01*
X58964Y-30647D01*
X58964Y-30589D01*
X58942Y-30536D01*
X58901Y-30495D01*
X58848Y-30473D01*
X58790Y-30473D01*
X58737Y-30495D01*
X58696Y-30536D01*
X58674Y-30589D01*
X58674Y-30647D01*
X58696Y-30700D01*
X58737Y-30741D01*
X58790Y-30763D01*
X58848Y-30763D01*
X58901Y-30741D01*
X58942Y-30700D01*
X58964Y-30647D01*
X58964Y-35089D01*
X58806Y-35090D01*
X58806Y-34360D01*
X58806Y-34302D01*
X58784Y-34249D01*
X58743Y-34208D01*
X58690Y-34186D01*
X58649Y-34186D01*
X58649Y-30627D01*
X58649Y-30569D01*
X58627Y-30516D01*
X58586Y-30475D01*
X58533Y-30453D01*
X58475Y-30453D01*
X58422Y-30475D01*
X58381Y-30516D01*
X58359Y-30569D01*
X58359Y-30627D01*
X58381Y-30680D01*
X58422Y-30721D01*
X58475Y-30743D01*
X58533Y-30743D01*
X58586Y-30721D01*
X58627Y-30680D01*
X58649Y-30627D01*
X58649Y-34186D01*
X58632Y-34186D01*
X58579Y-34208D01*
X58538Y-34249D01*
X58516Y-34302D01*
X58516Y-34360D01*
X58538Y-34413D01*
X58579Y-34454D01*
X58632Y-34476D01*
X58690Y-34476D01*
X58743Y-34454D01*
X58784Y-34413D01*
X58806Y-34360D01*
X58806Y-35090D01*
X58362Y-35092D01*
X58334Y-35078D01*
X58334Y-30620D01*
X58334Y-30562D01*
X58312Y-30509D01*
X58271Y-30468D01*
X58218Y-30446D01*
X58160Y-30446D01*
X58107Y-30468D01*
X58066Y-30509D01*
X58044Y-30562D01*
X58044Y-30620D01*
X58066Y-30673D01*
X58107Y-30714D01*
X58160Y-30736D01*
X58218Y-30736D01*
X58271Y-30714D01*
X58312Y-30673D01*
X58334Y-30620D01*
X58334Y-35078D01*
X58019Y-34923D01*
X58019Y-30627D01*
X58019Y-30569D01*
X57997Y-30516D01*
X57956Y-30475D01*
X57903Y-30453D01*
X57845Y-30453D01*
X57792Y-30475D01*
X57751Y-30516D01*
X57729Y-30569D01*
X57729Y-30627D01*
X57751Y-30680D01*
X57792Y-30721D01*
X57845Y-30743D01*
X57903Y-30743D01*
X57956Y-30721D01*
X57997Y-30680D01*
X58019Y-30627D01*
X58019Y-34923D01*
X57704Y-34769D01*
X57704Y-30616D01*
X57704Y-30558D01*
X57682Y-30505D01*
X57641Y-30464D01*
X57588Y-30442D01*
X57530Y-30442D01*
X57477Y-30464D01*
X57436Y-30505D01*
X57414Y-30558D01*
X57414Y-30616D01*
X57436Y-30669D01*
X57477Y-30710D01*
X57530Y-30732D01*
X57588Y-30732D01*
X57641Y-30710D01*
X57682Y-30669D01*
X57704Y-30616D01*
X57704Y-34769D01*
X57397Y-34618D01*
X57397Y-30627D01*
X57397Y-30569D01*
X57375Y-30516D01*
X57334Y-30475D01*
X57281Y-30453D01*
X57223Y-30453D01*
X57170Y-30475D01*
X57129Y-30516D01*
X57107Y-30569D01*
X57107Y-30627D01*
X57129Y-30680D01*
X57170Y-30721D01*
X57223Y-30743D01*
X57281Y-30743D01*
X57334Y-30721D01*
X57375Y-30680D01*
X57397Y-30627D01*
X57397Y-34618D01*
X57074Y-34460D01*
X57074Y-29990D01*
X57074Y-29932D01*
X57052Y-29879D01*
X57011Y-29838D01*
X56958Y-29816D01*
X56900Y-29816D01*
X56847Y-29838D01*
X56806Y-29879D01*
X56784Y-29932D01*
X56784Y-29990D01*
X56806Y-30043D01*
X56847Y-30084D01*
X56900Y-30106D01*
X56958Y-30106D01*
X57011Y-30084D01*
X57052Y-30043D01*
X57074Y-29990D01*
X57074Y-34460D01*
X56696Y-34275D01*
X55997Y-33458D01*
X55997Y-30002D01*
X55997Y-29848D01*
X55938Y-29706D01*
X55829Y-29597D01*
X55687Y-29538D01*
X55533Y-29538D01*
X55391Y-29597D01*
X55282Y-29706D01*
X55223Y-29848D01*
X55223Y-30002D01*
X55282Y-30144D01*
X55391Y-30253D01*
X55533Y-30312D01*
X55687Y-30312D01*
X55829Y-30253D01*
X55938Y-30144D01*
X55997Y-30002D01*
X55997Y-33458D01*
X54997Y-32290D01*
X54997Y-30002D01*
X54997Y-29848D01*
X54938Y-29706D01*
X54829Y-29597D01*
X54687Y-29538D01*
X54533Y-29538D01*
X54391Y-29597D01*
X54282Y-29706D01*
X54223Y-29848D01*
X54223Y-30002D01*
X54282Y-30144D01*
X54391Y-30253D01*
X54533Y-30312D01*
X54687Y-30312D01*
X54829Y-30253D01*
X54938Y-30144D01*
X54997Y-30002D01*
X54997Y-32290D01*
X54094Y-31236D01*
X53997Y-31158D01*
X53997Y-30002D01*
X53997Y-29848D01*
X53938Y-29706D01*
X53829Y-29597D01*
X53687Y-29538D01*
X53533Y-29538D01*
X53391Y-29597D01*
X53282Y-29706D01*
X53223Y-29848D01*
X53223Y-30002D01*
X53282Y-30144D01*
X53391Y-30253D01*
X53533Y-30312D01*
X53687Y-30312D01*
X53829Y-30253D01*
X53938Y-30144D01*
X53997Y-30002D01*
X53997Y-31158D01*
X53820Y-31017D01*
X52997Y-31030D01*
X52997Y-30002D01*
X52997Y-29848D01*
X52938Y-29706D01*
X52829Y-29597D01*
X52687Y-29538D01*
X52533Y-29538D01*
X52391Y-29597D01*
X52282Y-29706D01*
X52223Y-29848D01*
X52223Y-30002D01*
X52282Y-30144D01*
X52391Y-30253D01*
X52533Y-30312D01*
X52687Y-30312D01*
X52829Y-30253D01*
X52938Y-30144D01*
X52997Y-30002D01*
X52997Y-31030D01*
X51995Y-31046D01*
X51995Y-29966D01*
X51981Y-29815D01*
X51949Y-29740D01*
X51894Y-29712D01*
X51823Y-29783D01*
X51823Y-29641D01*
X51795Y-29586D01*
X51651Y-29540D01*
X51500Y-29554D01*
X51425Y-29586D01*
X51397Y-29641D01*
X51610Y-29854D01*
X51823Y-29641D01*
X51823Y-29783D01*
X51681Y-29925D01*
X51894Y-30138D01*
X51949Y-30110D01*
X51995Y-29966D01*
X51995Y-31046D01*
X51823Y-31048D01*
X51823Y-30209D01*
X51610Y-29996D01*
X51539Y-30067D01*
X51539Y-29925D01*
X51326Y-29712D01*
X51271Y-29740D01*
X51225Y-29884D01*
X51239Y-30035D01*
X51271Y-30110D01*
X51326Y-30138D01*
X51539Y-29925D01*
X51539Y-30067D01*
X51397Y-30209D01*
X51425Y-30264D01*
X51569Y-30310D01*
X51720Y-30296D01*
X51795Y-30264D01*
X51823Y-30209D01*
X51823Y-31048D01*
X51183Y-31059D01*
X51157Y-28908D01*
X62290Y-28893D01*
X62290Y-30596D01*
X62302Y-30656D01*
X62336Y-30707D01*
X62468Y-30839D01*
X62518Y-30872D01*
X62579Y-30884D01*
X62592Y-30881D01*
X63258Y-31475D01*
X63241Y-31483D01*
X63200Y-31524D01*
X63178Y-31577D01*
X63178Y-31635D01*
X63200Y-31688D01*
X63241Y-31729D01*
X63294Y-31751D01*
X63352Y-31751D01*
X63405Y-31729D01*
X63446Y-31688D01*
X63459Y-31655D01*
X63776Y-31937D01*
X63776Y-31978D01*
X63798Y-32031D01*
X63839Y-32072D01*
X63892Y-32094D01*
X63950Y-32094D01*
X63950Y-32093D01*
X64824Y-32874D01*
X63843Y-32874D01*
X63783Y-32886D01*
X63732Y-32920D01*
X63314Y-33338D01*
X63280Y-33389D01*
X63268Y-33449D01*
X63268Y-33760D01*
X63280Y-33820D01*
X63314Y-33871D01*
X63365Y-33905D01*
X63425Y-33917D01*
X63485Y-33905D01*
X63536Y-33871D01*
X63570Y-33820D01*
X63582Y-33760D01*
X63582Y-33610D01*
X63583Y-33611D01*
X63636Y-33633D01*
X63694Y-33633D01*
X63747Y-33611D01*
X63788Y-33570D01*
X63810Y-33517D01*
X63810Y-33459D01*
X63788Y-33406D01*
X63747Y-33365D01*
X63735Y-33360D01*
X63908Y-33188D01*
X65098Y-33188D01*
X65158Y-33176D01*
X65160Y-33174D01*
X65296Y-33294D01*
X65296Y-33951D01*
X65216Y-34031D01*
X65182Y-34082D01*
X65170Y-34142D01*
X65182Y-34202D01*
X65216Y-34253D01*
X65267Y-34287D01*
X65327Y-34299D01*
X65387Y-34287D01*
X65438Y-34253D01*
X65446Y-34244D01*
X65482Y-34315D01*
X65334Y-34464D01*
X65300Y-34515D01*
X65288Y-34575D01*
X65300Y-34635D01*
X65334Y-34686D01*
X65385Y-34720D01*
X65445Y-34732D01*
X65505Y-34720D01*
X65520Y-34709D01*
X65520Y-34711D01*
X65520Y-34769D01*
X65542Y-34822D01*
X65583Y-34863D01*
X65636Y-34885D01*
X65694Y-34885D01*
X65725Y-34872D01*
X65725Y-36053D01*
X65372Y-36406D01*
X65145Y-36406D01*
X65094Y-36406D01*
X65094Y-34344D01*
X65094Y-34286D01*
X65072Y-34233D01*
X65031Y-34192D01*
X64978Y-34170D01*
X64920Y-34170D01*
X64867Y-34192D01*
X64826Y-34233D01*
X64804Y-34286D01*
X64804Y-34344D01*
X64826Y-34397D01*
X64867Y-34438D01*
X64920Y-34460D01*
X64978Y-34460D01*
X65031Y-34438D01*
X65072Y-34397D01*
X65094Y-34344D01*
X65094Y-36406D01*
X65024Y-36406D01*
X64964Y-36418D01*
X64913Y-36452D01*
X64879Y-36503D01*
X64867Y-36563D01*
X64879Y-36623D01*
X64913Y-36674D01*
X64964Y-36708D01*
X65024Y-36720D01*
X65145Y-36720D01*
X65405Y-36720D01*
X65380Y-36745D01*
X65028Y-36745D01*
X64968Y-36757D01*
X64917Y-36791D01*
X64883Y-36842D01*
X64871Y-36902D01*
X64883Y-36962D01*
X64917Y-37013D01*
X64953Y-37037D01*
X64905Y-37070D01*
X64871Y-37121D01*
X64859Y-37181D01*
X64871Y-37241D01*
X64905Y-37292D01*
X64956Y-37326D01*
X65016Y-37338D01*
X65962Y-37338D01*
X65962Y-37520D01*
X65024Y-37520D01*
X64984Y-37512D01*
X64924Y-37524D01*
X64873Y-37558D01*
X64839Y-37609D01*
X64827Y-37669D01*
X64839Y-37729D01*
X64873Y-37780D01*
X64881Y-37788D01*
X64922Y-37815D01*
X64914Y-37837D01*
X64914Y-37880D01*
X64876Y-37888D01*
X64817Y-37927D01*
X64778Y-37986D01*
X64764Y-38055D01*
X64778Y-38124D01*
X64817Y-38183D01*
X64937Y-38303D01*
X64902Y-38318D01*
X64861Y-38359D01*
X64839Y-38412D01*
X64839Y-38470D01*
X64861Y-38523D01*
X64902Y-38564D01*
X64955Y-38586D01*
X65013Y-38586D01*
X65066Y-38564D01*
X65107Y-38523D01*
X65121Y-38487D01*
X65962Y-39328D01*
X65962Y-39524D01*
X65962Y-39524D01*
G37*
G54D21*
X65962Y-39524D02*
X65664Y-39524D01*
X65080Y-38940D01*
X65029Y-38906D01*
X64969Y-38894D01*
X64909Y-38906D01*
X64858Y-38940D01*
X64824Y-38991D01*
X64812Y-39051D01*
X64824Y-39111D01*
X64858Y-39162D01*
X64986Y-39290D01*
X64938Y-39310D01*
X64897Y-39351D01*
X64875Y-39404D01*
X64875Y-39462D01*
X64893Y-39505D01*
X64861Y-39527D01*
X64827Y-39578D01*
X64815Y-39638D01*
X64827Y-39698D01*
X64861Y-39749D01*
X65408Y-40296D01*
X65125Y-40294D01*
X65125Y-40147D01*
X65125Y-40089D01*
X65103Y-40036D01*
X65062Y-39995D01*
X65009Y-39973D01*
X64951Y-39973D01*
X64898Y-39995D01*
X64857Y-40036D01*
X64835Y-40089D01*
X64835Y-40147D01*
X64857Y-40200D01*
X64898Y-40241D01*
X64951Y-40263D01*
X65009Y-40263D01*
X65062Y-40241D01*
X65103Y-40200D01*
X65125Y-40147D01*
X65125Y-40294D01*
X64684Y-40291D01*
X64684Y-38120D01*
X64684Y-38062D01*
X64662Y-38009D01*
X64621Y-37968D01*
X64568Y-37946D01*
X64510Y-37946D01*
X64457Y-37968D01*
X64416Y-38009D01*
X64394Y-38062D01*
X64394Y-38120D01*
X64416Y-38173D01*
X64457Y-38214D01*
X64510Y-38236D01*
X64568Y-38236D01*
X64621Y-38214D01*
X64662Y-38173D01*
X64684Y-38120D01*
X64684Y-40291D01*
X64322Y-40289D01*
X64322Y-36596D01*
X64322Y-36538D01*
X64300Y-36485D01*
X64259Y-36444D01*
X64206Y-36422D01*
X64148Y-36422D01*
X64095Y-36444D01*
X64054Y-36485D01*
X64032Y-36538D01*
X64032Y-36596D01*
X64054Y-36649D01*
X64095Y-36690D01*
X64148Y-36712D01*
X64206Y-36712D01*
X64259Y-36690D01*
X64300Y-36649D01*
X64322Y-36596D01*
X64322Y-40289D01*
X63921Y-40286D01*
X63921Y-35340D01*
X63921Y-35282D01*
X63899Y-35229D01*
X63858Y-35188D01*
X63805Y-35166D01*
X63747Y-35166D01*
X63694Y-35188D01*
X63653Y-35229D01*
X63631Y-35282D01*
X63631Y-35340D01*
X63653Y-35393D01*
X63694Y-35434D01*
X63747Y-35456D01*
X63805Y-35456D01*
X63858Y-35434D01*
X63899Y-35393D01*
X63921Y-35340D01*
X63921Y-40286D01*
X63897Y-40286D01*
X63897Y-39293D01*
X63897Y-39235D01*
X63875Y-39182D01*
X63834Y-39141D01*
X63781Y-39119D01*
X63723Y-39119D01*
X63670Y-39141D01*
X63629Y-39182D01*
X63607Y-39235D01*
X63607Y-39293D01*
X63629Y-39346D01*
X63670Y-39387D01*
X63723Y-39409D01*
X63781Y-39409D01*
X63834Y-39387D01*
X63875Y-39346D01*
X63897Y-39293D01*
X63897Y-40286D01*
X63515Y-40284D01*
X63515Y-37698D01*
X63515Y-37640D01*
X63515Y-37336D01*
X63515Y-37278D01*
X63493Y-37225D01*
X63484Y-37216D01*
X63484Y-35375D01*
X63484Y-35317D01*
X63462Y-35264D01*
X63421Y-35223D01*
X63368Y-35201D01*
X63310Y-35201D01*
X63257Y-35223D01*
X63216Y-35264D01*
X63194Y-35317D01*
X63194Y-35375D01*
X63216Y-35428D01*
X63257Y-35469D01*
X63310Y-35491D01*
X63368Y-35491D01*
X63421Y-35469D01*
X63462Y-35428D01*
X63484Y-35375D01*
X63484Y-37216D01*
X63452Y-37184D01*
X63399Y-37162D01*
X63341Y-37162D01*
X63288Y-37184D01*
X63247Y-37225D01*
X63225Y-37278D01*
X63225Y-37336D01*
X63247Y-37389D01*
X63288Y-37430D01*
X63341Y-37452D01*
X63399Y-37452D01*
X63452Y-37430D01*
X63493Y-37389D01*
X63515Y-37336D01*
X63515Y-37640D01*
X63493Y-37587D01*
X63452Y-37546D01*
X63399Y-37524D01*
X63341Y-37524D01*
X63288Y-37546D01*
X63247Y-37587D01*
X63225Y-37640D01*
X63225Y-37698D01*
X63247Y-37751D01*
X63288Y-37792D01*
X63341Y-37814D01*
X63399Y-37814D01*
X63452Y-37792D01*
X63493Y-37751D01*
X63515Y-37698D01*
X63515Y-40284D01*
X63106Y-40281D01*
X63106Y-35391D01*
X63106Y-35333D01*
X63084Y-35280D01*
X63043Y-35239D01*
X62990Y-35217D01*
X62932Y-35217D01*
X62921Y-35221D01*
X62921Y-33293D01*
X62921Y-33235D01*
X62899Y-33182D01*
X62858Y-33141D01*
X62805Y-33119D01*
X62751Y-33119D01*
X62751Y-31592D01*
X62751Y-31534D01*
X62729Y-31481D01*
X62688Y-31440D01*
X62635Y-31418D01*
X62577Y-31418D01*
X62524Y-31440D01*
X62483Y-31481D01*
X62461Y-31534D01*
X62461Y-31592D01*
X62483Y-31645D01*
X62524Y-31686D01*
X62577Y-31708D01*
X62635Y-31708D01*
X62688Y-31686D01*
X62729Y-31645D01*
X62751Y-31592D01*
X62751Y-33119D01*
X62747Y-33119D01*
X62694Y-33141D01*
X62676Y-33159D01*
X62676Y-33105D01*
X62654Y-33052D01*
X62613Y-33011D01*
X62560Y-32989D01*
X62502Y-32989D01*
X62449Y-33011D01*
X62408Y-33052D01*
X62386Y-33105D01*
X62386Y-33163D01*
X62408Y-33216D01*
X62449Y-33257D01*
X62502Y-33279D01*
X62560Y-33279D01*
X62613Y-33257D01*
X62631Y-33239D01*
X62631Y-33293D01*
X62653Y-33346D01*
X62694Y-33387D01*
X62747Y-33409D01*
X62805Y-33409D01*
X62858Y-33387D01*
X62899Y-33346D01*
X62921Y-33293D01*
X62921Y-35221D01*
X62879Y-35239D01*
X62838Y-35280D01*
X62816Y-35333D01*
X62816Y-35391D01*
X62838Y-35444D01*
X62879Y-35485D01*
X62932Y-35507D01*
X62990Y-35507D01*
X63043Y-35485D01*
X63084Y-35444D01*
X63106Y-35391D01*
X63106Y-40281D01*
X63094Y-40281D01*
X63094Y-39805D01*
X63094Y-39747D01*
X63072Y-39694D01*
X63031Y-39653D01*
X62978Y-39631D01*
X62920Y-39631D01*
X62867Y-39653D01*
X62826Y-39694D01*
X62804Y-39747D01*
X62804Y-39805D01*
X62826Y-39858D01*
X62867Y-39899D01*
X62920Y-39921D01*
X62978Y-39921D01*
X63031Y-39899D01*
X63072Y-39858D01*
X63094Y-39805D01*
X63094Y-40281D01*
X62739Y-40279D01*
X62739Y-34572D01*
X62739Y-34514D01*
X62717Y-34461D01*
X62676Y-34420D01*
X62623Y-34398D01*
X62565Y-34398D01*
X62512Y-34420D01*
X62471Y-34461D01*
X62449Y-34514D01*
X62449Y-34572D01*
X62471Y-34625D01*
X62512Y-34666D01*
X62565Y-34688D01*
X62623Y-34688D01*
X62676Y-34666D01*
X62717Y-34625D01*
X62739Y-34572D01*
X62739Y-40279D01*
X62716Y-40279D01*
X62716Y-36938D01*
X62716Y-36880D01*
X62694Y-36827D01*
X62653Y-36786D01*
X62600Y-36764D01*
X62542Y-36764D01*
X62489Y-36786D01*
X62448Y-36827D01*
X62426Y-36880D01*
X62426Y-36938D01*
X62448Y-36991D01*
X62489Y-37032D01*
X62542Y-37054D01*
X62600Y-37054D01*
X62653Y-37032D01*
X62694Y-36991D01*
X62716Y-36938D01*
X62716Y-40279D01*
X62399Y-40277D01*
X62399Y-37649D01*
X62399Y-37591D01*
X62393Y-37576D01*
X62393Y-36868D01*
X62393Y-36810D01*
X62371Y-36757D01*
X62365Y-36751D01*
X62365Y-34627D01*
X62365Y-34569D01*
X62343Y-34516D01*
X62302Y-34475D01*
X62271Y-34462D01*
X62271Y-33435D01*
X62271Y-33377D01*
X62249Y-33324D01*
X62208Y-33283D01*
X62155Y-33261D01*
X62121Y-33261D01*
X62121Y-31312D01*
X62121Y-31254D01*
X62099Y-31201D01*
X62058Y-31160D01*
X62005Y-31138D01*
X61947Y-31138D01*
X61894Y-31160D01*
X61853Y-31201D01*
X61831Y-31254D01*
X61831Y-31312D01*
X61853Y-31365D01*
X61894Y-31406D01*
X61947Y-31428D01*
X62005Y-31428D01*
X62058Y-31406D01*
X62099Y-31365D01*
X62121Y-31312D01*
X62121Y-33261D01*
X62097Y-33261D01*
X62044Y-33283D01*
X62003Y-33324D01*
X61981Y-33377D01*
X61981Y-33435D01*
X62003Y-33488D01*
X62044Y-33529D01*
X62097Y-33551D01*
X62155Y-33551D01*
X62208Y-33529D01*
X62249Y-33488D01*
X62271Y-33435D01*
X62271Y-34462D01*
X62249Y-34453D01*
X62191Y-34453D01*
X62138Y-34475D01*
X62097Y-34516D01*
X62075Y-34569D01*
X62075Y-34627D01*
X62097Y-34680D01*
X62138Y-34721D01*
X62191Y-34743D01*
X62249Y-34743D01*
X62302Y-34721D01*
X62343Y-34680D01*
X62365Y-34627D01*
X62365Y-36751D01*
X62362Y-36748D01*
X62362Y-34978D01*
X62362Y-34920D01*
X62340Y-34867D01*
X62299Y-34826D01*
X62246Y-34804D01*
X62188Y-34804D01*
X62135Y-34826D01*
X62094Y-34867D01*
X62072Y-34920D01*
X62072Y-34978D01*
X62094Y-35031D01*
X62135Y-35072D01*
X62188Y-35094D01*
X62246Y-35094D01*
X62299Y-35072D01*
X62340Y-35031D01*
X62362Y-34978D01*
X62362Y-36748D01*
X62330Y-36716D01*
X62277Y-36694D01*
X62219Y-36694D01*
X62166Y-36716D01*
X62125Y-36757D01*
X62109Y-36794D01*
X62072Y-36810D01*
X62031Y-36851D01*
X62009Y-36904D01*
X62009Y-36962D01*
X62031Y-37015D01*
X62072Y-37056D01*
X62125Y-37078D01*
X62183Y-37078D01*
X62236Y-37056D01*
X62277Y-37015D01*
X62292Y-36977D01*
X62330Y-36962D01*
X62371Y-36921D01*
X62393Y-36868D01*
X62393Y-37576D01*
X62377Y-37538D01*
X62336Y-37497D01*
X62283Y-37475D01*
X62225Y-37475D01*
X62172Y-37497D01*
X62131Y-37538D01*
X62109Y-37589D01*
X62058Y-37611D01*
X62017Y-37652D01*
X61995Y-37705D01*
X61995Y-37763D01*
X62017Y-37816D01*
X62058Y-37857D01*
X62111Y-37879D01*
X62169Y-37879D01*
X62222Y-37857D01*
X62263Y-37816D01*
X62283Y-37765D01*
X62284Y-37764D01*
X62285Y-37763D01*
X62336Y-37743D01*
X62377Y-37702D01*
X62399Y-37649D01*
X62399Y-40277D01*
X61980Y-40274D01*
X61980Y-38887D01*
X61980Y-38829D01*
X61958Y-38776D01*
X61956Y-38774D01*
X61956Y-35379D01*
X61956Y-35321D01*
X61934Y-35268D01*
X61917Y-35251D01*
X61917Y-35041D01*
X61917Y-34983D01*
X61897Y-34934D01*
X61897Y-33675D01*
X61897Y-33617D01*
X61875Y-33564D01*
X61834Y-33523D01*
X61781Y-33501D01*
X61763Y-33501D01*
X61763Y-31950D01*
X61763Y-31892D01*
X61741Y-31839D01*
X61700Y-31798D01*
X61647Y-31776D01*
X61589Y-31776D01*
X61569Y-31784D01*
X61548Y-31733D01*
X61507Y-31692D01*
X61454Y-31670D01*
X61396Y-31670D01*
X61343Y-31692D01*
X61302Y-31733D01*
X61280Y-31786D01*
X61280Y-31844D01*
X61302Y-31897D01*
X61343Y-31938D01*
X61396Y-31960D01*
X61454Y-31960D01*
X61473Y-31951D01*
X61495Y-32003D01*
X61536Y-32044D01*
X61589Y-32066D01*
X61647Y-32066D01*
X61700Y-32044D01*
X61741Y-32003D01*
X61763Y-31950D01*
X61763Y-33501D01*
X61723Y-33501D01*
X61670Y-33523D01*
X61629Y-33564D01*
X61607Y-33617D01*
X61607Y-33675D01*
X61629Y-33728D01*
X61670Y-33769D01*
X61723Y-33791D01*
X61781Y-33791D01*
X61834Y-33769D01*
X61875Y-33728D01*
X61897Y-33675D01*
X61897Y-34934D01*
X61895Y-34930D01*
X61854Y-34889D01*
X61801Y-34867D01*
X61743Y-34867D01*
X61690Y-34889D01*
X61649Y-34930D01*
X61627Y-34983D01*
X61627Y-35041D01*
X61649Y-35094D01*
X61690Y-35135D01*
X61743Y-35157D01*
X61801Y-35157D01*
X61854Y-35135D01*
X61895Y-35094D01*
X61917Y-35041D01*
X61917Y-35251D01*
X61893Y-35227D01*
X61840Y-35205D01*
X61782Y-35205D01*
X61729Y-35227D01*
X61688Y-35268D01*
X61666Y-35321D01*
X61666Y-35379D01*
X61688Y-35432D01*
X61729Y-35473D01*
X61782Y-35495D01*
X61840Y-35495D01*
X61893Y-35473D01*
X61934Y-35432D01*
X61956Y-35379D01*
X61956Y-38774D01*
X61945Y-38763D01*
X61945Y-38104D01*
X61945Y-38046D01*
X61944Y-38043D01*
X61944Y-37316D01*
X61944Y-37258D01*
X61922Y-37205D01*
X61881Y-37164D01*
X61828Y-37142D01*
X61770Y-37142D01*
X61717Y-37164D01*
X61676Y-37205D01*
X61654Y-37258D01*
X61654Y-37316D01*
X61676Y-37369D01*
X61717Y-37410D01*
X61770Y-37432D01*
X61828Y-37432D01*
X61881Y-37410D01*
X61922Y-37369D01*
X61944Y-37316D01*
X61944Y-38043D01*
X61923Y-37993D01*
X61882Y-37952D01*
X61829Y-37930D01*
X61771Y-37930D01*
X61718Y-37952D01*
X61677Y-37993D01*
X61655Y-38046D01*
X61655Y-38104D01*
X61677Y-38157D01*
X61718Y-38198D01*
X61771Y-38220D01*
X61829Y-38220D01*
X61882Y-38198D01*
X61923Y-38157D01*
X61945Y-38104D01*
X61945Y-38763D01*
X61917Y-38735D01*
X61864Y-38713D01*
X61806Y-38713D01*
X61753Y-38735D01*
X61712Y-38776D01*
X61690Y-38829D01*
X61690Y-38887D01*
X61712Y-38940D01*
X61753Y-38981D01*
X61806Y-39003D01*
X61864Y-39003D01*
X61917Y-38981D01*
X61958Y-38940D01*
X61980Y-38887D01*
X61980Y-40274D01*
X61600Y-40272D01*
X61600Y-36874D01*
X61600Y-36816D01*
X61578Y-36763D01*
X61566Y-36751D01*
X61566Y-35375D01*
X61566Y-35317D01*
X61554Y-35288D01*
X61554Y-35060D01*
X61554Y-35002D01*
X61532Y-34949D01*
X61491Y-34908D01*
X61476Y-34901D01*
X61476Y-34521D01*
X61476Y-34463D01*
X61454Y-34410D01*
X61413Y-34369D01*
X61360Y-34347D01*
X61326Y-34347D01*
X61326Y-33438D01*
X61326Y-33380D01*
X61304Y-33327D01*
X61263Y-33286D01*
X61210Y-33264D01*
X61169Y-33264D01*
X61169Y-29998D01*
X61169Y-29940D01*
X61147Y-29887D01*
X61106Y-29846D01*
X61053Y-29824D01*
X60995Y-29824D01*
X60942Y-29846D01*
X60901Y-29887D01*
X60879Y-29940D01*
X60879Y-29998D01*
X60901Y-30051D01*
X60942Y-30092D01*
X60995Y-30114D01*
X61053Y-30114D01*
X61106Y-30092D01*
X61147Y-30051D01*
X61169Y-29998D01*
X61169Y-33264D01*
X61152Y-33264D01*
X61110Y-33281D01*
X61110Y-30702D01*
X61110Y-30644D01*
X61088Y-30591D01*
X61047Y-30550D01*
X60994Y-30528D01*
X60936Y-30528D01*
X60883Y-30550D01*
X60842Y-30591D01*
X60820Y-30644D01*
X60820Y-30702D01*
X60842Y-30755D01*
X60883Y-30796D01*
X60936Y-30818D01*
X60994Y-30818D01*
X61047Y-30796D01*
X61088Y-30755D01*
X61110Y-30702D01*
X61110Y-33281D01*
X61099Y-33286D01*
X61058Y-33327D01*
X61036Y-33380D01*
X61036Y-33438D01*
X61058Y-33491D01*
X61099Y-33532D01*
X61152Y-33554D01*
X61210Y-33554D01*
X61263Y-33532D01*
X61304Y-33491D01*
X61326Y-33438D01*
X61326Y-34347D01*
X61302Y-34347D01*
X61249Y-34369D01*
X61208Y-34410D01*
X61186Y-34463D01*
X61186Y-34521D01*
X61208Y-34574D01*
X61249Y-34615D01*
X61302Y-34637D01*
X61360Y-34637D01*
X61413Y-34615D01*
X61454Y-34574D01*
X61476Y-34521D01*
X61476Y-34901D01*
X61438Y-34886D01*
X61380Y-34886D01*
X61327Y-34908D01*
X61286Y-34949D01*
X61264Y-35002D01*
X61264Y-35060D01*
X61286Y-35113D01*
X61327Y-35154D01*
X61380Y-35176D01*
X61438Y-35176D01*
X61491Y-35154D01*
X61532Y-35113D01*
X61554Y-35060D01*
X61554Y-35288D01*
X61544Y-35264D01*
X61503Y-35223D01*
X61450Y-35201D01*
X61392Y-35201D01*
X61339Y-35223D01*
X61298Y-35264D01*
X61276Y-35317D01*
X61276Y-35375D01*
X61298Y-35428D01*
X61339Y-35469D01*
X61392Y-35491D01*
X61450Y-35491D01*
X61503Y-35469D01*
X61544Y-35428D01*
X61566Y-35375D01*
X61566Y-36751D01*
X61558Y-36743D01*
X61558Y-35753D01*
X61558Y-35695D01*
X61536Y-35642D01*
X61495Y-35601D01*
X61442Y-35579D01*
X61384Y-35579D01*
X61331Y-35601D01*
X61290Y-35642D01*
X61268Y-35695D01*
X61268Y-35753D01*
X61290Y-35806D01*
X61331Y-35847D01*
X61384Y-35869D01*
X61442Y-35869D01*
X61495Y-35847D01*
X61536Y-35806D01*
X61558Y-35753D01*
X61558Y-36743D01*
X61537Y-36722D01*
X61484Y-36700D01*
X61426Y-36700D01*
X61373Y-36722D01*
X61332Y-36763D01*
X61317Y-36799D01*
X61281Y-36814D01*
X61240Y-36855D01*
X61218Y-36908D01*
X61218Y-36966D01*
X61240Y-37019D01*
X61281Y-37060D01*
X61334Y-37082D01*
X61392Y-37082D01*
X61445Y-37060D01*
X61486Y-37019D01*
X61500Y-36982D01*
X61537Y-36968D01*
X61578Y-36927D01*
X61600Y-36874D01*
X61600Y-40272D01*
X61596Y-40272D01*
X61596Y-37665D01*
X61596Y-37607D01*
X61574Y-37554D01*
X61535Y-37515D01*
X61535Y-37332D01*
X61535Y-37274D01*
X61513Y-37221D01*
X61472Y-37180D01*
X61419Y-37158D01*
X61361Y-37158D01*
X61308Y-37180D01*
X61267Y-37221D01*
X61245Y-37274D01*
X61245Y-37332D01*
X61267Y-37385D01*
X61308Y-37426D01*
X61361Y-37448D01*
X61419Y-37448D01*
X61472Y-37426D01*
X61513Y-37385D01*
X61535Y-37332D01*
X61535Y-37515D01*
X61533Y-37513D01*
X61480Y-37491D01*
X61422Y-37491D01*
X61369Y-37513D01*
X61328Y-37554D01*
X61306Y-37607D01*
X61306Y-37665D01*
X61328Y-37718D01*
X61369Y-37759D01*
X61422Y-37781D01*
X61480Y-37781D01*
X61533Y-37759D01*
X61574Y-37718D01*
X61596Y-37665D01*
X61596Y-40272D01*
X61169Y-40269D01*
X61169Y-39679D01*
X61169Y-39621D01*
X61153Y-39582D01*
X61153Y-35749D01*
X61153Y-35691D01*
X61131Y-35638D01*
X61090Y-35597D01*
X61037Y-35575D01*
X60979Y-35575D01*
X60926Y-35597D01*
X60885Y-35638D01*
X60863Y-35691D01*
X60863Y-35749D01*
X60885Y-35802D01*
X60926Y-35843D01*
X60979Y-35865D01*
X61037Y-35865D01*
X61090Y-35843D01*
X61131Y-35802D01*
X61153Y-35749D01*
X61153Y-39582D01*
X61147Y-39568D01*
X61106Y-39527D01*
X61053Y-39505D01*
X60995Y-39505D01*
X60942Y-39527D01*
X60901Y-39568D01*
X60879Y-39621D01*
X60879Y-39679D01*
X60901Y-39732D01*
X60942Y-39773D01*
X60995Y-39795D01*
X61053Y-39795D01*
X61106Y-39773D01*
X61147Y-39732D01*
X61169Y-39679D01*
X61169Y-40269D01*
X60890Y-40268D01*
X60783Y-40267D01*
X60783Y-36938D01*
X60783Y-36880D01*
X60775Y-36860D01*
X60775Y-35356D01*
X60775Y-35298D01*
X60753Y-35245D01*
X60712Y-35204D01*
X60659Y-35182D01*
X60601Y-35182D01*
X60548Y-35204D01*
X60539Y-35213D01*
X60539Y-30675D01*
X60539Y-30617D01*
X60517Y-30564D01*
X60476Y-30523D01*
X60423Y-30501D01*
X60365Y-30501D01*
X60312Y-30523D01*
X60271Y-30564D01*
X60249Y-30617D01*
X60249Y-30675D01*
X60271Y-30728D01*
X60312Y-30769D01*
X60365Y-30791D01*
X60423Y-30791D01*
X60476Y-30769D01*
X60517Y-30728D01*
X60539Y-30675D01*
X60539Y-35213D01*
X60507Y-35245D01*
X60485Y-35298D01*
X60485Y-35356D01*
X60507Y-35409D01*
X60548Y-35450D01*
X60601Y-35472D01*
X60659Y-35472D01*
X60712Y-35450D01*
X60753Y-35409D01*
X60775Y-35356D01*
X60775Y-36860D01*
X60761Y-36827D01*
X60720Y-36786D01*
X60667Y-36764D01*
X60609Y-36764D01*
X60556Y-36786D01*
X60515Y-36827D01*
X60493Y-36880D01*
X60493Y-36938D01*
X60515Y-36991D01*
X60556Y-37032D01*
X60609Y-37054D01*
X60667Y-37054D01*
X60720Y-37032D01*
X60761Y-36991D01*
X60783Y-36938D01*
X60783Y-40267D01*
X59678Y-40261D01*
X59664Y-39857D01*
X59668Y-39526D01*
X59772Y-39356D01*
X59802Y-39369D01*
X59860Y-39369D01*
X59913Y-39347D01*
X59954Y-39306D01*
X59976Y-39253D01*
X59976Y-39195D01*
X59954Y-39142D01*
X59924Y-39112D01*
X60255Y-38578D01*
X60289Y-38578D01*
X60342Y-38556D01*
X60383Y-38515D01*
X60405Y-38462D01*
X60405Y-38404D01*
X60388Y-38363D01*
X60495Y-38189D01*
X60520Y-38214D01*
X60573Y-38236D01*
X60631Y-38236D01*
X60684Y-38214D01*
X60725Y-38173D01*
X60747Y-38120D01*
X60747Y-38062D01*
X60725Y-38009D01*
X60684Y-37968D01*
X60631Y-37946D01*
X60573Y-37946D01*
X60520Y-37968D01*
X60514Y-37973D01*
X60481Y-36555D01*
X60487Y-36570D01*
X60528Y-36611D01*
X60581Y-36633D01*
X60639Y-36633D01*
X60692Y-36611D01*
X60733Y-36570D01*
X60755Y-36517D01*
X60755Y-36459D01*
X60733Y-36406D01*
X60692Y-36365D01*
X60639Y-36343D01*
X60581Y-36343D01*
X60528Y-36365D01*
X60487Y-36406D01*
X60478Y-36427D01*
X60462Y-35755D01*
X60483Y-35806D01*
X60524Y-35847D01*
X60577Y-35869D01*
X60635Y-35869D01*
X60688Y-35847D01*
X60729Y-35806D01*
X60751Y-35753D01*
X60751Y-35695D01*
X60729Y-35642D01*
X60688Y-35601D01*
X60635Y-35579D01*
X60577Y-35579D01*
X60524Y-35601D01*
X60483Y-35642D01*
X60461Y-35695D01*
X60461Y-35707D01*
X60447Y-35117D01*
X60224Y-35088D01*
X60224Y-30675D01*
X60224Y-30617D01*
X60202Y-30564D01*
X60161Y-30523D01*
X60108Y-30501D01*
X60050Y-30501D01*
X59997Y-30523D01*
X59956Y-30564D01*
X59934Y-30617D01*
X59934Y-30675D01*
X59956Y-30728D01*
X59997Y-30769D01*
X60050Y-30791D01*
X60108Y-30791D01*
X60161Y-30769D01*
X60202Y-30728D01*
X60224Y-30675D01*
X60224Y-35088D01*
X60188Y-35084D01*
X59913Y-35085D01*
X59913Y-30655D01*
X59913Y-30597D01*
X59891Y-30544D01*
X59850Y-30503D01*
X59797Y-30481D01*
X59739Y-30481D01*
X59686Y-30503D01*
X59645Y-30544D01*
X59623Y-30597D01*
X59623Y-30655D01*
X59645Y-30708D01*
X59686Y-30749D01*
X59739Y-30771D01*
X59797Y-30771D01*
X59850Y-30749D01*
X59891Y-30708D01*
X59913Y-30655D01*
X59913Y-35085D01*
X59590Y-35086D01*
X59590Y-30655D01*
X59590Y-30597D01*
X59568Y-30544D01*
X59527Y-30503D01*
X59474Y-30481D01*
X59416Y-30481D01*
X59363Y-30503D01*
X59322Y-30544D01*
X59300Y-30597D01*
X59300Y-30655D01*
X59322Y-30708D01*
X59363Y-30749D01*
X59416Y-30771D01*
X59474Y-30771D01*
X59527Y-30749D01*
X59568Y-30708D01*
X59590Y-30655D01*
X59590Y-35086D01*
X59279Y-35087D01*
X59279Y-30667D01*
X59279Y-30609D01*
X59257Y-30556D01*
X59216Y-30515D01*
X59163Y-30493D01*
X59105Y-30493D01*
X59052Y-30515D01*
X59011Y-30556D01*
X58989Y-30609D01*
X58989Y-30667D01*
X59011Y-30720D01*
X59052Y-30761D01*
X59105Y-30783D01*
X59163Y-30783D01*
X59216Y-30761D01*
X59257Y-30720D01*
X59279Y-30667D01*
X59279Y-35087D01*
X58964Y-35089D01*
X58964Y-30647D01*
X58964Y-30589D01*
X58942Y-30536D01*
X58901Y-30495D01*
X58848Y-30473D01*
X58790Y-30473D01*
X58737Y-30495D01*
X58696Y-30536D01*
X58674Y-30589D01*
X58674Y-30647D01*
X58696Y-30700D01*
X58737Y-30741D01*
X58790Y-30763D01*
X58848Y-30763D01*
X58901Y-30741D01*
X58942Y-30700D01*
X58964Y-30647D01*
X58964Y-35089D01*
X58806Y-35090D01*
X58806Y-34360D01*
X58806Y-34302D01*
X58784Y-34249D01*
X58743Y-34208D01*
X58690Y-34186D01*
X58649Y-34186D01*
X58649Y-30627D01*
X58649Y-30569D01*
X58627Y-30516D01*
X58586Y-30475D01*
X58533Y-30453D01*
X58475Y-30453D01*
X58422Y-30475D01*
X58381Y-30516D01*
X58359Y-30569D01*
X58359Y-30627D01*
X58381Y-30680D01*
X58422Y-30721D01*
X58475Y-30743D01*
X58533Y-30743D01*
X58586Y-30721D01*
X58627Y-30680D01*
X58649Y-30627D01*
X58649Y-34186D01*
X58632Y-34186D01*
X58579Y-34208D01*
X58538Y-34249D01*
X58516Y-34302D01*
X58516Y-34360D01*
X58538Y-34413D01*
X58579Y-34454D01*
X58632Y-34476D01*
X58690Y-34476D01*
X58743Y-34454D01*
X58784Y-34413D01*
X58806Y-34360D01*
X58806Y-35090D01*
X58362Y-35092D01*
X58334Y-35078D01*
X58334Y-30620D01*
X58334Y-30562D01*
X58312Y-30509D01*
X58271Y-30468D01*
X58218Y-30446D01*
X58160Y-30446D01*
X58107Y-30468D01*
X58066Y-30509D01*
X58044Y-30562D01*
X58044Y-30620D01*
X58066Y-30673D01*
X58107Y-30714D01*
X58160Y-30736D01*
X58218Y-30736D01*
X58271Y-30714D01*
X58312Y-30673D01*
X58334Y-30620D01*
X58334Y-35078D01*
X58019Y-34923D01*
X58019Y-30627D01*
X58019Y-30569D01*
X57997Y-30516D01*
X57956Y-30475D01*
X57903Y-30453D01*
X57845Y-30453D01*
X57792Y-30475D01*
X57751Y-30516D01*
X57729Y-30569D01*
X57729Y-30627D01*
X57751Y-30680D01*
X57792Y-30721D01*
X57845Y-30743D01*
X57903Y-30743D01*
X57956Y-30721D01*
X57997Y-30680D01*
X58019Y-30627D01*
X58019Y-34923D01*
X57704Y-34769D01*
X57704Y-30616D01*
X57704Y-30558D01*
X57682Y-30505D01*
X57641Y-30464D01*
X57588Y-30442D01*
X57530Y-30442D01*
X57477Y-30464D01*
X57436Y-30505D01*
X57414Y-30558D01*
X57414Y-30616D01*
X57436Y-30669D01*
X57477Y-30710D01*
X57530Y-30732D01*
X57588Y-30732D01*
X57641Y-30710D01*
X57682Y-30669D01*
X57704Y-30616D01*
X57704Y-34769D01*
X57397Y-34618D01*
X57397Y-30627D01*
X57397Y-30569D01*
X57375Y-30516D01*
X57334Y-30475D01*
X57281Y-30453D01*
X57223Y-30453D01*
X57170Y-30475D01*
X57129Y-30516D01*
X57107Y-30569D01*
X57107Y-30627D01*
X57129Y-30680D01*
X57170Y-30721D01*
X57223Y-30743D01*
X57281Y-30743D01*
X57334Y-30721D01*
X57375Y-30680D01*
X57397Y-30627D01*
X57397Y-34618D01*
X57074Y-34460D01*
X57074Y-29990D01*
X57074Y-29932D01*
X57052Y-29879D01*
X57011Y-29838D01*
X56958Y-29816D01*
X56900Y-29816D01*
X56847Y-29838D01*
X56806Y-29879D01*
X56784Y-29932D01*
X56784Y-29990D01*
X56806Y-30043D01*
X56847Y-30084D01*
X56900Y-30106D01*
X56958Y-30106D01*
X57011Y-30084D01*
X57052Y-30043D01*
X57074Y-29990D01*
X57074Y-34460D01*
X56696Y-34275D01*
X55997Y-33458D01*
X55997Y-30002D01*
X55997Y-29848D01*
X55938Y-29706D01*
X55829Y-29597D01*
X55687Y-29538D01*
X55533Y-29538D01*
X55391Y-29597D01*
X55282Y-29706D01*
X55223Y-29848D01*
X55223Y-30002D01*
X55282Y-30144D01*
X55391Y-30253D01*
X55533Y-30312D01*
X55687Y-30312D01*
X55829Y-30253D01*
X55938Y-30144D01*
X55997Y-30002D01*
X55997Y-33458D01*
X54997Y-32290D01*
X54997Y-30002D01*
X54997Y-29848D01*
X54938Y-29706D01*
X54829Y-29597D01*
X54687Y-29538D01*
X54533Y-29538D01*
X54391Y-29597D01*
X54282Y-29706D01*
X54223Y-29848D01*
X54223Y-30002D01*
X54282Y-30144D01*
X54391Y-30253D01*
X54533Y-30312D01*
X54687Y-30312D01*
X54829Y-30253D01*
X54938Y-30144D01*
X54997Y-30002D01*
X54997Y-32290D01*
X54094Y-31236D01*
X53997Y-31158D01*
X53997Y-30002D01*
X53997Y-29848D01*
X53938Y-29706D01*
X53829Y-29597D01*
X53687Y-29538D01*
X53533Y-29538D01*
X53391Y-29597D01*
X53282Y-29706D01*
X53223Y-29848D01*
X53223Y-30002D01*
X53282Y-30144D01*
X53391Y-30253D01*
X53533Y-30312D01*
X53687Y-30312D01*
X53829Y-30253D01*
X53938Y-30144D01*
X53997Y-30002D01*
X53997Y-31158D01*
X53820Y-31017D01*
X52997Y-31030D01*
X52997Y-30002D01*
X52997Y-29848D01*
X52938Y-29706D01*
X52829Y-29597D01*
X52687Y-29538D01*
X52533Y-29538D01*
X52391Y-29597D01*
X52282Y-29706D01*
X52223Y-29848D01*
X52223Y-30002D01*
X52282Y-30144D01*
X52391Y-30253D01*
X52533Y-30312D01*
X52687Y-30312D01*
X52829Y-30253D01*
X52938Y-30144D01*
X52997Y-30002D01*
X52997Y-31030D01*
X51995Y-31046D01*
X51995Y-29966D01*
X51981Y-29815D01*
X51949Y-29740D01*
X51894Y-29712D01*
X51823Y-29783D01*
X51823Y-29641D01*
X51795Y-29586D01*
X51651Y-29540D01*
X51500Y-29554D01*
X51425Y-29586D01*
X51397Y-29641D01*
X51610Y-29854D01*
X51823Y-29641D01*
X51823Y-29783D01*
X51681Y-29925D01*
X51894Y-30138D01*
X51949Y-30110D01*
X51995Y-29966D01*
X51995Y-31046D01*
X51823Y-31048D01*
X51823Y-30209D01*
X51610Y-29996D01*
X51539Y-30067D01*
X51539Y-29925D01*
X51326Y-29712D01*
X51271Y-29740D01*
X51225Y-29884D01*
X51239Y-30035D01*
X51271Y-30110D01*
X51326Y-30138D01*
X51539Y-29925D01*
X51539Y-30067D01*
X51397Y-30209D01*
X51425Y-30264D01*
X51569Y-30310D01*
X51720Y-30296D01*
X51795Y-30264D01*
X51823Y-30209D01*
X51823Y-31048D01*
X51183Y-31059D01*
X51157Y-28908D01*
X62290Y-28893D01*
X62290Y-30596D01*
X62302Y-30656D01*
X62336Y-30707D01*
X62468Y-30839D01*
X62518Y-30872D01*
X62579Y-30884D01*
X62592Y-30881D01*
X63258Y-31475D01*
X63241Y-31483D01*
X63200Y-31524D01*
X63178Y-31577D01*
X63178Y-31635D01*
X63200Y-31688D01*
X63241Y-31729D01*
X63294Y-31751D01*
X63352Y-31751D01*
X63405Y-31729D01*
X63446Y-31688D01*
X63459Y-31655D01*
X63776Y-31937D01*
X63776Y-31978D01*
X63798Y-32031D01*
X63839Y-32072D01*
X63892Y-32094D01*
X63950Y-32094D01*
X63950Y-32093D01*
X64824Y-32874D01*
X63843Y-32874D01*
X63783Y-32886D01*
X63732Y-32920D01*
X63314Y-33338D01*
X63280Y-33389D01*
X63268Y-33449D01*
X63268Y-33760D01*
X63280Y-33820D01*
X63314Y-33871D01*
X63365Y-33905D01*
X63425Y-33917D01*
X63485Y-33905D01*
X63536Y-33871D01*
X63570Y-33820D01*
X63582Y-33760D01*
X63582Y-33610D01*
X63583Y-33611D01*
X63636Y-33633D01*
X63694Y-33633D01*
X63747Y-33611D01*
X63788Y-33570D01*
X63810Y-33517D01*
X63810Y-33459D01*
X63788Y-33406D01*
X63747Y-33365D01*
X63735Y-33360D01*
X63908Y-33188D01*
X65098Y-33188D01*
X65158Y-33176D01*
X65160Y-33174D01*
X65296Y-33294D01*
X65296Y-33951D01*
X65216Y-34031D01*
X65182Y-34082D01*
X65170Y-34142D01*
X65182Y-34202D01*
X65216Y-34253D01*
X65267Y-34287D01*
X65327Y-34299D01*
X65387Y-34287D01*
X65438Y-34253D01*
X65446Y-34244D01*
X65482Y-34315D01*
X65334Y-34464D01*
X65300Y-34515D01*
X65288Y-34575D01*
X65300Y-34635D01*
X65334Y-34686D01*
X65385Y-34720D01*
X65445Y-34732D01*
X65505Y-34720D01*
X65520Y-34709D01*
X65520Y-34711D01*
X65520Y-34769D01*
X65542Y-34822D01*
X65583Y-34863D01*
X65636Y-34885D01*
X65694Y-34885D01*
X65725Y-34872D01*
X65725Y-36053D01*
X65372Y-36406D01*
X65145Y-36406D01*
X65094Y-36406D01*
X65094Y-34344D01*
X65094Y-34286D01*
X65072Y-34233D01*
X65031Y-34192D01*
X64978Y-34170D01*
X64920Y-34170D01*
X64867Y-34192D01*
X64826Y-34233D01*
X64804Y-34286D01*
X64804Y-34344D01*
X64826Y-34397D01*
X64867Y-34438D01*
X64920Y-34460D01*
X64978Y-34460D01*
X65031Y-34438D01*
X65072Y-34397D01*
X65094Y-34344D01*
X65094Y-36406D01*
X65024Y-36406D01*
X64964Y-36418D01*
X64913Y-36452D01*
X64879Y-36503D01*
X64867Y-36563D01*
X64879Y-36623D01*
X64913Y-36674D01*
X64964Y-36708D01*
X65024Y-36720D01*
X65145Y-36720D01*
X65405Y-36720D01*
X65380Y-36745D01*
X65028Y-36745D01*
X64968Y-36757D01*
X64917Y-36791D01*
X64883Y-36842D01*
X64871Y-36902D01*
X64883Y-36962D01*
X64917Y-37013D01*
X64953Y-37037D01*
X64905Y-37070D01*
X64871Y-37121D01*
X64859Y-37181D01*
X64871Y-37241D01*
X64905Y-37292D01*
X64956Y-37326D01*
X65016Y-37338D01*
X65962Y-37338D01*
X65962Y-37520D01*
X65024Y-37520D01*
X64984Y-37512D01*
X64924Y-37524D01*
X64873Y-37558D01*
X64839Y-37609D01*
X64827Y-37669D01*
X64839Y-37729D01*
X64873Y-37780D01*
X64881Y-37788D01*
X64922Y-37815D01*
X64914Y-37837D01*
X64914Y-37880D01*
X64876Y-37888D01*
X64817Y-37927D01*
X64778Y-37986D01*
X64764Y-38055D01*
X64778Y-38124D01*
X64817Y-38183D01*
X64937Y-38303D01*
X64902Y-38318D01*
X64861Y-38359D01*
X64839Y-38412D01*
X64839Y-38470D01*
X64861Y-38523D01*
X64902Y-38564D01*
X64955Y-38586D01*
X65013Y-38586D01*
X65066Y-38564D01*
X65107Y-38523D01*
X65121Y-38487D01*
X65962Y-39328D01*
X65962Y-39524D01*
G54D10*
G36*
X65962Y-40300D02*
X65855Y-40299D01*
X65107Y-39551D01*
X65143Y-39515D01*
X65162Y-39466D01*
X65487Y-39791D01*
X65488Y-39792D01*
X65538Y-39825D01*
X65539Y-39826D01*
X65598Y-39837D01*
X65599Y-39838D01*
X65962Y-39838D01*
X65962Y-40300D01*
X65962Y-40300D01*
G37*
G54D21*
X65962Y-40300D02*
X65855Y-40299D01*
X65107Y-39551D01*
X65143Y-39515D01*
X65162Y-39466D01*
X65487Y-39791D01*
X65488Y-39792D01*
X65538Y-39825D01*
X65539Y-39826D01*
X65598Y-39837D01*
X65599Y-39838D01*
X65962Y-39838D01*
X65962Y-40300D01*
M02*
