G04 (created by PCBNEW-RS274X (2012-jan-04)-stable) date Sat Nov 10 19:24:45 2012*
G01*
G70*
G90*
%MOIN*%
G04 Gerber Fmt 3.4, Leading zero omitted, Abs format*
%FSLAX34Y34*%
G04 APERTURE LIST*
%ADD10C,0.006000*%
%ADD11C,0.012000*%
%ADD12C,0.007400*%
%ADD13C,0.011800*%
%ADD14C,0.015000*%
%ADD15C,0.003900*%
%ADD16C,0.008000*%
%ADD17C,0.005000*%
%ADD18C,0.020100*%
%ADD19C,0.007900*%
%ADD20C,0.005200*%
%ADD21C,0.004300*%
%ADD22C,0.004500*%
%ADD23C,0.005900*%
%ADD24C,0.008800*%
G04 APERTURE END LIST*
G54D10*
X04000Y-04000D02*
X113000Y-04000D01*
X113000Y-78670D01*
X04000Y-78670D01*
X04000Y-04000D01*
X04700Y-04700D02*
X112300Y-04700D01*
X112300Y-77970D01*
X04700Y-77970D01*
X04700Y-04700D01*
X25800Y-04000D02*
X25800Y-04700D01*
X15043Y-04552D02*
X14757Y-04552D01*
X14900Y-04552D02*
X14900Y-04052D01*
X14852Y-04124D01*
X14805Y-04171D01*
X14757Y-04195D01*
X25800Y-78670D02*
X25800Y-77970D01*
X15043Y-78522D02*
X14757Y-78522D01*
X14900Y-78522D02*
X14900Y-78022D01*
X14852Y-78094D01*
X14805Y-78141D01*
X14757Y-78165D01*
X47600Y-04000D02*
X47600Y-04700D01*
X36557Y-04100D02*
X36581Y-04076D01*
X36629Y-04052D01*
X36748Y-04052D01*
X36795Y-04076D01*
X36819Y-04100D01*
X36843Y-04148D01*
X36843Y-04195D01*
X36819Y-04267D01*
X36533Y-04552D01*
X36843Y-04552D01*
X47600Y-78670D02*
X47600Y-77970D01*
X36557Y-78070D02*
X36581Y-78046D01*
X36629Y-78022D01*
X36748Y-78022D01*
X36795Y-78046D01*
X36819Y-78070D01*
X36843Y-78118D01*
X36843Y-78165D01*
X36819Y-78237D01*
X36533Y-78522D01*
X36843Y-78522D01*
X69400Y-04000D02*
X69400Y-04700D01*
X58333Y-04052D02*
X58643Y-04052D01*
X58476Y-04243D01*
X58548Y-04243D01*
X58595Y-04267D01*
X58619Y-04290D01*
X58643Y-04338D01*
X58643Y-04457D01*
X58619Y-04505D01*
X58595Y-04529D01*
X58548Y-04552D01*
X58405Y-04552D01*
X58357Y-04529D01*
X58333Y-04505D01*
X69400Y-78670D02*
X69400Y-77970D01*
X58333Y-78022D02*
X58643Y-78022D01*
X58476Y-78213D01*
X58548Y-78213D01*
X58595Y-78237D01*
X58619Y-78260D01*
X58643Y-78308D01*
X58643Y-78427D01*
X58619Y-78475D01*
X58595Y-78499D01*
X58548Y-78522D01*
X58405Y-78522D01*
X58357Y-78499D01*
X58333Y-78475D01*
X91200Y-04000D02*
X91200Y-04700D01*
X80395Y-04219D02*
X80395Y-04552D01*
X80276Y-04029D02*
X80157Y-04386D01*
X80467Y-04386D01*
X91200Y-78670D02*
X91200Y-77970D01*
X80395Y-78189D02*
X80395Y-78522D01*
X80276Y-77999D02*
X80157Y-78356D01*
X80467Y-78356D01*
X102219Y-04052D02*
X101981Y-04052D01*
X101957Y-04290D01*
X101981Y-04267D01*
X102029Y-04243D01*
X102148Y-04243D01*
X102195Y-04267D01*
X102219Y-04290D01*
X102243Y-04338D01*
X102243Y-04457D01*
X102219Y-04505D01*
X102195Y-04529D01*
X102148Y-04552D01*
X102029Y-04552D01*
X101981Y-04529D01*
X101957Y-04505D01*
X102219Y-78022D02*
X101981Y-78022D01*
X101957Y-78260D01*
X101981Y-78237D01*
X102029Y-78213D01*
X102148Y-78213D01*
X102195Y-78237D01*
X102219Y-78260D01*
X102243Y-78308D01*
X102243Y-78427D01*
X102219Y-78475D01*
X102195Y-78499D01*
X102148Y-78522D01*
X102029Y-78522D01*
X101981Y-78499D01*
X101957Y-78475D01*
X04000Y-28890D02*
X04700Y-28890D01*
X04231Y-16510D02*
X04469Y-16510D01*
X04184Y-16652D02*
X04350Y-16152D01*
X04517Y-16652D01*
X113000Y-28890D02*
X112300Y-28890D01*
X112531Y-16510D02*
X112769Y-16510D01*
X112484Y-16652D02*
X112650Y-16152D01*
X112817Y-16652D01*
X04000Y-53780D02*
X04700Y-53780D01*
X04386Y-41280D02*
X04457Y-41304D01*
X04481Y-41328D01*
X04505Y-41376D01*
X04505Y-41447D01*
X04481Y-41495D01*
X04457Y-41519D01*
X04410Y-41542D01*
X04219Y-41542D01*
X04219Y-41042D01*
X04386Y-41042D01*
X04433Y-41066D01*
X04457Y-41090D01*
X04481Y-41138D01*
X04481Y-41185D01*
X04457Y-41233D01*
X04433Y-41257D01*
X04386Y-41280D01*
X04219Y-41280D01*
X113000Y-53780D02*
X112300Y-53780D01*
X112686Y-41280D02*
X112757Y-41304D01*
X112781Y-41328D01*
X112805Y-41376D01*
X112805Y-41447D01*
X112781Y-41495D01*
X112757Y-41519D01*
X112710Y-41542D01*
X112519Y-41542D01*
X112519Y-41042D01*
X112686Y-41042D01*
X112733Y-41066D01*
X112757Y-41090D01*
X112781Y-41138D01*
X112781Y-41185D01*
X112757Y-41233D01*
X112733Y-41257D01*
X112686Y-41280D01*
X112519Y-41280D01*
X04505Y-66385D02*
X04481Y-66409D01*
X04410Y-66432D01*
X04362Y-66432D01*
X04290Y-66409D01*
X04243Y-66361D01*
X04219Y-66313D01*
X04195Y-66218D01*
X04195Y-66147D01*
X04219Y-66051D01*
X04243Y-66004D01*
X04290Y-65956D01*
X04362Y-65932D01*
X04410Y-65932D01*
X04481Y-65956D01*
X04505Y-65980D01*
X112805Y-66385D02*
X112781Y-66409D01*
X112710Y-66432D01*
X112662Y-66432D01*
X112590Y-66409D01*
X112543Y-66361D01*
X112519Y-66313D01*
X112495Y-66218D01*
X112495Y-66147D01*
X112519Y-66051D01*
X112543Y-66004D01*
X112590Y-65956D01*
X112662Y-65932D01*
X112710Y-65932D01*
X112781Y-65956D01*
X112805Y-65980D01*
G54D11*
X79443Y-76413D02*
X79443Y-75813D01*
X79586Y-75813D01*
X79671Y-75841D01*
X79729Y-75899D01*
X79757Y-75956D01*
X79786Y-76070D01*
X79786Y-76156D01*
X79757Y-76270D01*
X79729Y-76327D01*
X79671Y-76384D01*
X79586Y-76413D01*
X79443Y-76413D01*
X80300Y-76413D02*
X80300Y-76099D01*
X80271Y-76041D01*
X80214Y-76013D01*
X80100Y-76013D01*
X80043Y-76041D01*
X80300Y-76384D02*
X80243Y-76413D01*
X80100Y-76413D01*
X80043Y-76384D01*
X80014Y-76327D01*
X80014Y-76270D01*
X80043Y-76213D01*
X80100Y-76184D01*
X80243Y-76184D01*
X80300Y-76156D01*
X80500Y-76013D02*
X80729Y-76013D01*
X80586Y-75813D02*
X80586Y-76327D01*
X80614Y-76384D01*
X80672Y-76413D01*
X80729Y-76413D01*
X81157Y-76384D02*
X81100Y-76413D01*
X80986Y-76413D01*
X80929Y-76384D01*
X80900Y-76327D01*
X80900Y-76099D01*
X80929Y-76041D01*
X80986Y-76013D01*
X81100Y-76013D01*
X81157Y-76041D01*
X81186Y-76099D01*
X81186Y-76156D01*
X80900Y-76213D01*
X81443Y-76356D02*
X81471Y-76384D01*
X81443Y-76413D01*
X81414Y-76384D01*
X81443Y-76356D01*
X81443Y-76413D01*
X81443Y-76041D02*
X81471Y-76070D01*
X81443Y-76099D01*
X81414Y-76070D01*
X81443Y-76041D01*
X81443Y-76099D01*
X82500Y-76413D02*
X82157Y-76413D01*
X82329Y-76413D02*
X82329Y-75813D01*
X82272Y-75899D01*
X82214Y-75956D01*
X82157Y-75984D01*
X83071Y-76413D02*
X82728Y-76413D01*
X82900Y-76413D02*
X82900Y-75813D01*
X82843Y-75899D01*
X82785Y-75956D01*
X82728Y-75984D01*
X83785Y-76013D02*
X83785Y-76413D01*
X83785Y-76070D02*
X83813Y-76041D01*
X83871Y-76013D01*
X83956Y-76013D01*
X84013Y-76041D01*
X84042Y-76099D01*
X84042Y-76413D01*
X84414Y-76413D02*
X84356Y-76384D01*
X84328Y-76356D01*
X84299Y-76299D01*
X84299Y-76127D01*
X84328Y-76070D01*
X84356Y-76041D01*
X84414Y-76013D01*
X84499Y-76013D01*
X84556Y-76041D01*
X84585Y-76070D01*
X84614Y-76127D01*
X84614Y-76299D01*
X84585Y-76356D01*
X84556Y-76384D01*
X84499Y-76413D01*
X84414Y-76413D01*
X84814Y-76013D02*
X84957Y-76413D01*
X85099Y-76013D01*
X85756Y-75870D02*
X85785Y-75841D01*
X85842Y-75813D01*
X85985Y-75813D01*
X86042Y-75841D01*
X86071Y-75870D01*
X86099Y-75927D01*
X86099Y-75984D01*
X86071Y-76070D01*
X85728Y-76413D01*
X86099Y-76413D01*
X86470Y-75813D02*
X86527Y-75813D01*
X86584Y-75841D01*
X86613Y-75870D01*
X86642Y-75927D01*
X86670Y-76041D01*
X86670Y-76184D01*
X86642Y-76299D01*
X86613Y-76356D01*
X86584Y-76384D01*
X86527Y-76413D01*
X86470Y-76413D01*
X86413Y-76384D01*
X86384Y-76356D01*
X86356Y-76299D01*
X86327Y-76184D01*
X86327Y-76041D01*
X86356Y-75927D01*
X86384Y-75870D01*
X86413Y-75841D01*
X86470Y-75813D01*
X87241Y-76413D02*
X86898Y-76413D01*
X87070Y-76413D02*
X87070Y-75813D01*
X87013Y-75899D01*
X86955Y-75956D01*
X86898Y-75984D01*
X87469Y-75870D02*
X87498Y-75841D01*
X87555Y-75813D01*
X87698Y-75813D01*
X87755Y-75841D01*
X87784Y-75870D01*
X87812Y-75927D01*
X87812Y-75984D01*
X87784Y-76070D01*
X87441Y-76413D01*
X87812Y-76413D01*
G54D10*
X71043Y-77613D02*
X71043Y-77013D01*
X71386Y-77613D02*
X71129Y-77270D01*
X71386Y-77013D02*
X71043Y-77356D01*
X71643Y-77613D02*
X71643Y-77213D01*
X71643Y-77013D02*
X71614Y-77041D01*
X71643Y-77070D01*
X71671Y-77041D01*
X71643Y-77013D01*
X71643Y-77070D01*
X72272Y-77556D02*
X72243Y-77584D01*
X72157Y-77613D01*
X72100Y-77613D01*
X72015Y-77584D01*
X71957Y-77527D01*
X71929Y-77470D01*
X71900Y-77356D01*
X71900Y-77270D01*
X71929Y-77156D01*
X71957Y-77099D01*
X72015Y-77041D01*
X72100Y-77013D01*
X72157Y-77013D01*
X72243Y-77041D01*
X72272Y-77070D01*
X72786Y-77613D02*
X72786Y-77299D01*
X72757Y-77241D01*
X72700Y-77213D01*
X72586Y-77213D01*
X72529Y-77241D01*
X72786Y-77584D02*
X72729Y-77613D01*
X72586Y-77613D01*
X72529Y-77584D01*
X72500Y-77527D01*
X72500Y-77470D01*
X72529Y-77413D01*
X72586Y-77384D01*
X72729Y-77384D01*
X72786Y-77356D01*
X73329Y-77613D02*
X73329Y-77013D01*
X73329Y-77584D02*
X73272Y-77613D01*
X73158Y-77613D01*
X73100Y-77584D01*
X73072Y-77556D01*
X73043Y-77499D01*
X73043Y-77327D01*
X73072Y-77270D01*
X73100Y-77241D01*
X73158Y-77213D01*
X73272Y-77213D01*
X73329Y-77241D01*
X74072Y-77299D02*
X74272Y-77299D01*
X74358Y-77613D02*
X74072Y-77613D01*
X74072Y-77013D01*
X74358Y-77013D01*
X74615Y-77556D02*
X74643Y-77584D01*
X74615Y-77613D01*
X74586Y-77584D01*
X74615Y-77556D01*
X74615Y-77613D01*
X74901Y-77613D02*
X74901Y-77013D01*
X75044Y-77013D01*
X75129Y-77041D01*
X75187Y-77099D01*
X75215Y-77156D01*
X75244Y-77270D01*
X75244Y-77356D01*
X75215Y-77470D01*
X75187Y-77527D01*
X75129Y-77584D01*
X75044Y-77613D01*
X74901Y-77613D01*
X75501Y-77556D02*
X75529Y-77584D01*
X75501Y-77613D01*
X75472Y-77584D01*
X75501Y-77556D01*
X75501Y-77613D01*
X75758Y-77441D02*
X76044Y-77441D01*
X75701Y-77613D02*
X75901Y-77013D01*
X76101Y-77613D01*
X76301Y-77556D02*
X76329Y-77584D01*
X76301Y-77613D01*
X76272Y-77584D01*
X76301Y-77556D01*
X76301Y-77613D01*
G54D11*
X104586Y-76413D02*
X104386Y-76127D01*
X104243Y-76413D02*
X104243Y-75813D01*
X104471Y-75813D01*
X104529Y-75841D01*
X104557Y-75870D01*
X104586Y-75927D01*
X104586Y-76013D01*
X104557Y-76070D01*
X104529Y-76099D01*
X104471Y-76127D01*
X104243Y-76127D01*
X105071Y-76384D02*
X105014Y-76413D01*
X104900Y-76413D01*
X104843Y-76384D01*
X104814Y-76327D01*
X104814Y-76099D01*
X104843Y-76041D01*
X104900Y-76013D01*
X105014Y-76013D01*
X105071Y-76041D01*
X105100Y-76099D01*
X105100Y-76156D01*
X104814Y-76213D01*
X105300Y-76013D02*
X105443Y-76413D01*
X105585Y-76013D01*
X105814Y-76356D02*
X105842Y-76384D01*
X105814Y-76413D01*
X105785Y-76384D01*
X105814Y-76356D01*
X105814Y-76413D01*
X105814Y-76041D02*
X105842Y-76070D01*
X105814Y-76099D01*
X105785Y-76070D01*
X105814Y-76041D01*
X105814Y-76099D01*
X106671Y-75813D02*
X106728Y-75813D01*
X106785Y-75841D01*
X106814Y-75870D01*
X106843Y-75927D01*
X106871Y-76041D01*
X106871Y-76184D01*
X106843Y-76299D01*
X106814Y-76356D01*
X106785Y-76384D01*
X106728Y-76413D01*
X106671Y-76413D01*
X106614Y-76384D01*
X106585Y-76356D01*
X106557Y-76299D01*
X106528Y-76184D01*
X106528Y-76041D01*
X106557Y-75927D01*
X106585Y-75870D01*
X106614Y-75841D01*
X106671Y-75813D01*
X107442Y-76413D02*
X107099Y-76413D01*
X107271Y-76413D02*
X107271Y-75813D01*
X107214Y-75899D01*
X107156Y-75956D01*
X107099Y-75984D01*
G54D10*
X71014Y-76384D02*
X71100Y-76413D01*
X71243Y-76413D01*
X71300Y-76384D01*
X71329Y-76356D01*
X71357Y-76299D01*
X71357Y-76241D01*
X71329Y-76184D01*
X71300Y-76156D01*
X71243Y-76127D01*
X71129Y-76099D01*
X71071Y-76070D01*
X71043Y-76041D01*
X71014Y-75984D01*
X71014Y-75927D01*
X71043Y-75870D01*
X71071Y-75841D01*
X71129Y-75813D01*
X71271Y-75813D01*
X71357Y-75841D01*
X71614Y-76413D02*
X71614Y-76013D01*
X71614Y-75813D02*
X71585Y-75841D01*
X71614Y-75870D01*
X71642Y-75841D01*
X71614Y-75813D01*
X71614Y-75870D01*
X71843Y-76013D02*
X72157Y-76013D01*
X71843Y-76413D01*
X72157Y-76413D01*
X72614Y-76384D02*
X72557Y-76413D01*
X72443Y-76413D01*
X72386Y-76384D01*
X72357Y-76327D01*
X72357Y-76099D01*
X72386Y-76041D01*
X72443Y-76013D01*
X72557Y-76013D01*
X72614Y-76041D01*
X72643Y-76099D01*
X72643Y-76156D01*
X72357Y-76213D01*
X72900Y-76356D02*
X72928Y-76384D01*
X72900Y-76413D01*
X72871Y-76384D01*
X72900Y-76356D01*
X72900Y-76413D01*
X72900Y-76041D02*
X72928Y-76070D01*
X72900Y-76099D01*
X72871Y-76070D01*
X72900Y-76041D01*
X72900Y-76099D01*
X73614Y-76241D02*
X73900Y-76241D01*
X73557Y-76413D02*
X73757Y-75813D01*
X73957Y-76413D01*
X74414Y-76013D02*
X74414Y-76413D01*
X74271Y-75784D02*
X74128Y-76213D01*
X74500Y-76213D01*
X104243Y-77613D02*
X104243Y-77013D01*
X104786Y-77613D02*
X104786Y-77013D01*
X104786Y-77584D02*
X104729Y-77613D01*
X104615Y-77613D01*
X104557Y-77584D01*
X104529Y-77556D01*
X104500Y-77499D01*
X104500Y-77327D01*
X104529Y-77270D01*
X104557Y-77241D01*
X104615Y-77213D01*
X104729Y-77213D01*
X104786Y-77241D01*
X105072Y-77556D02*
X105100Y-77584D01*
X105072Y-77613D01*
X105043Y-77584D01*
X105072Y-77556D01*
X105072Y-77613D01*
X105072Y-77241D02*
X105100Y-77270D01*
X105072Y-77299D01*
X105043Y-77270D01*
X105072Y-77241D01*
X105072Y-77299D01*
X106129Y-77613D02*
X105786Y-77613D01*
X105958Y-77613D02*
X105958Y-77013D01*
X105901Y-77099D01*
X105843Y-77156D01*
X105786Y-77184D01*
X106814Y-76984D02*
X106300Y-77756D01*
X107329Y-77613D02*
X106986Y-77613D01*
X107158Y-77613D02*
X107158Y-77013D01*
X107101Y-77099D01*
X107043Y-77156D01*
X106986Y-77184D01*
G54D11*
X70957Y-74613D02*
X71300Y-74613D01*
X71129Y-75213D02*
X71129Y-74613D01*
X71500Y-75213D02*
X71500Y-74813D01*
X71500Y-74613D02*
X71471Y-74641D01*
X71500Y-74670D01*
X71528Y-74641D01*
X71500Y-74613D01*
X71500Y-74670D01*
X71700Y-74813D02*
X71929Y-74813D01*
X71786Y-74613D02*
X71786Y-75127D01*
X71814Y-75184D01*
X71872Y-75213D01*
X71929Y-75213D01*
X72215Y-75213D02*
X72157Y-75184D01*
X72129Y-75127D01*
X72129Y-74613D01*
X72671Y-75184D02*
X72614Y-75213D01*
X72500Y-75213D01*
X72443Y-75184D01*
X72414Y-75127D01*
X72414Y-74899D01*
X72443Y-74841D01*
X72500Y-74813D01*
X72614Y-74813D01*
X72671Y-74841D01*
X72700Y-74899D01*
X72700Y-74956D01*
X72414Y-75013D01*
X72957Y-75156D02*
X72985Y-75184D01*
X72957Y-75213D01*
X72928Y-75184D01*
X72957Y-75156D01*
X72957Y-75213D01*
X72957Y-74841D02*
X72985Y-74870D01*
X72957Y-74899D01*
X72928Y-74870D01*
X72957Y-74841D01*
X72957Y-74899D01*
X73900Y-74899D02*
X73986Y-74927D01*
X74014Y-74956D01*
X74043Y-75013D01*
X74043Y-75099D01*
X74014Y-75156D01*
X73986Y-75184D01*
X73928Y-75213D01*
X73700Y-75213D01*
X73700Y-74613D01*
X73900Y-74613D01*
X73957Y-74641D01*
X73986Y-74670D01*
X74014Y-74727D01*
X74014Y-74784D01*
X73986Y-74841D01*
X73957Y-74870D01*
X73900Y-74899D01*
X73700Y-74899D01*
X74528Y-75184D02*
X74471Y-75213D01*
X74357Y-75213D01*
X74300Y-75184D01*
X74271Y-75127D01*
X74271Y-74899D01*
X74300Y-74841D01*
X74357Y-74813D01*
X74471Y-74813D01*
X74528Y-74841D01*
X74557Y-74899D01*
X74557Y-74956D01*
X74271Y-75013D01*
X75071Y-75213D02*
X75071Y-74899D01*
X75042Y-74841D01*
X74985Y-74813D01*
X74871Y-74813D01*
X74814Y-74841D01*
X75071Y-75184D02*
X75014Y-75213D01*
X74871Y-75213D01*
X74814Y-75184D01*
X74785Y-75127D01*
X74785Y-75070D01*
X74814Y-75013D01*
X74871Y-74984D01*
X75014Y-74984D01*
X75071Y-74956D01*
X75614Y-74813D02*
X75614Y-75299D01*
X75585Y-75356D01*
X75557Y-75384D01*
X75500Y-75413D01*
X75414Y-75413D01*
X75357Y-75384D01*
X75614Y-75184D02*
X75557Y-75213D01*
X75443Y-75213D01*
X75385Y-75184D01*
X75357Y-75156D01*
X75328Y-75099D01*
X75328Y-74927D01*
X75357Y-74870D01*
X75385Y-74841D01*
X75443Y-74813D01*
X75557Y-74813D01*
X75614Y-74841D01*
X75986Y-75213D02*
X75928Y-75184D01*
X75900Y-75127D01*
X75900Y-74613D01*
X76442Y-75184D02*
X76385Y-75213D01*
X76271Y-75213D01*
X76214Y-75184D01*
X76185Y-75127D01*
X76185Y-74899D01*
X76214Y-74841D01*
X76271Y-74813D01*
X76385Y-74813D01*
X76442Y-74841D01*
X76471Y-74899D01*
X76471Y-74956D01*
X76185Y-75013D01*
X76728Y-75213D02*
X76728Y-74613D01*
X76728Y-74841D02*
X76785Y-74813D01*
X76899Y-74813D01*
X76956Y-74841D01*
X76985Y-74870D01*
X77014Y-74927D01*
X77014Y-75099D01*
X76985Y-75156D01*
X76956Y-75184D01*
X76899Y-75213D01*
X76785Y-75213D01*
X76728Y-75184D01*
X77357Y-75213D02*
X77299Y-75184D01*
X77271Y-75156D01*
X77242Y-75099D01*
X77242Y-74927D01*
X77271Y-74870D01*
X77299Y-74841D01*
X77357Y-74813D01*
X77442Y-74813D01*
X77499Y-74841D01*
X77528Y-74870D01*
X77557Y-74927D01*
X77557Y-75099D01*
X77528Y-75156D01*
X77499Y-75184D01*
X77442Y-75213D01*
X77357Y-75213D01*
X77814Y-74813D02*
X77814Y-75213D01*
X77814Y-74870D02*
X77842Y-74841D01*
X77900Y-74813D01*
X77985Y-74813D01*
X78042Y-74841D01*
X78071Y-74899D01*
X78071Y-75213D01*
X78585Y-75184D02*
X78528Y-75213D01*
X78414Y-75213D01*
X78357Y-75184D01*
X78328Y-75127D01*
X78328Y-74899D01*
X78357Y-74841D01*
X78414Y-74813D01*
X78528Y-74813D01*
X78585Y-74841D01*
X78614Y-74899D01*
X78614Y-74956D01*
X78328Y-75013D01*
X78871Y-74984D02*
X79328Y-74984D01*
X79585Y-75184D02*
X79671Y-75213D01*
X79814Y-75213D01*
X79871Y-75184D01*
X79900Y-75156D01*
X79928Y-75099D01*
X79928Y-75041D01*
X79900Y-74984D01*
X79871Y-74956D01*
X79814Y-74927D01*
X79700Y-74899D01*
X79642Y-74870D01*
X79614Y-74841D01*
X79585Y-74784D01*
X79585Y-74727D01*
X79614Y-74670D01*
X79642Y-74641D01*
X79700Y-74613D01*
X79842Y-74613D01*
X79928Y-74641D01*
X80185Y-74813D02*
X80185Y-75413D01*
X80185Y-74841D02*
X80242Y-74813D01*
X80356Y-74813D01*
X80413Y-74841D01*
X80442Y-74870D01*
X80471Y-74927D01*
X80471Y-75099D01*
X80442Y-75156D01*
X80413Y-75184D01*
X80356Y-75213D01*
X80242Y-75213D01*
X80185Y-75184D01*
X80985Y-75213D02*
X80985Y-74899D01*
X80956Y-74841D01*
X80899Y-74813D01*
X80785Y-74813D01*
X80728Y-74841D01*
X80985Y-75184D02*
X80928Y-75213D01*
X80785Y-75213D01*
X80728Y-75184D01*
X80699Y-75127D01*
X80699Y-75070D01*
X80728Y-75013D01*
X80785Y-74984D01*
X80928Y-74984D01*
X80985Y-74956D01*
X81271Y-75213D02*
X81271Y-74813D01*
X81271Y-74927D02*
X81299Y-74870D01*
X81328Y-74841D01*
X81385Y-74813D01*
X81442Y-74813D01*
X81556Y-74813D02*
X81785Y-74813D01*
X81642Y-74613D02*
X81642Y-75127D01*
X81670Y-75184D01*
X81728Y-75213D01*
X81785Y-75213D01*
X82242Y-75213D02*
X82242Y-74899D01*
X82213Y-74841D01*
X82156Y-74813D01*
X82042Y-74813D01*
X81985Y-74841D01*
X82242Y-75184D02*
X82185Y-75213D01*
X82042Y-75213D01*
X81985Y-75184D01*
X81956Y-75127D01*
X81956Y-75070D01*
X81985Y-75013D01*
X82042Y-74984D01*
X82185Y-74984D01*
X82242Y-74956D01*
X82528Y-74813D02*
X82528Y-75213D01*
X82528Y-74870D02*
X82556Y-74841D01*
X82614Y-74813D01*
X82699Y-74813D01*
X82756Y-74841D01*
X82785Y-74899D01*
X82785Y-75213D01*
X83328Y-74613D02*
X83214Y-74613D01*
X83157Y-74641D01*
X83128Y-74670D01*
X83071Y-74756D01*
X83042Y-74870D01*
X83042Y-75099D01*
X83071Y-75156D01*
X83099Y-75184D01*
X83157Y-75213D01*
X83271Y-75213D01*
X83328Y-75184D01*
X83357Y-75156D01*
X83385Y-75099D01*
X83385Y-74956D01*
X83357Y-74899D01*
X83328Y-74870D01*
X83271Y-74841D01*
X83157Y-74841D01*
X83099Y-74870D01*
X83071Y-74899D01*
X83042Y-74956D01*
X83642Y-74984D02*
X84099Y-74984D01*
X84728Y-75156D02*
X84699Y-75184D01*
X84613Y-75213D01*
X84556Y-75213D01*
X84471Y-75184D01*
X84413Y-75127D01*
X84385Y-75070D01*
X84356Y-74956D01*
X84356Y-74870D01*
X84385Y-74756D01*
X84413Y-74699D01*
X84471Y-74641D01*
X84556Y-74613D01*
X84613Y-74613D01*
X84699Y-74641D01*
X84728Y-74670D01*
X85242Y-75213D02*
X85242Y-74899D01*
X85213Y-74841D01*
X85156Y-74813D01*
X85042Y-74813D01*
X84985Y-74841D01*
X85242Y-75184D02*
X85185Y-75213D01*
X85042Y-75213D01*
X84985Y-75184D01*
X84956Y-75127D01*
X84956Y-75070D01*
X84985Y-75013D01*
X85042Y-74984D01*
X85185Y-74984D01*
X85242Y-74956D01*
X85528Y-74813D02*
X85528Y-75413D01*
X85528Y-74841D02*
X85585Y-74813D01*
X85699Y-74813D01*
X85756Y-74841D01*
X85785Y-74870D01*
X85814Y-74927D01*
X85814Y-75099D01*
X85785Y-75156D01*
X85756Y-75184D01*
X85699Y-75213D01*
X85585Y-75213D01*
X85528Y-75184D01*
X86299Y-75184D02*
X86242Y-75213D01*
X86128Y-75213D01*
X86071Y-75184D01*
X86042Y-75127D01*
X86042Y-74899D01*
X86071Y-74841D01*
X86128Y-74813D01*
X86242Y-74813D01*
X86299Y-74841D01*
X86328Y-74899D01*
X86328Y-74956D01*
X86042Y-75013D01*
G54D10*
X71243Y-72499D02*
X71043Y-72499D01*
X71043Y-72813D02*
X71043Y-72213D01*
X71329Y-72213D01*
X71557Y-72813D02*
X71557Y-72413D01*
X71557Y-72213D02*
X71528Y-72241D01*
X71557Y-72270D01*
X71585Y-72241D01*
X71557Y-72213D01*
X71557Y-72270D01*
X71929Y-72813D02*
X71871Y-72784D01*
X71843Y-72727D01*
X71843Y-72213D01*
X72385Y-72784D02*
X72328Y-72813D01*
X72214Y-72813D01*
X72157Y-72784D01*
X72128Y-72727D01*
X72128Y-72499D01*
X72157Y-72441D01*
X72214Y-72413D01*
X72328Y-72413D01*
X72385Y-72441D01*
X72414Y-72499D01*
X72414Y-72556D01*
X72128Y-72613D01*
X72671Y-72756D02*
X72699Y-72784D01*
X72671Y-72813D01*
X72642Y-72784D01*
X72671Y-72756D01*
X72671Y-72813D01*
X72671Y-72441D02*
X72699Y-72470D01*
X72671Y-72499D01*
X72642Y-72470D01*
X72671Y-72441D01*
X72671Y-72499D01*
X73414Y-72813D02*
X73414Y-72213D01*
X73414Y-72441D02*
X73471Y-72413D01*
X73585Y-72413D01*
X73642Y-72441D01*
X73671Y-72470D01*
X73700Y-72527D01*
X73700Y-72699D01*
X73671Y-72756D01*
X73642Y-72784D01*
X73585Y-72813D01*
X73471Y-72813D01*
X73414Y-72784D01*
X74043Y-72813D02*
X73985Y-72784D01*
X73957Y-72756D01*
X73928Y-72699D01*
X73928Y-72527D01*
X73957Y-72470D01*
X73985Y-72441D01*
X74043Y-72413D01*
X74128Y-72413D01*
X74185Y-72441D01*
X74214Y-72470D01*
X74243Y-72527D01*
X74243Y-72699D01*
X74214Y-72756D01*
X74185Y-72784D01*
X74128Y-72813D01*
X74043Y-72813D01*
X74500Y-72413D02*
X74500Y-72813D01*
X74500Y-72470D02*
X74528Y-72441D01*
X74586Y-72413D01*
X74671Y-72413D01*
X74728Y-72441D01*
X74757Y-72499D01*
X74757Y-72813D01*
X75271Y-72784D02*
X75214Y-72813D01*
X75100Y-72813D01*
X75043Y-72784D01*
X75014Y-72727D01*
X75014Y-72499D01*
X75043Y-72441D01*
X75100Y-72413D01*
X75214Y-72413D01*
X75271Y-72441D01*
X75300Y-72499D01*
X75300Y-72556D01*
X75014Y-72613D01*
X75471Y-72413D02*
X75700Y-72413D01*
X75557Y-72813D02*
X75557Y-72299D01*
X75585Y-72241D01*
X75643Y-72213D01*
X75700Y-72213D01*
X75900Y-72413D02*
X75900Y-73013D01*
X75900Y-72441D02*
X75957Y-72413D01*
X76071Y-72413D01*
X76128Y-72441D01*
X76157Y-72470D01*
X76186Y-72527D01*
X76186Y-72699D01*
X76157Y-72756D01*
X76128Y-72784D01*
X76071Y-72813D01*
X75957Y-72813D01*
X75900Y-72784D01*
X76700Y-72413D02*
X76700Y-72899D01*
X76671Y-72956D01*
X76643Y-72984D01*
X76586Y-73013D01*
X76500Y-73013D01*
X76443Y-72984D01*
X76700Y-72784D02*
X76643Y-72813D01*
X76529Y-72813D01*
X76471Y-72784D01*
X76443Y-72756D01*
X76414Y-72699D01*
X76414Y-72527D01*
X76443Y-72470D01*
X76471Y-72441D01*
X76529Y-72413D01*
X76643Y-72413D01*
X76700Y-72441D01*
X77243Y-72813D02*
X77243Y-72499D01*
X77214Y-72441D01*
X77157Y-72413D01*
X77043Y-72413D01*
X76986Y-72441D01*
X77243Y-72784D02*
X77186Y-72813D01*
X77043Y-72813D01*
X76986Y-72784D01*
X76957Y-72727D01*
X76957Y-72670D01*
X76986Y-72613D01*
X77043Y-72584D01*
X77186Y-72584D01*
X77243Y-72556D01*
X77529Y-72756D02*
X77557Y-72784D01*
X77529Y-72813D01*
X77500Y-72784D01*
X77529Y-72756D01*
X77529Y-72813D01*
X77815Y-72813D02*
X77815Y-72213D01*
X77815Y-72441D02*
X77872Y-72413D01*
X77986Y-72413D01*
X78043Y-72441D01*
X78072Y-72470D01*
X78101Y-72527D01*
X78101Y-72699D01*
X78072Y-72756D01*
X78043Y-72784D01*
X77986Y-72813D01*
X77872Y-72813D01*
X77815Y-72784D01*
X78358Y-72813D02*
X78358Y-72413D01*
X78358Y-72527D02*
X78386Y-72470D01*
X78415Y-72441D01*
X78472Y-72413D01*
X78529Y-72413D01*
X78986Y-72813D02*
X78986Y-72213D01*
X78986Y-72784D02*
X78929Y-72813D01*
X78815Y-72813D01*
X78757Y-72784D01*
X78729Y-72756D01*
X78700Y-72699D01*
X78700Y-72527D01*
X78729Y-72470D01*
X78757Y-72441D01*
X78815Y-72413D01*
X78929Y-72413D01*
X78986Y-72441D01*
X71014Y-73984D02*
X71100Y-74013D01*
X71243Y-74013D01*
X71300Y-73984D01*
X71329Y-73956D01*
X71357Y-73899D01*
X71357Y-73841D01*
X71329Y-73784D01*
X71300Y-73756D01*
X71243Y-73727D01*
X71129Y-73699D01*
X71071Y-73670D01*
X71043Y-73641D01*
X71014Y-73584D01*
X71014Y-73527D01*
X71043Y-73470D01*
X71071Y-73441D01*
X71129Y-73413D01*
X71271Y-73413D01*
X71357Y-73441D01*
X71614Y-74013D02*
X71614Y-73413D01*
X71871Y-74013D02*
X71871Y-73699D01*
X71842Y-73641D01*
X71785Y-73613D01*
X71700Y-73613D01*
X71642Y-73641D01*
X71614Y-73670D01*
X72385Y-73984D02*
X72328Y-74013D01*
X72214Y-74013D01*
X72157Y-73984D01*
X72128Y-73927D01*
X72128Y-73699D01*
X72157Y-73641D01*
X72214Y-73613D01*
X72328Y-73613D01*
X72385Y-73641D01*
X72414Y-73699D01*
X72414Y-73756D01*
X72128Y-73813D01*
X72899Y-73984D02*
X72842Y-74013D01*
X72728Y-74013D01*
X72671Y-73984D01*
X72642Y-73927D01*
X72642Y-73699D01*
X72671Y-73641D01*
X72728Y-73613D01*
X72842Y-73613D01*
X72899Y-73641D01*
X72928Y-73699D01*
X72928Y-73756D01*
X72642Y-73813D01*
X73099Y-73613D02*
X73328Y-73613D01*
X73185Y-73413D02*
X73185Y-73927D01*
X73213Y-73984D01*
X73271Y-74013D01*
X73328Y-74013D01*
X73528Y-73956D02*
X73556Y-73984D01*
X73528Y-74013D01*
X73499Y-73984D01*
X73528Y-73956D01*
X73528Y-74013D01*
X73528Y-73641D02*
X73556Y-73670D01*
X73528Y-73699D01*
X73499Y-73670D01*
X73528Y-73641D01*
X73528Y-73699D01*
X74585Y-74013D02*
X74242Y-74013D01*
X74414Y-74013D02*
X74414Y-73413D01*
X74357Y-73499D01*
X74299Y-73556D01*
X74242Y-73584D01*
X75270Y-73384D02*
X74756Y-74156D01*
X75785Y-74013D02*
X75442Y-74013D01*
X75614Y-74013D02*
X75614Y-73413D01*
X75557Y-73499D01*
X75499Y-73556D01*
X75442Y-73584D01*
X71043Y-70413D02*
X71043Y-69813D01*
X71243Y-70241D01*
X71443Y-69813D01*
X71443Y-70413D01*
X71729Y-70413D02*
X71729Y-70013D01*
X71729Y-69813D02*
X71700Y-69841D01*
X71729Y-69870D01*
X71757Y-69841D01*
X71729Y-69813D01*
X71729Y-69870D01*
X72272Y-70384D02*
X72215Y-70413D01*
X72101Y-70413D01*
X72043Y-70384D01*
X72015Y-70356D01*
X71986Y-70299D01*
X71986Y-70127D01*
X72015Y-70070D01*
X72043Y-70041D01*
X72101Y-70013D01*
X72215Y-70013D01*
X72272Y-70041D01*
X72529Y-70413D02*
X72529Y-69813D01*
X72786Y-70413D02*
X72786Y-70099D01*
X72757Y-70041D01*
X72700Y-70013D01*
X72615Y-70013D01*
X72557Y-70041D01*
X72529Y-70070D01*
X73329Y-70413D02*
X73329Y-70099D01*
X73300Y-70041D01*
X73243Y-70013D01*
X73129Y-70013D01*
X73072Y-70041D01*
X73329Y-70384D02*
X73272Y-70413D01*
X73129Y-70413D01*
X73072Y-70384D01*
X73043Y-70327D01*
X73043Y-70270D01*
X73072Y-70213D01*
X73129Y-70184D01*
X73272Y-70184D01*
X73329Y-70156D01*
X73843Y-70384D02*
X73786Y-70413D01*
X73672Y-70413D01*
X73615Y-70384D01*
X73586Y-70327D01*
X73586Y-70099D01*
X73615Y-70041D01*
X73672Y-70013D01*
X73786Y-70013D01*
X73843Y-70041D01*
X73872Y-70099D01*
X73872Y-70156D01*
X73586Y-70213D01*
X74215Y-70413D02*
X74157Y-70384D01*
X74129Y-70327D01*
X74129Y-69813D01*
X74900Y-70413D02*
X74900Y-69813D01*
X75100Y-70241D01*
X75300Y-69813D01*
X75300Y-70413D01*
X75843Y-70413D02*
X75843Y-70099D01*
X75814Y-70041D01*
X75757Y-70013D01*
X75643Y-70013D01*
X75586Y-70041D01*
X75843Y-70384D02*
X75786Y-70413D01*
X75643Y-70413D01*
X75586Y-70384D01*
X75557Y-70327D01*
X75557Y-70270D01*
X75586Y-70213D01*
X75643Y-70184D01*
X75786Y-70184D01*
X75843Y-70156D01*
X76386Y-70013D02*
X76386Y-70499D01*
X76357Y-70556D01*
X76329Y-70584D01*
X76272Y-70613D01*
X76186Y-70613D01*
X76129Y-70584D01*
X76386Y-70384D02*
X76329Y-70413D01*
X76215Y-70413D01*
X76157Y-70384D01*
X76129Y-70356D01*
X76100Y-70299D01*
X76100Y-70127D01*
X76129Y-70070D01*
X76157Y-70041D01*
X76215Y-70013D01*
X76329Y-70013D01*
X76386Y-70041D01*
X76615Y-70013D02*
X76758Y-70413D01*
X76900Y-70013D02*
X76758Y-70413D01*
X76700Y-70556D01*
X76672Y-70584D01*
X76615Y-70613D01*
X77386Y-70413D02*
X77386Y-70099D01*
X77357Y-70041D01*
X77300Y-70013D01*
X77186Y-70013D01*
X77129Y-70041D01*
X77386Y-70384D02*
X77329Y-70413D01*
X77186Y-70413D01*
X77129Y-70384D01*
X77100Y-70327D01*
X77100Y-70270D01*
X77129Y-70213D01*
X77186Y-70184D01*
X77329Y-70184D01*
X77386Y-70156D01*
X77672Y-70413D02*
X77672Y-70013D01*
X77672Y-70127D02*
X77700Y-70070D01*
X77729Y-70041D01*
X77786Y-70013D01*
X77843Y-70013D01*
X70300Y-69570D02*
X70300Y-77970D01*
X70300Y-71970D02*
X112300Y-71970D01*
X70300Y-69570D02*
X112300Y-69570D01*
X70300Y-74370D02*
X112300Y-74370D01*
X103500Y-75570D02*
X103500Y-77970D01*
X70300Y-76770D02*
X112300Y-76770D01*
X70300Y-75570D02*
X112300Y-75570D01*
X76900Y-75570D02*
X76900Y-76770D01*
G54D12*
X47754Y-42431D02*
X47754Y-42037D01*
X47824Y-42037D01*
X47867Y-42056D01*
X47895Y-42094D01*
X47909Y-42131D01*
X47923Y-42206D01*
X47923Y-42263D01*
X47909Y-42338D01*
X47895Y-42375D01*
X47867Y-42413D01*
X47824Y-42431D01*
X47754Y-42431D01*
X48162Y-42413D02*
X48134Y-42431D01*
X48077Y-42431D01*
X48049Y-42413D01*
X48035Y-42375D01*
X48035Y-42225D01*
X48049Y-42188D01*
X48077Y-42169D01*
X48134Y-42169D01*
X48162Y-42188D01*
X48176Y-42225D01*
X48176Y-42263D01*
X48035Y-42300D01*
X48288Y-42413D02*
X48316Y-42431D01*
X48372Y-42431D01*
X48401Y-42413D01*
X48415Y-42375D01*
X48415Y-42356D01*
X48401Y-42319D01*
X48372Y-42300D01*
X48330Y-42300D01*
X48302Y-42281D01*
X48288Y-42244D01*
X48288Y-42225D01*
X48302Y-42188D01*
X48330Y-42169D01*
X48372Y-42169D01*
X48401Y-42188D01*
X48541Y-42431D02*
X48541Y-42169D01*
X48541Y-42037D02*
X48527Y-42056D01*
X48541Y-42075D01*
X48555Y-42056D01*
X48541Y-42037D01*
X48541Y-42075D01*
X48808Y-42169D02*
X48808Y-42488D01*
X48794Y-42525D01*
X48780Y-42544D01*
X48751Y-42563D01*
X48709Y-42563D01*
X48681Y-42544D01*
X48808Y-42413D02*
X48780Y-42431D01*
X48723Y-42431D01*
X48695Y-42413D01*
X48681Y-42394D01*
X48667Y-42356D01*
X48667Y-42244D01*
X48681Y-42206D01*
X48695Y-42188D01*
X48723Y-42169D01*
X48780Y-42169D01*
X48808Y-42188D01*
X48948Y-42169D02*
X48948Y-42431D01*
X48948Y-42206D02*
X48962Y-42188D01*
X48990Y-42169D01*
X49033Y-42169D01*
X49061Y-42188D01*
X49075Y-42225D01*
X49075Y-42431D01*
X49328Y-42413D02*
X49300Y-42431D01*
X49243Y-42431D01*
X49215Y-42413D01*
X49201Y-42375D01*
X49201Y-42225D01*
X49215Y-42188D01*
X49243Y-42169D01*
X49300Y-42169D01*
X49328Y-42188D01*
X49342Y-42225D01*
X49342Y-42263D01*
X49201Y-42300D01*
X49595Y-42431D02*
X49595Y-42037D01*
X49595Y-42413D02*
X49567Y-42431D01*
X49510Y-42431D01*
X49482Y-42413D01*
X49468Y-42394D01*
X49454Y-42356D01*
X49454Y-42244D01*
X49468Y-42206D01*
X49482Y-42188D01*
X49510Y-42169D01*
X49567Y-42169D01*
X49595Y-42188D01*
X49960Y-42431D02*
X49960Y-42037D01*
X49960Y-42188D02*
X49988Y-42169D01*
X50045Y-42169D01*
X50073Y-42188D01*
X50087Y-42206D01*
X50101Y-42244D01*
X50101Y-42356D01*
X50087Y-42394D01*
X50073Y-42413D01*
X50045Y-42431D01*
X49988Y-42431D01*
X49960Y-42413D01*
X50199Y-42169D02*
X50269Y-42431D01*
X50340Y-42169D02*
X50269Y-42431D01*
X50241Y-42525D01*
X50227Y-42544D01*
X50199Y-42563D01*
X50452Y-42394D02*
X50466Y-42413D01*
X50452Y-42431D01*
X50438Y-42413D01*
X50452Y-42394D01*
X50452Y-42431D01*
X50452Y-42188D02*
X50466Y-42206D01*
X50452Y-42225D01*
X50438Y-42206D01*
X50452Y-42188D01*
X50452Y-42225D01*
X50817Y-42431D02*
X50817Y-42037D01*
X50916Y-42319D01*
X51014Y-42037D01*
X51014Y-42431D01*
X51154Y-42431D02*
X51154Y-42169D01*
X51154Y-42037D02*
X51140Y-42056D01*
X51154Y-42075D01*
X51168Y-42056D01*
X51154Y-42037D01*
X51154Y-42075D01*
X51421Y-42413D02*
X51393Y-42431D01*
X51336Y-42431D01*
X51308Y-42413D01*
X51294Y-42394D01*
X51280Y-42356D01*
X51280Y-42244D01*
X51294Y-42206D01*
X51308Y-42188D01*
X51336Y-42169D01*
X51393Y-42169D01*
X51421Y-42188D01*
X51547Y-42431D02*
X51547Y-42037D01*
X51674Y-42431D02*
X51674Y-42225D01*
X51660Y-42188D01*
X51632Y-42169D01*
X51589Y-42169D01*
X51561Y-42188D01*
X51547Y-42206D01*
X51941Y-42431D02*
X51941Y-42225D01*
X51927Y-42188D01*
X51899Y-42169D01*
X51842Y-42169D01*
X51814Y-42188D01*
X51941Y-42413D02*
X51913Y-42431D01*
X51842Y-42431D01*
X51814Y-42413D01*
X51800Y-42375D01*
X51800Y-42338D01*
X51814Y-42300D01*
X51842Y-42281D01*
X51913Y-42281D01*
X51941Y-42263D01*
X52194Y-42413D02*
X52166Y-42431D01*
X52109Y-42431D01*
X52081Y-42413D01*
X52067Y-42375D01*
X52067Y-42225D01*
X52081Y-42188D01*
X52109Y-42169D01*
X52166Y-42169D01*
X52194Y-42188D01*
X52208Y-42225D01*
X52208Y-42263D01*
X52067Y-42300D01*
X52376Y-42431D02*
X52348Y-42413D01*
X52334Y-42375D01*
X52334Y-42037D01*
X52714Y-42431D02*
X52714Y-42037D01*
X52813Y-42319D01*
X52911Y-42037D01*
X52911Y-42431D01*
X53178Y-42431D02*
X53178Y-42225D01*
X53164Y-42188D01*
X53136Y-42169D01*
X53079Y-42169D01*
X53051Y-42188D01*
X53178Y-42413D02*
X53150Y-42431D01*
X53079Y-42431D01*
X53051Y-42413D01*
X53037Y-42375D01*
X53037Y-42338D01*
X53051Y-42300D01*
X53079Y-42281D01*
X53150Y-42281D01*
X53178Y-42263D01*
X53445Y-42169D02*
X53445Y-42488D01*
X53431Y-42525D01*
X53417Y-42544D01*
X53388Y-42563D01*
X53346Y-42563D01*
X53318Y-42544D01*
X53445Y-42413D02*
X53417Y-42431D01*
X53360Y-42431D01*
X53332Y-42413D01*
X53318Y-42394D01*
X53304Y-42356D01*
X53304Y-42244D01*
X53318Y-42206D01*
X53332Y-42188D01*
X53360Y-42169D01*
X53417Y-42169D01*
X53445Y-42188D01*
X53557Y-42169D02*
X53627Y-42431D01*
X53698Y-42169D02*
X53627Y-42431D01*
X53599Y-42525D01*
X53585Y-42544D01*
X53557Y-42563D01*
X53937Y-42431D02*
X53937Y-42225D01*
X53923Y-42188D01*
X53895Y-42169D01*
X53838Y-42169D01*
X53810Y-42188D01*
X53937Y-42413D02*
X53909Y-42431D01*
X53838Y-42431D01*
X53810Y-42413D01*
X53796Y-42375D01*
X53796Y-42338D01*
X53810Y-42300D01*
X53838Y-42281D01*
X53909Y-42281D01*
X53937Y-42263D01*
X54077Y-42431D02*
X54077Y-42169D01*
X54077Y-42244D02*
X54091Y-42206D01*
X54105Y-42188D01*
X54133Y-42169D01*
X54162Y-42169D01*
X46955Y-42850D02*
X47054Y-42850D01*
X47096Y-43056D02*
X46955Y-43056D01*
X46955Y-42662D01*
X47096Y-42662D01*
X47222Y-43056D02*
X47222Y-42794D01*
X47222Y-42831D02*
X47236Y-42813D01*
X47264Y-42794D01*
X47307Y-42794D01*
X47335Y-42813D01*
X47349Y-42850D01*
X47349Y-43056D01*
X47349Y-42850D02*
X47363Y-42813D01*
X47391Y-42794D01*
X47433Y-42794D01*
X47461Y-42813D01*
X47475Y-42850D01*
X47475Y-43056D01*
X47742Y-43056D02*
X47742Y-42850D01*
X47728Y-42813D01*
X47700Y-42794D01*
X47643Y-42794D01*
X47615Y-42813D01*
X47742Y-43038D02*
X47714Y-43056D01*
X47643Y-43056D01*
X47615Y-43038D01*
X47601Y-43000D01*
X47601Y-42963D01*
X47615Y-42925D01*
X47643Y-42906D01*
X47714Y-42906D01*
X47742Y-42888D01*
X47882Y-43056D02*
X47882Y-42794D01*
X47882Y-42662D02*
X47868Y-42681D01*
X47882Y-42700D01*
X47896Y-42681D01*
X47882Y-42662D01*
X47882Y-42700D01*
X48064Y-43056D02*
X48036Y-43038D01*
X48022Y-43000D01*
X48022Y-42662D01*
X48177Y-43019D02*
X48191Y-43038D01*
X48177Y-43056D01*
X48163Y-43038D01*
X48177Y-43019D01*
X48177Y-43056D01*
X48177Y-42813D02*
X48191Y-42831D01*
X48177Y-42850D01*
X48163Y-42831D01*
X48177Y-42813D01*
X48177Y-42850D01*
X48542Y-43056D02*
X48542Y-42794D01*
X48542Y-42831D02*
X48556Y-42813D01*
X48584Y-42794D01*
X48627Y-42794D01*
X48655Y-42813D01*
X48669Y-42850D01*
X48669Y-43056D01*
X48669Y-42850D02*
X48683Y-42813D01*
X48711Y-42794D01*
X48753Y-42794D01*
X48781Y-42813D01*
X48795Y-42850D01*
X48795Y-43056D01*
X48935Y-43056D02*
X48935Y-42794D01*
X48935Y-42662D02*
X48921Y-42681D01*
X48935Y-42700D01*
X48949Y-42681D01*
X48935Y-42662D01*
X48935Y-42700D01*
X49202Y-43038D02*
X49174Y-43056D01*
X49117Y-43056D01*
X49089Y-43038D01*
X49075Y-43019D01*
X49061Y-42981D01*
X49061Y-42869D01*
X49075Y-42831D01*
X49089Y-42813D01*
X49117Y-42794D01*
X49174Y-42794D01*
X49202Y-42813D01*
X49328Y-43056D02*
X49328Y-42662D01*
X49455Y-43056D02*
X49455Y-42850D01*
X49441Y-42813D01*
X49413Y-42794D01*
X49370Y-42794D01*
X49342Y-42813D01*
X49328Y-42831D01*
X49722Y-43056D02*
X49722Y-42850D01*
X49708Y-42813D01*
X49680Y-42794D01*
X49623Y-42794D01*
X49595Y-42813D01*
X49722Y-43038D02*
X49694Y-43056D01*
X49623Y-43056D01*
X49595Y-43038D01*
X49581Y-43000D01*
X49581Y-42963D01*
X49595Y-42925D01*
X49623Y-42906D01*
X49694Y-42906D01*
X49722Y-42888D01*
X49975Y-43038D02*
X49947Y-43056D01*
X49890Y-43056D01*
X49862Y-43038D01*
X49848Y-43000D01*
X49848Y-42850D01*
X49862Y-42813D01*
X49890Y-42794D01*
X49947Y-42794D01*
X49975Y-42813D01*
X49989Y-42850D01*
X49989Y-42888D01*
X49848Y-42925D01*
X50157Y-43056D02*
X50129Y-43038D01*
X50115Y-43000D01*
X50115Y-42662D01*
X50270Y-43019D02*
X50284Y-43038D01*
X50270Y-43056D01*
X50256Y-43038D01*
X50270Y-43019D01*
X50270Y-43056D01*
X50410Y-43056D02*
X50410Y-42794D01*
X50410Y-42831D02*
X50424Y-42813D01*
X50452Y-42794D01*
X50495Y-42794D01*
X50523Y-42813D01*
X50537Y-42850D01*
X50537Y-43056D01*
X50537Y-42850D02*
X50551Y-42813D01*
X50579Y-42794D01*
X50621Y-42794D01*
X50649Y-42813D01*
X50663Y-42850D01*
X50663Y-43056D01*
X50930Y-43056D02*
X50930Y-42850D01*
X50916Y-42813D01*
X50888Y-42794D01*
X50831Y-42794D01*
X50803Y-42813D01*
X50930Y-43038D02*
X50902Y-43056D01*
X50831Y-43056D01*
X50803Y-43038D01*
X50789Y-43000D01*
X50789Y-42963D01*
X50803Y-42925D01*
X50831Y-42906D01*
X50902Y-42906D01*
X50930Y-42888D01*
X51197Y-42794D02*
X51197Y-43113D01*
X51183Y-43150D01*
X51169Y-43169D01*
X51140Y-43188D01*
X51098Y-43188D01*
X51070Y-43169D01*
X51197Y-43038D02*
X51169Y-43056D01*
X51112Y-43056D01*
X51084Y-43038D01*
X51070Y-43019D01*
X51056Y-42981D01*
X51056Y-42869D01*
X51070Y-42831D01*
X51084Y-42813D01*
X51112Y-42794D01*
X51169Y-42794D01*
X51197Y-42813D01*
X51309Y-42794D02*
X51379Y-43056D01*
X51450Y-42794D02*
X51379Y-43056D01*
X51351Y-43150D01*
X51337Y-43169D01*
X51309Y-43188D01*
X51689Y-43056D02*
X51689Y-42850D01*
X51675Y-42813D01*
X51647Y-42794D01*
X51590Y-42794D01*
X51562Y-42813D01*
X51689Y-43038D02*
X51661Y-43056D01*
X51590Y-43056D01*
X51562Y-43038D01*
X51548Y-43000D01*
X51548Y-42963D01*
X51562Y-42925D01*
X51590Y-42906D01*
X51661Y-42906D01*
X51689Y-42888D01*
X51829Y-43056D02*
X51829Y-42794D01*
X51829Y-42869D02*
X51843Y-42831D01*
X51857Y-42813D01*
X51885Y-42794D01*
X51914Y-42794D01*
X52012Y-43056D02*
X52012Y-42794D01*
X52012Y-42831D02*
X52026Y-42813D01*
X52054Y-42794D01*
X52097Y-42794D01*
X52125Y-42813D01*
X52139Y-42850D01*
X52139Y-43056D01*
X52139Y-42850D02*
X52153Y-42813D01*
X52181Y-42794D01*
X52223Y-42794D01*
X52251Y-42813D01*
X52265Y-42850D01*
X52265Y-43056D01*
X52588Y-42869D02*
X52574Y-42850D01*
X52546Y-42831D01*
X52518Y-42831D01*
X52490Y-42850D01*
X52475Y-42869D01*
X52461Y-42906D01*
X52461Y-42944D01*
X52475Y-42981D01*
X52490Y-43000D01*
X52518Y-43019D01*
X52546Y-43019D01*
X52574Y-43000D01*
X52588Y-42981D01*
X52588Y-42831D02*
X52588Y-42981D01*
X52602Y-43000D01*
X52616Y-43000D01*
X52644Y-42981D01*
X52658Y-42944D01*
X52658Y-42850D01*
X52630Y-42794D01*
X52588Y-42756D01*
X52532Y-42738D01*
X52475Y-42756D01*
X52433Y-42794D01*
X52405Y-42850D01*
X52391Y-42925D01*
X52405Y-43000D01*
X52433Y-43056D01*
X52475Y-43094D01*
X52532Y-43113D01*
X52588Y-43094D01*
X52630Y-43056D01*
X52911Y-42794D02*
X52911Y-43113D01*
X52897Y-43150D01*
X52883Y-43169D01*
X52854Y-43188D01*
X52812Y-43188D01*
X52784Y-43169D01*
X52911Y-43038D02*
X52883Y-43056D01*
X52826Y-43056D01*
X52798Y-43038D01*
X52784Y-43019D01*
X52770Y-42981D01*
X52770Y-42869D01*
X52784Y-42831D01*
X52798Y-42813D01*
X52826Y-42794D01*
X52883Y-42794D01*
X52911Y-42813D01*
X53051Y-43056D02*
X53051Y-42794D01*
X53051Y-42831D02*
X53065Y-42813D01*
X53093Y-42794D01*
X53136Y-42794D01*
X53164Y-42813D01*
X53178Y-42850D01*
X53178Y-43056D01*
X53178Y-42850D02*
X53192Y-42813D01*
X53220Y-42794D01*
X53262Y-42794D01*
X53290Y-42813D01*
X53304Y-42850D01*
X53304Y-43056D01*
X53571Y-43056D02*
X53571Y-42850D01*
X53557Y-42813D01*
X53529Y-42794D01*
X53472Y-42794D01*
X53444Y-42813D01*
X53571Y-43038D02*
X53543Y-43056D01*
X53472Y-43056D01*
X53444Y-43038D01*
X53430Y-43000D01*
X53430Y-42963D01*
X53444Y-42925D01*
X53472Y-42906D01*
X53543Y-42906D01*
X53571Y-42888D01*
X53711Y-43056D02*
X53711Y-42794D01*
X53711Y-42662D02*
X53697Y-42681D01*
X53711Y-42700D01*
X53725Y-42681D01*
X53711Y-42662D01*
X53711Y-42700D01*
X53893Y-43056D02*
X53865Y-43038D01*
X53851Y-43000D01*
X53851Y-42662D01*
X54006Y-43019D02*
X54020Y-43038D01*
X54006Y-43056D01*
X53992Y-43038D01*
X54006Y-43019D01*
X54006Y-43056D01*
X54273Y-43038D02*
X54245Y-43056D01*
X54188Y-43056D01*
X54160Y-43038D01*
X54146Y-43019D01*
X54132Y-42981D01*
X54132Y-42869D01*
X54146Y-42831D01*
X54160Y-42813D01*
X54188Y-42794D01*
X54245Y-42794D01*
X54273Y-42813D01*
X54441Y-43056D02*
X54413Y-43038D01*
X54399Y-43019D01*
X54385Y-42981D01*
X54385Y-42869D01*
X54399Y-42831D01*
X54413Y-42813D01*
X54441Y-42794D01*
X54484Y-42794D01*
X54512Y-42813D01*
X54526Y-42831D01*
X54540Y-42869D01*
X54540Y-42981D01*
X54526Y-43019D01*
X54512Y-43038D01*
X54484Y-43056D01*
X54441Y-43056D01*
X54666Y-43056D02*
X54666Y-42794D01*
X54666Y-42831D02*
X54680Y-42813D01*
X54708Y-42794D01*
X54751Y-42794D01*
X54779Y-42813D01*
X54793Y-42850D01*
X54793Y-43056D01*
X54793Y-42850D02*
X54807Y-42813D01*
X54835Y-42794D01*
X54877Y-42794D01*
X54905Y-42813D01*
X54919Y-42850D01*
X54919Y-43056D01*
X48029Y-43306D02*
X48001Y-43287D01*
X47959Y-43287D01*
X47916Y-43306D01*
X47888Y-43344D01*
X47874Y-43381D01*
X47860Y-43456D01*
X47860Y-43513D01*
X47874Y-43588D01*
X47888Y-43625D01*
X47916Y-43663D01*
X47959Y-43681D01*
X47987Y-43681D01*
X48029Y-43663D01*
X48043Y-43644D01*
X48043Y-43513D01*
X47987Y-43513D01*
X48211Y-43681D02*
X48183Y-43663D01*
X48169Y-43644D01*
X48155Y-43606D01*
X48155Y-43494D01*
X48169Y-43456D01*
X48183Y-43438D01*
X48211Y-43419D01*
X48254Y-43419D01*
X48282Y-43438D01*
X48296Y-43456D01*
X48310Y-43494D01*
X48310Y-43606D01*
X48296Y-43644D01*
X48282Y-43663D01*
X48254Y-43681D01*
X48211Y-43681D01*
X48478Y-43681D02*
X48450Y-43663D01*
X48436Y-43644D01*
X48422Y-43606D01*
X48422Y-43494D01*
X48436Y-43456D01*
X48450Y-43438D01*
X48478Y-43419D01*
X48521Y-43419D01*
X48549Y-43438D01*
X48563Y-43456D01*
X48577Y-43494D01*
X48577Y-43606D01*
X48563Y-43644D01*
X48549Y-43663D01*
X48521Y-43681D01*
X48478Y-43681D01*
X48830Y-43419D02*
X48830Y-43738D01*
X48816Y-43775D01*
X48802Y-43794D01*
X48773Y-43813D01*
X48731Y-43813D01*
X48703Y-43794D01*
X48830Y-43663D02*
X48802Y-43681D01*
X48745Y-43681D01*
X48717Y-43663D01*
X48703Y-43644D01*
X48689Y-43606D01*
X48689Y-43494D01*
X48703Y-43456D01*
X48717Y-43438D01*
X48745Y-43419D01*
X48802Y-43419D01*
X48830Y-43438D01*
X49012Y-43681D02*
X48984Y-43663D01*
X48970Y-43625D01*
X48970Y-43287D01*
X49238Y-43663D02*
X49210Y-43681D01*
X49153Y-43681D01*
X49125Y-43663D01*
X49111Y-43625D01*
X49111Y-43475D01*
X49125Y-43438D01*
X49153Y-43419D01*
X49210Y-43419D01*
X49238Y-43438D01*
X49252Y-43475D01*
X49252Y-43513D01*
X49111Y-43550D01*
X49758Y-43306D02*
X49730Y-43287D01*
X49688Y-43287D01*
X49645Y-43306D01*
X49617Y-43344D01*
X49603Y-43381D01*
X49589Y-43456D01*
X49589Y-43513D01*
X49603Y-43588D01*
X49617Y-43625D01*
X49645Y-43663D01*
X49688Y-43681D01*
X49716Y-43681D01*
X49758Y-43663D01*
X49772Y-43644D01*
X49772Y-43513D01*
X49716Y-43513D01*
X49898Y-43681D02*
X49898Y-43419D01*
X49898Y-43494D02*
X49912Y-43456D01*
X49926Y-43438D01*
X49954Y-43419D01*
X49983Y-43419D01*
X50123Y-43681D02*
X50095Y-43663D01*
X50081Y-43644D01*
X50067Y-43606D01*
X50067Y-43494D01*
X50081Y-43456D01*
X50095Y-43438D01*
X50123Y-43419D01*
X50166Y-43419D01*
X50194Y-43438D01*
X50208Y-43456D01*
X50222Y-43494D01*
X50222Y-43606D01*
X50208Y-43644D01*
X50194Y-43663D01*
X50166Y-43681D01*
X50123Y-43681D01*
X50475Y-43419D02*
X50475Y-43681D01*
X50348Y-43419D02*
X50348Y-43625D01*
X50362Y-43663D01*
X50390Y-43681D01*
X50433Y-43681D01*
X50461Y-43663D01*
X50475Y-43644D01*
X50615Y-43419D02*
X50615Y-43813D01*
X50615Y-43438D02*
X50643Y-43419D01*
X50700Y-43419D01*
X50728Y-43438D01*
X50742Y-43456D01*
X50756Y-43494D01*
X50756Y-43606D01*
X50742Y-43644D01*
X50728Y-43663D01*
X50700Y-43681D01*
X50643Y-43681D01*
X50615Y-43663D01*
X50868Y-43663D02*
X50896Y-43681D01*
X50952Y-43681D01*
X50981Y-43663D01*
X50995Y-43625D01*
X50995Y-43606D01*
X50981Y-43569D01*
X50952Y-43550D01*
X50910Y-43550D01*
X50882Y-43531D01*
X50868Y-43494D01*
X50868Y-43475D01*
X50882Y-43438D01*
X50910Y-43419D01*
X50952Y-43419D01*
X50981Y-43438D01*
X51346Y-43681D02*
X51346Y-43287D01*
X51486Y-43681D02*
X51486Y-43287D01*
X51556Y-43287D01*
X51599Y-43306D01*
X51627Y-43344D01*
X51641Y-43381D01*
X51655Y-43456D01*
X51655Y-43513D01*
X51641Y-43588D01*
X51627Y-43625D01*
X51599Y-43663D01*
X51556Y-43681D01*
X51486Y-43681D01*
X51781Y-43644D02*
X51795Y-43663D01*
X51781Y-43681D01*
X51767Y-43663D01*
X51781Y-43644D01*
X51781Y-43681D01*
X51781Y-43438D02*
X51795Y-43456D01*
X51781Y-43475D01*
X51767Y-43456D01*
X51781Y-43438D01*
X51781Y-43475D01*
X52146Y-43681D02*
X52146Y-43419D01*
X52146Y-43456D02*
X52160Y-43438D01*
X52188Y-43419D01*
X52231Y-43419D01*
X52259Y-43438D01*
X52273Y-43475D01*
X52273Y-43681D01*
X52273Y-43475D02*
X52287Y-43438D01*
X52315Y-43419D01*
X52357Y-43419D01*
X52385Y-43438D01*
X52399Y-43475D01*
X52399Y-43681D01*
X52666Y-43681D02*
X52666Y-43475D01*
X52652Y-43438D01*
X52624Y-43419D01*
X52567Y-43419D01*
X52539Y-43438D01*
X52666Y-43663D02*
X52638Y-43681D01*
X52567Y-43681D01*
X52539Y-43663D01*
X52525Y-43625D01*
X52525Y-43588D01*
X52539Y-43550D01*
X52567Y-43531D01*
X52638Y-43531D01*
X52666Y-43513D01*
X52933Y-43419D02*
X52933Y-43738D01*
X52919Y-43775D01*
X52905Y-43794D01*
X52876Y-43813D01*
X52834Y-43813D01*
X52806Y-43794D01*
X52933Y-43663D02*
X52905Y-43681D01*
X52848Y-43681D01*
X52820Y-43663D01*
X52806Y-43644D01*
X52792Y-43606D01*
X52792Y-43494D01*
X52806Y-43456D01*
X52820Y-43438D01*
X52848Y-43419D01*
X52905Y-43419D01*
X52933Y-43438D01*
X53045Y-43419D02*
X53115Y-43681D01*
X53186Y-43419D02*
X53115Y-43681D01*
X53087Y-43775D01*
X53073Y-43794D01*
X53045Y-43813D01*
X53425Y-43681D02*
X53425Y-43475D01*
X53411Y-43438D01*
X53383Y-43419D01*
X53326Y-43419D01*
X53298Y-43438D01*
X53425Y-43663D02*
X53397Y-43681D01*
X53326Y-43681D01*
X53298Y-43663D01*
X53284Y-43625D01*
X53284Y-43588D01*
X53298Y-43550D01*
X53326Y-43531D01*
X53397Y-43531D01*
X53425Y-43513D01*
X53565Y-43681D02*
X53565Y-43419D01*
X53565Y-43494D02*
X53579Y-43456D01*
X53593Y-43438D01*
X53621Y-43419D01*
X53650Y-43419D01*
X53748Y-43681D02*
X53748Y-43419D01*
X53748Y-43456D02*
X53762Y-43438D01*
X53790Y-43419D01*
X53833Y-43419D01*
X53861Y-43438D01*
X53875Y-43475D01*
X53875Y-43681D01*
X53875Y-43475D02*
X53889Y-43438D01*
X53917Y-43419D01*
X53959Y-43419D01*
X53987Y-43438D01*
X54001Y-43475D01*
X54001Y-43681D01*
X48043Y-43950D02*
X48057Y-43931D01*
X48085Y-43912D01*
X48156Y-43912D01*
X48184Y-43931D01*
X48198Y-43950D01*
X48212Y-43988D01*
X48212Y-44025D01*
X48198Y-44081D01*
X48029Y-44306D01*
X48212Y-44306D01*
X48394Y-43912D02*
X48423Y-43912D01*
X48451Y-43931D01*
X48465Y-43950D01*
X48479Y-43988D01*
X48493Y-44063D01*
X48493Y-44156D01*
X48479Y-44231D01*
X48465Y-44269D01*
X48451Y-44288D01*
X48423Y-44306D01*
X48394Y-44306D01*
X48366Y-44288D01*
X48352Y-44269D01*
X48338Y-44231D01*
X48324Y-44156D01*
X48324Y-44063D01*
X48338Y-43988D01*
X48352Y-43950D01*
X48366Y-43931D01*
X48394Y-43912D01*
X48774Y-44306D02*
X48605Y-44306D01*
X48689Y-44306D02*
X48689Y-43912D01*
X48661Y-43969D01*
X48633Y-44006D01*
X48605Y-44025D01*
X48886Y-43950D02*
X48900Y-43931D01*
X48928Y-43912D01*
X48999Y-43912D01*
X49027Y-43931D01*
X49041Y-43950D01*
X49055Y-43988D01*
X49055Y-44025D01*
X49041Y-44081D01*
X48872Y-44306D01*
X49055Y-44306D01*
X49392Y-43894D02*
X49139Y-44400D01*
X49546Y-43912D02*
X49575Y-43912D01*
X49603Y-43931D01*
X49617Y-43950D01*
X49631Y-43988D01*
X49645Y-44063D01*
X49645Y-44156D01*
X49631Y-44231D01*
X49617Y-44269D01*
X49603Y-44288D01*
X49575Y-44306D01*
X49546Y-44306D01*
X49518Y-44288D01*
X49504Y-44269D01*
X49490Y-44231D01*
X49476Y-44156D01*
X49476Y-44063D01*
X49490Y-43988D01*
X49504Y-43950D01*
X49518Y-43931D01*
X49546Y-43912D01*
X49785Y-44306D02*
X49841Y-44306D01*
X49870Y-44288D01*
X49884Y-44269D01*
X49912Y-44213D01*
X49926Y-44138D01*
X49926Y-43988D01*
X49912Y-43950D01*
X49898Y-43931D01*
X49870Y-43912D01*
X49813Y-43912D01*
X49785Y-43931D01*
X49771Y-43950D01*
X49757Y-43988D01*
X49757Y-44081D01*
X49771Y-44119D01*
X49785Y-44138D01*
X49813Y-44156D01*
X49870Y-44156D01*
X49898Y-44138D01*
X49912Y-44119D01*
X49926Y-44081D01*
X50263Y-43894D02*
X50010Y-44400D01*
X50516Y-44306D02*
X50347Y-44306D01*
X50431Y-44306D02*
X50431Y-43912D01*
X50403Y-43969D01*
X50375Y-44006D01*
X50347Y-44025D01*
X50698Y-43912D02*
X50727Y-43912D01*
X50755Y-43931D01*
X50769Y-43950D01*
X50783Y-43988D01*
X50797Y-44063D01*
X50797Y-44156D01*
X50783Y-44231D01*
X50769Y-44269D01*
X50755Y-44288D01*
X50727Y-44306D01*
X50698Y-44306D01*
X50670Y-44288D01*
X50656Y-44269D01*
X50642Y-44231D01*
X50628Y-44156D01*
X50628Y-44063D01*
X50642Y-43988D01*
X50656Y-43950D01*
X50670Y-43931D01*
X50698Y-43912D01*
X50923Y-44269D02*
X50937Y-44288D01*
X50923Y-44306D01*
X50909Y-44288D01*
X50923Y-44269D01*
X50923Y-44306D01*
X51246Y-43912D02*
X51344Y-44306D01*
X51443Y-43912D01*
X51654Y-44288D02*
X51626Y-44306D01*
X51569Y-44306D01*
X51541Y-44288D01*
X51527Y-44250D01*
X51527Y-44100D01*
X51541Y-44063D01*
X51569Y-44044D01*
X51626Y-44044D01*
X51654Y-44063D01*
X51668Y-44100D01*
X51668Y-44138D01*
X51527Y-44175D01*
X51794Y-44306D02*
X51794Y-44044D01*
X51794Y-44119D02*
X51808Y-44081D01*
X51822Y-44063D01*
X51850Y-44044D01*
X51879Y-44044D01*
X51963Y-44288D02*
X51991Y-44306D01*
X52047Y-44306D01*
X52076Y-44288D01*
X52090Y-44250D01*
X52090Y-44231D01*
X52076Y-44194D01*
X52047Y-44175D01*
X52005Y-44175D01*
X51977Y-44156D01*
X51963Y-44119D01*
X51963Y-44100D01*
X51977Y-44063D01*
X52005Y-44044D01*
X52047Y-44044D01*
X52076Y-44063D01*
X52216Y-44306D02*
X52216Y-44044D01*
X52216Y-43912D02*
X52202Y-43931D01*
X52216Y-43950D01*
X52230Y-43931D01*
X52216Y-43912D01*
X52216Y-43950D01*
X52398Y-44306D02*
X52370Y-44288D01*
X52356Y-44269D01*
X52342Y-44231D01*
X52342Y-44119D01*
X52356Y-44081D01*
X52370Y-44063D01*
X52398Y-44044D01*
X52441Y-44044D01*
X52469Y-44063D01*
X52483Y-44081D01*
X52497Y-44119D01*
X52497Y-44231D01*
X52483Y-44269D01*
X52469Y-44288D01*
X52441Y-44306D01*
X52398Y-44306D01*
X52623Y-44044D02*
X52623Y-44306D01*
X52623Y-44081D02*
X52637Y-44063D01*
X52665Y-44044D01*
X52708Y-44044D01*
X52736Y-44063D01*
X52750Y-44100D01*
X52750Y-44306D01*
X52890Y-44269D02*
X52904Y-44288D01*
X52890Y-44306D01*
X52876Y-44288D01*
X52890Y-44269D01*
X52890Y-44306D01*
X52890Y-44063D02*
X52904Y-44081D01*
X52890Y-44100D01*
X52876Y-44081D01*
X52890Y-44063D01*
X52890Y-44100D01*
X53410Y-44306D02*
X53241Y-44306D01*
X53325Y-44306D02*
X53325Y-43912D01*
X53297Y-43969D01*
X53269Y-44006D01*
X53241Y-44025D01*
X53536Y-44269D02*
X53550Y-44288D01*
X53536Y-44306D01*
X53522Y-44288D01*
X53536Y-44269D01*
X53536Y-44306D01*
X53662Y-43950D02*
X53676Y-43931D01*
X53704Y-43912D01*
X53775Y-43912D01*
X53803Y-43931D01*
X53817Y-43950D01*
X53831Y-43988D01*
X53831Y-44025D01*
X53817Y-44081D01*
X53648Y-44306D01*
X53831Y-44306D01*
G54D13*
X45063Y-36748D02*
X45063Y-39504D01*
X45063Y-39504D02*
X46637Y-39504D01*
X46637Y-39504D02*
X46637Y-36748D01*
G54D14*
X45063Y-36748D02*
X45063Y-33205D01*
X45063Y-33205D02*
X46637Y-33205D01*
X46637Y-33205D02*
X46637Y-36748D01*
X78130Y-27850D02*
X75886Y-27850D01*
X78130Y-31236D02*
X75886Y-31236D01*
X78130Y-28283D02*
X78130Y-27850D01*
X78130Y-27890D02*
X78130Y-28087D01*
X78130Y-30606D02*
X78130Y-31236D01*
X78129Y-30685D02*
X78129Y-28244D01*
G54D15*
X51004Y-41106D02*
X51004Y-41835D01*
X53937Y-41106D02*
X53937Y-41835D01*
X53937Y-31185D02*
X51004Y-31185D01*
X53937Y-41835D02*
X51004Y-41835D01*
X51004Y-41106D02*
X51004Y-31185D01*
X53937Y-31185D02*
X53937Y-41106D01*
G54D13*
X53366Y-30712D02*
X56122Y-30712D01*
X56122Y-30712D02*
X56122Y-29138D01*
X56122Y-29138D02*
X53366Y-29138D01*
G54D14*
X53366Y-30712D02*
X49823Y-30712D01*
X49823Y-30712D02*
X49823Y-29138D01*
X49823Y-29138D02*
X53366Y-29138D01*
X49197Y-46947D02*
X75447Y-46947D01*
X75447Y-40847D02*
X70147Y-40847D01*
X75447Y-46947D02*
X75447Y-40847D01*
X78197Y-33547D02*
X78197Y-28447D01*
X78197Y-33547D02*
X70147Y-33547D01*
X70147Y-33547D02*
X70147Y-40847D01*
X78197Y-27947D02*
X78197Y-28447D01*
X49197Y-25447D02*
X75697Y-25447D01*
X44197Y-30447D02*
X44197Y-41947D01*
X49197Y-25447D02*
X48762Y-25467D01*
X48329Y-25523D01*
X47903Y-25618D01*
X47487Y-25749D01*
X47084Y-25916D01*
X46698Y-26117D01*
X46330Y-26352D01*
X45984Y-26617D01*
X45662Y-26912D01*
X45367Y-27234D01*
X45102Y-27580D01*
X44867Y-27948D01*
X44666Y-28334D01*
X44499Y-28737D01*
X44368Y-29153D01*
X44273Y-29579D01*
X44217Y-30012D01*
X44197Y-30447D01*
X44197Y-41947D02*
X44217Y-42382D01*
X44273Y-42815D01*
X44368Y-43241D01*
X44499Y-43657D01*
X44666Y-44060D01*
X44867Y-44446D01*
X45102Y-44814D01*
X45367Y-45160D01*
X45662Y-45482D01*
X45984Y-45777D01*
X46330Y-46042D01*
X46698Y-46277D01*
X47084Y-46478D01*
X47487Y-46645D01*
X47903Y-46776D01*
X48329Y-46871D01*
X48762Y-46927D01*
X49197Y-46947D01*
X78197Y-27947D02*
X78187Y-27730D01*
X78159Y-27513D01*
X78111Y-27300D01*
X78046Y-27092D01*
X77962Y-26891D01*
X77862Y-26698D01*
X77744Y-26514D01*
X77612Y-26341D01*
X77464Y-26180D01*
X77303Y-26032D01*
X77130Y-25900D01*
X76947Y-25782D01*
X76753Y-25682D01*
X76552Y-25598D01*
X76344Y-25533D01*
X76131Y-25485D01*
X75914Y-25457D01*
X75697Y-25447D01*
G54D15*
X65189Y-30315D02*
X65189Y-29055D01*
X63771Y-30315D02*
X63771Y-29055D01*
G54D16*
X63780Y-29050D02*
X65180Y-29050D01*
X65180Y-30320D02*
X63780Y-30320D01*
X65080Y-30070D02*
X65077Y-30099D01*
X65068Y-30127D01*
X65054Y-30153D01*
X65036Y-30175D01*
X65013Y-30194D01*
X64988Y-30208D01*
X64960Y-30216D01*
X64931Y-30219D01*
X64902Y-30217D01*
X64874Y-30209D01*
X64848Y-30195D01*
X64826Y-30177D01*
X64807Y-30154D01*
X64793Y-30129D01*
X64784Y-30101D01*
X64781Y-30072D01*
X64783Y-30043D01*
X64791Y-30015D01*
X64804Y-29989D01*
X64823Y-29966D01*
X64845Y-29947D01*
X64870Y-29933D01*
X64898Y-29924D01*
X64927Y-29921D01*
X64956Y-29923D01*
X64984Y-29931D01*
X65010Y-29944D01*
X65033Y-29962D01*
X65052Y-29984D01*
X65067Y-30009D01*
X65076Y-30037D01*
X65079Y-30066D01*
X65080Y-30070D01*
G54D15*
X66787Y-38811D02*
X66787Y-35386D01*
X68205Y-35386D02*
X68205Y-38811D01*
G54D17*
X68196Y-35385D02*
X66796Y-35385D01*
X68196Y-38812D02*
X66796Y-38812D01*
X67207Y-35685D02*
X67204Y-35706D01*
X67198Y-35727D01*
X67188Y-35746D01*
X67174Y-35763D01*
X67158Y-35777D01*
X67139Y-35787D01*
X67118Y-35793D01*
X67096Y-35795D01*
X67076Y-35794D01*
X67055Y-35787D01*
X67036Y-35777D01*
X67019Y-35764D01*
X67005Y-35747D01*
X66994Y-35728D01*
X66988Y-35708D01*
X66986Y-35686D01*
X66987Y-35665D01*
X66993Y-35645D01*
X67003Y-35625D01*
X67017Y-35608D01*
X67033Y-35594D01*
X67052Y-35584D01*
X67073Y-35577D01*
X67094Y-35575D01*
X67115Y-35576D01*
X67136Y-35582D01*
X67155Y-35592D01*
X67172Y-35605D01*
X67186Y-35622D01*
X67197Y-35640D01*
X67204Y-35661D01*
X67206Y-35682D01*
X67207Y-35685D01*
X68931Y-27822D02*
X68931Y-28722D01*
X68931Y-28722D02*
X68431Y-28722D01*
X68431Y-28722D02*
X68431Y-27822D01*
X68431Y-27822D02*
X68931Y-27822D01*
X67742Y-27873D02*
X67742Y-28773D01*
X67742Y-28773D02*
X67242Y-28773D01*
X67242Y-28773D02*
X67242Y-27873D01*
X67242Y-27873D02*
X67742Y-27873D01*
X66722Y-27833D02*
X66722Y-28733D01*
X66722Y-28733D02*
X66222Y-28733D01*
X66222Y-28733D02*
X66222Y-27833D01*
X66222Y-27833D02*
X66722Y-27833D01*
X64230Y-27865D02*
X64230Y-28765D01*
X64230Y-28765D02*
X63730Y-28765D01*
X63730Y-28765D02*
X63730Y-27865D01*
X63730Y-27865D02*
X64230Y-27865D01*
X65423Y-27830D02*
X65423Y-28730D01*
X65423Y-28730D02*
X64923Y-28730D01*
X64923Y-28730D02*
X64923Y-27830D01*
X64923Y-27830D02*
X65423Y-27830D01*
X68859Y-32459D02*
X67959Y-32459D01*
X67959Y-32459D02*
X67959Y-31959D01*
X67959Y-31959D02*
X68859Y-31959D01*
X68859Y-31959D02*
X68859Y-32459D01*
X68883Y-33372D02*
X67983Y-33372D01*
X67983Y-33372D02*
X67983Y-32872D01*
X67983Y-32872D02*
X68883Y-32872D01*
X68883Y-32872D02*
X68883Y-33372D01*
X68879Y-34600D02*
X67979Y-34600D01*
X67979Y-34600D02*
X67979Y-34100D01*
X67979Y-34100D02*
X68879Y-34100D01*
X68879Y-34100D02*
X68879Y-34600D01*
X68891Y-35250D02*
X67991Y-35250D01*
X67991Y-35250D02*
X67991Y-34750D01*
X67991Y-34750D02*
X68891Y-34750D01*
X68891Y-34750D02*
X68891Y-35250D01*
X68887Y-33979D02*
X67987Y-33979D01*
X67987Y-33979D02*
X67987Y-33479D01*
X67987Y-33479D02*
X68887Y-33479D01*
X68887Y-33479D02*
X68887Y-33979D01*
X70966Y-42293D02*
X70066Y-42293D01*
X70066Y-42293D02*
X70066Y-41793D01*
X70066Y-41793D02*
X70966Y-41793D01*
X70966Y-41793D02*
X70966Y-42293D01*
X70981Y-43581D02*
X70081Y-43581D01*
X70081Y-43581D02*
X70081Y-43081D01*
X70081Y-43081D02*
X70981Y-43081D01*
X70981Y-43081D02*
X70981Y-43581D01*
X69837Y-39255D02*
X69837Y-40155D01*
X69837Y-40155D02*
X69337Y-40155D01*
X69337Y-40155D02*
X69337Y-39255D01*
X69337Y-39255D02*
X69837Y-39255D01*
G54D15*
X66453Y-29103D02*
X66453Y-31150D01*
X66453Y-31150D02*
X71020Y-31150D01*
X71020Y-31150D02*
X71020Y-29103D01*
X71020Y-29103D02*
X66453Y-29103D01*
X73508Y-41512D02*
X73508Y-42456D01*
X73508Y-42456D02*
X71461Y-42456D01*
X71461Y-42456D02*
X71461Y-41512D01*
X71461Y-41512D02*
X73508Y-41512D01*
X73535Y-42847D02*
X73535Y-43791D01*
X73535Y-43791D02*
X71488Y-43791D01*
X71488Y-43791D02*
X71488Y-42847D01*
X71488Y-42847D02*
X73535Y-42847D01*
G54D18*
X58453Y-33941D02*
X65146Y-33941D01*
X65146Y-33941D02*
X65146Y-40634D01*
X65146Y-40634D02*
X58453Y-40634D01*
X58453Y-40634D02*
X58453Y-33941D01*
G54D15*
X47114Y-41106D02*
X47114Y-41835D01*
X50047Y-41106D02*
X50047Y-41835D01*
X50047Y-31185D02*
X47114Y-31185D01*
X50047Y-41835D02*
X47114Y-41835D01*
X47114Y-41106D02*
X47114Y-31185D01*
X50047Y-31185D02*
X50047Y-41106D01*
X66208Y-38965D02*
X66208Y-41248D01*
X66208Y-41248D02*
X69279Y-41248D01*
X69279Y-41248D02*
X69279Y-38965D01*
X69279Y-38965D02*
X66208Y-38965D01*
G54D11*
X75114Y-26537D02*
X75114Y-27023D01*
X75142Y-27080D01*
X75171Y-27108D01*
X75228Y-27137D01*
X75342Y-27137D01*
X75400Y-27108D01*
X75428Y-27080D01*
X75457Y-27023D01*
X75457Y-26537D01*
X75714Y-26594D02*
X75743Y-26565D01*
X75800Y-26537D01*
X75943Y-26537D01*
X76000Y-26565D01*
X76029Y-26594D01*
X76057Y-26651D01*
X76057Y-26708D01*
X76029Y-26794D01*
X75686Y-27137D01*
X76057Y-27137D01*
X76428Y-26537D02*
X76485Y-26537D01*
X76542Y-26565D01*
X76571Y-26594D01*
X76600Y-26651D01*
X76628Y-26765D01*
X76628Y-26908D01*
X76600Y-27023D01*
X76571Y-27080D01*
X76542Y-27108D01*
X76485Y-27137D01*
X76428Y-27137D01*
X76371Y-27108D01*
X76342Y-27080D01*
X76314Y-27023D01*
X76285Y-26908D01*
X76285Y-26765D01*
X76314Y-26651D01*
X76342Y-26594D01*
X76371Y-26565D01*
X76428Y-26537D01*
X77199Y-27137D02*
X76856Y-27137D01*
X77028Y-27137D02*
X77028Y-26537D01*
X76971Y-26623D01*
X76913Y-26680D01*
X76856Y-26708D01*
G54D19*
X50027Y-30832D02*
X50027Y-31087D01*
X50042Y-31117D01*
X50057Y-31132D01*
X50087Y-31147D01*
X50147Y-31147D01*
X50177Y-31132D01*
X50192Y-31117D01*
X50207Y-31087D01*
X50207Y-30832D01*
X50492Y-30832D02*
X50432Y-30832D01*
X50402Y-30847D01*
X50387Y-30862D01*
X50357Y-30907D01*
X50342Y-30967D01*
X50342Y-31087D01*
X50357Y-31117D01*
X50372Y-31132D01*
X50402Y-31147D01*
X50462Y-31147D01*
X50492Y-31132D01*
X50507Y-31117D01*
X50522Y-31087D01*
X50522Y-31012D01*
X50507Y-30982D01*
X50492Y-30967D01*
X50462Y-30952D01*
X50402Y-30952D01*
X50372Y-30967D01*
X50357Y-30982D01*
X50342Y-31012D01*
X50717Y-30832D02*
X50747Y-30832D01*
X50777Y-30847D01*
X50792Y-30862D01*
X50807Y-30892D01*
X50822Y-30952D01*
X50822Y-31027D01*
X50807Y-31087D01*
X50792Y-31117D01*
X50777Y-31132D01*
X50747Y-31147D01*
X50717Y-31147D01*
X50687Y-31132D01*
X50672Y-31117D01*
X50657Y-31087D01*
X50642Y-31027D01*
X50642Y-30952D01*
X50657Y-30892D01*
X50672Y-30862D01*
X50687Y-30847D01*
X50717Y-30832D01*
X51122Y-31147D02*
X50942Y-31147D01*
X51032Y-31147D02*
X51032Y-30832D01*
X51002Y-30877D01*
X50972Y-30907D01*
X50942Y-30922D01*
G54D20*
X48868Y-30416D02*
X48868Y-30583D01*
X48878Y-30603D01*
X48888Y-30613D01*
X48907Y-30622D01*
X48947Y-30622D01*
X48966Y-30613D01*
X48976Y-30603D01*
X48986Y-30583D01*
X48986Y-30416D01*
X49064Y-30416D02*
X49202Y-30416D01*
X49113Y-30622D01*
X49319Y-30416D02*
X49339Y-30416D01*
X49359Y-30426D01*
X49368Y-30436D01*
X49378Y-30456D01*
X49388Y-30495D01*
X49388Y-30544D01*
X49378Y-30583D01*
X49368Y-30603D01*
X49359Y-30613D01*
X49339Y-30622D01*
X49319Y-30622D01*
X49300Y-30613D01*
X49290Y-30603D01*
X49280Y-30583D01*
X49270Y-30544D01*
X49270Y-30495D01*
X49280Y-30456D01*
X49290Y-30436D01*
X49300Y-30426D01*
X49319Y-30416D01*
X49584Y-30622D02*
X49466Y-30622D01*
X49525Y-30622D02*
X49525Y-30416D01*
X49505Y-30446D01*
X49486Y-30465D01*
X49466Y-30475D01*
G54D21*
X61896Y-29234D02*
X61896Y-29413D01*
X61904Y-29434D01*
X61912Y-29444D01*
X61928Y-29455D01*
X61961Y-29455D01*
X61977Y-29444D01*
X61985Y-29434D01*
X61993Y-29413D01*
X61993Y-29234D01*
X62148Y-29308D02*
X62148Y-29455D01*
X62107Y-29223D02*
X62067Y-29381D01*
X62172Y-29381D01*
X62270Y-29234D02*
X62287Y-29234D01*
X62303Y-29244D01*
X62311Y-29255D01*
X62319Y-29276D01*
X62327Y-29318D01*
X62327Y-29371D01*
X62319Y-29413D01*
X62311Y-29434D01*
X62303Y-29444D01*
X62287Y-29455D01*
X62270Y-29455D01*
X62254Y-29444D01*
X62246Y-29434D01*
X62238Y-29413D01*
X62230Y-29371D01*
X62230Y-29318D01*
X62238Y-29276D01*
X62246Y-29255D01*
X62254Y-29244D01*
X62270Y-29234D01*
X62384Y-29234D02*
X62498Y-29234D01*
X62425Y-29455D01*
G54D15*
X66595Y-34728D02*
X66595Y-34888D01*
X66604Y-34906D01*
X66614Y-34916D01*
X66632Y-34925D01*
X66670Y-34925D01*
X66689Y-34916D01*
X66698Y-34906D01*
X66707Y-34888D01*
X66707Y-34728D01*
X66885Y-34794D02*
X66885Y-34925D01*
X66838Y-34719D02*
X66792Y-34860D01*
X66913Y-34860D01*
X67026Y-34728D02*
X67045Y-34728D01*
X67064Y-34738D01*
X67073Y-34747D01*
X67083Y-34766D01*
X67092Y-34803D01*
X67092Y-34850D01*
X67083Y-34888D01*
X67073Y-34906D01*
X67064Y-34916D01*
X67045Y-34925D01*
X67026Y-34925D01*
X67008Y-34916D01*
X66998Y-34906D01*
X66989Y-34888D01*
X66980Y-34850D01*
X66980Y-34803D01*
X66989Y-34766D01*
X66998Y-34747D01*
X67008Y-34738D01*
X67026Y-34728D01*
X67261Y-34794D02*
X67261Y-34925D01*
X67214Y-34719D02*
X67168Y-34860D01*
X67289Y-34860D01*
G54D22*
X68306Y-28637D02*
X68173Y-28697D01*
X68306Y-28740D02*
X68026Y-28740D01*
X68026Y-28672D01*
X68040Y-28654D01*
X68053Y-28646D01*
X68080Y-28637D01*
X68120Y-28637D01*
X68146Y-28646D01*
X68160Y-28654D01*
X68173Y-28672D01*
X68173Y-28740D01*
X68120Y-28483D02*
X68306Y-28483D01*
X68013Y-28526D02*
X68213Y-28569D01*
X68213Y-28457D01*
X68306Y-28295D02*
X68306Y-28398D01*
X68306Y-28346D02*
X68026Y-28346D01*
X68066Y-28363D01*
X68093Y-28381D01*
X68106Y-28398D01*
X68026Y-28184D02*
X68026Y-28167D01*
X68040Y-28150D01*
X68053Y-28141D01*
X68080Y-28132D01*
X68133Y-28124D01*
X68200Y-28124D01*
X68253Y-28132D01*
X68280Y-28141D01*
X68293Y-28150D01*
X68306Y-28167D01*
X68306Y-28184D01*
X68293Y-28201D01*
X68280Y-28210D01*
X68253Y-28218D01*
X68200Y-28227D01*
X68133Y-28227D01*
X68080Y-28218D01*
X68053Y-28210D01*
X68040Y-28201D01*
X68026Y-28184D01*
X67125Y-28598D02*
X66992Y-28658D01*
X67125Y-28701D02*
X66845Y-28701D01*
X66845Y-28633D01*
X66859Y-28615D01*
X66872Y-28607D01*
X66899Y-28598D01*
X66939Y-28598D01*
X66965Y-28607D01*
X66979Y-28615D01*
X66992Y-28633D01*
X66992Y-28701D01*
X66939Y-28444D02*
X67125Y-28444D01*
X66832Y-28487D02*
X67032Y-28530D01*
X67032Y-28418D01*
X66845Y-28316D02*
X66845Y-28299D01*
X66859Y-28282D01*
X66872Y-28273D01*
X66899Y-28264D01*
X66952Y-28256D01*
X67019Y-28256D01*
X67072Y-28264D01*
X67099Y-28273D01*
X67112Y-28282D01*
X67125Y-28299D01*
X67125Y-28316D01*
X67112Y-28333D01*
X67099Y-28342D01*
X67072Y-28350D01*
X67019Y-28359D01*
X66952Y-28359D01*
X66899Y-28350D01*
X66872Y-28342D01*
X66859Y-28333D01*
X66845Y-28316D01*
X67125Y-28171D02*
X67125Y-28136D01*
X67112Y-28119D01*
X67099Y-28111D01*
X67059Y-28093D01*
X67005Y-28085D01*
X66899Y-28085D01*
X66872Y-28093D01*
X66859Y-28102D01*
X66845Y-28119D01*
X66845Y-28153D01*
X66859Y-28171D01*
X66872Y-28179D01*
X66899Y-28188D01*
X66965Y-28188D01*
X66992Y-28179D01*
X67005Y-28171D01*
X67019Y-28153D01*
X67019Y-28119D01*
X67005Y-28102D01*
X66992Y-28093D01*
X66965Y-28085D01*
X66137Y-28582D02*
X66004Y-28642D01*
X66137Y-28685D02*
X65857Y-28685D01*
X65857Y-28617D01*
X65871Y-28599D01*
X65884Y-28591D01*
X65911Y-28582D01*
X65951Y-28582D01*
X65977Y-28591D01*
X65991Y-28599D01*
X66004Y-28617D01*
X66004Y-28685D01*
X65951Y-28428D02*
X66137Y-28428D01*
X65844Y-28471D02*
X66044Y-28514D01*
X66044Y-28402D01*
X65857Y-28300D02*
X65857Y-28283D01*
X65871Y-28266D01*
X65884Y-28257D01*
X65911Y-28248D01*
X65964Y-28240D01*
X66031Y-28240D01*
X66084Y-28248D01*
X66111Y-28257D01*
X66124Y-28266D01*
X66137Y-28283D01*
X66137Y-28300D01*
X66124Y-28317D01*
X66111Y-28326D01*
X66084Y-28334D01*
X66031Y-28343D01*
X65964Y-28343D01*
X65911Y-28334D01*
X65884Y-28326D01*
X65871Y-28317D01*
X65857Y-28300D01*
X65977Y-28137D02*
X65964Y-28155D01*
X65951Y-28163D01*
X65924Y-28172D01*
X65911Y-28172D01*
X65884Y-28163D01*
X65871Y-28155D01*
X65857Y-28137D01*
X65857Y-28103D01*
X65871Y-28086D01*
X65884Y-28077D01*
X65911Y-28069D01*
X65924Y-28069D01*
X65951Y-28077D01*
X65964Y-28086D01*
X65977Y-28103D01*
X65977Y-28137D01*
X65991Y-28155D01*
X66004Y-28163D01*
X66031Y-28172D01*
X66084Y-28172D01*
X66111Y-28163D01*
X66124Y-28155D01*
X66137Y-28137D01*
X66137Y-28103D01*
X66124Y-28086D01*
X66111Y-28077D01*
X66084Y-28069D01*
X66031Y-28069D01*
X66004Y-28077D01*
X65991Y-28086D01*
X65977Y-28103D01*
X63652Y-28495D02*
X63519Y-28555D01*
X63652Y-28598D02*
X63372Y-28598D01*
X63372Y-28530D01*
X63386Y-28512D01*
X63399Y-28504D01*
X63426Y-28495D01*
X63466Y-28495D01*
X63492Y-28504D01*
X63506Y-28512D01*
X63519Y-28530D01*
X63519Y-28598D01*
X63466Y-28341D02*
X63652Y-28341D01*
X63359Y-28384D02*
X63559Y-28427D01*
X63559Y-28315D01*
X63372Y-28213D02*
X63372Y-28196D01*
X63386Y-28179D01*
X63399Y-28170D01*
X63426Y-28161D01*
X63479Y-28153D01*
X63546Y-28153D01*
X63599Y-28161D01*
X63626Y-28170D01*
X63639Y-28179D01*
X63652Y-28196D01*
X63652Y-28213D01*
X63639Y-28230D01*
X63626Y-28239D01*
X63599Y-28247D01*
X63546Y-28256D01*
X63479Y-28256D01*
X63426Y-28247D01*
X63399Y-28239D01*
X63386Y-28230D01*
X63372Y-28213D01*
X63372Y-28093D02*
X63372Y-27973D01*
X63652Y-28050D01*
X64829Y-28516D02*
X64696Y-28576D01*
X64829Y-28619D02*
X64549Y-28619D01*
X64549Y-28551D01*
X64563Y-28533D01*
X64576Y-28525D01*
X64603Y-28516D01*
X64643Y-28516D01*
X64669Y-28525D01*
X64683Y-28533D01*
X64696Y-28551D01*
X64696Y-28619D01*
X64643Y-28362D02*
X64829Y-28362D01*
X64536Y-28405D02*
X64736Y-28448D01*
X64736Y-28336D01*
X64549Y-28234D02*
X64549Y-28217D01*
X64563Y-28200D01*
X64576Y-28191D01*
X64603Y-28182D01*
X64656Y-28174D01*
X64723Y-28174D01*
X64776Y-28182D01*
X64803Y-28191D01*
X64816Y-28200D01*
X64829Y-28217D01*
X64829Y-28234D01*
X64816Y-28251D01*
X64803Y-28260D01*
X64776Y-28268D01*
X64723Y-28277D01*
X64656Y-28277D01*
X64603Y-28268D01*
X64576Y-28260D01*
X64563Y-28251D01*
X64549Y-28234D01*
X64549Y-28020D02*
X64549Y-28054D01*
X64563Y-28071D01*
X64576Y-28080D01*
X64616Y-28097D01*
X64669Y-28106D01*
X64776Y-28106D01*
X64803Y-28097D01*
X64816Y-28089D01*
X64829Y-28071D01*
X64829Y-28037D01*
X64816Y-28020D01*
X64803Y-28011D01*
X64776Y-28003D01*
X64709Y-28003D01*
X64683Y-28011D01*
X64669Y-28020D01*
X64656Y-28037D01*
X64656Y-28071D01*
X64669Y-28089D01*
X64683Y-28097D01*
X64709Y-28106D01*
X69080Y-32341D02*
X69020Y-32208D01*
X68977Y-32341D02*
X68977Y-32061D01*
X69045Y-32061D01*
X69063Y-32075D01*
X69071Y-32088D01*
X69080Y-32115D01*
X69080Y-32155D01*
X69071Y-32181D01*
X69063Y-32195D01*
X69045Y-32208D01*
X68977Y-32208D01*
X69234Y-32155D02*
X69234Y-32341D01*
X69191Y-32048D02*
X69148Y-32248D01*
X69260Y-32248D01*
X69362Y-32061D02*
X69379Y-32061D01*
X69396Y-32075D01*
X69405Y-32088D01*
X69414Y-32115D01*
X69422Y-32168D01*
X69422Y-32235D01*
X69414Y-32288D01*
X69405Y-32315D01*
X69396Y-32328D01*
X69379Y-32341D01*
X69362Y-32341D01*
X69345Y-32328D01*
X69336Y-32315D01*
X69328Y-32288D01*
X69319Y-32235D01*
X69319Y-32168D01*
X69328Y-32115D01*
X69336Y-32088D01*
X69345Y-32075D01*
X69362Y-32061D01*
X69585Y-32061D02*
X69499Y-32061D01*
X69490Y-32195D01*
X69499Y-32181D01*
X69516Y-32168D01*
X69559Y-32168D01*
X69576Y-32181D01*
X69585Y-32195D01*
X69593Y-32221D01*
X69593Y-32288D01*
X69585Y-32315D01*
X69576Y-32328D01*
X69559Y-32341D01*
X69516Y-32341D01*
X69499Y-32328D01*
X69490Y-32315D01*
X69107Y-33259D02*
X69047Y-33126D01*
X69004Y-33259D02*
X69004Y-32979D01*
X69072Y-32979D01*
X69090Y-32993D01*
X69098Y-33006D01*
X69107Y-33033D01*
X69107Y-33073D01*
X69098Y-33099D01*
X69090Y-33113D01*
X69072Y-33126D01*
X69004Y-33126D01*
X69261Y-33073D02*
X69261Y-33259D01*
X69218Y-32966D02*
X69175Y-33166D01*
X69287Y-33166D01*
X69389Y-32979D02*
X69406Y-32979D01*
X69423Y-32993D01*
X69432Y-33006D01*
X69441Y-33033D01*
X69449Y-33086D01*
X69449Y-33153D01*
X69441Y-33206D01*
X69432Y-33233D01*
X69423Y-33246D01*
X69406Y-33259D01*
X69389Y-33259D01*
X69372Y-33246D01*
X69363Y-33233D01*
X69355Y-33206D01*
X69346Y-33153D01*
X69346Y-33086D01*
X69355Y-33033D01*
X69363Y-33006D01*
X69372Y-32993D01*
X69389Y-32979D01*
X69603Y-33073D02*
X69603Y-33259D01*
X69560Y-32966D02*
X69517Y-33166D01*
X69629Y-33166D01*
X69123Y-34491D02*
X69063Y-34358D01*
X69020Y-34491D02*
X69020Y-34211D01*
X69088Y-34211D01*
X69106Y-34225D01*
X69114Y-34238D01*
X69123Y-34265D01*
X69123Y-34305D01*
X69114Y-34331D01*
X69106Y-34345D01*
X69088Y-34358D01*
X69020Y-34358D01*
X69277Y-34305D02*
X69277Y-34491D01*
X69234Y-34198D02*
X69191Y-34398D01*
X69303Y-34398D01*
X69405Y-34211D02*
X69422Y-34211D01*
X69439Y-34225D01*
X69448Y-34238D01*
X69457Y-34265D01*
X69465Y-34318D01*
X69465Y-34385D01*
X69457Y-34438D01*
X69448Y-34465D01*
X69439Y-34478D01*
X69422Y-34491D01*
X69405Y-34491D01*
X69388Y-34478D01*
X69379Y-34465D01*
X69371Y-34438D01*
X69362Y-34385D01*
X69362Y-34318D01*
X69371Y-34265D01*
X69379Y-34238D01*
X69388Y-34225D01*
X69405Y-34211D01*
X69525Y-34211D02*
X69636Y-34211D01*
X69576Y-34318D01*
X69602Y-34318D01*
X69619Y-34331D01*
X69628Y-34345D01*
X69636Y-34371D01*
X69636Y-34438D01*
X69628Y-34465D01*
X69619Y-34478D01*
X69602Y-34491D01*
X69550Y-34491D01*
X69533Y-34478D01*
X69525Y-34465D01*
X69127Y-35129D02*
X69067Y-34996D01*
X69024Y-35129D02*
X69024Y-34849D01*
X69092Y-34849D01*
X69110Y-34863D01*
X69118Y-34876D01*
X69127Y-34903D01*
X69127Y-34943D01*
X69118Y-34969D01*
X69110Y-34983D01*
X69092Y-34996D01*
X69024Y-34996D01*
X69281Y-34943D02*
X69281Y-35129D01*
X69238Y-34836D02*
X69195Y-35036D01*
X69307Y-35036D01*
X69409Y-34849D02*
X69426Y-34849D01*
X69443Y-34863D01*
X69452Y-34876D01*
X69461Y-34903D01*
X69469Y-34956D01*
X69469Y-35023D01*
X69461Y-35076D01*
X69452Y-35103D01*
X69443Y-35116D01*
X69426Y-35129D01*
X69409Y-35129D01*
X69392Y-35116D01*
X69383Y-35103D01*
X69375Y-35076D01*
X69366Y-35023D01*
X69366Y-34956D01*
X69375Y-34903D01*
X69383Y-34876D01*
X69392Y-34863D01*
X69409Y-34849D01*
X69537Y-34876D02*
X69546Y-34863D01*
X69563Y-34849D01*
X69606Y-34849D01*
X69623Y-34863D01*
X69632Y-34876D01*
X69640Y-34903D01*
X69640Y-34929D01*
X69632Y-34969D01*
X69529Y-35129D01*
X69640Y-35129D01*
X69127Y-33873D02*
X69067Y-33740D01*
X69024Y-33873D02*
X69024Y-33593D01*
X69092Y-33593D01*
X69110Y-33607D01*
X69118Y-33620D01*
X69127Y-33647D01*
X69127Y-33687D01*
X69118Y-33713D01*
X69110Y-33727D01*
X69092Y-33740D01*
X69024Y-33740D01*
X69281Y-33687D02*
X69281Y-33873D01*
X69238Y-33580D02*
X69195Y-33780D01*
X69307Y-33780D01*
X69409Y-33593D02*
X69426Y-33593D01*
X69443Y-33607D01*
X69452Y-33620D01*
X69461Y-33647D01*
X69469Y-33700D01*
X69469Y-33767D01*
X69461Y-33820D01*
X69452Y-33847D01*
X69443Y-33860D01*
X69426Y-33873D01*
X69409Y-33873D01*
X69392Y-33860D01*
X69383Y-33847D01*
X69375Y-33820D01*
X69366Y-33767D01*
X69366Y-33700D01*
X69375Y-33647D01*
X69383Y-33620D01*
X69392Y-33607D01*
X69409Y-33593D01*
X69640Y-33873D02*
X69537Y-33873D01*
X69589Y-33873D02*
X69589Y-33593D01*
X69572Y-33633D01*
X69554Y-33660D01*
X69537Y-33673D01*
X70316Y-41633D02*
X70256Y-41500D01*
X70213Y-41633D02*
X70213Y-41353D01*
X70281Y-41353D01*
X70299Y-41367D01*
X70307Y-41380D01*
X70316Y-41407D01*
X70316Y-41447D01*
X70307Y-41473D01*
X70299Y-41487D01*
X70281Y-41500D01*
X70213Y-41500D01*
X70376Y-41353D02*
X70487Y-41353D01*
X70427Y-41460D01*
X70453Y-41460D01*
X70470Y-41473D01*
X70479Y-41487D01*
X70487Y-41513D01*
X70487Y-41580D01*
X70479Y-41607D01*
X70470Y-41620D01*
X70453Y-41633D01*
X70401Y-41633D01*
X70384Y-41620D01*
X70376Y-41607D01*
X70658Y-41633D02*
X70555Y-41633D01*
X70607Y-41633D02*
X70607Y-41353D01*
X70590Y-41393D01*
X70572Y-41420D01*
X70555Y-41433D01*
X70769Y-41353D02*
X70786Y-41353D01*
X70803Y-41367D01*
X70812Y-41380D01*
X70821Y-41407D01*
X70829Y-41460D01*
X70829Y-41527D01*
X70821Y-41580D01*
X70812Y-41607D01*
X70803Y-41620D01*
X70786Y-41633D01*
X70769Y-41633D01*
X70752Y-41620D01*
X70743Y-41607D01*
X70735Y-41580D01*
X70726Y-41527D01*
X70726Y-41460D01*
X70735Y-41407D01*
X70743Y-41380D01*
X70752Y-41367D01*
X70769Y-41353D01*
X70284Y-42967D02*
X70224Y-42834D01*
X70181Y-42967D02*
X70181Y-42687D01*
X70249Y-42687D01*
X70267Y-42701D01*
X70275Y-42714D01*
X70284Y-42741D01*
X70284Y-42781D01*
X70275Y-42807D01*
X70267Y-42821D01*
X70249Y-42834D01*
X70181Y-42834D01*
X70344Y-42687D02*
X70455Y-42687D01*
X70395Y-42794D01*
X70421Y-42794D01*
X70438Y-42807D01*
X70447Y-42821D01*
X70455Y-42847D01*
X70455Y-42914D01*
X70447Y-42941D01*
X70438Y-42954D01*
X70421Y-42967D01*
X70369Y-42967D01*
X70352Y-42954D01*
X70344Y-42941D01*
X70566Y-42687D02*
X70583Y-42687D01*
X70600Y-42701D01*
X70609Y-42714D01*
X70618Y-42741D01*
X70626Y-42794D01*
X70626Y-42861D01*
X70618Y-42914D01*
X70609Y-42941D01*
X70600Y-42954D01*
X70583Y-42967D01*
X70566Y-42967D01*
X70549Y-42954D01*
X70540Y-42941D01*
X70532Y-42914D01*
X70523Y-42861D01*
X70523Y-42794D01*
X70532Y-42741D01*
X70540Y-42714D01*
X70549Y-42701D01*
X70566Y-42687D01*
X70729Y-42807D02*
X70711Y-42794D01*
X70703Y-42781D01*
X70694Y-42754D01*
X70694Y-42741D01*
X70703Y-42714D01*
X70711Y-42701D01*
X70729Y-42687D01*
X70763Y-42687D01*
X70780Y-42701D01*
X70789Y-42714D01*
X70797Y-42741D01*
X70797Y-42754D01*
X70789Y-42781D01*
X70780Y-42794D01*
X70763Y-42807D01*
X70729Y-42807D01*
X70711Y-42821D01*
X70703Y-42834D01*
X70694Y-42861D01*
X70694Y-42914D01*
X70703Y-42941D01*
X70711Y-42954D01*
X70729Y-42967D01*
X70763Y-42967D01*
X70780Y-42954D01*
X70789Y-42941D01*
X70797Y-42914D01*
X70797Y-42861D01*
X70789Y-42834D01*
X70780Y-42821D01*
X70763Y-42807D01*
X69473Y-39117D02*
X69464Y-39126D01*
X69438Y-39136D01*
X69421Y-39136D01*
X69396Y-39126D01*
X69378Y-39107D01*
X69370Y-39088D01*
X69361Y-39050D01*
X69361Y-39022D01*
X69370Y-38984D01*
X69378Y-38965D01*
X69396Y-38945D01*
X69421Y-38936D01*
X69438Y-38936D01*
X69464Y-38945D01*
X69473Y-38955D01*
X69627Y-39003D02*
X69627Y-39136D01*
X69584Y-38926D02*
X69541Y-39069D01*
X69653Y-39069D01*
X69755Y-38936D02*
X69772Y-38936D01*
X69789Y-38945D01*
X69798Y-38955D01*
X69807Y-38974D01*
X69815Y-39012D01*
X69815Y-39060D01*
X69807Y-39098D01*
X69798Y-39117D01*
X69789Y-39126D01*
X69772Y-39136D01*
X69755Y-39136D01*
X69738Y-39126D01*
X69729Y-39117D01*
X69721Y-39098D01*
X69712Y-39060D01*
X69712Y-39012D01*
X69721Y-38974D01*
X69729Y-38955D01*
X69738Y-38945D01*
X69755Y-38936D01*
X69986Y-39136D02*
X69883Y-39136D01*
X69935Y-39136D02*
X69935Y-38936D01*
X69918Y-38965D01*
X69900Y-38984D01*
X69883Y-38993D01*
G54D23*
X67036Y-31254D02*
X67036Y-31445D01*
X67047Y-31467D01*
X67059Y-31478D01*
X67081Y-31490D01*
X67126Y-31490D01*
X67149Y-31478D01*
X67160Y-31467D01*
X67171Y-31445D01*
X67171Y-31254D01*
X67384Y-31332D02*
X67384Y-31490D01*
X67328Y-31242D02*
X67272Y-31411D01*
X67418Y-31411D01*
X67553Y-31254D02*
X67576Y-31254D01*
X67598Y-31265D01*
X67609Y-31276D01*
X67621Y-31298D01*
X67632Y-31343D01*
X67632Y-31400D01*
X67621Y-31445D01*
X67609Y-31467D01*
X67598Y-31478D01*
X67576Y-31490D01*
X67553Y-31490D01*
X67531Y-31478D01*
X67519Y-31467D01*
X67508Y-31445D01*
X67497Y-31400D01*
X67497Y-31343D01*
X67508Y-31298D01*
X67519Y-31276D01*
X67531Y-31265D01*
X67553Y-31254D01*
X67834Y-31254D02*
X67789Y-31254D01*
X67767Y-31265D01*
X67756Y-31276D01*
X67733Y-31310D01*
X67722Y-31355D01*
X67722Y-31445D01*
X67733Y-31467D01*
X67744Y-31478D01*
X67767Y-31490D01*
X67812Y-31490D01*
X67834Y-31478D01*
X67846Y-31467D01*
X67857Y-31445D01*
X67857Y-31388D01*
X67846Y-31366D01*
X67834Y-31355D01*
X67812Y-31343D01*
X67767Y-31343D01*
X67744Y-31355D01*
X67733Y-31366D01*
X67722Y-31388D01*
G54D20*
X72080Y-41172D02*
X72080Y-41339D01*
X72090Y-41359D01*
X72100Y-41369D01*
X72119Y-41378D01*
X72159Y-41378D01*
X72178Y-41369D01*
X72188Y-41359D01*
X72198Y-41339D01*
X72198Y-41172D01*
X72276Y-41172D02*
X72404Y-41172D01*
X72335Y-41251D01*
X72365Y-41251D01*
X72384Y-41261D01*
X72394Y-41270D01*
X72404Y-41290D01*
X72404Y-41339D01*
X72394Y-41359D01*
X72384Y-41369D01*
X72365Y-41378D01*
X72306Y-41378D01*
X72286Y-41369D01*
X72276Y-41359D01*
X72531Y-41172D02*
X72551Y-41172D01*
X72571Y-41182D01*
X72580Y-41192D01*
X72590Y-41212D01*
X72600Y-41251D01*
X72600Y-41300D01*
X72590Y-41339D01*
X72580Y-41359D01*
X72571Y-41369D01*
X72551Y-41378D01*
X72531Y-41378D01*
X72512Y-41369D01*
X72502Y-41359D01*
X72492Y-41339D01*
X72482Y-41300D01*
X72482Y-41251D01*
X72492Y-41212D01*
X72502Y-41192D01*
X72512Y-41182D01*
X72531Y-41172D01*
X72786Y-41172D02*
X72688Y-41172D01*
X72678Y-41270D01*
X72688Y-41261D01*
X72708Y-41251D01*
X72757Y-41251D01*
X72776Y-41261D01*
X72786Y-41270D01*
X72796Y-41290D01*
X72796Y-41339D01*
X72786Y-41359D01*
X72776Y-41369D01*
X72757Y-41378D01*
X72708Y-41378D01*
X72688Y-41369D01*
X72678Y-41359D01*
X72037Y-43916D02*
X72037Y-44083D01*
X72047Y-44103D01*
X72057Y-44113D01*
X72076Y-44122D01*
X72116Y-44122D01*
X72135Y-44113D01*
X72145Y-44103D01*
X72155Y-44083D01*
X72155Y-43916D01*
X72233Y-43916D02*
X72361Y-43916D01*
X72292Y-43995D01*
X72322Y-43995D01*
X72341Y-44005D01*
X72351Y-44014D01*
X72361Y-44034D01*
X72361Y-44083D01*
X72351Y-44103D01*
X72341Y-44113D01*
X72322Y-44122D01*
X72263Y-44122D01*
X72243Y-44113D01*
X72233Y-44103D01*
X72488Y-43916D02*
X72508Y-43916D01*
X72528Y-43926D01*
X72537Y-43936D01*
X72547Y-43956D01*
X72557Y-43995D01*
X72557Y-44044D01*
X72547Y-44083D01*
X72537Y-44103D01*
X72528Y-44113D01*
X72508Y-44122D01*
X72488Y-44122D01*
X72469Y-44113D01*
X72459Y-44103D01*
X72449Y-44083D01*
X72439Y-44044D01*
X72439Y-43995D01*
X72449Y-43956D01*
X72459Y-43936D01*
X72469Y-43926D01*
X72488Y-43916D01*
X72625Y-43916D02*
X72753Y-43916D01*
X72684Y-43995D01*
X72714Y-43995D01*
X72733Y-44005D01*
X72743Y-44014D01*
X72753Y-44034D01*
X72753Y-44083D01*
X72743Y-44103D01*
X72733Y-44113D01*
X72714Y-44122D01*
X72655Y-44122D01*
X72635Y-44113D01*
X72625Y-44103D01*
G54D24*
X57853Y-33339D02*
X57853Y-33622D01*
X57870Y-33655D01*
X57887Y-33672D01*
X57920Y-33689D01*
X57987Y-33689D01*
X58020Y-33672D01*
X58037Y-33655D01*
X58053Y-33622D01*
X58053Y-33339D01*
X58187Y-33339D02*
X58420Y-33339D01*
X58270Y-33689D01*
X58620Y-33339D02*
X58653Y-33339D01*
X58687Y-33355D01*
X58703Y-33372D01*
X58720Y-33405D01*
X58737Y-33472D01*
X58737Y-33555D01*
X58720Y-33622D01*
X58703Y-33655D01*
X58687Y-33672D01*
X58653Y-33689D01*
X58620Y-33689D01*
X58587Y-33672D01*
X58570Y-33655D01*
X58553Y-33622D01*
X58537Y-33555D01*
X58537Y-33472D01*
X58553Y-33405D01*
X58570Y-33372D01*
X58587Y-33355D01*
X58620Y-33339D01*
X58870Y-33372D02*
X58886Y-33355D01*
X58920Y-33339D01*
X59003Y-33339D01*
X59036Y-33355D01*
X59053Y-33372D01*
X59070Y-33405D01*
X59070Y-33439D01*
X59053Y-33489D01*
X58853Y-33689D01*
X59070Y-33689D01*
G54D19*
X46051Y-30698D02*
X46051Y-30953D01*
X46066Y-30983D01*
X46081Y-30998D01*
X46111Y-31013D01*
X46171Y-31013D01*
X46201Y-30998D01*
X46216Y-30983D01*
X46231Y-30953D01*
X46231Y-30698D01*
X46531Y-30698D02*
X46381Y-30698D01*
X46366Y-30848D01*
X46381Y-30833D01*
X46411Y-30818D01*
X46486Y-30818D01*
X46516Y-30833D01*
X46531Y-30848D01*
X46546Y-30878D01*
X46546Y-30953D01*
X46531Y-30983D01*
X46516Y-30998D01*
X46486Y-31013D01*
X46411Y-31013D01*
X46381Y-30998D01*
X46366Y-30983D01*
X46741Y-30698D02*
X46771Y-30698D01*
X46801Y-30713D01*
X46816Y-30728D01*
X46831Y-30758D01*
X46846Y-30818D01*
X46846Y-30893D01*
X46831Y-30953D01*
X46816Y-30983D01*
X46801Y-30998D01*
X46771Y-31013D01*
X46741Y-31013D01*
X46711Y-30998D01*
X46696Y-30983D01*
X46681Y-30953D01*
X46666Y-30893D01*
X46666Y-30818D01*
X46681Y-30758D01*
X46696Y-30728D01*
X46711Y-30713D01*
X46741Y-30698D01*
X47146Y-31013D02*
X46966Y-31013D01*
X47056Y-31013D02*
X47056Y-30698D01*
X47026Y-30743D01*
X46996Y-30773D01*
X46966Y-30788D01*
G54D23*
X66598Y-41785D02*
X66598Y-41976D01*
X66609Y-41998D01*
X66621Y-42009D01*
X66643Y-42021D01*
X66688Y-42021D01*
X66711Y-42009D01*
X66722Y-41998D01*
X66733Y-41976D01*
X66733Y-41785D01*
X66946Y-41863D02*
X66946Y-42021D01*
X66890Y-41773D02*
X66834Y-41942D01*
X66980Y-41942D01*
X67115Y-41785D02*
X67138Y-41785D01*
X67160Y-41796D01*
X67171Y-41807D01*
X67183Y-41829D01*
X67194Y-41874D01*
X67194Y-41931D01*
X67183Y-41976D01*
X67171Y-41998D01*
X67160Y-42009D01*
X67138Y-42021D01*
X67115Y-42021D01*
X67093Y-42009D01*
X67081Y-41998D01*
X67070Y-41976D01*
X67059Y-41931D01*
X67059Y-41874D01*
X67070Y-41829D01*
X67081Y-41807D01*
X67093Y-41796D01*
X67115Y-41785D01*
X67408Y-41785D02*
X67295Y-41785D01*
X67284Y-41897D01*
X67295Y-41886D01*
X67318Y-41874D01*
X67374Y-41874D01*
X67396Y-41886D01*
X67408Y-41897D01*
X67419Y-41919D01*
X67419Y-41976D01*
X67408Y-41998D01*
X67396Y-42009D01*
X67374Y-42021D01*
X67318Y-42021D01*
X67295Y-42009D01*
X67284Y-41998D01*
M02*
