G04 (created by PCBNEW-RS274X (2012-jan-04)-stable) date Mon Dec 31 11:21:29 2012*
G01*
G70*
G90*
%MOIN*%
G04 Gerber Fmt 3.4, Leading zero omitted, Abs format*
%FSLAX34Y34*%
G04 APERTURE LIST*
%ADD10C,0.006000*%
%ADD11C,0.012000*%
%ADD12R,0.039400X0.137800*%
%ADD13R,0.039400X0.118100*%
%ADD14C,0.051200*%
%ADD15C,0.180000*%
%ADD16C,0.040200*%
%ADD17C,0.019700*%
%ADD18C,0.015000*%
%ADD19C,0.011800*%
%ADD20C,0.039400*%
%ADD21C,0.005100*%
%ADD22C,0.003900*%
%ADD23C,0.009800*%
%ADD24C,0.004900*%
%ADD25C,0.010000*%
G04 APERTURE END LIST*
G54D10*
X04000Y-04000D02*
X113000Y-04000D01*
X113000Y-78670D01*
X04000Y-78670D01*
X04000Y-04000D01*
X04700Y-04700D02*
X112300Y-04700D01*
X112300Y-77970D01*
X04700Y-77970D01*
X04700Y-04700D01*
X25800Y-04000D02*
X25800Y-04700D01*
X15043Y-04552D02*
X14757Y-04552D01*
X14900Y-04552D02*
X14900Y-04052D01*
X14852Y-04124D01*
X14805Y-04171D01*
X14757Y-04195D01*
X25800Y-78670D02*
X25800Y-77970D01*
X15043Y-78522D02*
X14757Y-78522D01*
X14900Y-78522D02*
X14900Y-78022D01*
X14852Y-78094D01*
X14805Y-78141D01*
X14757Y-78165D01*
X47600Y-04000D02*
X47600Y-04700D01*
X36557Y-04100D02*
X36581Y-04076D01*
X36629Y-04052D01*
X36748Y-04052D01*
X36795Y-04076D01*
X36819Y-04100D01*
X36843Y-04148D01*
X36843Y-04195D01*
X36819Y-04267D01*
X36533Y-04552D01*
X36843Y-04552D01*
X47600Y-78670D02*
X47600Y-77970D01*
X36557Y-78070D02*
X36581Y-78046D01*
X36629Y-78022D01*
X36748Y-78022D01*
X36795Y-78046D01*
X36819Y-78070D01*
X36843Y-78118D01*
X36843Y-78165D01*
X36819Y-78237D01*
X36533Y-78522D01*
X36843Y-78522D01*
X69400Y-04000D02*
X69400Y-04700D01*
X58333Y-04052D02*
X58643Y-04052D01*
X58476Y-04243D01*
X58548Y-04243D01*
X58595Y-04267D01*
X58619Y-04290D01*
X58643Y-04338D01*
X58643Y-04457D01*
X58619Y-04505D01*
X58595Y-04529D01*
X58548Y-04552D01*
X58405Y-04552D01*
X58357Y-04529D01*
X58333Y-04505D01*
X69400Y-78670D02*
X69400Y-77970D01*
X58333Y-78022D02*
X58643Y-78022D01*
X58476Y-78213D01*
X58548Y-78213D01*
X58595Y-78237D01*
X58619Y-78260D01*
X58643Y-78308D01*
X58643Y-78427D01*
X58619Y-78475D01*
X58595Y-78499D01*
X58548Y-78522D01*
X58405Y-78522D01*
X58357Y-78499D01*
X58333Y-78475D01*
X91200Y-04000D02*
X91200Y-04700D01*
X80395Y-04219D02*
X80395Y-04552D01*
X80276Y-04029D02*
X80157Y-04386D01*
X80467Y-04386D01*
X91200Y-78670D02*
X91200Y-77970D01*
X80395Y-78189D02*
X80395Y-78522D01*
X80276Y-77999D02*
X80157Y-78356D01*
X80467Y-78356D01*
X102219Y-04052D02*
X101981Y-04052D01*
X101957Y-04290D01*
X101981Y-04267D01*
X102029Y-04243D01*
X102148Y-04243D01*
X102195Y-04267D01*
X102219Y-04290D01*
X102243Y-04338D01*
X102243Y-04457D01*
X102219Y-04505D01*
X102195Y-04529D01*
X102148Y-04552D01*
X102029Y-04552D01*
X101981Y-04529D01*
X101957Y-04505D01*
X102219Y-78022D02*
X101981Y-78022D01*
X101957Y-78260D01*
X101981Y-78237D01*
X102029Y-78213D01*
X102148Y-78213D01*
X102195Y-78237D01*
X102219Y-78260D01*
X102243Y-78308D01*
X102243Y-78427D01*
X102219Y-78475D01*
X102195Y-78499D01*
X102148Y-78522D01*
X102029Y-78522D01*
X101981Y-78499D01*
X101957Y-78475D01*
X04000Y-28890D02*
X04700Y-28890D01*
X04231Y-16510D02*
X04469Y-16510D01*
X04184Y-16652D02*
X04350Y-16152D01*
X04517Y-16652D01*
X113000Y-28890D02*
X112300Y-28890D01*
X112531Y-16510D02*
X112769Y-16510D01*
X112484Y-16652D02*
X112650Y-16152D01*
X112817Y-16652D01*
X04000Y-53780D02*
X04700Y-53780D01*
X04386Y-41280D02*
X04457Y-41304D01*
X04481Y-41328D01*
X04505Y-41376D01*
X04505Y-41447D01*
X04481Y-41495D01*
X04457Y-41519D01*
X04410Y-41542D01*
X04219Y-41542D01*
X04219Y-41042D01*
X04386Y-41042D01*
X04433Y-41066D01*
X04457Y-41090D01*
X04481Y-41138D01*
X04481Y-41185D01*
X04457Y-41233D01*
X04433Y-41257D01*
X04386Y-41280D01*
X04219Y-41280D01*
X113000Y-53780D02*
X112300Y-53780D01*
X112686Y-41280D02*
X112757Y-41304D01*
X112781Y-41328D01*
X112805Y-41376D01*
X112805Y-41447D01*
X112781Y-41495D01*
X112757Y-41519D01*
X112710Y-41542D01*
X112519Y-41542D01*
X112519Y-41042D01*
X112686Y-41042D01*
X112733Y-41066D01*
X112757Y-41090D01*
X112781Y-41138D01*
X112781Y-41185D01*
X112757Y-41233D01*
X112733Y-41257D01*
X112686Y-41280D01*
X112519Y-41280D01*
X04505Y-66385D02*
X04481Y-66409D01*
X04410Y-66432D01*
X04362Y-66432D01*
X04290Y-66409D01*
X04243Y-66361D01*
X04219Y-66313D01*
X04195Y-66218D01*
X04195Y-66147D01*
X04219Y-66051D01*
X04243Y-66004D01*
X04290Y-65956D01*
X04362Y-65932D01*
X04410Y-65932D01*
X04481Y-65956D01*
X04505Y-65980D01*
X112805Y-66385D02*
X112781Y-66409D01*
X112710Y-66432D01*
X112662Y-66432D01*
X112590Y-66409D01*
X112543Y-66361D01*
X112519Y-66313D01*
X112495Y-66218D01*
X112495Y-66147D01*
X112519Y-66051D01*
X112543Y-66004D01*
X112590Y-65956D01*
X112662Y-65932D01*
X112710Y-65932D01*
X112781Y-65956D01*
X112805Y-65980D01*
G54D11*
X79443Y-76413D02*
X79443Y-75813D01*
X79586Y-75813D01*
X79671Y-75841D01*
X79729Y-75899D01*
X79757Y-75956D01*
X79786Y-76070D01*
X79786Y-76156D01*
X79757Y-76270D01*
X79729Y-76327D01*
X79671Y-76384D01*
X79586Y-76413D01*
X79443Y-76413D01*
X80300Y-76413D02*
X80300Y-76099D01*
X80271Y-76041D01*
X80214Y-76013D01*
X80100Y-76013D01*
X80043Y-76041D01*
X80300Y-76384D02*
X80243Y-76413D01*
X80100Y-76413D01*
X80043Y-76384D01*
X80014Y-76327D01*
X80014Y-76270D01*
X80043Y-76213D01*
X80100Y-76184D01*
X80243Y-76184D01*
X80300Y-76156D01*
X80500Y-76013D02*
X80729Y-76013D01*
X80586Y-75813D02*
X80586Y-76327D01*
X80614Y-76384D01*
X80672Y-76413D01*
X80729Y-76413D01*
X81157Y-76384D02*
X81100Y-76413D01*
X80986Y-76413D01*
X80929Y-76384D01*
X80900Y-76327D01*
X80900Y-76099D01*
X80929Y-76041D01*
X80986Y-76013D01*
X81100Y-76013D01*
X81157Y-76041D01*
X81186Y-76099D01*
X81186Y-76156D01*
X80900Y-76213D01*
X81443Y-76356D02*
X81471Y-76384D01*
X81443Y-76413D01*
X81414Y-76384D01*
X81443Y-76356D01*
X81443Y-76413D01*
X81443Y-76041D02*
X81471Y-76070D01*
X81443Y-76099D01*
X81414Y-76070D01*
X81443Y-76041D01*
X81443Y-76099D01*
X82129Y-75813D02*
X82500Y-75813D01*
X82300Y-76041D01*
X82386Y-76041D01*
X82443Y-76070D01*
X82472Y-76099D01*
X82500Y-76156D01*
X82500Y-76299D01*
X82472Y-76356D01*
X82443Y-76384D01*
X82386Y-76413D01*
X82214Y-76413D01*
X82157Y-76384D01*
X82129Y-76356D01*
X83071Y-76413D02*
X82728Y-76413D01*
X82900Y-76413D02*
X82900Y-75813D01*
X82843Y-75899D01*
X82785Y-75956D01*
X82728Y-75984D01*
X84042Y-76413D02*
X84042Y-75813D01*
X84042Y-76384D02*
X83985Y-76413D01*
X83871Y-76413D01*
X83813Y-76384D01*
X83785Y-76356D01*
X83756Y-76299D01*
X83756Y-76127D01*
X83785Y-76070D01*
X83813Y-76041D01*
X83871Y-76013D01*
X83985Y-76013D01*
X84042Y-76041D01*
X84556Y-76384D02*
X84499Y-76413D01*
X84385Y-76413D01*
X84328Y-76384D01*
X84299Y-76327D01*
X84299Y-76099D01*
X84328Y-76041D01*
X84385Y-76013D01*
X84499Y-76013D01*
X84556Y-76041D01*
X84585Y-76099D01*
X84585Y-76156D01*
X84299Y-76213D01*
X85099Y-76384D02*
X85042Y-76413D01*
X84928Y-76413D01*
X84870Y-76384D01*
X84842Y-76356D01*
X84813Y-76299D01*
X84813Y-76127D01*
X84842Y-76070D01*
X84870Y-76041D01*
X84928Y-76013D01*
X85042Y-76013D01*
X85099Y-76041D01*
X85784Y-75870D02*
X85813Y-75841D01*
X85870Y-75813D01*
X86013Y-75813D01*
X86070Y-75841D01*
X86099Y-75870D01*
X86127Y-75927D01*
X86127Y-75984D01*
X86099Y-76070D01*
X85756Y-76413D01*
X86127Y-76413D01*
X86498Y-75813D02*
X86555Y-75813D01*
X86612Y-75841D01*
X86641Y-75870D01*
X86670Y-75927D01*
X86698Y-76041D01*
X86698Y-76184D01*
X86670Y-76299D01*
X86641Y-76356D01*
X86612Y-76384D01*
X86555Y-76413D01*
X86498Y-76413D01*
X86441Y-76384D01*
X86412Y-76356D01*
X86384Y-76299D01*
X86355Y-76184D01*
X86355Y-76041D01*
X86384Y-75927D01*
X86412Y-75870D01*
X86441Y-75841D01*
X86498Y-75813D01*
X87269Y-76413D02*
X86926Y-76413D01*
X87098Y-76413D02*
X87098Y-75813D01*
X87041Y-75899D01*
X86983Y-75956D01*
X86926Y-75984D01*
X87497Y-75870D02*
X87526Y-75841D01*
X87583Y-75813D01*
X87726Y-75813D01*
X87783Y-75841D01*
X87812Y-75870D01*
X87840Y-75927D01*
X87840Y-75984D01*
X87812Y-76070D01*
X87469Y-76413D01*
X87840Y-76413D01*
G54D10*
X71043Y-77613D02*
X71043Y-77013D01*
X71386Y-77613D02*
X71129Y-77270D01*
X71386Y-77013D02*
X71043Y-77356D01*
X71643Y-77613D02*
X71643Y-77213D01*
X71643Y-77013D02*
X71614Y-77041D01*
X71643Y-77070D01*
X71671Y-77041D01*
X71643Y-77013D01*
X71643Y-77070D01*
X72272Y-77556D02*
X72243Y-77584D01*
X72157Y-77613D01*
X72100Y-77613D01*
X72015Y-77584D01*
X71957Y-77527D01*
X71929Y-77470D01*
X71900Y-77356D01*
X71900Y-77270D01*
X71929Y-77156D01*
X71957Y-77099D01*
X72015Y-77041D01*
X72100Y-77013D01*
X72157Y-77013D01*
X72243Y-77041D01*
X72272Y-77070D01*
X72786Y-77613D02*
X72786Y-77299D01*
X72757Y-77241D01*
X72700Y-77213D01*
X72586Y-77213D01*
X72529Y-77241D01*
X72786Y-77584D02*
X72729Y-77613D01*
X72586Y-77613D01*
X72529Y-77584D01*
X72500Y-77527D01*
X72500Y-77470D01*
X72529Y-77413D01*
X72586Y-77384D01*
X72729Y-77384D01*
X72786Y-77356D01*
X73329Y-77613D02*
X73329Y-77013D01*
X73329Y-77584D02*
X73272Y-77613D01*
X73158Y-77613D01*
X73100Y-77584D01*
X73072Y-77556D01*
X73043Y-77499D01*
X73043Y-77327D01*
X73072Y-77270D01*
X73100Y-77241D01*
X73158Y-77213D01*
X73272Y-77213D01*
X73329Y-77241D01*
X74072Y-77299D02*
X74272Y-77299D01*
X74358Y-77613D02*
X74072Y-77613D01*
X74072Y-77013D01*
X74358Y-77013D01*
X74615Y-77556D02*
X74643Y-77584D01*
X74615Y-77613D01*
X74586Y-77584D01*
X74615Y-77556D01*
X74615Y-77613D01*
X74901Y-77613D02*
X74901Y-77013D01*
X75044Y-77013D01*
X75129Y-77041D01*
X75187Y-77099D01*
X75215Y-77156D01*
X75244Y-77270D01*
X75244Y-77356D01*
X75215Y-77470D01*
X75187Y-77527D01*
X75129Y-77584D01*
X75044Y-77613D01*
X74901Y-77613D01*
X75501Y-77556D02*
X75529Y-77584D01*
X75501Y-77613D01*
X75472Y-77584D01*
X75501Y-77556D01*
X75501Y-77613D01*
X75758Y-77441D02*
X76044Y-77441D01*
X75701Y-77613D02*
X75901Y-77013D01*
X76101Y-77613D01*
X76301Y-77556D02*
X76329Y-77584D01*
X76301Y-77613D01*
X76272Y-77584D01*
X76301Y-77556D01*
X76301Y-77613D01*
G54D11*
X104586Y-76413D02*
X104386Y-76127D01*
X104243Y-76413D02*
X104243Y-75813D01*
X104471Y-75813D01*
X104529Y-75841D01*
X104557Y-75870D01*
X104586Y-75927D01*
X104586Y-76013D01*
X104557Y-76070D01*
X104529Y-76099D01*
X104471Y-76127D01*
X104243Y-76127D01*
X105071Y-76384D02*
X105014Y-76413D01*
X104900Y-76413D01*
X104843Y-76384D01*
X104814Y-76327D01*
X104814Y-76099D01*
X104843Y-76041D01*
X104900Y-76013D01*
X105014Y-76013D01*
X105071Y-76041D01*
X105100Y-76099D01*
X105100Y-76156D01*
X104814Y-76213D01*
X105300Y-76013D02*
X105443Y-76413D01*
X105585Y-76013D01*
X105814Y-76356D02*
X105842Y-76384D01*
X105814Y-76413D01*
X105785Y-76384D01*
X105814Y-76356D01*
X105814Y-76413D01*
X105814Y-76041D02*
X105842Y-76070D01*
X105814Y-76099D01*
X105785Y-76070D01*
X105814Y-76041D01*
X105814Y-76099D01*
X106671Y-75813D02*
X106728Y-75813D01*
X106785Y-75841D01*
X106814Y-75870D01*
X106843Y-75927D01*
X106871Y-76041D01*
X106871Y-76184D01*
X106843Y-76299D01*
X106814Y-76356D01*
X106785Y-76384D01*
X106728Y-76413D01*
X106671Y-76413D01*
X106614Y-76384D01*
X106585Y-76356D01*
X106557Y-76299D01*
X106528Y-76184D01*
X106528Y-76041D01*
X106557Y-75927D01*
X106585Y-75870D01*
X106614Y-75841D01*
X106671Y-75813D01*
X107442Y-76413D02*
X107099Y-76413D01*
X107271Y-76413D02*
X107271Y-75813D01*
X107214Y-75899D01*
X107156Y-75956D01*
X107099Y-75984D01*
G54D10*
X71014Y-76384D02*
X71100Y-76413D01*
X71243Y-76413D01*
X71300Y-76384D01*
X71329Y-76356D01*
X71357Y-76299D01*
X71357Y-76241D01*
X71329Y-76184D01*
X71300Y-76156D01*
X71243Y-76127D01*
X71129Y-76099D01*
X71071Y-76070D01*
X71043Y-76041D01*
X71014Y-75984D01*
X71014Y-75927D01*
X71043Y-75870D01*
X71071Y-75841D01*
X71129Y-75813D01*
X71271Y-75813D01*
X71357Y-75841D01*
X71614Y-76413D02*
X71614Y-76013D01*
X71614Y-75813D02*
X71585Y-75841D01*
X71614Y-75870D01*
X71642Y-75841D01*
X71614Y-75813D01*
X71614Y-75870D01*
X71843Y-76013D02*
X72157Y-76013D01*
X71843Y-76413D01*
X72157Y-76413D01*
X72614Y-76384D02*
X72557Y-76413D01*
X72443Y-76413D01*
X72386Y-76384D01*
X72357Y-76327D01*
X72357Y-76099D01*
X72386Y-76041D01*
X72443Y-76013D01*
X72557Y-76013D01*
X72614Y-76041D01*
X72643Y-76099D01*
X72643Y-76156D01*
X72357Y-76213D01*
X72900Y-76356D02*
X72928Y-76384D01*
X72900Y-76413D01*
X72871Y-76384D01*
X72900Y-76356D01*
X72900Y-76413D01*
X72900Y-76041D02*
X72928Y-76070D01*
X72900Y-76099D01*
X72871Y-76070D01*
X72900Y-76041D01*
X72900Y-76099D01*
X73614Y-76241D02*
X73900Y-76241D01*
X73557Y-76413D02*
X73757Y-75813D01*
X73957Y-76413D01*
X74414Y-76013D02*
X74414Y-76413D01*
X74271Y-75784D02*
X74128Y-76213D01*
X74500Y-76213D01*
X104243Y-77613D02*
X104243Y-77013D01*
X104786Y-77613D02*
X104786Y-77013D01*
X104786Y-77584D02*
X104729Y-77613D01*
X104615Y-77613D01*
X104557Y-77584D01*
X104529Y-77556D01*
X104500Y-77499D01*
X104500Y-77327D01*
X104529Y-77270D01*
X104557Y-77241D01*
X104615Y-77213D01*
X104729Y-77213D01*
X104786Y-77241D01*
X105072Y-77556D02*
X105100Y-77584D01*
X105072Y-77613D01*
X105043Y-77584D01*
X105072Y-77556D01*
X105072Y-77613D01*
X105072Y-77241D02*
X105100Y-77270D01*
X105072Y-77299D01*
X105043Y-77270D01*
X105072Y-77241D01*
X105072Y-77299D01*
X106129Y-77613D02*
X105786Y-77613D01*
X105958Y-77613D02*
X105958Y-77013D01*
X105901Y-77099D01*
X105843Y-77156D01*
X105786Y-77184D01*
X106814Y-76984D02*
X106300Y-77756D01*
X107329Y-77613D02*
X106986Y-77613D01*
X107158Y-77613D02*
X107158Y-77013D01*
X107101Y-77099D01*
X107043Y-77156D01*
X106986Y-77184D01*
G54D11*
X70957Y-74613D02*
X71300Y-74613D01*
X71129Y-75213D02*
X71129Y-74613D01*
X71500Y-75213D02*
X71500Y-74813D01*
X71500Y-74613D02*
X71471Y-74641D01*
X71500Y-74670D01*
X71528Y-74641D01*
X71500Y-74613D01*
X71500Y-74670D01*
X71700Y-74813D02*
X71929Y-74813D01*
X71786Y-74613D02*
X71786Y-75127D01*
X71814Y-75184D01*
X71872Y-75213D01*
X71929Y-75213D01*
X72215Y-75213D02*
X72157Y-75184D01*
X72129Y-75127D01*
X72129Y-74613D01*
X72671Y-75184D02*
X72614Y-75213D01*
X72500Y-75213D01*
X72443Y-75184D01*
X72414Y-75127D01*
X72414Y-74899D01*
X72443Y-74841D01*
X72500Y-74813D01*
X72614Y-74813D01*
X72671Y-74841D01*
X72700Y-74899D01*
X72700Y-74956D01*
X72414Y-75013D01*
X72957Y-75156D02*
X72985Y-75184D01*
X72957Y-75213D01*
X72928Y-75184D01*
X72957Y-75156D01*
X72957Y-75213D01*
X72957Y-74841D02*
X72985Y-74870D01*
X72957Y-74899D01*
X72928Y-74870D01*
X72957Y-74841D01*
X72957Y-74899D01*
X73900Y-74899D02*
X73986Y-74927D01*
X74014Y-74956D01*
X74043Y-75013D01*
X74043Y-75099D01*
X74014Y-75156D01*
X73986Y-75184D01*
X73928Y-75213D01*
X73700Y-75213D01*
X73700Y-74613D01*
X73900Y-74613D01*
X73957Y-74641D01*
X73986Y-74670D01*
X74014Y-74727D01*
X74014Y-74784D01*
X73986Y-74841D01*
X73957Y-74870D01*
X73900Y-74899D01*
X73700Y-74899D01*
X74528Y-75184D02*
X74471Y-75213D01*
X74357Y-75213D01*
X74300Y-75184D01*
X74271Y-75127D01*
X74271Y-74899D01*
X74300Y-74841D01*
X74357Y-74813D01*
X74471Y-74813D01*
X74528Y-74841D01*
X74557Y-74899D01*
X74557Y-74956D01*
X74271Y-75013D01*
X75071Y-75213D02*
X75071Y-74899D01*
X75042Y-74841D01*
X74985Y-74813D01*
X74871Y-74813D01*
X74814Y-74841D01*
X75071Y-75184D02*
X75014Y-75213D01*
X74871Y-75213D01*
X74814Y-75184D01*
X74785Y-75127D01*
X74785Y-75070D01*
X74814Y-75013D01*
X74871Y-74984D01*
X75014Y-74984D01*
X75071Y-74956D01*
X75614Y-74813D02*
X75614Y-75299D01*
X75585Y-75356D01*
X75557Y-75384D01*
X75500Y-75413D01*
X75414Y-75413D01*
X75357Y-75384D01*
X75614Y-75184D02*
X75557Y-75213D01*
X75443Y-75213D01*
X75385Y-75184D01*
X75357Y-75156D01*
X75328Y-75099D01*
X75328Y-74927D01*
X75357Y-74870D01*
X75385Y-74841D01*
X75443Y-74813D01*
X75557Y-74813D01*
X75614Y-74841D01*
X75986Y-75213D02*
X75928Y-75184D01*
X75900Y-75127D01*
X75900Y-74613D01*
X76442Y-75184D02*
X76385Y-75213D01*
X76271Y-75213D01*
X76214Y-75184D01*
X76185Y-75127D01*
X76185Y-74899D01*
X76214Y-74841D01*
X76271Y-74813D01*
X76385Y-74813D01*
X76442Y-74841D01*
X76471Y-74899D01*
X76471Y-74956D01*
X76185Y-75013D01*
X76728Y-75213D02*
X76728Y-74613D01*
X76728Y-74841D02*
X76785Y-74813D01*
X76899Y-74813D01*
X76956Y-74841D01*
X76985Y-74870D01*
X77014Y-74927D01*
X77014Y-75099D01*
X76985Y-75156D01*
X76956Y-75184D01*
X76899Y-75213D01*
X76785Y-75213D01*
X76728Y-75184D01*
X77357Y-75213D02*
X77299Y-75184D01*
X77271Y-75156D01*
X77242Y-75099D01*
X77242Y-74927D01*
X77271Y-74870D01*
X77299Y-74841D01*
X77357Y-74813D01*
X77442Y-74813D01*
X77499Y-74841D01*
X77528Y-74870D01*
X77557Y-74927D01*
X77557Y-75099D01*
X77528Y-75156D01*
X77499Y-75184D01*
X77442Y-75213D01*
X77357Y-75213D01*
X77814Y-74813D02*
X77814Y-75213D01*
X77814Y-74870D02*
X77842Y-74841D01*
X77900Y-74813D01*
X77985Y-74813D01*
X78042Y-74841D01*
X78071Y-74899D01*
X78071Y-75213D01*
X78585Y-75184D02*
X78528Y-75213D01*
X78414Y-75213D01*
X78357Y-75184D01*
X78328Y-75127D01*
X78328Y-74899D01*
X78357Y-74841D01*
X78414Y-74813D01*
X78528Y-74813D01*
X78585Y-74841D01*
X78614Y-74899D01*
X78614Y-74956D01*
X78328Y-75013D01*
X78871Y-74984D02*
X79328Y-74984D01*
X79585Y-75184D02*
X79671Y-75213D01*
X79814Y-75213D01*
X79871Y-75184D01*
X79900Y-75156D01*
X79928Y-75099D01*
X79928Y-75041D01*
X79900Y-74984D01*
X79871Y-74956D01*
X79814Y-74927D01*
X79700Y-74899D01*
X79642Y-74870D01*
X79614Y-74841D01*
X79585Y-74784D01*
X79585Y-74727D01*
X79614Y-74670D01*
X79642Y-74641D01*
X79700Y-74613D01*
X79842Y-74613D01*
X79928Y-74641D01*
X80185Y-74813D02*
X80185Y-75413D01*
X80185Y-74841D02*
X80242Y-74813D01*
X80356Y-74813D01*
X80413Y-74841D01*
X80442Y-74870D01*
X80471Y-74927D01*
X80471Y-75099D01*
X80442Y-75156D01*
X80413Y-75184D01*
X80356Y-75213D01*
X80242Y-75213D01*
X80185Y-75184D01*
X80985Y-75213D02*
X80985Y-74899D01*
X80956Y-74841D01*
X80899Y-74813D01*
X80785Y-74813D01*
X80728Y-74841D01*
X80985Y-75184D02*
X80928Y-75213D01*
X80785Y-75213D01*
X80728Y-75184D01*
X80699Y-75127D01*
X80699Y-75070D01*
X80728Y-75013D01*
X80785Y-74984D01*
X80928Y-74984D01*
X80985Y-74956D01*
X81271Y-75213D02*
X81271Y-74813D01*
X81271Y-74927D02*
X81299Y-74870D01*
X81328Y-74841D01*
X81385Y-74813D01*
X81442Y-74813D01*
X81556Y-74813D02*
X81785Y-74813D01*
X81642Y-74613D02*
X81642Y-75127D01*
X81670Y-75184D01*
X81728Y-75213D01*
X81785Y-75213D01*
X82242Y-75213D02*
X82242Y-74899D01*
X82213Y-74841D01*
X82156Y-74813D01*
X82042Y-74813D01*
X81985Y-74841D01*
X82242Y-75184D02*
X82185Y-75213D01*
X82042Y-75213D01*
X81985Y-75184D01*
X81956Y-75127D01*
X81956Y-75070D01*
X81985Y-75013D01*
X82042Y-74984D01*
X82185Y-74984D01*
X82242Y-74956D01*
X82528Y-74813D02*
X82528Y-75213D01*
X82528Y-74870D02*
X82556Y-74841D01*
X82614Y-74813D01*
X82699Y-74813D01*
X82756Y-74841D01*
X82785Y-74899D01*
X82785Y-75213D01*
X83328Y-74613D02*
X83214Y-74613D01*
X83157Y-74641D01*
X83128Y-74670D01*
X83071Y-74756D01*
X83042Y-74870D01*
X83042Y-75099D01*
X83071Y-75156D01*
X83099Y-75184D01*
X83157Y-75213D01*
X83271Y-75213D01*
X83328Y-75184D01*
X83357Y-75156D01*
X83385Y-75099D01*
X83385Y-74956D01*
X83357Y-74899D01*
X83328Y-74870D01*
X83271Y-74841D01*
X83157Y-74841D01*
X83099Y-74870D01*
X83071Y-74899D01*
X83042Y-74956D01*
X83642Y-74984D02*
X84099Y-74984D01*
X84728Y-75156D02*
X84699Y-75184D01*
X84613Y-75213D01*
X84556Y-75213D01*
X84471Y-75184D01*
X84413Y-75127D01*
X84385Y-75070D01*
X84356Y-74956D01*
X84356Y-74870D01*
X84385Y-74756D01*
X84413Y-74699D01*
X84471Y-74641D01*
X84556Y-74613D01*
X84613Y-74613D01*
X84699Y-74641D01*
X84728Y-74670D01*
X85242Y-75213D02*
X85242Y-74899D01*
X85213Y-74841D01*
X85156Y-74813D01*
X85042Y-74813D01*
X84985Y-74841D01*
X85242Y-75184D02*
X85185Y-75213D01*
X85042Y-75213D01*
X84985Y-75184D01*
X84956Y-75127D01*
X84956Y-75070D01*
X84985Y-75013D01*
X85042Y-74984D01*
X85185Y-74984D01*
X85242Y-74956D01*
X85528Y-74813D02*
X85528Y-75413D01*
X85528Y-74841D02*
X85585Y-74813D01*
X85699Y-74813D01*
X85756Y-74841D01*
X85785Y-74870D01*
X85814Y-74927D01*
X85814Y-75099D01*
X85785Y-75156D01*
X85756Y-75184D01*
X85699Y-75213D01*
X85585Y-75213D01*
X85528Y-75184D01*
X86299Y-75184D02*
X86242Y-75213D01*
X86128Y-75213D01*
X86071Y-75184D01*
X86042Y-75127D01*
X86042Y-74899D01*
X86071Y-74841D01*
X86128Y-74813D01*
X86242Y-74813D01*
X86299Y-74841D01*
X86328Y-74899D01*
X86328Y-74956D01*
X86042Y-75013D01*
G54D10*
X71243Y-72499D02*
X71043Y-72499D01*
X71043Y-72813D02*
X71043Y-72213D01*
X71329Y-72213D01*
X71557Y-72813D02*
X71557Y-72413D01*
X71557Y-72213D02*
X71528Y-72241D01*
X71557Y-72270D01*
X71585Y-72241D01*
X71557Y-72213D01*
X71557Y-72270D01*
X71929Y-72813D02*
X71871Y-72784D01*
X71843Y-72727D01*
X71843Y-72213D01*
X72385Y-72784D02*
X72328Y-72813D01*
X72214Y-72813D01*
X72157Y-72784D01*
X72128Y-72727D01*
X72128Y-72499D01*
X72157Y-72441D01*
X72214Y-72413D01*
X72328Y-72413D01*
X72385Y-72441D01*
X72414Y-72499D01*
X72414Y-72556D01*
X72128Y-72613D01*
X72671Y-72756D02*
X72699Y-72784D01*
X72671Y-72813D01*
X72642Y-72784D01*
X72671Y-72756D01*
X72671Y-72813D01*
X72671Y-72441D02*
X72699Y-72470D01*
X72671Y-72499D01*
X72642Y-72470D01*
X72671Y-72441D01*
X72671Y-72499D01*
X73414Y-72813D02*
X73414Y-72213D01*
X73414Y-72441D02*
X73471Y-72413D01*
X73585Y-72413D01*
X73642Y-72441D01*
X73671Y-72470D01*
X73700Y-72527D01*
X73700Y-72699D01*
X73671Y-72756D01*
X73642Y-72784D01*
X73585Y-72813D01*
X73471Y-72813D01*
X73414Y-72784D01*
X74043Y-72813D02*
X73985Y-72784D01*
X73957Y-72756D01*
X73928Y-72699D01*
X73928Y-72527D01*
X73957Y-72470D01*
X73985Y-72441D01*
X74043Y-72413D01*
X74128Y-72413D01*
X74185Y-72441D01*
X74214Y-72470D01*
X74243Y-72527D01*
X74243Y-72699D01*
X74214Y-72756D01*
X74185Y-72784D01*
X74128Y-72813D01*
X74043Y-72813D01*
X74500Y-72413D02*
X74500Y-72813D01*
X74500Y-72470D02*
X74528Y-72441D01*
X74586Y-72413D01*
X74671Y-72413D01*
X74728Y-72441D01*
X74757Y-72499D01*
X74757Y-72813D01*
X75271Y-72784D02*
X75214Y-72813D01*
X75100Y-72813D01*
X75043Y-72784D01*
X75014Y-72727D01*
X75014Y-72499D01*
X75043Y-72441D01*
X75100Y-72413D01*
X75214Y-72413D01*
X75271Y-72441D01*
X75300Y-72499D01*
X75300Y-72556D01*
X75014Y-72613D01*
X75471Y-72413D02*
X75700Y-72413D01*
X75557Y-72813D02*
X75557Y-72299D01*
X75585Y-72241D01*
X75643Y-72213D01*
X75700Y-72213D01*
X75900Y-72413D02*
X75900Y-73013D01*
X75900Y-72441D02*
X75957Y-72413D01*
X76071Y-72413D01*
X76128Y-72441D01*
X76157Y-72470D01*
X76186Y-72527D01*
X76186Y-72699D01*
X76157Y-72756D01*
X76128Y-72784D01*
X76071Y-72813D01*
X75957Y-72813D01*
X75900Y-72784D01*
X76700Y-72413D02*
X76700Y-72899D01*
X76671Y-72956D01*
X76643Y-72984D01*
X76586Y-73013D01*
X76500Y-73013D01*
X76443Y-72984D01*
X76700Y-72784D02*
X76643Y-72813D01*
X76529Y-72813D01*
X76471Y-72784D01*
X76443Y-72756D01*
X76414Y-72699D01*
X76414Y-72527D01*
X76443Y-72470D01*
X76471Y-72441D01*
X76529Y-72413D01*
X76643Y-72413D01*
X76700Y-72441D01*
X77243Y-72813D02*
X77243Y-72499D01*
X77214Y-72441D01*
X77157Y-72413D01*
X77043Y-72413D01*
X76986Y-72441D01*
X77243Y-72784D02*
X77186Y-72813D01*
X77043Y-72813D01*
X76986Y-72784D01*
X76957Y-72727D01*
X76957Y-72670D01*
X76986Y-72613D01*
X77043Y-72584D01*
X77186Y-72584D01*
X77243Y-72556D01*
X77529Y-72756D02*
X77557Y-72784D01*
X77529Y-72813D01*
X77500Y-72784D01*
X77529Y-72756D01*
X77529Y-72813D01*
X77815Y-72813D02*
X77815Y-72213D01*
X77815Y-72441D02*
X77872Y-72413D01*
X77986Y-72413D01*
X78043Y-72441D01*
X78072Y-72470D01*
X78101Y-72527D01*
X78101Y-72699D01*
X78072Y-72756D01*
X78043Y-72784D01*
X77986Y-72813D01*
X77872Y-72813D01*
X77815Y-72784D01*
X78358Y-72813D02*
X78358Y-72413D01*
X78358Y-72527D02*
X78386Y-72470D01*
X78415Y-72441D01*
X78472Y-72413D01*
X78529Y-72413D01*
X78986Y-72813D02*
X78986Y-72213D01*
X78986Y-72784D02*
X78929Y-72813D01*
X78815Y-72813D01*
X78757Y-72784D01*
X78729Y-72756D01*
X78700Y-72699D01*
X78700Y-72527D01*
X78729Y-72470D01*
X78757Y-72441D01*
X78815Y-72413D01*
X78929Y-72413D01*
X78986Y-72441D01*
X71014Y-73984D02*
X71100Y-74013D01*
X71243Y-74013D01*
X71300Y-73984D01*
X71329Y-73956D01*
X71357Y-73899D01*
X71357Y-73841D01*
X71329Y-73784D01*
X71300Y-73756D01*
X71243Y-73727D01*
X71129Y-73699D01*
X71071Y-73670D01*
X71043Y-73641D01*
X71014Y-73584D01*
X71014Y-73527D01*
X71043Y-73470D01*
X71071Y-73441D01*
X71129Y-73413D01*
X71271Y-73413D01*
X71357Y-73441D01*
X71614Y-74013D02*
X71614Y-73413D01*
X71871Y-74013D02*
X71871Y-73699D01*
X71842Y-73641D01*
X71785Y-73613D01*
X71700Y-73613D01*
X71642Y-73641D01*
X71614Y-73670D01*
X72385Y-73984D02*
X72328Y-74013D01*
X72214Y-74013D01*
X72157Y-73984D01*
X72128Y-73927D01*
X72128Y-73699D01*
X72157Y-73641D01*
X72214Y-73613D01*
X72328Y-73613D01*
X72385Y-73641D01*
X72414Y-73699D01*
X72414Y-73756D01*
X72128Y-73813D01*
X72899Y-73984D02*
X72842Y-74013D01*
X72728Y-74013D01*
X72671Y-73984D01*
X72642Y-73927D01*
X72642Y-73699D01*
X72671Y-73641D01*
X72728Y-73613D01*
X72842Y-73613D01*
X72899Y-73641D01*
X72928Y-73699D01*
X72928Y-73756D01*
X72642Y-73813D01*
X73099Y-73613D02*
X73328Y-73613D01*
X73185Y-73413D02*
X73185Y-73927D01*
X73213Y-73984D01*
X73271Y-74013D01*
X73328Y-74013D01*
X73528Y-73956D02*
X73556Y-73984D01*
X73528Y-74013D01*
X73499Y-73984D01*
X73528Y-73956D01*
X73528Y-74013D01*
X73528Y-73641D02*
X73556Y-73670D01*
X73528Y-73699D01*
X73499Y-73670D01*
X73528Y-73641D01*
X73528Y-73699D01*
X74585Y-74013D02*
X74242Y-74013D01*
X74414Y-74013D02*
X74414Y-73413D01*
X74357Y-73499D01*
X74299Y-73556D01*
X74242Y-73584D01*
X75270Y-73384D02*
X74756Y-74156D01*
X75785Y-74013D02*
X75442Y-74013D01*
X75614Y-74013D02*
X75614Y-73413D01*
X75557Y-73499D01*
X75499Y-73556D01*
X75442Y-73584D01*
X71043Y-70413D02*
X71043Y-69813D01*
X71243Y-70241D01*
X71443Y-69813D01*
X71443Y-70413D01*
X71729Y-70413D02*
X71729Y-70013D01*
X71729Y-69813D02*
X71700Y-69841D01*
X71729Y-69870D01*
X71757Y-69841D01*
X71729Y-69813D01*
X71729Y-69870D01*
X72272Y-70384D02*
X72215Y-70413D01*
X72101Y-70413D01*
X72043Y-70384D01*
X72015Y-70356D01*
X71986Y-70299D01*
X71986Y-70127D01*
X72015Y-70070D01*
X72043Y-70041D01*
X72101Y-70013D01*
X72215Y-70013D01*
X72272Y-70041D01*
X72529Y-70413D02*
X72529Y-69813D01*
X72786Y-70413D02*
X72786Y-70099D01*
X72757Y-70041D01*
X72700Y-70013D01*
X72615Y-70013D01*
X72557Y-70041D01*
X72529Y-70070D01*
X73329Y-70413D02*
X73329Y-70099D01*
X73300Y-70041D01*
X73243Y-70013D01*
X73129Y-70013D01*
X73072Y-70041D01*
X73329Y-70384D02*
X73272Y-70413D01*
X73129Y-70413D01*
X73072Y-70384D01*
X73043Y-70327D01*
X73043Y-70270D01*
X73072Y-70213D01*
X73129Y-70184D01*
X73272Y-70184D01*
X73329Y-70156D01*
X73843Y-70384D02*
X73786Y-70413D01*
X73672Y-70413D01*
X73615Y-70384D01*
X73586Y-70327D01*
X73586Y-70099D01*
X73615Y-70041D01*
X73672Y-70013D01*
X73786Y-70013D01*
X73843Y-70041D01*
X73872Y-70099D01*
X73872Y-70156D01*
X73586Y-70213D01*
X74215Y-70413D02*
X74157Y-70384D01*
X74129Y-70327D01*
X74129Y-69813D01*
X74900Y-70413D02*
X74900Y-69813D01*
X75100Y-70241D01*
X75300Y-69813D01*
X75300Y-70413D01*
X75843Y-70413D02*
X75843Y-70099D01*
X75814Y-70041D01*
X75757Y-70013D01*
X75643Y-70013D01*
X75586Y-70041D01*
X75843Y-70384D02*
X75786Y-70413D01*
X75643Y-70413D01*
X75586Y-70384D01*
X75557Y-70327D01*
X75557Y-70270D01*
X75586Y-70213D01*
X75643Y-70184D01*
X75786Y-70184D01*
X75843Y-70156D01*
X76386Y-70013D02*
X76386Y-70499D01*
X76357Y-70556D01*
X76329Y-70584D01*
X76272Y-70613D01*
X76186Y-70613D01*
X76129Y-70584D01*
X76386Y-70384D02*
X76329Y-70413D01*
X76215Y-70413D01*
X76157Y-70384D01*
X76129Y-70356D01*
X76100Y-70299D01*
X76100Y-70127D01*
X76129Y-70070D01*
X76157Y-70041D01*
X76215Y-70013D01*
X76329Y-70013D01*
X76386Y-70041D01*
X76615Y-70013D02*
X76758Y-70413D01*
X76900Y-70013D02*
X76758Y-70413D01*
X76700Y-70556D01*
X76672Y-70584D01*
X76615Y-70613D01*
X77386Y-70413D02*
X77386Y-70099D01*
X77357Y-70041D01*
X77300Y-70013D01*
X77186Y-70013D01*
X77129Y-70041D01*
X77386Y-70384D02*
X77329Y-70413D01*
X77186Y-70413D01*
X77129Y-70384D01*
X77100Y-70327D01*
X77100Y-70270D01*
X77129Y-70213D01*
X77186Y-70184D01*
X77329Y-70184D01*
X77386Y-70156D01*
X77672Y-70413D02*
X77672Y-70013D01*
X77672Y-70127D02*
X77700Y-70070D01*
X77729Y-70041D01*
X77786Y-70013D01*
X77843Y-70013D01*
X70300Y-69570D02*
X70300Y-77970D01*
X70300Y-71970D02*
X112300Y-71970D01*
X70300Y-69570D02*
X112300Y-69570D01*
X70300Y-74370D02*
X112300Y-74370D01*
X103500Y-75570D02*
X103500Y-77970D01*
X70300Y-76770D02*
X112300Y-76770D01*
X70300Y-75570D02*
X112300Y-75570D01*
X76900Y-75570D02*
X76900Y-76770D01*
G54D11*
X79910Y-71198D02*
X79910Y-70398D01*
X80196Y-70664D02*
X80196Y-71198D01*
X80196Y-70741D02*
X80224Y-70703D01*
X80282Y-70664D01*
X80367Y-70664D01*
X80424Y-70703D01*
X80453Y-70779D01*
X80453Y-71198D01*
X80739Y-70664D02*
X80739Y-71198D01*
X80739Y-70741D02*
X80767Y-70703D01*
X80825Y-70664D01*
X80910Y-70664D01*
X80967Y-70703D01*
X80996Y-70779D01*
X80996Y-71198D01*
X81510Y-71160D02*
X81453Y-71198D01*
X81339Y-71198D01*
X81282Y-71160D01*
X81253Y-71084D01*
X81253Y-70779D01*
X81282Y-70703D01*
X81339Y-70664D01*
X81453Y-70664D01*
X81510Y-70703D01*
X81539Y-70779D01*
X81539Y-70855D01*
X81253Y-70931D01*
X81796Y-71198D02*
X81796Y-70664D01*
X81796Y-70817D02*
X81824Y-70741D01*
X81853Y-70703D01*
X81910Y-70664D01*
X81967Y-70664D01*
X82595Y-70474D02*
X82624Y-70436D01*
X82681Y-70398D01*
X82824Y-70398D01*
X82881Y-70436D01*
X82910Y-70474D01*
X82938Y-70550D01*
X82938Y-70626D01*
X82910Y-70741D01*
X82567Y-71198D01*
X82938Y-71198D01*
G54D12*
X72736Y-29504D03*
G54D13*
X75098Y-29504D03*
G54D14*
X51949Y-32949D03*
X52956Y-32949D03*
X51949Y-31949D03*
X52956Y-31949D03*
X52956Y-35949D03*
X51949Y-35949D03*
X52956Y-36949D03*
X51949Y-36949D03*
X52956Y-33949D03*
X51949Y-33949D03*
X52956Y-34949D03*
X51949Y-34949D03*
X51949Y-38949D03*
X52956Y-38949D03*
X51949Y-37949D03*
X52956Y-37949D03*
X51949Y-40949D03*
X52956Y-40949D03*
X51949Y-39949D03*
X52956Y-39949D03*
X55610Y-29925D03*
X54610Y-29925D03*
X53610Y-29925D03*
X50610Y-29925D03*
X51610Y-29925D03*
X52610Y-29925D03*
G54D15*
X46431Y-27931D03*
X72431Y-26681D03*
X72431Y-45681D03*
X46431Y-44431D03*
G54D14*
X70431Y-26181D03*
X70431Y-27181D03*
X69431Y-26181D03*
X69431Y-27181D03*
X68431Y-26181D03*
X68431Y-27181D03*
X67431Y-26181D03*
X67431Y-27181D03*
X66431Y-26181D03*
X66431Y-27181D03*
X65431Y-26181D03*
X65431Y-27181D03*
X64431Y-26181D03*
X64431Y-27181D03*
X63431Y-26181D03*
X63431Y-27181D03*
X62431Y-26181D03*
X62431Y-27181D03*
X61431Y-26181D03*
X61431Y-27181D03*
X60431Y-26181D03*
X60431Y-27181D03*
X59431Y-26181D03*
X59431Y-27181D03*
X58431Y-26181D03*
X58431Y-27181D03*
X57431Y-26181D03*
X57431Y-27181D03*
X56431Y-26181D03*
X56431Y-27181D03*
X55431Y-26181D03*
X55431Y-27181D03*
X54431Y-26181D03*
X54431Y-27181D03*
X53431Y-26181D03*
X53431Y-27181D03*
X52431Y-26181D03*
X52431Y-27181D03*
X51431Y-26181D03*
X51431Y-27181D03*
X50431Y-26181D03*
X50431Y-27181D03*
X49431Y-26181D03*
X49431Y-27181D03*
X48431Y-26181D03*
X48431Y-27181D03*
X70431Y-45181D03*
X70431Y-46181D03*
X69431Y-45181D03*
X69431Y-46181D03*
X68431Y-45181D03*
X68431Y-46181D03*
X67431Y-45181D03*
X67431Y-46181D03*
X66431Y-45181D03*
X66431Y-46181D03*
X65431Y-45181D03*
X65431Y-46181D03*
X64431Y-45181D03*
X64431Y-46181D03*
X63431Y-45181D03*
X63431Y-46181D03*
X62431Y-45181D03*
X62431Y-46181D03*
X61431Y-45181D03*
X61431Y-46181D03*
X60431Y-45181D03*
X60431Y-46181D03*
X59431Y-45181D03*
X59431Y-46181D03*
X58431Y-45181D03*
X58431Y-46181D03*
X57431Y-45181D03*
X57431Y-46181D03*
X56431Y-45181D03*
X56431Y-46181D03*
X55431Y-45181D03*
X55431Y-46181D03*
X54431Y-45181D03*
X54431Y-46181D03*
X53431Y-45181D03*
X53431Y-46181D03*
X52431Y-45181D03*
X52431Y-46181D03*
X51431Y-45181D03*
X51431Y-46181D03*
X50431Y-45181D03*
X50431Y-46181D03*
X49431Y-45181D03*
X49431Y-46181D03*
X48431Y-45181D03*
X48431Y-46181D03*
X75431Y-31931D03*
X75431Y-32931D03*
X74431Y-31931D03*
X74431Y-32931D03*
X73431Y-31931D03*
X73431Y-32931D03*
X72431Y-31931D03*
X72431Y-32931D03*
X71431Y-31931D03*
X71431Y-32931D03*
X48059Y-32949D03*
X49066Y-32949D03*
X48059Y-31949D03*
X49066Y-31949D03*
X49066Y-35949D03*
X48059Y-35949D03*
X49066Y-36949D03*
X48059Y-36949D03*
X49066Y-33949D03*
X48059Y-33949D03*
X49066Y-34949D03*
X48059Y-34949D03*
X48059Y-38949D03*
X49066Y-38949D03*
X48059Y-37949D03*
X49066Y-37949D03*
X48059Y-40949D03*
X49066Y-40949D03*
X48059Y-39949D03*
X49066Y-39949D03*
G54D16*
X45980Y-38726D03*
X45980Y-37726D03*
X45980Y-36726D03*
X45980Y-33726D03*
X45980Y-34726D03*
X45980Y-35726D03*
G54D17*
X55122Y-44465D03*
X69445Y-42656D03*
X55465Y-44453D03*
X69334Y-41756D03*
X55299Y-44644D03*
X54795Y-44461D03*
X54961Y-44652D03*
X69470Y-42400D03*
X69384Y-42915D03*
X69494Y-41514D03*
X69331Y-42209D03*
X64945Y-38055D03*
X66285Y-39343D03*
X68063Y-35929D03*
X65041Y-37118D03*
X67717Y-36339D03*
X64646Y-29106D03*
X65138Y-29301D03*
X64984Y-37669D03*
X68085Y-36203D03*
X66264Y-31835D03*
X65882Y-33504D03*
X65091Y-36565D03*
X66067Y-34571D03*
X64565Y-36892D03*
X62254Y-37620D03*
X61404Y-37677D03*
X61415Y-36874D03*
X62189Y-36898D03*
X61819Y-39673D03*
X58661Y-31537D03*
X61654Y-30173D03*
X62984Y-37291D03*
X64559Y-38862D03*
X62197Y-36102D03*
X60622Y-37673D03*
X61016Y-36492D03*
X59854Y-39689D03*
X60610Y-38846D03*
X62594Y-33583D03*
X63406Y-36874D03*
X63671Y-33211D03*
X61429Y-38453D03*
X63740Y-35724D03*
X63366Y-38465D03*
X61126Y-33622D03*
X62181Y-35323D03*
X65122Y-33689D03*
X62094Y-29244D03*
X65262Y-35467D03*
X56642Y-33697D03*
X61039Y-35343D03*
X63756Y-40035D03*
X61791Y-39256D03*
X64543Y-37642D03*
X63760Y-38063D03*
X61398Y-39240D03*
X64543Y-35323D03*
X59821Y-38083D03*
X56774Y-42506D03*
X58289Y-39222D03*
X56634Y-44146D03*
X58437Y-39854D03*
X59835Y-36496D03*
X58384Y-40449D03*
X58067Y-35350D03*
X58461Y-39539D03*
X59843Y-38846D03*
X56961Y-38982D03*
X59825Y-38490D03*
X56502Y-38591D03*
X60602Y-38091D03*
X60236Y-38461D03*
X60236Y-37665D03*
X60224Y-38069D03*
X59819Y-37689D03*
X60638Y-36909D03*
X59858Y-37268D03*
X60248Y-36520D03*
G54D18*
X57421Y-36541D03*
G54D17*
X60226Y-36108D03*
X60610Y-36488D03*
X56211Y-34642D03*
X57659Y-36081D03*
X59831Y-36100D03*
X59848Y-35728D03*
G54D18*
X63602Y-27984D03*
X62661Y-28012D03*
G54D17*
X65449Y-34016D03*
X62217Y-34949D03*
X65098Y-33031D03*
X63441Y-33467D03*
X65067Y-33350D03*
X58498Y-36089D03*
X64980Y-40118D03*
X62594Y-34543D03*
X65598Y-29134D03*
X66386Y-38736D03*
X64476Y-29331D03*
X68043Y-40008D03*
X58559Y-40213D03*
X69047Y-38165D03*
X63659Y-32839D03*
X62685Y-30555D03*
X69071Y-37157D03*
X57555Y-40228D03*
X61785Y-33606D03*
X55921Y-42787D03*
X56516Y-37931D03*
X63752Y-39264D03*
X54398Y-42862D03*
X62571Y-36909D03*
X61799Y-37287D03*
X64539Y-38091D03*
X65665Y-34740D03*
X71374Y-29445D03*
G54D18*
X61413Y-35724D03*
X67323Y-41370D03*
G54D17*
X58307Y-33543D03*
X56024Y-43606D03*
X62980Y-39687D03*
X61390Y-37303D03*
X59850Y-35341D03*
X61835Y-38858D03*
X63776Y-35311D03*
X63370Y-37307D03*
X64998Y-38461D03*
X56394Y-44157D03*
X69057Y-36142D03*
X64173Y-36549D03*
X65146Y-37898D03*
G54D18*
X55768Y-43878D03*
G54D17*
X61024Y-39650D03*
X61024Y-29969D03*
X73681Y-43331D03*
X59831Y-39224D03*
X61800Y-38075D03*
X73669Y-41972D03*
X60228Y-37272D03*
X55398Y-41614D03*
X65445Y-34575D03*
X64972Y-39638D03*
X68776Y-42551D03*
X64969Y-39051D03*
X68650Y-42012D03*
X56559Y-42181D03*
X55819Y-41417D03*
G54D18*
X65579Y-43575D03*
G54D17*
X67181Y-42169D03*
X69819Y-29744D03*
X67961Y-28610D03*
X61797Y-34923D03*
X60630Y-35327D03*
X60226Y-35321D03*
X60620Y-35709D03*
X60228Y-35715D03*
X57252Y-30598D03*
X57559Y-30587D03*
X57874Y-30598D03*
X58189Y-30591D03*
X58504Y-30598D03*
X58819Y-30618D03*
X61008Y-35720D03*
X59148Y-30654D03*
X59445Y-30626D03*
X61407Y-34933D03*
X61421Y-35346D03*
X61801Y-35317D03*
X60079Y-30646D03*
X59768Y-30626D03*
X64683Y-32431D03*
X63362Y-35325D03*
X62984Y-35331D03*
X62531Y-33134D03*
X62776Y-33331D03*
X62126Y-33406D03*
X61720Y-31996D03*
X61425Y-31815D03*
X60965Y-30673D03*
X61976Y-31283D03*
X62606Y-31563D03*
X62915Y-31419D03*
X63951Y-31951D03*
X63860Y-31376D03*
X64177Y-31480D03*
X64807Y-31421D03*
X61165Y-33272D03*
X60394Y-30646D03*
X62193Y-34551D03*
X63071Y-30896D03*
X62711Y-30862D03*
G54D19*
X55465Y-44614D02*
X55544Y-44535D01*
X55225Y-44535D02*
X55469Y-44535D01*
X69402Y-42213D02*
X69402Y-42201D01*
X69445Y-42656D02*
X69442Y-42843D01*
X55665Y-44594D02*
X55665Y-44535D01*
X69442Y-42843D02*
X69402Y-42843D01*
G54D20*
X71870Y-29504D02*
X72736Y-29504D01*
G54D19*
X69402Y-42220D02*
X69402Y-42201D01*
G54D20*
X69402Y-41858D02*
X69402Y-42220D01*
X69402Y-42220D02*
X69402Y-42898D01*
G54D19*
X55437Y-44567D02*
X55287Y-44567D01*
G54D20*
X69402Y-42898D02*
X69402Y-43125D01*
G54D19*
X69402Y-42843D02*
X69402Y-42898D01*
X69494Y-41514D02*
X69465Y-41717D01*
X69402Y-42201D02*
X69402Y-42201D01*
X69470Y-42400D02*
X69402Y-42201D01*
G54D20*
X55469Y-44535D02*
X55122Y-44535D01*
G54D19*
X69402Y-42220D02*
X69402Y-42220D01*
X54870Y-44535D02*
X54869Y-44535D01*
G54D20*
X54870Y-44535D02*
X54799Y-44535D01*
G54D19*
X69384Y-42915D02*
X69351Y-42898D01*
G54D20*
X54799Y-44535D02*
X54799Y-44535D01*
G54D19*
X55122Y-44465D02*
X55122Y-44535D01*
G54D21*
X71870Y-29504D02*
X69402Y-31972D01*
G54D19*
X54961Y-44652D02*
X54799Y-44630D01*
G54D20*
X55665Y-44535D02*
X55287Y-44535D01*
G54D19*
X55299Y-44644D02*
X55225Y-44535D01*
X54799Y-44630D02*
X54799Y-44535D01*
X55469Y-44535D02*
X55465Y-44531D01*
X55465Y-44531D02*
X55465Y-44453D01*
X69465Y-41717D02*
X69402Y-41717D01*
G54D20*
X67992Y-44535D02*
X55665Y-44535D01*
G54D19*
X69402Y-41792D02*
X69402Y-41792D01*
X69335Y-42213D02*
X69402Y-42213D01*
X69351Y-42898D02*
X69402Y-42898D01*
X69402Y-41792D02*
X69402Y-41858D01*
G54D20*
X69402Y-43125D02*
X67992Y-44535D01*
G54D19*
X55287Y-44567D02*
X55287Y-44535D01*
G54D20*
X55287Y-44535D02*
X55469Y-44535D01*
G54D19*
X69331Y-42209D02*
X69335Y-42213D01*
X69402Y-42898D02*
X69402Y-42898D01*
X55469Y-44535D02*
X55437Y-44567D01*
X69334Y-41756D02*
X69402Y-41756D01*
G54D20*
X69402Y-31972D02*
X69402Y-41858D01*
X71870Y-29504D02*
X69402Y-31972D01*
G54D19*
X55544Y-44535D02*
X55606Y-44535D01*
X55606Y-44535D02*
X55665Y-44594D01*
X54869Y-44535D02*
X54795Y-44461D01*
G54D20*
X55122Y-44535D02*
X54870Y-44535D01*
G54D19*
X69402Y-41717D02*
X69402Y-41756D01*
X69402Y-41756D02*
X69402Y-41792D01*
G54D22*
X64945Y-38055D02*
X66236Y-39346D01*
X66261Y-39346D02*
X66285Y-39343D01*
X66236Y-39346D02*
X66261Y-39346D01*
X66812Y-37181D02*
X65049Y-37132D01*
G54D21*
X65850Y-29710D02*
X65850Y-31665D01*
X64646Y-29106D02*
X65236Y-29106D01*
X66925Y-35929D02*
X68063Y-35929D01*
X66385Y-32200D02*
X66385Y-35389D01*
X65236Y-29106D02*
X65850Y-29710D01*
X65850Y-31665D02*
X66385Y-32200D01*
X66385Y-35389D02*
X66925Y-35929D01*
G54D22*
X65055Y-37132D02*
X65049Y-37132D01*
X65041Y-37118D02*
X65055Y-37132D01*
X67717Y-36339D02*
X66812Y-37181D01*
G54D21*
X68036Y-36173D02*
X66920Y-36173D01*
X66260Y-35513D02*
X66920Y-36173D01*
G54D22*
X68083Y-36173D02*
X68114Y-36173D01*
G54D21*
X64992Y-37677D02*
X64984Y-37669D01*
X67996Y-36492D02*
X67996Y-36213D01*
X67996Y-36492D02*
X66811Y-37677D01*
X65144Y-29301D02*
X65669Y-29976D01*
G54D22*
X68114Y-36173D02*
X68085Y-36203D01*
G54D21*
X66260Y-32248D02*
X66260Y-35513D01*
G54D22*
X68036Y-36173D02*
X68083Y-36173D01*
G54D21*
X65144Y-29301D02*
X65138Y-29301D01*
X66811Y-37677D02*
X64992Y-37677D01*
X67996Y-36213D02*
X68036Y-36173D01*
X65669Y-29976D02*
X65669Y-31657D01*
X65669Y-31657D02*
X66260Y-32248D01*
X65756Y-26709D02*
X66024Y-26977D01*
X63431Y-26181D02*
X63959Y-26709D01*
X66024Y-26977D02*
X66024Y-31595D01*
X66024Y-31595D02*
X66264Y-31835D01*
X63959Y-26709D02*
X65756Y-26709D01*
X65091Y-36565D02*
X65145Y-36563D01*
X65882Y-36118D02*
X65882Y-33504D01*
X65858Y-36142D02*
X65882Y-36118D01*
X65437Y-36563D02*
X65858Y-36142D01*
X65145Y-36563D02*
X65437Y-36563D01*
G54D22*
X65445Y-36902D02*
X66016Y-36331D01*
X64565Y-36892D02*
X65445Y-36902D01*
X66016Y-36331D02*
X66067Y-34571D01*
X65122Y-33689D02*
X65122Y-33744D01*
X65122Y-33744D02*
X65138Y-33760D01*
G54D19*
X56634Y-42662D02*
X56774Y-42506D01*
G54D23*
X58461Y-39539D02*
X58457Y-39539D01*
G54D19*
X56634Y-44146D02*
X56634Y-42662D01*
G54D23*
X58437Y-39854D02*
X58441Y-39854D01*
G54D22*
X56961Y-38982D02*
X56937Y-38982D01*
X55482Y-39061D02*
X53248Y-41295D01*
X56961Y-38982D02*
X55561Y-38982D01*
X55561Y-38982D02*
X55482Y-39061D01*
X49409Y-41295D02*
X49066Y-40949D01*
X53248Y-41295D02*
X49409Y-41295D01*
X56037Y-38591D02*
X55519Y-38591D01*
X49413Y-40299D02*
X49066Y-39949D01*
X53811Y-40299D02*
X49413Y-40299D01*
X55291Y-38819D02*
X53811Y-40299D01*
X55519Y-38591D02*
X55291Y-38819D01*
X56502Y-38591D02*
X56037Y-38591D01*
G54D24*
X64670Y-32189D02*
X65453Y-32972D01*
X64429Y-32189D02*
X64670Y-32189D01*
X65453Y-34016D02*
X65449Y-34016D01*
X63431Y-27181D02*
X63447Y-31207D01*
X63447Y-31207D02*
X64429Y-32189D01*
X65453Y-32972D02*
X65453Y-34016D01*
G54D22*
X63441Y-33467D02*
X63441Y-33106D01*
X63441Y-33106D02*
X63516Y-33031D01*
X63516Y-33031D02*
X65098Y-33031D01*
X65669Y-34351D02*
X65445Y-34575D01*
X63866Y-30921D02*
X63866Y-28778D01*
X63866Y-30921D02*
X65669Y-32724D01*
X65669Y-32724D02*
X65669Y-34351D01*
X63866Y-28778D02*
X65431Y-27181D01*
X64972Y-39638D02*
X67208Y-41874D01*
X68099Y-41874D02*
X68776Y-42551D01*
X67208Y-41874D02*
X68099Y-41874D01*
X66319Y-39681D02*
X68650Y-42012D01*
X65599Y-39681D02*
X66319Y-39681D01*
X64969Y-39051D02*
X65599Y-39681D01*
G54D19*
X55819Y-41417D02*
X56559Y-42157D01*
X56559Y-42157D02*
X56559Y-42181D01*
X66985Y-42169D02*
X67181Y-42169D01*
X65579Y-43575D02*
X66985Y-42169D01*
X69095Y-29744D02*
X69819Y-29744D01*
X67961Y-28610D02*
X69095Y-29744D01*
G54D22*
X62953Y-30778D02*
X62953Y-26798D01*
X62431Y-26181D02*
X62953Y-26798D01*
X63071Y-30896D02*
X62953Y-30778D01*
X62579Y-30728D02*
X62447Y-30596D01*
X62431Y-27181D02*
X62447Y-30596D01*
X62579Y-30730D02*
X62579Y-30728D01*
X62711Y-30862D02*
X62579Y-30730D01*
G54D10*
G36*
X60216Y-37003D02*
X60175Y-37003D01*
X60076Y-37044D01*
X60045Y-37074D01*
X60011Y-37040D01*
X59912Y-36999D01*
X59805Y-36999D01*
X59706Y-37040D01*
X59630Y-37115D01*
X59589Y-37214D01*
X59589Y-37321D01*
X59630Y-37420D01*
X59669Y-37459D01*
X59667Y-37461D01*
X59591Y-37536D01*
X59550Y-37635D01*
X59550Y-37742D01*
X59591Y-37841D01*
X59666Y-37917D01*
X59765Y-37958D01*
X59872Y-37958D01*
X59971Y-37917D01*
X60039Y-37849D01*
X60051Y-37861D01*
X59996Y-37916D01*
X59955Y-38015D01*
X59955Y-38122D01*
X59996Y-38221D01*
X60045Y-38271D01*
X60015Y-38300D01*
X59978Y-38262D01*
X59879Y-38221D01*
X59772Y-38221D01*
X59673Y-38262D01*
X59597Y-38337D01*
X59556Y-38436D01*
X59556Y-38543D01*
X59597Y-38642D01*
X59631Y-38676D01*
X59615Y-38693D01*
X59574Y-38792D01*
X59574Y-38899D01*
X59615Y-38998D01*
X59644Y-39027D01*
X59640Y-39034D01*
X59603Y-39071D01*
X59581Y-39123D01*
X59354Y-39468D01*
X59454Y-40685D01*
X58828Y-40718D01*
X58828Y-40267D01*
X58828Y-40160D01*
X58787Y-40061D01*
X58767Y-40040D01*
X58767Y-36143D01*
X58767Y-36036D01*
X58726Y-35937D01*
X58651Y-35861D01*
X58552Y-35820D01*
X58445Y-35820D01*
X58346Y-35861D01*
X58270Y-35936D01*
X58229Y-36035D01*
X58229Y-36142D01*
X58270Y-36241D01*
X58345Y-36317D01*
X58444Y-36358D01*
X58551Y-36358D01*
X58650Y-36317D01*
X58726Y-36242D01*
X58767Y-36143D01*
X58767Y-40040D01*
X58712Y-39985D01*
X58613Y-39944D01*
X58506Y-39944D01*
X58407Y-39985D01*
X58331Y-40060D01*
X58290Y-40159D01*
X58290Y-40266D01*
X58331Y-40365D01*
X58406Y-40441D01*
X58505Y-40482D01*
X58612Y-40482D01*
X58711Y-40441D01*
X58787Y-40366D01*
X58828Y-40267D01*
X58828Y-40718D01*
X58151Y-40754D01*
X58151Y-40755D01*
X57928Y-40731D01*
X57928Y-36135D01*
X57928Y-36028D01*
X57887Y-35929D01*
X57812Y-35853D01*
X57713Y-35812D01*
X57606Y-35812D01*
X57507Y-35853D01*
X57431Y-35928D01*
X57390Y-36027D01*
X57390Y-36134D01*
X57431Y-36233D01*
X57506Y-36309D01*
X57605Y-36350D01*
X57712Y-36350D01*
X57811Y-36309D01*
X57887Y-36234D01*
X57928Y-36135D01*
X57928Y-40731D01*
X57824Y-40720D01*
X57824Y-40282D01*
X57824Y-40175D01*
X57783Y-40076D01*
X57708Y-40000D01*
X57666Y-39982D01*
X57666Y-36589D01*
X57666Y-36492D01*
X57629Y-36402D01*
X57560Y-36333D01*
X57469Y-36296D01*
X57372Y-36296D01*
X57282Y-36333D01*
X57213Y-36402D01*
X57176Y-36493D01*
X57176Y-36590D01*
X57213Y-36680D01*
X57282Y-36749D01*
X57373Y-36786D01*
X57470Y-36786D01*
X57560Y-36749D01*
X57629Y-36680D01*
X57666Y-36589D01*
X57666Y-39982D01*
X57609Y-39959D01*
X57502Y-39959D01*
X57403Y-40000D01*
X57327Y-40075D01*
X57286Y-40174D01*
X57286Y-40281D01*
X57327Y-40380D01*
X57402Y-40456D01*
X57501Y-40497D01*
X57608Y-40497D01*
X57707Y-40456D01*
X57783Y-40381D01*
X57824Y-40282D01*
X57824Y-40720D01*
X57230Y-40657D01*
X57230Y-39036D01*
X57230Y-38929D01*
X57189Y-38830D01*
X57114Y-38754D01*
X57015Y-38713D01*
X56908Y-38713D01*
X56809Y-38754D01*
X56785Y-38777D01*
X56785Y-37985D01*
X56785Y-37878D01*
X56744Y-37779D01*
X56669Y-37703D01*
X56570Y-37662D01*
X56480Y-37662D01*
X56480Y-34696D01*
X56480Y-34589D01*
X56439Y-34490D01*
X56364Y-34414D01*
X56265Y-34373D01*
X56158Y-34373D01*
X56059Y-34414D01*
X55983Y-34489D01*
X55942Y-34588D01*
X55942Y-34695D01*
X55983Y-34794D01*
X56058Y-34870D01*
X56157Y-34911D01*
X56264Y-34911D01*
X56363Y-34870D01*
X56439Y-34795D01*
X56480Y-34696D01*
X56480Y-37662D01*
X56463Y-37662D01*
X56364Y-37703D01*
X56288Y-37778D01*
X56247Y-37877D01*
X56247Y-37984D01*
X56288Y-38083D01*
X56363Y-38159D01*
X56462Y-38200D01*
X56569Y-38200D01*
X56668Y-38159D01*
X56744Y-38084D01*
X56785Y-37985D01*
X56785Y-38777D01*
X56770Y-38792D01*
X56681Y-38792D01*
X56730Y-38744D01*
X56771Y-38645D01*
X56771Y-38538D01*
X56730Y-38439D01*
X56655Y-38363D01*
X56556Y-38322D01*
X56449Y-38322D01*
X56350Y-38363D01*
X56311Y-38401D01*
X56037Y-38401D01*
X55519Y-38401D01*
X55446Y-38415D01*
X55384Y-38457D01*
X55157Y-38685D01*
X53733Y-40109D01*
X53351Y-40109D01*
X53383Y-40035D01*
X53383Y-39865D01*
X53383Y-39035D01*
X53383Y-38865D01*
X53383Y-38035D01*
X53383Y-37865D01*
X53383Y-37035D01*
X53383Y-36865D01*
X53383Y-36035D01*
X53383Y-35865D01*
X53383Y-35035D01*
X53383Y-34865D01*
X53383Y-34035D01*
X53383Y-33865D01*
X53383Y-33035D01*
X53383Y-32865D01*
X53383Y-32035D01*
X53383Y-31865D01*
X53318Y-31708D01*
X53199Y-31588D01*
X53042Y-31522D01*
X52872Y-31522D01*
X52715Y-31587D01*
X52595Y-31706D01*
X52529Y-31863D01*
X52529Y-32033D01*
X52594Y-32190D01*
X52713Y-32310D01*
X52870Y-32376D01*
X53040Y-32376D01*
X53197Y-32311D01*
X53317Y-32192D01*
X53383Y-32035D01*
X53383Y-32865D01*
X53318Y-32708D01*
X53199Y-32588D01*
X53042Y-32522D01*
X52872Y-32522D01*
X52715Y-32587D01*
X52595Y-32706D01*
X52529Y-32863D01*
X52529Y-33033D01*
X52594Y-33190D01*
X52713Y-33310D01*
X52870Y-33376D01*
X53040Y-33376D01*
X53197Y-33311D01*
X53317Y-33192D01*
X53383Y-33035D01*
X53383Y-33865D01*
X53318Y-33708D01*
X53199Y-33588D01*
X53042Y-33522D01*
X52872Y-33522D01*
X52715Y-33587D01*
X52595Y-33706D01*
X52529Y-33863D01*
X52529Y-34033D01*
X52594Y-34190D01*
X52713Y-34310D01*
X52870Y-34376D01*
X53040Y-34376D01*
X53197Y-34311D01*
X53317Y-34192D01*
X53383Y-34035D01*
X53383Y-34865D01*
X53318Y-34708D01*
X53199Y-34588D01*
X53042Y-34522D01*
X52872Y-34522D01*
X52715Y-34587D01*
X52595Y-34706D01*
X52529Y-34863D01*
X52529Y-35033D01*
X52594Y-35190D01*
X52713Y-35310D01*
X52870Y-35376D01*
X53040Y-35376D01*
X53197Y-35311D01*
X53317Y-35192D01*
X53383Y-35035D01*
X53383Y-35865D01*
X53318Y-35708D01*
X53199Y-35588D01*
X53042Y-35522D01*
X52872Y-35522D01*
X52715Y-35587D01*
X52595Y-35706D01*
X52529Y-35863D01*
X52529Y-36033D01*
X52594Y-36190D01*
X52713Y-36310D01*
X52870Y-36376D01*
X53040Y-36376D01*
X53197Y-36311D01*
X53317Y-36192D01*
X53383Y-36035D01*
X53383Y-36865D01*
X53318Y-36708D01*
X53199Y-36588D01*
X53042Y-36522D01*
X52872Y-36522D01*
X52715Y-36587D01*
X52595Y-36706D01*
X52529Y-36863D01*
X52529Y-37033D01*
X52594Y-37190D01*
X52713Y-37310D01*
X52870Y-37376D01*
X53040Y-37376D01*
X53197Y-37311D01*
X53317Y-37192D01*
X53383Y-37035D01*
X53383Y-37865D01*
X53318Y-37708D01*
X53199Y-37588D01*
X53042Y-37522D01*
X52872Y-37522D01*
X52715Y-37587D01*
X52595Y-37706D01*
X52529Y-37863D01*
X52529Y-38033D01*
X52594Y-38190D01*
X52713Y-38310D01*
X52870Y-38376D01*
X53040Y-38376D01*
X53197Y-38311D01*
X53317Y-38192D01*
X53383Y-38035D01*
X53383Y-38865D01*
X53318Y-38708D01*
X53199Y-38588D01*
X53042Y-38522D01*
X52872Y-38522D01*
X52715Y-38587D01*
X52595Y-38706D01*
X52529Y-38863D01*
X52529Y-39033D01*
X52594Y-39190D01*
X52713Y-39310D01*
X52870Y-39376D01*
X53040Y-39376D01*
X53197Y-39311D01*
X53317Y-39192D01*
X53383Y-39035D01*
X53383Y-39865D01*
X53318Y-39708D01*
X53199Y-39588D01*
X53042Y-39522D01*
X52872Y-39522D01*
X52715Y-39587D01*
X52595Y-39706D01*
X52529Y-39863D01*
X52529Y-40033D01*
X52560Y-40109D01*
X52344Y-40109D01*
X52376Y-40035D01*
X52376Y-39865D01*
X52376Y-39035D01*
X52376Y-38865D01*
X52376Y-38035D01*
X52376Y-37865D01*
X52376Y-37035D01*
X52376Y-36865D01*
X52376Y-36035D01*
X52376Y-35865D01*
X52376Y-35035D01*
X52376Y-34865D01*
X52376Y-34035D01*
X52376Y-33865D01*
X52376Y-33035D01*
X52376Y-32865D01*
X52376Y-32035D01*
X52376Y-31865D01*
X52311Y-31708D01*
X52192Y-31588D01*
X52035Y-31522D01*
X51865Y-31522D01*
X51708Y-31587D01*
X51588Y-31706D01*
X51522Y-31863D01*
X51522Y-32033D01*
X51587Y-32190D01*
X51706Y-32310D01*
X51863Y-32376D01*
X52033Y-32376D01*
X52190Y-32311D01*
X52310Y-32192D01*
X52376Y-32035D01*
X52376Y-32865D01*
X52311Y-32708D01*
X52192Y-32588D01*
X52035Y-32522D01*
X51865Y-32522D01*
X51708Y-32587D01*
X51588Y-32706D01*
X51522Y-32863D01*
X51522Y-33033D01*
X51587Y-33190D01*
X51706Y-33310D01*
X51863Y-33376D01*
X52033Y-33376D01*
X52190Y-33311D01*
X52310Y-33192D01*
X52376Y-33035D01*
X52376Y-33865D01*
X52311Y-33708D01*
X52192Y-33588D01*
X52035Y-33522D01*
X51865Y-33522D01*
X51708Y-33587D01*
X51588Y-33706D01*
X51522Y-33863D01*
X51522Y-34033D01*
X51587Y-34190D01*
X51706Y-34310D01*
X51863Y-34376D01*
X52033Y-34376D01*
X52190Y-34311D01*
X52310Y-34192D01*
X52376Y-34035D01*
X52376Y-34865D01*
X52311Y-34708D01*
X52192Y-34588D01*
X52035Y-34522D01*
X51865Y-34522D01*
X51708Y-34587D01*
X51588Y-34706D01*
X51522Y-34863D01*
X51522Y-35033D01*
X51587Y-35190D01*
X51706Y-35310D01*
X51863Y-35376D01*
X52033Y-35376D01*
X52190Y-35311D01*
X52310Y-35192D01*
X52376Y-35035D01*
X52376Y-35865D01*
X52311Y-35708D01*
X52192Y-35588D01*
X52035Y-35522D01*
X51865Y-35522D01*
X51708Y-35587D01*
X51588Y-35706D01*
X51522Y-35863D01*
X51522Y-36033D01*
X51587Y-36190D01*
X51706Y-36310D01*
X51863Y-36376D01*
X52033Y-36376D01*
X52190Y-36311D01*
X52310Y-36192D01*
X52376Y-36035D01*
X52376Y-36865D01*
X52311Y-36708D01*
X52192Y-36588D01*
X52035Y-36522D01*
X51865Y-36522D01*
X51708Y-36587D01*
X51588Y-36706D01*
X51522Y-36863D01*
X51522Y-37033D01*
X51587Y-37190D01*
X51706Y-37310D01*
X51863Y-37376D01*
X52033Y-37376D01*
X52190Y-37311D01*
X52310Y-37192D01*
X52376Y-37035D01*
X52376Y-37865D01*
X52311Y-37708D01*
X52192Y-37588D01*
X52035Y-37522D01*
X51865Y-37522D01*
X51708Y-37587D01*
X51588Y-37706D01*
X51522Y-37863D01*
X51522Y-38033D01*
X51587Y-38190D01*
X51706Y-38310D01*
X51863Y-38376D01*
X52033Y-38376D01*
X52190Y-38311D01*
X52310Y-38192D01*
X52376Y-38035D01*
X52376Y-38865D01*
X52311Y-38708D01*
X52192Y-38588D01*
X52035Y-38522D01*
X51865Y-38522D01*
X51708Y-38587D01*
X51588Y-38706D01*
X51522Y-38863D01*
X51522Y-39033D01*
X51587Y-39190D01*
X51706Y-39310D01*
X51863Y-39376D01*
X52033Y-39376D01*
X52190Y-39311D01*
X52310Y-39192D01*
X52376Y-39035D01*
X52376Y-39865D01*
X52311Y-39708D01*
X52192Y-39588D01*
X52035Y-39522D01*
X51865Y-39522D01*
X51708Y-39587D01*
X51588Y-39706D01*
X51522Y-39863D01*
X51522Y-40033D01*
X51553Y-40109D01*
X49492Y-40109D01*
X49470Y-40087D01*
X49493Y-40035D01*
X49493Y-39865D01*
X49493Y-39035D01*
X49493Y-38865D01*
X49493Y-38035D01*
X49493Y-37865D01*
X49493Y-37035D01*
X49493Y-36865D01*
X49493Y-36035D01*
X49493Y-35865D01*
X49493Y-35035D01*
X49493Y-34865D01*
X49493Y-34035D01*
X49493Y-33865D01*
X49493Y-33035D01*
X49493Y-32865D01*
X49493Y-32035D01*
X49493Y-31865D01*
X49428Y-31708D01*
X49309Y-31588D01*
X49152Y-31522D01*
X48982Y-31522D01*
X48825Y-31587D01*
X48705Y-31706D01*
X48639Y-31863D01*
X48639Y-32033D01*
X48704Y-32190D01*
X48823Y-32310D01*
X48980Y-32376D01*
X49150Y-32376D01*
X49307Y-32311D01*
X49427Y-32192D01*
X49493Y-32035D01*
X49493Y-32865D01*
X49428Y-32708D01*
X49309Y-32588D01*
X49152Y-32522D01*
X48982Y-32522D01*
X48825Y-32587D01*
X48705Y-32706D01*
X48639Y-32863D01*
X48639Y-33033D01*
X48704Y-33190D01*
X48823Y-33310D01*
X48980Y-33376D01*
X49150Y-33376D01*
X49307Y-33311D01*
X49427Y-33192D01*
X49493Y-33035D01*
X49493Y-33865D01*
X49428Y-33708D01*
X49309Y-33588D01*
X49152Y-33522D01*
X48982Y-33522D01*
X48825Y-33587D01*
X48705Y-33706D01*
X48639Y-33863D01*
X48639Y-34033D01*
X48704Y-34190D01*
X48823Y-34310D01*
X48980Y-34376D01*
X49150Y-34376D01*
X49307Y-34311D01*
X49427Y-34192D01*
X49493Y-34035D01*
X49493Y-34865D01*
X49428Y-34708D01*
X49309Y-34588D01*
X49152Y-34522D01*
X48982Y-34522D01*
X48825Y-34587D01*
X48705Y-34706D01*
X48639Y-34863D01*
X48639Y-35033D01*
X48704Y-35190D01*
X48823Y-35310D01*
X48980Y-35376D01*
X49150Y-35376D01*
X49307Y-35311D01*
X49427Y-35192D01*
X49493Y-35035D01*
X49493Y-35865D01*
X49428Y-35708D01*
X49309Y-35588D01*
X49152Y-35522D01*
X48982Y-35522D01*
X48825Y-35587D01*
X48705Y-35706D01*
X48639Y-35863D01*
X48639Y-36033D01*
X48704Y-36190D01*
X48823Y-36310D01*
X48980Y-36376D01*
X49150Y-36376D01*
X49307Y-36311D01*
X49427Y-36192D01*
X49493Y-36035D01*
X49493Y-36865D01*
X49428Y-36708D01*
X49309Y-36588D01*
X49152Y-36522D01*
X48982Y-36522D01*
X48825Y-36587D01*
X48705Y-36706D01*
X48639Y-36863D01*
X48639Y-37033D01*
X48704Y-37190D01*
X48823Y-37310D01*
X48980Y-37376D01*
X49150Y-37376D01*
X49307Y-37311D01*
X49427Y-37192D01*
X49493Y-37035D01*
X49493Y-37865D01*
X49428Y-37708D01*
X49309Y-37588D01*
X49152Y-37522D01*
X48982Y-37522D01*
X48825Y-37587D01*
X48705Y-37706D01*
X48639Y-37863D01*
X48639Y-38033D01*
X48704Y-38190D01*
X48823Y-38310D01*
X48980Y-38376D01*
X49150Y-38376D01*
X49307Y-38311D01*
X49427Y-38192D01*
X49493Y-38035D01*
X49493Y-38865D01*
X49428Y-38708D01*
X49309Y-38588D01*
X49152Y-38522D01*
X48982Y-38522D01*
X48825Y-38587D01*
X48705Y-38706D01*
X48639Y-38863D01*
X48639Y-39033D01*
X48704Y-39190D01*
X48823Y-39310D01*
X48980Y-39376D01*
X49150Y-39376D01*
X49307Y-39311D01*
X49427Y-39192D01*
X49493Y-39035D01*
X49493Y-39865D01*
X49428Y-39708D01*
X49309Y-39588D01*
X49152Y-39522D01*
X48982Y-39522D01*
X48825Y-39587D01*
X48705Y-39706D01*
X48639Y-39863D01*
X48639Y-40033D01*
X48704Y-40190D01*
X48823Y-40310D01*
X48980Y-40376D01*
X49150Y-40376D01*
X49201Y-40354D01*
X49278Y-40432D01*
X49279Y-40433D01*
X49339Y-40474D01*
X49340Y-40475D01*
X49412Y-40488D01*
X49413Y-40489D01*
X53785Y-40489D01*
X53383Y-40891D01*
X53383Y-40865D01*
X53318Y-40708D01*
X53199Y-40588D01*
X53042Y-40522D01*
X52872Y-40522D01*
X52715Y-40587D01*
X52595Y-40706D01*
X52529Y-40863D01*
X52529Y-41033D01*
X52558Y-41105D01*
X52346Y-41105D01*
X52376Y-41035D01*
X52376Y-40865D01*
X52311Y-40708D01*
X52192Y-40588D01*
X52035Y-40522D01*
X51865Y-40522D01*
X51708Y-40587D01*
X51588Y-40706D01*
X51522Y-40863D01*
X51522Y-41033D01*
X51551Y-41105D01*
X49488Y-41105D01*
X49470Y-41087D01*
X49493Y-41035D01*
X49493Y-40865D01*
X49428Y-40708D01*
X49309Y-40588D01*
X49152Y-40522D01*
X48982Y-40522D01*
X48825Y-40587D01*
X48705Y-40706D01*
X48639Y-40863D01*
X48639Y-41033D01*
X48704Y-41190D01*
X48823Y-41310D01*
X48980Y-41376D01*
X49150Y-41376D01*
X49201Y-41354D01*
X49274Y-41428D01*
X49275Y-41429D01*
X49336Y-41471D01*
X49408Y-41484D01*
X49409Y-41485D01*
X53248Y-41485D01*
X53321Y-41471D01*
X53382Y-41429D01*
X55616Y-39196D01*
X55616Y-39195D01*
X55618Y-39192D01*
X55639Y-39172D01*
X56770Y-39172D01*
X56808Y-39210D01*
X56907Y-39251D01*
X57014Y-39251D01*
X57113Y-39210D01*
X57189Y-39135D01*
X57230Y-39036D01*
X57230Y-40657D01*
X55803Y-40507D01*
X54344Y-41706D01*
X48486Y-41733D01*
X48486Y-41035D01*
X48486Y-40865D01*
X48486Y-40035D01*
X48486Y-39865D01*
X48486Y-39035D01*
X48486Y-38865D01*
X48486Y-38035D01*
X48486Y-37865D01*
X48486Y-37035D01*
X48486Y-36865D01*
X48486Y-36035D01*
X48486Y-35865D01*
X48486Y-35035D01*
X48486Y-34865D01*
X48486Y-34035D01*
X48486Y-33865D01*
X48486Y-33035D01*
X48486Y-32865D01*
X48486Y-32035D01*
X48486Y-31865D01*
X48421Y-31708D01*
X48302Y-31588D01*
X48145Y-31522D01*
X47975Y-31522D01*
X47818Y-31587D01*
X47698Y-31706D01*
X47632Y-31863D01*
X47632Y-32033D01*
X47697Y-32190D01*
X47816Y-32310D01*
X47973Y-32376D01*
X48143Y-32376D01*
X48300Y-32311D01*
X48420Y-32192D01*
X48486Y-32035D01*
X48486Y-32865D01*
X48421Y-32708D01*
X48302Y-32588D01*
X48145Y-32522D01*
X47975Y-32522D01*
X47818Y-32587D01*
X47698Y-32706D01*
X47632Y-32863D01*
X47632Y-33033D01*
X47697Y-33190D01*
X47816Y-33310D01*
X47973Y-33376D01*
X48143Y-33376D01*
X48300Y-33311D01*
X48420Y-33192D01*
X48486Y-33035D01*
X48486Y-33865D01*
X48421Y-33708D01*
X48302Y-33588D01*
X48145Y-33522D01*
X47975Y-33522D01*
X47818Y-33587D01*
X47698Y-33706D01*
X47632Y-33863D01*
X47632Y-34033D01*
X47697Y-34190D01*
X47816Y-34310D01*
X47973Y-34376D01*
X48143Y-34376D01*
X48300Y-34311D01*
X48420Y-34192D01*
X48486Y-34035D01*
X48486Y-34865D01*
X48421Y-34708D01*
X48302Y-34588D01*
X48145Y-34522D01*
X47975Y-34522D01*
X47818Y-34587D01*
X47698Y-34706D01*
X47632Y-34863D01*
X47632Y-35033D01*
X47697Y-35190D01*
X47816Y-35310D01*
X47973Y-35376D01*
X48143Y-35376D01*
X48300Y-35311D01*
X48420Y-35192D01*
X48486Y-35035D01*
X48486Y-35865D01*
X48421Y-35708D01*
X48302Y-35588D01*
X48145Y-35522D01*
X47975Y-35522D01*
X47818Y-35587D01*
X47698Y-35706D01*
X47632Y-35863D01*
X47632Y-36033D01*
X47697Y-36190D01*
X47816Y-36310D01*
X47973Y-36376D01*
X48143Y-36376D01*
X48300Y-36311D01*
X48420Y-36192D01*
X48486Y-36035D01*
X48486Y-36865D01*
X48421Y-36708D01*
X48302Y-36588D01*
X48145Y-36522D01*
X47975Y-36522D01*
X47818Y-36587D01*
X47698Y-36706D01*
X47632Y-36863D01*
X47632Y-37033D01*
X47697Y-37190D01*
X47816Y-37310D01*
X47973Y-37376D01*
X48143Y-37376D01*
X48300Y-37311D01*
X48420Y-37192D01*
X48486Y-37035D01*
X48486Y-37865D01*
X48421Y-37708D01*
X48302Y-37588D01*
X48145Y-37522D01*
X47975Y-37522D01*
X47818Y-37587D01*
X47698Y-37706D01*
X47632Y-37863D01*
X47632Y-38033D01*
X47697Y-38190D01*
X47816Y-38310D01*
X47973Y-38376D01*
X48143Y-38376D01*
X48300Y-38311D01*
X48420Y-38192D01*
X48486Y-38035D01*
X48486Y-38865D01*
X48421Y-38708D01*
X48302Y-38588D01*
X48145Y-38522D01*
X47975Y-38522D01*
X47818Y-38587D01*
X47698Y-38706D01*
X47632Y-38863D01*
X47632Y-39033D01*
X47697Y-39190D01*
X47816Y-39310D01*
X47973Y-39376D01*
X48143Y-39376D01*
X48300Y-39311D01*
X48420Y-39192D01*
X48486Y-39035D01*
X48486Y-39865D01*
X48421Y-39708D01*
X48302Y-39588D01*
X48145Y-39522D01*
X47975Y-39522D01*
X47818Y-39587D01*
X47698Y-39706D01*
X47632Y-39863D01*
X47632Y-40033D01*
X47697Y-40190D01*
X47816Y-40310D01*
X47973Y-40376D01*
X48143Y-40376D01*
X48300Y-40311D01*
X48420Y-40192D01*
X48486Y-40035D01*
X48486Y-40865D01*
X48421Y-40708D01*
X48302Y-40588D01*
X48145Y-40522D01*
X47975Y-40522D01*
X47818Y-40587D01*
X47698Y-40706D01*
X47632Y-40863D01*
X47632Y-41033D01*
X47697Y-41190D01*
X47816Y-41310D01*
X47973Y-41376D01*
X48143Y-41376D01*
X48300Y-41311D01*
X48420Y-41192D01*
X48486Y-41035D01*
X48486Y-41733D01*
X46352Y-41743D01*
X46352Y-38800D01*
X46352Y-38652D01*
X46352Y-37800D01*
X46352Y-37652D01*
X46352Y-36800D01*
X46352Y-36652D01*
X46312Y-36555D01*
X46312Y-35754D01*
X46312Y-34754D01*
X46312Y-33754D01*
X46297Y-33624D01*
X46276Y-33573D01*
X46224Y-33553D01*
X46153Y-33624D01*
X46153Y-33482D01*
X46133Y-33430D01*
X46008Y-33394D01*
X45878Y-33409D01*
X45827Y-33430D01*
X45807Y-33482D01*
X45980Y-33655D01*
X46153Y-33482D01*
X46153Y-33624D01*
X46051Y-33726D01*
X46224Y-33899D01*
X46276Y-33879D01*
X46312Y-33754D01*
X46312Y-34754D01*
X46297Y-34624D01*
X46276Y-34573D01*
X46224Y-34553D01*
X46153Y-34624D01*
X46153Y-34482D01*
X46153Y-33970D01*
X45980Y-33797D01*
X45909Y-33868D01*
X45909Y-33726D01*
X45736Y-33553D01*
X45684Y-33573D01*
X45648Y-33698D01*
X45663Y-33828D01*
X45684Y-33879D01*
X45736Y-33899D01*
X45909Y-33726D01*
X45909Y-33868D01*
X45807Y-33970D01*
X45827Y-34022D01*
X45952Y-34058D01*
X46082Y-34043D01*
X46133Y-34022D01*
X46153Y-33970D01*
X46153Y-34482D01*
X46133Y-34430D01*
X46008Y-34394D01*
X45878Y-34409D01*
X45827Y-34430D01*
X45807Y-34482D01*
X45980Y-34655D01*
X46153Y-34482D01*
X46153Y-34624D01*
X46051Y-34726D01*
X46224Y-34899D01*
X46276Y-34879D01*
X46312Y-34754D01*
X46312Y-35754D01*
X46297Y-35624D01*
X46276Y-35573D01*
X46224Y-35553D01*
X46153Y-35624D01*
X46153Y-35482D01*
X46153Y-34970D01*
X45980Y-34797D01*
X45909Y-34868D01*
X45909Y-34726D01*
X45736Y-34553D01*
X45684Y-34573D01*
X45648Y-34698D01*
X45663Y-34828D01*
X45684Y-34879D01*
X45736Y-34899D01*
X45909Y-34726D01*
X45909Y-34868D01*
X45807Y-34970D01*
X45827Y-35022D01*
X45952Y-35058D01*
X46082Y-35043D01*
X46133Y-35022D01*
X46153Y-34970D01*
X46153Y-35482D01*
X46133Y-35430D01*
X46008Y-35394D01*
X45878Y-35409D01*
X45827Y-35430D01*
X45807Y-35482D01*
X45980Y-35655D01*
X46153Y-35482D01*
X46153Y-35624D01*
X46051Y-35726D01*
X46224Y-35899D01*
X46276Y-35879D01*
X46312Y-35754D01*
X46312Y-36555D01*
X46295Y-36515D01*
X46191Y-36411D01*
X46153Y-36395D01*
X46153Y-35970D01*
X45980Y-35797D01*
X45909Y-35868D01*
X45909Y-35726D01*
X45736Y-35553D01*
X45684Y-35573D01*
X45648Y-35698D01*
X45663Y-35828D01*
X45684Y-35879D01*
X45736Y-35899D01*
X45909Y-35726D01*
X45909Y-35868D01*
X45807Y-35970D01*
X45827Y-36022D01*
X45952Y-36058D01*
X46082Y-36043D01*
X46133Y-36022D01*
X46153Y-35970D01*
X46153Y-36395D01*
X46054Y-36354D01*
X45906Y-36354D01*
X45769Y-36411D01*
X45665Y-36515D01*
X45608Y-36652D01*
X45608Y-36800D01*
X45665Y-36937D01*
X45769Y-37041D01*
X45906Y-37098D01*
X46054Y-37098D01*
X46191Y-37041D01*
X46295Y-36937D01*
X46352Y-36800D01*
X46352Y-37652D01*
X46295Y-37515D01*
X46191Y-37411D01*
X46054Y-37354D01*
X45906Y-37354D01*
X45769Y-37411D01*
X45665Y-37515D01*
X45608Y-37652D01*
X45608Y-37800D01*
X45665Y-37937D01*
X45769Y-38041D01*
X45906Y-38098D01*
X46054Y-38098D01*
X46191Y-38041D01*
X46295Y-37937D01*
X46352Y-37800D01*
X46352Y-38652D01*
X46295Y-38515D01*
X46191Y-38411D01*
X46054Y-38354D01*
X45906Y-38354D01*
X45769Y-38411D01*
X45665Y-38515D01*
X45608Y-38652D01*
X45608Y-38800D01*
X45665Y-38937D01*
X45769Y-39041D01*
X45906Y-39098D01*
X46054Y-39098D01*
X46191Y-39041D01*
X46295Y-38937D01*
X46352Y-38800D01*
X46352Y-41743D01*
X45199Y-41749D01*
X45094Y-31444D01*
X53737Y-31491D01*
X55523Y-33606D01*
X56684Y-34652D01*
X57859Y-35253D01*
X58470Y-35336D01*
X58793Y-35338D01*
X59581Y-35329D01*
X59581Y-35394D01*
X59622Y-35493D01*
X59662Y-35533D01*
X59620Y-35575D01*
X59579Y-35674D01*
X59579Y-35781D01*
X59620Y-35880D01*
X59645Y-35905D01*
X59603Y-35947D01*
X59562Y-36046D01*
X59562Y-36153D01*
X59603Y-36252D01*
X59678Y-36328D01*
X59777Y-36369D01*
X59884Y-36369D01*
X59983Y-36328D01*
X60024Y-36286D01*
X60062Y-36325D01*
X60020Y-36367D01*
X59979Y-36466D01*
X59979Y-36573D01*
X60020Y-36672D01*
X60095Y-36748D01*
X60194Y-36789D01*
X60212Y-36789D01*
X60216Y-37003D01*
X60216Y-37003D01*
G37*
G54D25*
X60216Y-37003D02*
X60175Y-37003D01*
X60076Y-37044D01*
X60045Y-37074D01*
X60011Y-37040D01*
X59912Y-36999D01*
X59805Y-36999D01*
X59706Y-37040D01*
X59630Y-37115D01*
X59589Y-37214D01*
X59589Y-37321D01*
X59630Y-37420D01*
X59669Y-37459D01*
X59667Y-37461D01*
X59591Y-37536D01*
X59550Y-37635D01*
X59550Y-37742D01*
X59591Y-37841D01*
X59666Y-37917D01*
X59765Y-37958D01*
X59872Y-37958D01*
X59971Y-37917D01*
X60039Y-37849D01*
X60051Y-37861D01*
X59996Y-37916D01*
X59955Y-38015D01*
X59955Y-38122D01*
X59996Y-38221D01*
X60045Y-38271D01*
X60015Y-38300D01*
X59978Y-38262D01*
X59879Y-38221D01*
X59772Y-38221D01*
X59673Y-38262D01*
X59597Y-38337D01*
X59556Y-38436D01*
X59556Y-38543D01*
X59597Y-38642D01*
X59631Y-38676D01*
X59615Y-38693D01*
X59574Y-38792D01*
X59574Y-38899D01*
X59615Y-38998D01*
X59644Y-39027D01*
X59640Y-39034D01*
X59603Y-39071D01*
X59581Y-39123D01*
X59354Y-39468D01*
X59454Y-40685D01*
X58828Y-40718D01*
X58828Y-40267D01*
X58828Y-40160D01*
X58787Y-40061D01*
X58767Y-40040D01*
X58767Y-36143D01*
X58767Y-36036D01*
X58726Y-35937D01*
X58651Y-35861D01*
X58552Y-35820D01*
X58445Y-35820D01*
X58346Y-35861D01*
X58270Y-35936D01*
X58229Y-36035D01*
X58229Y-36142D01*
X58270Y-36241D01*
X58345Y-36317D01*
X58444Y-36358D01*
X58551Y-36358D01*
X58650Y-36317D01*
X58726Y-36242D01*
X58767Y-36143D01*
X58767Y-40040D01*
X58712Y-39985D01*
X58613Y-39944D01*
X58506Y-39944D01*
X58407Y-39985D01*
X58331Y-40060D01*
X58290Y-40159D01*
X58290Y-40266D01*
X58331Y-40365D01*
X58406Y-40441D01*
X58505Y-40482D01*
X58612Y-40482D01*
X58711Y-40441D01*
X58787Y-40366D01*
X58828Y-40267D01*
X58828Y-40718D01*
X58151Y-40754D01*
X58151Y-40755D01*
X57928Y-40731D01*
X57928Y-36135D01*
X57928Y-36028D01*
X57887Y-35929D01*
X57812Y-35853D01*
X57713Y-35812D01*
X57606Y-35812D01*
X57507Y-35853D01*
X57431Y-35928D01*
X57390Y-36027D01*
X57390Y-36134D01*
X57431Y-36233D01*
X57506Y-36309D01*
X57605Y-36350D01*
X57712Y-36350D01*
X57811Y-36309D01*
X57887Y-36234D01*
X57928Y-36135D01*
X57928Y-40731D01*
X57824Y-40720D01*
X57824Y-40282D01*
X57824Y-40175D01*
X57783Y-40076D01*
X57708Y-40000D01*
X57666Y-39982D01*
X57666Y-36589D01*
X57666Y-36492D01*
X57629Y-36402D01*
X57560Y-36333D01*
X57469Y-36296D01*
X57372Y-36296D01*
X57282Y-36333D01*
X57213Y-36402D01*
X57176Y-36493D01*
X57176Y-36590D01*
X57213Y-36680D01*
X57282Y-36749D01*
X57373Y-36786D01*
X57470Y-36786D01*
X57560Y-36749D01*
X57629Y-36680D01*
X57666Y-36589D01*
X57666Y-39982D01*
X57609Y-39959D01*
X57502Y-39959D01*
X57403Y-40000D01*
X57327Y-40075D01*
X57286Y-40174D01*
X57286Y-40281D01*
X57327Y-40380D01*
X57402Y-40456D01*
X57501Y-40497D01*
X57608Y-40497D01*
X57707Y-40456D01*
X57783Y-40381D01*
X57824Y-40282D01*
X57824Y-40720D01*
X57230Y-40657D01*
X57230Y-39036D01*
X57230Y-38929D01*
X57189Y-38830D01*
X57114Y-38754D01*
X57015Y-38713D01*
X56908Y-38713D01*
X56809Y-38754D01*
X56785Y-38777D01*
X56785Y-37985D01*
X56785Y-37878D01*
X56744Y-37779D01*
X56669Y-37703D01*
X56570Y-37662D01*
X56480Y-37662D01*
X56480Y-34696D01*
X56480Y-34589D01*
X56439Y-34490D01*
X56364Y-34414D01*
X56265Y-34373D01*
X56158Y-34373D01*
X56059Y-34414D01*
X55983Y-34489D01*
X55942Y-34588D01*
X55942Y-34695D01*
X55983Y-34794D01*
X56058Y-34870D01*
X56157Y-34911D01*
X56264Y-34911D01*
X56363Y-34870D01*
X56439Y-34795D01*
X56480Y-34696D01*
X56480Y-37662D01*
X56463Y-37662D01*
X56364Y-37703D01*
X56288Y-37778D01*
X56247Y-37877D01*
X56247Y-37984D01*
X56288Y-38083D01*
X56363Y-38159D01*
X56462Y-38200D01*
X56569Y-38200D01*
X56668Y-38159D01*
X56744Y-38084D01*
X56785Y-37985D01*
X56785Y-38777D01*
X56770Y-38792D01*
X56681Y-38792D01*
X56730Y-38744D01*
X56771Y-38645D01*
X56771Y-38538D01*
X56730Y-38439D01*
X56655Y-38363D01*
X56556Y-38322D01*
X56449Y-38322D01*
X56350Y-38363D01*
X56311Y-38401D01*
X56037Y-38401D01*
X55519Y-38401D01*
X55446Y-38415D01*
X55384Y-38457D01*
X55157Y-38685D01*
X53733Y-40109D01*
X53351Y-40109D01*
X53383Y-40035D01*
X53383Y-39865D01*
X53383Y-39035D01*
X53383Y-38865D01*
X53383Y-38035D01*
X53383Y-37865D01*
X53383Y-37035D01*
X53383Y-36865D01*
X53383Y-36035D01*
X53383Y-35865D01*
X53383Y-35035D01*
X53383Y-34865D01*
X53383Y-34035D01*
X53383Y-33865D01*
X53383Y-33035D01*
X53383Y-32865D01*
X53383Y-32035D01*
X53383Y-31865D01*
X53318Y-31708D01*
X53199Y-31588D01*
X53042Y-31522D01*
X52872Y-31522D01*
X52715Y-31587D01*
X52595Y-31706D01*
X52529Y-31863D01*
X52529Y-32033D01*
X52594Y-32190D01*
X52713Y-32310D01*
X52870Y-32376D01*
X53040Y-32376D01*
X53197Y-32311D01*
X53317Y-32192D01*
X53383Y-32035D01*
X53383Y-32865D01*
X53318Y-32708D01*
X53199Y-32588D01*
X53042Y-32522D01*
X52872Y-32522D01*
X52715Y-32587D01*
X52595Y-32706D01*
X52529Y-32863D01*
X52529Y-33033D01*
X52594Y-33190D01*
X52713Y-33310D01*
X52870Y-33376D01*
X53040Y-33376D01*
X53197Y-33311D01*
X53317Y-33192D01*
X53383Y-33035D01*
X53383Y-33865D01*
X53318Y-33708D01*
X53199Y-33588D01*
X53042Y-33522D01*
X52872Y-33522D01*
X52715Y-33587D01*
X52595Y-33706D01*
X52529Y-33863D01*
X52529Y-34033D01*
X52594Y-34190D01*
X52713Y-34310D01*
X52870Y-34376D01*
X53040Y-34376D01*
X53197Y-34311D01*
X53317Y-34192D01*
X53383Y-34035D01*
X53383Y-34865D01*
X53318Y-34708D01*
X53199Y-34588D01*
X53042Y-34522D01*
X52872Y-34522D01*
X52715Y-34587D01*
X52595Y-34706D01*
X52529Y-34863D01*
X52529Y-35033D01*
X52594Y-35190D01*
X52713Y-35310D01*
X52870Y-35376D01*
X53040Y-35376D01*
X53197Y-35311D01*
X53317Y-35192D01*
X53383Y-35035D01*
X53383Y-35865D01*
X53318Y-35708D01*
X53199Y-35588D01*
X53042Y-35522D01*
X52872Y-35522D01*
X52715Y-35587D01*
X52595Y-35706D01*
X52529Y-35863D01*
X52529Y-36033D01*
X52594Y-36190D01*
X52713Y-36310D01*
X52870Y-36376D01*
X53040Y-36376D01*
X53197Y-36311D01*
X53317Y-36192D01*
X53383Y-36035D01*
X53383Y-36865D01*
X53318Y-36708D01*
X53199Y-36588D01*
X53042Y-36522D01*
X52872Y-36522D01*
X52715Y-36587D01*
X52595Y-36706D01*
X52529Y-36863D01*
X52529Y-37033D01*
X52594Y-37190D01*
X52713Y-37310D01*
X52870Y-37376D01*
X53040Y-37376D01*
X53197Y-37311D01*
X53317Y-37192D01*
X53383Y-37035D01*
X53383Y-37865D01*
X53318Y-37708D01*
X53199Y-37588D01*
X53042Y-37522D01*
X52872Y-37522D01*
X52715Y-37587D01*
X52595Y-37706D01*
X52529Y-37863D01*
X52529Y-38033D01*
X52594Y-38190D01*
X52713Y-38310D01*
X52870Y-38376D01*
X53040Y-38376D01*
X53197Y-38311D01*
X53317Y-38192D01*
X53383Y-38035D01*
X53383Y-38865D01*
X53318Y-38708D01*
X53199Y-38588D01*
X53042Y-38522D01*
X52872Y-38522D01*
X52715Y-38587D01*
X52595Y-38706D01*
X52529Y-38863D01*
X52529Y-39033D01*
X52594Y-39190D01*
X52713Y-39310D01*
X52870Y-39376D01*
X53040Y-39376D01*
X53197Y-39311D01*
X53317Y-39192D01*
X53383Y-39035D01*
X53383Y-39865D01*
X53318Y-39708D01*
X53199Y-39588D01*
X53042Y-39522D01*
X52872Y-39522D01*
X52715Y-39587D01*
X52595Y-39706D01*
X52529Y-39863D01*
X52529Y-40033D01*
X52560Y-40109D01*
X52344Y-40109D01*
X52376Y-40035D01*
X52376Y-39865D01*
X52376Y-39035D01*
X52376Y-38865D01*
X52376Y-38035D01*
X52376Y-37865D01*
X52376Y-37035D01*
X52376Y-36865D01*
X52376Y-36035D01*
X52376Y-35865D01*
X52376Y-35035D01*
X52376Y-34865D01*
X52376Y-34035D01*
X52376Y-33865D01*
X52376Y-33035D01*
X52376Y-32865D01*
X52376Y-32035D01*
X52376Y-31865D01*
X52311Y-31708D01*
X52192Y-31588D01*
X52035Y-31522D01*
X51865Y-31522D01*
X51708Y-31587D01*
X51588Y-31706D01*
X51522Y-31863D01*
X51522Y-32033D01*
X51587Y-32190D01*
X51706Y-32310D01*
X51863Y-32376D01*
X52033Y-32376D01*
X52190Y-32311D01*
X52310Y-32192D01*
X52376Y-32035D01*
X52376Y-32865D01*
X52311Y-32708D01*
X52192Y-32588D01*
X52035Y-32522D01*
X51865Y-32522D01*
X51708Y-32587D01*
X51588Y-32706D01*
X51522Y-32863D01*
X51522Y-33033D01*
X51587Y-33190D01*
X51706Y-33310D01*
X51863Y-33376D01*
X52033Y-33376D01*
X52190Y-33311D01*
X52310Y-33192D01*
X52376Y-33035D01*
X52376Y-33865D01*
X52311Y-33708D01*
X52192Y-33588D01*
X52035Y-33522D01*
X51865Y-33522D01*
X51708Y-33587D01*
X51588Y-33706D01*
X51522Y-33863D01*
X51522Y-34033D01*
X51587Y-34190D01*
X51706Y-34310D01*
X51863Y-34376D01*
X52033Y-34376D01*
X52190Y-34311D01*
X52310Y-34192D01*
X52376Y-34035D01*
X52376Y-34865D01*
X52311Y-34708D01*
X52192Y-34588D01*
X52035Y-34522D01*
X51865Y-34522D01*
X51708Y-34587D01*
X51588Y-34706D01*
X51522Y-34863D01*
X51522Y-35033D01*
X51587Y-35190D01*
X51706Y-35310D01*
X51863Y-35376D01*
X52033Y-35376D01*
X52190Y-35311D01*
X52310Y-35192D01*
X52376Y-35035D01*
X52376Y-35865D01*
X52311Y-35708D01*
X52192Y-35588D01*
X52035Y-35522D01*
X51865Y-35522D01*
X51708Y-35587D01*
X51588Y-35706D01*
X51522Y-35863D01*
X51522Y-36033D01*
X51587Y-36190D01*
X51706Y-36310D01*
X51863Y-36376D01*
X52033Y-36376D01*
X52190Y-36311D01*
X52310Y-36192D01*
X52376Y-36035D01*
X52376Y-36865D01*
X52311Y-36708D01*
X52192Y-36588D01*
X52035Y-36522D01*
X51865Y-36522D01*
X51708Y-36587D01*
X51588Y-36706D01*
X51522Y-36863D01*
X51522Y-37033D01*
X51587Y-37190D01*
X51706Y-37310D01*
X51863Y-37376D01*
X52033Y-37376D01*
X52190Y-37311D01*
X52310Y-37192D01*
X52376Y-37035D01*
X52376Y-37865D01*
X52311Y-37708D01*
X52192Y-37588D01*
X52035Y-37522D01*
X51865Y-37522D01*
X51708Y-37587D01*
X51588Y-37706D01*
X51522Y-37863D01*
X51522Y-38033D01*
X51587Y-38190D01*
X51706Y-38310D01*
X51863Y-38376D01*
X52033Y-38376D01*
X52190Y-38311D01*
X52310Y-38192D01*
X52376Y-38035D01*
X52376Y-38865D01*
X52311Y-38708D01*
X52192Y-38588D01*
X52035Y-38522D01*
X51865Y-38522D01*
X51708Y-38587D01*
X51588Y-38706D01*
X51522Y-38863D01*
X51522Y-39033D01*
X51587Y-39190D01*
X51706Y-39310D01*
X51863Y-39376D01*
X52033Y-39376D01*
X52190Y-39311D01*
X52310Y-39192D01*
X52376Y-39035D01*
X52376Y-39865D01*
X52311Y-39708D01*
X52192Y-39588D01*
X52035Y-39522D01*
X51865Y-39522D01*
X51708Y-39587D01*
X51588Y-39706D01*
X51522Y-39863D01*
X51522Y-40033D01*
X51553Y-40109D01*
X49492Y-40109D01*
X49470Y-40087D01*
X49493Y-40035D01*
X49493Y-39865D01*
X49493Y-39035D01*
X49493Y-38865D01*
X49493Y-38035D01*
X49493Y-37865D01*
X49493Y-37035D01*
X49493Y-36865D01*
X49493Y-36035D01*
X49493Y-35865D01*
X49493Y-35035D01*
X49493Y-34865D01*
X49493Y-34035D01*
X49493Y-33865D01*
X49493Y-33035D01*
X49493Y-32865D01*
X49493Y-32035D01*
X49493Y-31865D01*
X49428Y-31708D01*
X49309Y-31588D01*
X49152Y-31522D01*
X48982Y-31522D01*
X48825Y-31587D01*
X48705Y-31706D01*
X48639Y-31863D01*
X48639Y-32033D01*
X48704Y-32190D01*
X48823Y-32310D01*
X48980Y-32376D01*
X49150Y-32376D01*
X49307Y-32311D01*
X49427Y-32192D01*
X49493Y-32035D01*
X49493Y-32865D01*
X49428Y-32708D01*
X49309Y-32588D01*
X49152Y-32522D01*
X48982Y-32522D01*
X48825Y-32587D01*
X48705Y-32706D01*
X48639Y-32863D01*
X48639Y-33033D01*
X48704Y-33190D01*
X48823Y-33310D01*
X48980Y-33376D01*
X49150Y-33376D01*
X49307Y-33311D01*
X49427Y-33192D01*
X49493Y-33035D01*
X49493Y-33865D01*
X49428Y-33708D01*
X49309Y-33588D01*
X49152Y-33522D01*
X48982Y-33522D01*
X48825Y-33587D01*
X48705Y-33706D01*
X48639Y-33863D01*
X48639Y-34033D01*
X48704Y-34190D01*
X48823Y-34310D01*
X48980Y-34376D01*
X49150Y-34376D01*
X49307Y-34311D01*
X49427Y-34192D01*
X49493Y-34035D01*
X49493Y-34865D01*
X49428Y-34708D01*
X49309Y-34588D01*
X49152Y-34522D01*
X48982Y-34522D01*
X48825Y-34587D01*
X48705Y-34706D01*
X48639Y-34863D01*
X48639Y-35033D01*
X48704Y-35190D01*
X48823Y-35310D01*
X48980Y-35376D01*
X49150Y-35376D01*
X49307Y-35311D01*
X49427Y-35192D01*
X49493Y-35035D01*
X49493Y-35865D01*
X49428Y-35708D01*
X49309Y-35588D01*
X49152Y-35522D01*
X48982Y-35522D01*
X48825Y-35587D01*
X48705Y-35706D01*
X48639Y-35863D01*
X48639Y-36033D01*
X48704Y-36190D01*
X48823Y-36310D01*
X48980Y-36376D01*
X49150Y-36376D01*
X49307Y-36311D01*
X49427Y-36192D01*
X49493Y-36035D01*
X49493Y-36865D01*
X49428Y-36708D01*
X49309Y-36588D01*
X49152Y-36522D01*
X48982Y-36522D01*
X48825Y-36587D01*
X48705Y-36706D01*
X48639Y-36863D01*
X48639Y-37033D01*
X48704Y-37190D01*
X48823Y-37310D01*
X48980Y-37376D01*
X49150Y-37376D01*
X49307Y-37311D01*
X49427Y-37192D01*
X49493Y-37035D01*
X49493Y-37865D01*
X49428Y-37708D01*
X49309Y-37588D01*
X49152Y-37522D01*
X48982Y-37522D01*
X48825Y-37587D01*
X48705Y-37706D01*
X48639Y-37863D01*
X48639Y-38033D01*
X48704Y-38190D01*
X48823Y-38310D01*
X48980Y-38376D01*
X49150Y-38376D01*
X49307Y-38311D01*
X49427Y-38192D01*
X49493Y-38035D01*
X49493Y-38865D01*
X49428Y-38708D01*
X49309Y-38588D01*
X49152Y-38522D01*
X48982Y-38522D01*
X48825Y-38587D01*
X48705Y-38706D01*
X48639Y-38863D01*
X48639Y-39033D01*
X48704Y-39190D01*
X48823Y-39310D01*
X48980Y-39376D01*
X49150Y-39376D01*
X49307Y-39311D01*
X49427Y-39192D01*
X49493Y-39035D01*
X49493Y-39865D01*
X49428Y-39708D01*
X49309Y-39588D01*
X49152Y-39522D01*
X48982Y-39522D01*
X48825Y-39587D01*
X48705Y-39706D01*
X48639Y-39863D01*
X48639Y-40033D01*
X48704Y-40190D01*
X48823Y-40310D01*
X48980Y-40376D01*
X49150Y-40376D01*
X49201Y-40354D01*
X49278Y-40432D01*
X49279Y-40433D01*
X49339Y-40474D01*
X49340Y-40475D01*
X49412Y-40488D01*
X49413Y-40489D01*
X53785Y-40489D01*
X53383Y-40891D01*
X53383Y-40865D01*
X53318Y-40708D01*
X53199Y-40588D01*
X53042Y-40522D01*
X52872Y-40522D01*
X52715Y-40587D01*
X52595Y-40706D01*
X52529Y-40863D01*
X52529Y-41033D01*
X52558Y-41105D01*
X52346Y-41105D01*
X52376Y-41035D01*
X52376Y-40865D01*
X52311Y-40708D01*
X52192Y-40588D01*
X52035Y-40522D01*
X51865Y-40522D01*
X51708Y-40587D01*
X51588Y-40706D01*
X51522Y-40863D01*
X51522Y-41033D01*
X51551Y-41105D01*
X49488Y-41105D01*
X49470Y-41087D01*
X49493Y-41035D01*
X49493Y-40865D01*
X49428Y-40708D01*
X49309Y-40588D01*
X49152Y-40522D01*
X48982Y-40522D01*
X48825Y-40587D01*
X48705Y-40706D01*
X48639Y-40863D01*
X48639Y-41033D01*
X48704Y-41190D01*
X48823Y-41310D01*
X48980Y-41376D01*
X49150Y-41376D01*
X49201Y-41354D01*
X49274Y-41428D01*
X49275Y-41429D01*
X49336Y-41471D01*
X49408Y-41484D01*
X49409Y-41485D01*
X53248Y-41485D01*
X53321Y-41471D01*
X53382Y-41429D01*
X55616Y-39196D01*
X55616Y-39195D01*
X55618Y-39192D01*
X55639Y-39172D01*
X56770Y-39172D01*
X56808Y-39210D01*
X56907Y-39251D01*
X57014Y-39251D01*
X57113Y-39210D01*
X57189Y-39135D01*
X57230Y-39036D01*
X57230Y-40657D01*
X55803Y-40507D01*
X54344Y-41706D01*
X48486Y-41733D01*
X48486Y-41035D01*
X48486Y-40865D01*
X48486Y-40035D01*
X48486Y-39865D01*
X48486Y-39035D01*
X48486Y-38865D01*
X48486Y-38035D01*
X48486Y-37865D01*
X48486Y-37035D01*
X48486Y-36865D01*
X48486Y-36035D01*
X48486Y-35865D01*
X48486Y-35035D01*
X48486Y-34865D01*
X48486Y-34035D01*
X48486Y-33865D01*
X48486Y-33035D01*
X48486Y-32865D01*
X48486Y-32035D01*
X48486Y-31865D01*
X48421Y-31708D01*
X48302Y-31588D01*
X48145Y-31522D01*
X47975Y-31522D01*
X47818Y-31587D01*
X47698Y-31706D01*
X47632Y-31863D01*
X47632Y-32033D01*
X47697Y-32190D01*
X47816Y-32310D01*
X47973Y-32376D01*
X48143Y-32376D01*
X48300Y-32311D01*
X48420Y-32192D01*
X48486Y-32035D01*
X48486Y-32865D01*
X48421Y-32708D01*
X48302Y-32588D01*
X48145Y-32522D01*
X47975Y-32522D01*
X47818Y-32587D01*
X47698Y-32706D01*
X47632Y-32863D01*
X47632Y-33033D01*
X47697Y-33190D01*
X47816Y-33310D01*
X47973Y-33376D01*
X48143Y-33376D01*
X48300Y-33311D01*
X48420Y-33192D01*
X48486Y-33035D01*
X48486Y-33865D01*
X48421Y-33708D01*
X48302Y-33588D01*
X48145Y-33522D01*
X47975Y-33522D01*
X47818Y-33587D01*
X47698Y-33706D01*
X47632Y-33863D01*
X47632Y-34033D01*
X47697Y-34190D01*
X47816Y-34310D01*
X47973Y-34376D01*
X48143Y-34376D01*
X48300Y-34311D01*
X48420Y-34192D01*
X48486Y-34035D01*
X48486Y-34865D01*
X48421Y-34708D01*
X48302Y-34588D01*
X48145Y-34522D01*
X47975Y-34522D01*
X47818Y-34587D01*
X47698Y-34706D01*
X47632Y-34863D01*
X47632Y-35033D01*
X47697Y-35190D01*
X47816Y-35310D01*
X47973Y-35376D01*
X48143Y-35376D01*
X48300Y-35311D01*
X48420Y-35192D01*
X48486Y-35035D01*
X48486Y-35865D01*
X48421Y-35708D01*
X48302Y-35588D01*
X48145Y-35522D01*
X47975Y-35522D01*
X47818Y-35587D01*
X47698Y-35706D01*
X47632Y-35863D01*
X47632Y-36033D01*
X47697Y-36190D01*
X47816Y-36310D01*
X47973Y-36376D01*
X48143Y-36376D01*
X48300Y-36311D01*
X48420Y-36192D01*
X48486Y-36035D01*
X48486Y-36865D01*
X48421Y-36708D01*
X48302Y-36588D01*
X48145Y-36522D01*
X47975Y-36522D01*
X47818Y-36587D01*
X47698Y-36706D01*
X47632Y-36863D01*
X47632Y-37033D01*
X47697Y-37190D01*
X47816Y-37310D01*
X47973Y-37376D01*
X48143Y-37376D01*
X48300Y-37311D01*
X48420Y-37192D01*
X48486Y-37035D01*
X48486Y-37865D01*
X48421Y-37708D01*
X48302Y-37588D01*
X48145Y-37522D01*
X47975Y-37522D01*
X47818Y-37587D01*
X47698Y-37706D01*
X47632Y-37863D01*
X47632Y-38033D01*
X47697Y-38190D01*
X47816Y-38310D01*
X47973Y-38376D01*
X48143Y-38376D01*
X48300Y-38311D01*
X48420Y-38192D01*
X48486Y-38035D01*
X48486Y-38865D01*
X48421Y-38708D01*
X48302Y-38588D01*
X48145Y-38522D01*
X47975Y-38522D01*
X47818Y-38587D01*
X47698Y-38706D01*
X47632Y-38863D01*
X47632Y-39033D01*
X47697Y-39190D01*
X47816Y-39310D01*
X47973Y-39376D01*
X48143Y-39376D01*
X48300Y-39311D01*
X48420Y-39192D01*
X48486Y-39035D01*
X48486Y-39865D01*
X48421Y-39708D01*
X48302Y-39588D01*
X48145Y-39522D01*
X47975Y-39522D01*
X47818Y-39587D01*
X47698Y-39706D01*
X47632Y-39863D01*
X47632Y-40033D01*
X47697Y-40190D01*
X47816Y-40310D01*
X47973Y-40376D01*
X48143Y-40376D01*
X48300Y-40311D01*
X48420Y-40192D01*
X48486Y-40035D01*
X48486Y-40865D01*
X48421Y-40708D01*
X48302Y-40588D01*
X48145Y-40522D01*
X47975Y-40522D01*
X47818Y-40587D01*
X47698Y-40706D01*
X47632Y-40863D01*
X47632Y-41033D01*
X47697Y-41190D01*
X47816Y-41310D01*
X47973Y-41376D01*
X48143Y-41376D01*
X48300Y-41311D01*
X48420Y-41192D01*
X48486Y-41035D01*
X48486Y-41733D01*
X46352Y-41743D01*
X46352Y-38800D01*
X46352Y-38652D01*
X46352Y-37800D01*
X46352Y-37652D01*
X46352Y-36800D01*
X46352Y-36652D01*
X46312Y-36555D01*
X46312Y-35754D01*
X46312Y-34754D01*
X46312Y-33754D01*
X46297Y-33624D01*
X46276Y-33573D01*
X46224Y-33553D01*
X46153Y-33624D01*
X46153Y-33482D01*
X46133Y-33430D01*
X46008Y-33394D01*
X45878Y-33409D01*
X45827Y-33430D01*
X45807Y-33482D01*
X45980Y-33655D01*
X46153Y-33482D01*
X46153Y-33624D01*
X46051Y-33726D01*
X46224Y-33899D01*
X46276Y-33879D01*
X46312Y-33754D01*
X46312Y-34754D01*
X46297Y-34624D01*
X46276Y-34573D01*
X46224Y-34553D01*
X46153Y-34624D01*
X46153Y-34482D01*
X46153Y-33970D01*
X45980Y-33797D01*
X45909Y-33868D01*
X45909Y-33726D01*
X45736Y-33553D01*
X45684Y-33573D01*
X45648Y-33698D01*
X45663Y-33828D01*
X45684Y-33879D01*
X45736Y-33899D01*
X45909Y-33726D01*
X45909Y-33868D01*
X45807Y-33970D01*
X45827Y-34022D01*
X45952Y-34058D01*
X46082Y-34043D01*
X46133Y-34022D01*
X46153Y-33970D01*
X46153Y-34482D01*
X46133Y-34430D01*
X46008Y-34394D01*
X45878Y-34409D01*
X45827Y-34430D01*
X45807Y-34482D01*
X45980Y-34655D01*
X46153Y-34482D01*
X46153Y-34624D01*
X46051Y-34726D01*
X46224Y-34899D01*
X46276Y-34879D01*
X46312Y-34754D01*
X46312Y-35754D01*
X46297Y-35624D01*
X46276Y-35573D01*
X46224Y-35553D01*
X46153Y-35624D01*
X46153Y-35482D01*
X46153Y-34970D01*
X45980Y-34797D01*
X45909Y-34868D01*
X45909Y-34726D01*
X45736Y-34553D01*
X45684Y-34573D01*
X45648Y-34698D01*
X45663Y-34828D01*
X45684Y-34879D01*
X45736Y-34899D01*
X45909Y-34726D01*
X45909Y-34868D01*
X45807Y-34970D01*
X45827Y-35022D01*
X45952Y-35058D01*
X46082Y-35043D01*
X46133Y-35022D01*
X46153Y-34970D01*
X46153Y-35482D01*
X46133Y-35430D01*
X46008Y-35394D01*
X45878Y-35409D01*
X45827Y-35430D01*
X45807Y-35482D01*
X45980Y-35655D01*
X46153Y-35482D01*
X46153Y-35624D01*
X46051Y-35726D01*
X46224Y-35899D01*
X46276Y-35879D01*
X46312Y-35754D01*
X46312Y-36555D01*
X46295Y-36515D01*
X46191Y-36411D01*
X46153Y-36395D01*
X46153Y-35970D01*
X45980Y-35797D01*
X45909Y-35868D01*
X45909Y-35726D01*
X45736Y-35553D01*
X45684Y-35573D01*
X45648Y-35698D01*
X45663Y-35828D01*
X45684Y-35879D01*
X45736Y-35899D01*
X45909Y-35726D01*
X45909Y-35868D01*
X45807Y-35970D01*
X45827Y-36022D01*
X45952Y-36058D01*
X46082Y-36043D01*
X46133Y-36022D01*
X46153Y-35970D01*
X46153Y-36395D01*
X46054Y-36354D01*
X45906Y-36354D01*
X45769Y-36411D01*
X45665Y-36515D01*
X45608Y-36652D01*
X45608Y-36800D01*
X45665Y-36937D01*
X45769Y-37041D01*
X45906Y-37098D01*
X46054Y-37098D01*
X46191Y-37041D01*
X46295Y-36937D01*
X46352Y-36800D01*
X46352Y-37652D01*
X46295Y-37515D01*
X46191Y-37411D01*
X46054Y-37354D01*
X45906Y-37354D01*
X45769Y-37411D01*
X45665Y-37515D01*
X45608Y-37652D01*
X45608Y-37800D01*
X45665Y-37937D01*
X45769Y-38041D01*
X45906Y-38098D01*
X46054Y-38098D01*
X46191Y-38041D01*
X46295Y-37937D01*
X46352Y-37800D01*
X46352Y-38652D01*
X46295Y-38515D01*
X46191Y-38411D01*
X46054Y-38354D01*
X45906Y-38354D01*
X45769Y-38411D01*
X45665Y-38515D01*
X45608Y-38652D01*
X45608Y-38800D01*
X45665Y-38937D01*
X45769Y-39041D01*
X45906Y-39098D01*
X46054Y-39098D01*
X46191Y-39041D01*
X46295Y-38937D01*
X46352Y-38800D01*
X46352Y-41743D01*
X45199Y-41749D01*
X45094Y-31444D01*
X53737Y-31491D01*
X55523Y-33606D01*
X56684Y-34652D01*
X57859Y-35253D01*
X58470Y-35336D01*
X58793Y-35338D01*
X59581Y-35329D01*
X59581Y-35394D01*
X59622Y-35493D01*
X59662Y-35533D01*
X59620Y-35575D01*
X59579Y-35674D01*
X59579Y-35781D01*
X59620Y-35880D01*
X59645Y-35905D01*
X59603Y-35947D01*
X59562Y-36046D01*
X59562Y-36153D01*
X59603Y-36252D01*
X59678Y-36328D01*
X59777Y-36369D01*
X59884Y-36369D01*
X59983Y-36328D01*
X60024Y-36286D01*
X60062Y-36325D01*
X60020Y-36367D01*
X59979Y-36466D01*
X59979Y-36573D01*
X60020Y-36672D01*
X60095Y-36748D01*
X60194Y-36789D01*
X60212Y-36789D01*
X60216Y-37003D01*
G54D10*
G36*
X60837Y-37956D02*
X60830Y-37939D01*
X60755Y-37863D01*
X60656Y-37822D01*
X60549Y-37822D01*
X60511Y-37837D01*
X60497Y-37224D01*
X60497Y-37219D01*
X60496Y-37218D01*
X60495Y-37141D01*
X60584Y-37178D01*
X60691Y-37178D01*
X60790Y-37137D01*
X60824Y-37103D01*
X60837Y-37956D01*
X60837Y-37956D01*
G37*
G54D25*
X60837Y-37956D02*
X60830Y-37939D01*
X60755Y-37863D01*
X60656Y-37822D01*
X60549Y-37822D01*
X60511Y-37837D01*
X60497Y-37224D01*
X60497Y-37219D01*
X60496Y-37218D01*
X60495Y-37141D01*
X60584Y-37178D01*
X60691Y-37178D01*
X60790Y-37137D01*
X60824Y-37103D01*
X60837Y-37956D01*
G54D10*
G36*
X65962Y-39491D02*
X65677Y-39491D01*
X65238Y-39051D01*
X65238Y-38998D01*
X65197Y-38899D01*
X65122Y-38823D01*
X65023Y-38782D01*
X64916Y-38782D01*
X64817Y-38823D01*
X64741Y-38898D01*
X64700Y-38997D01*
X64700Y-39104D01*
X64741Y-39203D01*
X64816Y-39279D01*
X64915Y-39320D01*
X64969Y-39320D01*
X65018Y-39369D01*
X64919Y-39369D01*
X64820Y-39410D01*
X64744Y-39485D01*
X64703Y-39584D01*
X64703Y-39691D01*
X64744Y-39790D01*
X64819Y-39866D01*
X64852Y-39879D01*
X64828Y-39890D01*
X64752Y-39965D01*
X64711Y-40064D01*
X64711Y-40171D01*
X64752Y-40270D01*
X64773Y-40292D01*
X64021Y-40287D01*
X64021Y-39318D01*
X64021Y-39211D01*
X63980Y-39112D01*
X63905Y-39036D01*
X63806Y-38995D01*
X63699Y-38995D01*
X63639Y-39019D01*
X63639Y-37361D01*
X63639Y-37254D01*
X63598Y-37155D01*
X63523Y-37079D01*
X63424Y-37038D01*
X63317Y-37038D01*
X63218Y-37079D01*
X63142Y-37154D01*
X63101Y-37253D01*
X63101Y-37360D01*
X63142Y-37459D01*
X63217Y-37535D01*
X63316Y-37576D01*
X63423Y-37576D01*
X63522Y-37535D01*
X63598Y-37460D01*
X63639Y-37361D01*
X63639Y-39019D01*
X63600Y-39036D01*
X63524Y-39111D01*
X63483Y-39210D01*
X63483Y-39317D01*
X63524Y-39416D01*
X63599Y-39492D01*
X63698Y-39533D01*
X63805Y-39533D01*
X63904Y-39492D01*
X63980Y-39417D01*
X64021Y-39318D01*
X64021Y-40287D01*
X63249Y-40282D01*
X63249Y-39741D01*
X63249Y-39634D01*
X63208Y-39535D01*
X63133Y-39459D01*
X63034Y-39418D01*
X62927Y-39418D01*
X62828Y-39459D01*
X62752Y-39534D01*
X62732Y-39582D01*
X62711Y-39633D01*
X62711Y-39740D01*
X62732Y-39790D01*
X62752Y-39839D01*
X62827Y-39915D01*
X62926Y-39956D01*
X63033Y-39956D01*
X63132Y-39915D01*
X63208Y-39840D01*
X63249Y-39741D01*
X63249Y-40282D01*
X62732Y-40279D01*
X62104Y-40275D01*
X62104Y-38912D01*
X62104Y-38805D01*
X62063Y-38706D01*
X61988Y-38630D01*
X61889Y-38589D01*
X61782Y-38589D01*
X61683Y-38630D01*
X61607Y-38705D01*
X61566Y-38804D01*
X61566Y-38911D01*
X61607Y-39010D01*
X61682Y-39086D01*
X61781Y-39127D01*
X61888Y-39127D01*
X61987Y-39086D01*
X62063Y-39011D01*
X62104Y-38912D01*
X62104Y-40275D01*
X61293Y-40270D01*
X61293Y-39704D01*
X61293Y-39597D01*
X61252Y-39498D01*
X61177Y-39422D01*
X61078Y-39381D01*
X60971Y-39381D01*
X60872Y-39422D01*
X60796Y-39497D01*
X60755Y-39596D01*
X60755Y-39703D01*
X60796Y-39802D01*
X60871Y-39878D01*
X60970Y-39919D01*
X61077Y-39919D01*
X61176Y-39878D01*
X61252Y-39803D01*
X61293Y-39704D01*
X61293Y-40270D01*
X60890Y-40268D01*
X59678Y-40261D01*
X59664Y-39857D01*
X59668Y-39526D01*
X59706Y-39463D01*
X59777Y-39493D01*
X59884Y-39493D01*
X59983Y-39452D01*
X60059Y-39377D01*
X60100Y-39278D01*
X60100Y-39171D01*
X60059Y-39072D01*
X60028Y-39041D01*
X60071Y-38999D01*
X60112Y-38900D01*
X60112Y-38809D01*
X60165Y-38723D01*
X60182Y-38730D01*
X60289Y-38730D01*
X60388Y-38689D01*
X60464Y-38614D01*
X60505Y-38515D01*
X60505Y-38408D01*
X60472Y-38328D01*
X60548Y-38360D01*
X60655Y-38360D01*
X60754Y-38319D01*
X60830Y-38244D01*
X60851Y-38192D01*
X61552Y-38178D01*
X61572Y-38227D01*
X61647Y-38303D01*
X61746Y-38344D01*
X61853Y-38344D01*
X61952Y-38303D01*
X62028Y-38228D01*
X62052Y-38168D01*
X62732Y-38155D01*
X62714Y-37140D01*
X62723Y-37137D01*
X62799Y-37062D01*
X62840Y-36963D01*
X62840Y-36856D01*
X62799Y-36757D01*
X62724Y-36681D01*
X62705Y-36673D01*
X62703Y-36508D01*
X61085Y-36549D01*
X60869Y-36765D01*
X60866Y-36757D01*
X60794Y-36684D01*
X60838Y-36641D01*
X60879Y-36542D01*
X60879Y-36435D01*
X60838Y-36336D01*
X60763Y-36260D01*
X60664Y-36219D01*
X60557Y-36219D01*
X60473Y-36253D01*
X60473Y-36215D01*
X60495Y-36162D01*
X60495Y-36055D01*
X60467Y-35989D01*
X60466Y-35936D01*
X60467Y-35937D01*
X60566Y-35978D01*
X60673Y-35978D01*
X60772Y-35937D01*
X60808Y-35900D01*
X60855Y-35948D01*
X60954Y-35989D01*
X61061Y-35989D01*
X61160Y-35948D01*
X61225Y-35883D01*
X61274Y-35932D01*
X61365Y-35969D01*
X61462Y-35969D01*
X61552Y-35932D01*
X61621Y-35863D01*
X61658Y-35772D01*
X61658Y-35675D01*
X61621Y-35585D01*
X61591Y-35555D01*
X61625Y-35522D01*
X61648Y-35545D01*
X61747Y-35586D01*
X61854Y-35586D01*
X61953Y-35545D01*
X62029Y-35470D01*
X62070Y-35371D01*
X62070Y-35264D01*
X62029Y-35165D01*
X61982Y-35117D01*
X61994Y-35106D01*
X62064Y-35177D01*
X62163Y-35218D01*
X62270Y-35218D01*
X62369Y-35177D01*
X62445Y-35102D01*
X62486Y-35003D01*
X62486Y-34896D01*
X62445Y-34797D01*
X62386Y-34737D01*
X62397Y-34727D01*
X62441Y-34771D01*
X62540Y-34812D01*
X62647Y-34812D01*
X62746Y-34771D01*
X62822Y-34696D01*
X62863Y-34597D01*
X62863Y-34490D01*
X62822Y-34391D01*
X62747Y-34315D01*
X62648Y-34274D01*
X62541Y-34274D01*
X62442Y-34315D01*
X62389Y-34366D01*
X62346Y-34323D01*
X62247Y-34282D01*
X62140Y-34282D01*
X62041Y-34323D01*
X61965Y-34398D01*
X61924Y-34497D01*
X61924Y-34604D01*
X61965Y-34703D01*
X62023Y-34762D01*
X62019Y-34765D01*
X61950Y-34695D01*
X61851Y-34654D01*
X61744Y-34654D01*
X61645Y-34695D01*
X61596Y-34742D01*
X61560Y-34705D01*
X61461Y-34664D01*
X61434Y-34664D01*
X61434Y-33326D01*
X61434Y-33219D01*
X61393Y-33120D01*
X61318Y-33044D01*
X61219Y-33003D01*
X61112Y-33003D01*
X61013Y-33044D01*
X60937Y-33119D01*
X60896Y-33218D01*
X60896Y-33325D01*
X60937Y-33424D01*
X61012Y-33500D01*
X61111Y-33541D01*
X61218Y-33541D01*
X61317Y-33500D01*
X61393Y-33425D01*
X61434Y-33326D01*
X61434Y-34664D01*
X61354Y-34664D01*
X61255Y-34705D01*
X61179Y-34780D01*
X61138Y-34879D01*
X61138Y-34986D01*
X61179Y-35085D01*
X61239Y-35146D01*
X61193Y-35193D01*
X61152Y-35292D01*
X61152Y-35399D01*
X61193Y-35498D01*
X61242Y-35547D01*
X61229Y-35560D01*
X61161Y-35492D01*
X61062Y-35451D01*
X60955Y-35451D01*
X60856Y-35492D01*
X60819Y-35528D01*
X60814Y-35522D01*
X60858Y-35480D01*
X60899Y-35381D01*
X60899Y-35274D01*
X60858Y-35175D01*
X60783Y-35099D01*
X60684Y-35058D01*
X60663Y-35058D01*
X60663Y-30700D01*
X60663Y-30593D01*
X60622Y-30494D01*
X60547Y-30418D01*
X60448Y-30377D01*
X60341Y-30377D01*
X60242Y-30418D01*
X60236Y-30422D01*
X60232Y-30418D01*
X60133Y-30377D01*
X60026Y-30377D01*
X59936Y-30413D01*
X59921Y-30398D01*
X59822Y-30357D01*
X59715Y-30357D01*
X59616Y-30398D01*
X59606Y-30406D01*
X59598Y-30398D01*
X59499Y-30357D01*
X59392Y-30357D01*
X59293Y-30398D01*
X59275Y-30415D01*
X59202Y-30385D01*
X59095Y-30385D01*
X59004Y-30422D01*
X58972Y-30390D01*
X58873Y-30349D01*
X58766Y-30349D01*
X58673Y-30387D01*
X58657Y-30370D01*
X58558Y-30329D01*
X58451Y-30329D01*
X58352Y-30370D01*
X58350Y-30371D01*
X58342Y-30363D01*
X58243Y-30322D01*
X58136Y-30322D01*
X58037Y-30363D01*
X58028Y-30371D01*
X58027Y-30370D01*
X57928Y-30329D01*
X57821Y-30329D01*
X57722Y-30369D01*
X57712Y-30359D01*
X57613Y-30318D01*
X57506Y-30318D01*
X57407Y-30359D01*
X57398Y-30367D01*
X57306Y-30329D01*
X57199Y-30329D01*
X57100Y-30370D01*
X57024Y-30445D01*
X56983Y-30544D01*
X56983Y-30651D01*
X57024Y-30750D01*
X57099Y-30826D01*
X57198Y-30867D01*
X57305Y-30867D01*
X57404Y-30826D01*
X57412Y-30817D01*
X57505Y-30856D01*
X57612Y-30856D01*
X57710Y-30815D01*
X57711Y-30815D01*
X57721Y-30826D01*
X57820Y-30867D01*
X57927Y-30867D01*
X58026Y-30826D01*
X58034Y-30817D01*
X58036Y-30819D01*
X58135Y-30860D01*
X58242Y-30860D01*
X58341Y-30819D01*
X58342Y-30817D01*
X58351Y-30826D01*
X58450Y-30867D01*
X58557Y-30867D01*
X58649Y-30828D01*
X58666Y-30846D01*
X58765Y-30887D01*
X58872Y-30887D01*
X58962Y-30849D01*
X58995Y-30882D01*
X59094Y-30923D01*
X59201Y-30923D01*
X59300Y-30882D01*
X59317Y-30864D01*
X59391Y-30895D01*
X59498Y-30895D01*
X59597Y-30854D01*
X59606Y-30845D01*
X59615Y-30854D01*
X59714Y-30895D01*
X59821Y-30895D01*
X59910Y-30858D01*
X59926Y-30874D01*
X60025Y-30915D01*
X60132Y-30915D01*
X60231Y-30874D01*
X60236Y-30869D01*
X60241Y-30874D01*
X60340Y-30915D01*
X60447Y-30915D01*
X60546Y-30874D01*
X60622Y-30799D01*
X60663Y-30700D01*
X60663Y-35058D01*
X60577Y-35058D01*
X60478Y-35099D01*
X60447Y-35129D01*
X60447Y-35117D01*
X60396Y-35110D01*
X60379Y-35093D01*
X60280Y-35052D01*
X60173Y-35052D01*
X60094Y-35084D01*
X59935Y-35085D01*
X59904Y-35072D01*
X59797Y-35072D01*
X59763Y-35085D01*
X58576Y-35090D01*
X58576Y-33597D01*
X58576Y-33490D01*
X58535Y-33391D01*
X58460Y-33315D01*
X58361Y-33274D01*
X58254Y-33274D01*
X58155Y-33315D01*
X58079Y-33390D01*
X58038Y-33489D01*
X58038Y-33596D01*
X58079Y-33695D01*
X58154Y-33771D01*
X58253Y-33812D01*
X58360Y-33812D01*
X58459Y-33771D01*
X58535Y-33696D01*
X58576Y-33597D01*
X58576Y-35090D01*
X58362Y-35092D01*
X56696Y-34275D01*
X56037Y-33505D01*
X56037Y-30011D01*
X56037Y-29841D01*
X55972Y-29684D01*
X55853Y-29564D01*
X55696Y-29498D01*
X55526Y-29498D01*
X55369Y-29563D01*
X55249Y-29682D01*
X55183Y-29839D01*
X55183Y-30009D01*
X55248Y-30166D01*
X55367Y-30286D01*
X55524Y-30352D01*
X55694Y-30352D01*
X55851Y-30287D01*
X55971Y-30168D01*
X56037Y-30011D01*
X56037Y-33505D01*
X55037Y-32337D01*
X55037Y-30011D01*
X55037Y-29841D01*
X54972Y-29684D01*
X54853Y-29564D01*
X54696Y-29498D01*
X54526Y-29498D01*
X54369Y-29563D01*
X54249Y-29682D01*
X54183Y-29839D01*
X54183Y-30009D01*
X54248Y-30166D01*
X54367Y-30286D01*
X54524Y-30352D01*
X54694Y-30352D01*
X54851Y-30287D01*
X54971Y-30168D01*
X55037Y-30011D01*
X55037Y-32337D01*
X54094Y-31236D01*
X54037Y-31190D01*
X54037Y-30011D01*
X54037Y-29841D01*
X53972Y-29684D01*
X53853Y-29564D01*
X53696Y-29498D01*
X53526Y-29498D01*
X53369Y-29563D01*
X53249Y-29682D01*
X53183Y-29839D01*
X53183Y-30009D01*
X53248Y-30166D01*
X53367Y-30286D01*
X53524Y-30352D01*
X53694Y-30352D01*
X53851Y-30287D01*
X53971Y-30168D01*
X54037Y-30011D01*
X54037Y-31190D01*
X53820Y-31017D01*
X53037Y-31029D01*
X53037Y-30011D01*
X53037Y-29841D01*
X52972Y-29684D01*
X52853Y-29564D01*
X52696Y-29498D01*
X52526Y-29498D01*
X52369Y-29563D01*
X52249Y-29682D01*
X52183Y-29839D01*
X52183Y-30009D01*
X52248Y-30166D01*
X52367Y-30286D01*
X52524Y-30352D01*
X52694Y-30352D01*
X52851Y-30287D01*
X52971Y-30168D01*
X53037Y-30011D01*
X53037Y-31029D01*
X51995Y-31046D01*
X51995Y-29966D01*
X51981Y-29815D01*
X51949Y-29740D01*
X51894Y-29712D01*
X51823Y-29783D01*
X51823Y-29641D01*
X51795Y-29586D01*
X51651Y-29540D01*
X51500Y-29554D01*
X51425Y-29586D01*
X51397Y-29641D01*
X51610Y-29854D01*
X51823Y-29641D01*
X51823Y-29783D01*
X51681Y-29925D01*
X51894Y-30138D01*
X51949Y-30110D01*
X51995Y-29966D01*
X51995Y-31046D01*
X51823Y-31048D01*
X51823Y-30209D01*
X51610Y-29996D01*
X51539Y-30067D01*
X51539Y-29925D01*
X51326Y-29712D01*
X51271Y-29740D01*
X51225Y-29884D01*
X51239Y-30035D01*
X51271Y-30110D01*
X51326Y-30138D01*
X51539Y-29925D01*
X51539Y-30067D01*
X51397Y-30209D01*
X51425Y-30264D01*
X51569Y-30310D01*
X51720Y-30296D01*
X51795Y-30264D01*
X51823Y-30209D01*
X51823Y-31048D01*
X51183Y-31059D01*
X51157Y-28908D01*
X62250Y-28893D01*
X62258Y-30585D01*
X62257Y-30596D01*
X62271Y-30669D01*
X62313Y-30730D01*
X62442Y-30859D01*
X62442Y-30860D01*
X62442Y-30915D01*
X62483Y-31014D01*
X62558Y-31090D01*
X62657Y-31131D01*
X62764Y-31131D01*
X62838Y-31100D01*
X62894Y-31150D01*
X62862Y-31150D01*
X62763Y-31191D01*
X62687Y-31266D01*
X62673Y-31299D01*
X62660Y-31294D01*
X62553Y-31294D01*
X62454Y-31335D01*
X62378Y-31410D01*
X62337Y-31509D01*
X62337Y-31616D01*
X62378Y-31715D01*
X62453Y-31791D01*
X62552Y-31832D01*
X62659Y-31832D01*
X62758Y-31791D01*
X62834Y-31716D01*
X62847Y-31682D01*
X62861Y-31688D01*
X62968Y-31688D01*
X63067Y-31647D01*
X63143Y-31572D01*
X63184Y-31473D01*
X63184Y-31408D01*
X63695Y-31865D01*
X63682Y-31897D01*
X63682Y-32004D01*
X63723Y-32103D01*
X63798Y-32179D01*
X63897Y-32220D01*
X64004Y-32220D01*
X64064Y-32194D01*
X64429Y-32520D01*
X64455Y-32583D01*
X64530Y-32659D01*
X64629Y-32700D01*
X64630Y-32700D01*
X64788Y-32841D01*
X63928Y-32841D01*
X63928Y-32786D01*
X63887Y-32687D01*
X63812Y-32611D01*
X63713Y-32570D01*
X63606Y-32570D01*
X63507Y-32611D01*
X63431Y-32686D01*
X63390Y-32785D01*
X63390Y-32891D01*
X63382Y-32897D01*
X63307Y-32972D01*
X63265Y-33033D01*
X63251Y-33106D01*
X63251Y-33276D01*
X63213Y-33314D01*
X63172Y-33413D01*
X63172Y-33520D01*
X63213Y-33619D01*
X63288Y-33695D01*
X63387Y-33736D01*
X63494Y-33736D01*
X63593Y-33695D01*
X63669Y-33620D01*
X63710Y-33521D01*
X63710Y-33414D01*
X63669Y-33315D01*
X63631Y-33276D01*
X63631Y-33221D01*
X64829Y-33221D01*
X64798Y-33296D01*
X64798Y-33403D01*
X64839Y-33502D01*
X64914Y-33578D01*
X65013Y-33619D01*
X65120Y-33619D01*
X65219Y-33578D01*
X65258Y-33539D01*
X65258Y-33826D01*
X65221Y-33863D01*
X65180Y-33962D01*
X65180Y-34069D01*
X65221Y-34168D01*
X65296Y-34244D01*
X65395Y-34285D01*
X65466Y-34285D01*
X65445Y-34306D01*
X65392Y-34306D01*
X65293Y-34347D01*
X65217Y-34422D01*
X65176Y-34521D01*
X65176Y-34628D01*
X65217Y-34727D01*
X65292Y-34803D01*
X65391Y-34844D01*
X65417Y-34844D01*
X65437Y-34892D01*
X65512Y-34968D01*
X65611Y-35009D01*
X65686Y-35009D01*
X65686Y-36036D01*
X65355Y-36367D01*
X65273Y-36367D01*
X65244Y-36337D01*
X65145Y-36296D01*
X65038Y-36296D01*
X64939Y-36337D01*
X64863Y-36412D01*
X64822Y-36511D01*
X64822Y-36618D01*
X64858Y-36705D01*
X64757Y-36704D01*
X64718Y-36664D01*
X64619Y-36623D01*
X64512Y-36623D01*
X64417Y-36662D01*
X64442Y-36603D01*
X64442Y-36496D01*
X64401Y-36397D01*
X64326Y-36321D01*
X64227Y-36280D01*
X64120Y-36280D01*
X64045Y-36311D01*
X64045Y-35365D01*
X64045Y-35258D01*
X64004Y-35159D01*
X63929Y-35083D01*
X63830Y-35042D01*
X63723Y-35042D01*
X63624Y-35083D01*
X63561Y-35144D01*
X63515Y-35097D01*
X63416Y-35056D01*
X63309Y-35056D01*
X63210Y-35097D01*
X63170Y-35136D01*
X63137Y-35103D01*
X63045Y-35064D01*
X63045Y-33385D01*
X63045Y-33278D01*
X63004Y-33179D01*
X62929Y-33103D01*
X62830Y-33062D01*
X62792Y-33062D01*
X62759Y-32982D01*
X62684Y-32906D01*
X62585Y-32865D01*
X62478Y-32865D01*
X62379Y-32906D01*
X62303Y-32981D01*
X62262Y-33080D01*
X62262Y-33170D01*
X62245Y-33163D01*
X62245Y-31337D01*
X62245Y-31230D01*
X62204Y-31131D01*
X62129Y-31055D01*
X62030Y-31014D01*
X61923Y-31014D01*
X61824Y-31055D01*
X61748Y-31130D01*
X61707Y-31229D01*
X61707Y-31336D01*
X61748Y-31435D01*
X61823Y-31511D01*
X61922Y-31552D01*
X62029Y-31552D01*
X62128Y-31511D01*
X62204Y-31436D01*
X62245Y-31337D01*
X62245Y-33163D01*
X62180Y-33137D01*
X62073Y-33137D01*
X61989Y-33171D01*
X61989Y-32050D01*
X61989Y-31943D01*
X61948Y-31844D01*
X61873Y-31768D01*
X61774Y-31727D01*
X61679Y-31727D01*
X61653Y-31663D01*
X61578Y-31587D01*
X61479Y-31546D01*
X61372Y-31546D01*
X61293Y-31578D01*
X61293Y-30023D01*
X61293Y-29916D01*
X61252Y-29817D01*
X61177Y-29741D01*
X61078Y-29700D01*
X60971Y-29700D01*
X60872Y-29741D01*
X60796Y-29816D01*
X60755Y-29915D01*
X60755Y-30022D01*
X60796Y-30121D01*
X60871Y-30197D01*
X60970Y-30238D01*
X61077Y-30238D01*
X61176Y-30197D01*
X61252Y-30122D01*
X61293Y-30023D01*
X61293Y-31578D01*
X61273Y-31587D01*
X61234Y-31625D01*
X61234Y-30727D01*
X61234Y-30620D01*
X61193Y-30521D01*
X61118Y-30445D01*
X61019Y-30404D01*
X60912Y-30404D01*
X60813Y-30445D01*
X60737Y-30520D01*
X60696Y-30619D01*
X60696Y-30726D01*
X60737Y-30825D01*
X60812Y-30901D01*
X60911Y-30942D01*
X61018Y-30942D01*
X61117Y-30901D01*
X61193Y-30826D01*
X61234Y-30727D01*
X61234Y-31625D01*
X61197Y-31662D01*
X61156Y-31761D01*
X61156Y-31868D01*
X61197Y-31967D01*
X61272Y-32043D01*
X61371Y-32084D01*
X61465Y-32084D01*
X61492Y-32148D01*
X61567Y-32224D01*
X61666Y-32265D01*
X61773Y-32265D01*
X61872Y-32224D01*
X61948Y-32149D01*
X61989Y-32050D01*
X61989Y-33171D01*
X61974Y-33178D01*
X61898Y-33253D01*
X61859Y-33345D01*
X61839Y-33337D01*
X61732Y-33337D01*
X61633Y-33378D01*
X61557Y-33453D01*
X61516Y-33552D01*
X61516Y-33659D01*
X61557Y-33758D01*
X61632Y-33834D01*
X61731Y-33875D01*
X61838Y-33875D01*
X61937Y-33834D01*
X62013Y-33759D01*
X62051Y-33666D01*
X62072Y-33675D01*
X62179Y-33675D01*
X62278Y-33634D01*
X62354Y-33559D01*
X62395Y-33460D01*
X62395Y-33369D01*
X62477Y-33403D01*
X62514Y-33403D01*
X62548Y-33483D01*
X62623Y-33559D01*
X62722Y-33600D01*
X62829Y-33600D01*
X62928Y-33559D01*
X63004Y-33484D01*
X63045Y-33385D01*
X63045Y-35064D01*
X63038Y-35062D01*
X62931Y-35062D01*
X62832Y-35103D01*
X62756Y-35178D01*
X62715Y-35277D01*
X62715Y-35384D01*
X62756Y-35483D01*
X62831Y-35559D01*
X62930Y-35600D01*
X63037Y-35600D01*
X63136Y-35559D01*
X63175Y-35519D01*
X63209Y-35553D01*
X63308Y-35594D01*
X63415Y-35594D01*
X63514Y-35553D01*
X63576Y-35491D01*
X63623Y-35539D01*
X63722Y-35580D01*
X63829Y-35580D01*
X63928Y-35539D01*
X64004Y-35464D01*
X64045Y-35365D01*
X64045Y-36311D01*
X64021Y-36321D01*
X63945Y-36396D01*
X63904Y-36495D01*
X63904Y-36602D01*
X63945Y-36701D01*
X64020Y-36777D01*
X64119Y-36818D01*
X64226Y-36818D01*
X64320Y-36778D01*
X64296Y-36838D01*
X64296Y-36945D01*
X64337Y-37044D01*
X64412Y-37120D01*
X64511Y-37161D01*
X64618Y-37161D01*
X64717Y-37120D01*
X64753Y-37084D01*
X64772Y-37084D01*
X64772Y-37171D01*
X64813Y-37270D01*
X64888Y-37346D01*
X64987Y-37387D01*
X65094Y-37387D01*
X65193Y-37346D01*
X65212Y-37326D01*
X65962Y-37347D01*
X65962Y-37481D01*
X65176Y-37481D01*
X65137Y-37441D01*
X65038Y-37400D01*
X64931Y-37400D01*
X64832Y-37441D01*
X64756Y-37516D01*
X64715Y-37615D01*
X64715Y-37722D01*
X64756Y-37821D01*
X64777Y-37842D01*
X64723Y-37895D01*
X64692Y-37863D01*
X64593Y-37822D01*
X64486Y-37822D01*
X64387Y-37863D01*
X64311Y-37938D01*
X64270Y-38037D01*
X64270Y-38144D01*
X64311Y-38243D01*
X64386Y-38319D01*
X64485Y-38360D01*
X64592Y-38360D01*
X64691Y-38319D01*
X64760Y-38250D01*
X64792Y-38283D01*
X64794Y-38283D01*
X64770Y-38308D01*
X64729Y-38407D01*
X64729Y-38514D01*
X64770Y-38613D01*
X64845Y-38689D01*
X64944Y-38730D01*
X65051Y-38730D01*
X65150Y-38689D01*
X65226Y-38614D01*
X65228Y-38607D01*
X65962Y-39340D01*
X65962Y-39491D01*
X65962Y-39491D01*
G37*
G54D25*
X65962Y-39491D02*
X65677Y-39491D01*
X65238Y-39051D01*
X65238Y-38998D01*
X65197Y-38899D01*
X65122Y-38823D01*
X65023Y-38782D01*
X64916Y-38782D01*
X64817Y-38823D01*
X64741Y-38898D01*
X64700Y-38997D01*
X64700Y-39104D01*
X64741Y-39203D01*
X64816Y-39279D01*
X64915Y-39320D01*
X64969Y-39320D01*
X65018Y-39369D01*
X64919Y-39369D01*
X64820Y-39410D01*
X64744Y-39485D01*
X64703Y-39584D01*
X64703Y-39691D01*
X64744Y-39790D01*
X64819Y-39866D01*
X64852Y-39879D01*
X64828Y-39890D01*
X64752Y-39965D01*
X64711Y-40064D01*
X64711Y-40171D01*
X64752Y-40270D01*
X64773Y-40292D01*
X64021Y-40287D01*
X64021Y-39318D01*
X64021Y-39211D01*
X63980Y-39112D01*
X63905Y-39036D01*
X63806Y-38995D01*
X63699Y-38995D01*
X63639Y-39019D01*
X63639Y-37361D01*
X63639Y-37254D01*
X63598Y-37155D01*
X63523Y-37079D01*
X63424Y-37038D01*
X63317Y-37038D01*
X63218Y-37079D01*
X63142Y-37154D01*
X63101Y-37253D01*
X63101Y-37360D01*
X63142Y-37459D01*
X63217Y-37535D01*
X63316Y-37576D01*
X63423Y-37576D01*
X63522Y-37535D01*
X63598Y-37460D01*
X63639Y-37361D01*
X63639Y-39019D01*
X63600Y-39036D01*
X63524Y-39111D01*
X63483Y-39210D01*
X63483Y-39317D01*
X63524Y-39416D01*
X63599Y-39492D01*
X63698Y-39533D01*
X63805Y-39533D01*
X63904Y-39492D01*
X63980Y-39417D01*
X64021Y-39318D01*
X64021Y-40287D01*
X63249Y-40282D01*
X63249Y-39741D01*
X63249Y-39634D01*
X63208Y-39535D01*
X63133Y-39459D01*
X63034Y-39418D01*
X62927Y-39418D01*
X62828Y-39459D01*
X62752Y-39534D01*
X62732Y-39582D01*
X62711Y-39633D01*
X62711Y-39740D01*
X62732Y-39790D01*
X62752Y-39839D01*
X62827Y-39915D01*
X62926Y-39956D01*
X63033Y-39956D01*
X63132Y-39915D01*
X63208Y-39840D01*
X63249Y-39741D01*
X63249Y-40282D01*
X62732Y-40279D01*
X62104Y-40275D01*
X62104Y-38912D01*
X62104Y-38805D01*
X62063Y-38706D01*
X61988Y-38630D01*
X61889Y-38589D01*
X61782Y-38589D01*
X61683Y-38630D01*
X61607Y-38705D01*
X61566Y-38804D01*
X61566Y-38911D01*
X61607Y-39010D01*
X61682Y-39086D01*
X61781Y-39127D01*
X61888Y-39127D01*
X61987Y-39086D01*
X62063Y-39011D01*
X62104Y-38912D01*
X62104Y-40275D01*
X61293Y-40270D01*
X61293Y-39704D01*
X61293Y-39597D01*
X61252Y-39498D01*
X61177Y-39422D01*
X61078Y-39381D01*
X60971Y-39381D01*
X60872Y-39422D01*
X60796Y-39497D01*
X60755Y-39596D01*
X60755Y-39703D01*
X60796Y-39802D01*
X60871Y-39878D01*
X60970Y-39919D01*
X61077Y-39919D01*
X61176Y-39878D01*
X61252Y-39803D01*
X61293Y-39704D01*
X61293Y-40270D01*
X60890Y-40268D01*
X59678Y-40261D01*
X59664Y-39857D01*
X59668Y-39526D01*
X59706Y-39463D01*
X59777Y-39493D01*
X59884Y-39493D01*
X59983Y-39452D01*
X60059Y-39377D01*
X60100Y-39278D01*
X60100Y-39171D01*
X60059Y-39072D01*
X60028Y-39041D01*
X60071Y-38999D01*
X60112Y-38900D01*
X60112Y-38809D01*
X60165Y-38723D01*
X60182Y-38730D01*
X60289Y-38730D01*
X60388Y-38689D01*
X60464Y-38614D01*
X60505Y-38515D01*
X60505Y-38408D01*
X60472Y-38328D01*
X60548Y-38360D01*
X60655Y-38360D01*
X60754Y-38319D01*
X60830Y-38244D01*
X60851Y-38192D01*
X61552Y-38178D01*
X61572Y-38227D01*
X61647Y-38303D01*
X61746Y-38344D01*
X61853Y-38344D01*
X61952Y-38303D01*
X62028Y-38228D01*
X62052Y-38168D01*
X62732Y-38155D01*
X62714Y-37140D01*
X62723Y-37137D01*
X62799Y-37062D01*
X62840Y-36963D01*
X62840Y-36856D01*
X62799Y-36757D01*
X62724Y-36681D01*
X62705Y-36673D01*
X62703Y-36508D01*
X61085Y-36549D01*
X60869Y-36765D01*
X60866Y-36757D01*
X60794Y-36684D01*
X60838Y-36641D01*
X60879Y-36542D01*
X60879Y-36435D01*
X60838Y-36336D01*
X60763Y-36260D01*
X60664Y-36219D01*
X60557Y-36219D01*
X60473Y-36253D01*
X60473Y-36215D01*
X60495Y-36162D01*
X60495Y-36055D01*
X60467Y-35989D01*
X60466Y-35936D01*
X60467Y-35937D01*
X60566Y-35978D01*
X60673Y-35978D01*
X60772Y-35937D01*
X60808Y-35900D01*
X60855Y-35948D01*
X60954Y-35989D01*
X61061Y-35989D01*
X61160Y-35948D01*
X61225Y-35883D01*
X61274Y-35932D01*
X61365Y-35969D01*
X61462Y-35969D01*
X61552Y-35932D01*
X61621Y-35863D01*
X61658Y-35772D01*
X61658Y-35675D01*
X61621Y-35585D01*
X61591Y-35555D01*
X61625Y-35522D01*
X61648Y-35545D01*
X61747Y-35586D01*
X61854Y-35586D01*
X61953Y-35545D01*
X62029Y-35470D01*
X62070Y-35371D01*
X62070Y-35264D01*
X62029Y-35165D01*
X61982Y-35117D01*
X61994Y-35106D01*
X62064Y-35177D01*
X62163Y-35218D01*
X62270Y-35218D01*
X62369Y-35177D01*
X62445Y-35102D01*
X62486Y-35003D01*
X62486Y-34896D01*
X62445Y-34797D01*
X62386Y-34737D01*
X62397Y-34727D01*
X62441Y-34771D01*
X62540Y-34812D01*
X62647Y-34812D01*
X62746Y-34771D01*
X62822Y-34696D01*
X62863Y-34597D01*
X62863Y-34490D01*
X62822Y-34391D01*
X62747Y-34315D01*
X62648Y-34274D01*
X62541Y-34274D01*
X62442Y-34315D01*
X62389Y-34366D01*
X62346Y-34323D01*
X62247Y-34282D01*
X62140Y-34282D01*
X62041Y-34323D01*
X61965Y-34398D01*
X61924Y-34497D01*
X61924Y-34604D01*
X61965Y-34703D01*
X62023Y-34762D01*
X62019Y-34765D01*
X61950Y-34695D01*
X61851Y-34654D01*
X61744Y-34654D01*
X61645Y-34695D01*
X61596Y-34742D01*
X61560Y-34705D01*
X61461Y-34664D01*
X61434Y-34664D01*
X61434Y-33326D01*
X61434Y-33219D01*
X61393Y-33120D01*
X61318Y-33044D01*
X61219Y-33003D01*
X61112Y-33003D01*
X61013Y-33044D01*
X60937Y-33119D01*
X60896Y-33218D01*
X60896Y-33325D01*
X60937Y-33424D01*
X61012Y-33500D01*
X61111Y-33541D01*
X61218Y-33541D01*
X61317Y-33500D01*
X61393Y-33425D01*
X61434Y-33326D01*
X61434Y-34664D01*
X61354Y-34664D01*
X61255Y-34705D01*
X61179Y-34780D01*
X61138Y-34879D01*
X61138Y-34986D01*
X61179Y-35085D01*
X61239Y-35146D01*
X61193Y-35193D01*
X61152Y-35292D01*
X61152Y-35399D01*
X61193Y-35498D01*
X61242Y-35547D01*
X61229Y-35560D01*
X61161Y-35492D01*
X61062Y-35451D01*
X60955Y-35451D01*
X60856Y-35492D01*
X60819Y-35528D01*
X60814Y-35522D01*
X60858Y-35480D01*
X60899Y-35381D01*
X60899Y-35274D01*
X60858Y-35175D01*
X60783Y-35099D01*
X60684Y-35058D01*
X60663Y-35058D01*
X60663Y-30700D01*
X60663Y-30593D01*
X60622Y-30494D01*
X60547Y-30418D01*
X60448Y-30377D01*
X60341Y-30377D01*
X60242Y-30418D01*
X60236Y-30422D01*
X60232Y-30418D01*
X60133Y-30377D01*
X60026Y-30377D01*
X59936Y-30413D01*
X59921Y-30398D01*
X59822Y-30357D01*
X59715Y-30357D01*
X59616Y-30398D01*
X59606Y-30406D01*
X59598Y-30398D01*
X59499Y-30357D01*
X59392Y-30357D01*
X59293Y-30398D01*
X59275Y-30415D01*
X59202Y-30385D01*
X59095Y-30385D01*
X59004Y-30422D01*
X58972Y-30390D01*
X58873Y-30349D01*
X58766Y-30349D01*
X58673Y-30387D01*
X58657Y-30370D01*
X58558Y-30329D01*
X58451Y-30329D01*
X58352Y-30370D01*
X58350Y-30371D01*
X58342Y-30363D01*
X58243Y-30322D01*
X58136Y-30322D01*
X58037Y-30363D01*
X58028Y-30371D01*
X58027Y-30370D01*
X57928Y-30329D01*
X57821Y-30329D01*
X57722Y-30369D01*
X57712Y-30359D01*
X57613Y-30318D01*
X57506Y-30318D01*
X57407Y-30359D01*
X57398Y-30367D01*
X57306Y-30329D01*
X57199Y-30329D01*
X57100Y-30370D01*
X57024Y-30445D01*
X56983Y-30544D01*
X56983Y-30651D01*
X57024Y-30750D01*
X57099Y-30826D01*
X57198Y-30867D01*
X57305Y-30867D01*
X57404Y-30826D01*
X57412Y-30817D01*
X57505Y-30856D01*
X57612Y-30856D01*
X57710Y-30815D01*
X57711Y-30815D01*
X57721Y-30826D01*
X57820Y-30867D01*
X57927Y-30867D01*
X58026Y-30826D01*
X58034Y-30817D01*
X58036Y-30819D01*
X58135Y-30860D01*
X58242Y-30860D01*
X58341Y-30819D01*
X58342Y-30817D01*
X58351Y-30826D01*
X58450Y-30867D01*
X58557Y-30867D01*
X58649Y-30828D01*
X58666Y-30846D01*
X58765Y-30887D01*
X58872Y-30887D01*
X58962Y-30849D01*
X58995Y-30882D01*
X59094Y-30923D01*
X59201Y-30923D01*
X59300Y-30882D01*
X59317Y-30864D01*
X59391Y-30895D01*
X59498Y-30895D01*
X59597Y-30854D01*
X59606Y-30845D01*
X59615Y-30854D01*
X59714Y-30895D01*
X59821Y-30895D01*
X59910Y-30858D01*
X59926Y-30874D01*
X60025Y-30915D01*
X60132Y-30915D01*
X60231Y-30874D01*
X60236Y-30869D01*
X60241Y-30874D01*
X60340Y-30915D01*
X60447Y-30915D01*
X60546Y-30874D01*
X60622Y-30799D01*
X60663Y-30700D01*
X60663Y-35058D01*
X60577Y-35058D01*
X60478Y-35099D01*
X60447Y-35129D01*
X60447Y-35117D01*
X60396Y-35110D01*
X60379Y-35093D01*
X60280Y-35052D01*
X60173Y-35052D01*
X60094Y-35084D01*
X59935Y-35085D01*
X59904Y-35072D01*
X59797Y-35072D01*
X59763Y-35085D01*
X58576Y-35090D01*
X58576Y-33597D01*
X58576Y-33490D01*
X58535Y-33391D01*
X58460Y-33315D01*
X58361Y-33274D01*
X58254Y-33274D01*
X58155Y-33315D01*
X58079Y-33390D01*
X58038Y-33489D01*
X58038Y-33596D01*
X58079Y-33695D01*
X58154Y-33771D01*
X58253Y-33812D01*
X58360Y-33812D01*
X58459Y-33771D01*
X58535Y-33696D01*
X58576Y-33597D01*
X58576Y-35090D01*
X58362Y-35092D01*
X56696Y-34275D01*
X56037Y-33505D01*
X56037Y-30011D01*
X56037Y-29841D01*
X55972Y-29684D01*
X55853Y-29564D01*
X55696Y-29498D01*
X55526Y-29498D01*
X55369Y-29563D01*
X55249Y-29682D01*
X55183Y-29839D01*
X55183Y-30009D01*
X55248Y-30166D01*
X55367Y-30286D01*
X55524Y-30352D01*
X55694Y-30352D01*
X55851Y-30287D01*
X55971Y-30168D01*
X56037Y-30011D01*
X56037Y-33505D01*
X55037Y-32337D01*
X55037Y-30011D01*
X55037Y-29841D01*
X54972Y-29684D01*
X54853Y-29564D01*
X54696Y-29498D01*
X54526Y-29498D01*
X54369Y-29563D01*
X54249Y-29682D01*
X54183Y-29839D01*
X54183Y-30009D01*
X54248Y-30166D01*
X54367Y-30286D01*
X54524Y-30352D01*
X54694Y-30352D01*
X54851Y-30287D01*
X54971Y-30168D01*
X55037Y-30011D01*
X55037Y-32337D01*
X54094Y-31236D01*
X54037Y-31190D01*
X54037Y-30011D01*
X54037Y-29841D01*
X53972Y-29684D01*
X53853Y-29564D01*
X53696Y-29498D01*
X53526Y-29498D01*
X53369Y-29563D01*
X53249Y-29682D01*
X53183Y-29839D01*
X53183Y-30009D01*
X53248Y-30166D01*
X53367Y-30286D01*
X53524Y-30352D01*
X53694Y-30352D01*
X53851Y-30287D01*
X53971Y-30168D01*
X54037Y-30011D01*
X54037Y-31190D01*
X53820Y-31017D01*
X53037Y-31029D01*
X53037Y-30011D01*
X53037Y-29841D01*
X52972Y-29684D01*
X52853Y-29564D01*
X52696Y-29498D01*
X52526Y-29498D01*
X52369Y-29563D01*
X52249Y-29682D01*
X52183Y-29839D01*
X52183Y-30009D01*
X52248Y-30166D01*
X52367Y-30286D01*
X52524Y-30352D01*
X52694Y-30352D01*
X52851Y-30287D01*
X52971Y-30168D01*
X53037Y-30011D01*
X53037Y-31029D01*
X51995Y-31046D01*
X51995Y-29966D01*
X51981Y-29815D01*
X51949Y-29740D01*
X51894Y-29712D01*
X51823Y-29783D01*
X51823Y-29641D01*
X51795Y-29586D01*
X51651Y-29540D01*
X51500Y-29554D01*
X51425Y-29586D01*
X51397Y-29641D01*
X51610Y-29854D01*
X51823Y-29641D01*
X51823Y-29783D01*
X51681Y-29925D01*
X51894Y-30138D01*
X51949Y-30110D01*
X51995Y-29966D01*
X51995Y-31046D01*
X51823Y-31048D01*
X51823Y-30209D01*
X51610Y-29996D01*
X51539Y-30067D01*
X51539Y-29925D01*
X51326Y-29712D01*
X51271Y-29740D01*
X51225Y-29884D01*
X51239Y-30035D01*
X51271Y-30110D01*
X51326Y-30138D01*
X51539Y-29925D01*
X51539Y-30067D01*
X51397Y-30209D01*
X51425Y-30264D01*
X51569Y-30310D01*
X51720Y-30296D01*
X51795Y-30264D01*
X51823Y-30209D01*
X51823Y-31048D01*
X51183Y-31059D01*
X51157Y-28908D01*
X62250Y-28893D01*
X62258Y-30585D01*
X62257Y-30596D01*
X62271Y-30669D01*
X62313Y-30730D01*
X62442Y-30859D01*
X62442Y-30860D01*
X62442Y-30915D01*
X62483Y-31014D01*
X62558Y-31090D01*
X62657Y-31131D01*
X62764Y-31131D01*
X62838Y-31100D01*
X62894Y-31150D01*
X62862Y-31150D01*
X62763Y-31191D01*
X62687Y-31266D01*
X62673Y-31299D01*
X62660Y-31294D01*
X62553Y-31294D01*
X62454Y-31335D01*
X62378Y-31410D01*
X62337Y-31509D01*
X62337Y-31616D01*
X62378Y-31715D01*
X62453Y-31791D01*
X62552Y-31832D01*
X62659Y-31832D01*
X62758Y-31791D01*
X62834Y-31716D01*
X62847Y-31682D01*
X62861Y-31688D01*
X62968Y-31688D01*
X63067Y-31647D01*
X63143Y-31572D01*
X63184Y-31473D01*
X63184Y-31408D01*
X63695Y-31865D01*
X63682Y-31897D01*
X63682Y-32004D01*
X63723Y-32103D01*
X63798Y-32179D01*
X63897Y-32220D01*
X64004Y-32220D01*
X64064Y-32194D01*
X64429Y-32520D01*
X64455Y-32583D01*
X64530Y-32659D01*
X64629Y-32700D01*
X64630Y-32700D01*
X64788Y-32841D01*
X63928Y-32841D01*
X63928Y-32786D01*
X63887Y-32687D01*
X63812Y-32611D01*
X63713Y-32570D01*
X63606Y-32570D01*
X63507Y-32611D01*
X63431Y-32686D01*
X63390Y-32785D01*
X63390Y-32891D01*
X63382Y-32897D01*
X63307Y-32972D01*
X63265Y-33033D01*
X63251Y-33106D01*
X63251Y-33276D01*
X63213Y-33314D01*
X63172Y-33413D01*
X63172Y-33520D01*
X63213Y-33619D01*
X63288Y-33695D01*
X63387Y-33736D01*
X63494Y-33736D01*
X63593Y-33695D01*
X63669Y-33620D01*
X63710Y-33521D01*
X63710Y-33414D01*
X63669Y-33315D01*
X63631Y-33276D01*
X63631Y-33221D01*
X64829Y-33221D01*
X64798Y-33296D01*
X64798Y-33403D01*
X64839Y-33502D01*
X64914Y-33578D01*
X65013Y-33619D01*
X65120Y-33619D01*
X65219Y-33578D01*
X65258Y-33539D01*
X65258Y-33826D01*
X65221Y-33863D01*
X65180Y-33962D01*
X65180Y-34069D01*
X65221Y-34168D01*
X65296Y-34244D01*
X65395Y-34285D01*
X65466Y-34285D01*
X65445Y-34306D01*
X65392Y-34306D01*
X65293Y-34347D01*
X65217Y-34422D01*
X65176Y-34521D01*
X65176Y-34628D01*
X65217Y-34727D01*
X65292Y-34803D01*
X65391Y-34844D01*
X65417Y-34844D01*
X65437Y-34892D01*
X65512Y-34968D01*
X65611Y-35009D01*
X65686Y-35009D01*
X65686Y-36036D01*
X65355Y-36367D01*
X65273Y-36367D01*
X65244Y-36337D01*
X65145Y-36296D01*
X65038Y-36296D01*
X64939Y-36337D01*
X64863Y-36412D01*
X64822Y-36511D01*
X64822Y-36618D01*
X64858Y-36705D01*
X64757Y-36704D01*
X64718Y-36664D01*
X64619Y-36623D01*
X64512Y-36623D01*
X64417Y-36662D01*
X64442Y-36603D01*
X64442Y-36496D01*
X64401Y-36397D01*
X64326Y-36321D01*
X64227Y-36280D01*
X64120Y-36280D01*
X64045Y-36311D01*
X64045Y-35365D01*
X64045Y-35258D01*
X64004Y-35159D01*
X63929Y-35083D01*
X63830Y-35042D01*
X63723Y-35042D01*
X63624Y-35083D01*
X63561Y-35144D01*
X63515Y-35097D01*
X63416Y-35056D01*
X63309Y-35056D01*
X63210Y-35097D01*
X63170Y-35136D01*
X63137Y-35103D01*
X63045Y-35064D01*
X63045Y-33385D01*
X63045Y-33278D01*
X63004Y-33179D01*
X62929Y-33103D01*
X62830Y-33062D01*
X62792Y-33062D01*
X62759Y-32982D01*
X62684Y-32906D01*
X62585Y-32865D01*
X62478Y-32865D01*
X62379Y-32906D01*
X62303Y-32981D01*
X62262Y-33080D01*
X62262Y-33170D01*
X62245Y-33163D01*
X62245Y-31337D01*
X62245Y-31230D01*
X62204Y-31131D01*
X62129Y-31055D01*
X62030Y-31014D01*
X61923Y-31014D01*
X61824Y-31055D01*
X61748Y-31130D01*
X61707Y-31229D01*
X61707Y-31336D01*
X61748Y-31435D01*
X61823Y-31511D01*
X61922Y-31552D01*
X62029Y-31552D01*
X62128Y-31511D01*
X62204Y-31436D01*
X62245Y-31337D01*
X62245Y-33163D01*
X62180Y-33137D01*
X62073Y-33137D01*
X61989Y-33171D01*
X61989Y-32050D01*
X61989Y-31943D01*
X61948Y-31844D01*
X61873Y-31768D01*
X61774Y-31727D01*
X61679Y-31727D01*
X61653Y-31663D01*
X61578Y-31587D01*
X61479Y-31546D01*
X61372Y-31546D01*
X61293Y-31578D01*
X61293Y-30023D01*
X61293Y-29916D01*
X61252Y-29817D01*
X61177Y-29741D01*
X61078Y-29700D01*
X60971Y-29700D01*
X60872Y-29741D01*
X60796Y-29816D01*
X60755Y-29915D01*
X60755Y-30022D01*
X60796Y-30121D01*
X60871Y-30197D01*
X60970Y-30238D01*
X61077Y-30238D01*
X61176Y-30197D01*
X61252Y-30122D01*
X61293Y-30023D01*
X61293Y-31578D01*
X61273Y-31587D01*
X61234Y-31625D01*
X61234Y-30727D01*
X61234Y-30620D01*
X61193Y-30521D01*
X61118Y-30445D01*
X61019Y-30404D01*
X60912Y-30404D01*
X60813Y-30445D01*
X60737Y-30520D01*
X60696Y-30619D01*
X60696Y-30726D01*
X60737Y-30825D01*
X60812Y-30901D01*
X60911Y-30942D01*
X61018Y-30942D01*
X61117Y-30901D01*
X61193Y-30826D01*
X61234Y-30727D01*
X61234Y-31625D01*
X61197Y-31662D01*
X61156Y-31761D01*
X61156Y-31868D01*
X61197Y-31967D01*
X61272Y-32043D01*
X61371Y-32084D01*
X61465Y-32084D01*
X61492Y-32148D01*
X61567Y-32224D01*
X61666Y-32265D01*
X61773Y-32265D01*
X61872Y-32224D01*
X61948Y-32149D01*
X61989Y-32050D01*
X61989Y-33171D01*
X61974Y-33178D01*
X61898Y-33253D01*
X61859Y-33345D01*
X61839Y-33337D01*
X61732Y-33337D01*
X61633Y-33378D01*
X61557Y-33453D01*
X61516Y-33552D01*
X61516Y-33659D01*
X61557Y-33758D01*
X61632Y-33834D01*
X61731Y-33875D01*
X61838Y-33875D01*
X61937Y-33834D01*
X62013Y-33759D01*
X62051Y-33666D01*
X62072Y-33675D01*
X62179Y-33675D01*
X62278Y-33634D01*
X62354Y-33559D01*
X62395Y-33460D01*
X62395Y-33369D01*
X62477Y-33403D01*
X62514Y-33403D01*
X62548Y-33483D01*
X62623Y-33559D01*
X62722Y-33600D01*
X62829Y-33600D01*
X62928Y-33559D01*
X63004Y-33484D01*
X63045Y-33385D01*
X63045Y-35064D01*
X63038Y-35062D01*
X62931Y-35062D01*
X62832Y-35103D01*
X62756Y-35178D01*
X62715Y-35277D01*
X62715Y-35384D01*
X62756Y-35483D01*
X62831Y-35559D01*
X62930Y-35600D01*
X63037Y-35600D01*
X63136Y-35559D01*
X63175Y-35519D01*
X63209Y-35553D01*
X63308Y-35594D01*
X63415Y-35594D01*
X63514Y-35553D01*
X63576Y-35491D01*
X63623Y-35539D01*
X63722Y-35580D01*
X63829Y-35580D01*
X63928Y-35539D01*
X64004Y-35464D01*
X64045Y-35365D01*
X64045Y-36311D01*
X64021Y-36321D01*
X63945Y-36396D01*
X63904Y-36495D01*
X63904Y-36602D01*
X63945Y-36701D01*
X64020Y-36777D01*
X64119Y-36818D01*
X64226Y-36818D01*
X64320Y-36778D01*
X64296Y-36838D01*
X64296Y-36945D01*
X64337Y-37044D01*
X64412Y-37120D01*
X64511Y-37161D01*
X64618Y-37161D01*
X64717Y-37120D01*
X64753Y-37084D01*
X64772Y-37084D01*
X64772Y-37171D01*
X64813Y-37270D01*
X64888Y-37346D01*
X64987Y-37387D01*
X65094Y-37387D01*
X65193Y-37346D01*
X65212Y-37326D01*
X65962Y-37347D01*
X65962Y-37481D01*
X65176Y-37481D01*
X65137Y-37441D01*
X65038Y-37400D01*
X64931Y-37400D01*
X64832Y-37441D01*
X64756Y-37516D01*
X64715Y-37615D01*
X64715Y-37722D01*
X64756Y-37821D01*
X64777Y-37842D01*
X64723Y-37895D01*
X64692Y-37863D01*
X64593Y-37822D01*
X64486Y-37822D01*
X64387Y-37863D01*
X64311Y-37938D01*
X64270Y-38037D01*
X64270Y-38144D01*
X64311Y-38243D01*
X64386Y-38319D01*
X64485Y-38360D01*
X64592Y-38360D01*
X64691Y-38319D01*
X64760Y-38250D01*
X64792Y-38283D01*
X64794Y-38283D01*
X64770Y-38308D01*
X64729Y-38407D01*
X64729Y-38514D01*
X64770Y-38613D01*
X64845Y-38689D01*
X64944Y-38730D01*
X65051Y-38730D01*
X65150Y-38689D01*
X65226Y-38614D01*
X65228Y-38607D01*
X65962Y-39340D01*
X65962Y-39491D01*
M02*
