G04 (created by PCBNEW-RS274X (2012-jan-04)-stable) date Tue Sep 11 14:05:08 2012*
G01*
G70*
G90*
%MOIN*%
G04 Gerber Fmt 3.4, Leading zero omitted, Abs format*
%FSLAX34Y34*%
G04 APERTURE LIST*
%ADD10C,0.006000*%
%ADD11C,0.012000*%
%ADD12C,0.040200*%
%ADD13C,0.180000*%
%ADD14R,0.065000X0.065000*%
%ADD15C,0.051200*%
%ADD16C,0.011800*%
%ADD17C,0.019700*%
%ADD18C,0.039400*%
%ADD19C,0.009800*%
%ADD20C,0.019700*%
%ADD21C,0.013800*%
%ADD22C,0.059100*%
%ADD23C,0.029500*%
%ADD24C,0.039400*%
%ADD25C,0.011800*%
%ADD26C,0.010000*%
G04 APERTURE END LIST*
G54D10*
X04000Y-04000D02*
X113000Y-04000D01*
X113000Y-78670D01*
X04000Y-78670D01*
X04000Y-04000D01*
X04700Y-04700D02*
X112300Y-04700D01*
X112300Y-77970D01*
X04700Y-77970D01*
X04700Y-04700D01*
X25800Y-04000D02*
X25800Y-04700D01*
X15043Y-04552D02*
X14757Y-04552D01*
X14900Y-04552D02*
X14900Y-04052D01*
X14852Y-04124D01*
X14805Y-04171D01*
X14757Y-04195D01*
X25800Y-78670D02*
X25800Y-77970D01*
X15043Y-78522D02*
X14757Y-78522D01*
X14900Y-78522D02*
X14900Y-78022D01*
X14852Y-78094D01*
X14805Y-78141D01*
X14757Y-78165D01*
X47600Y-04000D02*
X47600Y-04700D01*
X36557Y-04100D02*
X36581Y-04076D01*
X36629Y-04052D01*
X36748Y-04052D01*
X36795Y-04076D01*
X36819Y-04100D01*
X36843Y-04148D01*
X36843Y-04195D01*
X36819Y-04267D01*
X36533Y-04552D01*
X36843Y-04552D01*
X47600Y-78670D02*
X47600Y-77970D01*
X36557Y-78070D02*
X36581Y-78046D01*
X36629Y-78022D01*
X36748Y-78022D01*
X36795Y-78046D01*
X36819Y-78070D01*
X36843Y-78118D01*
X36843Y-78165D01*
X36819Y-78237D01*
X36533Y-78522D01*
X36843Y-78522D01*
X69400Y-04000D02*
X69400Y-04700D01*
X58333Y-04052D02*
X58643Y-04052D01*
X58476Y-04243D01*
X58548Y-04243D01*
X58595Y-04267D01*
X58619Y-04290D01*
X58643Y-04338D01*
X58643Y-04457D01*
X58619Y-04505D01*
X58595Y-04529D01*
X58548Y-04552D01*
X58405Y-04552D01*
X58357Y-04529D01*
X58333Y-04505D01*
X69400Y-78670D02*
X69400Y-77970D01*
X58333Y-78022D02*
X58643Y-78022D01*
X58476Y-78213D01*
X58548Y-78213D01*
X58595Y-78237D01*
X58619Y-78260D01*
X58643Y-78308D01*
X58643Y-78427D01*
X58619Y-78475D01*
X58595Y-78499D01*
X58548Y-78522D01*
X58405Y-78522D01*
X58357Y-78499D01*
X58333Y-78475D01*
X91200Y-04000D02*
X91200Y-04700D01*
X80395Y-04219D02*
X80395Y-04552D01*
X80276Y-04029D02*
X80157Y-04386D01*
X80467Y-04386D01*
X91200Y-78670D02*
X91200Y-77970D01*
X80395Y-78189D02*
X80395Y-78522D01*
X80276Y-77999D02*
X80157Y-78356D01*
X80467Y-78356D01*
X102219Y-04052D02*
X101981Y-04052D01*
X101957Y-04290D01*
X101981Y-04267D01*
X102029Y-04243D01*
X102148Y-04243D01*
X102195Y-04267D01*
X102219Y-04290D01*
X102243Y-04338D01*
X102243Y-04457D01*
X102219Y-04505D01*
X102195Y-04529D01*
X102148Y-04552D01*
X102029Y-04552D01*
X101981Y-04529D01*
X101957Y-04505D01*
X102219Y-78022D02*
X101981Y-78022D01*
X101957Y-78260D01*
X101981Y-78237D01*
X102029Y-78213D01*
X102148Y-78213D01*
X102195Y-78237D01*
X102219Y-78260D01*
X102243Y-78308D01*
X102243Y-78427D01*
X102219Y-78475D01*
X102195Y-78499D01*
X102148Y-78522D01*
X102029Y-78522D01*
X101981Y-78499D01*
X101957Y-78475D01*
X04000Y-28890D02*
X04700Y-28890D01*
X04231Y-16510D02*
X04469Y-16510D01*
X04184Y-16652D02*
X04350Y-16152D01*
X04517Y-16652D01*
X113000Y-28890D02*
X112300Y-28890D01*
X112531Y-16510D02*
X112769Y-16510D01*
X112484Y-16652D02*
X112650Y-16152D01*
X112817Y-16652D01*
X04000Y-53780D02*
X04700Y-53780D01*
X04386Y-41280D02*
X04457Y-41304D01*
X04481Y-41328D01*
X04505Y-41376D01*
X04505Y-41447D01*
X04481Y-41495D01*
X04457Y-41519D01*
X04410Y-41542D01*
X04219Y-41542D01*
X04219Y-41042D01*
X04386Y-41042D01*
X04433Y-41066D01*
X04457Y-41090D01*
X04481Y-41138D01*
X04481Y-41185D01*
X04457Y-41233D01*
X04433Y-41257D01*
X04386Y-41280D01*
X04219Y-41280D01*
X113000Y-53780D02*
X112300Y-53780D01*
X112686Y-41280D02*
X112757Y-41304D01*
X112781Y-41328D01*
X112805Y-41376D01*
X112805Y-41447D01*
X112781Y-41495D01*
X112757Y-41519D01*
X112710Y-41542D01*
X112519Y-41542D01*
X112519Y-41042D01*
X112686Y-41042D01*
X112733Y-41066D01*
X112757Y-41090D01*
X112781Y-41138D01*
X112781Y-41185D01*
X112757Y-41233D01*
X112733Y-41257D01*
X112686Y-41280D01*
X112519Y-41280D01*
X04505Y-66385D02*
X04481Y-66409D01*
X04410Y-66432D01*
X04362Y-66432D01*
X04290Y-66409D01*
X04243Y-66361D01*
X04219Y-66313D01*
X04195Y-66218D01*
X04195Y-66147D01*
X04219Y-66051D01*
X04243Y-66004D01*
X04290Y-65956D01*
X04362Y-65932D01*
X04410Y-65932D01*
X04481Y-65956D01*
X04505Y-65980D01*
X112805Y-66385D02*
X112781Y-66409D01*
X112710Y-66432D01*
X112662Y-66432D01*
X112590Y-66409D01*
X112543Y-66361D01*
X112519Y-66313D01*
X112495Y-66218D01*
X112495Y-66147D01*
X112519Y-66051D01*
X112543Y-66004D01*
X112590Y-65956D01*
X112662Y-65932D01*
X112710Y-65932D01*
X112781Y-65956D01*
X112805Y-65980D01*
G54D11*
X79443Y-76413D02*
X79443Y-75813D01*
X79586Y-75813D01*
X79671Y-75841D01*
X79729Y-75899D01*
X79757Y-75956D01*
X79786Y-76070D01*
X79786Y-76156D01*
X79757Y-76270D01*
X79729Y-76327D01*
X79671Y-76384D01*
X79586Y-76413D01*
X79443Y-76413D01*
X80300Y-76413D02*
X80300Y-76099D01*
X80271Y-76041D01*
X80214Y-76013D01*
X80100Y-76013D01*
X80043Y-76041D01*
X80300Y-76384D02*
X80243Y-76413D01*
X80100Y-76413D01*
X80043Y-76384D01*
X80014Y-76327D01*
X80014Y-76270D01*
X80043Y-76213D01*
X80100Y-76184D01*
X80243Y-76184D01*
X80300Y-76156D01*
X80500Y-76013D02*
X80729Y-76013D01*
X80586Y-75813D02*
X80586Y-76327D01*
X80614Y-76384D01*
X80672Y-76413D01*
X80729Y-76413D01*
X81157Y-76384D02*
X81100Y-76413D01*
X80986Y-76413D01*
X80929Y-76384D01*
X80900Y-76327D01*
X80900Y-76099D01*
X80929Y-76041D01*
X80986Y-76013D01*
X81100Y-76013D01*
X81157Y-76041D01*
X81186Y-76099D01*
X81186Y-76156D01*
X80900Y-76213D01*
X81443Y-76356D02*
X81471Y-76384D01*
X81443Y-76413D01*
X81414Y-76384D01*
X81443Y-76356D01*
X81443Y-76413D01*
X81443Y-76041D02*
X81471Y-76070D01*
X81443Y-76099D01*
X81414Y-76070D01*
X81443Y-76041D01*
X81443Y-76099D01*
X82500Y-76413D02*
X82157Y-76413D01*
X82329Y-76413D02*
X82329Y-75813D01*
X82272Y-75899D01*
X82214Y-75956D01*
X82157Y-75984D01*
X82871Y-75813D02*
X82928Y-75813D01*
X82985Y-75841D01*
X83014Y-75870D01*
X83043Y-75927D01*
X83071Y-76041D01*
X83071Y-76184D01*
X83043Y-76299D01*
X83014Y-76356D01*
X82985Y-76384D01*
X82928Y-76413D01*
X82871Y-76413D01*
X82814Y-76384D01*
X82785Y-76356D01*
X82757Y-76299D01*
X82728Y-76184D01*
X82728Y-76041D01*
X82757Y-75927D01*
X82785Y-75870D01*
X82814Y-75841D01*
X82871Y-75813D01*
X83756Y-76384D02*
X83813Y-76413D01*
X83928Y-76413D01*
X83985Y-76384D01*
X84013Y-76327D01*
X84013Y-76299D01*
X83985Y-76241D01*
X83928Y-76213D01*
X83842Y-76213D01*
X83785Y-76184D01*
X83756Y-76127D01*
X83756Y-76099D01*
X83785Y-76041D01*
X83842Y-76013D01*
X83928Y-76013D01*
X83985Y-76041D01*
X84499Y-76384D02*
X84442Y-76413D01*
X84328Y-76413D01*
X84271Y-76384D01*
X84242Y-76327D01*
X84242Y-76099D01*
X84271Y-76041D01*
X84328Y-76013D01*
X84442Y-76013D01*
X84499Y-76041D01*
X84528Y-76099D01*
X84528Y-76156D01*
X84242Y-76213D01*
X84785Y-76013D02*
X84785Y-76613D01*
X84785Y-76041D02*
X84842Y-76013D01*
X84956Y-76013D01*
X85013Y-76041D01*
X85042Y-76070D01*
X85071Y-76127D01*
X85071Y-76299D01*
X85042Y-76356D01*
X85013Y-76384D01*
X84956Y-76413D01*
X84842Y-76413D01*
X84785Y-76384D01*
X85756Y-75870D02*
X85785Y-75841D01*
X85842Y-75813D01*
X85985Y-75813D01*
X86042Y-75841D01*
X86071Y-75870D01*
X86099Y-75927D01*
X86099Y-75984D01*
X86071Y-76070D01*
X85728Y-76413D01*
X86099Y-76413D01*
X86470Y-75813D02*
X86527Y-75813D01*
X86584Y-75841D01*
X86613Y-75870D01*
X86642Y-75927D01*
X86670Y-76041D01*
X86670Y-76184D01*
X86642Y-76299D01*
X86613Y-76356D01*
X86584Y-76384D01*
X86527Y-76413D01*
X86470Y-76413D01*
X86413Y-76384D01*
X86384Y-76356D01*
X86356Y-76299D01*
X86327Y-76184D01*
X86327Y-76041D01*
X86356Y-75927D01*
X86384Y-75870D01*
X86413Y-75841D01*
X86470Y-75813D01*
X87241Y-76413D02*
X86898Y-76413D01*
X87070Y-76413D02*
X87070Y-75813D01*
X87013Y-75899D01*
X86955Y-75956D01*
X86898Y-75984D01*
X87469Y-75870D02*
X87498Y-75841D01*
X87555Y-75813D01*
X87698Y-75813D01*
X87755Y-75841D01*
X87784Y-75870D01*
X87812Y-75927D01*
X87812Y-75984D01*
X87784Y-76070D01*
X87441Y-76413D01*
X87812Y-76413D01*
G54D10*
X71043Y-77613D02*
X71043Y-77013D01*
X71386Y-77613D02*
X71129Y-77270D01*
X71386Y-77013D02*
X71043Y-77356D01*
X71643Y-77613D02*
X71643Y-77213D01*
X71643Y-77013D02*
X71614Y-77041D01*
X71643Y-77070D01*
X71671Y-77041D01*
X71643Y-77013D01*
X71643Y-77070D01*
X72272Y-77556D02*
X72243Y-77584D01*
X72157Y-77613D01*
X72100Y-77613D01*
X72015Y-77584D01*
X71957Y-77527D01*
X71929Y-77470D01*
X71900Y-77356D01*
X71900Y-77270D01*
X71929Y-77156D01*
X71957Y-77099D01*
X72015Y-77041D01*
X72100Y-77013D01*
X72157Y-77013D01*
X72243Y-77041D01*
X72272Y-77070D01*
X72786Y-77613D02*
X72786Y-77299D01*
X72757Y-77241D01*
X72700Y-77213D01*
X72586Y-77213D01*
X72529Y-77241D01*
X72786Y-77584D02*
X72729Y-77613D01*
X72586Y-77613D01*
X72529Y-77584D01*
X72500Y-77527D01*
X72500Y-77470D01*
X72529Y-77413D01*
X72586Y-77384D01*
X72729Y-77384D01*
X72786Y-77356D01*
X73329Y-77613D02*
X73329Y-77013D01*
X73329Y-77584D02*
X73272Y-77613D01*
X73158Y-77613D01*
X73100Y-77584D01*
X73072Y-77556D01*
X73043Y-77499D01*
X73043Y-77327D01*
X73072Y-77270D01*
X73100Y-77241D01*
X73158Y-77213D01*
X73272Y-77213D01*
X73329Y-77241D01*
X74072Y-77299D02*
X74272Y-77299D01*
X74358Y-77613D02*
X74072Y-77613D01*
X74072Y-77013D01*
X74358Y-77013D01*
X74615Y-77556D02*
X74643Y-77584D01*
X74615Y-77613D01*
X74586Y-77584D01*
X74615Y-77556D01*
X74615Y-77613D01*
X74901Y-77613D02*
X74901Y-77013D01*
X75044Y-77013D01*
X75129Y-77041D01*
X75187Y-77099D01*
X75215Y-77156D01*
X75244Y-77270D01*
X75244Y-77356D01*
X75215Y-77470D01*
X75187Y-77527D01*
X75129Y-77584D01*
X75044Y-77613D01*
X74901Y-77613D01*
X75501Y-77556D02*
X75529Y-77584D01*
X75501Y-77613D01*
X75472Y-77584D01*
X75501Y-77556D01*
X75501Y-77613D01*
X75758Y-77441D02*
X76044Y-77441D01*
X75701Y-77613D02*
X75901Y-77013D01*
X76101Y-77613D01*
X76301Y-77556D02*
X76329Y-77584D01*
X76301Y-77613D01*
X76272Y-77584D01*
X76301Y-77556D01*
X76301Y-77613D01*
G54D11*
X104586Y-76413D02*
X104386Y-76127D01*
X104243Y-76413D02*
X104243Y-75813D01*
X104471Y-75813D01*
X104529Y-75841D01*
X104557Y-75870D01*
X104586Y-75927D01*
X104586Y-76013D01*
X104557Y-76070D01*
X104529Y-76099D01*
X104471Y-76127D01*
X104243Y-76127D01*
X105071Y-76384D02*
X105014Y-76413D01*
X104900Y-76413D01*
X104843Y-76384D01*
X104814Y-76327D01*
X104814Y-76099D01*
X104843Y-76041D01*
X104900Y-76013D01*
X105014Y-76013D01*
X105071Y-76041D01*
X105100Y-76099D01*
X105100Y-76156D01*
X104814Y-76213D01*
X105300Y-76013D02*
X105443Y-76413D01*
X105585Y-76013D01*
X105814Y-76356D02*
X105842Y-76384D01*
X105814Y-76413D01*
X105785Y-76384D01*
X105814Y-76356D01*
X105814Y-76413D01*
X105814Y-76041D02*
X105842Y-76070D01*
X105814Y-76099D01*
X105785Y-76070D01*
X105814Y-76041D01*
X105814Y-76099D01*
X106671Y-75813D02*
X106728Y-75813D01*
X106785Y-75841D01*
X106814Y-75870D01*
X106843Y-75927D01*
X106871Y-76041D01*
X106871Y-76184D01*
X106843Y-76299D01*
X106814Y-76356D01*
X106785Y-76384D01*
X106728Y-76413D01*
X106671Y-76413D01*
X106614Y-76384D01*
X106585Y-76356D01*
X106557Y-76299D01*
X106528Y-76184D01*
X106528Y-76041D01*
X106557Y-75927D01*
X106585Y-75870D01*
X106614Y-75841D01*
X106671Y-75813D01*
X107442Y-76413D02*
X107099Y-76413D01*
X107271Y-76413D02*
X107271Y-75813D01*
X107214Y-75899D01*
X107156Y-75956D01*
X107099Y-75984D01*
G54D10*
X71014Y-76384D02*
X71100Y-76413D01*
X71243Y-76413D01*
X71300Y-76384D01*
X71329Y-76356D01*
X71357Y-76299D01*
X71357Y-76241D01*
X71329Y-76184D01*
X71300Y-76156D01*
X71243Y-76127D01*
X71129Y-76099D01*
X71071Y-76070D01*
X71043Y-76041D01*
X71014Y-75984D01*
X71014Y-75927D01*
X71043Y-75870D01*
X71071Y-75841D01*
X71129Y-75813D01*
X71271Y-75813D01*
X71357Y-75841D01*
X71614Y-76413D02*
X71614Y-76013D01*
X71614Y-75813D02*
X71585Y-75841D01*
X71614Y-75870D01*
X71642Y-75841D01*
X71614Y-75813D01*
X71614Y-75870D01*
X71843Y-76013D02*
X72157Y-76013D01*
X71843Y-76413D01*
X72157Y-76413D01*
X72614Y-76384D02*
X72557Y-76413D01*
X72443Y-76413D01*
X72386Y-76384D01*
X72357Y-76327D01*
X72357Y-76099D01*
X72386Y-76041D01*
X72443Y-76013D01*
X72557Y-76013D01*
X72614Y-76041D01*
X72643Y-76099D01*
X72643Y-76156D01*
X72357Y-76213D01*
X72900Y-76356D02*
X72928Y-76384D01*
X72900Y-76413D01*
X72871Y-76384D01*
X72900Y-76356D01*
X72900Y-76413D01*
X72900Y-76041D02*
X72928Y-76070D01*
X72900Y-76099D01*
X72871Y-76070D01*
X72900Y-76041D01*
X72900Y-76099D01*
X73614Y-76241D02*
X73900Y-76241D01*
X73557Y-76413D02*
X73757Y-75813D01*
X73957Y-76413D01*
X74414Y-76013D02*
X74414Y-76413D01*
X74271Y-75784D02*
X74128Y-76213D01*
X74500Y-76213D01*
X104243Y-77613D02*
X104243Y-77013D01*
X104786Y-77613D02*
X104786Y-77013D01*
X104786Y-77584D02*
X104729Y-77613D01*
X104615Y-77613D01*
X104557Y-77584D01*
X104529Y-77556D01*
X104500Y-77499D01*
X104500Y-77327D01*
X104529Y-77270D01*
X104557Y-77241D01*
X104615Y-77213D01*
X104729Y-77213D01*
X104786Y-77241D01*
X105072Y-77556D02*
X105100Y-77584D01*
X105072Y-77613D01*
X105043Y-77584D01*
X105072Y-77556D01*
X105072Y-77613D01*
X105072Y-77241D02*
X105100Y-77270D01*
X105072Y-77299D01*
X105043Y-77270D01*
X105072Y-77241D01*
X105072Y-77299D01*
X106129Y-77613D02*
X105786Y-77613D01*
X105958Y-77613D02*
X105958Y-77013D01*
X105901Y-77099D01*
X105843Y-77156D01*
X105786Y-77184D01*
X106814Y-76984D02*
X106300Y-77756D01*
X107329Y-77613D02*
X106986Y-77613D01*
X107158Y-77613D02*
X107158Y-77013D01*
X107101Y-77099D01*
X107043Y-77156D01*
X106986Y-77184D01*
G54D11*
X70957Y-74613D02*
X71300Y-74613D01*
X71129Y-75213D02*
X71129Y-74613D01*
X71500Y-75213D02*
X71500Y-74813D01*
X71500Y-74613D02*
X71471Y-74641D01*
X71500Y-74670D01*
X71528Y-74641D01*
X71500Y-74613D01*
X71500Y-74670D01*
X71700Y-74813D02*
X71929Y-74813D01*
X71786Y-74613D02*
X71786Y-75127D01*
X71814Y-75184D01*
X71872Y-75213D01*
X71929Y-75213D01*
X72215Y-75213D02*
X72157Y-75184D01*
X72129Y-75127D01*
X72129Y-74613D01*
X72671Y-75184D02*
X72614Y-75213D01*
X72500Y-75213D01*
X72443Y-75184D01*
X72414Y-75127D01*
X72414Y-74899D01*
X72443Y-74841D01*
X72500Y-74813D01*
X72614Y-74813D01*
X72671Y-74841D01*
X72700Y-74899D01*
X72700Y-74956D01*
X72414Y-75013D01*
X72957Y-75156D02*
X72985Y-75184D01*
X72957Y-75213D01*
X72928Y-75184D01*
X72957Y-75156D01*
X72957Y-75213D01*
X72957Y-74841D02*
X72985Y-74870D01*
X72957Y-74899D01*
X72928Y-74870D01*
X72957Y-74841D01*
X72957Y-74899D01*
X73900Y-74899D02*
X73986Y-74927D01*
X74014Y-74956D01*
X74043Y-75013D01*
X74043Y-75099D01*
X74014Y-75156D01*
X73986Y-75184D01*
X73928Y-75213D01*
X73700Y-75213D01*
X73700Y-74613D01*
X73900Y-74613D01*
X73957Y-74641D01*
X73986Y-74670D01*
X74014Y-74727D01*
X74014Y-74784D01*
X73986Y-74841D01*
X73957Y-74870D01*
X73900Y-74899D01*
X73700Y-74899D01*
X74528Y-75184D02*
X74471Y-75213D01*
X74357Y-75213D01*
X74300Y-75184D01*
X74271Y-75127D01*
X74271Y-74899D01*
X74300Y-74841D01*
X74357Y-74813D01*
X74471Y-74813D01*
X74528Y-74841D01*
X74557Y-74899D01*
X74557Y-74956D01*
X74271Y-75013D01*
X75071Y-75213D02*
X75071Y-74899D01*
X75042Y-74841D01*
X74985Y-74813D01*
X74871Y-74813D01*
X74814Y-74841D01*
X75071Y-75184D02*
X75014Y-75213D01*
X74871Y-75213D01*
X74814Y-75184D01*
X74785Y-75127D01*
X74785Y-75070D01*
X74814Y-75013D01*
X74871Y-74984D01*
X75014Y-74984D01*
X75071Y-74956D01*
X75614Y-74813D02*
X75614Y-75299D01*
X75585Y-75356D01*
X75557Y-75384D01*
X75500Y-75413D01*
X75414Y-75413D01*
X75357Y-75384D01*
X75614Y-75184D02*
X75557Y-75213D01*
X75443Y-75213D01*
X75385Y-75184D01*
X75357Y-75156D01*
X75328Y-75099D01*
X75328Y-74927D01*
X75357Y-74870D01*
X75385Y-74841D01*
X75443Y-74813D01*
X75557Y-74813D01*
X75614Y-74841D01*
X75986Y-75213D02*
X75928Y-75184D01*
X75900Y-75127D01*
X75900Y-74613D01*
X76442Y-75184D02*
X76385Y-75213D01*
X76271Y-75213D01*
X76214Y-75184D01*
X76185Y-75127D01*
X76185Y-74899D01*
X76214Y-74841D01*
X76271Y-74813D01*
X76385Y-74813D01*
X76442Y-74841D01*
X76471Y-74899D01*
X76471Y-74956D01*
X76185Y-75013D01*
X76728Y-75213D02*
X76728Y-74613D01*
X76728Y-74841D02*
X76785Y-74813D01*
X76899Y-74813D01*
X76956Y-74841D01*
X76985Y-74870D01*
X77014Y-74927D01*
X77014Y-75099D01*
X76985Y-75156D01*
X76956Y-75184D01*
X76899Y-75213D01*
X76785Y-75213D01*
X76728Y-75184D01*
X77357Y-75213D02*
X77299Y-75184D01*
X77271Y-75156D01*
X77242Y-75099D01*
X77242Y-74927D01*
X77271Y-74870D01*
X77299Y-74841D01*
X77357Y-74813D01*
X77442Y-74813D01*
X77499Y-74841D01*
X77528Y-74870D01*
X77557Y-74927D01*
X77557Y-75099D01*
X77528Y-75156D01*
X77499Y-75184D01*
X77442Y-75213D01*
X77357Y-75213D01*
X77814Y-74813D02*
X77814Y-75213D01*
X77814Y-74870D02*
X77842Y-74841D01*
X77900Y-74813D01*
X77985Y-74813D01*
X78042Y-74841D01*
X78071Y-74899D01*
X78071Y-75213D01*
X78585Y-75184D02*
X78528Y-75213D01*
X78414Y-75213D01*
X78357Y-75184D01*
X78328Y-75127D01*
X78328Y-74899D01*
X78357Y-74841D01*
X78414Y-74813D01*
X78528Y-74813D01*
X78585Y-74841D01*
X78614Y-74899D01*
X78614Y-74956D01*
X78328Y-75013D01*
X78871Y-74984D02*
X79328Y-74984D01*
X79585Y-75184D02*
X79671Y-75213D01*
X79814Y-75213D01*
X79871Y-75184D01*
X79900Y-75156D01*
X79928Y-75099D01*
X79928Y-75041D01*
X79900Y-74984D01*
X79871Y-74956D01*
X79814Y-74927D01*
X79700Y-74899D01*
X79642Y-74870D01*
X79614Y-74841D01*
X79585Y-74784D01*
X79585Y-74727D01*
X79614Y-74670D01*
X79642Y-74641D01*
X79700Y-74613D01*
X79842Y-74613D01*
X79928Y-74641D01*
X80185Y-74813D02*
X80185Y-75413D01*
X80185Y-74841D02*
X80242Y-74813D01*
X80356Y-74813D01*
X80413Y-74841D01*
X80442Y-74870D01*
X80471Y-74927D01*
X80471Y-75099D01*
X80442Y-75156D01*
X80413Y-75184D01*
X80356Y-75213D01*
X80242Y-75213D01*
X80185Y-75184D01*
X80985Y-75213D02*
X80985Y-74899D01*
X80956Y-74841D01*
X80899Y-74813D01*
X80785Y-74813D01*
X80728Y-74841D01*
X80985Y-75184D02*
X80928Y-75213D01*
X80785Y-75213D01*
X80728Y-75184D01*
X80699Y-75127D01*
X80699Y-75070D01*
X80728Y-75013D01*
X80785Y-74984D01*
X80928Y-74984D01*
X80985Y-74956D01*
X81271Y-75213D02*
X81271Y-74813D01*
X81271Y-74927D02*
X81299Y-74870D01*
X81328Y-74841D01*
X81385Y-74813D01*
X81442Y-74813D01*
X81556Y-74813D02*
X81785Y-74813D01*
X81642Y-74613D02*
X81642Y-75127D01*
X81670Y-75184D01*
X81728Y-75213D01*
X81785Y-75213D01*
X82242Y-75213D02*
X82242Y-74899D01*
X82213Y-74841D01*
X82156Y-74813D01*
X82042Y-74813D01*
X81985Y-74841D01*
X82242Y-75184D02*
X82185Y-75213D01*
X82042Y-75213D01*
X81985Y-75184D01*
X81956Y-75127D01*
X81956Y-75070D01*
X81985Y-75013D01*
X82042Y-74984D01*
X82185Y-74984D01*
X82242Y-74956D01*
X82528Y-74813D02*
X82528Y-75213D01*
X82528Y-74870D02*
X82556Y-74841D01*
X82614Y-74813D01*
X82699Y-74813D01*
X82756Y-74841D01*
X82785Y-74899D01*
X82785Y-75213D01*
X83328Y-74613D02*
X83214Y-74613D01*
X83157Y-74641D01*
X83128Y-74670D01*
X83071Y-74756D01*
X83042Y-74870D01*
X83042Y-75099D01*
X83071Y-75156D01*
X83099Y-75184D01*
X83157Y-75213D01*
X83271Y-75213D01*
X83328Y-75184D01*
X83357Y-75156D01*
X83385Y-75099D01*
X83385Y-74956D01*
X83357Y-74899D01*
X83328Y-74870D01*
X83271Y-74841D01*
X83157Y-74841D01*
X83099Y-74870D01*
X83071Y-74899D01*
X83042Y-74956D01*
X83642Y-74984D02*
X84099Y-74984D01*
X84728Y-75156D02*
X84699Y-75184D01*
X84613Y-75213D01*
X84556Y-75213D01*
X84471Y-75184D01*
X84413Y-75127D01*
X84385Y-75070D01*
X84356Y-74956D01*
X84356Y-74870D01*
X84385Y-74756D01*
X84413Y-74699D01*
X84471Y-74641D01*
X84556Y-74613D01*
X84613Y-74613D01*
X84699Y-74641D01*
X84728Y-74670D01*
X85242Y-75213D02*
X85242Y-74899D01*
X85213Y-74841D01*
X85156Y-74813D01*
X85042Y-74813D01*
X84985Y-74841D01*
X85242Y-75184D02*
X85185Y-75213D01*
X85042Y-75213D01*
X84985Y-75184D01*
X84956Y-75127D01*
X84956Y-75070D01*
X84985Y-75013D01*
X85042Y-74984D01*
X85185Y-74984D01*
X85242Y-74956D01*
X85528Y-74813D02*
X85528Y-75413D01*
X85528Y-74841D02*
X85585Y-74813D01*
X85699Y-74813D01*
X85756Y-74841D01*
X85785Y-74870D01*
X85814Y-74927D01*
X85814Y-75099D01*
X85785Y-75156D01*
X85756Y-75184D01*
X85699Y-75213D01*
X85585Y-75213D01*
X85528Y-75184D01*
X86299Y-75184D02*
X86242Y-75213D01*
X86128Y-75213D01*
X86071Y-75184D01*
X86042Y-75127D01*
X86042Y-74899D01*
X86071Y-74841D01*
X86128Y-74813D01*
X86242Y-74813D01*
X86299Y-74841D01*
X86328Y-74899D01*
X86328Y-74956D01*
X86042Y-75013D01*
G54D10*
X71243Y-72499D02*
X71043Y-72499D01*
X71043Y-72813D02*
X71043Y-72213D01*
X71329Y-72213D01*
X71557Y-72813D02*
X71557Y-72413D01*
X71557Y-72213D02*
X71528Y-72241D01*
X71557Y-72270D01*
X71585Y-72241D01*
X71557Y-72213D01*
X71557Y-72270D01*
X71929Y-72813D02*
X71871Y-72784D01*
X71843Y-72727D01*
X71843Y-72213D01*
X72385Y-72784D02*
X72328Y-72813D01*
X72214Y-72813D01*
X72157Y-72784D01*
X72128Y-72727D01*
X72128Y-72499D01*
X72157Y-72441D01*
X72214Y-72413D01*
X72328Y-72413D01*
X72385Y-72441D01*
X72414Y-72499D01*
X72414Y-72556D01*
X72128Y-72613D01*
X72671Y-72756D02*
X72699Y-72784D01*
X72671Y-72813D01*
X72642Y-72784D01*
X72671Y-72756D01*
X72671Y-72813D01*
X72671Y-72441D02*
X72699Y-72470D01*
X72671Y-72499D01*
X72642Y-72470D01*
X72671Y-72441D01*
X72671Y-72499D01*
X73414Y-72813D02*
X73414Y-72213D01*
X73414Y-72441D02*
X73471Y-72413D01*
X73585Y-72413D01*
X73642Y-72441D01*
X73671Y-72470D01*
X73700Y-72527D01*
X73700Y-72699D01*
X73671Y-72756D01*
X73642Y-72784D01*
X73585Y-72813D01*
X73471Y-72813D01*
X73414Y-72784D01*
X74043Y-72813D02*
X73985Y-72784D01*
X73957Y-72756D01*
X73928Y-72699D01*
X73928Y-72527D01*
X73957Y-72470D01*
X73985Y-72441D01*
X74043Y-72413D01*
X74128Y-72413D01*
X74185Y-72441D01*
X74214Y-72470D01*
X74243Y-72527D01*
X74243Y-72699D01*
X74214Y-72756D01*
X74185Y-72784D01*
X74128Y-72813D01*
X74043Y-72813D01*
X74500Y-72413D02*
X74500Y-72813D01*
X74500Y-72470D02*
X74528Y-72441D01*
X74586Y-72413D01*
X74671Y-72413D01*
X74728Y-72441D01*
X74757Y-72499D01*
X74757Y-72813D01*
X75271Y-72784D02*
X75214Y-72813D01*
X75100Y-72813D01*
X75043Y-72784D01*
X75014Y-72727D01*
X75014Y-72499D01*
X75043Y-72441D01*
X75100Y-72413D01*
X75214Y-72413D01*
X75271Y-72441D01*
X75300Y-72499D01*
X75300Y-72556D01*
X75014Y-72613D01*
X75471Y-72413D02*
X75700Y-72413D01*
X75557Y-72813D02*
X75557Y-72299D01*
X75585Y-72241D01*
X75643Y-72213D01*
X75700Y-72213D01*
X75900Y-72413D02*
X75900Y-73013D01*
X75900Y-72441D02*
X75957Y-72413D01*
X76071Y-72413D01*
X76128Y-72441D01*
X76157Y-72470D01*
X76186Y-72527D01*
X76186Y-72699D01*
X76157Y-72756D01*
X76128Y-72784D01*
X76071Y-72813D01*
X75957Y-72813D01*
X75900Y-72784D01*
X76700Y-72413D02*
X76700Y-72899D01*
X76671Y-72956D01*
X76643Y-72984D01*
X76586Y-73013D01*
X76500Y-73013D01*
X76443Y-72984D01*
X76700Y-72784D02*
X76643Y-72813D01*
X76529Y-72813D01*
X76471Y-72784D01*
X76443Y-72756D01*
X76414Y-72699D01*
X76414Y-72527D01*
X76443Y-72470D01*
X76471Y-72441D01*
X76529Y-72413D01*
X76643Y-72413D01*
X76700Y-72441D01*
X77243Y-72813D02*
X77243Y-72499D01*
X77214Y-72441D01*
X77157Y-72413D01*
X77043Y-72413D01*
X76986Y-72441D01*
X77243Y-72784D02*
X77186Y-72813D01*
X77043Y-72813D01*
X76986Y-72784D01*
X76957Y-72727D01*
X76957Y-72670D01*
X76986Y-72613D01*
X77043Y-72584D01*
X77186Y-72584D01*
X77243Y-72556D01*
X77529Y-72756D02*
X77557Y-72784D01*
X77529Y-72813D01*
X77500Y-72784D01*
X77529Y-72756D01*
X77529Y-72813D01*
X77815Y-72813D02*
X77815Y-72213D01*
X77815Y-72441D02*
X77872Y-72413D01*
X77986Y-72413D01*
X78043Y-72441D01*
X78072Y-72470D01*
X78101Y-72527D01*
X78101Y-72699D01*
X78072Y-72756D01*
X78043Y-72784D01*
X77986Y-72813D01*
X77872Y-72813D01*
X77815Y-72784D01*
X78358Y-72813D02*
X78358Y-72413D01*
X78358Y-72527D02*
X78386Y-72470D01*
X78415Y-72441D01*
X78472Y-72413D01*
X78529Y-72413D01*
X78986Y-72813D02*
X78986Y-72213D01*
X78986Y-72784D02*
X78929Y-72813D01*
X78815Y-72813D01*
X78757Y-72784D01*
X78729Y-72756D01*
X78700Y-72699D01*
X78700Y-72527D01*
X78729Y-72470D01*
X78757Y-72441D01*
X78815Y-72413D01*
X78929Y-72413D01*
X78986Y-72441D01*
X71014Y-73984D02*
X71100Y-74013D01*
X71243Y-74013D01*
X71300Y-73984D01*
X71329Y-73956D01*
X71357Y-73899D01*
X71357Y-73841D01*
X71329Y-73784D01*
X71300Y-73756D01*
X71243Y-73727D01*
X71129Y-73699D01*
X71071Y-73670D01*
X71043Y-73641D01*
X71014Y-73584D01*
X71014Y-73527D01*
X71043Y-73470D01*
X71071Y-73441D01*
X71129Y-73413D01*
X71271Y-73413D01*
X71357Y-73441D01*
X71614Y-74013D02*
X71614Y-73413D01*
X71871Y-74013D02*
X71871Y-73699D01*
X71842Y-73641D01*
X71785Y-73613D01*
X71700Y-73613D01*
X71642Y-73641D01*
X71614Y-73670D01*
X72385Y-73984D02*
X72328Y-74013D01*
X72214Y-74013D01*
X72157Y-73984D01*
X72128Y-73927D01*
X72128Y-73699D01*
X72157Y-73641D01*
X72214Y-73613D01*
X72328Y-73613D01*
X72385Y-73641D01*
X72414Y-73699D01*
X72414Y-73756D01*
X72128Y-73813D01*
X72899Y-73984D02*
X72842Y-74013D01*
X72728Y-74013D01*
X72671Y-73984D01*
X72642Y-73927D01*
X72642Y-73699D01*
X72671Y-73641D01*
X72728Y-73613D01*
X72842Y-73613D01*
X72899Y-73641D01*
X72928Y-73699D01*
X72928Y-73756D01*
X72642Y-73813D01*
X73099Y-73613D02*
X73328Y-73613D01*
X73185Y-73413D02*
X73185Y-73927D01*
X73213Y-73984D01*
X73271Y-74013D01*
X73328Y-74013D01*
X73528Y-73956D02*
X73556Y-73984D01*
X73528Y-74013D01*
X73499Y-73984D01*
X73528Y-73956D01*
X73528Y-74013D01*
X73528Y-73641D02*
X73556Y-73670D01*
X73528Y-73699D01*
X73499Y-73670D01*
X73528Y-73641D01*
X73528Y-73699D01*
X74585Y-74013D02*
X74242Y-74013D01*
X74414Y-74013D02*
X74414Y-73413D01*
X74357Y-73499D01*
X74299Y-73556D01*
X74242Y-73584D01*
X75270Y-73384D02*
X74756Y-74156D01*
X75785Y-74013D02*
X75442Y-74013D01*
X75614Y-74013D02*
X75614Y-73413D01*
X75557Y-73499D01*
X75499Y-73556D01*
X75442Y-73584D01*
X71043Y-70413D02*
X71043Y-69813D01*
X71243Y-70241D01*
X71443Y-69813D01*
X71443Y-70413D01*
X71729Y-70413D02*
X71729Y-70013D01*
X71729Y-69813D02*
X71700Y-69841D01*
X71729Y-69870D01*
X71757Y-69841D01*
X71729Y-69813D01*
X71729Y-69870D01*
X72272Y-70384D02*
X72215Y-70413D01*
X72101Y-70413D01*
X72043Y-70384D01*
X72015Y-70356D01*
X71986Y-70299D01*
X71986Y-70127D01*
X72015Y-70070D01*
X72043Y-70041D01*
X72101Y-70013D01*
X72215Y-70013D01*
X72272Y-70041D01*
X72529Y-70413D02*
X72529Y-69813D01*
X72786Y-70413D02*
X72786Y-70099D01*
X72757Y-70041D01*
X72700Y-70013D01*
X72615Y-70013D01*
X72557Y-70041D01*
X72529Y-70070D01*
X73329Y-70413D02*
X73329Y-70099D01*
X73300Y-70041D01*
X73243Y-70013D01*
X73129Y-70013D01*
X73072Y-70041D01*
X73329Y-70384D02*
X73272Y-70413D01*
X73129Y-70413D01*
X73072Y-70384D01*
X73043Y-70327D01*
X73043Y-70270D01*
X73072Y-70213D01*
X73129Y-70184D01*
X73272Y-70184D01*
X73329Y-70156D01*
X73843Y-70384D02*
X73786Y-70413D01*
X73672Y-70413D01*
X73615Y-70384D01*
X73586Y-70327D01*
X73586Y-70099D01*
X73615Y-70041D01*
X73672Y-70013D01*
X73786Y-70013D01*
X73843Y-70041D01*
X73872Y-70099D01*
X73872Y-70156D01*
X73586Y-70213D01*
X74215Y-70413D02*
X74157Y-70384D01*
X74129Y-70327D01*
X74129Y-69813D01*
X74900Y-70413D02*
X74900Y-69813D01*
X75100Y-70241D01*
X75300Y-69813D01*
X75300Y-70413D01*
X75843Y-70413D02*
X75843Y-70099D01*
X75814Y-70041D01*
X75757Y-70013D01*
X75643Y-70013D01*
X75586Y-70041D01*
X75843Y-70384D02*
X75786Y-70413D01*
X75643Y-70413D01*
X75586Y-70384D01*
X75557Y-70327D01*
X75557Y-70270D01*
X75586Y-70213D01*
X75643Y-70184D01*
X75786Y-70184D01*
X75843Y-70156D01*
X76386Y-70013D02*
X76386Y-70499D01*
X76357Y-70556D01*
X76329Y-70584D01*
X76272Y-70613D01*
X76186Y-70613D01*
X76129Y-70584D01*
X76386Y-70384D02*
X76329Y-70413D01*
X76215Y-70413D01*
X76157Y-70384D01*
X76129Y-70356D01*
X76100Y-70299D01*
X76100Y-70127D01*
X76129Y-70070D01*
X76157Y-70041D01*
X76215Y-70013D01*
X76329Y-70013D01*
X76386Y-70041D01*
X76615Y-70013D02*
X76758Y-70413D01*
X76900Y-70013D02*
X76758Y-70413D01*
X76700Y-70556D01*
X76672Y-70584D01*
X76615Y-70613D01*
X77386Y-70413D02*
X77386Y-70099D01*
X77357Y-70041D01*
X77300Y-70013D01*
X77186Y-70013D01*
X77129Y-70041D01*
X77386Y-70384D02*
X77329Y-70413D01*
X77186Y-70413D01*
X77129Y-70384D01*
X77100Y-70327D01*
X77100Y-70270D01*
X77129Y-70213D01*
X77186Y-70184D01*
X77329Y-70184D01*
X77386Y-70156D01*
X77672Y-70413D02*
X77672Y-70013D01*
X77672Y-70127D02*
X77700Y-70070D01*
X77729Y-70041D01*
X77786Y-70013D01*
X77843Y-70013D01*
X70300Y-69570D02*
X70300Y-77970D01*
X70300Y-71970D02*
X112300Y-71970D01*
X70300Y-69570D02*
X112300Y-69570D01*
X70300Y-74370D02*
X112300Y-74370D01*
X103500Y-75570D02*
X103500Y-77970D01*
X70300Y-76770D02*
X112300Y-76770D01*
X70300Y-75570D02*
X112300Y-75570D01*
X76900Y-75570D02*
X76900Y-76770D01*
G54D12*
X54106Y-29681D03*
X53106Y-29681D03*
X52106Y-29681D03*
X49106Y-29681D03*
X50106Y-29681D03*
X51106Y-29681D03*
G54D13*
X46447Y-27947D03*
X72447Y-26697D03*
X72447Y-45697D03*
X46447Y-44447D03*
G54D14*
X70447Y-26197D03*
G54D15*
X70447Y-27197D03*
X69447Y-26197D03*
X69447Y-27197D03*
X68447Y-26197D03*
X68447Y-27197D03*
X67447Y-26197D03*
X67447Y-27197D03*
X66447Y-26197D03*
X66447Y-27197D03*
X65447Y-26197D03*
X65447Y-27197D03*
X64447Y-26197D03*
X64447Y-27197D03*
X63447Y-26197D03*
X63447Y-27197D03*
X62447Y-26197D03*
X62447Y-27197D03*
X61447Y-26197D03*
X61447Y-27197D03*
X60447Y-26197D03*
X60447Y-27197D03*
X59447Y-26197D03*
X59447Y-27197D03*
X58447Y-26197D03*
X58447Y-27197D03*
X57447Y-26197D03*
X57447Y-27197D03*
X56447Y-26197D03*
X56447Y-27197D03*
X55447Y-26197D03*
X55447Y-27197D03*
X54447Y-26197D03*
X54447Y-27197D03*
X53447Y-26197D03*
X53447Y-27197D03*
X52447Y-26197D03*
X52447Y-27197D03*
X51447Y-26197D03*
X51447Y-27197D03*
X50447Y-26197D03*
X50447Y-27197D03*
X49447Y-26197D03*
X49447Y-27197D03*
X48447Y-26197D03*
X48447Y-27197D03*
G54D14*
X70447Y-45197D03*
G54D15*
X70447Y-46197D03*
X69447Y-45197D03*
X69447Y-46197D03*
X68447Y-45197D03*
X68447Y-46197D03*
X67447Y-45197D03*
X67447Y-46197D03*
X66447Y-45197D03*
X66447Y-46197D03*
X65447Y-45197D03*
X65447Y-46197D03*
X64447Y-45197D03*
X64447Y-46197D03*
X63447Y-45197D03*
X63447Y-46197D03*
X62447Y-45197D03*
X62447Y-46197D03*
X61447Y-45197D03*
X61447Y-46197D03*
X60447Y-45197D03*
X60447Y-46197D03*
X59447Y-45197D03*
X59447Y-46197D03*
X58447Y-45197D03*
X58447Y-46197D03*
X57447Y-45197D03*
X57447Y-46197D03*
X56447Y-45197D03*
X56447Y-46197D03*
X55447Y-45197D03*
X55447Y-46197D03*
X54447Y-45197D03*
X54447Y-46197D03*
X53447Y-45197D03*
X53447Y-46197D03*
X52447Y-45197D03*
X52447Y-46197D03*
X51447Y-45197D03*
X51447Y-46197D03*
X50447Y-45197D03*
X50447Y-46197D03*
X49447Y-45197D03*
X49447Y-46197D03*
X48447Y-45197D03*
X48447Y-46197D03*
G54D14*
X75447Y-31947D03*
G54D15*
X75447Y-32947D03*
X74447Y-31947D03*
X74447Y-32947D03*
X73447Y-31947D03*
X73447Y-32947D03*
X72447Y-31947D03*
X72447Y-32947D03*
X71447Y-31947D03*
X71447Y-32947D03*
G54D16*
X61504Y-42020D03*
X56228Y-41850D03*
X56268Y-44413D03*
X56197Y-43287D03*
X65181Y-30827D03*
G54D17*
X64173Y-44650D03*
G54D16*
X66644Y-28780D03*
G54D18*
X64098Y-42456D03*
G54D16*
X66614Y-31339D03*
G54D17*
X68984Y-44945D03*
G54D18*
X71909Y-29520D03*
X71972Y-30311D03*
X70965Y-30449D03*
X72736Y-30319D03*
G54D17*
X64280Y-42169D03*
G54D16*
X66598Y-30831D03*
G54D17*
X64102Y-41913D03*
X66638Y-42244D03*
G54D18*
X64118Y-41551D03*
X71492Y-29937D03*
G54D16*
X64543Y-36850D03*
X63512Y-37201D03*
X62992Y-37193D03*
X63980Y-37189D03*
G54D18*
X60252Y-35953D03*
G54D16*
X61429Y-36520D03*
X62008Y-36787D03*
X61610Y-37492D03*
X59378Y-36295D03*
X59051Y-37654D03*
X58890Y-39260D03*
G54D17*
X68756Y-37760D03*
G54D16*
X61327Y-34039D03*
G54D17*
X68756Y-36736D03*
X68756Y-37087D03*
X64843Y-34138D03*
G54D16*
X62087Y-34024D03*
X59287Y-36913D03*
G54D18*
X73906Y-31228D03*
G54D16*
X61736Y-29780D03*
X62555Y-28417D03*
X72925Y-42874D03*
X59421Y-37705D03*
X64150Y-39638D03*
G54D18*
X65895Y-28849D03*
G54D16*
X58445Y-40252D03*
X59465Y-36524D03*
X67555Y-31836D03*
X61394Y-39673D03*
G54D18*
X66742Y-28002D03*
G54D17*
X64224Y-39094D03*
G54D16*
X64598Y-34539D03*
X60228Y-39256D03*
X59969Y-38843D03*
X63972Y-35713D03*
G54D18*
X62614Y-27877D03*
G54D16*
X69571Y-31791D03*
X58610Y-34346D03*
X63729Y-35358D03*
G54D17*
X65913Y-44213D03*
G54D16*
X72886Y-43961D03*
X72953Y-41783D03*
G54D17*
X65484Y-41386D03*
X59169Y-35161D03*
G54D16*
X62571Y-38059D03*
X61413Y-36890D03*
X70913Y-31791D03*
X61406Y-34913D03*
G54D17*
X62236Y-34454D03*
G54D16*
X61799Y-36106D03*
X63370Y-37681D03*
G54D18*
X65760Y-31850D03*
G54D16*
X60610Y-36902D03*
G54D17*
X66232Y-41374D03*
G54D18*
X61017Y-27877D03*
G54D16*
X71780Y-43819D03*
G54D18*
X71232Y-41327D03*
G54D16*
X62965Y-39665D03*
X64571Y-38476D03*
G54D17*
X60516Y-35295D03*
G54D16*
X60189Y-35307D03*
X69988Y-31791D03*
X64165Y-36890D03*
G54D17*
X68317Y-44621D03*
X58972Y-37039D03*
X60235Y-37744D03*
X60508Y-34449D03*
G54D18*
X64933Y-27889D03*
G54D16*
X70528Y-31791D03*
X65008Y-40492D03*
G54D17*
X66232Y-42898D03*
X64154Y-34512D03*
X67190Y-44621D03*
G54D18*
X73331Y-31228D03*
G54D17*
X57850Y-42220D03*
G54D16*
X62185Y-38858D03*
X66555Y-31811D03*
X54870Y-28969D03*
X69433Y-29780D03*
X65339Y-33657D03*
G54D17*
X70729Y-42579D03*
X58554Y-38921D03*
X67740Y-30260D03*
G54D16*
X66638Y-37020D03*
G54D17*
X68394Y-30028D03*
X66461Y-37269D03*
G54D16*
X62177Y-37319D03*
G54D17*
X71104Y-44540D03*
X63283Y-42740D03*
X63547Y-44610D03*
G54D16*
X62969Y-34535D03*
G54D17*
X62992Y-38493D03*
G54D18*
X75098Y-30812D03*
G54D17*
X59649Y-39709D03*
G54D16*
X58626Y-36535D03*
G54D17*
X63062Y-41803D03*
G54D18*
X58087Y-31130D03*
G54D17*
X67587Y-41748D03*
X62846Y-42417D03*
G54D18*
X74524Y-31228D03*
G54D16*
X61012Y-37673D03*
G54D18*
X70640Y-41310D03*
X58067Y-29087D03*
G54D16*
X61807Y-38087D03*
G54D17*
X62921Y-44673D03*
X68724Y-42756D03*
G54D16*
X67047Y-37276D03*
G54D18*
X71862Y-41327D03*
G54D16*
X67886Y-31836D03*
X66624Y-29557D03*
X65177Y-29557D03*
X67677Y-29370D03*
X68110Y-28996D03*
X67783Y-42406D03*
X68154Y-42783D03*
X67492Y-29969D03*
X68535Y-32110D03*
X63984Y-29287D03*
X64280Y-30319D03*
X65197Y-42760D03*
X68972Y-43209D03*
X65207Y-43524D03*
X66628Y-43520D03*
X69114Y-29622D03*
X67472Y-30283D03*
X66604Y-43770D03*
X65207Y-43780D03*
X66555Y-29291D03*
X66484Y-29067D03*
X67437Y-43697D03*
X65177Y-29291D03*
G54D19*
X56268Y-44413D02*
X56268Y-44409D01*
G54D20*
X58787Y-32020D02*
X58791Y-32020D01*
G54D21*
X66614Y-31339D02*
X66092Y-30817D01*
X66831Y-28967D02*
X66644Y-28780D01*
X66831Y-29635D02*
X66831Y-28967D01*
X66092Y-30374D02*
X66831Y-29635D01*
X66092Y-30817D02*
X66092Y-30374D01*
G54D22*
X68787Y-37118D02*
X68756Y-37087D01*
X68583Y-36914D02*
X68787Y-37118D01*
G54D21*
X68583Y-36914D02*
X68756Y-36741D01*
X68787Y-37224D02*
X68787Y-37118D01*
G54D22*
X65807Y-34138D02*
X68583Y-36914D01*
G54D21*
X68756Y-37193D02*
X68787Y-37224D01*
G54D23*
X68756Y-36736D02*
X68756Y-37087D01*
X68756Y-37760D02*
X68756Y-37087D01*
G54D22*
X64843Y-34138D02*
X65807Y-34138D01*
G54D21*
X68756Y-37087D02*
X68756Y-37193D01*
X68756Y-36741D02*
X68756Y-36736D01*
G54D24*
X68724Y-42756D02*
X68724Y-42748D01*
X65949Y-44177D02*
X65965Y-44177D01*
G54D19*
X58607Y-34343D02*
X58606Y-34343D01*
X63729Y-35358D02*
X63728Y-35358D01*
G54D22*
X73245Y-31142D02*
X71177Y-31142D01*
X71862Y-41327D02*
X71889Y-41354D01*
G54D20*
X61017Y-27881D02*
X61017Y-27877D01*
X69988Y-31791D02*
X69992Y-31791D01*
G54D22*
X70528Y-31791D02*
X69988Y-31791D01*
G54D19*
X58610Y-34346D02*
X58607Y-34343D01*
G54D20*
X73354Y-31248D02*
X73351Y-31248D01*
X58087Y-31130D02*
X58087Y-31134D01*
G54D22*
X70528Y-31791D02*
X69669Y-32650D01*
G54D20*
X66461Y-37269D02*
X66461Y-37268D01*
G54D24*
X65484Y-41386D02*
X65535Y-41437D01*
G54D22*
X73331Y-31228D02*
X73245Y-31142D01*
G54D19*
X72953Y-41783D02*
X72938Y-41768D01*
G54D24*
X70654Y-31917D02*
X70528Y-31791D01*
G54D19*
X63370Y-37681D02*
X63354Y-37681D01*
G54D22*
X71307Y-41323D02*
X71914Y-41323D01*
G54D19*
X72886Y-43961D02*
X72886Y-43969D01*
G54D22*
X69669Y-41003D02*
X69989Y-41323D01*
G54D20*
X73351Y-31248D02*
X73331Y-31228D01*
X61016Y-27882D02*
X61017Y-27881D01*
G54D22*
X74940Y-30812D02*
X74524Y-31228D01*
X70650Y-41320D02*
X70640Y-41310D01*
X65760Y-31850D02*
X65977Y-31850D01*
G54D19*
X65977Y-33019D02*
X65977Y-31850D01*
G54D22*
X71945Y-41354D02*
X71953Y-41354D01*
G54D19*
X62185Y-38858D02*
X62181Y-38854D01*
X62965Y-39665D02*
X62965Y-39669D01*
G54D22*
X71232Y-41327D02*
X71236Y-41323D01*
G54D19*
X66543Y-31823D02*
X66004Y-31823D01*
G54D20*
X62614Y-27877D02*
X62614Y-27874D01*
X67555Y-31836D02*
X67555Y-31839D01*
X74524Y-31228D02*
X74520Y-31228D01*
X62992Y-38493D02*
X62992Y-38492D01*
G54D23*
X58067Y-29083D02*
X58087Y-29063D01*
G54D20*
X70913Y-31791D02*
X70917Y-31791D01*
G54D19*
X57847Y-42217D02*
X57846Y-42217D01*
X66555Y-31811D02*
X66543Y-31823D01*
G54D20*
X68394Y-30028D02*
X68398Y-30028D01*
G54D24*
X71099Y-44540D02*
X71104Y-44540D01*
G54D20*
X68398Y-30028D02*
X69119Y-30028D01*
G54D24*
X66280Y-42913D02*
X66232Y-42898D01*
G54D19*
X65339Y-33657D02*
X65977Y-33019D01*
G54D22*
X70650Y-41323D02*
X70650Y-41320D01*
X71236Y-41323D02*
X71307Y-41323D01*
G54D24*
X67190Y-44621D02*
X67189Y-44622D01*
G54D20*
X59649Y-39709D02*
X59650Y-39709D01*
X68318Y-44622D02*
X68319Y-44622D01*
G54D24*
X63287Y-42744D02*
X63307Y-42744D01*
G54D20*
X65895Y-28849D02*
X65898Y-28846D01*
G54D23*
X58067Y-29087D02*
X58067Y-29083D01*
X60508Y-34460D02*
X60524Y-34476D01*
X60508Y-34449D02*
X60508Y-34460D01*
G54D20*
X75102Y-30807D02*
X75102Y-30808D01*
G54D22*
X69989Y-41323D02*
X70650Y-41323D01*
G54D20*
X60235Y-37744D02*
X60236Y-37744D01*
G54D22*
X71889Y-41354D02*
X71945Y-41354D01*
G54D20*
X67886Y-31836D02*
X67886Y-31839D01*
G54D22*
X71177Y-31142D02*
X70528Y-31791D01*
G54D24*
X70654Y-32157D02*
X70654Y-31917D01*
X71098Y-44539D02*
X71099Y-44540D01*
G54D22*
X74524Y-31228D02*
X73331Y-31228D01*
G54D20*
X66742Y-28002D02*
X66744Y-28000D01*
G54D19*
X72938Y-41768D02*
X72925Y-41768D01*
G54D20*
X69119Y-30028D02*
X69988Y-30897D01*
G54D22*
X73331Y-31228D02*
X73906Y-31228D01*
G54D24*
X63283Y-42740D02*
X63287Y-42744D01*
X62842Y-42421D02*
X62839Y-42421D01*
G54D22*
X69669Y-32650D02*
X69669Y-41003D01*
G54D20*
X75102Y-30808D02*
X75098Y-30812D01*
G54D24*
X70729Y-42582D02*
X70728Y-42583D01*
X62846Y-42417D02*
X62842Y-42421D01*
G54D19*
X57850Y-42220D02*
X57847Y-42217D01*
G54D23*
X64154Y-34512D02*
X64154Y-34508D01*
G54D20*
X62236Y-34454D02*
X62236Y-34453D01*
G54D22*
X73906Y-31228D02*
X74524Y-31228D01*
X75098Y-30812D02*
X74940Y-30812D01*
X70650Y-41323D02*
X71307Y-41323D01*
G54D24*
X66280Y-42917D02*
X66280Y-42913D01*
X65535Y-41437D02*
X65598Y-41437D01*
G54D22*
X65977Y-31850D02*
X66004Y-31823D01*
G54D20*
X64933Y-27889D02*
X64933Y-27890D01*
X70528Y-31791D02*
X70539Y-31791D01*
X70654Y-32157D02*
X70550Y-32157D01*
X73906Y-31228D02*
X73913Y-31228D01*
X69988Y-30897D02*
X69988Y-31791D01*
G54D24*
X65913Y-44213D02*
X65949Y-44177D01*
G54D20*
X58554Y-38921D02*
X58559Y-38921D01*
X68394Y-30028D02*
X68398Y-30028D01*
G54D24*
X63062Y-41803D02*
X63083Y-41803D01*
G54D22*
X71914Y-41323D02*
X71945Y-41354D01*
G54D24*
X70729Y-42579D02*
X70729Y-42582D01*
G54D20*
X68317Y-44621D02*
X68318Y-44622D01*
X58087Y-31134D02*
X58079Y-31142D01*
X70550Y-32157D02*
X70555Y-32157D01*
G54D19*
X65177Y-29557D02*
X66624Y-29557D01*
X68051Y-28996D02*
X68110Y-28996D01*
X67677Y-29370D02*
X68051Y-28996D01*
G54D25*
X67783Y-42412D02*
X67783Y-42406D01*
X68154Y-42783D02*
X67783Y-42412D01*
G54D20*
X68535Y-32110D02*
X68535Y-30645D01*
X68535Y-30645D02*
X67859Y-29969D01*
X67859Y-29969D02*
X67492Y-29969D01*
X63980Y-30019D02*
X63980Y-29291D01*
X63980Y-29291D02*
X63984Y-29287D01*
X64280Y-30319D02*
X63980Y-30019D01*
G54D25*
X65197Y-42764D02*
X65197Y-42760D01*
X65693Y-43260D02*
X65197Y-42764D01*
X68921Y-43260D02*
X65693Y-43260D01*
X68972Y-43209D02*
X68921Y-43260D01*
X65207Y-43524D02*
X66624Y-43524D01*
G54D19*
X66624Y-43524D02*
X66628Y-43520D01*
X67472Y-30283D02*
X67224Y-30035D01*
X67224Y-29879D02*
X67501Y-29602D01*
X69094Y-29602D02*
X69114Y-29622D01*
X67224Y-30035D02*
X67224Y-29879D01*
X67501Y-29602D02*
X69094Y-29602D01*
X65177Y-29291D02*
X66555Y-29291D01*
G54D25*
X65207Y-43780D02*
X65217Y-43770D01*
X65217Y-43770D02*
X66604Y-43770D01*
G54D10*
G36*
X77588Y-28560D02*
X77479Y-33169D01*
X75943Y-33150D01*
X75943Y-32306D01*
X75943Y-32238D01*
X75943Y-31588D01*
X75917Y-31525D01*
X75869Y-31477D01*
X75806Y-31451D01*
X75738Y-31451D01*
X75088Y-31451D01*
X75025Y-31477D01*
X74977Y-31525D01*
X74951Y-31588D01*
X74951Y-31656D01*
X74951Y-32306D01*
X74977Y-32369D01*
X75025Y-32417D01*
X75088Y-32443D01*
X75156Y-32443D01*
X75806Y-32443D01*
X75869Y-32417D01*
X75917Y-32369D01*
X75943Y-32306D01*
X75943Y-33150D01*
X75824Y-33149D01*
X75874Y-33033D01*
X75874Y-32863D01*
X75809Y-32706D01*
X75690Y-32586D01*
X75533Y-32520D01*
X75363Y-32520D01*
X75206Y-32585D01*
X75086Y-32704D01*
X75020Y-32861D01*
X75020Y-33031D01*
X75065Y-33141D01*
X74829Y-33138D01*
X74874Y-33033D01*
X74874Y-32863D01*
X74874Y-32033D01*
X74874Y-31863D01*
X74809Y-31706D01*
X74690Y-31586D01*
X74533Y-31520D01*
X74363Y-31520D01*
X74206Y-31585D01*
X74086Y-31704D01*
X74020Y-31861D01*
X74020Y-32031D01*
X74085Y-32188D01*
X74204Y-32308D01*
X74361Y-32374D01*
X74531Y-32374D01*
X74688Y-32309D01*
X74808Y-32190D01*
X74874Y-32033D01*
X74874Y-32863D01*
X74809Y-32706D01*
X74690Y-32586D01*
X74533Y-32520D01*
X74363Y-32520D01*
X74206Y-32585D01*
X74086Y-32704D01*
X74020Y-32861D01*
X74020Y-33031D01*
X74060Y-33129D01*
X73834Y-33126D01*
X73874Y-33033D01*
X73874Y-32863D01*
X73874Y-32033D01*
X73874Y-31863D01*
X73809Y-31706D01*
X73690Y-31586D01*
X73533Y-31520D01*
X73363Y-31520D01*
X73206Y-31585D01*
X73104Y-31686D01*
X73104Y-30392D01*
X73104Y-30246D01*
X73048Y-30111D01*
X72945Y-30007D01*
X72809Y-29951D01*
X72663Y-29951D01*
X72528Y-30007D01*
X72424Y-30110D01*
X72368Y-30246D01*
X72368Y-30392D01*
X72424Y-30527D01*
X72527Y-30631D01*
X72663Y-30687D01*
X72809Y-30687D01*
X72944Y-30631D01*
X73048Y-30528D01*
X73104Y-30392D01*
X73104Y-31686D01*
X73086Y-31704D01*
X73020Y-31861D01*
X73020Y-32031D01*
X73085Y-32188D01*
X73204Y-32308D01*
X73361Y-32374D01*
X73531Y-32374D01*
X73688Y-32309D01*
X73808Y-32190D01*
X73874Y-32033D01*
X73874Y-32863D01*
X73809Y-32706D01*
X73690Y-32586D01*
X73533Y-32520D01*
X73363Y-32520D01*
X73206Y-32585D01*
X73086Y-32704D01*
X73020Y-32861D01*
X73020Y-33031D01*
X73055Y-33117D01*
X72839Y-33115D01*
X72874Y-33033D01*
X72874Y-32863D01*
X72874Y-32033D01*
X72874Y-31863D01*
X72809Y-31706D01*
X72690Y-31586D01*
X72533Y-31520D01*
X72363Y-31520D01*
X72340Y-31529D01*
X72340Y-30384D01*
X72340Y-30238D01*
X72284Y-30103D01*
X72181Y-29999D01*
X72045Y-29943D01*
X71899Y-29943D01*
X71860Y-29959D01*
X71860Y-29888D01*
X71982Y-29888D01*
X72117Y-29832D01*
X72221Y-29729D01*
X72277Y-29593D01*
X72277Y-29447D01*
X72221Y-29312D01*
X72118Y-29208D01*
X71982Y-29152D01*
X71836Y-29152D01*
X71701Y-29208D01*
X71597Y-29311D01*
X71541Y-29447D01*
X71541Y-29569D01*
X71419Y-29569D01*
X71284Y-29625D01*
X71180Y-29728D01*
X71124Y-29864D01*
X71124Y-30010D01*
X71178Y-30141D01*
X71174Y-30137D01*
X71038Y-30081D01*
X70943Y-30081D01*
X70943Y-26556D01*
X70943Y-26488D01*
X70943Y-26289D01*
X70901Y-26247D01*
X70497Y-26247D01*
X70497Y-26651D01*
X70539Y-26693D01*
X70806Y-26693D01*
X70869Y-26667D01*
X70917Y-26619D01*
X70943Y-26556D01*
X70943Y-30081D01*
X70892Y-30081D01*
X70871Y-30089D01*
X70871Y-27247D01*
X70857Y-27081D01*
X70820Y-26988D01*
X70752Y-26963D01*
X70681Y-27034D01*
X70681Y-26892D01*
X70656Y-26824D01*
X70497Y-26773D01*
X70397Y-26781D01*
X70397Y-26651D01*
X70397Y-26247D01*
X69993Y-26247D01*
X69951Y-26289D01*
X69951Y-26488D01*
X69951Y-26556D01*
X69977Y-26619D01*
X70025Y-26667D01*
X70088Y-26693D01*
X70355Y-26693D01*
X70397Y-26651D01*
X70397Y-26781D01*
X70331Y-26787D01*
X70238Y-26824D01*
X70213Y-26892D01*
X70447Y-27126D01*
X70681Y-26892D01*
X70681Y-27034D01*
X70518Y-27197D01*
X70752Y-27431D01*
X70820Y-27406D01*
X70871Y-27247D01*
X70871Y-30089D01*
X70757Y-30137D01*
X70681Y-30212D01*
X70681Y-27502D01*
X70447Y-27268D01*
X70376Y-27339D01*
X70376Y-27197D01*
X70142Y-26963D01*
X70074Y-26988D01*
X70023Y-27147D01*
X70037Y-27313D01*
X70074Y-27406D01*
X70142Y-27431D01*
X70376Y-27197D01*
X70376Y-27339D01*
X70213Y-27502D01*
X70238Y-27570D01*
X70397Y-27621D01*
X70563Y-27607D01*
X70656Y-27570D01*
X70681Y-27502D01*
X70681Y-30212D01*
X70653Y-30240D01*
X70597Y-30376D01*
X70597Y-30522D01*
X70653Y-30657D01*
X70756Y-30761D01*
X70892Y-30817D01*
X71038Y-30817D01*
X71173Y-30761D01*
X71277Y-30658D01*
X71333Y-30522D01*
X71333Y-30376D01*
X71278Y-30244D01*
X71283Y-30249D01*
X71419Y-30305D01*
X71565Y-30305D01*
X71604Y-30288D01*
X71604Y-30384D01*
X71660Y-30519D01*
X71763Y-30623D01*
X71899Y-30679D01*
X72045Y-30679D01*
X72180Y-30623D01*
X72284Y-30520D01*
X72340Y-30384D01*
X72340Y-31529D01*
X72206Y-31585D01*
X72086Y-31704D01*
X72020Y-31861D01*
X72020Y-32031D01*
X72085Y-32188D01*
X72204Y-32308D01*
X72361Y-32374D01*
X72531Y-32374D01*
X72688Y-32309D01*
X72808Y-32190D01*
X72874Y-32033D01*
X72874Y-32863D01*
X72809Y-32706D01*
X72690Y-32586D01*
X72533Y-32520D01*
X72363Y-32520D01*
X72206Y-32585D01*
X72086Y-32704D01*
X72020Y-32861D01*
X72020Y-33031D01*
X72051Y-33106D01*
X71844Y-33103D01*
X71874Y-33033D01*
X71874Y-32863D01*
X71874Y-32033D01*
X71874Y-31863D01*
X71809Y-31706D01*
X71690Y-31586D01*
X71533Y-31520D01*
X71363Y-31520D01*
X71206Y-31585D01*
X71086Y-31704D01*
X71020Y-31861D01*
X71020Y-32031D01*
X71085Y-32188D01*
X71204Y-32308D01*
X71361Y-32374D01*
X71531Y-32374D01*
X71688Y-32309D01*
X71808Y-32190D01*
X71874Y-32033D01*
X71874Y-32863D01*
X71809Y-32706D01*
X71690Y-32586D01*
X71533Y-32520D01*
X71363Y-32520D01*
X71206Y-32585D01*
X71086Y-32704D01*
X71020Y-32861D01*
X71020Y-33031D01*
X71046Y-33094D01*
X70118Y-33084D01*
X69874Y-33324D01*
X69874Y-27283D01*
X69874Y-27113D01*
X69809Y-26956D01*
X69690Y-26836D01*
X69533Y-26770D01*
X69363Y-26770D01*
X69206Y-26835D01*
X69086Y-26954D01*
X69020Y-27111D01*
X69020Y-27281D01*
X69085Y-27438D01*
X69204Y-27558D01*
X69361Y-27624D01*
X69531Y-27624D01*
X69688Y-27559D01*
X69808Y-27440D01*
X69874Y-27283D01*
X69874Y-33324D01*
X69777Y-33420D01*
X69777Y-40890D01*
X69777Y-41042D01*
X70647Y-41386D01*
X71179Y-41591D01*
X70690Y-41237D01*
X70430Y-41116D01*
X75085Y-41116D01*
X75205Y-46690D01*
X72820Y-46699D01*
X73052Y-46604D01*
X73354Y-46304D01*
X73517Y-45911D01*
X73517Y-45485D01*
X73354Y-45092D01*
X73054Y-44790D01*
X72661Y-44627D01*
X72235Y-44627D01*
X71842Y-44790D01*
X71540Y-45090D01*
X71377Y-45483D01*
X71377Y-45909D01*
X71540Y-46302D01*
X71840Y-46604D01*
X72078Y-46702D01*
X72051Y-46703D01*
X70943Y-46703D01*
X70943Y-45556D01*
X70943Y-45488D01*
X70943Y-45289D01*
X70943Y-45105D01*
X70943Y-44906D01*
X70943Y-44838D01*
X70917Y-44775D01*
X70869Y-44727D01*
X70806Y-44701D01*
X70539Y-44701D01*
X70497Y-44743D01*
X70497Y-45147D01*
X70901Y-45147D01*
X70943Y-45105D01*
X70943Y-45289D01*
X70901Y-45247D01*
X70497Y-45247D01*
X70497Y-45651D01*
X70539Y-45693D01*
X70806Y-45693D01*
X70869Y-45667D01*
X70917Y-45619D01*
X70943Y-45556D01*
X70943Y-46703D01*
X70871Y-46703D01*
X70871Y-46247D01*
X70857Y-46081D01*
X70820Y-45988D01*
X70752Y-45963D01*
X70681Y-46034D01*
X70681Y-45892D01*
X70656Y-45824D01*
X70497Y-45773D01*
X70397Y-45781D01*
X70397Y-45651D01*
X70397Y-45247D01*
X70397Y-45147D01*
X70397Y-44743D01*
X70355Y-44701D01*
X70088Y-44701D01*
X70025Y-44727D01*
X69977Y-44775D01*
X69951Y-44838D01*
X69951Y-44906D01*
X69951Y-45105D01*
X69993Y-45147D01*
X70397Y-45147D01*
X70397Y-45247D01*
X69993Y-45247D01*
X69951Y-45289D01*
X69951Y-45488D01*
X69951Y-45556D01*
X69977Y-45619D01*
X70025Y-45667D01*
X70088Y-45693D01*
X70355Y-45693D01*
X70397Y-45651D01*
X70397Y-45781D01*
X70331Y-45787D01*
X70238Y-45824D01*
X70213Y-45892D01*
X70447Y-46126D01*
X70681Y-45892D01*
X70681Y-46034D01*
X70518Y-46197D01*
X70752Y-46431D01*
X70820Y-46406D01*
X70871Y-46247D01*
X70871Y-46703D01*
X70681Y-46703D01*
X70681Y-46502D01*
X70447Y-46268D01*
X70376Y-46339D01*
X70376Y-46197D01*
X70142Y-45963D01*
X70074Y-45988D01*
X70023Y-46147D01*
X70037Y-46313D01*
X70074Y-46406D01*
X70142Y-46431D01*
X70376Y-46197D01*
X70376Y-46339D01*
X70213Y-46502D01*
X70238Y-46570D01*
X70397Y-46621D01*
X70563Y-46607D01*
X70656Y-46570D01*
X70681Y-46502D01*
X70681Y-46703D01*
X69874Y-46703D01*
X69874Y-46283D01*
X69874Y-46113D01*
X69874Y-45283D01*
X69874Y-45113D01*
X69809Y-44956D01*
X69690Y-44836D01*
X69533Y-44770D01*
X69376Y-44770D01*
X69376Y-36307D01*
X69376Y-36175D01*
X69376Y-35307D01*
X69376Y-35175D01*
X69376Y-34307D01*
X69376Y-34175D01*
X69344Y-34096D01*
X69344Y-29668D01*
X69344Y-29577D01*
X69309Y-29492D01*
X69245Y-29428D01*
X69180Y-29400D01*
X69178Y-29399D01*
X69175Y-29398D01*
X69160Y-29392D01*
X69145Y-29392D01*
X69094Y-29381D01*
X69089Y-29382D01*
X68874Y-29382D01*
X68874Y-27283D01*
X68874Y-27113D01*
X68809Y-26956D01*
X68690Y-26836D01*
X68533Y-26770D01*
X68363Y-26770D01*
X68206Y-26835D01*
X68086Y-26954D01*
X68020Y-27111D01*
X68020Y-27281D01*
X68085Y-27438D01*
X68204Y-27558D01*
X68361Y-27624D01*
X68531Y-27624D01*
X68688Y-27559D01*
X68808Y-27440D01*
X68874Y-27283D01*
X68874Y-29382D01*
X67976Y-29382D01*
X68132Y-29226D01*
X68155Y-29226D01*
X68240Y-29191D01*
X68304Y-29127D01*
X68340Y-29042D01*
X68340Y-28951D01*
X68305Y-28866D01*
X68241Y-28802D01*
X68156Y-28766D01*
X68065Y-28766D01*
X68033Y-28779D01*
X68030Y-28780D01*
X67967Y-28793D01*
X67895Y-28840D01*
X67893Y-28842D01*
X67874Y-28860D01*
X67874Y-27283D01*
X67874Y-27113D01*
X67809Y-26956D01*
X67690Y-26836D01*
X67533Y-26770D01*
X67363Y-26770D01*
X67206Y-26835D01*
X67086Y-26954D01*
X67020Y-27111D01*
X67020Y-27281D01*
X67085Y-27438D01*
X67204Y-27558D01*
X67361Y-27624D01*
X67531Y-27624D01*
X67688Y-27559D01*
X67808Y-27440D01*
X67874Y-27283D01*
X67874Y-28860D01*
X67569Y-29165D01*
X67547Y-29175D01*
X67483Y-29239D01*
X67447Y-29324D01*
X67447Y-29392D01*
X67417Y-29399D01*
X67345Y-29446D01*
X67343Y-29448D01*
X67071Y-29720D01*
X67071Y-29635D01*
X67071Y-28967D01*
X67053Y-28875D01*
X67001Y-28797D01*
X66998Y-28795D01*
X66874Y-28670D01*
X66874Y-27283D01*
X66874Y-27113D01*
X66809Y-26956D01*
X66690Y-26836D01*
X66533Y-26770D01*
X66363Y-26770D01*
X66206Y-26835D01*
X66086Y-26954D01*
X66020Y-27111D01*
X66020Y-27281D01*
X66085Y-27438D01*
X66204Y-27558D01*
X66361Y-27624D01*
X66531Y-27624D01*
X66688Y-27559D01*
X66808Y-27440D01*
X66874Y-27283D01*
X66874Y-28670D01*
X66814Y-28610D01*
X66736Y-28558D01*
X66644Y-28540D01*
X66552Y-28558D01*
X66474Y-28610D01*
X66422Y-28688D01*
X66404Y-28780D01*
X66416Y-28846D01*
X66354Y-28872D01*
X66290Y-28936D01*
X66254Y-29021D01*
X66254Y-29071D01*
X65874Y-29071D01*
X65874Y-27283D01*
X65874Y-27113D01*
X65809Y-26956D01*
X65690Y-26836D01*
X65533Y-26770D01*
X65363Y-26770D01*
X65206Y-26835D01*
X65086Y-26954D01*
X65020Y-27111D01*
X65020Y-27281D01*
X65085Y-27438D01*
X65204Y-27558D01*
X65361Y-27624D01*
X65531Y-27624D01*
X65688Y-27559D01*
X65808Y-27440D01*
X65874Y-27283D01*
X65874Y-29071D01*
X65246Y-29071D01*
X65223Y-29061D01*
X65132Y-29061D01*
X65047Y-29096D01*
X64983Y-29160D01*
X64947Y-29245D01*
X64947Y-29336D01*
X64982Y-29421D01*
X64985Y-29424D01*
X64983Y-29426D01*
X64947Y-29511D01*
X64947Y-29602D01*
X64982Y-29687D01*
X65046Y-29751D01*
X65131Y-29787D01*
X65222Y-29787D01*
X65246Y-29777D01*
X66349Y-29777D01*
X65922Y-30204D01*
X65870Y-30282D01*
X65852Y-30374D01*
X65852Y-30817D01*
X65870Y-30909D01*
X65922Y-30987D01*
X66444Y-31509D01*
X66522Y-31561D01*
X66614Y-31579D01*
X66706Y-31561D01*
X66784Y-31509D01*
X66836Y-31431D01*
X66844Y-31385D01*
X66854Y-31339D01*
X66836Y-31247D01*
X66784Y-31169D01*
X66666Y-31051D01*
X66728Y-31026D01*
X66792Y-30962D01*
X66828Y-30877D01*
X66828Y-30786D01*
X66793Y-30701D01*
X66729Y-30637D01*
X66644Y-30601D01*
X66553Y-30601D01*
X66468Y-30636D01*
X66404Y-30700D01*
X66377Y-30762D01*
X66332Y-30717D01*
X66332Y-30474D01*
X67001Y-29805D01*
X67053Y-29727D01*
X67071Y-29635D01*
X67071Y-29720D01*
X67068Y-29723D01*
X67021Y-29795D01*
X67003Y-29879D01*
X67004Y-29883D01*
X67004Y-30030D01*
X67003Y-30035D01*
X67021Y-30119D01*
X67068Y-30191D01*
X67267Y-30389D01*
X67277Y-30413D01*
X67341Y-30477D01*
X67426Y-30513D01*
X67517Y-30513D01*
X67602Y-30478D01*
X67666Y-30414D01*
X67702Y-30329D01*
X67702Y-30238D01*
X67748Y-30238D01*
X68266Y-30756D01*
X68266Y-32110D01*
X68286Y-32213D01*
X68345Y-32300D01*
X68432Y-32359D01*
X68535Y-32379D01*
X68638Y-32359D01*
X68725Y-32300D01*
X68784Y-32213D01*
X68804Y-32110D01*
X68804Y-30645D01*
X68784Y-30542D01*
X68725Y-30455D01*
X68092Y-29822D01*
X68997Y-29822D01*
X69068Y-29852D01*
X69159Y-29852D01*
X69244Y-29817D01*
X69308Y-29753D01*
X69344Y-29668D01*
X69344Y-34096D01*
X69326Y-34053D01*
X69233Y-33960D01*
X69112Y-33909D01*
X68980Y-33909D01*
X68858Y-33959D01*
X68765Y-34052D01*
X68714Y-34173D01*
X68714Y-34305D01*
X68764Y-34427D01*
X68857Y-34520D01*
X68978Y-34571D01*
X69110Y-34571D01*
X69232Y-34521D01*
X69325Y-34428D01*
X69376Y-34307D01*
X69376Y-35175D01*
X69326Y-35053D01*
X69233Y-34960D01*
X69112Y-34909D01*
X68980Y-34909D01*
X68858Y-34959D01*
X68765Y-35052D01*
X68714Y-35173D01*
X68714Y-35305D01*
X68764Y-35427D01*
X68857Y-35520D01*
X68978Y-35571D01*
X69110Y-35571D01*
X69232Y-35521D01*
X69325Y-35428D01*
X69376Y-35307D01*
X69376Y-36175D01*
X69326Y-36053D01*
X69233Y-35960D01*
X69112Y-35909D01*
X68980Y-35909D01*
X68858Y-35959D01*
X68765Y-36052D01*
X68714Y-36173D01*
X68714Y-36305D01*
X68760Y-36418D01*
X68756Y-36418D01*
X68747Y-36419D01*
X66137Y-33808D01*
X65986Y-33707D01*
X65807Y-33671D01*
X65802Y-33672D01*
X65411Y-33672D01*
X65411Y-30873D01*
X65411Y-30782D01*
X65376Y-30697D01*
X65312Y-30633D01*
X65227Y-30597D01*
X65136Y-30597D01*
X65051Y-30632D01*
X64987Y-30696D01*
X64951Y-30781D01*
X64951Y-30872D01*
X64986Y-30957D01*
X65050Y-31021D01*
X65135Y-31057D01*
X65226Y-31057D01*
X65311Y-31022D01*
X65375Y-30958D01*
X65411Y-30873D01*
X65411Y-33672D01*
X64874Y-33672D01*
X64874Y-27283D01*
X64874Y-27113D01*
X64809Y-26956D01*
X64690Y-26836D01*
X64533Y-26770D01*
X64363Y-26770D01*
X64206Y-26835D01*
X64086Y-26954D01*
X64020Y-27111D01*
X64020Y-27281D01*
X64085Y-27438D01*
X64204Y-27558D01*
X64361Y-27624D01*
X64531Y-27624D01*
X64688Y-27559D01*
X64808Y-27440D01*
X64874Y-27283D01*
X64874Y-33672D01*
X64843Y-33672D01*
X64665Y-33707D01*
X64549Y-33784D01*
X64549Y-30319D01*
X64529Y-30216D01*
X64470Y-30129D01*
X64249Y-29908D01*
X64249Y-29302D01*
X64252Y-29287D01*
X64232Y-29184D01*
X64174Y-29097D01*
X64087Y-29039D01*
X63984Y-29019D01*
X63880Y-29039D01*
X63874Y-29043D01*
X63874Y-27283D01*
X63874Y-27113D01*
X63809Y-26956D01*
X63690Y-26836D01*
X63533Y-26770D01*
X63363Y-26770D01*
X63206Y-26835D01*
X63086Y-26954D01*
X63020Y-27111D01*
X63020Y-27281D01*
X63085Y-27438D01*
X63204Y-27558D01*
X63361Y-27624D01*
X63531Y-27624D01*
X63688Y-27559D01*
X63808Y-27440D01*
X63874Y-27283D01*
X63874Y-29043D01*
X63793Y-29097D01*
X63790Y-29101D01*
X63731Y-29188D01*
X63711Y-29291D01*
X63711Y-30019D01*
X63731Y-30122D01*
X63790Y-30209D01*
X64090Y-30509D01*
X64177Y-30568D01*
X64280Y-30588D01*
X64383Y-30568D01*
X64470Y-30509D01*
X64529Y-30422D01*
X64549Y-30319D01*
X64549Y-33784D01*
X64513Y-33808D01*
X64412Y-33960D01*
X64377Y-34138D01*
X64412Y-34316D01*
X64513Y-34468D01*
X64665Y-34569D01*
X64843Y-34604D01*
X65613Y-34604D01*
X68250Y-37240D01*
X68253Y-37244D01*
X68424Y-37414D01*
X68426Y-37417D01*
X68438Y-37428D01*
X68438Y-37760D01*
X68462Y-37882D01*
X68531Y-37985D01*
X68634Y-38054D01*
X68704Y-38067D01*
X68704Y-38104D01*
X68754Y-38226D01*
X68847Y-38319D01*
X68968Y-38370D01*
X69100Y-38370D01*
X69222Y-38320D01*
X69315Y-38227D01*
X69366Y-38106D01*
X69366Y-37974D01*
X69316Y-37852D01*
X69223Y-37759D01*
X69102Y-37708D01*
X69074Y-37708D01*
X69074Y-37475D01*
X69116Y-37447D01*
X69217Y-37297D01*
X69217Y-37296D01*
X69253Y-37118D01*
X69252Y-37117D01*
X69253Y-37117D01*
X69217Y-36939D01*
X69116Y-36788D01*
X69086Y-36757D01*
X69083Y-36755D01*
X69074Y-36745D01*
X69074Y-36736D01*
X69050Y-36614D01*
X69021Y-36571D01*
X69110Y-36571D01*
X69232Y-36521D01*
X69325Y-36428D01*
X69376Y-36307D01*
X69376Y-44770D01*
X69366Y-44770D01*
X69366Y-40106D01*
X69366Y-39974D01*
X69366Y-39106D01*
X69366Y-38974D01*
X69316Y-38852D01*
X69223Y-38759D01*
X69102Y-38708D01*
X68970Y-38708D01*
X68848Y-38758D01*
X68755Y-38851D01*
X68704Y-38972D01*
X68704Y-39104D01*
X68754Y-39226D01*
X68847Y-39319D01*
X68968Y-39370D01*
X69100Y-39370D01*
X69222Y-39320D01*
X69315Y-39227D01*
X69366Y-39106D01*
X69366Y-39974D01*
X69316Y-39852D01*
X69223Y-39759D01*
X69102Y-39708D01*
X68970Y-39708D01*
X68848Y-39758D01*
X68755Y-39851D01*
X68704Y-39972D01*
X68704Y-40104D01*
X68754Y-40226D01*
X68847Y-40319D01*
X68968Y-40370D01*
X69100Y-40370D01*
X69222Y-40320D01*
X69315Y-40227D01*
X69366Y-40106D01*
X69366Y-44770D01*
X69363Y-44770D01*
X69225Y-44826D01*
X69212Y-44793D01*
X69202Y-44782D01*
X69202Y-43255D01*
X69202Y-43209D01*
X69202Y-43164D01*
X69184Y-43121D01*
X69167Y-43079D01*
X69136Y-43048D01*
X69135Y-43046D01*
X69132Y-43044D01*
X69103Y-43015D01*
X69060Y-42997D01*
X69018Y-42979D01*
X68972Y-42979D01*
X68927Y-42979D01*
X68842Y-43014D01*
X68826Y-43030D01*
X68384Y-43030D01*
X68384Y-42829D01*
X68384Y-42783D01*
X68384Y-42738D01*
X68366Y-42695D01*
X68349Y-42653D01*
X68316Y-42620D01*
X68285Y-42589D01*
X67981Y-42284D01*
X67978Y-42276D01*
X67947Y-42245D01*
X67946Y-42243D01*
X67943Y-42241D01*
X67914Y-42212D01*
X67871Y-42194D01*
X67829Y-42176D01*
X67783Y-42176D01*
X67738Y-42176D01*
X67653Y-42211D01*
X67622Y-42241D01*
X67620Y-42243D01*
X67618Y-42245D01*
X67589Y-42275D01*
X67553Y-42360D01*
X67553Y-42406D01*
X67553Y-42407D01*
X67552Y-42412D01*
X67553Y-42416D01*
X67553Y-42451D01*
X67568Y-42488D01*
X67568Y-42489D01*
X67571Y-42500D01*
X67576Y-42509D01*
X67588Y-42536D01*
X67606Y-42554D01*
X67620Y-42575D01*
X67959Y-42913D01*
X67991Y-42945D01*
X68023Y-42977D01*
X68066Y-42995D01*
X68108Y-43013D01*
X68154Y-43013D01*
X68199Y-43013D01*
X68241Y-42995D01*
X68284Y-42978D01*
X68316Y-42945D01*
X68348Y-42914D01*
X68366Y-42870D01*
X68384Y-42829D01*
X68384Y-43030D01*
X66907Y-43030D01*
X66907Y-42298D01*
X66907Y-42191D01*
X66866Y-42092D01*
X66791Y-42016D01*
X66692Y-41975D01*
X66585Y-41975D01*
X66486Y-42016D01*
X66410Y-42091D01*
X66369Y-42190D01*
X66369Y-42297D01*
X66410Y-42396D01*
X66485Y-42472D01*
X66584Y-42513D01*
X66691Y-42513D01*
X66790Y-42472D01*
X66866Y-42397D01*
X66907Y-42298D01*
X66907Y-43030D01*
X65788Y-43030D01*
X65394Y-42635D01*
X65392Y-42630D01*
X65361Y-42599D01*
X65360Y-42597D01*
X65357Y-42595D01*
X65328Y-42566D01*
X65285Y-42548D01*
X65243Y-42530D01*
X65197Y-42530D01*
X65152Y-42530D01*
X65067Y-42565D01*
X65036Y-42595D01*
X65034Y-42597D01*
X65032Y-42599D01*
X65003Y-42629D01*
X64967Y-42714D01*
X64967Y-42759D01*
X64966Y-42764D01*
X64967Y-42768D01*
X64967Y-42805D01*
X64983Y-42845D01*
X64985Y-42852D01*
X64988Y-42857D01*
X65002Y-42890D01*
X65024Y-42912D01*
X65034Y-42927D01*
X65401Y-43294D01*
X65253Y-43294D01*
X65207Y-43294D01*
X65162Y-43294D01*
X65077Y-43329D01*
X65046Y-43359D01*
X65044Y-43361D01*
X65042Y-43363D01*
X65013Y-43393D01*
X64977Y-43478D01*
X64977Y-43524D01*
X64977Y-43569D01*
X64995Y-43612D01*
X65011Y-43652D01*
X64977Y-43734D01*
X64977Y-43775D01*
X64976Y-43780D01*
X64977Y-43784D01*
X64977Y-43825D01*
X64995Y-43868D01*
X65012Y-43910D01*
X65042Y-43940D01*
X65044Y-43943D01*
X65046Y-43944D01*
X65076Y-43974D01*
X65119Y-43992D01*
X65161Y-44010D01*
X65202Y-44010D01*
X65207Y-44011D01*
X65211Y-44010D01*
X65252Y-44010D01*
X65276Y-44000D01*
X66558Y-44000D01*
X66604Y-44000D01*
X66649Y-44000D01*
X66692Y-43982D01*
X66734Y-43965D01*
X66764Y-43934D01*
X66767Y-43933D01*
X66768Y-43930D01*
X66798Y-43901D01*
X66816Y-43858D01*
X66834Y-43816D01*
X66834Y-43770D01*
X66834Y-43725D01*
X66816Y-43682D01*
X66808Y-43664D01*
X66822Y-43651D01*
X66858Y-43566D01*
X66858Y-43490D01*
X67336Y-43490D01*
X67307Y-43502D01*
X67243Y-43566D01*
X67207Y-43651D01*
X67207Y-43742D01*
X67242Y-43827D01*
X67306Y-43891D01*
X67391Y-43927D01*
X67482Y-43927D01*
X67567Y-43892D01*
X67631Y-43828D01*
X67667Y-43743D01*
X67667Y-43652D01*
X67632Y-43567D01*
X67568Y-43503D01*
X67537Y-43490D01*
X68916Y-43490D01*
X68921Y-43491D01*
X68921Y-43490D01*
X69009Y-43472D01*
X69084Y-43423D01*
X69102Y-43404D01*
X69135Y-43372D01*
X69136Y-43369D01*
X69166Y-43340D01*
X69184Y-43297D01*
X69202Y-43255D01*
X69202Y-44782D01*
X69137Y-44717D01*
X69038Y-44676D01*
X68931Y-44676D01*
X68832Y-44717D01*
X68756Y-44792D01*
X68723Y-44869D01*
X68690Y-44836D01*
X68533Y-44770D01*
X68363Y-44770D01*
X68206Y-44835D01*
X68086Y-44954D01*
X68020Y-45111D01*
X68020Y-45281D01*
X68085Y-45438D01*
X68204Y-45558D01*
X68361Y-45624D01*
X68531Y-45624D01*
X68688Y-45559D01*
X68808Y-45440D01*
X68874Y-45283D01*
X68874Y-45190D01*
X68930Y-45214D01*
X69020Y-45214D01*
X69020Y-45281D01*
X69085Y-45438D01*
X69204Y-45558D01*
X69361Y-45624D01*
X69531Y-45624D01*
X69688Y-45559D01*
X69808Y-45440D01*
X69874Y-45283D01*
X69874Y-46113D01*
X69809Y-45956D01*
X69690Y-45836D01*
X69533Y-45770D01*
X69363Y-45770D01*
X69206Y-45835D01*
X69086Y-45954D01*
X69020Y-46111D01*
X69020Y-46281D01*
X69085Y-46438D01*
X69204Y-46558D01*
X69361Y-46624D01*
X69531Y-46624D01*
X69688Y-46559D01*
X69808Y-46440D01*
X69874Y-46283D01*
X69874Y-46703D01*
X68874Y-46703D01*
X68874Y-46283D01*
X68874Y-46113D01*
X68809Y-45956D01*
X68690Y-45836D01*
X68533Y-45770D01*
X68363Y-45770D01*
X68206Y-45835D01*
X68086Y-45954D01*
X68020Y-46111D01*
X68020Y-46281D01*
X68085Y-46438D01*
X68204Y-46558D01*
X68361Y-46624D01*
X68531Y-46624D01*
X68688Y-46559D01*
X68808Y-46440D01*
X68874Y-46283D01*
X68874Y-46703D01*
X67874Y-46703D01*
X67874Y-46283D01*
X67874Y-46113D01*
X67874Y-45283D01*
X67874Y-45113D01*
X67809Y-44956D01*
X67690Y-44836D01*
X67533Y-44770D01*
X67363Y-44770D01*
X67206Y-44835D01*
X67086Y-44954D01*
X67020Y-45111D01*
X67020Y-45281D01*
X67085Y-45438D01*
X67204Y-45558D01*
X67361Y-45624D01*
X67531Y-45624D01*
X67688Y-45559D01*
X67808Y-45440D01*
X67874Y-45283D01*
X67874Y-46113D01*
X67809Y-45956D01*
X67690Y-45836D01*
X67533Y-45770D01*
X67363Y-45770D01*
X67206Y-45835D01*
X67086Y-45954D01*
X67020Y-46111D01*
X67020Y-46281D01*
X67085Y-46438D01*
X67204Y-46558D01*
X67361Y-46624D01*
X67531Y-46624D01*
X67688Y-46559D01*
X67808Y-46440D01*
X67874Y-46283D01*
X67874Y-46703D01*
X66874Y-46703D01*
X66874Y-46283D01*
X66874Y-46113D01*
X66874Y-45283D01*
X66874Y-45113D01*
X66809Y-44956D01*
X66690Y-44836D01*
X66533Y-44770D01*
X66363Y-44770D01*
X66206Y-44835D01*
X66086Y-44954D01*
X66020Y-45111D01*
X66020Y-45281D01*
X66085Y-45438D01*
X66204Y-45558D01*
X66361Y-45624D01*
X66531Y-45624D01*
X66688Y-45559D01*
X66808Y-45440D01*
X66874Y-45283D01*
X66874Y-46113D01*
X66809Y-45956D01*
X66690Y-45836D01*
X66533Y-45770D01*
X66363Y-45770D01*
X66206Y-45835D01*
X66086Y-45954D01*
X66020Y-46111D01*
X66020Y-46281D01*
X66085Y-46438D01*
X66204Y-46558D01*
X66361Y-46624D01*
X66531Y-46624D01*
X66688Y-46559D01*
X66808Y-46440D01*
X66874Y-46283D01*
X66874Y-46703D01*
X65874Y-46703D01*
X65874Y-46283D01*
X65874Y-46113D01*
X65874Y-45283D01*
X65874Y-45113D01*
X65809Y-44956D01*
X65690Y-44836D01*
X65533Y-44770D01*
X65363Y-44770D01*
X65206Y-44835D01*
X65086Y-44954D01*
X65020Y-45111D01*
X65020Y-45281D01*
X65085Y-45438D01*
X65204Y-45558D01*
X65361Y-45624D01*
X65531Y-45624D01*
X65688Y-45559D01*
X65808Y-45440D01*
X65874Y-45283D01*
X65874Y-46113D01*
X65809Y-45956D01*
X65690Y-45836D01*
X65533Y-45770D01*
X65363Y-45770D01*
X65206Y-45835D01*
X65086Y-45954D01*
X65020Y-46111D01*
X65020Y-46281D01*
X65085Y-46438D01*
X65204Y-46558D01*
X65361Y-46624D01*
X65531Y-46624D01*
X65688Y-46559D01*
X65808Y-46440D01*
X65874Y-46283D01*
X65874Y-46703D01*
X64874Y-46703D01*
X64874Y-46283D01*
X64874Y-46113D01*
X64874Y-45283D01*
X64874Y-45113D01*
X64809Y-44956D01*
X64773Y-44919D01*
X64773Y-36896D01*
X64773Y-36805D01*
X64738Y-36720D01*
X64674Y-36656D01*
X64589Y-36620D01*
X64498Y-36620D01*
X64413Y-36655D01*
X64349Y-36719D01*
X64313Y-36804D01*
X64313Y-36895D01*
X64348Y-36980D01*
X64412Y-37044D01*
X64497Y-37080D01*
X64588Y-37080D01*
X64673Y-37045D01*
X64737Y-36981D01*
X64773Y-36896D01*
X64773Y-44919D01*
X64690Y-44836D01*
X64549Y-44776D01*
X64549Y-42223D01*
X64549Y-42116D01*
X64508Y-42017D01*
X64433Y-41941D01*
X64371Y-41915D01*
X64371Y-41860D01*
X64358Y-41830D01*
X64430Y-41760D01*
X64486Y-41624D01*
X64486Y-41478D01*
X64430Y-41343D01*
X64327Y-41239D01*
X64210Y-41190D01*
X64210Y-37235D01*
X64210Y-37144D01*
X64175Y-37059D01*
X64111Y-36995D01*
X64026Y-36959D01*
X63935Y-36959D01*
X63850Y-36994D01*
X63786Y-37058D01*
X63750Y-37143D01*
X63750Y-37234D01*
X63785Y-37319D01*
X63849Y-37383D01*
X63934Y-37419D01*
X64025Y-37419D01*
X64110Y-37384D01*
X64174Y-37320D01*
X64210Y-37235D01*
X64210Y-41190D01*
X64191Y-41183D01*
X64045Y-41183D01*
X63910Y-41239D01*
X63806Y-41342D01*
X63750Y-41478D01*
X63750Y-41624D01*
X63806Y-41759D01*
X63854Y-41807D01*
X63833Y-41859D01*
X63833Y-41966D01*
X63874Y-42065D01*
X63933Y-42125D01*
X63890Y-42144D01*
X63786Y-42247D01*
X63742Y-42353D01*
X63742Y-37247D01*
X63742Y-37156D01*
X63707Y-37071D01*
X63643Y-37007D01*
X63558Y-36971D01*
X63467Y-36971D01*
X63382Y-37006D01*
X63318Y-37070D01*
X63282Y-37155D01*
X63282Y-37246D01*
X63317Y-37331D01*
X63381Y-37395D01*
X63466Y-37431D01*
X63557Y-37431D01*
X63642Y-37396D01*
X63706Y-37332D01*
X63742Y-37247D01*
X63742Y-42353D01*
X63730Y-42383D01*
X63730Y-42529D01*
X63786Y-42664D01*
X63889Y-42768D01*
X64025Y-42824D01*
X64171Y-42824D01*
X64306Y-42768D01*
X64410Y-42665D01*
X64466Y-42529D01*
X64466Y-42383D01*
X64460Y-42369D01*
X64508Y-42322D01*
X64549Y-42223D01*
X64549Y-44776D01*
X64533Y-44770D01*
X64414Y-44770D01*
X64442Y-44704D01*
X64442Y-44597D01*
X64401Y-44498D01*
X64326Y-44422D01*
X64227Y-44381D01*
X64120Y-44381D01*
X64021Y-44422D01*
X63945Y-44497D01*
X63904Y-44596D01*
X63904Y-44703D01*
X63945Y-44802D01*
X64020Y-44878D01*
X64119Y-44919D01*
X64121Y-44919D01*
X64086Y-44954D01*
X64020Y-45111D01*
X64020Y-45281D01*
X64085Y-45438D01*
X64204Y-45558D01*
X64361Y-45624D01*
X64531Y-45624D01*
X64688Y-45559D01*
X64808Y-45440D01*
X64874Y-45283D01*
X64874Y-46113D01*
X64809Y-45956D01*
X64690Y-45836D01*
X64533Y-45770D01*
X64363Y-45770D01*
X64206Y-45835D01*
X64086Y-45954D01*
X64020Y-46111D01*
X64020Y-46281D01*
X64085Y-46438D01*
X64204Y-46558D01*
X64361Y-46624D01*
X64531Y-46624D01*
X64688Y-46559D01*
X64808Y-46440D01*
X64874Y-46283D01*
X64874Y-46703D01*
X63874Y-46703D01*
X63874Y-46283D01*
X63874Y-46113D01*
X63874Y-45283D01*
X63874Y-45113D01*
X63809Y-44956D01*
X63690Y-44836D01*
X63533Y-44770D01*
X63363Y-44770D01*
X63222Y-44828D01*
X63222Y-37239D01*
X63222Y-37148D01*
X63187Y-37063D01*
X63123Y-36999D01*
X63038Y-36963D01*
X62947Y-36963D01*
X62874Y-36993D01*
X62874Y-27283D01*
X62874Y-27113D01*
X62809Y-26956D01*
X62690Y-26836D01*
X62533Y-26770D01*
X62363Y-26770D01*
X62206Y-26835D01*
X62086Y-26954D01*
X62020Y-27111D01*
X62020Y-27281D01*
X62085Y-27438D01*
X62204Y-27558D01*
X62361Y-27624D01*
X62531Y-27624D01*
X62688Y-27559D01*
X62808Y-27440D01*
X62874Y-27283D01*
X62874Y-36993D01*
X62862Y-36998D01*
X62798Y-37062D01*
X62762Y-37147D01*
X62762Y-37238D01*
X62797Y-37323D01*
X62861Y-37387D01*
X62946Y-37423D01*
X63037Y-37423D01*
X63122Y-37388D01*
X63186Y-37324D01*
X63222Y-37239D01*
X63222Y-44828D01*
X63206Y-44835D01*
X63086Y-44954D01*
X63020Y-45111D01*
X63020Y-45281D01*
X63085Y-45438D01*
X63204Y-45558D01*
X63361Y-45624D01*
X63531Y-45624D01*
X63688Y-45559D01*
X63808Y-45440D01*
X63874Y-45283D01*
X63874Y-46113D01*
X63809Y-45956D01*
X63690Y-45836D01*
X63533Y-45770D01*
X63363Y-45770D01*
X63206Y-45835D01*
X63086Y-45954D01*
X63020Y-46111D01*
X63020Y-46281D01*
X63085Y-46438D01*
X63204Y-46558D01*
X63361Y-46624D01*
X63531Y-46624D01*
X63688Y-46559D01*
X63808Y-46440D01*
X63874Y-46283D01*
X63874Y-46703D01*
X62874Y-46703D01*
X62874Y-46283D01*
X62874Y-46113D01*
X62874Y-45283D01*
X62874Y-45113D01*
X62809Y-44956D01*
X62690Y-44836D01*
X62533Y-44770D01*
X62363Y-44770D01*
X62317Y-44789D01*
X62317Y-34070D01*
X62317Y-33979D01*
X62282Y-33894D01*
X62218Y-33830D01*
X62133Y-33794D01*
X62042Y-33794D01*
X61957Y-33829D01*
X61893Y-33893D01*
X61874Y-33937D01*
X61874Y-27283D01*
X61874Y-27113D01*
X61809Y-26956D01*
X61690Y-26836D01*
X61533Y-26770D01*
X61363Y-26770D01*
X61206Y-26835D01*
X61086Y-26954D01*
X61020Y-27111D01*
X61020Y-27281D01*
X61085Y-27438D01*
X61204Y-27558D01*
X61361Y-27624D01*
X61531Y-27624D01*
X61688Y-27559D01*
X61808Y-27440D01*
X61874Y-27283D01*
X61874Y-33937D01*
X61857Y-33978D01*
X61857Y-34069D01*
X61892Y-34154D01*
X61956Y-34218D01*
X62041Y-34254D01*
X62132Y-34254D01*
X62217Y-34219D01*
X62281Y-34155D01*
X62317Y-34070D01*
X62317Y-44789D01*
X62238Y-44821D01*
X62238Y-36833D01*
X62238Y-36742D01*
X62203Y-36657D01*
X62139Y-36593D01*
X62054Y-36557D01*
X61963Y-36557D01*
X61878Y-36592D01*
X61814Y-36656D01*
X61778Y-36741D01*
X61778Y-36832D01*
X61813Y-36917D01*
X61877Y-36981D01*
X61962Y-37017D01*
X62053Y-37017D01*
X62138Y-36982D01*
X62202Y-36918D01*
X62238Y-36833D01*
X62238Y-44821D01*
X62206Y-44835D01*
X62086Y-44954D01*
X62020Y-45111D01*
X62020Y-45281D01*
X62085Y-45438D01*
X62204Y-45558D01*
X62361Y-45624D01*
X62531Y-45624D01*
X62688Y-45559D01*
X62808Y-45440D01*
X62874Y-45283D01*
X62874Y-46113D01*
X62809Y-45956D01*
X62690Y-45836D01*
X62533Y-45770D01*
X62363Y-45770D01*
X62206Y-45835D01*
X62086Y-45954D01*
X62020Y-46111D01*
X62020Y-46281D01*
X62085Y-46438D01*
X62204Y-46558D01*
X62361Y-46624D01*
X62531Y-46624D01*
X62688Y-46559D01*
X62808Y-46440D01*
X62874Y-46283D01*
X62874Y-46703D01*
X61874Y-46703D01*
X61874Y-46283D01*
X61874Y-46113D01*
X61874Y-45283D01*
X61874Y-45113D01*
X61840Y-45030D01*
X61840Y-37538D01*
X61840Y-37447D01*
X61805Y-37362D01*
X61741Y-37298D01*
X61659Y-37263D01*
X61659Y-36566D01*
X61659Y-36475D01*
X61624Y-36390D01*
X61560Y-36326D01*
X61557Y-36324D01*
X61557Y-34085D01*
X61557Y-33994D01*
X61522Y-33909D01*
X61458Y-33845D01*
X61373Y-33809D01*
X61282Y-33809D01*
X61197Y-33844D01*
X61133Y-33908D01*
X61097Y-33993D01*
X61097Y-34084D01*
X61132Y-34169D01*
X61196Y-34233D01*
X61281Y-34269D01*
X61372Y-34269D01*
X61457Y-34234D01*
X61521Y-34170D01*
X61557Y-34085D01*
X61557Y-36324D01*
X61475Y-36290D01*
X61384Y-36290D01*
X61299Y-36325D01*
X61235Y-36389D01*
X61199Y-36474D01*
X61199Y-36565D01*
X61234Y-36650D01*
X61298Y-36714D01*
X61383Y-36750D01*
X61474Y-36750D01*
X61559Y-36715D01*
X61623Y-36651D01*
X61659Y-36566D01*
X61659Y-37263D01*
X61656Y-37262D01*
X61565Y-37262D01*
X61480Y-37297D01*
X61416Y-37361D01*
X61380Y-37446D01*
X61380Y-37537D01*
X61415Y-37622D01*
X61479Y-37686D01*
X61564Y-37722D01*
X61655Y-37722D01*
X61740Y-37687D01*
X61804Y-37623D01*
X61840Y-37538D01*
X61840Y-45030D01*
X61809Y-44956D01*
X61734Y-44880D01*
X61734Y-42066D01*
X61734Y-41975D01*
X61699Y-41890D01*
X61635Y-41826D01*
X61550Y-41790D01*
X61459Y-41790D01*
X61374Y-41825D01*
X61310Y-41889D01*
X61274Y-41974D01*
X61274Y-42065D01*
X61309Y-42150D01*
X61373Y-42214D01*
X61458Y-42250D01*
X61549Y-42250D01*
X61634Y-42215D01*
X61698Y-42151D01*
X61734Y-42066D01*
X61734Y-44880D01*
X61690Y-44836D01*
X61533Y-44770D01*
X61363Y-44770D01*
X61206Y-44835D01*
X61086Y-44954D01*
X61020Y-45111D01*
X61020Y-45281D01*
X61085Y-45438D01*
X61204Y-45558D01*
X61361Y-45624D01*
X61531Y-45624D01*
X61688Y-45559D01*
X61808Y-45440D01*
X61874Y-45283D01*
X61874Y-46113D01*
X61809Y-45956D01*
X61690Y-45836D01*
X61533Y-45770D01*
X61363Y-45770D01*
X61206Y-45835D01*
X61086Y-45954D01*
X61020Y-46111D01*
X61020Y-46281D01*
X61085Y-46438D01*
X61204Y-46558D01*
X61361Y-46624D01*
X61531Y-46624D01*
X61688Y-46559D01*
X61808Y-46440D01*
X61874Y-46283D01*
X61874Y-46703D01*
X60874Y-46703D01*
X60874Y-46283D01*
X60874Y-46113D01*
X60874Y-45283D01*
X60874Y-45113D01*
X60874Y-27283D01*
X60874Y-27113D01*
X60809Y-26956D01*
X60690Y-26836D01*
X60533Y-26770D01*
X60363Y-26770D01*
X60206Y-26835D01*
X60086Y-26954D01*
X60020Y-27111D01*
X60020Y-27281D01*
X60085Y-27438D01*
X60204Y-27558D01*
X60361Y-27624D01*
X60531Y-27624D01*
X60688Y-27559D01*
X60808Y-27440D01*
X60874Y-27283D01*
X60874Y-45113D01*
X60809Y-44956D01*
X60690Y-44836D01*
X60620Y-44806D01*
X60620Y-36026D01*
X60620Y-35880D01*
X60564Y-35745D01*
X60461Y-35641D01*
X60325Y-35585D01*
X60179Y-35585D01*
X60044Y-35641D01*
X59940Y-35744D01*
X59884Y-35880D01*
X59884Y-36026D01*
X59940Y-36161D01*
X60043Y-36265D01*
X60179Y-36321D01*
X60325Y-36321D01*
X60460Y-36265D01*
X60564Y-36162D01*
X60620Y-36026D01*
X60620Y-44806D01*
X60533Y-44770D01*
X60363Y-44770D01*
X60206Y-44835D01*
X60086Y-44954D01*
X60020Y-45111D01*
X60020Y-45281D01*
X60085Y-45438D01*
X60204Y-45558D01*
X60361Y-45624D01*
X60531Y-45624D01*
X60688Y-45559D01*
X60808Y-45440D01*
X60874Y-45283D01*
X60874Y-46113D01*
X60809Y-45956D01*
X60690Y-45836D01*
X60533Y-45770D01*
X60363Y-45770D01*
X60206Y-45835D01*
X60086Y-45954D01*
X60020Y-46111D01*
X60020Y-46281D01*
X60085Y-46438D01*
X60204Y-46558D01*
X60361Y-46624D01*
X60531Y-46624D01*
X60688Y-46559D01*
X60808Y-46440D01*
X60874Y-46283D01*
X60874Y-46703D01*
X59874Y-46703D01*
X59874Y-46283D01*
X59874Y-46113D01*
X59874Y-45283D01*
X59874Y-45113D01*
X59874Y-27283D01*
X59874Y-27113D01*
X59809Y-26956D01*
X59690Y-26836D01*
X59533Y-26770D01*
X59363Y-26770D01*
X59206Y-26835D01*
X59086Y-26954D01*
X59020Y-27111D01*
X59020Y-27281D01*
X59085Y-27438D01*
X59204Y-27558D01*
X59361Y-27624D01*
X59531Y-27624D01*
X59688Y-27559D01*
X59808Y-27440D01*
X59874Y-27283D01*
X59874Y-45113D01*
X59809Y-44956D01*
X59690Y-44836D01*
X59608Y-44801D01*
X59608Y-36341D01*
X59608Y-36250D01*
X59573Y-36165D01*
X59509Y-36101D01*
X59424Y-36065D01*
X59333Y-36065D01*
X59248Y-36100D01*
X59184Y-36164D01*
X59148Y-36249D01*
X59148Y-36340D01*
X59183Y-36425D01*
X59247Y-36489D01*
X59332Y-36525D01*
X59423Y-36525D01*
X59508Y-36490D01*
X59572Y-36426D01*
X59608Y-36341D01*
X59608Y-44801D01*
X59533Y-44770D01*
X59517Y-44770D01*
X59517Y-36959D01*
X59517Y-36868D01*
X59482Y-36783D01*
X59418Y-36719D01*
X59333Y-36683D01*
X59242Y-36683D01*
X59157Y-36718D01*
X59093Y-36782D01*
X59060Y-36859D01*
X59060Y-32020D01*
X59040Y-31917D01*
X58981Y-31830D01*
X58894Y-31771D01*
X58874Y-31767D01*
X58874Y-27283D01*
X58874Y-27113D01*
X58809Y-26956D01*
X58690Y-26836D01*
X58533Y-26770D01*
X58363Y-26770D01*
X58206Y-26835D01*
X58086Y-26954D01*
X58020Y-27111D01*
X58020Y-27281D01*
X58085Y-27438D01*
X58204Y-27558D01*
X58361Y-27624D01*
X58531Y-27624D01*
X58688Y-27559D01*
X58808Y-27440D01*
X58874Y-27283D01*
X58874Y-31767D01*
X58791Y-31751D01*
X58787Y-31751D01*
X58684Y-31771D01*
X58597Y-31830D01*
X58538Y-31917D01*
X58518Y-32020D01*
X58538Y-32123D01*
X58597Y-32210D01*
X58684Y-32269D01*
X58787Y-32289D01*
X58791Y-32289D01*
X58894Y-32269D01*
X58981Y-32210D01*
X59040Y-32123D01*
X59060Y-32020D01*
X59060Y-36859D01*
X59057Y-36867D01*
X59057Y-36958D01*
X59092Y-37043D01*
X59156Y-37107D01*
X59241Y-37143D01*
X59332Y-37143D01*
X59417Y-37108D01*
X59481Y-37044D01*
X59517Y-36959D01*
X59517Y-44770D01*
X59363Y-44770D01*
X59281Y-44803D01*
X59281Y-37700D01*
X59281Y-37609D01*
X59246Y-37524D01*
X59182Y-37460D01*
X59097Y-37424D01*
X59006Y-37424D01*
X58921Y-37459D01*
X58857Y-37523D01*
X58821Y-37608D01*
X58821Y-37699D01*
X58856Y-37784D01*
X58920Y-37848D01*
X59005Y-37884D01*
X59096Y-37884D01*
X59181Y-37849D01*
X59245Y-37785D01*
X59281Y-37700D01*
X59281Y-44803D01*
X59206Y-44835D01*
X59120Y-44920D01*
X59120Y-39306D01*
X59120Y-39215D01*
X59085Y-39130D01*
X59021Y-39066D01*
X58936Y-39030D01*
X58845Y-39030D01*
X58760Y-39065D01*
X58696Y-39129D01*
X58660Y-39214D01*
X58660Y-39305D01*
X58695Y-39390D01*
X58759Y-39454D01*
X58844Y-39490D01*
X58935Y-39490D01*
X59020Y-39455D01*
X59084Y-39391D01*
X59120Y-39306D01*
X59120Y-44920D01*
X59086Y-44954D01*
X59020Y-45111D01*
X59020Y-45281D01*
X59085Y-45438D01*
X59204Y-45558D01*
X59361Y-45624D01*
X59531Y-45624D01*
X59688Y-45559D01*
X59808Y-45440D01*
X59874Y-45283D01*
X59874Y-46113D01*
X59809Y-45956D01*
X59690Y-45836D01*
X59533Y-45770D01*
X59363Y-45770D01*
X59206Y-45835D01*
X59086Y-45954D01*
X59020Y-46111D01*
X59020Y-46281D01*
X59085Y-46438D01*
X59204Y-46558D01*
X59361Y-46624D01*
X59531Y-46624D01*
X59688Y-46559D01*
X59808Y-46440D01*
X59874Y-46283D01*
X59874Y-46703D01*
X58874Y-46703D01*
X58874Y-46283D01*
X58874Y-46113D01*
X58874Y-45283D01*
X58874Y-45113D01*
X58809Y-44956D01*
X58690Y-44836D01*
X58533Y-44770D01*
X58363Y-44770D01*
X58206Y-44835D01*
X58086Y-44954D01*
X58020Y-45111D01*
X58020Y-45281D01*
X58085Y-45438D01*
X58204Y-45558D01*
X58361Y-45624D01*
X58531Y-45624D01*
X58688Y-45559D01*
X58808Y-45440D01*
X58874Y-45283D01*
X58874Y-46113D01*
X58809Y-45956D01*
X58690Y-45836D01*
X58533Y-45770D01*
X58363Y-45770D01*
X58206Y-45835D01*
X58086Y-45954D01*
X58020Y-46111D01*
X58020Y-46281D01*
X58085Y-46438D01*
X58204Y-46558D01*
X58361Y-46624D01*
X58531Y-46624D01*
X58688Y-46559D01*
X58808Y-46440D01*
X58874Y-46283D01*
X58874Y-46703D01*
X57874Y-46703D01*
X57874Y-46283D01*
X57874Y-46113D01*
X57874Y-45283D01*
X57874Y-45113D01*
X57874Y-27283D01*
X57874Y-27113D01*
X57809Y-26956D01*
X57690Y-26836D01*
X57533Y-26770D01*
X57363Y-26770D01*
X57206Y-26835D01*
X57086Y-26954D01*
X57020Y-27111D01*
X57020Y-27281D01*
X57085Y-27438D01*
X57204Y-27558D01*
X57361Y-27624D01*
X57531Y-27624D01*
X57688Y-27559D01*
X57808Y-27440D01*
X57874Y-27283D01*
X57874Y-45113D01*
X57809Y-44956D01*
X57690Y-44836D01*
X57533Y-44770D01*
X57363Y-44770D01*
X57206Y-44835D01*
X57086Y-44954D01*
X57020Y-45111D01*
X57020Y-45281D01*
X57085Y-45438D01*
X57204Y-45558D01*
X57361Y-45624D01*
X57531Y-45624D01*
X57688Y-45559D01*
X57808Y-45440D01*
X57874Y-45283D01*
X57874Y-46113D01*
X57809Y-45956D01*
X57690Y-45836D01*
X57533Y-45770D01*
X57363Y-45770D01*
X57206Y-45835D01*
X57086Y-45954D01*
X57020Y-46111D01*
X57020Y-46281D01*
X57085Y-46438D01*
X57204Y-46558D01*
X57361Y-46624D01*
X57531Y-46624D01*
X57688Y-46559D01*
X57808Y-46440D01*
X57874Y-46283D01*
X57874Y-46703D01*
X56874Y-46703D01*
X56874Y-46283D01*
X56874Y-46113D01*
X56874Y-45283D01*
X56874Y-45113D01*
X56874Y-27283D01*
X56874Y-27113D01*
X56809Y-26956D01*
X56690Y-26836D01*
X56533Y-26770D01*
X56363Y-26770D01*
X56206Y-26835D01*
X56086Y-26954D01*
X56020Y-27111D01*
X56020Y-27281D01*
X56085Y-27438D01*
X56204Y-27558D01*
X56361Y-27624D01*
X56531Y-27624D01*
X56688Y-27559D01*
X56808Y-27440D01*
X56874Y-27283D01*
X56874Y-45113D01*
X56809Y-44956D01*
X56690Y-44836D01*
X56533Y-44770D01*
X56498Y-44770D01*
X56498Y-44459D01*
X56498Y-44368D01*
X56463Y-44283D01*
X56458Y-44278D01*
X56458Y-41896D01*
X56458Y-41805D01*
X56423Y-41720D01*
X56359Y-41656D01*
X56274Y-41620D01*
X56183Y-41620D01*
X56098Y-41655D01*
X56034Y-41719D01*
X55998Y-41804D01*
X55998Y-41895D01*
X56033Y-41980D01*
X56097Y-42044D01*
X56182Y-42080D01*
X56273Y-42080D01*
X56358Y-42045D01*
X56422Y-41981D01*
X56458Y-41896D01*
X56458Y-44278D01*
X56427Y-44247D01*
X56427Y-43333D01*
X56427Y-43242D01*
X56392Y-43157D01*
X56328Y-43093D01*
X56243Y-43057D01*
X56152Y-43057D01*
X56067Y-43092D01*
X56003Y-43156D01*
X55967Y-43241D01*
X55967Y-43332D01*
X56002Y-43417D01*
X56066Y-43481D01*
X56151Y-43517D01*
X56242Y-43517D01*
X56327Y-43482D01*
X56391Y-43418D01*
X56427Y-43333D01*
X56427Y-44247D01*
X56399Y-44219D01*
X56314Y-44183D01*
X56223Y-44183D01*
X56138Y-44218D01*
X56074Y-44282D01*
X56038Y-44367D01*
X56038Y-44458D01*
X56073Y-44543D01*
X56137Y-44607D01*
X56222Y-44643D01*
X56313Y-44643D01*
X56398Y-44608D01*
X56462Y-44544D01*
X56498Y-44459D01*
X56498Y-44770D01*
X56363Y-44770D01*
X56206Y-44835D01*
X56086Y-44954D01*
X56020Y-45111D01*
X56020Y-45281D01*
X56085Y-45438D01*
X56204Y-45558D01*
X56361Y-45624D01*
X56531Y-45624D01*
X56688Y-45559D01*
X56808Y-45440D01*
X56874Y-45283D01*
X56874Y-46113D01*
X56809Y-45956D01*
X56690Y-45836D01*
X56533Y-45770D01*
X56363Y-45770D01*
X56206Y-45835D01*
X56086Y-45954D01*
X56020Y-46111D01*
X56020Y-46281D01*
X56085Y-46438D01*
X56204Y-46558D01*
X56361Y-46624D01*
X56531Y-46624D01*
X56688Y-46559D01*
X56808Y-46440D01*
X56874Y-46283D01*
X56874Y-46703D01*
X55874Y-46703D01*
X55874Y-46283D01*
X55874Y-46113D01*
X55874Y-45283D01*
X55874Y-45113D01*
X55874Y-27283D01*
X55874Y-27113D01*
X55809Y-26956D01*
X55690Y-26836D01*
X55533Y-26770D01*
X55363Y-26770D01*
X55206Y-26835D01*
X55086Y-26954D01*
X55020Y-27111D01*
X55020Y-27281D01*
X55085Y-27438D01*
X55204Y-27558D01*
X55361Y-27624D01*
X55531Y-27624D01*
X55688Y-27559D01*
X55808Y-27440D01*
X55874Y-27283D01*
X55874Y-45113D01*
X55809Y-44956D01*
X55690Y-44836D01*
X55533Y-44770D01*
X55363Y-44770D01*
X55206Y-44835D01*
X55086Y-44954D01*
X55020Y-45111D01*
X55020Y-45281D01*
X55085Y-45438D01*
X55204Y-45558D01*
X55361Y-45624D01*
X55531Y-45624D01*
X55688Y-45559D01*
X55808Y-45440D01*
X55874Y-45283D01*
X55874Y-46113D01*
X55809Y-45956D01*
X55690Y-45836D01*
X55533Y-45770D01*
X55363Y-45770D01*
X55206Y-45835D01*
X55086Y-45954D01*
X55020Y-46111D01*
X55020Y-46281D01*
X55085Y-46438D01*
X55204Y-46558D01*
X55361Y-46624D01*
X55531Y-46624D01*
X55688Y-46559D01*
X55808Y-46440D01*
X55874Y-46283D01*
X55874Y-46703D01*
X54874Y-46703D01*
X54874Y-46283D01*
X54874Y-46113D01*
X54874Y-45283D01*
X54874Y-45113D01*
X54874Y-27283D01*
X54874Y-27113D01*
X54809Y-26956D01*
X54690Y-26836D01*
X54533Y-26770D01*
X54363Y-26770D01*
X54206Y-26835D01*
X54086Y-26954D01*
X54020Y-27111D01*
X54020Y-27281D01*
X54085Y-27438D01*
X54204Y-27558D01*
X54361Y-27624D01*
X54531Y-27624D01*
X54688Y-27559D01*
X54808Y-27440D01*
X54874Y-27283D01*
X54874Y-45113D01*
X54809Y-44956D01*
X54690Y-44836D01*
X54533Y-44770D01*
X54478Y-44770D01*
X54478Y-29755D01*
X54478Y-29607D01*
X54421Y-29470D01*
X54317Y-29366D01*
X54180Y-29309D01*
X54032Y-29309D01*
X53895Y-29366D01*
X53874Y-29387D01*
X53874Y-27283D01*
X53874Y-27113D01*
X53809Y-26956D01*
X53690Y-26836D01*
X53533Y-26770D01*
X53363Y-26770D01*
X53206Y-26835D01*
X53086Y-26954D01*
X53020Y-27111D01*
X53020Y-27281D01*
X53085Y-27438D01*
X53204Y-27558D01*
X53361Y-27624D01*
X53531Y-27624D01*
X53688Y-27559D01*
X53808Y-27440D01*
X53874Y-27283D01*
X53874Y-29387D01*
X53791Y-29470D01*
X53734Y-29607D01*
X53734Y-29755D01*
X53791Y-29892D01*
X53895Y-29996D01*
X54032Y-30053D01*
X54180Y-30053D01*
X54317Y-29996D01*
X54421Y-29892D01*
X54478Y-29755D01*
X54478Y-44770D01*
X54363Y-44770D01*
X54206Y-44835D01*
X54086Y-44954D01*
X54020Y-45111D01*
X54020Y-45281D01*
X54085Y-45438D01*
X54204Y-45558D01*
X54361Y-45624D01*
X54531Y-45624D01*
X54688Y-45559D01*
X54808Y-45440D01*
X54874Y-45283D01*
X54874Y-46113D01*
X54809Y-45956D01*
X54690Y-45836D01*
X54533Y-45770D01*
X54363Y-45770D01*
X54206Y-45835D01*
X54086Y-45954D01*
X54020Y-46111D01*
X54020Y-46281D01*
X54085Y-46438D01*
X54204Y-46558D01*
X54361Y-46624D01*
X54531Y-46624D01*
X54688Y-46559D01*
X54808Y-46440D01*
X54874Y-46283D01*
X54874Y-46703D01*
X53874Y-46703D01*
X53874Y-46283D01*
X53874Y-46113D01*
X53874Y-45283D01*
X53874Y-45113D01*
X53809Y-44956D01*
X53690Y-44836D01*
X53533Y-44770D01*
X53476Y-44770D01*
X53476Y-29718D01*
X53462Y-29574D01*
X53433Y-29505D01*
X53372Y-29486D01*
X53301Y-29557D01*
X53301Y-29415D01*
X53282Y-29354D01*
X53143Y-29311D01*
X52999Y-29325D01*
X52930Y-29354D01*
X52911Y-29415D01*
X53106Y-29610D01*
X53301Y-29415D01*
X53301Y-29557D01*
X53177Y-29681D01*
X53372Y-29876D01*
X53433Y-29857D01*
X53476Y-29718D01*
X53476Y-44770D01*
X53363Y-44770D01*
X53301Y-44795D01*
X53301Y-29947D01*
X53106Y-29752D01*
X53035Y-29823D01*
X53035Y-29681D01*
X52874Y-29520D01*
X52874Y-27283D01*
X52874Y-27113D01*
X52809Y-26956D01*
X52690Y-26836D01*
X52533Y-26770D01*
X52363Y-26770D01*
X52206Y-26835D01*
X52086Y-26954D01*
X52020Y-27111D01*
X52020Y-27281D01*
X52085Y-27438D01*
X52204Y-27558D01*
X52361Y-27624D01*
X52531Y-27624D01*
X52688Y-27559D01*
X52808Y-27440D01*
X52874Y-27283D01*
X52874Y-29520D01*
X52840Y-29486D01*
X52779Y-29505D01*
X52736Y-29644D01*
X52750Y-29788D01*
X52779Y-29857D01*
X52840Y-29876D01*
X53035Y-29681D01*
X53035Y-29823D01*
X52911Y-29947D01*
X52930Y-30008D01*
X53069Y-30051D01*
X53213Y-30037D01*
X53282Y-30008D01*
X53301Y-29947D01*
X53301Y-44795D01*
X53206Y-44835D01*
X53086Y-44954D01*
X53020Y-45111D01*
X53020Y-45281D01*
X53085Y-45438D01*
X53204Y-45558D01*
X53361Y-45624D01*
X53531Y-45624D01*
X53688Y-45559D01*
X53808Y-45440D01*
X53874Y-45283D01*
X53874Y-46113D01*
X53809Y-45956D01*
X53690Y-45836D01*
X53533Y-45770D01*
X53363Y-45770D01*
X53206Y-45835D01*
X53086Y-45954D01*
X53020Y-46111D01*
X53020Y-46281D01*
X53085Y-46438D01*
X53204Y-46558D01*
X53361Y-46624D01*
X53531Y-46624D01*
X53688Y-46559D01*
X53808Y-46440D01*
X53874Y-46283D01*
X53874Y-46703D01*
X52874Y-46703D01*
X52874Y-46283D01*
X52874Y-46113D01*
X52874Y-45283D01*
X52874Y-45113D01*
X52809Y-44956D01*
X52690Y-44836D01*
X52533Y-44770D01*
X52478Y-44770D01*
X52478Y-29755D01*
X52478Y-29607D01*
X52421Y-29470D01*
X52317Y-29366D01*
X52180Y-29309D01*
X52032Y-29309D01*
X51895Y-29366D01*
X51874Y-29387D01*
X51874Y-27283D01*
X51874Y-27113D01*
X51809Y-26956D01*
X51690Y-26836D01*
X51533Y-26770D01*
X51363Y-26770D01*
X51206Y-26835D01*
X51086Y-26954D01*
X51020Y-27111D01*
X51020Y-27281D01*
X51085Y-27438D01*
X51204Y-27558D01*
X51361Y-27624D01*
X51531Y-27624D01*
X51688Y-27559D01*
X51808Y-27440D01*
X51874Y-27283D01*
X51874Y-29387D01*
X51791Y-29470D01*
X51734Y-29607D01*
X51734Y-29755D01*
X51791Y-29892D01*
X51895Y-29996D01*
X52032Y-30053D01*
X52180Y-30053D01*
X52317Y-29996D01*
X52421Y-29892D01*
X52478Y-29755D01*
X52478Y-44770D01*
X52363Y-44770D01*
X52206Y-44835D01*
X52086Y-44954D01*
X52020Y-45111D01*
X52020Y-45281D01*
X52085Y-45438D01*
X52204Y-45558D01*
X52361Y-45624D01*
X52531Y-45624D01*
X52688Y-45559D01*
X52808Y-45440D01*
X52874Y-45283D01*
X52874Y-46113D01*
X52809Y-45956D01*
X52690Y-45836D01*
X52533Y-45770D01*
X52363Y-45770D01*
X52206Y-45835D01*
X52086Y-45954D01*
X52020Y-46111D01*
X52020Y-46281D01*
X52085Y-46438D01*
X52204Y-46558D01*
X52361Y-46624D01*
X52531Y-46624D01*
X52688Y-46559D01*
X52808Y-46440D01*
X52874Y-46283D01*
X52874Y-46703D01*
X52435Y-46703D01*
X51874Y-46695D01*
X51874Y-46283D01*
X51874Y-46113D01*
X51874Y-45283D01*
X51874Y-45113D01*
X51809Y-44956D01*
X51690Y-44836D01*
X51533Y-44770D01*
X51478Y-44770D01*
X51478Y-29755D01*
X51478Y-29607D01*
X51421Y-29470D01*
X51317Y-29366D01*
X51180Y-29309D01*
X51032Y-29309D01*
X50895Y-29366D01*
X50874Y-29387D01*
X50874Y-27283D01*
X50874Y-27113D01*
X50809Y-26956D01*
X50690Y-26836D01*
X50533Y-26770D01*
X50363Y-26770D01*
X50206Y-26835D01*
X50086Y-26954D01*
X50020Y-27111D01*
X50020Y-27281D01*
X50085Y-27438D01*
X50204Y-27558D01*
X50361Y-27624D01*
X50531Y-27624D01*
X50688Y-27559D01*
X50808Y-27440D01*
X50874Y-27283D01*
X50874Y-29387D01*
X50791Y-29470D01*
X50734Y-29607D01*
X50734Y-29755D01*
X50791Y-29892D01*
X50895Y-29996D01*
X51032Y-30053D01*
X51180Y-30053D01*
X51317Y-29996D01*
X51421Y-29892D01*
X51478Y-29755D01*
X51478Y-44770D01*
X51363Y-44770D01*
X51206Y-44835D01*
X51086Y-44954D01*
X51020Y-45111D01*
X51020Y-45281D01*
X51085Y-45438D01*
X51204Y-45558D01*
X51361Y-45624D01*
X51531Y-45624D01*
X51688Y-45559D01*
X51808Y-45440D01*
X51874Y-45283D01*
X51874Y-46113D01*
X51809Y-45956D01*
X51690Y-45836D01*
X51533Y-45770D01*
X51363Y-45770D01*
X51206Y-45835D01*
X51086Y-45954D01*
X51020Y-46111D01*
X51020Y-46281D01*
X51085Y-46438D01*
X51204Y-46558D01*
X51361Y-46624D01*
X51531Y-46624D01*
X51688Y-46559D01*
X51808Y-46440D01*
X51874Y-46283D01*
X51874Y-46695D01*
X50874Y-46681D01*
X50874Y-46283D01*
X50874Y-46113D01*
X50874Y-45283D01*
X50874Y-45113D01*
X50809Y-44956D01*
X50690Y-44836D01*
X50533Y-44770D01*
X50478Y-44770D01*
X50478Y-29755D01*
X50478Y-29607D01*
X50421Y-29470D01*
X50317Y-29366D01*
X50180Y-29309D01*
X50032Y-29309D01*
X49895Y-29366D01*
X49874Y-29387D01*
X49874Y-27283D01*
X49874Y-27113D01*
X49809Y-26956D01*
X49690Y-26836D01*
X49533Y-26770D01*
X49363Y-26770D01*
X49206Y-26835D01*
X49086Y-26954D01*
X49020Y-27111D01*
X49020Y-27281D01*
X49085Y-27438D01*
X49204Y-27558D01*
X49361Y-27624D01*
X49531Y-27624D01*
X49688Y-27559D01*
X49808Y-27440D01*
X49874Y-27283D01*
X49874Y-29387D01*
X49791Y-29470D01*
X49734Y-29607D01*
X49734Y-29755D01*
X49791Y-29892D01*
X49895Y-29996D01*
X50032Y-30053D01*
X50180Y-30053D01*
X50317Y-29996D01*
X50421Y-29892D01*
X50478Y-29755D01*
X50478Y-44770D01*
X50363Y-44770D01*
X50206Y-44835D01*
X50086Y-44954D01*
X50020Y-45111D01*
X50020Y-45281D01*
X50085Y-45438D01*
X50204Y-45558D01*
X50361Y-45624D01*
X50531Y-45624D01*
X50688Y-45559D01*
X50808Y-45440D01*
X50874Y-45283D01*
X50874Y-46113D01*
X50809Y-45956D01*
X50690Y-45836D01*
X50533Y-45770D01*
X50363Y-45770D01*
X50206Y-45835D01*
X50086Y-45954D01*
X50020Y-46111D01*
X50020Y-46281D01*
X50085Y-46438D01*
X50204Y-46558D01*
X50361Y-46624D01*
X50531Y-46624D01*
X50688Y-46559D01*
X50808Y-46440D01*
X50874Y-46283D01*
X50874Y-46681D01*
X49874Y-46667D01*
X49874Y-46283D01*
X49874Y-46113D01*
X49874Y-45283D01*
X49874Y-45113D01*
X49809Y-44956D01*
X49690Y-44836D01*
X49533Y-44770D01*
X49478Y-44770D01*
X49478Y-29755D01*
X49478Y-29607D01*
X49421Y-29470D01*
X49317Y-29366D01*
X49180Y-29309D01*
X49032Y-29309D01*
X48895Y-29366D01*
X48874Y-29387D01*
X48874Y-27283D01*
X48874Y-27113D01*
X48809Y-26956D01*
X48690Y-26836D01*
X48533Y-26770D01*
X48363Y-26770D01*
X48206Y-26835D01*
X48086Y-26954D01*
X48020Y-27111D01*
X48020Y-27281D01*
X48085Y-27438D01*
X48204Y-27558D01*
X48361Y-27624D01*
X48531Y-27624D01*
X48688Y-27559D01*
X48808Y-27440D01*
X48874Y-27283D01*
X48874Y-29387D01*
X48791Y-29470D01*
X48734Y-29607D01*
X48734Y-29755D01*
X48791Y-29892D01*
X48895Y-29996D01*
X49032Y-30053D01*
X49180Y-30053D01*
X49317Y-29996D01*
X49421Y-29892D01*
X49478Y-29755D01*
X49478Y-44770D01*
X49363Y-44770D01*
X49206Y-44835D01*
X49086Y-44954D01*
X49020Y-45111D01*
X49020Y-45281D01*
X49085Y-45438D01*
X49204Y-45558D01*
X49361Y-45624D01*
X49531Y-45624D01*
X49688Y-45559D01*
X49808Y-45440D01*
X49874Y-45283D01*
X49874Y-46113D01*
X49809Y-45956D01*
X49690Y-45836D01*
X49533Y-45770D01*
X49363Y-45770D01*
X49206Y-45835D01*
X49086Y-45954D01*
X49020Y-46111D01*
X49020Y-46281D01*
X49085Y-46438D01*
X49204Y-46558D01*
X49361Y-46624D01*
X49531Y-46624D01*
X49688Y-46559D01*
X49808Y-46440D01*
X49874Y-46283D01*
X49874Y-46667D01*
X48984Y-46655D01*
X48721Y-46525D01*
X48808Y-46440D01*
X48874Y-46283D01*
X48874Y-46113D01*
X48874Y-45283D01*
X48874Y-45113D01*
X48809Y-44956D01*
X48690Y-44836D01*
X48533Y-44770D01*
X48363Y-44770D01*
X48206Y-44835D01*
X48086Y-44954D01*
X48020Y-45111D01*
X48020Y-45281D01*
X48085Y-45438D01*
X48204Y-45558D01*
X48361Y-45624D01*
X48531Y-45624D01*
X48688Y-45559D01*
X48808Y-45440D01*
X48874Y-45283D01*
X48874Y-46113D01*
X48809Y-45956D01*
X48690Y-45836D01*
X48533Y-45770D01*
X48363Y-45770D01*
X48206Y-45835D01*
X48086Y-45954D01*
X48020Y-46111D01*
X48020Y-46178D01*
X46695Y-45524D01*
X46683Y-45506D01*
X47052Y-45354D01*
X47354Y-45054D01*
X47517Y-44661D01*
X47517Y-44235D01*
X47354Y-43842D01*
X47054Y-43540D01*
X46661Y-43377D01*
X46235Y-43377D01*
X45842Y-43540D01*
X45544Y-43835D01*
X44644Y-42513D01*
X44664Y-31049D01*
X45254Y-28497D01*
X45450Y-28336D01*
X45540Y-28552D01*
X45840Y-28854D01*
X46233Y-29017D01*
X46659Y-29017D01*
X47052Y-28854D01*
X47354Y-28554D01*
X47517Y-28161D01*
X47517Y-27735D01*
X47354Y-27342D01*
X47054Y-27040D01*
X47043Y-27035D01*
X47635Y-26553D01*
X48034Y-26316D01*
X48085Y-26438D01*
X48204Y-26558D01*
X48361Y-26624D01*
X48531Y-26624D01*
X48688Y-26559D01*
X48808Y-26440D01*
X48874Y-26283D01*
X48874Y-26113D01*
X48809Y-25956D01*
X48748Y-25894D01*
X48853Y-25833D01*
X49211Y-25832D01*
X49206Y-25835D01*
X49086Y-25954D01*
X49020Y-26111D01*
X49020Y-26281D01*
X49085Y-26438D01*
X49204Y-26558D01*
X49361Y-26624D01*
X49531Y-26624D01*
X49688Y-26559D01*
X49808Y-26440D01*
X49874Y-26283D01*
X49874Y-26113D01*
X49809Y-25956D01*
X49690Y-25836D01*
X49681Y-25832D01*
X50213Y-25831D01*
X50206Y-25835D01*
X50086Y-25954D01*
X50020Y-26111D01*
X50020Y-26281D01*
X50085Y-26438D01*
X50204Y-26558D01*
X50361Y-26624D01*
X50531Y-26624D01*
X50688Y-26559D01*
X50808Y-26440D01*
X50874Y-26283D01*
X50874Y-26113D01*
X50809Y-25956D01*
X50690Y-25836D01*
X50679Y-25831D01*
X51215Y-25831D01*
X51206Y-25835D01*
X51086Y-25954D01*
X51020Y-26111D01*
X51020Y-26281D01*
X51085Y-26438D01*
X51204Y-26558D01*
X51361Y-26624D01*
X51531Y-26624D01*
X51688Y-26559D01*
X51808Y-26440D01*
X51874Y-26283D01*
X51874Y-26113D01*
X51809Y-25956D01*
X51690Y-25836D01*
X51677Y-25830D01*
X52217Y-25830D01*
X52206Y-25835D01*
X52086Y-25954D01*
X52020Y-26111D01*
X52020Y-26281D01*
X52085Y-26438D01*
X52204Y-26558D01*
X52361Y-26624D01*
X52531Y-26624D01*
X52688Y-26559D01*
X52808Y-26440D01*
X52874Y-26283D01*
X52874Y-26113D01*
X52809Y-25956D01*
X52690Y-25836D01*
X52675Y-25829D01*
X53219Y-25829D01*
X53206Y-25835D01*
X53086Y-25954D01*
X53020Y-26111D01*
X53020Y-26281D01*
X53085Y-26438D01*
X53204Y-26558D01*
X53361Y-26624D01*
X53531Y-26624D01*
X53688Y-26559D01*
X53808Y-26440D01*
X53874Y-26283D01*
X53874Y-26113D01*
X53809Y-25956D01*
X53690Y-25836D01*
X53673Y-25828D01*
X54221Y-25828D01*
X54206Y-25835D01*
X54086Y-25954D01*
X54020Y-26111D01*
X54020Y-26281D01*
X54085Y-26438D01*
X54204Y-26558D01*
X54361Y-26624D01*
X54531Y-26624D01*
X54688Y-26559D01*
X54808Y-26440D01*
X54874Y-26283D01*
X54874Y-26113D01*
X54809Y-25956D01*
X54690Y-25836D01*
X54671Y-25828D01*
X55223Y-25827D01*
X55206Y-25835D01*
X55086Y-25954D01*
X55020Y-26111D01*
X55020Y-26281D01*
X55085Y-26438D01*
X55204Y-26558D01*
X55361Y-26624D01*
X55531Y-26624D01*
X55688Y-26559D01*
X55808Y-26440D01*
X55874Y-26283D01*
X55874Y-26113D01*
X55809Y-25956D01*
X55690Y-25836D01*
X55669Y-25827D01*
X56225Y-25826D01*
X56206Y-25835D01*
X56086Y-25954D01*
X56020Y-26111D01*
X56020Y-26281D01*
X56085Y-26438D01*
X56204Y-26558D01*
X56361Y-26624D01*
X56531Y-26624D01*
X56688Y-26559D01*
X56808Y-26440D01*
X56874Y-26283D01*
X56874Y-26113D01*
X56809Y-25956D01*
X56690Y-25836D01*
X56667Y-25826D01*
X57227Y-25825D01*
X57206Y-25835D01*
X57086Y-25954D01*
X57020Y-26111D01*
X57020Y-26281D01*
X57085Y-26438D01*
X57204Y-26558D01*
X57361Y-26624D01*
X57531Y-26624D01*
X57688Y-26559D01*
X57808Y-26440D01*
X57874Y-26283D01*
X57874Y-26113D01*
X57809Y-25956D01*
X57690Y-25836D01*
X57665Y-25825D01*
X58229Y-25825D01*
X58206Y-25835D01*
X58086Y-25954D01*
X58020Y-26111D01*
X58020Y-26281D01*
X58085Y-26438D01*
X58204Y-26558D01*
X58361Y-26624D01*
X58531Y-26624D01*
X58688Y-26559D01*
X58808Y-26440D01*
X58874Y-26283D01*
X58874Y-26113D01*
X58809Y-25956D01*
X58690Y-25836D01*
X58663Y-25824D01*
X59231Y-25824D01*
X59206Y-25835D01*
X59086Y-25954D01*
X59020Y-26111D01*
X59020Y-26281D01*
X59085Y-26438D01*
X59204Y-26558D01*
X59361Y-26624D01*
X59531Y-26624D01*
X59688Y-26559D01*
X59808Y-26440D01*
X59874Y-26283D01*
X59874Y-26113D01*
X59809Y-25956D01*
X59690Y-25836D01*
X59661Y-25823D01*
X60233Y-25823D01*
X60206Y-25835D01*
X60086Y-25954D01*
X60020Y-26111D01*
X60020Y-26281D01*
X60085Y-26438D01*
X60204Y-26558D01*
X60361Y-26624D01*
X60531Y-26624D01*
X60688Y-26559D01*
X60808Y-26440D01*
X60874Y-26283D01*
X60874Y-26113D01*
X60809Y-25956D01*
X60690Y-25836D01*
X60659Y-25823D01*
X61235Y-25822D01*
X61206Y-25835D01*
X61086Y-25954D01*
X61020Y-26111D01*
X61020Y-26281D01*
X61085Y-26438D01*
X61204Y-26558D01*
X61361Y-26624D01*
X61531Y-26624D01*
X61688Y-26559D01*
X61808Y-26440D01*
X61874Y-26283D01*
X61874Y-26113D01*
X61809Y-25956D01*
X61690Y-25836D01*
X61657Y-25822D01*
X62237Y-25821D01*
X62206Y-25835D01*
X62086Y-25954D01*
X62020Y-26111D01*
X62020Y-26281D01*
X62085Y-26438D01*
X62204Y-26558D01*
X62361Y-26624D01*
X62531Y-26624D01*
X62688Y-26559D01*
X62808Y-26440D01*
X62874Y-26283D01*
X62874Y-26113D01*
X62809Y-25956D01*
X62690Y-25836D01*
X62655Y-25821D01*
X63239Y-25820D01*
X63206Y-25835D01*
X63086Y-25954D01*
X63020Y-26111D01*
X63020Y-26281D01*
X63085Y-26438D01*
X63204Y-26558D01*
X63361Y-26624D01*
X63531Y-26624D01*
X63688Y-26559D01*
X63808Y-26440D01*
X63874Y-26283D01*
X63874Y-26113D01*
X63809Y-25956D01*
X63690Y-25836D01*
X63653Y-25820D01*
X64242Y-25820D01*
X64206Y-25835D01*
X64086Y-25954D01*
X64020Y-26111D01*
X64020Y-26281D01*
X64085Y-26438D01*
X64204Y-26558D01*
X64361Y-26624D01*
X64531Y-26624D01*
X64688Y-26559D01*
X64808Y-26440D01*
X64874Y-26283D01*
X64874Y-26113D01*
X64809Y-25956D01*
X64690Y-25836D01*
X64651Y-25819D01*
X65244Y-25819D01*
X65206Y-25835D01*
X65086Y-25954D01*
X65020Y-26111D01*
X65020Y-26281D01*
X65085Y-26438D01*
X65204Y-26558D01*
X65361Y-26624D01*
X65531Y-26624D01*
X65688Y-26559D01*
X65808Y-26440D01*
X65874Y-26283D01*
X65874Y-26113D01*
X65809Y-25956D01*
X65690Y-25836D01*
X65649Y-25818D01*
X66246Y-25818D01*
X66206Y-25835D01*
X66086Y-25954D01*
X66020Y-26111D01*
X66020Y-26281D01*
X66085Y-26438D01*
X66204Y-26558D01*
X66361Y-26624D01*
X66531Y-26624D01*
X66688Y-26559D01*
X66808Y-26440D01*
X66874Y-26283D01*
X66874Y-26113D01*
X66809Y-25956D01*
X66690Y-25836D01*
X66647Y-25818D01*
X67248Y-25817D01*
X67206Y-25835D01*
X67086Y-25954D01*
X67020Y-26111D01*
X67020Y-26281D01*
X67085Y-26438D01*
X67204Y-26558D01*
X67361Y-26624D01*
X67531Y-26624D01*
X67688Y-26559D01*
X67808Y-26440D01*
X67874Y-26283D01*
X67874Y-26113D01*
X67809Y-25956D01*
X67690Y-25836D01*
X67645Y-25817D01*
X68250Y-25816D01*
X68206Y-25835D01*
X68086Y-25954D01*
X68020Y-26111D01*
X68020Y-26281D01*
X68085Y-26438D01*
X68204Y-26558D01*
X68361Y-26624D01*
X68531Y-26624D01*
X68688Y-26559D01*
X68808Y-26440D01*
X68874Y-26283D01*
X68874Y-26113D01*
X68809Y-25956D01*
X68690Y-25836D01*
X68643Y-25816D01*
X69252Y-25815D01*
X69206Y-25835D01*
X69086Y-25954D01*
X69020Y-26111D01*
X69020Y-26281D01*
X69085Y-26438D01*
X69204Y-26558D01*
X69361Y-26624D01*
X69531Y-26624D01*
X69688Y-26559D01*
X69808Y-26440D01*
X69874Y-26283D01*
X69874Y-26113D01*
X69809Y-25956D01*
X69690Y-25836D01*
X69641Y-25815D01*
X69960Y-25815D01*
X69951Y-25838D01*
X69951Y-25906D01*
X69951Y-26105D01*
X69993Y-26147D01*
X70347Y-26147D01*
X70397Y-26147D01*
X70497Y-26147D01*
X70547Y-26147D01*
X70901Y-26147D01*
X70943Y-26105D01*
X70943Y-25906D01*
X70943Y-25838D01*
X70933Y-25814D01*
X71500Y-25814D01*
X71814Y-25817D01*
X71540Y-26090D01*
X71377Y-26483D01*
X71377Y-26909D01*
X71540Y-27302D01*
X71840Y-27604D01*
X72233Y-27767D01*
X72659Y-27767D01*
X73052Y-27604D01*
X73354Y-27304D01*
X73517Y-26911D01*
X73517Y-26485D01*
X73354Y-26092D01*
X73093Y-25829D01*
X75907Y-25857D01*
X77176Y-26607D01*
X77588Y-28560D01*
X77588Y-28560D01*
G37*
G54D26*
X77588Y-28560D02*
X77479Y-33169D01*
X75943Y-33150D01*
X75943Y-32306D01*
X75943Y-32238D01*
X75943Y-31588D01*
X75917Y-31525D01*
X75869Y-31477D01*
X75806Y-31451D01*
X75738Y-31451D01*
X75088Y-31451D01*
X75025Y-31477D01*
X74977Y-31525D01*
X74951Y-31588D01*
X74951Y-31656D01*
X74951Y-32306D01*
X74977Y-32369D01*
X75025Y-32417D01*
X75088Y-32443D01*
X75156Y-32443D01*
X75806Y-32443D01*
X75869Y-32417D01*
X75917Y-32369D01*
X75943Y-32306D01*
X75943Y-33150D01*
X75824Y-33149D01*
X75874Y-33033D01*
X75874Y-32863D01*
X75809Y-32706D01*
X75690Y-32586D01*
X75533Y-32520D01*
X75363Y-32520D01*
X75206Y-32585D01*
X75086Y-32704D01*
X75020Y-32861D01*
X75020Y-33031D01*
X75065Y-33141D01*
X74829Y-33138D01*
X74874Y-33033D01*
X74874Y-32863D01*
X74874Y-32033D01*
X74874Y-31863D01*
X74809Y-31706D01*
X74690Y-31586D01*
X74533Y-31520D01*
X74363Y-31520D01*
X74206Y-31585D01*
X74086Y-31704D01*
X74020Y-31861D01*
X74020Y-32031D01*
X74085Y-32188D01*
X74204Y-32308D01*
X74361Y-32374D01*
X74531Y-32374D01*
X74688Y-32309D01*
X74808Y-32190D01*
X74874Y-32033D01*
X74874Y-32863D01*
X74809Y-32706D01*
X74690Y-32586D01*
X74533Y-32520D01*
X74363Y-32520D01*
X74206Y-32585D01*
X74086Y-32704D01*
X74020Y-32861D01*
X74020Y-33031D01*
X74060Y-33129D01*
X73834Y-33126D01*
X73874Y-33033D01*
X73874Y-32863D01*
X73874Y-32033D01*
X73874Y-31863D01*
X73809Y-31706D01*
X73690Y-31586D01*
X73533Y-31520D01*
X73363Y-31520D01*
X73206Y-31585D01*
X73104Y-31686D01*
X73104Y-30392D01*
X73104Y-30246D01*
X73048Y-30111D01*
X72945Y-30007D01*
X72809Y-29951D01*
X72663Y-29951D01*
X72528Y-30007D01*
X72424Y-30110D01*
X72368Y-30246D01*
X72368Y-30392D01*
X72424Y-30527D01*
X72527Y-30631D01*
X72663Y-30687D01*
X72809Y-30687D01*
X72944Y-30631D01*
X73048Y-30528D01*
X73104Y-30392D01*
X73104Y-31686D01*
X73086Y-31704D01*
X73020Y-31861D01*
X73020Y-32031D01*
X73085Y-32188D01*
X73204Y-32308D01*
X73361Y-32374D01*
X73531Y-32374D01*
X73688Y-32309D01*
X73808Y-32190D01*
X73874Y-32033D01*
X73874Y-32863D01*
X73809Y-32706D01*
X73690Y-32586D01*
X73533Y-32520D01*
X73363Y-32520D01*
X73206Y-32585D01*
X73086Y-32704D01*
X73020Y-32861D01*
X73020Y-33031D01*
X73055Y-33117D01*
X72839Y-33115D01*
X72874Y-33033D01*
X72874Y-32863D01*
X72874Y-32033D01*
X72874Y-31863D01*
X72809Y-31706D01*
X72690Y-31586D01*
X72533Y-31520D01*
X72363Y-31520D01*
X72340Y-31529D01*
X72340Y-30384D01*
X72340Y-30238D01*
X72284Y-30103D01*
X72181Y-29999D01*
X72045Y-29943D01*
X71899Y-29943D01*
X71860Y-29959D01*
X71860Y-29888D01*
X71982Y-29888D01*
X72117Y-29832D01*
X72221Y-29729D01*
X72277Y-29593D01*
X72277Y-29447D01*
X72221Y-29312D01*
X72118Y-29208D01*
X71982Y-29152D01*
X71836Y-29152D01*
X71701Y-29208D01*
X71597Y-29311D01*
X71541Y-29447D01*
X71541Y-29569D01*
X71419Y-29569D01*
X71284Y-29625D01*
X71180Y-29728D01*
X71124Y-29864D01*
X71124Y-30010D01*
X71178Y-30141D01*
X71174Y-30137D01*
X71038Y-30081D01*
X70943Y-30081D01*
X70943Y-26556D01*
X70943Y-26488D01*
X70943Y-26289D01*
X70901Y-26247D01*
X70497Y-26247D01*
X70497Y-26651D01*
X70539Y-26693D01*
X70806Y-26693D01*
X70869Y-26667D01*
X70917Y-26619D01*
X70943Y-26556D01*
X70943Y-30081D01*
X70892Y-30081D01*
X70871Y-30089D01*
X70871Y-27247D01*
X70857Y-27081D01*
X70820Y-26988D01*
X70752Y-26963D01*
X70681Y-27034D01*
X70681Y-26892D01*
X70656Y-26824D01*
X70497Y-26773D01*
X70397Y-26781D01*
X70397Y-26651D01*
X70397Y-26247D01*
X69993Y-26247D01*
X69951Y-26289D01*
X69951Y-26488D01*
X69951Y-26556D01*
X69977Y-26619D01*
X70025Y-26667D01*
X70088Y-26693D01*
X70355Y-26693D01*
X70397Y-26651D01*
X70397Y-26781D01*
X70331Y-26787D01*
X70238Y-26824D01*
X70213Y-26892D01*
X70447Y-27126D01*
X70681Y-26892D01*
X70681Y-27034D01*
X70518Y-27197D01*
X70752Y-27431D01*
X70820Y-27406D01*
X70871Y-27247D01*
X70871Y-30089D01*
X70757Y-30137D01*
X70681Y-30212D01*
X70681Y-27502D01*
X70447Y-27268D01*
X70376Y-27339D01*
X70376Y-27197D01*
X70142Y-26963D01*
X70074Y-26988D01*
X70023Y-27147D01*
X70037Y-27313D01*
X70074Y-27406D01*
X70142Y-27431D01*
X70376Y-27197D01*
X70376Y-27339D01*
X70213Y-27502D01*
X70238Y-27570D01*
X70397Y-27621D01*
X70563Y-27607D01*
X70656Y-27570D01*
X70681Y-27502D01*
X70681Y-30212D01*
X70653Y-30240D01*
X70597Y-30376D01*
X70597Y-30522D01*
X70653Y-30657D01*
X70756Y-30761D01*
X70892Y-30817D01*
X71038Y-30817D01*
X71173Y-30761D01*
X71277Y-30658D01*
X71333Y-30522D01*
X71333Y-30376D01*
X71278Y-30244D01*
X71283Y-30249D01*
X71419Y-30305D01*
X71565Y-30305D01*
X71604Y-30288D01*
X71604Y-30384D01*
X71660Y-30519D01*
X71763Y-30623D01*
X71899Y-30679D01*
X72045Y-30679D01*
X72180Y-30623D01*
X72284Y-30520D01*
X72340Y-30384D01*
X72340Y-31529D01*
X72206Y-31585D01*
X72086Y-31704D01*
X72020Y-31861D01*
X72020Y-32031D01*
X72085Y-32188D01*
X72204Y-32308D01*
X72361Y-32374D01*
X72531Y-32374D01*
X72688Y-32309D01*
X72808Y-32190D01*
X72874Y-32033D01*
X72874Y-32863D01*
X72809Y-32706D01*
X72690Y-32586D01*
X72533Y-32520D01*
X72363Y-32520D01*
X72206Y-32585D01*
X72086Y-32704D01*
X72020Y-32861D01*
X72020Y-33031D01*
X72051Y-33106D01*
X71844Y-33103D01*
X71874Y-33033D01*
X71874Y-32863D01*
X71874Y-32033D01*
X71874Y-31863D01*
X71809Y-31706D01*
X71690Y-31586D01*
X71533Y-31520D01*
X71363Y-31520D01*
X71206Y-31585D01*
X71086Y-31704D01*
X71020Y-31861D01*
X71020Y-32031D01*
X71085Y-32188D01*
X71204Y-32308D01*
X71361Y-32374D01*
X71531Y-32374D01*
X71688Y-32309D01*
X71808Y-32190D01*
X71874Y-32033D01*
X71874Y-32863D01*
X71809Y-32706D01*
X71690Y-32586D01*
X71533Y-32520D01*
X71363Y-32520D01*
X71206Y-32585D01*
X71086Y-32704D01*
X71020Y-32861D01*
X71020Y-33031D01*
X71046Y-33094D01*
X70118Y-33084D01*
X69874Y-33324D01*
X69874Y-27283D01*
X69874Y-27113D01*
X69809Y-26956D01*
X69690Y-26836D01*
X69533Y-26770D01*
X69363Y-26770D01*
X69206Y-26835D01*
X69086Y-26954D01*
X69020Y-27111D01*
X69020Y-27281D01*
X69085Y-27438D01*
X69204Y-27558D01*
X69361Y-27624D01*
X69531Y-27624D01*
X69688Y-27559D01*
X69808Y-27440D01*
X69874Y-27283D01*
X69874Y-33324D01*
X69777Y-33420D01*
X69777Y-40890D01*
X69777Y-41042D01*
X70647Y-41386D01*
X71179Y-41591D01*
X70690Y-41237D01*
X70430Y-41116D01*
X75085Y-41116D01*
X75205Y-46690D01*
X72820Y-46699D01*
X73052Y-46604D01*
X73354Y-46304D01*
X73517Y-45911D01*
X73517Y-45485D01*
X73354Y-45092D01*
X73054Y-44790D01*
X72661Y-44627D01*
X72235Y-44627D01*
X71842Y-44790D01*
X71540Y-45090D01*
X71377Y-45483D01*
X71377Y-45909D01*
X71540Y-46302D01*
X71840Y-46604D01*
X72078Y-46702D01*
X72051Y-46703D01*
X70943Y-46703D01*
X70943Y-45556D01*
X70943Y-45488D01*
X70943Y-45289D01*
X70943Y-45105D01*
X70943Y-44906D01*
X70943Y-44838D01*
X70917Y-44775D01*
X70869Y-44727D01*
X70806Y-44701D01*
X70539Y-44701D01*
X70497Y-44743D01*
X70497Y-45147D01*
X70901Y-45147D01*
X70943Y-45105D01*
X70943Y-45289D01*
X70901Y-45247D01*
X70497Y-45247D01*
X70497Y-45651D01*
X70539Y-45693D01*
X70806Y-45693D01*
X70869Y-45667D01*
X70917Y-45619D01*
X70943Y-45556D01*
X70943Y-46703D01*
X70871Y-46703D01*
X70871Y-46247D01*
X70857Y-46081D01*
X70820Y-45988D01*
X70752Y-45963D01*
X70681Y-46034D01*
X70681Y-45892D01*
X70656Y-45824D01*
X70497Y-45773D01*
X70397Y-45781D01*
X70397Y-45651D01*
X70397Y-45247D01*
X70397Y-45147D01*
X70397Y-44743D01*
X70355Y-44701D01*
X70088Y-44701D01*
X70025Y-44727D01*
X69977Y-44775D01*
X69951Y-44838D01*
X69951Y-44906D01*
X69951Y-45105D01*
X69993Y-45147D01*
X70397Y-45147D01*
X70397Y-45247D01*
X69993Y-45247D01*
X69951Y-45289D01*
X69951Y-45488D01*
X69951Y-45556D01*
X69977Y-45619D01*
X70025Y-45667D01*
X70088Y-45693D01*
X70355Y-45693D01*
X70397Y-45651D01*
X70397Y-45781D01*
X70331Y-45787D01*
X70238Y-45824D01*
X70213Y-45892D01*
X70447Y-46126D01*
X70681Y-45892D01*
X70681Y-46034D01*
X70518Y-46197D01*
X70752Y-46431D01*
X70820Y-46406D01*
X70871Y-46247D01*
X70871Y-46703D01*
X70681Y-46703D01*
X70681Y-46502D01*
X70447Y-46268D01*
X70376Y-46339D01*
X70376Y-46197D01*
X70142Y-45963D01*
X70074Y-45988D01*
X70023Y-46147D01*
X70037Y-46313D01*
X70074Y-46406D01*
X70142Y-46431D01*
X70376Y-46197D01*
X70376Y-46339D01*
X70213Y-46502D01*
X70238Y-46570D01*
X70397Y-46621D01*
X70563Y-46607D01*
X70656Y-46570D01*
X70681Y-46502D01*
X70681Y-46703D01*
X69874Y-46703D01*
X69874Y-46283D01*
X69874Y-46113D01*
X69874Y-45283D01*
X69874Y-45113D01*
X69809Y-44956D01*
X69690Y-44836D01*
X69533Y-44770D01*
X69376Y-44770D01*
X69376Y-36307D01*
X69376Y-36175D01*
X69376Y-35307D01*
X69376Y-35175D01*
X69376Y-34307D01*
X69376Y-34175D01*
X69344Y-34096D01*
X69344Y-29668D01*
X69344Y-29577D01*
X69309Y-29492D01*
X69245Y-29428D01*
X69180Y-29400D01*
X69178Y-29399D01*
X69175Y-29398D01*
X69160Y-29392D01*
X69145Y-29392D01*
X69094Y-29381D01*
X69089Y-29382D01*
X68874Y-29382D01*
X68874Y-27283D01*
X68874Y-27113D01*
X68809Y-26956D01*
X68690Y-26836D01*
X68533Y-26770D01*
X68363Y-26770D01*
X68206Y-26835D01*
X68086Y-26954D01*
X68020Y-27111D01*
X68020Y-27281D01*
X68085Y-27438D01*
X68204Y-27558D01*
X68361Y-27624D01*
X68531Y-27624D01*
X68688Y-27559D01*
X68808Y-27440D01*
X68874Y-27283D01*
X68874Y-29382D01*
X67976Y-29382D01*
X68132Y-29226D01*
X68155Y-29226D01*
X68240Y-29191D01*
X68304Y-29127D01*
X68340Y-29042D01*
X68340Y-28951D01*
X68305Y-28866D01*
X68241Y-28802D01*
X68156Y-28766D01*
X68065Y-28766D01*
X68033Y-28779D01*
X68030Y-28780D01*
X67967Y-28793D01*
X67895Y-28840D01*
X67893Y-28842D01*
X67874Y-28860D01*
X67874Y-27283D01*
X67874Y-27113D01*
X67809Y-26956D01*
X67690Y-26836D01*
X67533Y-26770D01*
X67363Y-26770D01*
X67206Y-26835D01*
X67086Y-26954D01*
X67020Y-27111D01*
X67020Y-27281D01*
X67085Y-27438D01*
X67204Y-27558D01*
X67361Y-27624D01*
X67531Y-27624D01*
X67688Y-27559D01*
X67808Y-27440D01*
X67874Y-27283D01*
X67874Y-28860D01*
X67569Y-29165D01*
X67547Y-29175D01*
X67483Y-29239D01*
X67447Y-29324D01*
X67447Y-29392D01*
X67417Y-29399D01*
X67345Y-29446D01*
X67343Y-29448D01*
X67071Y-29720D01*
X67071Y-29635D01*
X67071Y-28967D01*
X67053Y-28875D01*
X67001Y-28797D01*
X66998Y-28795D01*
X66874Y-28670D01*
X66874Y-27283D01*
X66874Y-27113D01*
X66809Y-26956D01*
X66690Y-26836D01*
X66533Y-26770D01*
X66363Y-26770D01*
X66206Y-26835D01*
X66086Y-26954D01*
X66020Y-27111D01*
X66020Y-27281D01*
X66085Y-27438D01*
X66204Y-27558D01*
X66361Y-27624D01*
X66531Y-27624D01*
X66688Y-27559D01*
X66808Y-27440D01*
X66874Y-27283D01*
X66874Y-28670D01*
X66814Y-28610D01*
X66736Y-28558D01*
X66644Y-28540D01*
X66552Y-28558D01*
X66474Y-28610D01*
X66422Y-28688D01*
X66404Y-28780D01*
X66416Y-28846D01*
X66354Y-28872D01*
X66290Y-28936D01*
X66254Y-29021D01*
X66254Y-29071D01*
X65874Y-29071D01*
X65874Y-27283D01*
X65874Y-27113D01*
X65809Y-26956D01*
X65690Y-26836D01*
X65533Y-26770D01*
X65363Y-26770D01*
X65206Y-26835D01*
X65086Y-26954D01*
X65020Y-27111D01*
X65020Y-27281D01*
X65085Y-27438D01*
X65204Y-27558D01*
X65361Y-27624D01*
X65531Y-27624D01*
X65688Y-27559D01*
X65808Y-27440D01*
X65874Y-27283D01*
X65874Y-29071D01*
X65246Y-29071D01*
X65223Y-29061D01*
X65132Y-29061D01*
X65047Y-29096D01*
X64983Y-29160D01*
X64947Y-29245D01*
X64947Y-29336D01*
X64982Y-29421D01*
X64985Y-29424D01*
X64983Y-29426D01*
X64947Y-29511D01*
X64947Y-29602D01*
X64982Y-29687D01*
X65046Y-29751D01*
X65131Y-29787D01*
X65222Y-29787D01*
X65246Y-29777D01*
X66349Y-29777D01*
X65922Y-30204D01*
X65870Y-30282D01*
X65852Y-30374D01*
X65852Y-30817D01*
X65870Y-30909D01*
X65922Y-30987D01*
X66444Y-31509D01*
X66522Y-31561D01*
X66614Y-31579D01*
X66706Y-31561D01*
X66784Y-31509D01*
X66836Y-31431D01*
X66844Y-31385D01*
X66854Y-31339D01*
X66836Y-31247D01*
X66784Y-31169D01*
X66666Y-31051D01*
X66728Y-31026D01*
X66792Y-30962D01*
X66828Y-30877D01*
X66828Y-30786D01*
X66793Y-30701D01*
X66729Y-30637D01*
X66644Y-30601D01*
X66553Y-30601D01*
X66468Y-30636D01*
X66404Y-30700D01*
X66377Y-30762D01*
X66332Y-30717D01*
X66332Y-30474D01*
X67001Y-29805D01*
X67053Y-29727D01*
X67071Y-29635D01*
X67071Y-29720D01*
X67068Y-29723D01*
X67021Y-29795D01*
X67003Y-29879D01*
X67004Y-29883D01*
X67004Y-30030D01*
X67003Y-30035D01*
X67021Y-30119D01*
X67068Y-30191D01*
X67267Y-30389D01*
X67277Y-30413D01*
X67341Y-30477D01*
X67426Y-30513D01*
X67517Y-30513D01*
X67602Y-30478D01*
X67666Y-30414D01*
X67702Y-30329D01*
X67702Y-30238D01*
X67748Y-30238D01*
X68266Y-30756D01*
X68266Y-32110D01*
X68286Y-32213D01*
X68345Y-32300D01*
X68432Y-32359D01*
X68535Y-32379D01*
X68638Y-32359D01*
X68725Y-32300D01*
X68784Y-32213D01*
X68804Y-32110D01*
X68804Y-30645D01*
X68784Y-30542D01*
X68725Y-30455D01*
X68092Y-29822D01*
X68997Y-29822D01*
X69068Y-29852D01*
X69159Y-29852D01*
X69244Y-29817D01*
X69308Y-29753D01*
X69344Y-29668D01*
X69344Y-34096D01*
X69326Y-34053D01*
X69233Y-33960D01*
X69112Y-33909D01*
X68980Y-33909D01*
X68858Y-33959D01*
X68765Y-34052D01*
X68714Y-34173D01*
X68714Y-34305D01*
X68764Y-34427D01*
X68857Y-34520D01*
X68978Y-34571D01*
X69110Y-34571D01*
X69232Y-34521D01*
X69325Y-34428D01*
X69376Y-34307D01*
X69376Y-35175D01*
X69326Y-35053D01*
X69233Y-34960D01*
X69112Y-34909D01*
X68980Y-34909D01*
X68858Y-34959D01*
X68765Y-35052D01*
X68714Y-35173D01*
X68714Y-35305D01*
X68764Y-35427D01*
X68857Y-35520D01*
X68978Y-35571D01*
X69110Y-35571D01*
X69232Y-35521D01*
X69325Y-35428D01*
X69376Y-35307D01*
X69376Y-36175D01*
X69326Y-36053D01*
X69233Y-35960D01*
X69112Y-35909D01*
X68980Y-35909D01*
X68858Y-35959D01*
X68765Y-36052D01*
X68714Y-36173D01*
X68714Y-36305D01*
X68760Y-36418D01*
X68756Y-36418D01*
X68747Y-36419D01*
X66137Y-33808D01*
X65986Y-33707D01*
X65807Y-33671D01*
X65802Y-33672D01*
X65411Y-33672D01*
X65411Y-30873D01*
X65411Y-30782D01*
X65376Y-30697D01*
X65312Y-30633D01*
X65227Y-30597D01*
X65136Y-30597D01*
X65051Y-30632D01*
X64987Y-30696D01*
X64951Y-30781D01*
X64951Y-30872D01*
X64986Y-30957D01*
X65050Y-31021D01*
X65135Y-31057D01*
X65226Y-31057D01*
X65311Y-31022D01*
X65375Y-30958D01*
X65411Y-30873D01*
X65411Y-33672D01*
X64874Y-33672D01*
X64874Y-27283D01*
X64874Y-27113D01*
X64809Y-26956D01*
X64690Y-26836D01*
X64533Y-26770D01*
X64363Y-26770D01*
X64206Y-26835D01*
X64086Y-26954D01*
X64020Y-27111D01*
X64020Y-27281D01*
X64085Y-27438D01*
X64204Y-27558D01*
X64361Y-27624D01*
X64531Y-27624D01*
X64688Y-27559D01*
X64808Y-27440D01*
X64874Y-27283D01*
X64874Y-33672D01*
X64843Y-33672D01*
X64665Y-33707D01*
X64549Y-33784D01*
X64549Y-30319D01*
X64529Y-30216D01*
X64470Y-30129D01*
X64249Y-29908D01*
X64249Y-29302D01*
X64252Y-29287D01*
X64232Y-29184D01*
X64174Y-29097D01*
X64087Y-29039D01*
X63984Y-29019D01*
X63880Y-29039D01*
X63874Y-29043D01*
X63874Y-27283D01*
X63874Y-27113D01*
X63809Y-26956D01*
X63690Y-26836D01*
X63533Y-26770D01*
X63363Y-26770D01*
X63206Y-26835D01*
X63086Y-26954D01*
X63020Y-27111D01*
X63020Y-27281D01*
X63085Y-27438D01*
X63204Y-27558D01*
X63361Y-27624D01*
X63531Y-27624D01*
X63688Y-27559D01*
X63808Y-27440D01*
X63874Y-27283D01*
X63874Y-29043D01*
X63793Y-29097D01*
X63790Y-29101D01*
X63731Y-29188D01*
X63711Y-29291D01*
X63711Y-30019D01*
X63731Y-30122D01*
X63790Y-30209D01*
X64090Y-30509D01*
X64177Y-30568D01*
X64280Y-30588D01*
X64383Y-30568D01*
X64470Y-30509D01*
X64529Y-30422D01*
X64549Y-30319D01*
X64549Y-33784D01*
X64513Y-33808D01*
X64412Y-33960D01*
X64377Y-34138D01*
X64412Y-34316D01*
X64513Y-34468D01*
X64665Y-34569D01*
X64843Y-34604D01*
X65613Y-34604D01*
X68250Y-37240D01*
X68253Y-37244D01*
X68424Y-37414D01*
X68426Y-37417D01*
X68438Y-37428D01*
X68438Y-37760D01*
X68462Y-37882D01*
X68531Y-37985D01*
X68634Y-38054D01*
X68704Y-38067D01*
X68704Y-38104D01*
X68754Y-38226D01*
X68847Y-38319D01*
X68968Y-38370D01*
X69100Y-38370D01*
X69222Y-38320D01*
X69315Y-38227D01*
X69366Y-38106D01*
X69366Y-37974D01*
X69316Y-37852D01*
X69223Y-37759D01*
X69102Y-37708D01*
X69074Y-37708D01*
X69074Y-37475D01*
X69116Y-37447D01*
X69217Y-37297D01*
X69217Y-37296D01*
X69253Y-37118D01*
X69252Y-37117D01*
X69253Y-37117D01*
X69217Y-36939D01*
X69116Y-36788D01*
X69086Y-36757D01*
X69083Y-36755D01*
X69074Y-36745D01*
X69074Y-36736D01*
X69050Y-36614D01*
X69021Y-36571D01*
X69110Y-36571D01*
X69232Y-36521D01*
X69325Y-36428D01*
X69376Y-36307D01*
X69376Y-44770D01*
X69366Y-44770D01*
X69366Y-40106D01*
X69366Y-39974D01*
X69366Y-39106D01*
X69366Y-38974D01*
X69316Y-38852D01*
X69223Y-38759D01*
X69102Y-38708D01*
X68970Y-38708D01*
X68848Y-38758D01*
X68755Y-38851D01*
X68704Y-38972D01*
X68704Y-39104D01*
X68754Y-39226D01*
X68847Y-39319D01*
X68968Y-39370D01*
X69100Y-39370D01*
X69222Y-39320D01*
X69315Y-39227D01*
X69366Y-39106D01*
X69366Y-39974D01*
X69316Y-39852D01*
X69223Y-39759D01*
X69102Y-39708D01*
X68970Y-39708D01*
X68848Y-39758D01*
X68755Y-39851D01*
X68704Y-39972D01*
X68704Y-40104D01*
X68754Y-40226D01*
X68847Y-40319D01*
X68968Y-40370D01*
X69100Y-40370D01*
X69222Y-40320D01*
X69315Y-40227D01*
X69366Y-40106D01*
X69366Y-44770D01*
X69363Y-44770D01*
X69225Y-44826D01*
X69212Y-44793D01*
X69202Y-44782D01*
X69202Y-43255D01*
X69202Y-43209D01*
X69202Y-43164D01*
X69184Y-43121D01*
X69167Y-43079D01*
X69136Y-43048D01*
X69135Y-43046D01*
X69132Y-43044D01*
X69103Y-43015D01*
X69060Y-42997D01*
X69018Y-42979D01*
X68972Y-42979D01*
X68927Y-42979D01*
X68842Y-43014D01*
X68826Y-43030D01*
X68384Y-43030D01*
X68384Y-42829D01*
X68384Y-42783D01*
X68384Y-42738D01*
X68366Y-42695D01*
X68349Y-42653D01*
X68316Y-42620D01*
X68285Y-42589D01*
X67981Y-42284D01*
X67978Y-42276D01*
X67947Y-42245D01*
X67946Y-42243D01*
X67943Y-42241D01*
X67914Y-42212D01*
X67871Y-42194D01*
X67829Y-42176D01*
X67783Y-42176D01*
X67738Y-42176D01*
X67653Y-42211D01*
X67622Y-42241D01*
X67620Y-42243D01*
X67618Y-42245D01*
X67589Y-42275D01*
X67553Y-42360D01*
X67553Y-42406D01*
X67553Y-42407D01*
X67552Y-42412D01*
X67553Y-42416D01*
X67553Y-42451D01*
X67568Y-42488D01*
X67568Y-42489D01*
X67571Y-42500D01*
X67576Y-42509D01*
X67588Y-42536D01*
X67606Y-42554D01*
X67620Y-42575D01*
X67959Y-42913D01*
X67991Y-42945D01*
X68023Y-42977D01*
X68066Y-42995D01*
X68108Y-43013D01*
X68154Y-43013D01*
X68199Y-43013D01*
X68241Y-42995D01*
X68284Y-42978D01*
X68316Y-42945D01*
X68348Y-42914D01*
X68366Y-42870D01*
X68384Y-42829D01*
X68384Y-43030D01*
X66907Y-43030D01*
X66907Y-42298D01*
X66907Y-42191D01*
X66866Y-42092D01*
X66791Y-42016D01*
X66692Y-41975D01*
X66585Y-41975D01*
X66486Y-42016D01*
X66410Y-42091D01*
X66369Y-42190D01*
X66369Y-42297D01*
X66410Y-42396D01*
X66485Y-42472D01*
X66584Y-42513D01*
X66691Y-42513D01*
X66790Y-42472D01*
X66866Y-42397D01*
X66907Y-42298D01*
X66907Y-43030D01*
X65788Y-43030D01*
X65394Y-42635D01*
X65392Y-42630D01*
X65361Y-42599D01*
X65360Y-42597D01*
X65357Y-42595D01*
X65328Y-42566D01*
X65285Y-42548D01*
X65243Y-42530D01*
X65197Y-42530D01*
X65152Y-42530D01*
X65067Y-42565D01*
X65036Y-42595D01*
X65034Y-42597D01*
X65032Y-42599D01*
X65003Y-42629D01*
X64967Y-42714D01*
X64967Y-42759D01*
X64966Y-42764D01*
X64967Y-42768D01*
X64967Y-42805D01*
X64983Y-42845D01*
X64985Y-42852D01*
X64988Y-42857D01*
X65002Y-42890D01*
X65024Y-42912D01*
X65034Y-42927D01*
X65401Y-43294D01*
X65253Y-43294D01*
X65207Y-43294D01*
X65162Y-43294D01*
X65077Y-43329D01*
X65046Y-43359D01*
X65044Y-43361D01*
X65042Y-43363D01*
X65013Y-43393D01*
X64977Y-43478D01*
X64977Y-43524D01*
X64977Y-43569D01*
X64995Y-43612D01*
X65011Y-43652D01*
X64977Y-43734D01*
X64977Y-43775D01*
X64976Y-43780D01*
X64977Y-43784D01*
X64977Y-43825D01*
X64995Y-43868D01*
X65012Y-43910D01*
X65042Y-43940D01*
X65044Y-43943D01*
X65046Y-43944D01*
X65076Y-43974D01*
X65119Y-43992D01*
X65161Y-44010D01*
X65202Y-44010D01*
X65207Y-44011D01*
X65211Y-44010D01*
X65252Y-44010D01*
X65276Y-44000D01*
X66558Y-44000D01*
X66604Y-44000D01*
X66649Y-44000D01*
X66692Y-43982D01*
X66734Y-43965D01*
X66764Y-43934D01*
X66767Y-43933D01*
X66768Y-43930D01*
X66798Y-43901D01*
X66816Y-43858D01*
X66834Y-43816D01*
X66834Y-43770D01*
X66834Y-43725D01*
X66816Y-43682D01*
X66808Y-43664D01*
X66822Y-43651D01*
X66858Y-43566D01*
X66858Y-43490D01*
X67336Y-43490D01*
X67307Y-43502D01*
X67243Y-43566D01*
X67207Y-43651D01*
X67207Y-43742D01*
X67242Y-43827D01*
X67306Y-43891D01*
X67391Y-43927D01*
X67482Y-43927D01*
X67567Y-43892D01*
X67631Y-43828D01*
X67667Y-43743D01*
X67667Y-43652D01*
X67632Y-43567D01*
X67568Y-43503D01*
X67537Y-43490D01*
X68916Y-43490D01*
X68921Y-43491D01*
X68921Y-43490D01*
X69009Y-43472D01*
X69084Y-43423D01*
X69102Y-43404D01*
X69135Y-43372D01*
X69136Y-43369D01*
X69166Y-43340D01*
X69184Y-43297D01*
X69202Y-43255D01*
X69202Y-44782D01*
X69137Y-44717D01*
X69038Y-44676D01*
X68931Y-44676D01*
X68832Y-44717D01*
X68756Y-44792D01*
X68723Y-44869D01*
X68690Y-44836D01*
X68533Y-44770D01*
X68363Y-44770D01*
X68206Y-44835D01*
X68086Y-44954D01*
X68020Y-45111D01*
X68020Y-45281D01*
X68085Y-45438D01*
X68204Y-45558D01*
X68361Y-45624D01*
X68531Y-45624D01*
X68688Y-45559D01*
X68808Y-45440D01*
X68874Y-45283D01*
X68874Y-45190D01*
X68930Y-45214D01*
X69020Y-45214D01*
X69020Y-45281D01*
X69085Y-45438D01*
X69204Y-45558D01*
X69361Y-45624D01*
X69531Y-45624D01*
X69688Y-45559D01*
X69808Y-45440D01*
X69874Y-45283D01*
X69874Y-46113D01*
X69809Y-45956D01*
X69690Y-45836D01*
X69533Y-45770D01*
X69363Y-45770D01*
X69206Y-45835D01*
X69086Y-45954D01*
X69020Y-46111D01*
X69020Y-46281D01*
X69085Y-46438D01*
X69204Y-46558D01*
X69361Y-46624D01*
X69531Y-46624D01*
X69688Y-46559D01*
X69808Y-46440D01*
X69874Y-46283D01*
X69874Y-46703D01*
X68874Y-46703D01*
X68874Y-46283D01*
X68874Y-46113D01*
X68809Y-45956D01*
X68690Y-45836D01*
X68533Y-45770D01*
X68363Y-45770D01*
X68206Y-45835D01*
X68086Y-45954D01*
X68020Y-46111D01*
X68020Y-46281D01*
X68085Y-46438D01*
X68204Y-46558D01*
X68361Y-46624D01*
X68531Y-46624D01*
X68688Y-46559D01*
X68808Y-46440D01*
X68874Y-46283D01*
X68874Y-46703D01*
X67874Y-46703D01*
X67874Y-46283D01*
X67874Y-46113D01*
X67874Y-45283D01*
X67874Y-45113D01*
X67809Y-44956D01*
X67690Y-44836D01*
X67533Y-44770D01*
X67363Y-44770D01*
X67206Y-44835D01*
X67086Y-44954D01*
X67020Y-45111D01*
X67020Y-45281D01*
X67085Y-45438D01*
X67204Y-45558D01*
X67361Y-45624D01*
X67531Y-45624D01*
X67688Y-45559D01*
X67808Y-45440D01*
X67874Y-45283D01*
X67874Y-46113D01*
X67809Y-45956D01*
X67690Y-45836D01*
X67533Y-45770D01*
X67363Y-45770D01*
X67206Y-45835D01*
X67086Y-45954D01*
X67020Y-46111D01*
X67020Y-46281D01*
X67085Y-46438D01*
X67204Y-46558D01*
X67361Y-46624D01*
X67531Y-46624D01*
X67688Y-46559D01*
X67808Y-46440D01*
X67874Y-46283D01*
X67874Y-46703D01*
X66874Y-46703D01*
X66874Y-46283D01*
X66874Y-46113D01*
X66874Y-45283D01*
X66874Y-45113D01*
X66809Y-44956D01*
X66690Y-44836D01*
X66533Y-44770D01*
X66363Y-44770D01*
X66206Y-44835D01*
X66086Y-44954D01*
X66020Y-45111D01*
X66020Y-45281D01*
X66085Y-45438D01*
X66204Y-45558D01*
X66361Y-45624D01*
X66531Y-45624D01*
X66688Y-45559D01*
X66808Y-45440D01*
X66874Y-45283D01*
X66874Y-46113D01*
X66809Y-45956D01*
X66690Y-45836D01*
X66533Y-45770D01*
X66363Y-45770D01*
X66206Y-45835D01*
X66086Y-45954D01*
X66020Y-46111D01*
X66020Y-46281D01*
X66085Y-46438D01*
X66204Y-46558D01*
X66361Y-46624D01*
X66531Y-46624D01*
X66688Y-46559D01*
X66808Y-46440D01*
X66874Y-46283D01*
X66874Y-46703D01*
X65874Y-46703D01*
X65874Y-46283D01*
X65874Y-46113D01*
X65874Y-45283D01*
X65874Y-45113D01*
X65809Y-44956D01*
X65690Y-44836D01*
X65533Y-44770D01*
X65363Y-44770D01*
X65206Y-44835D01*
X65086Y-44954D01*
X65020Y-45111D01*
X65020Y-45281D01*
X65085Y-45438D01*
X65204Y-45558D01*
X65361Y-45624D01*
X65531Y-45624D01*
X65688Y-45559D01*
X65808Y-45440D01*
X65874Y-45283D01*
X65874Y-46113D01*
X65809Y-45956D01*
X65690Y-45836D01*
X65533Y-45770D01*
X65363Y-45770D01*
X65206Y-45835D01*
X65086Y-45954D01*
X65020Y-46111D01*
X65020Y-46281D01*
X65085Y-46438D01*
X65204Y-46558D01*
X65361Y-46624D01*
X65531Y-46624D01*
X65688Y-46559D01*
X65808Y-46440D01*
X65874Y-46283D01*
X65874Y-46703D01*
X64874Y-46703D01*
X64874Y-46283D01*
X64874Y-46113D01*
X64874Y-45283D01*
X64874Y-45113D01*
X64809Y-44956D01*
X64773Y-44919D01*
X64773Y-36896D01*
X64773Y-36805D01*
X64738Y-36720D01*
X64674Y-36656D01*
X64589Y-36620D01*
X64498Y-36620D01*
X64413Y-36655D01*
X64349Y-36719D01*
X64313Y-36804D01*
X64313Y-36895D01*
X64348Y-36980D01*
X64412Y-37044D01*
X64497Y-37080D01*
X64588Y-37080D01*
X64673Y-37045D01*
X64737Y-36981D01*
X64773Y-36896D01*
X64773Y-44919D01*
X64690Y-44836D01*
X64549Y-44776D01*
X64549Y-42223D01*
X64549Y-42116D01*
X64508Y-42017D01*
X64433Y-41941D01*
X64371Y-41915D01*
X64371Y-41860D01*
X64358Y-41830D01*
X64430Y-41760D01*
X64486Y-41624D01*
X64486Y-41478D01*
X64430Y-41343D01*
X64327Y-41239D01*
X64210Y-41190D01*
X64210Y-37235D01*
X64210Y-37144D01*
X64175Y-37059D01*
X64111Y-36995D01*
X64026Y-36959D01*
X63935Y-36959D01*
X63850Y-36994D01*
X63786Y-37058D01*
X63750Y-37143D01*
X63750Y-37234D01*
X63785Y-37319D01*
X63849Y-37383D01*
X63934Y-37419D01*
X64025Y-37419D01*
X64110Y-37384D01*
X64174Y-37320D01*
X64210Y-37235D01*
X64210Y-41190D01*
X64191Y-41183D01*
X64045Y-41183D01*
X63910Y-41239D01*
X63806Y-41342D01*
X63750Y-41478D01*
X63750Y-41624D01*
X63806Y-41759D01*
X63854Y-41807D01*
X63833Y-41859D01*
X63833Y-41966D01*
X63874Y-42065D01*
X63933Y-42125D01*
X63890Y-42144D01*
X63786Y-42247D01*
X63742Y-42353D01*
X63742Y-37247D01*
X63742Y-37156D01*
X63707Y-37071D01*
X63643Y-37007D01*
X63558Y-36971D01*
X63467Y-36971D01*
X63382Y-37006D01*
X63318Y-37070D01*
X63282Y-37155D01*
X63282Y-37246D01*
X63317Y-37331D01*
X63381Y-37395D01*
X63466Y-37431D01*
X63557Y-37431D01*
X63642Y-37396D01*
X63706Y-37332D01*
X63742Y-37247D01*
X63742Y-42353D01*
X63730Y-42383D01*
X63730Y-42529D01*
X63786Y-42664D01*
X63889Y-42768D01*
X64025Y-42824D01*
X64171Y-42824D01*
X64306Y-42768D01*
X64410Y-42665D01*
X64466Y-42529D01*
X64466Y-42383D01*
X64460Y-42369D01*
X64508Y-42322D01*
X64549Y-42223D01*
X64549Y-44776D01*
X64533Y-44770D01*
X64414Y-44770D01*
X64442Y-44704D01*
X64442Y-44597D01*
X64401Y-44498D01*
X64326Y-44422D01*
X64227Y-44381D01*
X64120Y-44381D01*
X64021Y-44422D01*
X63945Y-44497D01*
X63904Y-44596D01*
X63904Y-44703D01*
X63945Y-44802D01*
X64020Y-44878D01*
X64119Y-44919D01*
X64121Y-44919D01*
X64086Y-44954D01*
X64020Y-45111D01*
X64020Y-45281D01*
X64085Y-45438D01*
X64204Y-45558D01*
X64361Y-45624D01*
X64531Y-45624D01*
X64688Y-45559D01*
X64808Y-45440D01*
X64874Y-45283D01*
X64874Y-46113D01*
X64809Y-45956D01*
X64690Y-45836D01*
X64533Y-45770D01*
X64363Y-45770D01*
X64206Y-45835D01*
X64086Y-45954D01*
X64020Y-46111D01*
X64020Y-46281D01*
X64085Y-46438D01*
X64204Y-46558D01*
X64361Y-46624D01*
X64531Y-46624D01*
X64688Y-46559D01*
X64808Y-46440D01*
X64874Y-46283D01*
X64874Y-46703D01*
X63874Y-46703D01*
X63874Y-46283D01*
X63874Y-46113D01*
X63874Y-45283D01*
X63874Y-45113D01*
X63809Y-44956D01*
X63690Y-44836D01*
X63533Y-44770D01*
X63363Y-44770D01*
X63222Y-44828D01*
X63222Y-37239D01*
X63222Y-37148D01*
X63187Y-37063D01*
X63123Y-36999D01*
X63038Y-36963D01*
X62947Y-36963D01*
X62874Y-36993D01*
X62874Y-27283D01*
X62874Y-27113D01*
X62809Y-26956D01*
X62690Y-26836D01*
X62533Y-26770D01*
X62363Y-26770D01*
X62206Y-26835D01*
X62086Y-26954D01*
X62020Y-27111D01*
X62020Y-27281D01*
X62085Y-27438D01*
X62204Y-27558D01*
X62361Y-27624D01*
X62531Y-27624D01*
X62688Y-27559D01*
X62808Y-27440D01*
X62874Y-27283D01*
X62874Y-36993D01*
X62862Y-36998D01*
X62798Y-37062D01*
X62762Y-37147D01*
X62762Y-37238D01*
X62797Y-37323D01*
X62861Y-37387D01*
X62946Y-37423D01*
X63037Y-37423D01*
X63122Y-37388D01*
X63186Y-37324D01*
X63222Y-37239D01*
X63222Y-44828D01*
X63206Y-44835D01*
X63086Y-44954D01*
X63020Y-45111D01*
X63020Y-45281D01*
X63085Y-45438D01*
X63204Y-45558D01*
X63361Y-45624D01*
X63531Y-45624D01*
X63688Y-45559D01*
X63808Y-45440D01*
X63874Y-45283D01*
X63874Y-46113D01*
X63809Y-45956D01*
X63690Y-45836D01*
X63533Y-45770D01*
X63363Y-45770D01*
X63206Y-45835D01*
X63086Y-45954D01*
X63020Y-46111D01*
X63020Y-46281D01*
X63085Y-46438D01*
X63204Y-46558D01*
X63361Y-46624D01*
X63531Y-46624D01*
X63688Y-46559D01*
X63808Y-46440D01*
X63874Y-46283D01*
X63874Y-46703D01*
X62874Y-46703D01*
X62874Y-46283D01*
X62874Y-46113D01*
X62874Y-45283D01*
X62874Y-45113D01*
X62809Y-44956D01*
X62690Y-44836D01*
X62533Y-44770D01*
X62363Y-44770D01*
X62317Y-44789D01*
X62317Y-34070D01*
X62317Y-33979D01*
X62282Y-33894D01*
X62218Y-33830D01*
X62133Y-33794D01*
X62042Y-33794D01*
X61957Y-33829D01*
X61893Y-33893D01*
X61874Y-33937D01*
X61874Y-27283D01*
X61874Y-27113D01*
X61809Y-26956D01*
X61690Y-26836D01*
X61533Y-26770D01*
X61363Y-26770D01*
X61206Y-26835D01*
X61086Y-26954D01*
X61020Y-27111D01*
X61020Y-27281D01*
X61085Y-27438D01*
X61204Y-27558D01*
X61361Y-27624D01*
X61531Y-27624D01*
X61688Y-27559D01*
X61808Y-27440D01*
X61874Y-27283D01*
X61874Y-33937D01*
X61857Y-33978D01*
X61857Y-34069D01*
X61892Y-34154D01*
X61956Y-34218D01*
X62041Y-34254D01*
X62132Y-34254D01*
X62217Y-34219D01*
X62281Y-34155D01*
X62317Y-34070D01*
X62317Y-44789D01*
X62238Y-44821D01*
X62238Y-36833D01*
X62238Y-36742D01*
X62203Y-36657D01*
X62139Y-36593D01*
X62054Y-36557D01*
X61963Y-36557D01*
X61878Y-36592D01*
X61814Y-36656D01*
X61778Y-36741D01*
X61778Y-36832D01*
X61813Y-36917D01*
X61877Y-36981D01*
X61962Y-37017D01*
X62053Y-37017D01*
X62138Y-36982D01*
X62202Y-36918D01*
X62238Y-36833D01*
X62238Y-44821D01*
X62206Y-44835D01*
X62086Y-44954D01*
X62020Y-45111D01*
X62020Y-45281D01*
X62085Y-45438D01*
X62204Y-45558D01*
X62361Y-45624D01*
X62531Y-45624D01*
X62688Y-45559D01*
X62808Y-45440D01*
X62874Y-45283D01*
X62874Y-46113D01*
X62809Y-45956D01*
X62690Y-45836D01*
X62533Y-45770D01*
X62363Y-45770D01*
X62206Y-45835D01*
X62086Y-45954D01*
X62020Y-46111D01*
X62020Y-46281D01*
X62085Y-46438D01*
X62204Y-46558D01*
X62361Y-46624D01*
X62531Y-46624D01*
X62688Y-46559D01*
X62808Y-46440D01*
X62874Y-46283D01*
X62874Y-46703D01*
X61874Y-46703D01*
X61874Y-46283D01*
X61874Y-46113D01*
X61874Y-45283D01*
X61874Y-45113D01*
X61840Y-45030D01*
X61840Y-37538D01*
X61840Y-37447D01*
X61805Y-37362D01*
X61741Y-37298D01*
X61659Y-37263D01*
X61659Y-36566D01*
X61659Y-36475D01*
X61624Y-36390D01*
X61560Y-36326D01*
X61557Y-36324D01*
X61557Y-34085D01*
X61557Y-33994D01*
X61522Y-33909D01*
X61458Y-33845D01*
X61373Y-33809D01*
X61282Y-33809D01*
X61197Y-33844D01*
X61133Y-33908D01*
X61097Y-33993D01*
X61097Y-34084D01*
X61132Y-34169D01*
X61196Y-34233D01*
X61281Y-34269D01*
X61372Y-34269D01*
X61457Y-34234D01*
X61521Y-34170D01*
X61557Y-34085D01*
X61557Y-36324D01*
X61475Y-36290D01*
X61384Y-36290D01*
X61299Y-36325D01*
X61235Y-36389D01*
X61199Y-36474D01*
X61199Y-36565D01*
X61234Y-36650D01*
X61298Y-36714D01*
X61383Y-36750D01*
X61474Y-36750D01*
X61559Y-36715D01*
X61623Y-36651D01*
X61659Y-36566D01*
X61659Y-37263D01*
X61656Y-37262D01*
X61565Y-37262D01*
X61480Y-37297D01*
X61416Y-37361D01*
X61380Y-37446D01*
X61380Y-37537D01*
X61415Y-37622D01*
X61479Y-37686D01*
X61564Y-37722D01*
X61655Y-37722D01*
X61740Y-37687D01*
X61804Y-37623D01*
X61840Y-37538D01*
X61840Y-45030D01*
X61809Y-44956D01*
X61734Y-44880D01*
X61734Y-42066D01*
X61734Y-41975D01*
X61699Y-41890D01*
X61635Y-41826D01*
X61550Y-41790D01*
X61459Y-41790D01*
X61374Y-41825D01*
X61310Y-41889D01*
X61274Y-41974D01*
X61274Y-42065D01*
X61309Y-42150D01*
X61373Y-42214D01*
X61458Y-42250D01*
X61549Y-42250D01*
X61634Y-42215D01*
X61698Y-42151D01*
X61734Y-42066D01*
X61734Y-44880D01*
X61690Y-44836D01*
X61533Y-44770D01*
X61363Y-44770D01*
X61206Y-44835D01*
X61086Y-44954D01*
X61020Y-45111D01*
X61020Y-45281D01*
X61085Y-45438D01*
X61204Y-45558D01*
X61361Y-45624D01*
X61531Y-45624D01*
X61688Y-45559D01*
X61808Y-45440D01*
X61874Y-45283D01*
X61874Y-46113D01*
X61809Y-45956D01*
X61690Y-45836D01*
X61533Y-45770D01*
X61363Y-45770D01*
X61206Y-45835D01*
X61086Y-45954D01*
X61020Y-46111D01*
X61020Y-46281D01*
X61085Y-46438D01*
X61204Y-46558D01*
X61361Y-46624D01*
X61531Y-46624D01*
X61688Y-46559D01*
X61808Y-46440D01*
X61874Y-46283D01*
X61874Y-46703D01*
X60874Y-46703D01*
X60874Y-46283D01*
X60874Y-46113D01*
X60874Y-45283D01*
X60874Y-45113D01*
X60874Y-27283D01*
X60874Y-27113D01*
X60809Y-26956D01*
X60690Y-26836D01*
X60533Y-26770D01*
X60363Y-26770D01*
X60206Y-26835D01*
X60086Y-26954D01*
X60020Y-27111D01*
X60020Y-27281D01*
X60085Y-27438D01*
X60204Y-27558D01*
X60361Y-27624D01*
X60531Y-27624D01*
X60688Y-27559D01*
X60808Y-27440D01*
X60874Y-27283D01*
X60874Y-45113D01*
X60809Y-44956D01*
X60690Y-44836D01*
X60620Y-44806D01*
X60620Y-36026D01*
X60620Y-35880D01*
X60564Y-35745D01*
X60461Y-35641D01*
X60325Y-35585D01*
X60179Y-35585D01*
X60044Y-35641D01*
X59940Y-35744D01*
X59884Y-35880D01*
X59884Y-36026D01*
X59940Y-36161D01*
X60043Y-36265D01*
X60179Y-36321D01*
X60325Y-36321D01*
X60460Y-36265D01*
X60564Y-36162D01*
X60620Y-36026D01*
X60620Y-44806D01*
X60533Y-44770D01*
X60363Y-44770D01*
X60206Y-44835D01*
X60086Y-44954D01*
X60020Y-45111D01*
X60020Y-45281D01*
X60085Y-45438D01*
X60204Y-45558D01*
X60361Y-45624D01*
X60531Y-45624D01*
X60688Y-45559D01*
X60808Y-45440D01*
X60874Y-45283D01*
X60874Y-46113D01*
X60809Y-45956D01*
X60690Y-45836D01*
X60533Y-45770D01*
X60363Y-45770D01*
X60206Y-45835D01*
X60086Y-45954D01*
X60020Y-46111D01*
X60020Y-46281D01*
X60085Y-46438D01*
X60204Y-46558D01*
X60361Y-46624D01*
X60531Y-46624D01*
X60688Y-46559D01*
X60808Y-46440D01*
X60874Y-46283D01*
X60874Y-46703D01*
X59874Y-46703D01*
X59874Y-46283D01*
X59874Y-46113D01*
X59874Y-45283D01*
X59874Y-45113D01*
X59874Y-27283D01*
X59874Y-27113D01*
X59809Y-26956D01*
X59690Y-26836D01*
X59533Y-26770D01*
X59363Y-26770D01*
X59206Y-26835D01*
X59086Y-26954D01*
X59020Y-27111D01*
X59020Y-27281D01*
X59085Y-27438D01*
X59204Y-27558D01*
X59361Y-27624D01*
X59531Y-27624D01*
X59688Y-27559D01*
X59808Y-27440D01*
X59874Y-27283D01*
X59874Y-45113D01*
X59809Y-44956D01*
X59690Y-44836D01*
X59608Y-44801D01*
X59608Y-36341D01*
X59608Y-36250D01*
X59573Y-36165D01*
X59509Y-36101D01*
X59424Y-36065D01*
X59333Y-36065D01*
X59248Y-36100D01*
X59184Y-36164D01*
X59148Y-36249D01*
X59148Y-36340D01*
X59183Y-36425D01*
X59247Y-36489D01*
X59332Y-36525D01*
X59423Y-36525D01*
X59508Y-36490D01*
X59572Y-36426D01*
X59608Y-36341D01*
X59608Y-44801D01*
X59533Y-44770D01*
X59517Y-44770D01*
X59517Y-36959D01*
X59517Y-36868D01*
X59482Y-36783D01*
X59418Y-36719D01*
X59333Y-36683D01*
X59242Y-36683D01*
X59157Y-36718D01*
X59093Y-36782D01*
X59060Y-36859D01*
X59060Y-32020D01*
X59040Y-31917D01*
X58981Y-31830D01*
X58894Y-31771D01*
X58874Y-31767D01*
X58874Y-27283D01*
X58874Y-27113D01*
X58809Y-26956D01*
X58690Y-26836D01*
X58533Y-26770D01*
X58363Y-26770D01*
X58206Y-26835D01*
X58086Y-26954D01*
X58020Y-27111D01*
X58020Y-27281D01*
X58085Y-27438D01*
X58204Y-27558D01*
X58361Y-27624D01*
X58531Y-27624D01*
X58688Y-27559D01*
X58808Y-27440D01*
X58874Y-27283D01*
X58874Y-31767D01*
X58791Y-31751D01*
X58787Y-31751D01*
X58684Y-31771D01*
X58597Y-31830D01*
X58538Y-31917D01*
X58518Y-32020D01*
X58538Y-32123D01*
X58597Y-32210D01*
X58684Y-32269D01*
X58787Y-32289D01*
X58791Y-32289D01*
X58894Y-32269D01*
X58981Y-32210D01*
X59040Y-32123D01*
X59060Y-32020D01*
X59060Y-36859D01*
X59057Y-36867D01*
X59057Y-36958D01*
X59092Y-37043D01*
X59156Y-37107D01*
X59241Y-37143D01*
X59332Y-37143D01*
X59417Y-37108D01*
X59481Y-37044D01*
X59517Y-36959D01*
X59517Y-44770D01*
X59363Y-44770D01*
X59281Y-44803D01*
X59281Y-37700D01*
X59281Y-37609D01*
X59246Y-37524D01*
X59182Y-37460D01*
X59097Y-37424D01*
X59006Y-37424D01*
X58921Y-37459D01*
X58857Y-37523D01*
X58821Y-37608D01*
X58821Y-37699D01*
X58856Y-37784D01*
X58920Y-37848D01*
X59005Y-37884D01*
X59096Y-37884D01*
X59181Y-37849D01*
X59245Y-37785D01*
X59281Y-37700D01*
X59281Y-44803D01*
X59206Y-44835D01*
X59120Y-44920D01*
X59120Y-39306D01*
X59120Y-39215D01*
X59085Y-39130D01*
X59021Y-39066D01*
X58936Y-39030D01*
X58845Y-39030D01*
X58760Y-39065D01*
X58696Y-39129D01*
X58660Y-39214D01*
X58660Y-39305D01*
X58695Y-39390D01*
X58759Y-39454D01*
X58844Y-39490D01*
X58935Y-39490D01*
X59020Y-39455D01*
X59084Y-39391D01*
X59120Y-39306D01*
X59120Y-44920D01*
X59086Y-44954D01*
X59020Y-45111D01*
X59020Y-45281D01*
X59085Y-45438D01*
X59204Y-45558D01*
X59361Y-45624D01*
X59531Y-45624D01*
X59688Y-45559D01*
X59808Y-45440D01*
X59874Y-45283D01*
X59874Y-46113D01*
X59809Y-45956D01*
X59690Y-45836D01*
X59533Y-45770D01*
X59363Y-45770D01*
X59206Y-45835D01*
X59086Y-45954D01*
X59020Y-46111D01*
X59020Y-46281D01*
X59085Y-46438D01*
X59204Y-46558D01*
X59361Y-46624D01*
X59531Y-46624D01*
X59688Y-46559D01*
X59808Y-46440D01*
X59874Y-46283D01*
X59874Y-46703D01*
X58874Y-46703D01*
X58874Y-46283D01*
X58874Y-46113D01*
X58874Y-45283D01*
X58874Y-45113D01*
X58809Y-44956D01*
X58690Y-44836D01*
X58533Y-44770D01*
X58363Y-44770D01*
X58206Y-44835D01*
X58086Y-44954D01*
X58020Y-45111D01*
X58020Y-45281D01*
X58085Y-45438D01*
X58204Y-45558D01*
X58361Y-45624D01*
X58531Y-45624D01*
X58688Y-45559D01*
X58808Y-45440D01*
X58874Y-45283D01*
X58874Y-46113D01*
X58809Y-45956D01*
X58690Y-45836D01*
X58533Y-45770D01*
X58363Y-45770D01*
X58206Y-45835D01*
X58086Y-45954D01*
X58020Y-46111D01*
X58020Y-46281D01*
X58085Y-46438D01*
X58204Y-46558D01*
X58361Y-46624D01*
X58531Y-46624D01*
X58688Y-46559D01*
X58808Y-46440D01*
X58874Y-46283D01*
X58874Y-46703D01*
X57874Y-46703D01*
X57874Y-46283D01*
X57874Y-46113D01*
X57874Y-45283D01*
X57874Y-45113D01*
X57874Y-27283D01*
X57874Y-27113D01*
X57809Y-26956D01*
X57690Y-26836D01*
X57533Y-26770D01*
X57363Y-26770D01*
X57206Y-26835D01*
X57086Y-26954D01*
X57020Y-27111D01*
X57020Y-27281D01*
X57085Y-27438D01*
X57204Y-27558D01*
X57361Y-27624D01*
X57531Y-27624D01*
X57688Y-27559D01*
X57808Y-27440D01*
X57874Y-27283D01*
X57874Y-45113D01*
X57809Y-44956D01*
X57690Y-44836D01*
X57533Y-44770D01*
X57363Y-44770D01*
X57206Y-44835D01*
X57086Y-44954D01*
X57020Y-45111D01*
X57020Y-45281D01*
X57085Y-45438D01*
X57204Y-45558D01*
X57361Y-45624D01*
X57531Y-45624D01*
X57688Y-45559D01*
X57808Y-45440D01*
X57874Y-45283D01*
X57874Y-46113D01*
X57809Y-45956D01*
X57690Y-45836D01*
X57533Y-45770D01*
X57363Y-45770D01*
X57206Y-45835D01*
X57086Y-45954D01*
X57020Y-46111D01*
X57020Y-46281D01*
X57085Y-46438D01*
X57204Y-46558D01*
X57361Y-46624D01*
X57531Y-46624D01*
X57688Y-46559D01*
X57808Y-46440D01*
X57874Y-46283D01*
X57874Y-46703D01*
X56874Y-46703D01*
X56874Y-46283D01*
X56874Y-46113D01*
X56874Y-45283D01*
X56874Y-45113D01*
X56874Y-27283D01*
X56874Y-27113D01*
X56809Y-26956D01*
X56690Y-26836D01*
X56533Y-26770D01*
X56363Y-26770D01*
X56206Y-26835D01*
X56086Y-26954D01*
X56020Y-27111D01*
X56020Y-27281D01*
X56085Y-27438D01*
X56204Y-27558D01*
X56361Y-27624D01*
X56531Y-27624D01*
X56688Y-27559D01*
X56808Y-27440D01*
X56874Y-27283D01*
X56874Y-45113D01*
X56809Y-44956D01*
X56690Y-44836D01*
X56533Y-44770D01*
X56498Y-44770D01*
X56498Y-44459D01*
X56498Y-44368D01*
X56463Y-44283D01*
X56458Y-44278D01*
X56458Y-41896D01*
X56458Y-41805D01*
X56423Y-41720D01*
X56359Y-41656D01*
X56274Y-41620D01*
X56183Y-41620D01*
X56098Y-41655D01*
X56034Y-41719D01*
X55998Y-41804D01*
X55998Y-41895D01*
X56033Y-41980D01*
X56097Y-42044D01*
X56182Y-42080D01*
X56273Y-42080D01*
X56358Y-42045D01*
X56422Y-41981D01*
X56458Y-41896D01*
X56458Y-44278D01*
X56427Y-44247D01*
X56427Y-43333D01*
X56427Y-43242D01*
X56392Y-43157D01*
X56328Y-43093D01*
X56243Y-43057D01*
X56152Y-43057D01*
X56067Y-43092D01*
X56003Y-43156D01*
X55967Y-43241D01*
X55967Y-43332D01*
X56002Y-43417D01*
X56066Y-43481D01*
X56151Y-43517D01*
X56242Y-43517D01*
X56327Y-43482D01*
X56391Y-43418D01*
X56427Y-43333D01*
X56427Y-44247D01*
X56399Y-44219D01*
X56314Y-44183D01*
X56223Y-44183D01*
X56138Y-44218D01*
X56074Y-44282D01*
X56038Y-44367D01*
X56038Y-44458D01*
X56073Y-44543D01*
X56137Y-44607D01*
X56222Y-44643D01*
X56313Y-44643D01*
X56398Y-44608D01*
X56462Y-44544D01*
X56498Y-44459D01*
X56498Y-44770D01*
X56363Y-44770D01*
X56206Y-44835D01*
X56086Y-44954D01*
X56020Y-45111D01*
X56020Y-45281D01*
X56085Y-45438D01*
X56204Y-45558D01*
X56361Y-45624D01*
X56531Y-45624D01*
X56688Y-45559D01*
X56808Y-45440D01*
X56874Y-45283D01*
X56874Y-46113D01*
X56809Y-45956D01*
X56690Y-45836D01*
X56533Y-45770D01*
X56363Y-45770D01*
X56206Y-45835D01*
X56086Y-45954D01*
X56020Y-46111D01*
X56020Y-46281D01*
X56085Y-46438D01*
X56204Y-46558D01*
X56361Y-46624D01*
X56531Y-46624D01*
X56688Y-46559D01*
X56808Y-46440D01*
X56874Y-46283D01*
X56874Y-46703D01*
X55874Y-46703D01*
X55874Y-46283D01*
X55874Y-46113D01*
X55874Y-45283D01*
X55874Y-45113D01*
X55874Y-27283D01*
X55874Y-27113D01*
X55809Y-26956D01*
X55690Y-26836D01*
X55533Y-26770D01*
X55363Y-26770D01*
X55206Y-26835D01*
X55086Y-26954D01*
X55020Y-27111D01*
X55020Y-27281D01*
X55085Y-27438D01*
X55204Y-27558D01*
X55361Y-27624D01*
X55531Y-27624D01*
X55688Y-27559D01*
X55808Y-27440D01*
X55874Y-27283D01*
X55874Y-45113D01*
X55809Y-44956D01*
X55690Y-44836D01*
X55533Y-44770D01*
X55363Y-44770D01*
X55206Y-44835D01*
X55086Y-44954D01*
X55020Y-45111D01*
X55020Y-45281D01*
X55085Y-45438D01*
X55204Y-45558D01*
X55361Y-45624D01*
X55531Y-45624D01*
X55688Y-45559D01*
X55808Y-45440D01*
X55874Y-45283D01*
X55874Y-46113D01*
X55809Y-45956D01*
X55690Y-45836D01*
X55533Y-45770D01*
X55363Y-45770D01*
X55206Y-45835D01*
X55086Y-45954D01*
X55020Y-46111D01*
X55020Y-46281D01*
X55085Y-46438D01*
X55204Y-46558D01*
X55361Y-46624D01*
X55531Y-46624D01*
X55688Y-46559D01*
X55808Y-46440D01*
X55874Y-46283D01*
X55874Y-46703D01*
X54874Y-46703D01*
X54874Y-46283D01*
X54874Y-46113D01*
X54874Y-45283D01*
X54874Y-45113D01*
X54874Y-27283D01*
X54874Y-27113D01*
X54809Y-26956D01*
X54690Y-26836D01*
X54533Y-26770D01*
X54363Y-26770D01*
X54206Y-26835D01*
X54086Y-26954D01*
X54020Y-27111D01*
X54020Y-27281D01*
X54085Y-27438D01*
X54204Y-27558D01*
X54361Y-27624D01*
X54531Y-27624D01*
X54688Y-27559D01*
X54808Y-27440D01*
X54874Y-27283D01*
X54874Y-45113D01*
X54809Y-44956D01*
X54690Y-44836D01*
X54533Y-44770D01*
X54478Y-44770D01*
X54478Y-29755D01*
X54478Y-29607D01*
X54421Y-29470D01*
X54317Y-29366D01*
X54180Y-29309D01*
X54032Y-29309D01*
X53895Y-29366D01*
X53874Y-29387D01*
X53874Y-27283D01*
X53874Y-27113D01*
X53809Y-26956D01*
X53690Y-26836D01*
X53533Y-26770D01*
X53363Y-26770D01*
X53206Y-26835D01*
X53086Y-26954D01*
X53020Y-27111D01*
X53020Y-27281D01*
X53085Y-27438D01*
X53204Y-27558D01*
X53361Y-27624D01*
X53531Y-27624D01*
X53688Y-27559D01*
X53808Y-27440D01*
X53874Y-27283D01*
X53874Y-29387D01*
X53791Y-29470D01*
X53734Y-29607D01*
X53734Y-29755D01*
X53791Y-29892D01*
X53895Y-29996D01*
X54032Y-30053D01*
X54180Y-30053D01*
X54317Y-29996D01*
X54421Y-29892D01*
X54478Y-29755D01*
X54478Y-44770D01*
X54363Y-44770D01*
X54206Y-44835D01*
X54086Y-44954D01*
X54020Y-45111D01*
X54020Y-45281D01*
X54085Y-45438D01*
X54204Y-45558D01*
X54361Y-45624D01*
X54531Y-45624D01*
X54688Y-45559D01*
X54808Y-45440D01*
X54874Y-45283D01*
X54874Y-46113D01*
X54809Y-45956D01*
X54690Y-45836D01*
X54533Y-45770D01*
X54363Y-45770D01*
X54206Y-45835D01*
X54086Y-45954D01*
X54020Y-46111D01*
X54020Y-46281D01*
X54085Y-46438D01*
X54204Y-46558D01*
X54361Y-46624D01*
X54531Y-46624D01*
X54688Y-46559D01*
X54808Y-46440D01*
X54874Y-46283D01*
X54874Y-46703D01*
X53874Y-46703D01*
X53874Y-46283D01*
X53874Y-46113D01*
X53874Y-45283D01*
X53874Y-45113D01*
X53809Y-44956D01*
X53690Y-44836D01*
X53533Y-44770D01*
X53476Y-44770D01*
X53476Y-29718D01*
X53462Y-29574D01*
X53433Y-29505D01*
X53372Y-29486D01*
X53301Y-29557D01*
X53301Y-29415D01*
X53282Y-29354D01*
X53143Y-29311D01*
X52999Y-29325D01*
X52930Y-29354D01*
X52911Y-29415D01*
X53106Y-29610D01*
X53301Y-29415D01*
X53301Y-29557D01*
X53177Y-29681D01*
X53372Y-29876D01*
X53433Y-29857D01*
X53476Y-29718D01*
X53476Y-44770D01*
X53363Y-44770D01*
X53301Y-44795D01*
X53301Y-29947D01*
X53106Y-29752D01*
X53035Y-29823D01*
X53035Y-29681D01*
X52874Y-29520D01*
X52874Y-27283D01*
X52874Y-27113D01*
X52809Y-26956D01*
X52690Y-26836D01*
X52533Y-26770D01*
X52363Y-26770D01*
X52206Y-26835D01*
X52086Y-26954D01*
X52020Y-27111D01*
X52020Y-27281D01*
X52085Y-27438D01*
X52204Y-27558D01*
X52361Y-27624D01*
X52531Y-27624D01*
X52688Y-27559D01*
X52808Y-27440D01*
X52874Y-27283D01*
X52874Y-29520D01*
X52840Y-29486D01*
X52779Y-29505D01*
X52736Y-29644D01*
X52750Y-29788D01*
X52779Y-29857D01*
X52840Y-29876D01*
X53035Y-29681D01*
X53035Y-29823D01*
X52911Y-29947D01*
X52930Y-30008D01*
X53069Y-30051D01*
X53213Y-30037D01*
X53282Y-30008D01*
X53301Y-29947D01*
X53301Y-44795D01*
X53206Y-44835D01*
X53086Y-44954D01*
X53020Y-45111D01*
X53020Y-45281D01*
X53085Y-45438D01*
X53204Y-45558D01*
X53361Y-45624D01*
X53531Y-45624D01*
X53688Y-45559D01*
X53808Y-45440D01*
X53874Y-45283D01*
X53874Y-46113D01*
X53809Y-45956D01*
X53690Y-45836D01*
X53533Y-45770D01*
X53363Y-45770D01*
X53206Y-45835D01*
X53086Y-45954D01*
X53020Y-46111D01*
X53020Y-46281D01*
X53085Y-46438D01*
X53204Y-46558D01*
X53361Y-46624D01*
X53531Y-46624D01*
X53688Y-46559D01*
X53808Y-46440D01*
X53874Y-46283D01*
X53874Y-46703D01*
X52874Y-46703D01*
X52874Y-46283D01*
X52874Y-46113D01*
X52874Y-45283D01*
X52874Y-45113D01*
X52809Y-44956D01*
X52690Y-44836D01*
X52533Y-44770D01*
X52478Y-44770D01*
X52478Y-29755D01*
X52478Y-29607D01*
X52421Y-29470D01*
X52317Y-29366D01*
X52180Y-29309D01*
X52032Y-29309D01*
X51895Y-29366D01*
X51874Y-29387D01*
X51874Y-27283D01*
X51874Y-27113D01*
X51809Y-26956D01*
X51690Y-26836D01*
X51533Y-26770D01*
X51363Y-26770D01*
X51206Y-26835D01*
X51086Y-26954D01*
X51020Y-27111D01*
X51020Y-27281D01*
X51085Y-27438D01*
X51204Y-27558D01*
X51361Y-27624D01*
X51531Y-27624D01*
X51688Y-27559D01*
X51808Y-27440D01*
X51874Y-27283D01*
X51874Y-29387D01*
X51791Y-29470D01*
X51734Y-29607D01*
X51734Y-29755D01*
X51791Y-29892D01*
X51895Y-29996D01*
X52032Y-30053D01*
X52180Y-30053D01*
X52317Y-29996D01*
X52421Y-29892D01*
X52478Y-29755D01*
X52478Y-44770D01*
X52363Y-44770D01*
X52206Y-44835D01*
X52086Y-44954D01*
X52020Y-45111D01*
X52020Y-45281D01*
X52085Y-45438D01*
X52204Y-45558D01*
X52361Y-45624D01*
X52531Y-45624D01*
X52688Y-45559D01*
X52808Y-45440D01*
X52874Y-45283D01*
X52874Y-46113D01*
X52809Y-45956D01*
X52690Y-45836D01*
X52533Y-45770D01*
X52363Y-45770D01*
X52206Y-45835D01*
X52086Y-45954D01*
X52020Y-46111D01*
X52020Y-46281D01*
X52085Y-46438D01*
X52204Y-46558D01*
X52361Y-46624D01*
X52531Y-46624D01*
X52688Y-46559D01*
X52808Y-46440D01*
X52874Y-46283D01*
X52874Y-46703D01*
X52435Y-46703D01*
X51874Y-46695D01*
X51874Y-46283D01*
X51874Y-46113D01*
X51874Y-45283D01*
X51874Y-45113D01*
X51809Y-44956D01*
X51690Y-44836D01*
X51533Y-44770D01*
X51478Y-44770D01*
X51478Y-29755D01*
X51478Y-29607D01*
X51421Y-29470D01*
X51317Y-29366D01*
X51180Y-29309D01*
X51032Y-29309D01*
X50895Y-29366D01*
X50874Y-29387D01*
X50874Y-27283D01*
X50874Y-27113D01*
X50809Y-26956D01*
X50690Y-26836D01*
X50533Y-26770D01*
X50363Y-26770D01*
X50206Y-26835D01*
X50086Y-26954D01*
X50020Y-27111D01*
X50020Y-27281D01*
X50085Y-27438D01*
X50204Y-27558D01*
X50361Y-27624D01*
X50531Y-27624D01*
X50688Y-27559D01*
X50808Y-27440D01*
X50874Y-27283D01*
X50874Y-29387D01*
X50791Y-29470D01*
X50734Y-29607D01*
X50734Y-29755D01*
X50791Y-29892D01*
X50895Y-29996D01*
X51032Y-30053D01*
X51180Y-30053D01*
X51317Y-29996D01*
X51421Y-29892D01*
X51478Y-29755D01*
X51478Y-44770D01*
X51363Y-44770D01*
X51206Y-44835D01*
X51086Y-44954D01*
X51020Y-45111D01*
X51020Y-45281D01*
X51085Y-45438D01*
X51204Y-45558D01*
X51361Y-45624D01*
X51531Y-45624D01*
X51688Y-45559D01*
X51808Y-45440D01*
X51874Y-45283D01*
X51874Y-46113D01*
X51809Y-45956D01*
X51690Y-45836D01*
X51533Y-45770D01*
X51363Y-45770D01*
X51206Y-45835D01*
X51086Y-45954D01*
X51020Y-46111D01*
X51020Y-46281D01*
X51085Y-46438D01*
X51204Y-46558D01*
X51361Y-46624D01*
X51531Y-46624D01*
X51688Y-46559D01*
X51808Y-46440D01*
X51874Y-46283D01*
X51874Y-46695D01*
X50874Y-46681D01*
X50874Y-46283D01*
X50874Y-46113D01*
X50874Y-45283D01*
X50874Y-45113D01*
X50809Y-44956D01*
X50690Y-44836D01*
X50533Y-44770D01*
X50478Y-44770D01*
X50478Y-29755D01*
X50478Y-29607D01*
X50421Y-29470D01*
X50317Y-29366D01*
X50180Y-29309D01*
X50032Y-29309D01*
X49895Y-29366D01*
X49874Y-29387D01*
X49874Y-27283D01*
X49874Y-27113D01*
X49809Y-26956D01*
X49690Y-26836D01*
X49533Y-26770D01*
X49363Y-26770D01*
X49206Y-26835D01*
X49086Y-26954D01*
X49020Y-27111D01*
X49020Y-27281D01*
X49085Y-27438D01*
X49204Y-27558D01*
X49361Y-27624D01*
X49531Y-27624D01*
X49688Y-27559D01*
X49808Y-27440D01*
X49874Y-27283D01*
X49874Y-29387D01*
X49791Y-29470D01*
X49734Y-29607D01*
X49734Y-29755D01*
X49791Y-29892D01*
X49895Y-29996D01*
X50032Y-30053D01*
X50180Y-30053D01*
X50317Y-29996D01*
X50421Y-29892D01*
X50478Y-29755D01*
X50478Y-44770D01*
X50363Y-44770D01*
X50206Y-44835D01*
X50086Y-44954D01*
X50020Y-45111D01*
X50020Y-45281D01*
X50085Y-45438D01*
X50204Y-45558D01*
X50361Y-45624D01*
X50531Y-45624D01*
X50688Y-45559D01*
X50808Y-45440D01*
X50874Y-45283D01*
X50874Y-46113D01*
X50809Y-45956D01*
X50690Y-45836D01*
X50533Y-45770D01*
X50363Y-45770D01*
X50206Y-45835D01*
X50086Y-45954D01*
X50020Y-46111D01*
X50020Y-46281D01*
X50085Y-46438D01*
X50204Y-46558D01*
X50361Y-46624D01*
X50531Y-46624D01*
X50688Y-46559D01*
X50808Y-46440D01*
X50874Y-46283D01*
X50874Y-46681D01*
X49874Y-46667D01*
X49874Y-46283D01*
X49874Y-46113D01*
X49874Y-45283D01*
X49874Y-45113D01*
X49809Y-44956D01*
X49690Y-44836D01*
X49533Y-44770D01*
X49478Y-44770D01*
X49478Y-29755D01*
X49478Y-29607D01*
X49421Y-29470D01*
X49317Y-29366D01*
X49180Y-29309D01*
X49032Y-29309D01*
X48895Y-29366D01*
X48874Y-29387D01*
X48874Y-27283D01*
X48874Y-27113D01*
X48809Y-26956D01*
X48690Y-26836D01*
X48533Y-26770D01*
X48363Y-26770D01*
X48206Y-26835D01*
X48086Y-26954D01*
X48020Y-27111D01*
X48020Y-27281D01*
X48085Y-27438D01*
X48204Y-27558D01*
X48361Y-27624D01*
X48531Y-27624D01*
X48688Y-27559D01*
X48808Y-27440D01*
X48874Y-27283D01*
X48874Y-29387D01*
X48791Y-29470D01*
X48734Y-29607D01*
X48734Y-29755D01*
X48791Y-29892D01*
X48895Y-29996D01*
X49032Y-30053D01*
X49180Y-30053D01*
X49317Y-29996D01*
X49421Y-29892D01*
X49478Y-29755D01*
X49478Y-44770D01*
X49363Y-44770D01*
X49206Y-44835D01*
X49086Y-44954D01*
X49020Y-45111D01*
X49020Y-45281D01*
X49085Y-45438D01*
X49204Y-45558D01*
X49361Y-45624D01*
X49531Y-45624D01*
X49688Y-45559D01*
X49808Y-45440D01*
X49874Y-45283D01*
X49874Y-46113D01*
X49809Y-45956D01*
X49690Y-45836D01*
X49533Y-45770D01*
X49363Y-45770D01*
X49206Y-45835D01*
X49086Y-45954D01*
X49020Y-46111D01*
X49020Y-46281D01*
X49085Y-46438D01*
X49204Y-46558D01*
X49361Y-46624D01*
X49531Y-46624D01*
X49688Y-46559D01*
X49808Y-46440D01*
X49874Y-46283D01*
X49874Y-46667D01*
X48984Y-46655D01*
X48721Y-46525D01*
X48808Y-46440D01*
X48874Y-46283D01*
X48874Y-46113D01*
X48874Y-45283D01*
X48874Y-45113D01*
X48809Y-44956D01*
X48690Y-44836D01*
X48533Y-44770D01*
X48363Y-44770D01*
X48206Y-44835D01*
X48086Y-44954D01*
X48020Y-45111D01*
X48020Y-45281D01*
X48085Y-45438D01*
X48204Y-45558D01*
X48361Y-45624D01*
X48531Y-45624D01*
X48688Y-45559D01*
X48808Y-45440D01*
X48874Y-45283D01*
X48874Y-46113D01*
X48809Y-45956D01*
X48690Y-45836D01*
X48533Y-45770D01*
X48363Y-45770D01*
X48206Y-45835D01*
X48086Y-45954D01*
X48020Y-46111D01*
X48020Y-46178D01*
X46695Y-45524D01*
X46683Y-45506D01*
X47052Y-45354D01*
X47354Y-45054D01*
X47517Y-44661D01*
X47517Y-44235D01*
X47354Y-43842D01*
X47054Y-43540D01*
X46661Y-43377D01*
X46235Y-43377D01*
X45842Y-43540D01*
X45544Y-43835D01*
X44644Y-42513D01*
X44664Y-31049D01*
X45254Y-28497D01*
X45450Y-28336D01*
X45540Y-28552D01*
X45840Y-28854D01*
X46233Y-29017D01*
X46659Y-29017D01*
X47052Y-28854D01*
X47354Y-28554D01*
X47517Y-28161D01*
X47517Y-27735D01*
X47354Y-27342D01*
X47054Y-27040D01*
X47043Y-27035D01*
X47635Y-26553D01*
X48034Y-26316D01*
X48085Y-26438D01*
X48204Y-26558D01*
X48361Y-26624D01*
X48531Y-26624D01*
X48688Y-26559D01*
X48808Y-26440D01*
X48874Y-26283D01*
X48874Y-26113D01*
X48809Y-25956D01*
X48748Y-25894D01*
X48853Y-25833D01*
X49211Y-25832D01*
X49206Y-25835D01*
X49086Y-25954D01*
X49020Y-26111D01*
X49020Y-26281D01*
X49085Y-26438D01*
X49204Y-26558D01*
X49361Y-26624D01*
X49531Y-26624D01*
X49688Y-26559D01*
X49808Y-26440D01*
X49874Y-26283D01*
X49874Y-26113D01*
X49809Y-25956D01*
X49690Y-25836D01*
X49681Y-25832D01*
X50213Y-25831D01*
X50206Y-25835D01*
X50086Y-25954D01*
X50020Y-26111D01*
X50020Y-26281D01*
X50085Y-26438D01*
X50204Y-26558D01*
X50361Y-26624D01*
X50531Y-26624D01*
X50688Y-26559D01*
X50808Y-26440D01*
X50874Y-26283D01*
X50874Y-26113D01*
X50809Y-25956D01*
X50690Y-25836D01*
X50679Y-25831D01*
X51215Y-25831D01*
X51206Y-25835D01*
X51086Y-25954D01*
X51020Y-26111D01*
X51020Y-26281D01*
X51085Y-26438D01*
X51204Y-26558D01*
X51361Y-26624D01*
X51531Y-26624D01*
X51688Y-26559D01*
X51808Y-26440D01*
X51874Y-26283D01*
X51874Y-26113D01*
X51809Y-25956D01*
X51690Y-25836D01*
X51677Y-25830D01*
X52217Y-25830D01*
X52206Y-25835D01*
X52086Y-25954D01*
X52020Y-26111D01*
X52020Y-26281D01*
X52085Y-26438D01*
X52204Y-26558D01*
X52361Y-26624D01*
X52531Y-26624D01*
X52688Y-26559D01*
X52808Y-26440D01*
X52874Y-26283D01*
X52874Y-26113D01*
X52809Y-25956D01*
X52690Y-25836D01*
X52675Y-25829D01*
X53219Y-25829D01*
X53206Y-25835D01*
X53086Y-25954D01*
X53020Y-26111D01*
X53020Y-26281D01*
X53085Y-26438D01*
X53204Y-26558D01*
X53361Y-26624D01*
X53531Y-26624D01*
X53688Y-26559D01*
X53808Y-26440D01*
X53874Y-26283D01*
X53874Y-26113D01*
X53809Y-25956D01*
X53690Y-25836D01*
X53673Y-25828D01*
X54221Y-25828D01*
X54206Y-25835D01*
X54086Y-25954D01*
X54020Y-26111D01*
X54020Y-26281D01*
X54085Y-26438D01*
X54204Y-26558D01*
X54361Y-26624D01*
X54531Y-26624D01*
X54688Y-26559D01*
X54808Y-26440D01*
X54874Y-26283D01*
X54874Y-26113D01*
X54809Y-25956D01*
X54690Y-25836D01*
X54671Y-25828D01*
X55223Y-25827D01*
X55206Y-25835D01*
X55086Y-25954D01*
X55020Y-26111D01*
X55020Y-26281D01*
X55085Y-26438D01*
X55204Y-26558D01*
X55361Y-26624D01*
X55531Y-26624D01*
X55688Y-26559D01*
X55808Y-26440D01*
X55874Y-26283D01*
X55874Y-26113D01*
X55809Y-25956D01*
X55690Y-25836D01*
X55669Y-25827D01*
X56225Y-25826D01*
X56206Y-25835D01*
X56086Y-25954D01*
X56020Y-26111D01*
X56020Y-26281D01*
X56085Y-26438D01*
X56204Y-26558D01*
X56361Y-26624D01*
X56531Y-26624D01*
X56688Y-26559D01*
X56808Y-26440D01*
X56874Y-26283D01*
X56874Y-26113D01*
X56809Y-25956D01*
X56690Y-25836D01*
X56667Y-25826D01*
X57227Y-25825D01*
X57206Y-25835D01*
X57086Y-25954D01*
X57020Y-26111D01*
X57020Y-26281D01*
X57085Y-26438D01*
X57204Y-26558D01*
X57361Y-26624D01*
X57531Y-26624D01*
X57688Y-26559D01*
X57808Y-26440D01*
X57874Y-26283D01*
X57874Y-26113D01*
X57809Y-25956D01*
X57690Y-25836D01*
X57665Y-25825D01*
X58229Y-25825D01*
X58206Y-25835D01*
X58086Y-25954D01*
X58020Y-26111D01*
X58020Y-26281D01*
X58085Y-26438D01*
X58204Y-26558D01*
X58361Y-26624D01*
X58531Y-26624D01*
X58688Y-26559D01*
X58808Y-26440D01*
X58874Y-26283D01*
X58874Y-26113D01*
X58809Y-25956D01*
X58690Y-25836D01*
X58663Y-25824D01*
X59231Y-25824D01*
X59206Y-25835D01*
X59086Y-25954D01*
X59020Y-26111D01*
X59020Y-26281D01*
X59085Y-26438D01*
X59204Y-26558D01*
X59361Y-26624D01*
X59531Y-26624D01*
X59688Y-26559D01*
X59808Y-26440D01*
X59874Y-26283D01*
X59874Y-26113D01*
X59809Y-25956D01*
X59690Y-25836D01*
X59661Y-25823D01*
X60233Y-25823D01*
X60206Y-25835D01*
X60086Y-25954D01*
X60020Y-26111D01*
X60020Y-26281D01*
X60085Y-26438D01*
X60204Y-26558D01*
X60361Y-26624D01*
X60531Y-26624D01*
X60688Y-26559D01*
X60808Y-26440D01*
X60874Y-26283D01*
X60874Y-26113D01*
X60809Y-25956D01*
X60690Y-25836D01*
X60659Y-25823D01*
X61235Y-25822D01*
X61206Y-25835D01*
X61086Y-25954D01*
X61020Y-26111D01*
X61020Y-26281D01*
X61085Y-26438D01*
X61204Y-26558D01*
X61361Y-26624D01*
X61531Y-26624D01*
X61688Y-26559D01*
X61808Y-26440D01*
X61874Y-26283D01*
X61874Y-26113D01*
X61809Y-25956D01*
X61690Y-25836D01*
X61657Y-25822D01*
X62237Y-25821D01*
X62206Y-25835D01*
X62086Y-25954D01*
X62020Y-26111D01*
X62020Y-26281D01*
X62085Y-26438D01*
X62204Y-26558D01*
X62361Y-26624D01*
X62531Y-26624D01*
X62688Y-26559D01*
X62808Y-26440D01*
X62874Y-26283D01*
X62874Y-26113D01*
X62809Y-25956D01*
X62690Y-25836D01*
X62655Y-25821D01*
X63239Y-25820D01*
X63206Y-25835D01*
X63086Y-25954D01*
X63020Y-26111D01*
X63020Y-26281D01*
X63085Y-26438D01*
X63204Y-26558D01*
X63361Y-26624D01*
X63531Y-26624D01*
X63688Y-26559D01*
X63808Y-26440D01*
X63874Y-26283D01*
X63874Y-26113D01*
X63809Y-25956D01*
X63690Y-25836D01*
X63653Y-25820D01*
X64242Y-25820D01*
X64206Y-25835D01*
X64086Y-25954D01*
X64020Y-26111D01*
X64020Y-26281D01*
X64085Y-26438D01*
X64204Y-26558D01*
X64361Y-26624D01*
X64531Y-26624D01*
X64688Y-26559D01*
X64808Y-26440D01*
X64874Y-26283D01*
X64874Y-26113D01*
X64809Y-25956D01*
X64690Y-25836D01*
X64651Y-25819D01*
X65244Y-25819D01*
X65206Y-25835D01*
X65086Y-25954D01*
X65020Y-26111D01*
X65020Y-26281D01*
X65085Y-26438D01*
X65204Y-26558D01*
X65361Y-26624D01*
X65531Y-26624D01*
X65688Y-26559D01*
X65808Y-26440D01*
X65874Y-26283D01*
X65874Y-26113D01*
X65809Y-25956D01*
X65690Y-25836D01*
X65649Y-25818D01*
X66246Y-25818D01*
X66206Y-25835D01*
X66086Y-25954D01*
X66020Y-26111D01*
X66020Y-26281D01*
X66085Y-26438D01*
X66204Y-26558D01*
X66361Y-26624D01*
X66531Y-26624D01*
X66688Y-26559D01*
X66808Y-26440D01*
X66874Y-26283D01*
X66874Y-26113D01*
X66809Y-25956D01*
X66690Y-25836D01*
X66647Y-25818D01*
X67248Y-25817D01*
X67206Y-25835D01*
X67086Y-25954D01*
X67020Y-26111D01*
X67020Y-26281D01*
X67085Y-26438D01*
X67204Y-26558D01*
X67361Y-26624D01*
X67531Y-26624D01*
X67688Y-26559D01*
X67808Y-26440D01*
X67874Y-26283D01*
X67874Y-26113D01*
X67809Y-25956D01*
X67690Y-25836D01*
X67645Y-25817D01*
X68250Y-25816D01*
X68206Y-25835D01*
X68086Y-25954D01*
X68020Y-26111D01*
X68020Y-26281D01*
X68085Y-26438D01*
X68204Y-26558D01*
X68361Y-26624D01*
X68531Y-26624D01*
X68688Y-26559D01*
X68808Y-26440D01*
X68874Y-26283D01*
X68874Y-26113D01*
X68809Y-25956D01*
X68690Y-25836D01*
X68643Y-25816D01*
X69252Y-25815D01*
X69206Y-25835D01*
X69086Y-25954D01*
X69020Y-26111D01*
X69020Y-26281D01*
X69085Y-26438D01*
X69204Y-26558D01*
X69361Y-26624D01*
X69531Y-26624D01*
X69688Y-26559D01*
X69808Y-26440D01*
X69874Y-26283D01*
X69874Y-26113D01*
X69809Y-25956D01*
X69690Y-25836D01*
X69641Y-25815D01*
X69960Y-25815D01*
X69951Y-25838D01*
X69951Y-25906D01*
X69951Y-26105D01*
X69993Y-26147D01*
X70347Y-26147D01*
X70397Y-26147D01*
X70497Y-26147D01*
X70547Y-26147D01*
X70901Y-26147D01*
X70943Y-26105D01*
X70943Y-25906D01*
X70943Y-25838D01*
X70933Y-25814D01*
X71500Y-25814D01*
X71814Y-25817D01*
X71540Y-26090D01*
X71377Y-26483D01*
X71377Y-26909D01*
X71540Y-27302D01*
X71840Y-27604D01*
X72233Y-27767D01*
X72659Y-27767D01*
X73052Y-27604D01*
X73354Y-27304D01*
X73517Y-26911D01*
X73517Y-26485D01*
X73354Y-26092D01*
X73093Y-25829D01*
X75907Y-25857D01*
X77176Y-26607D01*
X77588Y-28560D01*
M02*
