G04 (created by PCBNEW-RS274X (2012-jan-04)-stable) date Tue Sep 11 14:05:08 2012*
G01*
G70*
G90*
%MOIN*%
G04 Gerber Fmt 3.4, Leading zero omitted, Abs format*
%FSLAX34Y34*%
G04 APERTURE LIST*
%ADD10C,0.006000*%
%ADD11C,0.012000*%
%ADD12C,0.040200*%
%ADD13C,0.180000*%
%ADD14R,0.065000X0.065000*%
%ADD15C,0.051200*%
%ADD16C,0.011800*%
%ADD17C,0.009800*%
%ADD18C,0.011800*%
G04 APERTURE END LIST*
G54D10*
X04000Y-04000D02*
X113000Y-04000D01*
X113000Y-78670D01*
X04000Y-78670D01*
X04000Y-04000D01*
X04700Y-04700D02*
X112300Y-04700D01*
X112300Y-77970D01*
X04700Y-77970D01*
X04700Y-04700D01*
X25800Y-04000D02*
X25800Y-04700D01*
X15043Y-04552D02*
X14757Y-04552D01*
X14900Y-04552D02*
X14900Y-04052D01*
X14852Y-04124D01*
X14805Y-04171D01*
X14757Y-04195D01*
X25800Y-78670D02*
X25800Y-77970D01*
X15043Y-78522D02*
X14757Y-78522D01*
X14900Y-78522D02*
X14900Y-78022D01*
X14852Y-78094D01*
X14805Y-78141D01*
X14757Y-78165D01*
X47600Y-04000D02*
X47600Y-04700D01*
X36557Y-04100D02*
X36581Y-04076D01*
X36629Y-04052D01*
X36748Y-04052D01*
X36795Y-04076D01*
X36819Y-04100D01*
X36843Y-04148D01*
X36843Y-04195D01*
X36819Y-04267D01*
X36533Y-04552D01*
X36843Y-04552D01*
X47600Y-78670D02*
X47600Y-77970D01*
X36557Y-78070D02*
X36581Y-78046D01*
X36629Y-78022D01*
X36748Y-78022D01*
X36795Y-78046D01*
X36819Y-78070D01*
X36843Y-78118D01*
X36843Y-78165D01*
X36819Y-78237D01*
X36533Y-78522D01*
X36843Y-78522D01*
X69400Y-04000D02*
X69400Y-04700D01*
X58333Y-04052D02*
X58643Y-04052D01*
X58476Y-04243D01*
X58548Y-04243D01*
X58595Y-04267D01*
X58619Y-04290D01*
X58643Y-04338D01*
X58643Y-04457D01*
X58619Y-04505D01*
X58595Y-04529D01*
X58548Y-04552D01*
X58405Y-04552D01*
X58357Y-04529D01*
X58333Y-04505D01*
X69400Y-78670D02*
X69400Y-77970D01*
X58333Y-78022D02*
X58643Y-78022D01*
X58476Y-78213D01*
X58548Y-78213D01*
X58595Y-78237D01*
X58619Y-78260D01*
X58643Y-78308D01*
X58643Y-78427D01*
X58619Y-78475D01*
X58595Y-78499D01*
X58548Y-78522D01*
X58405Y-78522D01*
X58357Y-78499D01*
X58333Y-78475D01*
X91200Y-04000D02*
X91200Y-04700D01*
X80395Y-04219D02*
X80395Y-04552D01*
X80276Y-04029D02*
X80157Y-04386D01*
X80467Y-04386D01*
X91200Y-78670D02*
X91200Y-77970D01*
X80395Y-78189D02*
X80395Y-78522D01*
X80276Y-77999D02*
X80157Y-78356D01*
X80467Y-78356D01*
X102219Y-04052D02*
X101981Y-04052D01*
X101957Y-04290D01*
X101981Y-04267D01*
X102029Y-04243D01*
X102148Y-04243D01*
X102195Y-04267D01*
X102219Y-04290D01*
X102243Y-04338D01*
X102243Y-04457D01*
X102219Y-04505D01*
X102195Y-04529D01*
X102148Y-04552D01*
X102029Y-04552D01*
X101981Y-04529D01*
X101957Y-04505D01*
X102219Y-78022D02*
X101981Y-78022D01*
X101957Y-78260D01*
X101981Y-78237D01*
X102029Y-78213D01*
X102148Y-78213D01*
X102195Y-78237D01*
X102219Y-78260D01*
X102243Y-78308D01*
X102243Y-78427D01*
X102219Y-78475D01*
X102195Y-78499D01*
X102148Y-78522D01*
X102029Y-78522D01*
X101981Y-78499D01*
X101957Y-78475D01*
X04000Y-28890D02*
X04700Y-28890D01*
X04231Y-16510D02*
X04469Y-16510D01*
X04184Y-16652D02*
X04350Y-16152D01*
X04517Y-16652D01*
X113000Y-28890D02*
X112300Y-28890D01*
X112531Y-16510D02*
X112769Y-16510D01*
X112484Y-16652D02*
X112650Y-16152D01*
X112817Y-16652D01*
X04000Y-53780D02*
X04700Y-53780D01*
X04386Y-41280D02*
X04457Y-41304D01*
X04481Y-41328D01*
X04505Y-41376D01*
X04505Y-41447D01*
X04481Y-41495D01*
X04457Y-41519D01*
X04410Y-41542D01*
X04219Y-41542D01*
X04219Y-41042D01*
X04386Y-41042D01*
X04433Y-41066D01*
X04457Y-41090D01*
X04481Y-41138D01*
X04481Y-41185D01*
X04457Y-41233D01*
X04433Y-41257D01*
X04386Y-41280D01*
X04219Y-41280D01*
X113000Y-53780D02*
X112300Y-53780D01*
X112686Y-41280D02*
X112757Y-41304D01*
X112781Y-41328D01*
X112805Y-41376D01*
X112805Y-41447D01*
X112781Y-41495D01*
X112757Y-41519D01*
X112710Y-41542D01*
X112519Y-41542D01*
X112519Y-41042D01*
X112686Y-41042D01*
X112733Y-41066D01*
X112757Y-41090D01*
X112781Y-41138D01*
X112781Y-41185D01*
X112757Y-41233D01*
X112733Y-41257D01*
X112686Y-41280D01*
X112519Y-41280D01*
X04505Y-66385D02*
X04481Y-66409D01*
X04410Y-66432D01*
X04362Y-66432D01*
X04290Y-66409D01*
X04243Y-66361D01*
X04219Y-66313D01*
X04195Y-66218D01*
X04195Y-66147D01*
X04219Y-66051D01*
X04243Y-66004D01*
X04290Y-65956D01*
X04362Y-65932D01*
X04410Y-65932D01*
X04481Y-65956D01*
X04505Y-65980D01*
X112805Y-66385D02*
X112781Y-66409D01*
X112710Y-66432D01*
X112662Y-66432D01*
X112590Y-66409D01*
X112543Y-66361D01*
X112519Y-66313D01*
X112495Y-66218D01*
X112495Y-66147D01*
X112519Y-66051D01*
X112543Y-66004D01*
X112590Y-65956D01*
X112662Y-65932D01*
X112710Y-65932D01*
X112781Y-65956D01*
X112805Y-65980D01*
G54D11*
X79443Y-76413D02*
X79443Y-75813D01*
X79586Y-75813D01*
X79671Y-75841D01*
X79729Y-75899D01*
X79757Y-75956D01*
X79786Y-76070D01*
X79786Y-76156D01*
X79757Y-76270D01*
X79729Y-76327D01*
X79671Y-76384D01*
X79586Y-76413D01*
X79443Y-76413D01*
X80300Y-76413D02*
X80300Y-76099D01*
X80271Y-76041D01*
X80214Y-76013D01*
X80100Y-76013D01*
X80043Y-76041D01*
X80300Y-76384D02*
X80243Y-76413D01*
X80100Y-76413D01*
X80043Y-76384D01*
X80014Y-76327D01*
X80014Y-76270D01*
X80043Y-76213D01*
X80100Y-76184D01*
X80243Y-76184D01*
X80300Y-76156D01*
X80500Y-76013D02*
X80729Y-76013D01*
X80586Y-75813D02*
X80586Y-76327D01*
X80614Y-76384D01*
X80672Y-76413D01*
X80729Y-76413D01*
X81157Y-76384D02*
X81100Y-76413D01*
X80986Y-76413D01*
X80929Y-76384D01*
X80900Y-76327D01*
X80900Y-76099D01*
X80929Y-76041D01*
X80986Y-76013D01*
X81100Y-76013D01*
X81157Y-76041D01*
X81186Y-76099D01*
X81186Y-76156D01*
X80900Y-76213D01*
X81443Y-76356D02*
X81471Y-76384D01*
X81443Y-76413D01*
X81414Y-76384D01*
X81443Y-76356D01*
X81443Y-76413D01*
X81443Y-76041D02*
X81471Y-76070D01*
X81443Y-76099D01*
X81414Y-76070D01*
X81443Y-76041D01*
X81443Y-76099D01*
X82500Y-76413D02*
X82157Y-76413D01*
X82329Y-76413D02*
X82329Y-75813D01*
X82272Y-75899D01*
X82214Y-75956D01*
X82157Y-75984D01*
X82871Y-75813D02*
X82928Y-75813D01*
X82985Y-75841D01*
X83014Y-75870D01*
X83043Y-75927D01*
X83071Y-76041D01*
X83071Y-76184D01*
X83043Y-76299D01*
X83014Y-76356D01*
X82985Y-76384D01*
X82928Y-76413D01*
X82871Y-76413D01*
X82814Y-76384D01*
X82785Y-76356D01*
X82757Y-76299D01*
X82728Y-76184D01*
X82728Y-76041D01*
X82757Y-75927D01*
X82785Y-75870D01*
X82814Y-75841D01*
X82871Y-75813D01*
X83756Y-76384D02*
X83813Y-76413D01*
X83928Y-76413D01*
X83985Y-76384D01*
X84013Y-76327D01*
X84013Y-76299D01*
X83985Y-76241D01*
X83928Y-76213D01*
X83842Y-76213D01*
X83785Y-76184D01*
X83756Y-76127D01*
X83756Y-76099D01*
X83785Y-76041D01*
X83842Y-76013D01*
X83928Y-76013D01*
X83985Y-76041D01*
X84499Y-76384D02*
X84442Y-76413D01*
X84328Y-76413D01*
X84271Y-76384D01*
X84242Y-76327D01*
X84242Y-76099D01*
X84271Y-76041D01*
X84328Y-76013D01*
X84442Y-76013D01*
X84499Y-76041D01*
X84528Y-76099D01*
X84528Y-76156D01*
X84242Y-76213D01*
X84785Y-76013D02*
X84785Y-76613D01*
X84785Y-76041D02*
X84842Y-76013D01*
X84956Y-76013D01*
X85013Y-76041D01*
X85042Y-76070D01*
X85071Y-76127D01*
X85071Y-76299D01*
X85042Y-76356D01*
X85013Y-76384D01*
X84956Y-76413D01*
X84842Y-76413D01*
X84785Y-76384D01*
X85756Y-75870D02*
X85785Y-75841D01*
X85842Y-75813D01*
X85985Y-75813D01*
X86042Y-75841D01*
X86071Y-75870D01*
X86099Y-75927D01*
X86099Y-75984D01*
X86071Y-76070D01*
X85728Y-76413D01*
X86099Y-76413D01*
X86470Y-75813D02*
X86527Y-75813D01*
X86584Y-75841D01*
X86613Y-75870D01*
X86642Y-75927D01*
X86670Y-76041D01*
X86670Y-76184D01*
X86642Y-76299D01*
X86613Y-76356D01*
X86584Y-76384D01*
X86527Y-76413D01*
X86470Y-76413D01*
X86413Y-76384D01*
X86384Y-76356D01*
X86356Y-76299D01*
X86327Y-76184D01*
X86327Y-76041D01*
X86356Y-75927D01*
X86384Y-75870D01*
X86413Y-75841D01*
X86470Y-75813D01*
X87241Y-76413D02*
X86898Y-76413D01*
X87070Y-76413D02*
X87070Y-75813D01*
X87013Y-75899D01*
X86955Y-75956D01*
X86898Y-75984D01*
X87469Y-75870D02*
X87498Y-75841D01*
X87555Y-75813D01*
X87698Y-75813D01*
X87755Y-75841D01*
X87784Y-75870D01*
X87812Y-75927D01*
X87812Y-75984D01*
X87784Y-76070D01*
X87441Y-76413D01*
X87812Y-76413D01*
G54D10*
X71043Y-77613D02*
X71043Y-77013D01*
X71386Y-77613D02*
X71129Y-77270D01*
X71386Y-77013D02*
X71043Y-77356D01*
X71643Y-77613D02*
X71643Y-77213D01*
X71643Y-77013D02*
X71614Y-77041D01*
X71643Y-77070D01*
X71671Y-77041D01*
X71643Y-77013D01*
X71643Y-77070D01*
X72272Y-77556D02*
X72243Y-77584D01*
X72157Y-77613D01*
X72100Y-77613D01*
X72015Y-77584D01*
X71957Y-77527D01*
X71929Y-77470D01*
X71900Y-77356D01*
X71900Y-77270D01*
X71929Y-77156D01*
X71957Y-77099D01*
X72015Y-77041D01*
X72100Y-77013D01*
X72157Y-77013D01*
X72243Y-77041D01*
X72272Y-77070D01*
X72786Y-77613D02*
X72786Y-77299D01*
X72757Y-77241D01*
X72700Y-77213D01*
X72586Y-77213D01*
X72529Y-77241D01*
X72786Y-77584D02*
X72729Y-77613D01*
X72586Y-77613D01*
X72529Y-77584D01*
X72500Y-77527D01*
X72500Y-77470D01*
X72529Y-77413D01*
X72586Y-77384D01*
X72729Y-77384D01*
X72786Y-77356D01*
X73329Y-77613D02*
X73329Y-77013D01*
X73329Y-77584D02*
X73272Y-77613D01*
X73158Y-77613D01*
X73100Y-77584D01*
X73072Y-77556D01*
X73043Y-77499D01*
X73043Y-77327D01*
X73072Y-77270D01*
X73100Y-77241D01*
X73158Y-77213D01*
X73272Y-77213D01*
X73329Y-77241D01*
X74072Y-77299D02*
X74272Y-77299D01*
X74358Y-77613D02*
X74072Y-77613D01*
X74072Y-77013D01*
X74358Y-77013D01*
X74615Y-77556D02*
X74643Y-77584D01*
X74615Y-77613D01*
X74586Y-77584D01*
X74615Y-77556D01*
X74615Y-77613D01*
X74901Y-77613D02*
X74901Y-77013D01*
X75044Y-77013D01*
X75129Y-77041D01*
X75187Y-77099D01*
X75215Y-77156D01*
X75244Y-77270D01*
X75244Y-77356D01*
X75215Y-77470D01*
X75187Y-77527D01*
X75129Y-77584D01*
X75044Y-77613D01*
X74901Y-77613D01*
X75501Y-77556D02*
X75529Y-77584D01*
X75501Y-77613D01*
X75472Y-77584D01*
X75501Y-77556D01*
X75501Y-77613D01*
X75758Y-77441D02*
X76044Y-77441D01*
X75701Y-77613D02*
X75901Y-77013D01*
X76101Y-77613D01*
X76301Y-77556D02*
X76329Y-77584D01*
X76301Y-77613D01*
X76272Y-77584D01*
X76301Y-77556D01*
X76301Y-77613D01*
G54D11*
X104586Y-76413D02*
X104386Y-76127D01*
X104243Y-76413D02*
X104243Y-75813D01*
X104471Y-75813D01*
X104529Y-75841D01*
X104557Y-75870D01*
X104586Y-75927D01*
X104586Y-76013D01*
X104557Y-76070D01*
X104529Y-76099D01*
X104471Y-76127D01*
X104243Y-76127D01*
X105071Y-76384D02*
X105014Y-76413D01*
X104900Y-76413D01*
X104843Y-76384D01*
X104814Y-76327D01*
X104814Y-76099D01*
X104843Y-76041D01*
X104900Y-76013D01*
X105014Y-76013D01*
X105071Y-76041D01*
X105100Y-76099D01*
X105100Y-76156D01*
X104814Y-76213D01*
X105300Y-76013D02*
X105443Y-76413D01*
X105585Y-76013D01*
X105814Y-76356D02*
X105842Y-76384D01*
X105814Y-76413D01*
X105785Y-76384D01*
X105814Y-76356D01*
X105814Y-76413D01*
X105814Y-76041D02*
X105842Y-76070D01*
X105814Y-76099D01*
X105785Y-76070D01*
X105814Y-76041D01*
X105814Y-76099D01*
X106671Y-75813D02*
X106728Y-75813D01*
X106785Y-75841D01*
X106814Y-75870D01*
X106843Y-75927D01*
X106871Y-76041D01*
X106871Y-76184D01*
X106843Y-76299D01*
X106814Y-76356D01*
X106785Y-76384D01*
X106728Y-76413D01*
X106671Y-76413D01*
X106614Y-76384D01*
X106585Y-76356D01*
X106557Y-76299D01*
X106528Y-76184D01*
X106528Y-76041D01*
X106557Y-75927D01*
X106585Y-75870D01*
X106614Y-75841D01*
X106671Y-75813D01*
X107442Y-76413D02*
X107099Y-76413D01*
X107271Y-76413D02*
X107271Y-75813D01*
X107214Y-75899D01*
X107156Y-75956D01*
X107099Y-75984D01*
G54D10*
X71014Y-76384D02*
X71100Y-76413D01*
X71243Y-76413D01*
X71300Y-76384D01*
X71329Y-76356D01*
X71357Y-76299D01*
X71357Y-76241D01*
X71329Y-76184D01*
X71300Y-76156D01*
X71243Y-76127D01*
X71129Y-76099D01*
X71071Y-76070D01*
X71043Y-76041D01*
X71014Y-75984D01*
X71014Y-75927D01*
X71043Y-75870D01*
X71071Y-75841D01*
X71129Y-75813D01*
X71271Y-75813D01*
X71357Y-75841D01*
X71614Y-76413D02*
X71614Y-76013D01*
X71614Y-75813D02*
X71585Y-75841D01*
X71614Y-75870D01*
X71642Y-75841D01*
X71614Y-75813D01*
X71614Y-75870D01*
X71843Y-76013D02*
X72157Y-76013D01*
X71843Y-76413D01*
X72157Y-76413D01*
X72614Y-76384D02*
X72557Y-76413D01*
X72443Y-76413D01*
X72386Y-76384D01*
X72357Y-76327D01*
X72357Y-76099D01*
X72386Y-76041D01*
X72443Y-76013D01*
X72557Y-76013D01*
X72614Y-76041D01*
X72643Y-76099D01*
X72643Y-76156D01*
X72357Y-76213D01*
X72900Y-76356D02*
X72928Y-76384D01*
X72900Y-76413D01*
X72871Y-76384D01*
X72900Y-76356D01*
X72900Y-76413D01*
X72900Y-76041D02*
X72928Y-76070D01*
X72900Y-76099D01*
X72871Y-76070D01*
X72900Y-76041D01*
X72900Y-76099D01*
X73614Y-76241D02*
X73900Y-76241D01*
X73557Y-76413D02*
X73757Y-75813D01*
X73957Y-76413D01*
X74414Y-76013D02*
X74414Y-76413D01*
X74271Y-75784D02*
X74128Y-76213D01*
X74500Y-76213D01*
X104243Y-77613D02*
X104243Y-77013D01*
X104786Y-77613D02*
X104786Y-77013D01*
X104786Y-77584D02*
X104729Y-77613D01*
X104615Y-77613D01*
X104557Y-77584D01*
X104529Y-77556D01*
X104500Y-77499D01*
X104500Y-77327D01*
X104529Y-77270D01*
X104557Y-77241D01*
X104615Y-77213D01*
X104729Y-77213D01*
X104786Y-77241D01*
X105072Y-77556D02*
X105100Y-77584D01*
X105072Y-77613D01*
X105043Y-77584D01*
X105072Y-77556D01*
X105072Y-77613D01*
X105072Y-77241D02*
X105100Y-77270D01*
X105072Y-77299D01*
X105043Y-77270D01*
X105072Y-77241D01*
X105072Y-77299D01*
X106129Y-77613D02*
X105786Y-77613D01*
X105958Y-77613D02*
X105958Y-77013D01*
X105901Y-77099D01*
X105843Y-77156D01*
X105786Y-77184D01*
X106814Y-76984D02*
X106300Y-77756D01*
X107329Y-77613D02*
X106986Y-77613D01*
X107158Y-77613D02*
X107158Y-77013D01*
X107101Y-77099D01*
X107043Y-77156D01*
X106986Y-77184D01*
G54D11*
X70957Y-74613D02*
X71300Y-74613D01*
X71129Y-75213D02*
X71129Y-74613D01*
X71500Y-75213D02*
X71500Y-74813D01*
X71500Y-74613D02*
X71471Y-74641D01*
X71500Y-74670D01*
X71528Y-74641D01*
X71500Y-74613D01*
X71500Y-74670D01*
X71700Y-74813D02*
X71929Y-74813D01*
X71786Y-74613D02*
X71786Y-75127D01*
X71814Y-75184D01*
X71872Y-75213D01*
X71929Y-75213D01*
X72215Y-75213D02*
X72157Y-75184D01*
X72129Y-75127D01*
X72129Y-74613D01*
X72671Y-75184D02*
X72614Y-75213D01*
X72500Y-75213D01*
X72443Y-75184D01*
X72414Y-75127D01*
X72414Y-74899D01*
X72443Y-74841D01*
X72500Y-74813D01*
X72614Y-74813D01*
X72671Y-74841D01*
X72700Y-74899D01*
X72700Y-74956D01*
X72414Y-75013D01*
X72957Y-75156D02*
X72985Y-75184D01*
X72957Y-75213D01*
X72928Y-75184D01*
X72957Y-75156D01*
X72957Y-75213D01*
X72957Y-74841D02*
X72985Y-74870D01*
X72957Y-74899D01*
X72928Y-74870D01*
X72957Y-74841D01*
X72957Y-74899D01*
X73900Y-74899D02*
X73986Y-74927D01*
X74014Y-74956D01*
X74043Y-75013D01*
X74043Y-75099D01*
X74014Y-75156D01*
X73986Y-75184D01*
X73928Y-75213D01*
X73700Y-75213D01*
X73700Y-74613D01*
X73900Y-74613D01*
X73957Y-74641D01*
X73986Y-74670D01*
X74014Y-74727D01*
X74014Y-74784D01*
X73986Y-74841D01*
X73957Y-74870D01*
X73900Y-74899D01*
X73700Y-74899D01*
X74528Y-75184D02*
X74471Y-75213D01*
X74357Y-75213D01*
X74300Y-75184D01*
X74271Y-75127D01*
X74271Y-74899D01*
X74300Y-74841D01*
X74357Y-74813D01*
X74471Y-74813D01*
X74528Y-74841D01*
X74557Y-74899D01*
X74557Y-74956D01*
X74271Y-75013D01*
X75071Y-75213D02*
X75071Y-74899D01*
X75042Y-74841D01*
X74985Y-74813D01*
X74871Y-74813D01*
X74814Y-74841D01*
X75071Y-75184D02*
X75014Y-75213D01*
X74871Y-75213D01*
X74814Y-75184D01*
X74785Y-75127D01*
X74785Y-75070D01*
X74814Y-75013D01*
X74871Y-74984D01*
X75014Y-74984D01*
X75071Y-74956D01*
X75614Y-74813D02*
X75614Y-75299D01*
X75585Y-75356D01*
X75557Y-75384D01*
X75500Y-75413D01*
X75414Y-75413D01*
X75357Y-75384D01*
X75614Y-75184D02*
X75557Y-75213D01*
X75443Y-75213D01*
X75385Y-75184D01*
X75357Y-75156D01*
X75328Y-75099D01*
X75328Y-74927D01*
X75357Y-74870D01*
X75385Y-74841D01*
X75443Y-74813D01*
X75557Y-74813D01*
X75614Y-74841D01*
X75986Y-75213D02*
X75928Y-75184D01*
X75900Y-75127D01*
X75900Y-74613D01*
X76442Y-75184D02*
X76385Y-75213D01*
X76271Y-75213D01*
X76214Y-75184D01*
X76185Y-75127D01*
X76185Y-74899D01*
X76214Y-74841D01*
X76271Y-74813D01*
X76385Y-74813D01*
X76442Y-74841D01*
X76471Y-74899D01*
X76471Y-74956D01*
X76185Y-75013D01*
X76728Y-75213D02*
X76728Y-74613D01*
X76728Y-74841D02*
X76785Y-74813D01*
X76899Y-74813D01*
X76956Y-74841D01*
X76985Y-74870D01*
X77014Y-74927D01*
X77014Y-75099D01*
X76985Y-75156D01*
X76956Y-75184D01*
X76899Y-75213D01*
X76785Y-75213D01*
X76728Y-75184D01*
X77357Y-75213D02*
X77299Y-75184D01*
X77271Y-75156D01*
X77242Y-75099D01*
X77242Y-74927D01*
X77271Y-74870D01*
X77299Y-74841D01*
X77357Y-74813D01*
X77442Y-74813D01*
X77499Y-74841D01*
X77528Y-74870D01*
X77557Y-74927D01*
X77557Y-75099D01*
X77528Y-75156D01*
X77499Y-75184D01*
X77442Y-75213D01*
X77357Y-75213D01*
X77814Y-74813D02*
X77814Y-75213D01*
X77814Y-74870D02*
X77842Y-74841D01*
X77900Y-74813D01*
X77985Y-74813D01*
X78042Y-74841D01*
X78071Y-74899D01*
X78071Y-75213D01*
X78585Y-75184D02*
X78528Y-75213D01*
X78414Y-75213D01*
X78357Y-75184D01*
X78328Y-75127D01*
X78328Y-74899D01*
X78357Y-74841D01*
X78414Y-74813D01*
X78528Y-74813D01*
X78585Y-74841D01*
X78614Y-74899D01*
X78614Y-74956D01*
X78328Y-75013D01*
X78871Y-74984D02*
X79328Y-74984D01*
X79585Y-75184D02*
X79671Y-75213D01*
X79814Y-75213D01*
X79871Y-75184D01*
X79900Y-75156D01*
X79928Y-75099D01*
X79928Y-75041D01*
X79900Y-74984D01*
X79871Y-74956D01*
X79814Y-74927D01*
X79700Y-74899D01*
X79642Y-74870D01*
X79614Y-74841D01*
X79585Y-74784D01*
X79585Y-74727D01*
X79614Y-74670D01*
X79642Y-74641D01*
X79700Y-74613D01*
X79842Y-74613D01*
X79928Y-74641D01*
X80185Y-74813D02*
X80185Y-75413D01*
X80185Y-74841D02*
X80242Y-74813D01*
X80356Y-74813D01*
X80413Y-74841D01*
X80442Y-74870D01*
X80471Y-74927D01*
X80471Y-75099D01*
X80442Y-75156D01*
X80413Y-75184D01*
X80356Y-75213D01*
X80242Y-75213D01*
X80185Y-75184D01*
X80985Y-75213D02*
X80985Y-74899D01*
X80956Y-74841D01*
X80899Y-74813D01*
X80785Y-74813D01*
X80728Y-74841D01*
X80985Y-75184D02*
X80928Y-75213D01*
X80785Y-75213D01*
X80728Y-75184D01*
X80699Y-75127D01*
X80699Y-75070D01*
X80728Y-75013D01*
X80785Y-74984D01*
X80928Y-74984D01*
X80985Y-74956D01*
X81271Y-75213D02*
X81271Y-74813D01*
X81271Y-74927D02*
X81299Y-74870D01*
X81328Y-74841D01*
X81385Y-74813D01*
X81442Y-74813D01*
X81556Y-74813D02*
X81785Y-74813D01*
X81642Y-74613D02*
X81642Y-75127D01*
X81670Y-75184D01*
X81728Y-75213D01*
X81785Y-75213D01*
X82242Y-75213D02*
X82242Y-74899D01*
X82213Y-74841D01*
X82156Y-74813D01*
X82042Y-74813D01*
X81985Y-74841D01*
X82242Y-75184D02*
X82185Y-75213D01*
X82042Y-75213D01*
X81985Y-75184D01*
X81956Y-75127D01*
X81956Y-75070D01*
X81985Y-75013D01*
X82042Y-74984D01*
X82185Y-74984D01*
X82242Y-74956D01*
X82528Y-74813D02*
X82528Y-75213D01*
X82528Y-74870D02*
X82556Y-74841D01*
X82614Y-74813D01*
X82699Y-74813D01*
X82756Y-74841D01*
X82785Y-74899D01*
X82785Y-75213D01*
X83328Y-74613D02*
X83214Y-74613D01*
X83157Y-74641D01*
X83128Y-74670D01*
X83071Y-74756D01*
X83042Y-74870D01*
X83042Y-75099D01*
X83071Y-75156D01*
X83099Y-75184D01*
X83157Y-75213D01*
X83271Y-75213D01*
X83328Y-75184D01*
X83357Y-75156D01*
X83385Y-75099D01*
X83385Y-74956D01*
X83357Y-74899D01*
X83328Y-74870D01*
X83271Y-74841D01*
X83157Y-74841D01*
X83099Y-74870D01*
X83071Y-74899D01*
X83042Y-74956D01*
X83642Y-74984D02*
X84099Y-74984D01*
X84728Y-75156D02*
X84699Y-75184D01*
X84613Y-75213D01*
X84556Y-75213D01*
X84471Y-75184D01*
X84413Y-75127D01*
X84385Y-75070D01*
X84356Y-74956D01*
X84356Y-74870D01*
X84385Y-74756D01*
X84413Y-74699D01*
X84471Y-74641D01*
X84556Y-74613D01*
X84613Y-74613D01*
X84699Y-74641D01*
X84728Y-74670D01*
X85242Y-75213D02*
X85242Y-74899D01*
X85213Y-74841D01*
X85156Y-74813D01*
X85042Y-74813D01*
X84985Y-74841D01*
X85242Y-75184D02*
X85185Y-75213D01*
X85042Y-75213D01*
X84985Y-75184D01*
X84956Y-75127D01*
X84956Y-75070D01*
X84985Y-75013D01*
X85042Y-74984D01*
X85185Y-74984D01*
X85242Y-74956D01*
X85528Y-74813D02*
X85528Y-75413D01*
X85528Y-74841D02*
X85585Y-74813D01*
X85699Y-74813D01*
X85756Y-74841D01*
X85785Y-74870D01*
X85814Y-74927D01*
X85814Y-75099D01*
X85785Y-75156D01*
X85756Y-75184D01*
X85699Y-75213D01*
X85585Y-75213D01*
X85528Y-75184D01*
X86299Y-75184D02*
X86242Y-75213D01*
X86128Y-75213D01*
X86071Y-75184D01*
X86042Y-75127D01*
X86042Y-74899D01*
X86071Y-74841D01*
X86128Y-74813D01*
X86242Y-74813D01*
X86299Y-74841D01*
X86328Y-74899D01*
X86328Y-74956D01*
X86042Y-75013D01*
G54D10*
X71243Y-72499D02*
X71043Y-72499D01*
X71043Y-72813D02*
X71043Y-72213D01*
X71329Y-72213D01*
X71557Y-72813D02*
X71557Y-72413D01*
X71557Y-72213D02*
X71528Y-72241D01*
X71557Y-72270D01*
X71585Y-72241D01*
X71557Y-72213D01*
X71557Y-72270D01*
X71929Y-72813D02*
X71871Y-72784D01*
X71843Y-72727D01*
X71843Y-72213D01*
X72385Y-72784D02*
X72328Y-72813D01*
X72214Y-72813D01*
X72157Y-72784D01*
X72128Y-72727D01*
X72128Y-72499D01*
X72157Y-72441D01*
X72214Y-72413D01*
X72328Y-72413D01*
X72385Y-72441D01*
X72414Y-72499D01*
X72414Y-72556D01*
X72128Y-72613D01*
X72671Y-72756D02*
X72699Y-72784D01*
X72671Y-72813D01*
X72642Y-72784D01*
X72671Y-72756D01*
X72671Y-72813D01*
X72671Y-72441D02*
X72699Y-72470D01*
X72671Y-72499D01*
X72642Y-72470D01*
X72671Y-72441D01*
X72671Y-72499D01*
X73414Y-72813D02*
X73414Y-72213D01*
X73414Y-72441D02*
X73471Y-72413D01*
X73585Y-72413D01*
X73642Y-72441D01*
X73671Y-72470D01*
X73700Y-72527D01*
X73700Y-72699D01*
X73671Y-72756D01*
X73642Y-72784D01*
X73585Y-72813D01*
X73471Y-72813D01*
X73414Y-72784D01*
X74043Y-72813D02*
X73985Y-72784D01*
X73957Y-72756D01*
X73928Y-72699D01*
X73928Y-72527D01*
X73957Y-72470D01*
X73985Y-72441D01*
X74043Y-72413D01*
X74128Y-72413D01*
X74185Y-72441D01*
X74214Y-72470D01*
X74243Y-72527D01*
X74243Y-72699D01*
X74214Y-72756D01*
X74185Y-72784D01*
X74128Y-72813D01*
X74043Y-72813D01*
X74500Y-72413D02*
X74500Y-72813D01*
X74500Y-72470D02*
X74528Y-72441D01*
X74586Y-72413D01*
X74671Y-72413D01*
X74728Y-72441D01*
X74757Y-72499D01*
X74757Y-72813D01*
X75271Y-72784D02*
X75214Y-72813D01*
X75100Y-72813D01*
X75043Y-72784D01*
X75014Y-72727D01*
X75014Y-72499D01*
X75043Y-72441D01*
X75100Y-72413D01*
X75214Y-72413D01*
X75271Y-72441D01*
X75300Y-72499D01*
X75300Y-72556D01*
X75014Y-72613D01*
X75471Y-72413D02*
X75700Y-72413D01*
X75557Y-72813D02*
X75557Y-72299D01*
X75585Y-72241D01*
X75643Y-72213D01*
X75700Y-72213D01*
X75900Y-72413D02*
X75900Y-73013D01*
X75900Y-72441D02*
X75957Y-72413D01*
X76071Y-72413D01*
X76128Y-72441D01*
X76157Y-72470D01*
X76186Y-72527D01*
X76186Y-72699D01*
X76157Y-72756D01*
X76128Y-72784D01*
X76071Y-72813D01*
X75957Y-72813D01*
X75900Y-72784D01*
X76700Y-72413D02*
X76700Y-72899D01*
X76671Y-72956D01*
X76643Y-72984D01*
X76586Y-73013D01*
X76500Y-73013D01*
X76443Y-72984D01*
X76700Y-72784D02*
X76643Y-72813D01*
X76529Y-72813D01*
X76471Y-72784D01*
X76443Y-72756D01*
X76414Y-72699D01*
X76414Y-72527D01*
X76443Y-72470D01*
X76471Y-72441D01*
X76529Y-72413D01*
X76643Y-72413D01*
X76700Y-72441D01*
X77243Y-72813D02*
X77243Y-72499D01*
X77214Y-72441D01*
X77157Y-72413D01*
X77043Y-72413D01*
X76986Y-72441D01*
X77243Y-72784D02*
X77186Y-72813D01*
X77043Y-72813D01*
X76986Y-72784D01*
X76957Y-72727D01*
X76957Y-72670D01*
X76986Y-72613D01*
X77043Y-72584D01*
X77186Y-72584D01*
X77243Y-72556D01*
X77529Y-72756D02*
X77557Y-72784D01*
X77529Y-72813D01*
X77500Y-72784D01*
X77529Y-72756D01*
X77529Y-72813D01*
X77815Y-72813D02*
X77815Y-72213D01*
X77815Y-72441D02*
X77872Y-72413D01*
X77986Y-72413D01*
X78043Y-72441D01*
X78072Y-72470D01*
X78101Y-72527D01*
X78101Y-72699D01*
X78072Y-72756D01*
X78043Y-72784D01*
X77986Y-72813D01*
X77872Y-72813D01*
X77815Y-72784D01*
X78358Y-72813D02*
X78358Y-72413D01*
X78358Y-72527D02*
X78386Y-72470D01*
X78415Y-72441D01*
X78472Y-72413D01*
X78529Y-72413D01*
X78986Y-72813D02*
X78986Y-72213D01*
X78986Y-72784D02*
X78929Y-72813D01*
X78815Y-72813D01*
X78757Y-72784D01*
X78729Y-72756D01*
X78700Y-72699D01*
X78700Y-72527D01*
X78729Y-72470D01*
X78757Y-72441D01*
X78815Y-72413D01*
X78929Y-72413D01*
X78986Y-72441D01*
X71014Y-73984D02*
X71100Y-74013D01*
X71243Y-74013D01*
X71300Y-73984D01*
X71329Y-73956D01*
X71357Y-73899D01*
X71357Y-73841D01*
X71329Y-73784D01*
X71300Y-73756D01*
X71243Y-73727D01*
X71129Y-73699D01*
X71071Y-73670D01*
X71043Y-73641D01*
X71014Y-73584D01*
X71014Y-73527D01*
X71043Y-73470D01*
X71071Y-73441D01*
X71129Y-73413D01*
X71271Y-73413D01*
X71357Y-73441D01*
X71614Y-74013D02*
X71614Y-73413D01*
X71871Y-74013D02*
X71871Y-73699D01*
X71842Y-73641D01*
X71785Y-73613D01*
X71700Y-73613D01*
X71642Y-73641D01*
X71614Y-73670D01*
X72385Y-73984D02*
X72328Y-74013D01*
X72214Y-74013D01*
X72157Y-73984D01*
X72128Y-73927D01*
X72128Y-73699D01*
X72157Y-73641D01*
X72214Y-73613D01*
X72328Y-73613D01*
X72385Y-73641D01*
X72414Y-73699D01*
X72414Y-73756D01*
X72128Y-73813D01*
X72899Y-73984D02*
X72842Y-74013D01*
X72728Y-74013D01*
X72671Y-73984D01*
X72642Y-73927D01*
X72642Y-73699D01*
X72671Y-73641D01*
X72728Y-73613D01*
X72842Y-73613D01*
X72899Y-73641D01*
X72928Y-73699D01*
X72928Y-73756D01*
X72642Y-73813D01*
X73099Y-73613D02*
X73328Y-73613D01*
X73185Y-73413D02*
X73185Y-73927D01*
X73213Y-73984D01*
X73271Y-74013D01*
X73328Y-74013D01*
X73528Y-73956D02*
X73556Y-73984D01*
X73528Y-74013D01*
X73499Y-73984D01*
X73528Y-73956D01*
X73528Y-74013D01*
X73528Y-73641D02*
X73556Y-73670D01*
X73528Y-73699D01*
X73499Y-73670D01*
X73528Y-73641D01*
X73528Y-73699D01*
X74585Y-74013D02*
X74242Y-74013D01*
X74414Y-74013D02*
X74414Y-73413D01*
X74357Y-73499D01*
X74299Y-73556D01*
X74242Y-73584D01*
X75270Y-73384D02*
X74756Y-74156D01*
X75785Y-74013D02*
X75442Y-74013D01*
X75614Y-74013D02*
X75614Y-73413D01*
X75557Y-73499D01*
X75499Y-73556D01*
X75442Y-73584D01*
X71043Y-70413D02*
X71043Y-69813D01*
X71243Y-70241D01*
X71443Y-69813D01*
X71443Y-70413D01*
X71729Y-70413D02*
X71729Y-70013D01*
X71729Y-69813D02*
X71700Y-69841D01*
X71729Y-69870D01*
X71757Y-69841D01*
X71729Y-69813D01*
X71729Y-69870D01*
X72272Y-70384D02*
X72215Y-70413D01*
X72101Y-70413D01*
X72043Y-70384D01*
X72015Y-70356D01*
X71986Y-70299D01*
X71986Y-70127D01*
X72015Y-70070D01*
X72043Y-70041D01*
X72101Y-70013D01*
X72215Y-70013D01*
X72272Y-70041D01*
X72529Y-70413D02*
X72529Y-69813D01*
X72786Y-70413D02*
X72786Y-70099D01*
X72757Y-70041D01*
X72700Y-70013D01*
X72615Y-70013D01*
X72557Y-70041D01*
X72529Y-70070D01*
X73329Y-70413D02*
X73329Y-70099D01*
X73300Y-70041D01*
X73243Y-70013D01*
X73129Y-70013D01*
X73072Y-70041D01*
X73329Y-70384D02*
X73272Y-70413D01*
X73129Y-70413D01*
X73072Y-70384D01*
X73043Y-70327D01*
X73043Y-70270D01*
X73072Y-70213D01*
X73129Y-70184D01*
X73272Y-70184D01*
X73329Y-70156D01*
X73843Y-70384D02*
X73786Y-70413D01*
X73672Y-70413D01*
X73615Y-70384D01*
X73586Y-70327D01*
X73586Y-70099D01*
X73615Y-70041D01*
X73672Y-70013D01*
X73786Y-70013D01*
X73843Y-70041D01*
X73872Y-70099D01*
X73872Y-70156D01*
X73586Y-70213D01*
X74215Y-70413D02*
X74157Y-70384D01*
X74129Y-70327D01*
X74129Y-69813D01*
X74900Y-70413D02*
X74900Y-69813D01*
X75100Y-70241D01*
X75300Y-69813D01*
X75300Y-70413D01*
X75843Y-70413D02*
X75843Y-70099D01*
X75814Y-70041D01*
X75757Y-70013D01*
X75643Y-70013D01*
X75586Y-70041D01*
X75843Y-70384D02*
X75786Y-70413D01*
X75643Y-70413D01*
X75586Y-70384D01*
X75557Y-70327D01*
X75557Y-70270D01*
X75586Y-70213D01*
X75643Y-70184D01*
X75786Y-70184D01*
X75843Y-70156D01*
X76386Y-70013D02*
X76386Y-70499D01*
X76357Y-70556D01*
X76329Y-70584D01*
X76272Y-70613D01*
X76186Y-70613D01*
X76129Y-70584D01*
X76386Y-70384D02*
X76329Y-70413D01*
X76215Y-70413D01*
X76157Y-70384D01*
X76129Y-70356D01*
X76100Y-70299D01*
X76100Y-70127D01*
X76129Y-70070D01*
X76157Y-70041D01*
X76215Y-70013D01*
X76329Y-70013D01*
X76386Y-70041D01*
X76615Y-70013D02*
X76758Y-70413D01*
X76900Y-70013D02*
X76758Y-70413D01*
X76700Y-70556D01*
X76672Y-70584D01*
X76615Y-70613D01*
X77386Y-70413D02*
X77386Y-70099D01*
X77357Y-70041D01*
X77300Y-70013D01*
X77186Y-70013D01*
X77129Y-70041D01*
X77386Y-70384D02*
X77329Y-70413D01*
X77186Y-70413D01*
X77129Y-70384D01*
X77100Y-70327D01*
X77100Y-70270D01*
X77129Y-70213D01*
X77186Y-70184D01*
X77329Y-70184D01*
X77386Y-70156D01*
X77672Y-70413D02*
X77672Y-70013D01*
X77672Y-70127D02*
X77700Y-70070D01*
X77729Y-70041D01*
X77786Y-70013D01*
X77843Y-70013D01*
X70300Y-69570D02*
X70300Y-77970D01*
X70300Y-71970D02*
X112300Y-71970D01*
X70300Y-69570D02*
X112300Y-69570D01*
X70300Y-74370D02*
X112300Y-74370D01*
X103500Y-75570D02*
X103500Y-77970D01*
X70300Y-76770D02*
X112300Y-76770D01*
X70300Y-75570D02*
X112300Y-75570D01*
X76900Y-75570D02*
X76900Y-76770D01*
G54D12*
X54106Y-29681D03*
X53106Y-29681D03*
X52106Y-29681D03*
X49106Y-29681D03*
X50106Y-29681D03*
X51106Y-29681D03*
G54D13*
X46447Y-27947D03*
X72447Y-26697D03*
X72447Y-45697D03*
X46447Y-44447D03*
G54D14*
X70447Y-26197D03*
G54D15*
X70447Y-27197D03*
X69447Y-26197D03*
X69447Y-27197D03*
X68447Y-26197D03*
X68447Y-27197D03*
X67447Y-26197D03*
X67447Y-27197D03*
X66447Y-26197D03*
X66447Y-27197D03*
X65447Y-26197D03*
X65447Y-27197D03*
X64447Y-26197D03*
X64447Y-27197D03*
X63447Y-26197D03*
X63447Y-27197D03*
X62447Y-26197D03*
X62447Y-27197D03*
X61447Y-26197D03*
X61447Y-27197D03*
X60447Y-26197D03*
X60447Y-27197D03*
X59447Y-26197D03*
X59447Y-27197D03*
X58447Y-26197D03*
X58447Y-27197D03*
X57447Y-26197D03*
X57447Y-27197D03*
X56447Y-26197D03*
X56447Y-27197D03*
X55447Y-26197D03*
X55447Y-27197D03*
X54447Y-26197D03*
X54447Y-27197D03*
X53447Y-26197D03*
X53447Y-27197D03*
X52447Y-26197D03*
X52447Y-27197D03*
X51447Y-26197D03*
X51447Y-27197D03*
X50447Y-26197D03*
X50447Y-27197D03*
X49447Y-26197D03*
X49447Y-27197D03*
X48447Y-26197D03*
X48447Y-27197D03*
G54D14*
X70447Y-45197D03*
G54D15*
X70447Y-46197D03*
X69447Y-45197D03*
X69447Y-46197D03*
X68447Y-45197D03*
X68447Y-46197D03*
X67447Y-45197D03*
X67447Y-46197D03*
X66447Y-45197D03*
X66447Y-46197D03*
X65447Y-45197D03*
X65447Y-46197D03*
X64447Y-45197D03*
X64447Y-46197D03*
X63447Y-45197D03*
X63447Y-46197D03*
X62447Y-45197D03*
X62447Y-46197D03*
X61447Y-45197D03*
X61447Y-46197D03*
X60447Y-45197D03*
X60447Y-46197D03*
X59447Y-45197D03*
X59447Y-46197D03*
X58447Y-45197D03*
X58447Y-46197D03*
X57447Y-45197D03*
X57447Y-46197D03*
X56447Y-45197D03*
X56447Y-46197D03*
X55447Y-45197D03*
X55447Y-46197D03*
X54447Y-45197D03*
X54447Y-46197D03*
X53447Y-45197D03*
X53447Y-46197D03*
X52447Y-45197D03*
X52447Y-46197D03*
X51447Y-45197D03*
X51447Y-46197D03*
X50447Y-45197D03*
X50447Y-46197D03*
X49447Y-45197D03*
X49447Y-46197D03*
X48447Y-45197D03*
X48447Y-46197D03*
G54D14*
X75447Y-31947D03*
G54D15*
X75447Y-32947D03*
X74447Y-31947D03*
X74447Y-32947D03*
X73447Y-31947D03*
X73447Y-32947D03*
X72447Y-31947D03*
X72447Y-32947D03*
X71447Y-31947D03*
X71447Y-32947D03*
G54D16*
X61504Y-42020D03*
X56228Y-41850D03*
X56268Y-44413D03*
X56197Y-43287D03*
X51949Y-38579D03*
X59039Y-34524D03*
X60630Y-33524D03*
X51839Y-35189D03*
X51406Y-34244D03*
X61209Y-33614D03*
X61020Y-33508D03*
X51638Y-34480D03*
X61587Y-33461D03*
X50969Y-33598D03*
X61409Y-33469D03*
X51201Y-33902D03*
X59441Y-34524D03*
X51980Y-39350D03*
X59421Y-34114D03*
X51961Y-37571D03*
X52024Y-37925D03*
X59441Y-34925D03*
X59906Y-33705D03*
X51913Y-36598D03*
X51949Y-37043D03*
X59634Y-33937D03*
X51827Y-35685D03*
X60417Y-33677D03*
X60079Y-33488D03*
X51831Y-36169D03*
X51898Y-34705D03*
X60815Y-33657D03*
X67598Y-36819D03*
X67390Y-33677D03*
X67846Y-30858D03*
X65161Y-37094D03*
X61945Y-27524D03*
X63756Y-29780D03*
X64571Y-37268D03*
X62945Y-27575D03*
X67787Y-31094D03*
X66417Y-31091D03*
X65169Y-29252D03*
X64980Y-30276D03*
X66417Y-30087D03*
X63929Y-26720D03*
X65681Y-30591D03*
X60795Y-27472D03*
X64442Y-36121D03*
X64134Y-36528D03*
X60921Y-26728D03*
X62173Y-34902D03*
X62559Y-35717D03*
X64173Y-35335D03*
X60224Y-34925D03*
X61362Y-35693D03*
X63776Y-34531D03*
X59823Y-36504D03*
X59413Y-38878D03*
X59831Y-37697D03*
X59441Y-37299D03*
X59425Y-35724D03*
X61803Y-37693D03*
X62205Y-37697D03*
X62197Y-36890D03*
X61807Y-36906D03*
X61807Y-37280D03*
X61413Y-37283D03*
X61413Y-37693D03*
X63378Y-38071D03*
X61382Y-38878D03*
X64169Y-38858D03*
X54709Y-29661D03*
X62965Y-36890D03*
X61795Y-38472D03*
X63382Y-39650D03*
X62575Y-39248D03*
X63378Y-36882D03*
X62165Y-36528D03*
X62161Y-39673D03*
X61016Y-36504D03*
X62591Y-38465D03*
X60610Y-38858D03*
X64169Y-37669D03*
X60598Y-37693D03*
X59827Y-39650D03*
X65854Y-30862D03*
X66579Y-30488D03*
X63756Y-27547D03*
X65409Y-37441D03*
X64996Y-34933D03*
X65795Y-32327D03*
X61736Y-29780D03*
X62555Y-28417D03*
X72925Y-42874D03*
X59421Y-37705D03*
X64150Y-39638D03*
X58445Y-40252D03*
X59465Y-36524D03*
X61394Y-39673D03*
X64598Y-34539D03*
X60228Y-39256D03*
X58610Y-34346D03*
X63729Y-35358D03*
X72886Y-43961D03*
X72953Y-41783D03*
X62571Y-38059D03*
X61413Y-36890D03*
X61406Y-34913D03*
X61799Y-36106D03*
X63370Y-37681D03*
X60610Y-36902D03*
X62965Y-39665D03*
X64571Y-38476D03*
X60189Y-35307D03*
X64165Y-36890D03*
X65008Y-40492D03*
X62185Y-38858D03*
X66555Y-31811D03*
X54870Y-28969D03*
X69433Y-29780D03*
X65339Y-33657D03*
X62177Y-37319D03*
X62969Y-34535D03*
X61012Y-37673D03*
X61807Y-38087D03*
X58232Y-40039D03*
X58039Y-44839D03*
X59047Y-45740D03*
X59240Y-40811D03*
X63941Y-45724D03*
X62102Y-40870D03*
X62441Y-44795D03*
X61232Y-40862D03*
X62669Y-40866D03*
X64953Y-45681D03*
X65449Y-44657D03*
X62972Y-40854D03*
X62929Y-45780D03*
X61559Y-40890D03*
X63283Y-44594D03*
X61827Y-40890D03*
X64531Y-40823D03*
X68350Y-44661D03*
X64236Y-40870D03*
X67972Y-45705D03*
X59602Y-44701D03*
X59551Y-40850D03*
X60020Y-45764D03*
X60028Y-40870D03*
X65220Y-40311D03*
X69441Y-44744D03*
X64929Y-40815D03*
X68965Y-45579D03*
X60622Y-40846D03*
X61295Y-44744D03*
X62394Y-40866D03*
X64366Y-44602D03*
X67449Y-44705D03*
X64000Y-40862D03*
X65902Y-27512D03*
X64165Y-36118D03*
X66445Y-44732D03*
X63460Y-40842D03*
X60941Y-40878D03*
X62051Y-45756D03*
X58500Y-44681D03*
X58252Y-40791D03*
X60827Y-44756D03*
X60224Y-40953D03*
X60413Y-40898D03*
X61059Y-45759D03*
X66988Y-45732D03*
X63732Y-40862D03*
X63264Y-40886D03*
X65961Y-45697D03*
X51382Y-30031D03*
X59827Y-35303D03*
X50441Y-29988D03*
X58626Y-34713D03*
X60614Y-34957D03*
X52575Y-30059D03*
X59449Y-36094D03*
X49591Y-29988D03*
X66303Y-40398D03*
X66811Y-34244D03*
X61571Y-28819D03*
X61575Y-29465D03*
X63776Y-36516D03*
X65681Y-32776D03*
X60941Y-28819D03*
X60803Y-29295D03*
X66268Y-34811D03*
X65079Y-38421D03*
X65071Y-35717D03*
X66024Y-35147D03*
X66516Y-34858D03*
X64551Y-39260D03*
X63776Y-39272D03*
X68614Y-41878D03*
X68882Y-41661D03*
X63370Y-38862D03*
X68748Y-43138D03*
X63378Y-39260D03*
X67701Y-29028D03*
X62941Y-26453D03*
X62976Y-35713D03*
X63370Y-35713D03*
X62744Y-27547D03*
G54D17*
X60370Y-32988D02*
X60630Y-33248D01*
X54040Y-32988D02*
X60370Y-32988D01*
X51839Y-35189D02*
X54040Y-32988D01*
X60630Y-33248D02*
X60630Y-33524D01*
X51406Y-34244D02*
X53370Y-32280D01*
X53370Y-32280D02*
X60702Y-32280D01*
X60702Y-32280D02*
X61228Y-32806D01*
X61228Y-32806D02*
X61209Y-33614D01*
X60598Y-32500D02*
X61020Y-32922D01*
X53618Y-32500D02*
X60598Y-32500D01*
X61020Y-32922D02*
X61020Y-33508D01*
X51638Y-34480D02*
X53618Y-32500D01*
X50969Y-33598D02*
X52811Y-31756D01*
X52811Y-31756D02*
X60812Y-31756D01*
X61594Y-33462D02*
X61587Y-33461D01*
X61594Y-32538D02*
X61594Y-33462D01*
X60812Y-31756D02*
X61594Y-32538D01*
X61409Y-32693D02*
X61409Y-33469D01*
X51201Y-33902D02*
X53115Y-31988D01*
X60704Y-31988D02*
X61409Y-32693D01*
X53115Y-31988D02*
X60704Y-31988D01*
X55418Y-34114D02*
X59421Y-34114D01*
X51961Y-37571D02*
X55418Y-34114D01*
X56441Y-37925D02*
X52024Y-37925D01*
X59441Y-34925D02*
X56441Y-37925D01*
X54806Y-33705D02*
X59906Y-33705D01*
X51913Y-36598D02*
X54806Y-33705D01*
X55055Y-33937D02*
X59634Y-33937D01*
X51949Y-37043D02*
X55055Y-33937D01*
X51827Y-35685D02*
X54303Y-33209D01*
X54303Y-33209D02*
X60213Y-33209D01*
X60417Y-33413D02*
X60417Y-33677D01*
X60213Y-33209D02*
X60417Y-33413D01*
X51831Y-36169D02*
X54512Y-33488D01*
X54512Y-33488D02*
X60079Y-33488D01*
X60815Y-33066D02*
X60815Y-33657D01*
X53886Y-32717D02*
X60466Y-32717D01*
X51898Y-34705D02*
X53886Y-32717D01*
X60466Y-32717D02*
X60815Y-33066D01*
X67846Y-30858D02*
X68209Y-31221D01*
X68209Y-31221D02*
X68209Y-34212D01*
X68209Y-34212D02*
X65327Y-37094D01*
X63539Y-29563D02*
X63756Y-29780D01*
X63539Y-29118D02*
X63539Y-29563D01*
G54D18*
X61945Y-27524D02*
X63539Y-29118D01*
G54D17*
X65327Y-37094D02*
X65161Y-37094D01*
X67972Y-34130D02*
X65220Y-36882D01*
X65386Y-29252D02*
X66122Y-29988D01*
X67972Y-31279D02*
X67972Y-34130D01*
X66122Y-30796D02*
X66417Y-31091D01*
G54D18*
X64622Y-29252D02*
X65169Y-29252D01*
G54D17*
X67787Y-31094D02*
X67972Y-31279D01*
X64961Y-36882D02*
X64575Y-37268D01*
X65169Y-29252D02*
X65386Y-29252D01*
X66122Y-29988D02*
X66122Y-30796D01*
G54D18*
X62945Y-27575D02*
X64622Y-29252D01*
G54D17*
X65220Y-36882D02*
X64961Y-36882D01*
X64575Y-37268D02*
X64571Y-37268D01*
X56870Y-41854D02*
X56953Y-41937D01*
X57650Y-42481D02*
X57650Y-42590D01*
X56787Y-42802D02*
X56875Y-42890D01*
X56835Y-42264D02*
X56835Y-42363D01*
X56996Y-41087D02*
X56882Y-41201D01*
X57571Y-44051D02*
X57606Y-44086D01*
X57614Y-41937D02*
X57654Y-41977D01*
X57638Y-41465D02*
X57638Y-41578D01*
X56889Y-42417D02*
X57586Y-42417D01*
X57606Y-44086D02*
X57606Y-44402D01*
X57611Y-42173D02*
X56926Y-42173D01*
X56764Y-43846D02*
X56764Y-43960D01*
X57610Y-43527D02*
X57610Y-43654D01*
X57638Y-41578D02*
X57566Y-41650D01*
X56787Y-42721D02*
X56787Y-42802D01*
X57591Y-42890D02*
X57677Y-42976D01*
X57606Y-44402D02*
X58039Y-44835D01*
X56882Y-41307D02*
X56949Y-41374D01*
X56760Y-43342D02*
X56867Y-43449D01*
X56929Y-41650D02*
X56870Y-41709D01*
X57516Y-43748D02*
X56862Y-43748D01*
X56875Y-42890D02*
X57591Y-42890D01*
X56926Y-42173D02*
X56835Y-42264D01*
X56760Y-43232D02*
X56760Y-43342D01*
X56867Y-43449D02*
X57532Y-43449D01*
X57634Y-40936D02*
X57483Y-41087D01*
X57591Y-43142D02*
X56850Y-43142D01*
X56855Y-44051D02*
X57571Y-44051D01*
X56882Y-41201D02*
X56882Y-41307D01*
X57610Y-43654D02*
X57516Y-43748D01*
X57532Y-43449D02*
X57610Y-43527D01*
X57618Y-42622D02*
X56886Y-42622D01*
X57650Y-42590D02*
X57618Y-42622D01*
X58039Y-44835D02*
X58039Y-44839D01*
X58232Y-40039D02*
X57634Y-40637D01*
X56870Y-41709D02*
X56870Y-41854D01*
X57634Y-40637D02*
X57634Y-40936D01*
X57547Y-41374D02*
X57638Y-41465D01*
X56953Y-41937D02*
X57614Y-41937D01*
X56949Y-41374D02*
X57547Y-41374D01*
X57483Y-41087D02*
X56996Y-41087D01*
X57677Y-43056D02*
X57591Y-43142D01*
X57677Y-42976D02*
X57677Y-43056D01*
X56850Y-43142D02*
X56760Y-43232D01*
X56764Y-43960D02*
X56855Y-44051D01*
X57654Y-42130D02*
X57611Y-42173D01*
X56835Y-42363D02*
X56889Y-42417D01*
X56862Y-43748D02*
X56764Y-43846D01*
X57586Y-42417D02*
X57650Y-42481D01*
X57654Y-41977D02*
X57654Y-42130D01*
X57566Y-41650D02*
X56929Y-41650D01*
X56886Y-42622D02*
X56787Y-42721D01*
X58063Y-43544D02*
X58063Y-43611D01*
X58748Y-43209D02*
X58748Y-43382D01*
X58748Y-41906D02*
X58705Y-41949D01*
X58705Y-41949D02*
X58134Y-41949D01*
X58756Y-41228D02*
X58756Y-41374D01*
X58039Y-42113D02*
X58083Y-42197D01*
X58166Y-41413D02*
X58067Y-41512D01*
X58756Y-41374D02*
X58717Y-41413D01*
X58452Y-41185D02*
X58713Y-41185D01*
X58366Y-41099D02*
X58452Y-41185D01*
X58067Y-42921D02*
X58016Y-43020D01*
X58039Y-42527D02*
X58075Y-42630D01*
X58748Y-41732D02*
X58748Y-41906D01*
X58732Y-42217D02*
X58752Y-42311D01*
X58716Y-42197D02*
X58732Y-42217D01*
X58737Y-44154D02*
X58772Y-44189D01*
X58732Y-42673D02*
X58752Y-42768D01*
X58098Y-42401D02*
X58059Y-42445D01*
X58075Y-42630D02*
X58689Y-42630D01*
X58717Y-43909D02*
X58134Y-43909D01*
X58752Y-43874D02*
X58717Y-43909D01*
X58752Y-42768D02*
X58696Y-42902D01*
X58366Y-40968D02*
X58366Y-41099D01*
X58039Y-42044D02*
X58039Y-42113D01*
X58752Y-42311D02*
X58708Y-42401D01*
X58059Y-42445D02*
X58039Y-42527D01*
X58091Y-43142D02*
X58638Y-43138D01*
X58708Y-42401D02*
X58098Y-42401D01*
X58717Y-41413D02*
X58166Y-41413D01*
X58051Y-43992D02*
X58051Y-44090D01*
X58697Y-43701D02*
X58752Y-43756D01*
X58638Y-43138D02*
X58748Y-43209D01*
X58772Y-44744D02*
X59044Y-45016D01*
X58748Y-43382D02*
X58685Y-43445D01*
X58153Y-43701D02*
X58697Y-43701D01*
X58162Y-43445D02*
X58063Y-43544D01*
X58063Y-43611D02*
X58153Y-43701D01*
X58696Y-42902D02*
X58114Y-42902D01*
X59240Y-40811D02*
X58523Y-40811D01*
X58689Y-42630D02*
X58732Y-42673D01*
X58134Y-43909D02*
X58051Y-43992D01*
X58115Y-44154D02*
X58737Y-44154D01*
X58523Y-40811D02*
X58366Y-40968D01*
X58016Y-43020D02*
X58091Y-43142D01*
X58772Y-44189D02*
X58772Y-44744D01*
X58713Y-41185D02*
X58756Y-41228D01*
X58114Y-42902D02*
X58067Y-42921D01*
X58051Y-44090D02*
X58115Y-44154D01*
X58067Y-41602D02*
X58154Y-41689D01*
X58134Y-41949D02*
X58039Y-42044D01*
X58154Y-41689D02*
X58705Y-41689D01*
X58685Y-43445D02*
X58162Y-43445D01*
X58752Y-43756D02*
X58752Y-43874D01*
X58083Y-42197D02*
X58716Y-42197D01*
X59044Y-45736D02*
X59044Y-45016D01*
X58067Y-41512D02*
X58067Y-41602D01*
X58705Y-41689D02*
X58748Y-41732D01*
X63941Y-42709D02*
X63941Y-45724D01*
X62102Y-40870D02*
X63941Y-42709D01*
X62756Y-43700D02*
X62441Y-44015D01*
X62756Y-43543D02*
X62756Y-43700D01*
X62436Y-44795D02*
X62441Y-44795D01*
X62638Y-42277D02*
X62638Y-42425D01*
X62367Y-43181D02*
X62260Y-43288D01*
X62662Y-43181D02*
X62367Y-43181D01*
X62638Y-42425D02*
X62638Y-42480D01*
X62441Y-44015D02*
X62441Y-44795D01*
X62260Y-43390D02*
X62362Y-43492D01*
X62764Y-42937D02*
X62764Y-43079D01*
X62362Y-43492D02*
X62705Y-43492D01*
X62571Y-42547D02*
X62335Y-42547D01*
X62436Y-42075D02*
X62638Y-42277D01*
X62268Y-42614D02*
X62268Y-42768D01*
X62339Y-42839D02*
X62666Y-42839D01*
X62638Y-42480D02*
X62571Y-42547D01*
X62764Y-43079D02*
X62662Y-43181D01*
X61232Y-40862D02*
X62436Y-42075D01*
X62260Y-43288D02*
X62260Y-43390D01*
X62705Y-43492D02*
X62756Y-43543D01*
X62268Y-42768D02*
X62339Y-42839D01*
X62666Y-42839D02*
X62764Y-42937D01*
X62335Y-42547D02*
X62268Y-42614D01*
X62669Y-40866D02*
X64953Y-43150D01*
X64953Y-43150D02*
X64953Y-45681D01*
X65213Y-43783D02*
X65677Y-43783D01*
X65760Y-43866D02*
X65760Y-44035D01*
X65122Y-44256D02*
X65122Y-44362D01*
X65449Y-44527D02*
X65449Y-44657D01*
X62972Y-40854D02*
X65449Y-43331D01*
X65387Y-44465D02*
X65449Y-44527D01*
X65240Y-44138D02*
X65122Y-44256D01*
X65122Y-44362D02*
X65225Y-44465D01*
X65263Y-43516D02*
X65161Y-43618D01*
X65225Y-44465D02*
X65387Y-44465D01*
X65370Y-43516D02*
X65263Y-43516D01*
X65161Y-43618D02*
X65161Y-43731D01*
X65449Y-43331D02*
X65449Y-43437D01*
X65760Y-44035D02*
X65657Y-44138D01*
X65449Y-43437D02*
X65370Y-43516D01*
X65657Y-44138D02*
X65240Y-44138D01*
X65161Y-43731D02*
X65213Y-43783D01*
X65677Y-43783D02*
X65760Y-43866D01*
X62933Y-42263D02*
X62929Y-45780D01*
X62319Y-41649D02*
X62933Y-42263D01*
X62315Y-41646D02*
X62319Y-41649D01*
X61559Y-40890D02*
X62315Y-41646D01*
X63555Y-42854D02*
X63228Y-42854D01*
X63676Y-44142D02*
X63204Y-44142D01*
X63675Y-43449D02*
X63181Y-43449D01*
X63618Y-42732D02*
X63618Y-42791D01*
X63611Y-43768D02*
X63736Y-43893D01*
X63114Y-43516D02*
X63114Y-43673D01*
X63283Y-44587D02*
X63283Y-44594D01*
X63421Y-42457D02*
X63618Y-42654D01*
X63641Y-43146D02*
X63747Y-43252D01*
X63747Y-43252D02*
X63747Y-43377D01*
X63106Y-44240D02*
X63106Y-44410D01*
X63106Y-44410D02*
X63283Y-44587D01*
X61827Y-40890D02*
X63421Y-42457D01*
X63618Y-42791D02*
X63555Y-42854D01*
X63736Y-43893D02*
X63736Y-44082D01*
X63129Y-43087D02*
X63188Y-43146D01*
X63618Y-42654D02*
X63618Y-42732D01*
X63188Y-43146D02*
X63641Y-43146D01*
X63209Y-43768D02*
X63611Y-43768D01*
X63181Y-43449D02*
X63114Y-43516D01*
X63129Y-42953D02*
X63129Y-43087D01*
X63114Y-43673D02*
X63209Y-43768D01*
X63204Y-44142D02*
X63106Y-44240D01*
X63228Y-42854D02*
X63129Y-42953D01*
X63736Y-44082D02*
X63676Y-44142D01*
X63747Y-43377D02*
X63675Y-43449D01*
X68350Y-44657D02*
X68350Y-44661D01*
X64531Y-40823D02*
X68350Y-44657D01*
X67972Y-44606D02*
X67972Y-45705D01*
X64236Y-40870D02*
X67972Y-44606D01*
X59647Y-43517D02*
X59647Y-43625D01*
X58992Y-41433D02*
X59559Y-41433D01*
X59520Y-42925D02*
X59591Y-42996D01*
X58971Y-44206D02*
X58971Y-44286D01*
X59612Y-42490D02*
X59612Y-42609D01*
X58921Y-41362D02*
X58992Y-41433D01*
X59563Y-43433D02*
X59647Y-43517D01*
X58916Y-43329D02*
X59020Y-43433D01*
X59591Y-43110D02*
X59524Y-43177D01*
X59106Y-44421D02*
X59496Y-44421D01*
X58983Y-43177D02*
X58916Y-43244D01*
X58916Y-42724D02*
X58916Y-42849D01*
X59020Y-43433D02*
X59563Y-43433D01*
X59647Y-43625D02*
X59603Y-43669D01*
X58916Y-41804D02*
X58916Y-41900D01*
X59011Y-41709D02*
X58916Y-41804D01*
X59574Y-41709D02*
X59011Y-41709D01*
X59646Y-43921D02*
X59685Y-43960D01*
X59586Y-42213D02*
X58986Y-42213D01*
X58916Y-42361D02*
X59027Y-42472D01*
X58916Y-41900D02*
X58985Y-41969D01*
X58971Y-44286D02*
X59106Y-44421D01*
X58916Y-42283D02*
X58916Y-42361D01*
X59630Y-42169D02*
X59586Y-42213D01*
X59496Y-44421D02*
X59602Y-44527D01*
X59612Y-42609D02*
X59552Y-42669D01*
X59027Y-42472D02*
X59594Y-42472D01*
X58971Y-42669D02*
X58916Y-42724D01*
X58992Y-42925D02*
X59520Y-42925D01*
X58916Y-43244D02*
X58916Y-43329D01*
X58921Y-41280D02*
X58921Y-41362D01*
X58916Y-42849D02*
X58992Y-42925D01*
X59685Y-44083D02*
X59599Y-44169D01*
X59551Y-41142D02*
X59496Y-41197D01*
X59004Y-41197D02*
X58921Y-41280D01*
X59685Y-43960D02*
X59685Y-44083D01*
X59630Y-41504D02*
X59630Y-41653D01*
X59630Y-41653D02*
X59574Y-41709D01*
X59630Y-42008D02*
X59630Y-42169D01*
X58995Y-43669D02*
X58916Y-43748D01*
X59004Y-43921D02*
X59646Y-43921D01*
X59496Y-41197D02*
X59004Y-41197D01*
X58985Y-41969D02*
X59591Y-41969D01*
X59008Y-44169D02*
X58971Y-44206D01*
X59551Y-40850D02*
X59551Y-41142D01*
X59594Y-42472D02*
X59612Y-42490D01*
X58916Y-43833D02*
X59004Y-43921D01*
X59591Y-42996D02*
X59591Y-43110D01*
X59591Y-41969D02*
X59630Y-42008D01*
X59603Y-43669D02*
X58995Y-43669D01*
X58986Y-42213D02*
X58916Y-42283D01*
X58916Y-43748D02*
X58916Y-43833D01*
X59602Y-44527D02*
X59602Y-44701D01*
X59552Y-42669D02*
X58971Y-42669D01*
X59559Y-41433D02*
X59630Y-41504D01*
X59599Y-44169D02*
X59008Y-44169D01*
X59524Y-43177D02*
X58983Y-43177D01*
X60587Y-44453D02*
X60465Y-44575D01*
X59834Y-41980D02*
X59787Y-42027D01*
X60587Y-44375D02*
X60587Y-44453D01*
X59822Y-41220D02*
X60229Y-41220D01*
X59847Y-43717D02*
X60449Y-43717D01*
X60315Y-42220D02*
X60417Y-42322D01*
X59898Y-41000D02*
X59811Y-41000D01*
X59752Y-43118D02*
X59811Y-43177D01*
X60390Y-41901D02*
X60311Y-41980D01*
X60512Y-43909D02*
X60437Y-43984D01*
X60500Y-43268D02*
X60500Y-43354D01*
X59843Y-44071D02*
X59843Y-44186D01*
X59878Y-43425D02*
X59799Y-43504D01*
X59803Y-42681D02*
X60421Y-42681D01*
X60437Y-43984D02*
X59930Y-43984D01*
X60472Y-44260D02*
X60587Y-44375D01*
X60417Y-42322D02*
X60417Y-42390D01*
X59748Y-41063D02*
X59748Y-41146D01*
X60000Y-44575D02*
X59906Y-44669D01*
X59799Y-43504D02*
X59799Y-43669D01*
X59764Y-42516D02*
X59764Y-42642D01*
X60449Y-43717D02*
X60512Y-43780D01*
X60512Y-43780D02*
X60512Y-43909D01*
X59930Y-43984D02*
X59843Y-44071D01*
X60020Y-45744D02*
X60020Y-45764D01*
X60268Y-41280D02*
X60305Y-41337D01*
X59819Y-42925D02*
X59752Y-42992D01*
X59799Y-43669D02*
X59847Y-43717D01*
X60476Y-42851D02*
X60402Y-42925D01*
X60476Y-42736D02*
X60476Y-42851D01*
X60421Y-42681D02*
X60476Y-42736D01*
X60402Y-42925D02*
X59819Y-42925D01*
X59906Y-45630D02*
X60020Y-45744D01*
X60465Y-44575D02*
X60000Y-44575D01*
X60268Y-41280D02*
X60268Y-41280D01*
X59748Y-41146D02*
X59822Y-41220D01*
X59752Y-42992D02*
X59752Y-43118D01*
X59871Y-41476D02*
X59799Y-41548D01*
X60429Y-43425D02*
X59878Y-43425D01*
X60311Y-41980D02*
X59834Y-41980D01*
X60284Y-41476D02*
X59871Y-41476D01*
X59799Y-41548D02*
X59799Y-41685D01*
X60229Y-41220D02*
X60268Y-41280D01*
X59846Y-41732D02*
X60322Y-41732D01*
X60326Y-41418D02*
X60284Y-41476D01*
X60305Y-41337D02*
X60326Y-41418D01*
X59811Y-43177D02*
X60409Y-43177D01*
X59906Y-44669D02*
X59906Y-45630D01*
X60500Y-43354D02*
X60429Y-43425D01*
X60028Y-40870D02*
X59898Y-41000D01*
X60322Y-41732D02*
X60390Y-41800D01*
X59799Y-41685D02*
X59846Y-41732D01*
X59787Y-42168D02*
X59839Y-42220D01*
X59787Y-42027D02*
X59787Y-42168D01*
X59839Y-42220D02*
X60315Y-42220D01*
X60390Y-41800D02*
X60390Y-41901D01*
X60409Y-43177D02*
X60500Y-43268D01*
X60417Y-42390D02*
X60358Y-42449D01*
X59811Y-41000D02*
X59748Y-41063D01*
X59831Y-42449D02*
X59764Y-42516D01*
X59917Y-44260D02*
X60472Y-44260D01*
X59843Y-44186D02*
X59917Y-44260D01*
X59764Y-42642D02*
X59803Y-42681D01*
X60358Y-42449D02*
X59831Y-42449D01*
X69449Y-44335D02*
X69449Y-44736D01*
X65220Y-40311D02*
X69449Y-44335D01*
X69449Y-44736D02*
X69441Y-44744D01*
X64929Y-40815D02*
X68965Y-44839D01*
X68965Y-44839D02*
X68965Y-45579D01*
X61228Y-43472D02*
X61228Y-43570D01*
X61724Y-42701D02*
X61878Y-42748D01*
X61728Y-43205D02*
X61846Y-43244D01*
X61228Y-43016D02*
X61228Y-43145D01*
X61795Y-43894D02*
X61267Y-43878D01*
X61228Y-43570D02*
X61312Y-43654D01*
X61284Y-43201D02*
X61728Y-43205D01*
X61264Y-41488D02*
X61264Y-41642D01*
X61217Y-43928D02*
X61217Y-44040D01*
X61858Y-43378D02*
X61736Y-43441D01*
X61850Y-43705D02*
X61862Y-43811D01*
X61890Y-42890D02*
X61827Y-42969D01*
X61878Y-42748D02*
X61890Y-42890D01*
X61217Y-41441D02*
X61264Y-41488D01*
X61736Y-43441D02*
X61259Y-43441D01*
X61264Y-42610D02*
X61323Y-42701D01*
X61323Y-42701D02*
X61724Y-42701D01*
X60622Y-40846D02*
X61217Y-41441D01*
X61760Y-43661D02*
X61850Y-43705D01*
X61217Y-44040D02*
X61217Y-44666D01*
X61862Y-43811D02*
X61795Y-43894D01*
X61217Y-44666D02*
X61295Y-44744D01*
X61264Y-41642D02*
X61264Y-42610D01*
X61312Y-43654D02*
X61760Y-43661D01*
X61228Y-43145D02*
X61284Y-43201D01*
X61267Y-43878D02*
X61217Y-43928D01*
X61827Y-42969D02*
X61279Y-42965D01*
X61846Y-43244D02*
X61858Y-43378D01*
X61279Y-42965D02*
X61228Y-43016D01*
X61259Y-43441D02*
X61228Y-43472D01*
X64264Y-43827D02*
X64582Y-43827D01*
X64685Y-44228D02*
X64607Y-44150D01*
X64169Y-43922D02*
X64264Y-43827D01*
X64547Y-43382D02*
X64547Y-43019D01*
X64720Y-43555D02*
X64547Y-43382D01*
X64169Y-44027D02*
X64169Y-43922D01*
X64685Y-44417D02*
X64685Y-44315D01*
X64685Y-44315D02*
X64685Y-44228D01*
X64547Y-43019D02*
X64366Y-42838D01*
X64720Y-43689D02*
X64720Y-43555D01*
X64582Y-44520D02*
X64685Y-44417D01*
X64582Y-43827D02*
X64720Y-43689D01*
X64292Y-44150D02*
X64169Y-44027D01*
X62394Y-40866D02*
X64366Y-42838D01*
X64366Y-44602D02*
X64448Y-44520D01*
X64448Y-44520D02*
X64582Y-44520D01*
X64607Y-44150D02*
X64292Y-44150D01*
X67449Y-44319D02*
X67449Y-44705D01*
X64000Y-40862D02*
X64049Y-40911D01*
X63996Y-40866D02*
X64049Y-40919D01*
X64049Y-40911D02*
X64049Y-40919D01*
X64049Y-40919D02*
X67449Y-44319D01*
X65375Y-36299D02*
X64346Y-36299D01*
X65902Y-27512D02*
X67130Y-28740D01*
X67130Y-34544D02*
X65375Y-36299D01*
X64346Y-36299D02*
X64165Y-36118D01*
X67130Y-28740D02*
X67130Y-34544D01*
X63465Y-40851D02*
X66445Y-43831D01*
X63465Y-40847D02*
X63465Y-40851D01*
X66445Y-43831D02*
X66445Y-44732D01*
X63460Y-40842D02*
X63465Y-40847D01*
X62051Y-45039D02*
X62063Y-45744D01*
X60941Y-40878D02*
X62051Y-42000D01*
X62051Y-42000D02*
X62051Y-45039D01*
X62063Y-45744D02*
X62051Y-45756D01*
X58252Y-40791D02*
X57835Y-41208D01*
X57835Y-44158D02*
X58358Y-44681D01*
X58358Y-44681D02*
X58500Y-44681D01*
X57835Y-41208D02*
X57835Y-44158D01*
X60224Y-40953D02*
X60827Y-41559D01*
X60827Y-41559D02*
X60827Y-44756D01*
X60413Y-40898D02*
X61059Y-41528D01*
X61059Y-41528D02*
X61059Y-45759D01*
X63732Y-40862D02*
X66988Y-44118D01*
X66988Y-44118D02*
X66988Y-45732D01*
X63264Y-40886D02*
X65957Y-43579D01*
X65957Y-43579D02*
X65957Y-45693D01*
X65957Y-45693D02*
X65961Y-45697D01*
X61571Y-28819D02*
X61575Y-28823D01*
X61575Y-28823D02*
X61575Y-29465D01*
X60803Y-28957D02*
X60803Y-29295D01*
X60941Y-28819D02*
X60803Y-28957D01*
X63776Y-39272D02*
X63953Y-39449D01*
X66181Y-39449D02*
X68610Y-41878D01*
X63953Y-39449D02*
X66181Y-39449D01*
X68610Y-41878D02*
X68614Y-41878D01*
X63571Y-39063D02*
X66284Y-39063D01*
X66284Y-39063D02*
X68882Y-41661D01*
X63370Y-38862D02*
X63571Y-39063D01*
X63945Y-39827D02*
X65437Y-39827D01*
X65437Y-39827D02*
X68748Y-43138D01*
X63378Y-39260D02*
X63945Y-39827D01*
M02*
