G04 (created by PCBNEW-RS274X (2012-jan-04)-stable) date Mon Sep 10 12:25:47 2012*
G01*
G70*
G90*
%MOIN*%
G04 Gerber Fmt 3.4, Leading zero omitted, Abs format*
%FSLAX34Y34*%
G04 APERTURE LIST*
%ADD10C,0.006000*%
%ADD11C,0.012000*%
%ADD12C,0.005000*%
%ADD13C,0.015000*%
%ADD14C,0.007100*%
%ADD15C,0.004500*%
%ADD16C,0.003900*%
G04 APERTURE END LIST*
G54D10*
X04000Y-04000D02*
X113000Y-04000D01*
X113000Y-78670D01*
X04000Y-78670D01*
X04000Y-04000D01*
X04700Y-04700D02*
X112300Y-04700D01*
X112300Y-77970D01*
X04700Y-77970D01*
X04700Y-04700D01*
X25800Y-04000D02*
X25800Y-04700D01*
X15043Y-04552D02*
X14757Y-04552D01*
X14900Y-04552D02*
X14900Y-04052D01*
X14852Y-04124D01*
X14805Y-04171D01*
X14757Y-04195D01*
X25800Y-78670D02*
X25800Y-77970D01*
X15043Y-78522D02*
X14757Y-78522D01*
X14900Y-78522D02*
X14900Y-78022D01*
X14852Y-78094D01*
X14805Y-78141D01*
X14757Y-78165D01*
X47600Y-04000D02*
X47600Y-04700D01*
X36557Y-04100D02*
X36581Y-04076D01*
X36629Y-04052D01*
X36748Y-04052D01*
X36795Y-04076D01*
X36819Y-04100D01*
X36843Y-04148D01*
X36843Y-04195D01*
X36819Y-04267D01*
X36533Y-04552D01*
X36843Y-04552D01*
X47600Y-78670D02*
X47600Y-77970D01*
X36557Y-78070D02*
X36581Y-78046D01*
X36629Y-78022D01*
X36748Y-78022D01*
X36795Y-78046D01*
X36819Y-78070D01*
X36843Y-78118D01*
X36843Y-78165D01*
X36819Y-78237D01*
X36533Y-78522D01*
X36843Y-78522D01*
X69400Y-04000D02*
X69400Y-04700D01*
X58333Y-04052D02*
X58643Y-04052D01*
X58476Y-04243D01*
X58548Y-04243D01*
X58595Y-04267D01*
X58619Y-04290D01*
X58643Y-04338D01*
X58643Y-04457D01*
X58619Y-04505D01*
X58595Y-04529D01*
X58548Y-04552D01*
X58405Y-04552D01*
X58357Y-04529D01*
X58333Y-04505D01*
X69400Y-78670D02*
X69400Y-77970D01*
X58333Y-78022D02*
X58643Y-78022D01*
X58476Y-78213D01*
X58548Y-78213D01*
X58595Y-78237D01*
X58619Y-78260D01*
X58643Y-78308D01*
X58643Y-78427D01*
X58619Y-78475D01*
X58595Y-78499D01*
X58548Y-78522D01*
X58405Y-78522D01*
X58357Y-78499D01*
X58333Y-78475D01*
X91200Y-04000D02*
X91200Y-04700D01*
X80395Y-04219D02*
X80395Y-04552D01*
X80276Y-04029D02*
X80157Y-04386D01*
X80467Y-04386D01*
X91200Y-78670D02*
X91200Y-77970D01*
X80395Y-78189D02*
X80395Y-78522D01*
X80276Y-77999D02*
X80157Y-78356D01*
X80467Y-78356D01*
X102219Y-04052D02*
X101981Y-04052D01*
X101957Y-04290D01*
X101981Y-04267D01*
X102029Y-04243D01*
X102148Y-04243D01*
X102195Y-04267D01*
X102219Y-04290D01*
X102243Y-04338D01*
X102243Y-04457D01*
X102219Y-04505D01*
X102195Y-04529D01*
X102148Y-04552D01*
X102029Y-04552D01*
X101981Y-04529D01*
X101957Y-04505D01*
X102219Y-78022D02*
X101981Y-78022D01*
X101957Y-78260D01*
X101981Y-78237D01*
X102029Y-78213D01*
X102148Y-78213D01*
X102195Y-78237D01*
X102219Y-78260D01*
X102243Y-78308D01*
X102243Y-78427D01*
X102219Y-78475D01*
X102195Y-78499D01*
X102148Y-78522D01*
X102029Y-78522D01*
X101981Y-78499D01*
X101957Y-78475D01*
X04000Y-28890D02*
X04700Y-28890D01*
X04231Y-16510D02*
X04469Y-16510D01*
X04184Y-16652D02*
X04350Y-16152D01*
X04517Y-16652D01*
X113000Y-28890D02*
X112300Y-28890D01*
X112531Y-16510D02*
X112769Y-16510D01*
X112484Y-16652D02*
X112650Y-16152D01*
X112817Y-16652D01*
X04000Y-53780D02*
X04700Y-53780D01*
X04386Y-41280D02*
X04457Y-41304D01*
X04481Y-41328D01*
X04505Y-41376D01*
X04505Y-41447D01*
X04481Y-41495D01*
X04457Y-41519D01*
X04410Y-41542D01*
X04219Y-41542D01*
X04219Y-41042D01*
X04386Y-41042D01*
X04433Y-41066D01*
X04457Y-41090D01*
X04481Y-41138D01*
X04481Y-41185D01*
X04457Y-41233D01*
X04433Y-41257D01*
X04386Y-41280D01*
X04219Y-41280D01*
X113000Y-53780D02*
X112300Y-53780D01*
X112686Y-41280D02*
X112757Y-41304D01*
X112781Y-41328D01*
X112805Y-41376D01*
X112805Y-41447D01*
X112781Y-41495D01*
X112757Y-41519D01*
X112710Y-41542D01*
X112519Y-41542D01*
X112519Y-41042D01*
X112686Y-41042D01*
X112733Y-41066D01*
X112757Y-41090D01*
X112781Y-41138D01*
X112781Y-41185D01*
X112757Y-41233D01*
X112733Y-41257D01*
X112686Y-41280D01*
X112519Y-41280D01*
X04505Y-66385D02*
X04481Y-66409D01*
X04410Y-66432D01*
X04362Y-66432D01*
X04290Y-66409D01*
X04243Y-66361D01*
X04219Y-66313D01*
X04195Y-66218D01*
X04195Y-66147D01*
X04219Y-66051D01*
X04243Y-66004D01*
X04290Y-65956D01*
X04362Y-65932D01*
X04410Y-65932D01*
X04481Y-65956D01*
X04505Y-65980D01*
X112805Y-66385D02*
X112781Y-66409D01*
X112710Y-66432D01*
X112662Y-66432D01*
X112590Y-66409D01*
X112543Y-66361D01*
X112519Y-66313D01*
X112495Y-66218D01*
X112495Y-66147D01*
X112519Y-66051D01*
X112543Y-66004D01*
X112590Y-65956D01*
X112662Y-65932D01*
X112710Y-65932D01*
X112781Y-65956D01*
X112805Y-65980D01*
G54D11*
X79443Y-76413D02*
X79443Y-75813D01*
X79586Y-75813D01*
X79671Y-75841D01*
X79729Y-75899D01*
X79757Y-75956D01*
X79786Y-76070D01*
X79786Y-76156D01*
X79757Y-76270D01*
X79729Y-76327D01*
X79671Y-76384D01*
X79586Y-76413D01*
X79443Y-76413D01*
X80300Y-76413D02*
X80300Y-76099D01*
X80271Y-76041D01*
X80214Y-76013D01*
X80100Y-76013D01*
X80043Y-76041D01*
X80300Y-76384D02*
X80243Y-76413D01*
X80100Y-76413D01*
X80043Y-76384D01*
X80014Y-76327D01*
X80014Y-76270D01*
X80043Y-76213D01*
X80100Y-76184D01*
X80243Y-76184D01*
X80300Y-76156D01*
X80500Y-76013D02*
X80729Y-76013D01*
X80586Y-75813D02*
X80586Y-76327D01*
X80614Y-76384D01*
X80672Y-76413D01*
X80729Y-76413D01*
X81157Y-76384D02*
X81100Y-76413D01*
X80986Y-76413D01*
X80929Y-76384D01*
X80900Y-76327D01*
X80900Y-76099D01*
X80929Y-76041D01*
X80986Y-76013D01*
X81100Y-76013D01*
X81157Y-76041D01*
X81186Y-76099D01*
X81186Y-76156D01*
X80900Y-76213D01*
X81443Y-76356D02*
X81471Y-76384D01*
X81443Y-76413D01*
X81414Y-76384D01*
X81443Y-76356D01*
X81443Y-76413D01*
X81443Y-76041D02*
X81471Y-76070D01*
X81443Y-76099D01*
X81414Y-76070D01*
X81443Y-76041D01*
X81443Y-76099D01*
X82500Y-76413D02*
X82157Y-76413D01*
X82329Y-76413D02*
X82329Y-75813D01*
X82272Y-75899D01*
X82214Y-75956D01*
X82157Y-75984D01*
X82871Y-75813D02*
X82928Y-75813D01*
X82985Y-75841D01*
X83014Y-75870D01*
X83043Y-75927D01*
X83071Y-76041D01*
X83071Y-76184D01*
X83043Y-76299D01*
X83014Y-76356D01*
X82985Y-76384D01*
X82928Y-76413D01*
X82871Y-76413D01*
X82814Y-76384D01*
X82785Y-76356D01*
X82757Y-76299D01*
X82728Y-76184D01*
X82728Y-76041D01*
X82757Y-75927D01*
X82785Y-75870D01*
X82814Y-75841D01*
X82871Y-75813D01*
X83756Y-76384D02*
X83813Y-76413D01*
X83928Y-76413D01*
X83985Y-76384D01*
X84013Y-76327D01*
X84013Y-76299D01*
X83985Y-76241D01*
X83928Y-76213D01*
X83842Y-76213D01*
X83785Y-76184D01*
X83756Y-76127D01*
X83756Y-76099D01*
X83785Y-76041D01*
X83842Y-76013D01*
X83928Y-76013D01*
X83985Y-76041D01*
X84499Y-76384D02*
X84442Y-76413D01*
X84328Y-76413D01*
X84271Y-76384D01*
X84242Y-76327D01*
X84242Y-76099D01*
X84271Y-76041D01*
X84328Y-76013D01*
X84442Y-76013D01*
X84499Y-76041D01*
X84528Y-76099D01*
X84528Y-76156D01*
X84242Y-76213D01*
X84785Y-76013D02*
X84785Y-76613D01*
X84785Y-76041D02*
X84842Y-76013D01*
X84956Y-76013D01*
X85013Y-76041D01*
X85042Y-76070D01*
X85071Y-76127D01*
X85071Y-76299D01*
X85042Y-76356D01*
X85013Y-76384D01*
X84956Y-76413D01*
X84842Y-76413D01*
X84785Y-76384D01*
X85756Y-75870D02*
X85785Y-75841D01*
X85842Y-75813D01*
X85985Y-75813D01*
X86042Y-75841D01*
X86071Y-75870D01*
X86099Y-75927D01*
X86099Y-75984D01*
X86071Y-76070D01*
X85728Y-76413D01*
X86099Y-76413D01*
X86470Y-75813D02*
X86527Y-75813D01*
X86584Y-75841D01*
X86613Y-75870D01*
X86642Y-75927D01*
X86670Y-76041D01*
X86670Y-76184D01*
X86642Y-76299D01*
X86613Y-76356D01*
X86584Y-76384D01*
X86527Y-76413D01*
X86470Y-76413D01*
X86413Y-76384D01*
X86384Y-76356D01*
X86356Y-76299D01*
X86327Y-76184D01*
X86327Y-76041D01*
X86356Y-75927D01*
X86384Y-75870D01*
X86413Y-75841D01*
X86470Y-75813D01*
X87241Y-76413D02*
X86898Y-76413D01*
X87070Y-76413D02*
X87070Y-75813D01*
X87013Y-75899D01*
X86955Y-75956D01*
X86898Y-75984D01*
X87469Y-75870D02*
X87498Y-75841D01*
X87555Y-75813D01*
X87698Y-75813D01*
X87755Y-75841D01*
X87784Y-75870D01*
X87812Y-75927D01*
X87812Y-75984D01*
X87784Y-76070D01*
X87441Y-76413D01*
X87812Y-76413D01*
G54D10*
X71043Y-77613D02*
X71043Y-77013D01*
X71386Y-77613D02*
X71129Y-77270D01*
X71386Y-77013D02*
X71043Y-77356D01*
X71643Y-77613D02*
X71643Y-77213D01*
X71643Y-77013D02*
X71614Y-77041D01*
X71643Y-77070D01*
X71671Y-77041D01*
X71643Y-77013D01*
X71643Y-77070D01*
X72272Y-77556D02*
X72243Y-77584D01*
X72157Y-77613D01*
X72100Y-77613D01*
X72015Y-77584D01*
X71957Y-77527D01*
X71929Y-77470D01*
X71900Y-77356D01*
X71900Y-77270D01*
X71929Y-77156D01*
X71957Y-77099D01*
X72015Y-77041D01*
X72100Y-77013D01*
X72157Y-77013D01*
X72243Y-77041D01*
X72272Y-77070D01*
X72786Y-77613D02*
X72786Y-77299D01*
X72757Y-77241D01*
X72700Y-77213D01*
X72586Y-77213D01*
X72529Y-77241D01*
X72786Y-77584D02*
X72729Y-77613D01*
X72586Y-77613D01*
X72529Y-77584D01*
X72500Y-77527D01*
X72500Y-77470D01*
X72529Y-77413D01*
X72586Y-77384D01*
X72729Y-77384D01*
X72786Y-77356D01*
X73329Y-77613D02*
X73329Y-77013D01*
X73329Y-77584D02*
X73272Y-77613D01*
X73158Y-77613D01*
X73100Y-77584D01*
X73072Y-77556D01*
X73043Y-77499D01*
X73043Y-77327D01*
X73072Y-77270D01*
X73100Y-77241D01*
X73158Y-77213D01*
X73272Y-77213D01*
X73329Y-77241D01*
X74072Y-77299D02*
X74272Y-77299D01*
X74358Y-77613D02*
X74072Y-77613D01*
X74072Y-77013D01*
X74358Y-77013D01*
X74615Y-77556D02*
X74643Y-77584D01*
X74615Y-77613D01*
X74586Y-77584D01*
X74615Y-77556D01*
X74615Y-77613D01*
X74901Y-77613D02*
X74901Y-77013D01*
X75044Y-77013D01*
X75129Y-77041D01*
X75187Y-77099D01*
X75215Y-77156D01*
X75244Y-77270D01*
X75244Y-77356D01*
X75215Y-77470D01*
X75187Y-77527D01*
X75129Y-77584D01*
X75044Y-77613D01*
X74901Y-77613D01*
X75501Y-77556D02*
X75529Y-77584D01*
X75501Y-77613D01*
X75472Y-77584D01*
X75501Y-77556D01*
X75501Y-77613D01*
X75758Y-77441D02*
X76044Y-77441D01*
X75701Y-77613D02*
X75901Y-77013D01*
X76101Y-77613D01*
X76301Y-77556D02*
X76329Y-77584D01*
X76301Y-77613D01*
X76272Y-77584D01*
X76301Y-77556D01*
X76301Y-77613D01*
G54D11*
X104586Y-76413D02*
X104386Y-76127D01*
X104243Y-76413D02*
X104243Y-75813D01*
X104471Y-75813D01*
X104529Y-75841D01*
X104557Y-75870D01*
X104586Y-75927D01*
X104586Y-76013D01*
X104557Y-76070D01*
X104529Y-76099D01*
X104471Y-76127D01*
X104243Y-76127D01*
X105071Y-76384D02*
X105014Y-76413D01*
X104900Y-76413D01*
X104843Y-76384D01*
X104814Y-76327D01*
X104814Y-76099D01*
X104843Y-76041D01*
X104900Y-76013D01*
X105014Y-76013D01*
X105071Y-76041D01*
X105100Y-76099D01*
X105100Y-76156D01*
X104814Y-76213D01*
X105300Y-76013D02*
X105443Y-76413D01*
X105585Y-76013D01*
X105814Y-76356D02*
X105842Y-76384D01*
X105814Y-76413D01*
X105785Y-76384D01*
X105814Y-76356D01*
X105814Y-76413D01*
X105814Y-76041D02*
X105842Y-76070D01*
X105814Y-76099D01*
X105785Y-76070D01*
X105814Y-76041D01*
X105814Y-76099D01*
X106671Y-75813D02*
X106728Y-75813D01*
X106785Y-75841D01*
X106814Y-75870D01*
X106843Y-75927D01*
X106871Y-76041D01*
X106871Y-76184D01*
X106843Y-76299D01*
X106814Y-76356D01*
X106785Y-76384D01*
X106728Y-76413D01*
X106671Y-76413D01*
X106614Y-76384D01*
X106585Y-76356D01*
X106557Y-76299D01*
X106528Y-76184D01*
X106528Y-76041D01*
X106557Y-75927D01*
X106585Y-75870D01*
X106614Y-75841D01*
X106671Y-75813D01*
X107442Y-76413D02*
X107099Y-76413D01*
X107271Y-76413D02*
X107271Y-75813D01*
X107214Y-75899D01*
X107156Y-75956D01*
X107099Y-75984D01*
G54D10*
X71014Y-76384D02*
X71100Y-76413D01*
X71243Y-76413D01*
X71300Y-76384D01*
X71329Y-76356D01*
X71357Y-76299D01*
X71357Y-76241D01*
X71329Y-76184D01*
X71300Y-76156D01*
X71243Y-76127D01*
X71129Y-76099D01*
X71071Y-76070D01*
X71043Y-76041D01*
X71014Y-75984D01*
X71014Y-75927D01*
X71043Y-75870D01*
X71071Y-75841D01*
X71129Y-75813D01*
X71271Y-75813D01*
X71357Y-75841D01*
X71614Y-76413D02*
X71614Y-76013D01*
X71614Y-75813D02*
X71585Y-75841D01*
X71614Y-75870D01*
X71642Y-75841D01*
X71614Y-75813D01*
X71614Y-75870D01*
X71843Y-76013D02*
X72157Y-76013D01*
X71843Y-76413D01*
X72157Y-76413D01*
X72614Y-76384D02*
X72557Y-76413D01*
X72443Y-76413D01*
X72386Y-76384D01*
X72357Y-76327D01*
X72357Y-76099D01*
X72386Y-76041D01*
X72443Y-76013D01*
X72557Y-76013D01*
X72614Y-76041D01*
X72643Y-76099D01*
X72643Y-76156D01*
X72357Y-76213D01*
X72900Y-76356D02*
X72928Y-76384D01*
X72900Y-76413D01*
X72871Y-76384D01*
X72900Y-76356D01*
X72900Y-76413D01*
X72900Y-76041D02*
X72928Y-76070D01*
X72900Y-76099D01*
X72871Y-76070D01*
X72900Y-76041D01*
X72900Y-76099D01*
X73614Y-76241D02*
X73900Y-76241D01*
X73557Y-76413D02*
X73757Y-75813D01*
X73957Y-76413D01*
X74414Y-76013D02*
X74414Y-76413D01*
X74271Y-75784D02*
X74128Y-76213D01*
X74500Y-76213D01*
X104243Y-77613D02*
X104243Y-77013D01*
X104786Y-77613D02*
X104786Y-77013D01*
X104786Y-77584D02*
X104729Y-77613D01*
X104615Y-77613D01*
X104557Y-77584D01*
X104529Y-77556D01*
X104500Y-77499D01*
X104500Y-77327D01*
X104529Y-77270D01*
X104557Y-77241D01*
X104615Y-77213D01*
X104729Y-77213D01*
X104786Y-77241D01*
X105072Y-77556D02*
X105100Y-77584D01*
X105072Y-77613D01*
X105043Y-77584D01*
X105072Y-77556D01*
X105072Y-77613D01*
X105072Y-77241D02*
X105100Y-77270D01*
X105072Y-77299D01*
X105043Y-77270D01*
X105072Y-77241D01*
X105072Y-77299D01*
X106129Y-77613D02*
X105786Y-77613D01*
X105958Y-77613D02*
X105958Y-77013D01*
X105901Y-77099D01*
X105843Y-77156D01*
X105786Y-77184D01*
X106814Y-76984D02*
X106300Y-77756D01*
X107329Y-77613D02*
X106986Y-77613D01*
X107158Y-77613D02*
X107158Y-77013D01*
X107101Y-77099D01*
X107043Y-77156D01*
X106986Y-77184D01*
G54D11*
X70957Y-74613D02*
X71300Y-74613D01*
X71129Y-75213D02*
X71129Y-74613D01*
X71500Y-75213D02*
X71500Y-74813D01*
X71500Y-74613D02*
X71471Y-74641D01*
X71500Y-74670D01*
X71528Y-74641D01*
X71500Y-74613D01*
X71500Y-74670D01*
X71700Y-74813D02*
X71929Y-74813D01*
X71786Y-74613D02*
X71786Y-75127D01*
X71814Y-75184D01*
X71872Y-75213D01*
X71929Y-75213D01*
X72215Y-75213D02*
X72157Y-75184D01*
X72129Y-75127D01*
X72129Y-74613D01*
X72671Y-75184D02*
X72614Y-75213D01*
X72500Y-75213D01*
X72443Y-75184D01*
X72414Y-75127D01*
X72414Y-74899D01*
X72443Y-74841D01*
X72500Y-74813D01*
X72614Y-74813D01*
X72671Y-74841D01*
X72700Y-74899D01*
X72700Y-74956D01*
X72414Y-75013D01*
X72957Y-75156D02*
X72985Y-75184D01*
X72957Y-75213D01*
X72928Y-75184D01*
X72957Y-75156D01*
X72957Y-75213D01*
X72957Y-74841D02*
X72985Y-74870D01*
X72957Y-74899D01*
X72928Y-74870D01*
X72957Y-74841D01*
X72957Y-74899D01*
X73900Y-74899D02*
X73986Y-74927D01*
X74014Y-74956D01*
X74043Y-75013D01*
X74043Y-75099D01*
X74014Y-75156D01*
X73986Y-75184D01*
X73928Y-75213D01*
X73700Y-75213D01*
X73700Y-74613D01*
X73900Y-74613D01*
X73957Y-74641D01*
X73986Y-74670D01*
X74014Y-74727D01*
X74014Y-74784D01*
X73986Y-74841D01*
X73957Y-74870D01*
X73900Y-74899D01*
X73700Y-74899D01*
X74528Y-75184D02*
X74471Y-75213D01*
X74357Y-75213D01*
X74300Y-75184D01*
X74271Y-75127D01*
X74271Y-74899D01*
X74300Y-74841D01*
X74357Y-74813D01*
X74471Y-74813D01*
X74528Y-74841D01*
X74557Y-74899D01*
X74557Y-74956D01*
X74271Y-75013D01*
X75071Y-75213D02*
X75071Y-74899D01*
X75042Y-74841D01*
X74985Y-74813D01*
X74871Y-74813D01*
X74814Y-74841D01*
X75071Y-75184D02*
X75014Y-75213D01*
X74871Y-75213D01*
X74814Y-75184D01*
X74785Y-75127D01*
X74785Y-75070D01*
X74814Y-75013D01*
X74871Y-74984D01*
X75014Y-74984D01*
X75071Y-74956D01*
X75614Y-74813D02*
X75614Y-75299D01*
X75585Y-75356D01*
X75557Y-75384D01*
X75500Y-75413D01*
X75414Y-75413D01*
X75357Y-75384D01*
X75614Y-75184D02*
X75557Y-75213D01*
X75443Y-75213D01*
X75385Y-75184D01*
X75357Y-75156D01*
X75328Y-75099D01*
X75328Y-74927D01*
X75357Y-74870D01*
X75385Y-74841D01*
X75443Y-74813D01*
X75557Y-74813D01*
X75614Y-74841D01*
X75986Y-75213D02*
X75928Y-75184D01*
X75900Y-75127D01*
X75900Y-74613D01*
X76442Y-75184D02*
X76385Y-75213D01*
X76271Y-75213D01*
X76214Y-75184D01*
X76185Y-75127D01*
X76185Y-74899D01*
X76214Y-74841D01*
X76271Y-74813D01*
X76385Y-74813D01*
X76442Y-74841D01*
X76471Y-74899D01*
X76471Y-74956D01*
X76185Y-75013D01*
X76728Y-75213D02*
X76728Y-74613D01*
X76728Y-74841D02*
X76785Y-74813D01*
X76899Y-74813D01*
X76956Y-74841D01*
X76985Y-74870D01*
X77014Y-74927D01*
X77014Y-75099D01*
X76985Y-75156D01*
X76956Y-75184D01*
X76899Y-75213D01*
X76785Y-75213D01*
X76728Y-75184D01*
X77357Y-75213D02*
X77299Y-75184D01*
X77271Y-75156D01*
X77242Y-75099D01*
X77242Y-74927D01*
X77271Y-74870D01*
X77299Y-74841D01*
X77357Y-74813D01*
X77442Y-74813D01*
X77499Y-74841D01*
X77528Y-74870D01*
X77557Y-74927D01*
X77557Y-75099D01*
X77528Y-75156D01*
X77499Y-75184D01*
X77442Y-75213D01*
X77357Y-75213D01*
X77814Y-74813D02*
X77814Y-75213D01*
X77814Y-74870D02*
X77842Y-74841D01*
X77900Y-74813D01*
X77985Y-74813D01*
X78042Y-74841D01*
X78071Y-74899D01*
X78071Y-75213D01*
X78585Y-75184D02*
X78528Y-75213D01*
X78414Y-75213D01*
X78357Y-75184D01*
X78328Y-75127D01*
X78328Y-74899D01*
X78357Y-74841D01*
X78414Y-74813D01*
X78528Y-74813D01*
X78585Y-74841D01*
X78614Y-74899D01*
X78614Y-74956D01*
X78328Y-75013D01*
X78871Y-74984D02*
X79328Y-74984D01*
X79585Y-75184D02*
X79671Y-75213D01*
X79814Y-75213D01*
X79871Y-75184D01*
X79900Y-75156D01*
X79928Y-75099D01*
X79928Y-75041D01*
X79900Y-74984D01*
X79871Y-74956D01*
X79814Y-74927D01*
X79700Y-74899D01*
X79642Y-74870D01*
X79614Y-74841D01*
X79585Y-74784D01*
X79585Y-74727D01*
X79614Y-74670D01*
X79642Y-74641D01*
X79700Y-74613D01*
X79842Y-74613D01*
X79928Y-74641D01*
X80185Y-74813D02*
X80185Y-75413D01*
X80185Y-74841D02*
X80242Y-74813D01*
X80356Y-74813D01*
X80413Y-74841D01*
X80442Y-74870D01*
X80471Y-74927D01*
X80471Y-75099D01*
X80442Y-75156D01*
X80413Y-75184D01*
X80356Y-75213D01*
X80242Y-75213D01*
X80185Y-75184D01*
X80985Y-75213D02*
X80985Y-74899D01*
X80956Y-74841D01*
X80899Y-74813D01*
X80785Y-74813D01*
X80728Y-74841D01*
X80985Y-75184D02*
X80928Y-75213D01*
X80785Y-75213D01*
X80728Y-75184D01*
X80699Y-75127D01*
X80699Y-75070D01*
X80728Y-75013D01*
X80785Y-74984D01*
X80928Y-74984D01*
X80985Y-74956D01*
X81271Y-75213D02*
X81271Y-74813D01*
X81271Y-74927D02*
X81299Y-74870D01*
X81328Y-74841D01*
X81385Y-74813D01*
X81442Y-74813D01*
X81556Y-74813D02*
X81785Y-74813D01*
X81642Y-74613D02*
X81642Y-75127D01*
X81670Y-75184D01*
X81728Y-75213D01*
X81785Y-75213D01*
X82242Y-75213D02*
X82242Y-74899D01*
X82213Y-74841D01*
X82156Y-74813D01*
X82042Y-74813D01*
X81985Y-74841D01*
X82242Y-75184D02*
X82185Y-75213D01*
X82042Y-75213D01*
X81985Y-75184D01*
X81956Y-75127D01*
X81956Y-75070D01*
X81985Y-75013D01*
X82042Y-74984D01*
X82185Y-74984D01*
X82242Y-74956D01*
X82528Y-74813D02*
X82528Y-75213D01*
X82528Y-74870D02*
X82556Y-74841D01*
X82614Y-74813D01*
X82699Y-74813D01*
X82756Y-74841D01*
X82785Y-74899D01*
X82785Y-75213D01*
X83328Y-74613D02*
X83214Y-74613D01*
X83157Y-74641D01*
X83128Y-74670D01*
X83071Y-74756D01*
X83042Y-74870D01*
X83042Y-75099D01*
X83071Y-75156D01*
X83099Y-75184D01*
X83157Y-75213D01*
X83271Y-75213D01*
X83328Y-75184D01*
X83357Y-75156D01*
X83385Y-75099D01*
X83385Y-74956D01*
X83357Y-74899D01*
X83328Y-74870D01*
X83271Y-74841D01*
X83157Y-74841D01*
X83099Y-74870D01*
X83071Y-74899D01*
X83042Y-74956D01*
X83642Y-74984D02*
X84099Y-74984D01*
X84728Y-75156D02*
X84699Y-75184D01*
X84613Y-75213D01*
X84556Y-75213D01*
X84471Y-75184D01*
X84413Y-75127D01*
X84385Y-75070D01*
X84356Y-74956D01*
X84356Y-74870D01*
X84385Y-74756D01*
X84413Y-74699D01*
X84471Y-74641D01*
X84556Y-74613D01*
X84613Y-74613D01*
X84699Y-74641D01*
X84728Y-74670D01*
X85242Y-75213D02*
X85242Y-74899D01*
X85213Y-74841D01*
X85156Y-74813D01*
X85042Y-74813D01*
X84985Y-74841D01*
X85242Y-75184D02*
X85185Y-75213D01*
X85042Y-75213D01*
X84985Y-75184D01*
X84956Y-75127D01*
X84956Y-75070D01*
X84985Y-75013D01*
X85042Y-74984D01*
X85185Y-74984D01*
X85242Y-74956D01*
X85528Y-74813D02*
X85528Y-75413D01*
X85528Y-74841D02*
X85585Y-74813D01*
X85699Y-74813D01*
X85756Y-74841D01*
X85785Y-74870D01*
X85814Y-74927D01*
X85814Y-75099D01*
X85785Y-75156D01*
X85756Y-75184D01*
X85699Y-75213D01*
X85585Y-75213D01*
X85528Y-75184D01*
X86299Y-75184D02*
X86242Y-75213D01*
X86128Y-75213D01*
X86071Y-75184D01*
X86042Y-75127D01*
X86042Y-74899D01*
X86071Y-74841D01*
X86128Y-74813D01*
X86242Y-74813D01*
X86299Y-74841D01*
X86328Y-74899D01*
X86328Y-74956D01*
X86042Y-75013D01*
G54D10*
X71243Y-72499D02*
X71043Y-72499D01*
X71043Y-72813D02*
X71043Y-72213D01*
X71329Y-72213D01*
X71557Y-72813D02*
X71557Y-72413D01*
X71557Y-72213D02*
X71528Y-72241D01*
X71557Y-72270D01*
X71585Y-72241D01*
X71557Y-72213D01*
X71557Y-72270D01*
X71929Y-72813D02*
X71871Y-72784D01*
X71843Y-72727D01*
X71843Y-72213D01*
X72385Y-72784D02*
X72328Y-72813D01*
X72214Y-72813D01*
X72157Y-72784D01*
X72128Y-72727D01*
X72128Y-72499D01*
X72157Y-72441D01*
X72214Y-72413D01*
X72328Y-72413D01*
X72385Y-72441D01*
X72414Y-72499D01*
X72414Y-72556D01*
X72128Y-72613D01*
X72671Y-72756D02*
X72699Y-72784D01*
X72671Y-72813D01*
X72642Y-72784D01*
X72671Y-72756D01*
X72671Y-72813D01*
X72671Y-72441D02*
X72699Y-72470D01*
X72671Y-72499D01*
X72642Y-72470D01*
X72671Y-72441D01*
X72671Y-72499D01*
X73414Y-72813D02*
X73414Y-72213D01*
X73414Y-72441D02*
X73471Y-72413D01*
X73585Y-72413D01*
X73642Y-72441D01*
X73671Y-72470D01*
X73700Y-72527D01*
X73700Y-72699D01*
X73671Y-72756D01*
X73642Y-72784D01*
X73585Y-72813D01*
X73471Y-72813D01*
X73414Y-72784D01*
X74043Y-72813D02*
X73985Y-72784D01*
X73957Y-72756D01*
X73928Y-72699D01*
X73928Y-72527D01*
X73957Y-72470D01*
X73985Y-72441D01*
X74043Y-72413D01*
X74128Y-72413D01*
X74185Y-72441D01*
X74214Y-72470D01*
X74243Y-72527D01*
X74243Y-72699D01*
X74214Y-72756D01*
X74185Y-72784D01*
X74128Y-72813D01*
X74043Y-72813D01*
X74500Y-72413D02*
X74500Y-72813D01*
X74500Y-72470D02*
X74528Y-72441D01*
X74586Y-72413D01*
X74671Y-72413D01*
X74728Y-72441D01*
X74757Y-72499D01*
X74757Y-72813D01*
X75271Y-72784D02*
X75214Y-72813D01*
X75100Y-72813D01*
X75043Y-72784D01*
X75014Y-72727D01*
X75014Y-72499D01*
X75043Y-72441D01*
X75100Y-72413D01*
X75214Y-72413D01*
X75271Y-72441D01*
X75300Y-72499D01*
X75300Y-72556D01*
X75014Y-72613D01*
X75471Y-72413D02*
X75700Y-72413D01*
X75557Y-72813D02*
X75557Y-72299D01*
X75585Y-72241D01*
X75643Y-72213D01*
X75700Y-72213D01*
X75900Y-72413D02*
X75900Y-73013D01*
X75900Y-72441D02*
X75957Y-72413D01*
X76071Y-72413D01*
X76128Y-72441D01*
X76157Y-72470D01*
X76186Y-72527D01*
X76186Y-72699D01*
X76157Y-72756D01*
X76128Y-72784D01*
X76071Y-72813D01*
X75957Y-72813D01*
X75900Y-72784D01*
X76700Y-72413D02*
X76700Y-72899D01*
X76671Y-72956D01*
X76643Y-72984D01*
X76586Y-73013D01*
X76500Y-73013D01*
X76443Y-72984D01*
X76700Y-72784D02*
X76643Y-72813D01*
X76529Y-72813D01*
X76471Y-72784D01*
X76443Y-72756D01*
X76414Y-72699D01*
X76414Y-72527D01*
X76443Y-72470D01*
X76471Y-72441D01*
X76529Y-72413D01*
X76643Y-72413D01*
X76700Y-72441D01*
X77243Y-72813D02*
X77243Y-72499D01*
X77214Y-72441D01*
X77157Y-72413D01*
X77043Y-72413D01*
X76986Y-72441D01*
X77243Y-72784D02*
X77186Y-72813D01*
X77043Y-72813D01*
X76986Y-72784D01*
X76957Y-72727D01*
X76957Y-72670D01*
X76986Y-72613D01*
X77043Y-72584D01*
X77186Y-72584D01*
X77243Y-72556D01*
X77529Y-72756D02*
X77557Y-72784D01*
X77529Y-72813D01*
X77500Y-72784D01*
X77529Y-72756D01*
X77529Y-72813D01*
X77815Y-72813D02*
X77815Y-72213D01*
X77815Y-72441D02*
X77872Y-72413D01*
X77986Y-72413D01*
X78043Y-72441D01*
X78072Y-72470D01*
X78101Y-72527D01*
X78101Y-72699D01*
X78072Y-72756D01*
X78043Y-72784D01*
X77986Y-72813D01*
X77872Y-72813D01*
X77815Y-72784D01*
X78358Y-72813D02*
X78358Y-72413D01*
X78358Y-72527D02*
X78386Y-72470D01*
X78415Y-72441D01*
X78472Y-72413D01*
X78529Y-72413D01*
X78986Y-72813D02*
X78986Y-72213D01*
X78986Y-72784D02*
X78929Y-72813D01*
X78815Y-72813D01*
X78757Y-72784D01*
X78729Y-72756D01*
X78700Y-72699D01*
X78700Y-72527D01*
X78729Y-72470D01*
X78757Y-72441D01*
X78815Y-72413D01*
X78929Y-72413D01*
X78986Y-72441D01*
X71014Y-73984D02*
X71100Y-74013D01*
X71243Y-74013D01*
X71300Y-73984D01*
X71329Y-73956D01*
X71357Y-73899D01*
X71357Y-73841D01*
X71329Y-73784D01*
X71300Y-73756D01*
X71243Y-73727D01*
X71129Y-73699D01*
X71071Y-73670D01*
X71043Y-73641D01*
X71014Y-73584D01*
X71014Y-73527D01*
X71043Y-73470D01*
X71071Y-73441D01*
X71129Y-73413D01*
X71271Y-73413D01*
X71357Y-73441D01*
X71614Y-74013D02*
X71614Y-73413D01*
X71871Y-74013D02*
X71871Y-73699D01*
X71842Y-73641D01*
X71785Y-73613D01*
X71700Y-73613D01*
X71642Y-73641D01*
X71614Y-73670D01*
X72385Y-73984D02*
X72328Y-74013D01*
X72214Y-74013D01*
X72157Y-73984D01*
X72128Y-73927D01*
X72128Y-73699D01*
X72157Y-73641D01*
X72214Y-73613D01*
X72328Y-73613D01*
X72385Y-73641D01*
X72414Y-73699D01*
X72414Y-73756D01*
X72128Y-73813D01*
X72899Y-73984D02*
X72842Y-74013D01*
X72728Y-74013D01*
X72671Y-73984D01*
X72642Y-73927D01*
X72642Y-73699D01*
X72671Y-73641D01*
X72728Y-73613D01*
X72842Y-73613D01*
X72899Y-73641D01*
X72928Y-73699D01*
X72928Y-73756D01*
X72642Y-73813D01*
X73099Y-73613D02*
X73328Y-73613D01*
X73185Y-73413D02*
X73185Y-73927D01*
X73213Y-73984D01*
X73271Y-74013D01*
X73328Y-74013D01*
X73528Y-73956D02*
X73556Y-73984D01*
X73528Y-74013D01*
X73499Y-73984D01*
X73528Y-73956D01*
X73528Y-74013D01*
X73528Y-73641D02*
X73556Y-73670D01*
X73528Y-73699D01*
X73499Y-73670D01*
X73528Y-73641D01*
X73528Y-73699D01*
X74585Y-74013D02*
X74242Y-74013D01*
X74414Y-74013D02*
X74414Y-73413D01*
X74357Y-73499D01*
X74299Y-73556D01*
X74242Y-73584D01*
X75270Y-73384D02*
X74756Y-74156D01*
X75785Y-74013D02*
X75442Y-74013D01*
X75614Y-74013D02*
X75614Y-73413D01*
X75557Y-73499D01*
X75499Y-73556D01*
X75442Y-73584D01*
X71043Y-70413D02*
X71043Y-69813D01*
X71243Y-70241D01*
X71443Y-69813D01*
X71443Y-70413D01*
X71729Y-70413D02*
X71729Y-70013D01*
X71729Y-69813D02*
X71700Y-69841D01*
X71729Y-69870D01*
X71757Y-69841D01*
X71729Y-69813D01*
X71729Y-69870D01*
X72272Y-70384D02*
X72215Y-70413D01*
X72101Y-70413D01*
X72043Y-70384D01*
X72015Y-70356D01*
X71986Y-70299D01*
X71986Y-70127D01*
X72015Y-70070D01*
X72043Y-70041D01*
X72101Y-70013D01*
X72215Y-70013D01*
X72272Y-70041D01*
X72529Y-70413D02*
X72529Y-69813D01*
X72786Y-70413D02*
X72786Y-70099D01*
X72757Y-70041D01*
X72700Y-70013D01*
X72615Y-70013D01*
X72557Y-70041D01*
X72529Y-70070D01*
X73329Y-70413D02*
X73329Y-70099D01*
X73300Y-70041D01*
X73243Y-70013D01*
X73129Y-70013D01*
X73072Y-70041D01*
X73329Y-70384D02*
X73272Y-70413D01*
X73129Y-70413D01*
X73072Y-70384D01*
X73043Y-70327D01*
X73043Y-70270D01*
X73072Y-70213D01*
X73129Y-70184D01*
X73272Y-70184D01*
X73329Y-70156D01*
X73843Y-70384D02*
X73786Y-70413D01*
X73672Y-70413D01*
X73615Y-70384D01*
X73586Y-70327D01*
X73586Y-70099D01*
X73615Y-70041D01*
X73672Y-70013D01*
X73786Y-70013D01*
X73843Y-70041D01*
X73872Y-70099D01*
X73872Y-70156D01*
X73586Y-70213D01*
X74215Y-70413D02*
X74157Y-70384D01*
X74129Y-70327D01*
X74129Y-69813D01*
X74900Y-70413D02*
X74900Y-69813D01*
X75100Y-70241D01*
X75300Y-69813D01*
X75300Y-70413D01*
X75843Y-70413D02*
X75843Y-70099D01*
X75814Y-70041D01*
X75757Y-70013D01*
X75643Y-70013D01*
X75586Y-70041D01*
X75843Y-70384D02*
X75786Y-70413D01*
X75643Y-70413D01*
X75586Y-70384D01*
X75557Y-70327D01*
X75557Y-70270D01*
X75586Y-70213D01*
X75643Y-70184D01*
X75786Y-70184D01*
X75843Y-70156D01*
X76386Y-70013D02*
X76386Y-70499D01*
X76357Y-70556D01*
X76329Y-70584D01*
X76272Y-70613D01*
X76186Y-70613D01*
X76129Y-70584D01*
X76386Y-70384D02*
X76329Y-70413D01*
X76215Y-70413D01*
X76157Y-70384D01*
X76129Y-70356D01*
X76100Y-70299D01*
X76100Y-70127D01*
X76129Y-70070D01*
X76157Y-70041D01*
X76215Y-70013D01*
X76329Y-70013D01*
X76386Y-70041D01*
X76615Y-70013D02*
X76758Y-70413D01*
X76900Y-70013D02*
X76758Y-70413D01*
X76700Y-70556D01*
X76672Y-70584D01*
X76615Y-70613D01*
X77386Y-70413D02*
X77386Y-70099D01*
X77357Y-70041D01*
X77300Y-70013D01*
X77186Y-70013D01*
X77129Y-70041D01*
X77386Y-70384D02*
X77329Y-70413D01*
X77186Y-70413D01*
X77129Y-70384D01*
X77100Y-70327D01*
X77100Y-70270D01*
X77129Y-70213D01*
X77186Y-70184D01*
X77329Y-70184D01*
X77386Y-70156D01*
X77672Y-70413D02*
X77672Y-70013D01*
X77672Y-70127D02*
X77700Y-70070D01*
X77729Y-70041D01*
X77786Y-70013D01*
X77843Y-70013D01*
X70300Y-69570D02*
X70300Y-77970D01*
X70300Y-71970D02*
X112300Y-71970D01*
X70300Y-69570D02*
X112300Y-69570D01*
X70300Y-74370D02*
X112300Y-74370D01*
X103500Y-75570D02*
X103500Y-77970D01*
X70300Y-76770D02*
X112300Y-76770D01*
X70300Y-75570D02*
X112300Y-75570D01*
X76900Y-75570D02*
X76900Y-76770D01*
G54D12*
X64419Y-36709D02*
X63519Y-36709D01*
X63519Y-36709D02*
X63519Y-36059D01*
X64419Y-35359D02*
X64419Y-34709D01*
X64419Y-34709D02*
X63519Y-34709D01*
X63519Y-34709D02*
X63519Y-35359D01*
X64419Y-36059D02*
X64419Y-36709D01*
X63530Y-36839D02*
X64430Y-36839D01*
X64430Y-36839D02*
X64430Y-37489D01*
X63530Y-38189D02*
X63530Y-38839D01*
X63530Y-38839D02*
X64430Y-38839D01*
X64430Y-38839D02*
X64430Y-38189D01*
X63530Y-37489D02*
X63530Y-36839D01*
X60421Y-28589D02*
X60421Y-29489D01*
X60421Y-29489D02*
X59771Y-29489D01*
X59071Y-28589D02*
X58421Y-28589D01*
X58421Y-28589D02*
X58421Y-29489D01*
X58421Y-29489D02*
X59071Y-29489D01*
X59771Y-28589D02*
X60421Y-28589D01*
X60429Y-30581D02*
X60429Y-31481D01*
X60429Y-31481D02*
X59779Y-31481D01*
X59079Y-30581D02*
X58429Y-30581D01*
X58429Y-30581D02*
X58429Y-31481D01*
X58429Y-31481D02*
X59079Y-31481D01*
X59779Y-30581D02*
X60429Y-30581D01*
X59512Y-40759D02*
X59512Y-41659D01*
X59512Y-41659D02*
X58862Y-41659D01*
X58162Y-40759D02*
X57512Y-40759D01*
X57512Y-40759D02*
X57512Y-41659D01*
X57512Y-41659D02*
X58162Y-41659D01*
X58862Y-40759D02*
X59512Y-40759D01*
X60437Y-31570D02*
X60437Y-32470D01*
X60437Y-32470D02*
X59787Y-32470D01*
X59087Y-31570D02*
X58437Y-31570D01*
X58437Y-31570D02*
X58437Y-32470D01*
X58437Y-32470D02*
X59087Y-32470D01*
X59787Y-31570D02*
X60437Y-31570D01*
X64137Y-42103D02*
X64136Y-42112D01*
X64133Y-42122D01*
X64128Y-42130D01*
X64122Y-42138D01*
X64114Y-42144D01*
X64106Y-42149D01*
X64097Y-42151D01*
X64087Y-42152D01*
X64078Y-42152D01*
X64069Y-42149D01*
X64060Y-42144D01*
X64053Y-42138D01*
X64046Y-42131D01*
X64042Y-42122D01*
X64039Y-42113D01*
X64038Y-42103D01*
X64038Y-42094D01*
X64041Y-42085D01*
X64045Y-42076D01*
X64052Y-42069D01*
X64059Y-42062D01*
X64067Y-42058D01*
X64077Y-42055D01*
X64086Y-42054D01*
X64095Y-42054D01*
X64105Y-42057D01*
X64113Y-42061D01*
X64121Y-42067D01*
X64127Y-42075D01*
X64132Y-42083D01*
X64135Y-42092D01*
X64136Y-42102D01*
X64137Y-42103D01*
X63637Y-42103D02*
X64037Y-42103D01*
X64037Y-42103D02*
X64037Y-41503D01*
X64037Y-41503D02*
X63637Y-41503D01*
X63237Y-41503D02*
X62837Y-41503D01*
X62837Y-41503D02*
X62837Y-42103D01*
X62837Y-42103D02*
X63237Y-42103D01*
X68014Y-31504D02*
X68013Y-31513D01*
X68010Y-31523D01*
X68005Y-31531D01*
X67999Y-31539D01*
X67991Y-31545D01*
X67983Y-31550D01*
X67974Y-31552D01*
X67964Y-31553D01*
X67955Y-31553D01*
X67946Y-31550D01*
X67937Y-31545D01*
X67930Y-31539D01*
X67923Y-31532D01*
X67919Y-31523D01*
X67916Y-31514D01*
X67915Y-31504D01*
X67915Y-31495D01*
X67918Y-31486D01*
X67922Y-31477D01*
X67929Y-31470D01*
X67936Y-31463D01*
X67944Y-31459D01*
X67954Y-31456D01*
X67963Y-31455D01*
X67972Y-31455D01*
X67982Y-31458D01*
X67990Y-31462D01*
X67998Y-31468D01*
X68004Y-31476D01*
X68009Y-31484D01*
X68012Y-31493D01*
X68013Y-31503D01*
X68014Y-31504D01*
X67964Y-31054D02*
X67964Y-31454D01*
X67964Y-31454D02*
X68564Y-31454D01*
X68564Y-31454D02*
X68564Y-31054D01*
X68564Y-30654D02*
X68564Y-30254D01*
X68564Y-30254D02*
X67964Y-30254D01*
X67964Y-30254D02*
X67964Y-30654D01*
X68002Y-28863D02*
X68002Y-27963D01*
X68002Y-27963D02*
X67502Y-27963D01*
X67502Y-27963D02*
X67502Y-28863D01*
X67502Y-28863D02*
X68002Y-28863D01*
X70006Y-31356D02*
X70006Y-30456D01*
X70006Y-30456D02*
X69506Y-30456D01*
X69506Y-30456D02*
X69506Y-31356D01*
X69506Y-31356D02*
X70006Y-31356D01*
X69325Y-31363D02*
X69325Y-30463D01*
X69325Y-30463D02*
X68825Y-30463D01*
X68825Y-30463D02*
X68825Y-31363D01*
X68825Y-31363D02*
X69325Y-31363D01*
X68825Y-28856D02*
X68825Y-27956D01*
X68825Y-27956D02*
X68325Y-27956D01*
X68325Y-27956D02*
X68325Y-28856D01*
X68325Y-28856D02*
X68825Y-28856D01*
X64203Y-28639D02*
X64203Y-27739D01*
X64203Y-27739D02*
X63703Y-27739D01*
X63703Y-27739D02*
X63703Y-28639D01*
X63703Y-28639D02*
X64203Y-28639D01*
X69978Y-29997D02*
X69978Y-29097D01*
X69978Y-29097D02*
X69478Y-29097D01*
X69478Y-29097D02*
X69478Y-29997D01*
X69478Y-29997D02*
X69978Y-29997D01*
X61573Y-29281D02*
X61573Y-28381D01*
X61573Y-28381D02*
X61073Y-28381D01*
X61073Y-28381D02*
X61073Y-29281D01*
X61073Y-29281D02*
X61573Y-29281D01*
X68451Y-41601D02*
X68451Y-42501D01*
X68451Y-42501D02*
X68951Y-42501D01*
X68951Y-42501D02*
X68951Y-41601D01*
X68951Y-41601D02*
X68451Y-41601D01*
X68470Y-40583D02*
X68470Y-41483D01*
X68470Y-41483D02*
X68970Y-41483D01*
X68970Y-41483D02*
X68970Y-40583D01*
X68970Y-40583D02*
X68470Y-40583D01*
X62673Y-43546D02*
X62673Y-44446D01*
X62673Y-44446D02*
X63173Y-44446D01*
X63173Y-44446D02*
X63173Y-43546D01*
X63173Y-43546D02*
X62673Y-43546D01*
X61637Y-44010D02*
X62537Y-44010D01*
X62537Y-44010D02*
X62537Y-43510D01*
X62537Y-43510D02*
X61637Y-43510D01*
X61637Y-43510D02*
X61637Y-44010D01*
X69444Y-44104D02*
X70344Y-44104D01*
X70344Y-44104D02*
X70344Y-43604D01*
X70344Y-43604D02*
X69444Y-43604D01*
X69444Y-43604D02*
X69444Y-44104D01*
X69278Y-43470D02*
X70178Y-43470D01*
X70178Y-43470D02*
X70178Y-42970D01*
X70178Y-42970D02*
X69278Y-42970D01*
X69278Y-42970D02*
X69278Y-43470D01*
X68067Y-43871D02*
X68067Y-44771D01*
X68067Y-44771D02*
X68567Y-44771D01*
X68567Y-44771D02*
X68567Y-43871D01*
X68567Y-43871D02*
X68067Y-43871D01*
X69246Y-44781D02*
X69246Y-43881D01*
X69246Y-43881D02*
X68746Y-43881D01*
X68746Y-43881D02*
X68746Y-44781D01*
X68746Y-44781D02*
X69246Y-44781D01*
X63293Y-43556D02*
X63293Y-44456D01*
X63293Y-44456D02*
X63793Y-44456D01*
X63793Y-44456D02*
X63793Y-43556D01*
X63793Y-43556D02*
X63293Y-43556D01*
X62388Y-28113D02*
X62388Y-29013D01*
X62388Y-29013D02*
X62888Y-29013D01*
X62888Y-29013D02*
X62888Y-28113D01*
X62888Y-28113D02*
X62388Y-28113D01*
X67407Y-43871D02*
X67407Y-44771D01*
X67407Y-44771D02*
X67907Y-44771D01*
X67907Y-44771D02*
X67907Y-43871D01*
X67907Y-43871D02*
X67407Y-43871D01*
X63152Y-30371D02*
X63152Y-29471D01*
X63152Y-29471D02*
X62652Y-29471D01*
X62652Y-29471D02*
X62652Y-30371D01*
X62652Y-30371D02*
X63152Y-30371D01*
X69373Y-32671D02*
X70273Y-32671D01*
X70273Y-32671D02*
X70273Y-32171D01*
X70273Y-32171D02*
X69373Y-32171D01*
X69373Y-32171D02*
X69373Y-32671D01*
X68665Y-33167D02*
X68665Y-32267D01*
X68665Y-32267D02*
X68165Y-32267D01*
X68165Y-32267D02*
X68165Y-33167D01*
X68165Y-33167D02*
X68665Y-33167D01*
X64404Y-44456D02*
X64404Y-43556D01*
X64404Y-43556D02*
X63904Y-43556D01*
X63904Y-43556D02*
X63904Y-44456D01*
X63904Y-44456D02*
X64404Y-44456D01*
X69585Y-28856D02*
X69585Y-27956D01*
X69585Y-27956D02*
X69085Y-27956D01*
X69085Y-27956D02*
X69085Y-28856D01*
X69085Y-28856D02*
X69585Y-28856D01*
X69256Y-32901D02*
X69256Y-32001D01*
X69256Y-32001D02*
X68756Y-32001D01*
X68756Y-32001D02*
X68756Y-32901D01*
X68756Y-32901D02*
X69256Y-32901D01*
X61774Y-30363D02*
X61774Y-29463D01*
X61774Y-29463D02*
X61274Y-29463D01*
X61274Y-29463D02*
X61274Y-30363D01*
X61274Y-30363D02*
X61774Y-30363D01*
X68851Y-33508D02*
X69751Y-33508D01*
X69751Y-33508D02*
X69751Y-33008D01*
X69751Y-33008D02*
X68851Y-33008D01*
X68851Y-33008D02*
X68851Y-33508D01*
X62463Y-30371D02*
X62463Y-29471D01*
X62463Y-29471D02*
X61963Y-29471D01*
X61963Y-29471D02*
X61963Y-30371D01*
X61963Y-30371D02*
X62463Y-30371D01*
X63526Y-28627D02*
X63526Y-27727D01*
X63526Y-27727D02*
X63026Y-27727D01*
X63026Y-27727D02*
X63026Y-28627D01*
X63026Y-28627D02*
X63526Y-28627D01*
X68085Y-33157D02*
X68085Y-32257D01*
X68085Y-32257D02*
X67585Y-32257D01*
X67585Y-32257D02*
X67585Y-33157D01*
X67585Y-33157D02*
X68085Y-33157D01*
X62242Y-28627D02*
X62242Y-27727D01*
X62242Y-27727D02*
X61742Y-27727D01*
X61742Y-27727D02*
X61742Y-28627D01*
X61742Y-28627D02*
X62242Y-28627D01*
X70337Y-28856D02*
X70337Y-27956D01*
X70337Y-27956D02*
X69837Y-27956D01*
X69837Y-27956D02*
X69837Y-28856D01*
X69837Y-28856D02*
X70337Y-28856D01*
X63797Y-30371D02*
X63797Y-29471D01*
X63797Y-29471D02*
X63297Y-29471D01*
X63297Y-29471D02*
X63297Y-30371D01*
X63297Y-30371D02*
X63797Y-30371D01*
X67876Y-31320D02*
X67876Y-30420D01*
X67876Y-30420D02*
X67376Y-30420D01*
X67376Y-30420D02*
X67376Y-31320D01*
X67376Y-31320D02*
X67876Y-31320D01*
X59509Y-40132D02*
X58609Y-40132D01*
X58609Y-40132D02*
X58609Y-40632D01*
X58609Y-40632D02*
X59509Y-40632D01*
X59509Y-40632D02*
X59509Y-40132D01*
X69829Y-41326D02*
X69829Y-42226D01*
X69829Y-42226D02*
X70329Y-42226D01*
X70329Y-42226D02*
X70329Y-41326D01*
X70329Y-41326D02*
X69829Y-41326D01*
X60399Y-39459D02*
X59499Y-39459D01*
X59499Y-39459D02*
X59499Y-39959D01*
X59499Y-39959D02*
X60399Y-39959D01*
X60399Y-39959D02*
X60399Y-39459D01*
X69219Y-41333D02*
X69219Y-42233D01*
X69219Y-42233D02*
X69719Y-42233D01*
X69719Y-42233D02*
X69719Y-41333D01*
X69719Y-41333D02*
X69219Y-41333D01*
X67850Y-40574D02*
X67850Y-41474D01*
X67850Y-41474D02*
X68350Y-41474D01*
X68350Y-41474D02*
X68350Y-40574D01*
X68350Y-40574D02*
X67850Y-40574D01*
X61656Y-44630D02*
X62556Y-44630D01*
X62556Y-44630D02*
X62556Y-44130D01*
X62556Y-44130D02*
X61656Y-44130D01*
X61656Y-44130D02*
X61656Y-44630D01*
X69412Y-44738D02*
X70312Y-44738D01*
X70312Y-44738D02*
X70312Y-44238D01*
X70312Y-44238D02*
X69412Y-44238D01*
X69412Y-44238D02*
X69412Y-44738D01*
X70456Y-44085D02*
X71356Y-44085D01*
X71356Y-44085D02*
X71356Y-43585D01*
X71356Y-43585D02*
X70456Y-43585D01*
X70456Y-43585D02*
X70456Y-44085D01*
X69278Y-42837D02*
X70178Y-42837D01*
X70178Y-42837D02*
X70178Y-42337D01*
X70178Y-42337D02*
X69278Y-42337D01*
X69278Y-42337D02*
X69278Y-42837D01*
X70440Y-43467D02*
X71340Y-43467D01*
X71340Y-43467D02*
X71340Y-42967D01*
X71340Y-42967D02*
X70440Y-42967D01*
X70440Y-42967D02*
X70440Y-43467D01*
X63997Y-42179D02*
X63097Y-42179D01*
X63097Y-42179D02*
X63097Y-42679D01*
X63097Y-42679D02*
X63997Y-42679D01*
X63997Y-42679D02*
X63997Y-42179D01*
X61931Y-37845D02*
X61931Y-38745D01*
X61931Y-38745D02*
X62431Y-38745D01*
X62431Y-38745D02*
X62431Y-37845D01*
X62431Y-37845D02*
X61931Y-37845D01*
X59481Y-37419D02*
X58581Y-37419D01*
X58581Y-37419D02*
X58581Y-37919D01*
X58581Y-37919D02*
X59481Y-37919D01*
X59481Y-37919D02*
X59481Y-37419D01*
X59840Y-36171D02*
X58940Y-36171D01*
X58940Y-36171D02*
X58940Y-36671D01*
X58940Y-36671D02*
X59840Y-36671D01*
X59840Y-36671D02*
X59840Y-36171D01*
X66211Y-36519D02*
X66211Y-37419D01*
X66211Y-37419D02*
X66711Y-37419D01*
X66711Y-37419D02*
X66711Y-36519D01*
X66711Y-36519D02*
X66211Y-36519D01*
X65770Y-36659D02*
X65770Y-35759D01*
X65770Y-35759D02*
X65270Y-35759D01*
X65270Y-35759D02*
X65270Y-36659D01*
X65270Y-36659D02*
X65770Y-36659D01*
X60399Y-38821D02*
X59499Y-38821D01*
X59499Y-38821D02*
X59499Y-39321D01*
X59499Y-39321D02*
X60399Y-39321D01*
X60399Y-39321D02*
X60399Y-38821D01*
X61120Y-30352D02*
X61120Y-29452D01*
X61120Y-29452D02*
X60620Y-29452D01*
X60620Y-29452D02*
X60620Y-30352D01*
X60620Y-30352D02*
X61120Y-30352D01*
X59722Y-36789D02*
X58822Y-36789D01*
X58822Y-36789D02*
X58822Y-37289D01*
X58822Y-37289D02*
X59722Y-37289D01*
X59722Y-37289D02*
X59722Y-36789D01*
X59379Y-38022D02*
X58479Y-38022D01*
X58479Y-38022D02*
X58479Y-38522D01*
X58479Y-38522D02*
X59379Y-38522D01*
X59379Y-38522D02*
X59379Y-38022D01*
X62411Y-36072D02*
X62411Y-35172D01*
X62411Y-35172D02*
X61911Y-35172D01*
X61911Y-35172D02*
X61911Y-36072D01*
X61911Y-36072D02*
X62411Y-36072D01*
X60985Y-37494D02*
X60085Y-37494D01*
X60085Y-37494D02*
X60085Y-37994D01*
X60085Y-37994D02*
X60985Y-37994D01*
X60985Y-37994D02*
X60985Y-37494D01*
X59919Y-35549D02*
X59019Y-35549D01*
X59019Y-35549D02*
X59019Y-36049D01*
X59019Y-36049D02*
X59919Y-36049D01*
X59919Y-36049D02*
X59919Y-35549D01*
X59304Y-38671D02*
X58404Y-38671D01*
X58404Y-38671D02*
X58404Y-39171D01*
X58404Y-39171D02*
X59304Y-39171D01*
X59304Y-39171D02*
X59304Y-38671D01*
X59911Y-33652D02*
X59011Y-33652D01*
X59011Y-33652D02*
X59011Y-34152D01*
X59011Y-34152D02*
X59911Y-34152D01*
X59911Y-34152D02*
X59911Y-33652D01*
X61317Y-38176D02*
X61317Y-39076D01*
X61317Y-39076D02*
X61817Y-39076D01*
X61817Y-39076D02*
X61817Y-38176D01*
X61817Y-38176D02*
X61317Y-38176D01*
X61801Y-36072D02*
X61801Y-35172D01*
X61801Y-35172D02*
X61301Y-35172D01*
X61301Y-35172D02*
X61301Y-36072D01*
X61301Y-36072D02*
X61801Y-36072D01*
X60985Y-36880D02*
X60085Y-36880D01*
X60085Y-36880D02*
X60085Y-37380D01*
X60085Y-37380D02*
X60985Y-37380D01*
X60985Y-37380D02*
X60985Y-36880D01*
X60711Y-33692D02*
X60711Y-34592D01*
X60711Y-34592D02*
X61211Y-34592D01*
X61211Y-34592D02*
X61211Y-33692D01*
X61211Y-33692D02*
X60711Y-33692D01*
G54D13*
X64704Y-32707D02*
X64704Y-35620D01*
X64704Y-35620D02*
X67382Y-35620D01*
X67382Y-35620D02*
X67382Y-32707D01*
X67382Y-32707D02*
X64744Y-32707D01*
X63789Y-30521D02*
X60876Y-30521D01*
X60876Y-30521D02*
X60876Y-33199D01*
X60876Y-33199D02*
X63789Y-33199D01*
X63789Y-33199D02*
X63789Y-30561D01*
X67225Y-40472D02*
X67225Y-37559D01*
X67225Y-37559D02*
X64547Y-37559D01*
X64547Y-37559D02*
X64547Y-40472D01*
X64547Y-40472D02*
X67185Y-40472D01*
X62579Y-40630D02*
X59666Y-40630D01*
X59666Y-40630D02*
X59666Y-43308D01*
X59666Y-43308D02*
X62579Y-43308D01*
X62579Y-43308D02*
X62579Y-40670D01*
G54D12*
X60421Y-32570D02*
X60421Y-33470D01*
X60421Y-33470D02*
X59771Y-33470D01*
X59071Y-32570D02*
X58421Y-32570D01*
X58421Y-32570D02*
X58421Y-33470D01*
X58421Y-33470D02*
X59071Y-33470D01*
X59771Y-32570D02*
X60421Y-32570D01*
X60421Y-27589D02*
X60421Y-28489D01*
X60421Y-28489D02*
X59771Y-28489D01*
X59071Y-27589D02*
X58421Y-27589D01*
X58421Y-27589D02*
X58421Y-28489D01*
X58421Y-28489D02*
X59071Y-28489D01*
X59771Y-27589D02*
X60421Y-27589D01*
X62542Y-36843D02*
X63442Y-36843D01*
X63442Y-36843D02*
X63442Y-37493D01*
X62542Y-38193D02*
X62542Y-38843D01*
X62542Y-38843D02*
X63442Y-38843D01*
X63442Y-38843D02*
X63442Y-38193D01*
X62542Y-37493D02*
X62542Y-36843D01*
X63419Y-36709D02*
X62519Y-36709D01*
X62519Y-36709D02*
X62519Y-36059D01*
X63419Y-35359D02*
X63419Y-34709D01*
X63419Y-34709D02*
X62519Y-34709D01*
X62519Y-34709D02*
X62519Y-35359D01*
X63419Y-36059D02*
X63419Y-36709D01*
X59500Y-41770D02*
X59500Y-42670D01*
X59500Y-42670D02*
X58850Y-42670D01*
X58150Y-41770D02*
X57500Y-41770D01*
X57500Y-41770D02*
X57500Y-42670D01*
X57500Y-42670D02*
X58150Y-42670D01*
X58850Y-41770D02*
X59500Y-41770D01*
X60421Y-29601D02*
X60421Y-30501D01*
X60421Y-30501D02*
X59771Y-30501D01*
X59071Y-29601D02*
X58421Y-29601D01*
X58421Y-29601D02*
X58421Y-30501D01*
X58421Y-30501D02*
X59071Y-30501D01*
X59771Y-29601D02*
X60421Y-29601D01*
X66797Y-36526D02*
X66797Y-37426D01*
X66797Y-37426D02*
X67297Y-37426D01*
X67297Y-37426D02*
X67297Y-36526D01*
X67297Y-36526D02*
X66797Y-36526D01*
X61986Y-33704D02*
X61986Y-34604D01*
X61986Y-34604D02*
X62486Y-34604D01*
X62486Y-34604D02*
X62486Y-33704D01*
X62486Y-33704D02*
X61986Y-33704D01*
X59919Y-34911D02*
X59019Y-34911D01*
X59019Y-34911D02*
X59019Y-35411D01*
X59019Y-35411D02*
X59919Y-35411D01*
X59919Y-35411D02*
X59919Y-34911D01*
X61341Y-33704D02*
X61341Y-34604D01*
X61341Y-34604D02*
X61841Y-34604D01*
X61841Y-34604D02*
X61841Y-33704D01*
X61841Y-33704D02*
X61341Y-33704D01*
X65171Y-36639D02*
X65171Y-35739D01*
X65171Y-35739D02*
X64671Y-35739D01*
X64671Y-35739D02*
X64671Y-36639D01*
X64671Y-36639D02*
X65171Y-36639D01*
X60509Y-38144D02*
X59609Y-38144D01*
X59609Y-38144D02*
X59609Y-38644D01*
X59609Y-38644D02*
X60509Y-38644D01*
X60509Y-38644D02*
X60509Y-38144D01*
X63262Y-33704D02*
X63262Y-34604D01*
X63262Y-34604D02*
X63762Y-34604D01*
X63762Y-34604D02*
X63762Y-33704D01*
X63762Y-33704D02*
X63262Y-33704D01*
X59911Y-34270D02*
X59011Y-34270D01*
X59011Y-34270D02*
X59011Y-34770D01*
X59011Y-34770D02*
X59911Y-34770D01*
X59911Y-34770D02*
X59911Y-34270D01*
X63876Y-33696D02*
X63876Y-34596D01*
X63876Y-34596D02*
X64376Y-34596D01*
X64376Y-34596D02*
X64376Y-33696D01*
X64376Y-33696D02*
X63876Y-33696D01*
X60691Y-38436D02*
X60691Y-39336D01*
X60691Y-39336D02*
X61191Y-39336D01*
X61191Y-39336D02*
X61191Y-38436D01*
X61191Y-38436D02*
X60691Y-38436D01*
X61191Y-36072D02*
X61191Y-35172D01*
X61191Y-35172D02*
X60691Y-35172D01*
X60691Y-35172D02*
X60691Y-36072D01*
X60691Y-36072D02*
X61191Y-36072D01*
X60985Y-36270D02*
X60085Y-36270D01*
X60085Y-36270D02*
X60085Y-36770D01*
X60085Y-36770D02*
X60985Y-36770D01*
X60985Y-36770D02*
X60985Y-36270D01*
G54D14*
X66191Y-44557D02*
X66644Y-44557D01*
X66181Y-40679D02*
X66634Y-40679D01*
X66201Y-44557D02*
X65177Y-44567D01*
X66191Y-40679D02*
X65197Y-40679D01*
G54D12*
X66645Y-40688D02*
X66645Y-44588D01*
X65157Y-44568D02*
X65157Y-40668D01*
X65499Y-44308D02*
X65496Y-44329D01*
X65490Y-44350D01*
X65480Y-44369D01*
X65466Y-44386D01*
X65450Y-44400D01*
X65431Y-44410D01*
X65410Y-44416D01*
X65388Y-44418D01*
X65368Y-44417D01*
X65347Y-44410D01*
X65328Y-44400D01*
X65311Y-44387D01*
X65297Y-44370D01*
X65286Y-44351D01*
X65280Y-44331D01*
X65278Y-44309D01*
X65279Y-44288D01*
X65285Y-44268D01*
X65295Y-44248D01*
X65309Y-44231D01*
X65325Y-44217D01*
X65344Y-44207D01*
X65365Y-44200D01*
X65386Y-44198D01*
X65407Y-44199D01*
X65428Y-44205D01*
X65447Y-44215D01*
X65464Y-44228D01*
X65478Y-44245D01*
X65489Y-44263D01*
X65496Y-44284D01*
X65498Y-44305D01*
X65499Y-44308D01*
G54D14*
X65610Y-28514D02*
X65157Y-28514D01*
X65620Y-32392D02*
X65167Y-32392D01*
X65600Y-28514D02*
X66624Y-28504D01*
X65610Y-32392D02*
X66604Y-32392D01*
G54D12*
X65156Y-32383D02*
X65156Y-28483D01*
X66644Y-28503D02*
X66644Y-32403D01*
X66524Y-28763D02*
X66521Y-28784D01*
X66515Y-28805D01*
X66505Y-28824D01*
X66491Y-28841D01*
X66475Y-28855D01*
X66456Y-28865D01*
X66435Y-28871D01*
X66413Y-28873D01*
X66393Y-28872D01*
X66372Y-28865D01*
X66353Y-28855D01*
X66336Y-28842D01*
X66322Y-28825D01*
X66311Y-28806D01*
X66305Y-28786D01*
X66303Y-28764D01*
X66304Y-28743D01*
X66310Y-28723D01*
X66320Y-28703D01*
X66334Y-28686D01*
X66350Y-28672D01*
X66369Y-28662D01*
X66390Y-28655D01*
X66411Y-28653D01*
X66432Y-28654D01*
X66453Y-28660D01*
X66472Y-28670D01*
X66489Y-28683D01*
X66503Y-28700D01*
X66514Y-28718D01*
X66521Y-28739D01*
X66523Y-28760D01*
X66524Y-28763D01*
X64062Y-35373D02*
X64076Y-35359D01*
X64090Y-35316D01*
X64090Y-35287D01*
X64076Y-35244D01*
X64048Y-35216D01*
X64019Y-35201D01*
X63962Y-35187D01*
X63919Y-35187D01*
X63862Y-35201D01*
X63833Y-35216D01*
X63805Y-35244D01*
X63790Y-35287D01*
X63790Y-35316D01*
X63805Y-35359D01*
X63819Y-35373D01*
X63790Y-35473D02*
X63790Y-35673D01*
X64090Y-35544D01*
X63819Y-35773D02*
X63805Y-35787D01*
X63790Y-35816D01*
X63790Y-35887D01*
X63805Y-35916D01*
X63819Y-35930D01*
X63848Y-35945D01*
X63876Y-35945D01*
X63919Y-35930D01*
X64090Y-35759D01*
X64090Y-35945D01*
X64090Y-36231D02*
X64090Y-36059D01*
X64090Y-36145D02*
X63790Y-36145D01*
X63833Y-36116D01*
X63862Y-36088D01*
X63876Y-36059D01*
X64073Y-37503D02*
X64087Y-37489D01*
X64101Y-37446D01*
X64101Y-37417D01*
X64087Y-37374D01*
X64059Y-37346D01*
X64030Y-37331D01*
X63973Y-37317D01*
X63930Y-37317D01*
X63873Y-37331D01*
X63844Y-37346D01*
X63816Y-37374D01*
X63801Y-37417D01*
X63801Y-37446D01*
X63816Y-37489D01*
X63830Y-37503D01*
X63801Y-37603D02*
X63801Y-37803D01*
X64101Y-37674D01*
X63830Y-37903D02*
X63816Y-37917D01*
X63801Y-37946D01*
X63801Y-38017D01*
X63816Y-38046D01*
X63830Y-38060D01*
X63859Y-38075D01*
X63887Y-38075D01*
X63930Y-38060D01*
X64101Y-37889D01*
X64101Y-38075D01*
X63830Y-38189D02*
X63816Y-38203D01*
X63801Y-38232D01*
X63801Y-38303D01*
X63816Y-38332D01*
X63830Y-38346D01*
X63859Y-38361D01*
X63887Y-38361D01*
X63930Y-38346D01*
X64101Y-38175D01*
X64101Y-38361D01*
X59757Y-29132D02*
X59771Y-29146D01*
X59814Y-29160D01*
X59843Y-29160D01*
X59886Y-29146D01*
X59914Y-29118D01*
X59929Y-29089D01*
X59943Y-29032D01*
X59943Y-28989D01*
X59929Y-28932D01*
X59914Y-28903D01*
X59886Y-28875D01*
X59843Y-28860D01*
X59814Y-28860D01*
X59771Y-28875D01*
X59757Y-28889D01*
X59657Y-28860D02*
X59457Y-28860D01*
X59586Y-29160D01*
X59357Y-28889D02*
X59343Y-28875D01*
X59314Y-28860D01*
X59243Y-28860D01*
X59214Y-28875D01*
X59200Y-28889D01*
X59185Y-28918D01*
X59185Y-28946D01*
X59200Y-28989D01*
X59371Y-29160D01*
X59185Y-29160D01*
X59085Y-28860D02*
X58899Y-28860D01*
X58999Y-28975D01*
X58957Y-28975D01*
X58928Y-28989D01*
X58914Y-29003D01*
X58899Y-29032D01*
X58899Y-29103D01*
X58914Y-29132D01*
X58928Y-29146D01*
X58957Y-29160D01*
X59042Y-29160D01*
X59071Y-29146D01*
X59085Y-29132D01*
X59765Y-31124D02*
X59779Y-31138D01*
X59822Y-31152D01*
X59851Y-31152D01*
X59894Y-31138D01*
X59922Y-31110D01*
X59937Y-31081D01*
X59951Y-31024D01*
X59951Y-30981D01*
X59937Y-30924D01*
X59922Y-30895D01*
X59894Y-30867D01*
X59851Y-30852D01*
X59822Y-30852D01*
X59779Y-30867D01*
X59765Y-30881D01*
X59665Y-30852D02*
X59465Y-30852D01*
X59594Y-31152D01*
X59193Y-31152D02*
X59365Y-31152D01*
X59279Y-31152D02*
X59279Y-30852D01*
X59308Y-30895D01*
X59336Y-30924D01*
X59365Y-30938D01*
X59050Y-31152D02*
X58993Y-31152D01*
X58965Y-31138D01*
X58950Y-31124D01*
X58922Y-31081D01*
X58907Y-31024D01*
X58907Y-30910D01*
X58922Y-30881D01*
X58936Y-30867D01*
X58965Y-30852D01*
X59022Y-30852D01*
X59050Y-30867D01*
X59065Y-30881D01*
X59079Y-30910D01*
X59079Y-30981D01*
X59065Y-31010D01*
X59050Y-31024D01*
X59022Y-31038D01*
X58965Y-31038D01*
X58936Y-31024D01*
X58922Y-31010D01*
X58907Y-30981D01*
X58848Y-41302D02*
X58862Y-41316D01*
X58905Y-41330D01*
X58934Y-41330D01*
X58977Y-41316D01*
X59005Y-41288D01*
X59020Y-41259D01*
X59034Y-41202D01*
X59034Y-41159D01*
X59020Y-41102D01*
X59005Y-41073D01*
X58977Y-41045D01*
X58934Y-41030D01*
X58905Y-41030D01*
X58862Y-41045D01*
X58848Y-41059D01*
X58748Y-41030D02*
X58548Y-41030D01*
X58677Y-41330D01*
X58448Y-41059D02*
X58434Y-41045D01*
X58405Y-41030D01*
X58334Y-41030D01*
X58305Y-41045D01*
X58291Y-41059D01*
X58276Y-41088D01*
X58276Y-41116D01*
X58291Y-41159D01*
X58462Y-41330D01*
X58276Y-41330D01*
X58090Y-41030D02*
X58062Y-41030D01*
X58033Y-41045D01*
X58019Y-41059D01*
X58005Y-41088D01*
X57990Y-41145D01*
X57990Y-41216D01*
X58005Y-41273D01*
X58019Y-41302D01*
X58033Y-41316D01*
X58062Y-41330D01*
X58090Y-41330D01*
X58119Y-41316D01*
X58133Y-41302D01*
X58148Y-41273D01*
X58162Y-41216D01*
X58162Y-41145D01*
X58148Y-41088D01*
X58133Y-41059D01*
X58119Y-41045D01*
X58090Y-41030D01*
X59773Y-32113D02*
X59787Y-32127D01*
X59830Y-32141D01*
X59859Y-32141D01*
X59902Y-32127D01*
X59930Y-32099D01*
X59945Y-32070D01*
X59959Y-32013D01*
X59959Y-31970D01*
X59945Y-31913D01*
X59930Y-31884D01*
X59902Y-31856D01*
X59859Y-31841D01*
X59830Y-31841D01*
X59787Y-31856D01*
X59773Y-31870D01*
X59673Y-31841D02*
X59473Y-31841D01*
X59602Y-32141D01*
X59373Y-31870D02*
X59359Y-31856D01*
X59330Y-31841D01*
X59259Y-31841D01*
X59230Y-31856D01*
X59216Y-31870D01*
X59201Y-31899D01*
X59201Y-31927D01*
X59216Y-31970D01*
X59387Y-32141D01*
X59201Y-32141D01*
X58944Y-31941D02*
X58944Y-32141D01*
X59015Y-31827D02*
X59087Y-32041D01*
X58901Y-32041D01*
X63717Y-41880D02*
X63729Y-41892D01*
X63764Y-41904D01*
X63788Y-41904D01*
X63824Y-41892D01*
X63848Y-41868D01*
X63859Y-41845D01*
X63871Y-41797D01*
X63871Y-41761D01*
X63859Y-41714D01*
X63848Y-41690D01*
X63824Y-41666D01*
X63788Y-41654D01*
X63764Y-41654D01*
X63729Y-41666D01*
X63717Y-41678D01*
X63621Y-41678D02*
X63609Y-41666D01*
X63586Y-41654D01*
X63526Y-41654D01*
X63502Y-41666D01*
X63490Y-41678D01*
X63479Y-41702D01*
X63479Y-41726D01*
X63490Y-41761D01*
X63633Y-41904D01*
X63479Y-41904D01*
X63324Y-41654D02*
X63300Y-41654D01*
X63276Y-41666D01*
X63264Y-41678D01*
X63252Y-41702D01*
X63241Y-41749D01*
X63241Y-41809D01*
X63252Y-41857D01*
X63264Y-41880D01*
X63276Y-41892D01*
X63300Y-41904D01*
X63324Y-41904D01*
X63348Y-41892D01*
X63360Y-41880D01*
X63371Y-41857D01*
X63383Y-41809D01*
X63383Y-41749D01*
X63371Y-41702D01*
X63360Y-41678D01*
X63348Y-41666D01*
X63324Y-41654D01*
X63003Y-41904D02*
X63145Y-41904D01*
X63074Y-41904D02*
X63074Y-41654D01*
X63098Y-41690D01*
X63122Y-41714D01*
X63145Y-41726D01*
X68341Y-30574D02*
X68353Y-30562D01*
X68365Y-30527D01*
X68365Y-30503D01*
X68353Y-30467D01*
X68329Y-30443D01*
X68306Y-30432D01*
X68258Y-30420D01*
X68222Y-30420D01*
X68175Y-30432D01*
X68151Y-30443D01*
X68127Y-30467D01*
X68115Y-30503D01*
X68115Y-30527D01*
X68127Y-30562D01*
X68139Y-30574D01*
X68139Y-30670D02*
X68127Y-30682D01*
X68115Y-30705D01*
X68115Y-30765D01*
X68127Y-30789D01*
X68139Y-30801D01*
X68163Y-30812D01*
X68187Y-30812D01*
X68222Y-30801D01*
X68365Y-30658D01*
X68365Y-30812D01*
X68365Y-31050D02*
X68365Y-30908D01*
X68365Y-30979D02*
X68115Y-30979D01*
X68151Y-30955D01*
X68175Y-30931D01*
X68187Y-30908D01*
X68115Y-31134D02*
X68115Y-31288D01*
X68210Y-31205D01*
X68210Y-31241D01*
X68222Y-31265D01*
X68234Y-31277D01*
X68258Y-31288D01*
X68318Y-31288D01*
X68341Y-31277D01*
X68353Y-31265D01*
X68365Y-31241D01*
X68365Y-31169D01*
X68353Y-31146D01*
X68341Y-31134D01*
G54D15*
X67865Y-28213D02*
X67732Y-28153D01*
X67865Y-28110D02*
X67585Y-28110D01*
X67585Y-28178D01*
X67599Y-28196D01*
X67612Y-28204D01*
X67639Y-28213D01*
X67679Y-28213D01*
X67705Y-28204D01*
X67719Y-28196D01*
X67732Y-28178D01*
X67732Y-28110D01*
X67612Y-28281D02*
X67599Y-28290D01*
X67585Y-28307D01*
X67585Y-28350D01*
X67599Y-28367D01*
X67612Y-28376D01*
X67639Y-28384D01*
X67665Y-28384D01*
X67705Y-28376D01*
X67865Y-28273D01*
X67865Y-28384D01*
X67865Y-28555D02*
X67865Y-28452D01*
X67865Y-28504D02*
X67585Y-28504D01*
X67625Y-28487D01*
X67652Y-28469D01*
X67665Y-28452D01*
X67585Y-28615D02*
X67585Y-28726D01*
X67692Y-28666D01*
X67692Y-28692D01*
X67705Y-28709D01*
X67719Y-28718D01*
X67745Y-28726D01*
X67812Y-28726D01*
X67839Y-28718D01*
X67852Y-28709D01*
X67865Y-28692D01*
X67865Y-28640D01*
X67852Y-28623D01*
X67839Y-28615D01*
X69869Y-30706D02*
X69736Y-30646D01*
X69869Y-30603D02*
X69589Y-30603D01*
X69589Y-30671D01*
X69603Y-30689D01*
X69616Y-30697D01*
X69643Y-30706D01*
X69683Y-30706D01*
X69709Y-30697D01*
X69723Y-30689D01*
X69736Y-30671D01*
X69736Y-30603D01*
X69616Y-30774D02*
X69603Y-30783D01*
X69589Y-30800D01*
X69589Y-30843D01*
X69603Y-30860D01*
X69616Y-30869D01*
X69643Y-30877D01*
X69669Y-30877D01*
X69709Y-30869D01*
X69869Y-30766D01*
X69869Y-30877D01*
X69869Y-31048D02*
X69869Y-30945D01*
X69869Y-30997D02*
X69589Y-30997D01*
X69629Y-30980D01*
X69656Y-30962D01*
X69669Y-30945D01*
X69683Y-31202D02*
X69869Y-31202D01*
X69576Y-31159D02*
X69776Y-31116D01*
X69776Y-31228D01*
X69188Y-30713D02*
X69055Y-30653D01*
X69188Y-30610D02*
X68908Y-30610D01*
X68908Y-30678D01*
X68922Y-30696D01*
X68935Y-30704D01*
X68962Y-30713D01*
X69002Y-30713D01*
X69028Y-30704D01*
X69042Y-30696D01*
X69055Y-30678D01*
X69055Y-30610D01*
X68935Y-30781D02*
X68922Y-30790D01*
X68908Y-30807D01*
X68908Y-30850D01*
X68922Y-30867D01*
X68935Y-30876D01*
X68962Y-30884D01*
X68988Y-30884D01*
X69028Y-30876D01*
X69188Y-30773D01*
X69188Y-30884D01*
X69188Y-31055D02*
X69188Y-30952D01*
X69188Y-31004D02*
X68908Y-31004D01*
X68948Y-30987D01*
X68975Y-30969D01*
X68988Y-30952D01*
X68935Y-31123D02*
X68922Y-31132D01*
X68908Y-31149D01*
X68908Y-31192D01*
X68922Y-31209D01*
X68935Y-31218D01*
X68962Y-31226D01*
X68988Y-31226D01*
X69028Y-31218D01*
X69188Y-31115D01*
X69188Y-31226D01*
X68688Y-28206D02*
X68555Y-28146D01*
X68688Y-28103D02*
X68408Y-28103D01*
X68408Y-28171D01*
X68422Y-28189D01*
X68435Y-28197D01*
X68462Y-28206D01*
X68502Y-28206D01*
X68528Y-28197D01*
X68542Y-28189D01*
X68555Y-28171D01*
X68555Y-28103D01*
X68435Y-28274D02*
X68422Y-28283D01*
X68408Y-28300D01*
X68408Y-28343D01*
X68422Y-28360D01*
X68435Y-28369D01*
X68462Y-28377D01*
X68488Y-28377D01*
X68528Y-28369D01*
X68688Y-28266D01*
X68688Y-28377D01*
X68688Y-28548D02*
X68688Y-28445D01*
X68688Y-28497D02*
X68408Y-28497D01*
X68448Y-28480D01*
X68475Y-28462D01*
X68488Y-28445D01*
X68408Y-28711D02*
X68408Y-28625D01*
X68542Y-28616D01*
X68528Y-28625D01*
X68515Y-28642D01*
X68515Y-28685D01*
X68528Y-28702D01*
X68542Y-28711D01*
X68568Y-28719D01*
X68635Y-28719D01*
X68662Y-28711D01*
X68675Y-28702D01*
X68688Y-28685D01*
X68688Y-28642D01*
X68675Y-28625D01*
X68662Y-28616D01*
X64066Y-27989D02*
X63933Y-27929D01*
X64066Y-27886D02*
X63786Y-27886D01*
X63786Y-27954D01*
X63800Y-27972D01*
X63813Y-27980D01*
X63840Y-27989D01*
X63880Y-27989D01*
X63906Y-27980D01*
X63920Y-27972D01*
X63933Y-27954D01*
X63933Y-27886D01*
X63813Y-28057D02*
X63800Y-28066D01*
X63786Y-28083D01*
X63786Y-28126D01*
X63800Y-28143D01*
X63813Y-28152D01*
X63840Y-28160D01*
X63866Y-28160D01*
X63906Y-28152D01*
X64066Y-28049D01*
X64066Y-28160D01*
X64066Y-28331D02*
X64066Y-28228D01*
X64066Y-28280D02*
X63786Y-28280D01*
X63826Y-28263D01*
X63853Y-28245D01*
X63866Y-28228D01*
X63786Y-28485D02*
X63786Y-28451D01*
X63800Y-28434D01*
X63813Y-28425D01*
X63853Y-28408D01*
X63906Y-28399D01*
X64013Y-28399D01*
X64040Y-28408D01*
X64053Y-28416D01*
X64066Y-28434D01*
X64066Y-28468D01*
X64053Y-28485D01*
X64040Y-28494D01*
X64013Y-28502D01*
X63946Y-28502D01*
X63920Y-28494D01*
X63906Y-28485D01*
X63893Y-28468D01*
X63893Y-28434D01*
X63906Y-28416D01*
X63920Y-28408D01*
X63946Y-28399D01*
X69841Y-29347D02*
X69708Y-29287D01*
X69841Y-29244D02*
X69561Y-29244D01*
X69561Y-29312D01*
X69575Y-29330D01*
X69588Y-29338D01*
X69615Y-29347D01*
X69655Y-29347D01*
X69681Y-29338D01*
X69695Y-29330D01*
X69708Y-29312D01*
X69708Y-29244D01*
X69588Y-29415D02*
X69575Y-29424D01*
X69561Y-29441D01*
X69561Y-29484D01*
X69575Y-29501D01*
X69588Y-29510D01*
X69615Y-29518D01*
X69641Y-29518D01*
X69681Y-29510D01*
X69841Y-29407D01*
X69841Y-29518D01*
X69841Y-29689D02*
X69841Y-29586D01*
X69841Y-29638D02*
X69561Y-29638D01*
X69601Y-29621D01*
X69628Y-29603D01*
X69641Y-29586D01*
X69681Y-29792D02*
X69668Y-29774D01*
X69655Y-29766D01*
X69628Y-29757D01*
X69615Y-29757D01*
X69588Y-29766D01*
X69575Y-29774D01*
X69561Y-29792D01*
X69561Y-29826D01*
X69575Y-29843D01*
X69588Y-29852D01*
X69615Y-29860D01*
X69628Y-29860D01*
X69655Y-29852D01*
X69668Y-29843D01*
X69681Y-29826D01*
X69681Y-29792D01*
X69695Y-29774D01*
X69708Y-29766D01*
X69735Y-29757D01*
X69788Y-29757D01*
X69815Y-29766D01*
X69828Y-29774D01*
X69841Y-29792D01*
X69841Y-29826D01*
X69828Y-29843D01*
X69815Y-29852D01*
X69788Y-29860D01*
X69735Y-29860D01*
X69708Y-29852D01*
X69695Y-29843D01*
X69681Y-29826D01*
X61436Y-28631D02*
X61303Y-28571D01*
X61436Y-28528D02*
X61156Y-28528D01*
X61156Y-28596D01*
X61170Y-28614D01*
X61183Y-28622D01*
X61210Y-28631D01*
X61250Y-28631D01*
X61276Y-28622D01*
X61290Y-28614D01*
X61303Y-28596D01*
X61303Y-28528D01*
X61183Y-28699D02*
X61170Y-28708D01*
X61156Y-28725D01*
X61156Y-28768D01*
X61170Y-28785D01*
X61183Y-28794D01*
X61210Y-28802D01*
X61236Y-28802D01*
X61276Y-28794D01*
X61436Y-28691D01*
X61436Y-28802D01*
X61183Y-28870D02*
X61170Y-28879D01*
X61156Y-28896D01*
X61156Y-28939D01*
X61170Y-28956D01*
X61183Y-28965D01*
X61210Y-28973D01*
X61236Y-28973D01*
X61276Y-28965D01*
X61436Y-28862D01*
X61436Y-28973D01*
X61250Y-29127D02*
X61436Y-29127D01*
X61143Y-29084D02*
X61343Y-29041D01*
X61343Y-29153D01*
X68814Y-41851D02*
X68681Y-41791D01*
X68814Y-41748D02*
X68534Y-41748D01*
X68534Y-41816D01*
X68548Y-41834D01*
X68561Y-41842D01*
X68588Y-41851D01*
X68628Y-41851D01*
X68654Y-41842D01*
X68668Y-41834D01*
X68681Y-41816D01*
X68681Y-41748D01*
X68561Y-41919D02*
X68548Y-41928D01*
X68534Y-41945D01*
X68534Y-41988D01*
X68548Y-42005D01*
X68561Y-42014D01*
X68588Y-42022D01*
X68614Y-42022D01*
X68654Y-42014D01*
X68814Y-41911D01*
X68814Y-42022D01*
X68814Y-42193D02*
X68814Y-42090D01*
X68814Y-42142D02*
X68534Y-42142D01*
X68574Y-42125D01*
X68601Y-42107D01*
X68614Y-42090D01*
X68814Y-42364D02*
X68814Y-42261D01*
X68814Y-42313D02*
X68534Y-42313D01*
X68574Y-42296D01*
X68601Y-42278D01*
X68614Y-42261D01*
X68833Y-40833D02*
X68700Y-40773D01*
X68833Y-40730D02*
X68553Y-40730D01*
X68553Y-40798D01*
X68567Y-40816D01*
X68580Y-40824D01*
X68607Y-40833D01*
X68647Y-40833D01*
X68673Y-40824D01*
X68687Y-40816D01*
X68700Y-40798D01*
X68700Y-40730D01*
X68580Y-40901D02*
X68567Y-40910D01*
X68553Y-40927D01*
X68553Y-40970D01*
X68567Y-40987D01*
X68580Y-40996D01*
X68607Y-41004D01*
X68633Y-41004D01*
X68673Y-40996D01*
X68833Y-40893D01*
X68833Y-41004D01*
X68833Y-41175D02*
X68833Y-41072D01*
X68833Y-41124D02*
X68553Y-41124D01*
X68593Y-41107D01*
X68620Y-41089D01*
X68633Y-41072D01*
X68553Y-41286D02*
X68553Y-41303D01*
X68567Y-41320D01*
X68580Y-41329D01*
X68607Y-41338D01*
X68660Y-41346D01*
X68727Y-41346D01*
X68780Y-41338D01*
X68807Y-41329D01*
X68820Y-41320D01*
X68833Y-41303D01*
X68833Y-41286D01*
X68820Y-41269D01*
X68807Y-41260D01*
X68780Y-41252D01*
X68727Y-41243D01*
X68660Y-41243D01*
X68607Y-41252D01*
X68580Y-41260D01*
X68567Y-41269D01*
X68553Y-41286D01*
X63036Y-43796D02*
X62903Y-43736D01*
X63036Y-43693D02*
X62756Y-43693D01*
X62756Y-43761D01*
X62770Y-43779D01*
X62783Y-43787D01*
X62810Y-43796D01*
X62850Y-43796D01*
X62876Y-43787D01*
X62890Y-43779D01*
X62903Y-43761D01*
X62903Y-43693D01*
X62783Y-43864D02*
X62770Y-43873D01*
X62756Y-43890D01*
X62756Y-43933D01*
X62770Y-43950D01*
X62783Y-43959D01*
X62810Y-43967D01*
X62836Y-43967D01*
X62876Y-43959D01*
X63036Y-43856D01*
X63036Y-43967D01*
X62756Y-44078D02*
X62756Y-44095D01*
X62770Y-44112D01*
X62783Y-44121D01*
X62810Y-44130D01*
X62863Y-44138D01*
X62930Y-44138D01*
X62983Y-44130D01*
X63010Y-44121D01*
X63023Y-44112D01*
X63036Y-44095D01*
X63036Y-44078D01*
X63023Y-44061D01*
X63010Y-44052D01*
X62983Y-44044D01*
X62930Y-44035D01*
X62863Y-44035D01*
X62810Y-44044D01*
X62783Y-44052D01*
X62770Y-44061D01*
X62756Y-44078D01*
X63036Y-44223D02*
X63036Y-44258D01*
X63023Y-44275D01*
X63010Y-44283D01*
X62970Y-44301D01*
X62916Y-44309D01*
X62810Y-44309D01*
X62783Y-44301D01*
X62770Y-44292D01*
X62756Y-44275D01*
X62756Y-44241D01*
X62770Y-44223D01*
X62783Y-44215D01*
X62810Y-44206D01*
X62876Y-44206D01*
X62903Y-44215D01*
X62916Y-44223D01*
X62930Y-44241D01*
X62930Y-44275D01*
X62916Y-44292D01*
X62903Y-44301D01*
X62876Y-44309D01*
X62287Y-43873D02*
X62347Y-43740D01*
X62390Y-43873D02*
X62390Y-43593D01*
X62322Y-43593D01*
X62304Y-43607D01*
X62296Y-43620D01*
X62287Y-43647D01*
X62287Y-43687D01*
X62296Y-43713D01*
X62304Y-43727D01*
X62322Y-43740D01*
X62390Y-43740D01*
X62219Y-43620D02*
X62210Y-43607D01*
X62193Y-43593D01*
X62150Y-43593D01*
X62133Y-43607D01*
X62124Y-43620D01*
X62116Y-43647D01*
X62116Y-43673D01*
X62124Y-43713D01*
X62227Y-43873D01*
X62116Y-43873D01*
X62005Y-43593D02*
X61988Y-43593D01*
X61971Y-43607D01*
X61962Y-43620D01*
X61953Y-43647D01*
X61945Y-43700D01*
X61945Y-43767D01*
X61953Y-43820D01*
X61962Y-43847D01*
X61971Y-43860D01*
X61988Y-43873D01*
X62005Y-43873D01*
X62022Y-43860D01*
X62031Y-43847D01*
X62039Y-43820D01*
X62048Y-43767D01*
X62048Y-43700D01*
X62039Y-43647D01*
X62031Y-43620D01*
X62022Y-43607D01*
X62005Y-43593D01*
X61842Y-43713D02*
X61860Y-43700D01*
X61868Y-43687D01*
X61877Y-43660D01*
X61877Y-43647D01*
X61868Y-43620D01*
X61860Y-43607D01*
X61842Y-43593D01*
X61808Y-43593D01*
X61791Y-43607D01*
X61782Y-43620D01*
X61774Y-43647D01*
X61774Y-43660D01*
X61782Y-43687D01*
X61791Y-43700D01*
X61808Y-43713D01*
X61842Y-43713D01*
X61860Y-43727D01*
X61868Y-43740D01*
X61877Y-43767D01*
X61877Y-43820D01*
X61868Y-43847D01*
X61860Y-43860D01*
X61842Y-43873D01*
X61808Y-43873D01*
X61791Y-43860D01*
X61782Y-43847D01*
X61774Y-43820D01*
X61774Y-43767D01*
X61782Y-43740D01*
X61791Y-43727D01*
X61808Y-43713D01*
X70094Y-43967D02*
X70154Y-43834D01*
X70197Y-43967D02*
X70197Y-43687D01*
X70129Y-43687D01*
X70111Y-43701D01*
X70103Y-43714D01*
X70094Y-43741D01*
X70094Y-43781D01*
X70103Y-43807D01*
X70111Y-43821D01*
X70129Y-43834D01*
X70197Y-43834D01*
X70026Y-43714D02*
X70017Y-43701D01*
X70000Y-43687D01*
X69957Y-43687D01*
X69940Y-43701D01*
X69931Y-43714D01*
X69923Y-43741D01*
X69923Y-43767D01*
X69931Y-43807D01*
X70034Y-43967D01*
X69923Y-43967D01*
X69812Y-43687D02*
X69795Y-43687D01*
X69778Y-43701D01*
X69769Y-43714D01*
X69760Y-43741D01*
X69752Y-43794D01*
X69752Y-43861D01*
X69760Y-43914D01*
X69769Y-43941D01*
X69778Y-43954D01*
X69795Y-43967D01*
X69812Y-43967D01*
X69829Y-43954D01*
X69838Y-43941D01*
X69846Y-43914D01*
X69855Y-43861D01*
X69855Y-43794D01*
X69846Y-43741D01*
X69838Y-43714D01*
X69829Y-43701D01*
X69812Y-43687D01*
X69692Y-43687D02*
X69572Y-43687D01*
X69649Y-43967D01*
X69928Y-43333D02*
X69988Y-43200D01*
X70031Y-43333D02*
X70031Y-43053D01*
X69963Y-43053D01*
X69945Y-43067D01*
X69937Y-43080D01*
X69928Y-43107D01*
X69928Y-43147D01*
X69937Y-43173D01*
X69945Y-43187D01*
X69963Y-43200D01*
X70031Y-43200D01*
X69860Y-43080D02*
X69851Y-43067D01*
X69834Y-43053D01*
X69791Y-43053D01*
X69774Y-43067D01*
X69765Y-43080D01*
X69757Y-43107D01*
X69757Y-43133D01*
X69765Y-43173D01*
X69868Y-43333D01*
X69757Y-43333D01*
X69646Y-43053D02*
X69629Y-43053D01*
X69612Y-43067D01*
X69603Y-43080D01*
X69594Y-43107D01*
X69586Y-43160D01*
X69586Y-43227D01*
X69594Y-43280D01*
X69603Y-43307D01*
X69612Y-43320D01*
X69629Y-43333D01*
X69646Y-43333D01*
X69663Y-43320D01*
X69672Y-43307D01*
X69680Y-43280D01*
X69689Y-43227D01*
X69689Y-43160D01*
X69680Y-43107D01*
X69672Y-43080D01*
X69663Y-43067D01*
X69646Y-43053D01*
X69432Y-43053D02*
X69466Y-43053D01*
X69483Y-43067D01*
X69492Y-43080D01*
X69509Y-43120D01*
X69518Y-43173D01*
X69518Y-43280D01*
X69509Y-43307D01*
X69501Y-43320D01*
X69483Y-43333D01*
X69449Y-43333D01*
X69432Y-43320D01*
X69423Y-43307D01*
X69415Y-43280D01*
X69415Y-43213D01*
X69423Y-43187D01*
X69432Y-43173D01*
X69449Y-43160D01*
X69483Y-43160D01*
X69501Y-43173D01*
X69509Y-43187D01*
X69518Y-43213D01*
X68430Y-44121D02*
X68297Y-44061D01*
X68430Y-44018D02*
X68150Y-44018D01*
X68150Y-44086D01*
X68164Y-44104D01*
X68177Y-44112D01*
X68204Y-44121D01*
X68244Y-44121D01*
X68270Y-44112D01*
X68284Y-44104D01*
X68297Y-44086D01*
X68297Y-44018D01*
X68177Y-44189D02*
X68164Y-44198D01*
X68150Y-44215D01*
X68150Y-44258D01*
X68164Y-44275D01*
X68177Y-44284D01*
X68204Y-44292D01*
X68230Y-44292D01*
X68270Y-44284D01*
X68430Y-44181D01*
X68430Y-44292D01*
X68150Y-44403D02*
X68150Y-44420D01*
X68164Y-44437D01*
X68177Y-44446D01*
X68204Y-44455D01*
X68257Y-44463D01*
X68324Y-44463D01*
X68377Y-44455D01*
X68404Y-44446D01*
X68417Y-44437D01*
X68430Y-44420D01*
X68430Y-44403D01*
X68417Y-44386D01*
X68404Y-44377D01*
X68377Y-44369D01*
X68324Y-44360D01*
X68257Y-44360D01*
X68204Y-44369D01*
X68177Y-44377D01*
X68164Y-44386D01*
X68150Y-44403D01*
X68244Y-44617D02*
X68430Y-44617D01*
X68137Y-44574D02*
X68337Y-44531D01*
X68337Y-44643D01*
X69109Y-44131D02*
X68976Y-44071D01*
X69109Y-44028D02*
X68829Y-44028D01*
X68829Y-44096D01*
X68843Y-44114D01*
X68856Y-44122D01*
X68883Y-44131D01*
X68923Y-44131D01*
X68949Y-44122D01*
X68963Y-44114D01*
X68976Y-44096D01*
X68976Y-44028D01*
X68856Y-44199D02*
X68843Y-44208D01*
X68829Y-44225D01*
X68829Y-44268D01*
X68843Y-44285D01*
X68856Y-44294D01*
X68883Y-44302D01*
X68909Y-44302D01*
X68949Y-44294D01*
X69109Y-44191D01*
X69109Y-44302D01*
X68829Y-44413D02*
X68829Y-44430D01*
X68843Y-44447D01*
X68856Y-44456D01*
X68883Y-44465D01*
X68936Y-44473D01*
X69003Y-44473D01*
X69056Y-44465D01*
X69083Y-44456D01*
X69096Y-44447D01*
X69109Y-44430D01*
X69109Y-44413D01*
X69096Y-44396D01*
X69083Y-44387D01*
X69056Y-44379D01*
X69003Y-44370D01*
X68936Y-44370D01*
X68883Y-44379D01*
X68856Y-44387D01*
X68843Y-44396D01*
X68829Y-44413D01*
X68829Y-44533D02*
X68829Y-44644D01*
X68936Y-44584D01*
X68936Y-44610D01*
X68949Y-44627D01*
X68963Y-44636D01*
X68989Y-44644D01*
X69056Y-44644D01*
X69083Y-44636D01*
X69096Y-44627D01*
X69109Y-44610D01*
X69109Y-44558D01*
X69096Y-44541D01*
X69083Y-44533D01*
X63656Y-43806D02*
X63523Y-43746D01*
X63656Y-43703D02*
X63376Y-43703D01*
X63376Y-43771D01*
X63390Y-43789D01*
X63403Y-43797D01*
X63430Y-43806D01*
X63470Y-43806D01*
X63496Y-43797D01*
X63510Y-43789D01*
X63523Y-43771D01*
X63523Y-43703D01*
X63403Y-43874D02*
X63390Y-43883D01*
X63376Y-43900D01*
X63376Y-43943D01*
X63390Y-43960D01*
X63403Y-43969D01*
X63430Y-43977D01*
X63456Y-43977D01*
X63496Y-43969D01*
X63656Y-43866D01*
X63656Y-43977D01*
X63376Y-44088D02*
X63376Y-44105D01*
X63390Y-44122D01*
X63403Y-44131D01*
X63430Y-44140D01*
X63483Y-44148D01*
X63550Y-44148D01*
X63603Y-44140D01*
X63630Y-44131D01*
X63643Y-44122D01*
X63656Y-44105D01*
X63656Y-44088D01*
X63643Y-44071D01*
X63630Y-44062D01*
X63603Y-44054D01*
X63550Y-44045D01*
X63483Y-44045D01*
X63430Y-44054D01*
X63403Y-44062D01*
X63390Y-44071D01*
X63376Y-44088D01*
X63403Y-44216D02*
X63390Y-44225D01*
X63376Y-44242D01*
X63376Y-44285D01*
X63390Y-44302D01*
X63403Y-44311D01*
X63430Y-44319D01*
X63456Y-44319D01*
X63496Y-44311D01*
X63656Y-44208D01*
X63656Y-44319D01*
X62751Y-28363D02*
X62618Y-28303D01*
X62751Y-28260D02*
X62471Y-28260D01*
X62471Y-28328D01*
X62485Y-28346D01*
X62498Y-28354D01*
X62525Y-28363D01*
X62565Y-28363D01*
X62591Y-28354D01*
X62605Y-28346D01*
X62618Y-28328D01*
X62618Y-28260D01*
X62498Y-28431D02*
X62485Y-28440D01*
X62471Y-28457D01*
X62471Y-28500D01*
X62485Y-28517D01*
X62498Y-28526D01*
X62525Y-28534D01*
X62551Y-28534D01*
X62591Y-28526D01*
X62751Y-28423D01*
X62751Y-28534D01*
X62498Y-28602D02*
X62485Y-28611D01*
X62471Y-28628D01*
X62471Y-28671D01*
X62485Y-28688D01*
X62498Y-28697D01*
X62525Y-28705D01*
X62551Y-28705D01*
X62591Y-28697D01*
X62751Y-28594D01*
X62751Y-28705D01*
X62471Y-28816D02*
X62471Y-28833D01*
X62485Y-28850D01*
X62498Y-28859D01*
X62525Y-28868D01*
X62578Y-28876D01*
X62645Y-28876D01*
X62698Y-28868D01*
X62725Y-28859D01*
X62738Y-28850D01*
X62751Y-28833D01*
X62751Y-28816D01*
X62738Y-28799D01*
X62725Y-28790D01*
X62698Y-28782D01*
X62645Y-28773D01*
X62578Y-28773D01*
X62525Y-28782D01*
X62498Y-28790D01*
X62485Y-28799D01*
X62471Y-28816D01*
X67770Y-44121D02*
X67637Y-44061D01*
X67770Y-44018D02*
X67490Y-44018D01*
X67490Y-44086D01*
X67504Y-44104D01*
X67517Y-44112D01*
X67544Y-44121D01*
X67584Y-44121D01*
X67610Y-44112D01*
X67624Y-44104D01*
X67637Y-44086D01*
X67637Y-44018D01*
X67517Y-44189D02*
X67504Y-44198D01*
X67490Y-44215D01*
X67490Y-44258D01*
X67504Y-44275D01*
X67517Y-44284D01*
X67544Y-44292D01*
X67570Y-44292D01*
X67610Y-44284D01*
X67770Y-44181D01*
X67770Y-44292D01*
X67490Y-44403D02*
X67490Y-44420D01*
X67504Y-44437D01*
X67517Y-44446D01*
X67544Y-44455D01*
X67597Y-44463D01*
X67664Y-44463D01*
X67717Y-44455D01*
X67744Y-44446D01*
X67757Y-44437D01*
X67770Y-44420D01*
X67770Y-44403D01*
X67757Y-44386D01*
X67744Y-44377D01*
X67717Y-44369D01*
X67664Y-44360D01*
X67597Y-44360D01*
X67544Y-44369D01*
X67517Y-44377D01*
X67504Y-44386D01*
X67490Y-44403D01*
X67490Y-44626D02*
X67490Y-44540D01*
X67624Y-44531D01*
X67610Y-44540D01*
X67597Y-44557D01*
X67597Y-44600D01*
X67610Y-44617D01*
X67624Y-44626D01*
X67650Y-44634D01*
X67717Y-44634D01*
X67744Y-44626D01*
X67757Y-44617D01*
X67770Y-44600D01*
X67770Y-44557D01*
X67757Y-44540D01*
X67744Y-44531D01*
X63015Y-29721D02*
X62882Y-29661D01*
X63015Y-29618D02*
X62735Y-29618D01*
X62735Y-29686D01*
X62749Y-29704D01*
X62762Y-29712D01*
X62789Y-29721D01*
X62829Y-29721D01*
X62855Y-29712D01*
X62869Y-29704D01*
X62882Y-29686D01*
X62882Y-29618D01*
X62762Y-29789D02*
X62749Y-29798D01*
X62735Y-29815D01*
X62735Y-29858D01*
X62749Y-29875D01*
X62762Y-29884D01*
X62789Y-29892D01*
X62815Y-29892D01*
X62855Y-29884D01*
X63015Y-29781D01*
X63015Y-29892D01*
X62762Y-29960D02*
X62749Y-29969D01*
X62735Y-29986D01*
X62735Y-30029D01*
X62749Y-30046D01*
X62762Y-30055D01*
X62789Y-30063D01*
X62815Y-30063D01*
X62855Y-30055D01*
X63015Y-29952D01*
X63015Y-30063D01*
X62735Y-30123D02*
X62735Y-30234D01*
X62842Y-30174D01*
X62842Y-30200D01*
X62855Y-30217D01*
X62869Y-30226D01*
X62895Y-30234D01*
X62962Y-30234D01*
X62989Y-30226D01*
X63002Y-30217D01*
X63015Y-30200D01*
X63015Y-30148D01*
X63002Y-30131D01*
X62989Y-30123D01*
X70023Y-32534D02*
X70083Y-32401D01*
X70126Y-32534D02*
X70126Y-32254D01*
X70058Y-32254D01*
X70040Y-32268D01*
X70032Y-32281D01*
X70023Y-32308D01*
X70023Y-32348D01*
X70032Y-32374D01*
X70040Y-32388D01*
X70058Y-32401D01*
X70126Y-32401D01*
X69955Y-32281D02*
X69946Y-32268D01*
X69929Y-32254D01*
X69886Y-32254D01*
X69869Y-32268D01*
X69860Y-32281D01*
X69852Y-32308D01*
X69852Y-32334D01*
X69860Y-32374D01*
X69963Y-32534D01*
X69852Y-32534D01*
X69784Y-32281D02*
X69775Y-32268D01*
X69758Y-32254D01*
X69715Y-32254D01*
X69698Y-32268D01*
X69689Y-32281D01*
X69681Y-32308D01*
X69681Y-32334D01*
X69689Y-32374D01*
X69792Y-32534D01*
X69681Y-32534D01*
X69613Y-32281D02*
X69604Y-32268D01*
X69587Y-32254D01*
X69544Y-32254D01*
X69527Y-32268D01*
X69518Y-32281D01*
X69510Y-32308D01*
X69510Y-32334D01*
X69518Y-32374D01*
X69621Y-32534D01*
X69510Y-32534D01*
X68528Y-32517D02*
X68395Y-32457D01*
X68528Y-32414D02*
X68248Y-32414D01*
X68248Y-32482D01*
X68262Y-32500D01*
X68275Y-32508D01*
X68302Y-32517D01*
X68342Y-32517D01*
X68368Y-32508D01*
X68382Y-32500D01*
X68395Y-32482D01*
X68395Y-32414D01*
X68275Y-32585D02*
X68262Y-32594D01*
X68248Y-32611D01*
X68248Y-32654D01*
X68262Y-32671D01*
X68275Y-32680D01*
X68302Y-32688D01*
X68328Y-32688D01*
X68368Y-32680D01*
X68528Y-32577D01*
X68528Y-32688D01*
X68275Y-32756D02*
X68262Y-32765D01*
X68248Y-32782D01*
X68248Y-32825D01*
X68262Y-32842D01*
X68275Y-32851D01*
X68302Y-32859D01*
X68328Y-32859D01*
X68368Y-32851D01*
X68528Y-32748D01*
X68528Y-32859D01*
X68528Y-33030D02*
X68528Y-32927D01*
X68528Y-32979D02*
X68248Y-32979D01*
X68288Y-32962D01*
X68315Y-32944D01*
X68328Y-32927D01*
X64267Y-43806D02*
X64134Y-43746D01*
X64267Y-43703D02*
X63987Y-43703D01*
X63987Y-43771D01*
X64001Y-43789D01*
X64014Y-43797D01*
X64041Y-43806D01*
X64081Y-43806D01*
X64107Y-43797D01*
X64121Y-43789D01*
X64134Y-43771D01*
X64134Y-43703D01*
X64014Y-43874D02*
X64001Y-43883D01*
X63987Y-43900D01*
X63987Y-43943D01*
X64001Y-43960D01*
X64014Y-43969D01*
X64041Y-43977D01*
X64067Y-43977D01*
X64107Y-43969D01*
X64267Y-43866D01*
X64267Y-43977D01*
X63987Y-44088D02*
X63987Y-44105D01*
X64001Y-44122D01*
X64014Y-44131D01*
X64041Y-44140D01*
X64094Y-44148D01*
X64161Y-44148D01*
X64214Y-44140D01*
X64241Y-44131D01*
X64254Y-44122D01*
X64267Y-44105D01*
X64267Y-44088D01*
X64254Y-44071D01*
X64241Y-44062D01*
X64214Y-44054D01*
X64161Y-44045D01*
X64094Y-44045D01*
X64041Y-44054D01*
X64014Y-44062D01*
X64001Y-44071D01*
X63987Y-44088D01*
X64267Y-44319D02*
X64267Y-44216D01*
X64267Y-44268D02*
X63987Y-44268D01*
X64027Y-44251D01*
X64054Y-44233D01*
X64067Y-44216D01*
X69397Y-28206D02*
X69406Y-28197D01*
X69416Y-28171D01*
X69416Y-28154D01*
X69406Y-28129D01*
X69387Y-28111D01*
X69368Y-28103D01*
X69330Y-28094D01*
X69302Y-28094D01*
X69264Y-28103D01*
X69245Y-28111D01*
X69225Y-28129D01*
X69216Y-28154D01*
X69216Y-28171D01*
X69225Y-28197D01*
X69235Y-28206D01*
X69235Y-28274D02*
X69225Y-28283D01*
X69216Y-28300D01*
X69216Y-28343D01*
X69225Y-28360D01*
X69235Y-28369D01*
X69254Y-28377D01*
X69273Y-28377D01*
X69302Y-28369D01*
X69416Y-28266D01*
X69416Y-28377D01*
X69416Y-28548D02*
X69416Y-28445D01*
X69416Y-28497D02*
X69216Y-28497D01*
X69245Y-28480D01*
X69264Y-28462D01*
X69273Y-28445D01*
X69216Y-28711D02*
X69216Y-28625D01*
X69311Y-28616D01*
X69302Y-28625D01*
X69292Y-28642D01*
X69292Y-28685D01*
X69302Y-28702D01*
X69311Y-28711D01*
X69330Y-28719D01*
X69378Y-28719D01*
X69397Y-28711D01*
X69406Y-28702D01*
X69416Y-28685D01*
X69416Y-28642D01*
X69406Y-28625D01*
X69397Y-28616D01*
X69068Y-32251D02*
X69077Y-32242D01*
X69087Y-32216D01*
X69087Y-32199D01*
X69077Y-32174D01*
X69058Y-32156D01*
X69039Y-32148D01*
X69001Y-32139D01*
X68973Y-32139D01*
X68935Y-32148D01*
X68916Y-32156D01*
X68896Y-32174D01*
X68887Y-32199D01*
X68887Y-32216D01*
X68896Y-32242D01*
X68906Y-32251D01*
X68906Y-32319D02*
X68896Y-32328D01*
X68887Y-32345D01*
X68887Y-32388D01*
X68896Y-32405D01*
X68906Y-32414D01*
X68925Y-32422D01*
X68944Y-32422D01*
X68973Y-32414D01*
X69087Y-32311D01*
X69087Y-32422D01*
X68906Y-32490D02*
X68896Y-32499D01*
X68887Y-32516D01*
X68887Y-32559D01*
X68896Y-32576D01*
X68906Y-32585D01*
X68925Y-32593D01*
X68944Y-32593D01*
X68973Y-32585D01*
X69087Y-32482D01*
X69087Y-32593D01*
X68954Y-32747D02*
X69087Y-32747D01*
X68877Y-32704D02*
X69020Y-32661D01*
X69020Y-32773D01*
X61586Y-29713D02*
X61595Y-29704D01*
X61605Y-29678D01*
X61605Y-29661D01*
X61595Y-29636D01*
X61576Y-29618D01*
X61557Y-29610D01*
X61519Y-29601D01*
X61491Y-29601D01*
X61453Y-29610D01*
X61434Y-29618D01*
X61414Y-29636D01*
X61405Y-29661D01*
X61405Y-29678D01*
X61414Y-29704D01*
X61424Y-29713D01*
X61424Y-29781D02*
X61414Y-29790D01*
X61405Y-29807D01*
X61405Y-29850D01*
X61414Y-29867D01*
X61424Y-29876D01*
X61443Y-29884D01*
X61462Y-29884D01*
X61491Y-29876D01*
X61605Y-29773D01*
X61605Y-29884D01*
X61424Y-29952D02*
X61414Y-29961D01*
X61405Y-29978D01*
X61405Y-30021D01*
X61414Y-30038D01*
X61424Y-30047D01*
X61443Y-30055D01*
X61462Y-30055D01*
X61491Y-30047D01*
X61605Y-29944D01*
X61605Y-30055D01*
X61405Y-30115D02*
X61405Y-30226D01*
X61481Y-30166D01*
X61481Y-30192D01*
X61491Y-30209D01*
X61500Y-30218D01*
X61519Y-30226D01*
X61567Y-30226D01*
X61586Y-30218D01*
X61595Y-30209D01*
X61605Y-30192D01*
X61605Y-30140D01*
X61595Y-30123D01*
X61586Y-30115D01*
X69501Y-33320D02*
X69510Y-33329D01*
X69536Y-33339D01*
X69553Y-33339D01*
X69578Y-33329D01*
X69596Y-33310D01*
X69604Y-33291D01*
X69613Y-33253D01*
X69613Y-33225D01*
X69604Y-33187D01*
X69596Y-33168D01*
X69578Y-33148D01*
X69553Y-33139D01*
X69536Y-33139D01*
X69510Y-33148D01*
X69501Y-33158D01*
X69433Y-33158D02*
X69424Y-33148D01*
X69407Y-33139D01*
X69364Y-33139D01*
X69347Y-33148D01*
X69338Y-33158D01*
X69330Y-33177D01*
X69330Y-33196D01*
X69338Y-33225D01*
X69441Y-33339D01*
X69330Y-33339D01*
X69262Y-33158D02*
X69253Y-33148D01*
X69236Y-33139D01*
X69193Y-33139D01*
X69176Y-33148D01*
X69167Y-33158D01*
X69159Y-33177D01*
X69159Y-33196D01*
X69167Y-33225D01*
X69270Y-33339D01*
X69159Y-33339D01*
X69091Y-33158D02*
X69082Y-33148D01*
X69065Y-33139D01*
X69022Y-33139D01*
X69005Y-33148D01*
X68996Y-33158D01*
X68988Y-33177D01*
X68988Y-33196D01*
X68996Y-33225D01*
X69099Y-33339D01*
X68988Y-33339D01*
X62275Y-29721D02*
X62284Y-29712D01*
X62294Y-29686D01*
X62294Y-29669D01*
X62284Y-29644D01*
X62265Y-29626D01*
X62246Y-29618D01*
X62208Y-29609D01*
X62180Y-29609D01*
X62142Y-29618D01*
X62123Y-29626D01*
X62103Y-29644D01*
X62094Y-29669D01*
X62094Y-29686D01*
X62103Y-29712D01*
X62113Y-29721D01*
X62113Y-29789D02*
X62103Y-29798D01*
X62094Y-29815D01*
X62094Y-29858D01*
X62103Y-29875D01*
X62113Y-29884D01*
X62132Y-29892D01*
X62151Y-29892D01*
X62180Y-29884D01*
X62294Y-29781D01*
X62294Y-29892D01*
X62113Y-29960D02*
X62103Y-29969D01*
X62094Y-29986D01*
X62094Y-30029D01*
X62103Y-30046D01*
X62113Y-30055D01*
X62132Y-30063D01*
X62151Y-30063D01*
X62180Y-30055D01*
X62294Y-29952D01*
X62294Y-30063D01*
X62294Y-30234D02*
X62294Y-30131D01*
X62294Y-30183D02*
X62094Y-30183D01*
X62123Y-30166D01*
X62142Y-30148D01*
X62151Y-30131D01*
X63338Y-27977D02*
X63347Y-27968D01*
X63357Y-27942D01*
X63357Y-27925D01*
X63347Y-27900D01*
X63328Y-27882D01*
X63309Y-27874D01*
X63271Y-27865D01*
X63243Y-27865D01*
X63205Y-27874D01*
X63186Y-27882D01*
X63166Y-27900D01*
X63157Y-27925D01*
X63157Y-27942D01*
X63166Y-27968D01*
X63176Y-27977D01*
X63176Y-28045D02*
X63166Y-28054D01*
X63157Y-28071D01*
X63157Y-28114D01*
X63166Y-28131D01*
X63176Y-28140D01*
X63195Y-28148D01*
X63214Y-28148D01*
X63243Y-28140D01*
X63357Y-28037D01*
X63357Y-28148D01*
X63357Y-28319D02*
X63357Y-28216D01*
X63357Y-28268D02*
X63157Y-28268D01*
X63186Y-28251D01*
X63205Y-28233D01*
X63214Y-28216D01*
X63357Y-28404D02*
X63357Y-28439D01*
X63347Y-28456D01*
X63338Y-28464D01*
X63309Y-28482D01*
X63271Y-28490D01*
X63195Y-28490D01*
X63176Y-28482D01*
X63166Y-28473D01*
X63157Y-28456D01*
X63157Y-28422D01*
X63166Y-28404D01*
X63176Y-28396D01*
X63195Y-28387D01*
X63243Y-28387D01*
X63262Y-28396D01*
X63271Y-28404D01*
X63281Y-28422D01*
X63281Y-28456D01*
X63271Y-28473D01*
X63262Y-28482D01*
X63243Y-28490D01*
X67897Y-32507D02*
X67906Y-32498D01*
X67916Y-32472D01*
X67916Y-32455D01*
X67906Y-32430D01*
X67887Y-32412D01*
X67868Y-32404D01*
X67830Y-32395D01*
X67802Y-32395D01*
X67764Y-32404D01*
X67745Y-32412D01*
X67725Y-32430D01*
X67716Y-32455D01*
X67716Y-32472D01*
X67725Y-32498D01*
X67735Y-32507D01*
X67735Y-32575D02*
X67725Y-32584D01*
X67716Y-32601D01*
X67716Y-32644D01*
X67725Y-32661D01*
X67735Y-32670D01*
X67754Y-32678D01*
X67773Y-32678D01*
X67802Y-32670D01*
X67916Y-32567D01*
X67916Y-32678D01*
X67916Y-32849D02*
X67916Y-32746D01*
X67916Y-32798D02*
X67716Y-32798D01*
X67745Y-32781D01*
X67764Y-32763D01*
X67773Y-32746D01*
X67802Y-32952D02*
X67792Y-32934D01*
X67783Y-32926D01*
X67764Y-32917D01*
X67754Y-32917D01*
X67735Y-32926D01*
X67725Y-32934D01*
X67716Y-32952D01*
X67716Y-32986D01*
X67725Y-33003D01*
X67735Y-33012D01*
X67754Y-33020D01*
X67764Y-33020D01*
X67783Y-33012D01*
X67792Y-33003D01*
X67802Y-32986D01*
X67802Y-32952D01*
X67811Y-32934D01*
X67821Y-32926D01*
X67840Y-32917D01*
X67878Y-32917D01*
X67897Y-32926D01*
X67906Y-32934D01*
X67916Y-32952D01*
X67916Y-32986D01*
X67906Y-33003D01*
X67897Y-33012D01*
X67878Y-33020D01*
X67840Y-33020D01*
X67821Y-33012D01*
X67811Y-33003D01*
X67802Y-32986D01*
X62054Y-27977D02*
X62063Y-27968D01*
X62073Y-27942D01*
X62073Y-27925D01*
X62063Y-27900D01*
X62044Y-27882D01*
X62025Y-27874D01*
X61987Y-27865D01*
X61959Y-27865D01*
X61921Y-27874D01*
X61902Y-27882D01*
X61882Y-27900D01*
X61873Y-27925D01*
X61873Y-27942D01*
X61882Y-27968D01*
X61892Y-27977D01*
X61892Y-28045D02*
X61882Y-28054D01*
X61873Y-28071D01*
X61873Y-28114D01*
X61882Y-28131D01*
X61892Y-28140D01*
X61911Y-28148D01*
X61930Y-28148D01*
X61959Y-28140D01*
X62073Y-28037D01*
X62073Y-28148D01*
X62073Y-28319D02*
X62073Y-28216D01*
X62073Y-28268D02*
X61873Y-28268D01*
X61902Y-28251D01*
X61921Y-28233D01*
X61930Y-28216D01*
X61873Y-28379D02*
X61873Y-28499D01*
X62073Y-28422D01*
X70149Y-28206D02*
X70158Y-28197D01*
X70168Y-28171D01*
X70168Y-28154D01*
X70158Y-28129D01*
X70139Y-28111D01*
X70120Y-28103D01*
X70082Y-28094D01*
X70054Y-28094D01*
X70016Y-28103D01*
X69997Y-28111D01*
X69977Y-28129D01*
X69968Y-28154D01*
X69968Y-28171D01*
X69977Y-28197D01*
X69987Y-28206D01*
X69987Y-28274D02*
X69977Y-28283D01*
X69968Y-28300D01*
X69968Y-28343D01*
X69977Y-28360D01*
X69987Y-28369D01*
X70006Y-28377D01*
X70025Y-28377D01*
X70054Y-28369D01*
X70168Y-28266D01*
X70168Y-28377D01*
X70168Y-28548D02*
X70168Y-28445D01*
X70168Y-28497D02*
X69968Y-28497D01*
X69997Y-28480D01*
X70016Y-28462D01*
X70025Y-28445D01*
X69968Y-28702D02*
X69968Y-28668D01*
X69977Y-28651D01*
X69987Y-28642D01*
X70016Y-28625D01*
X70054Y-28616D01*
X70130Y-28616D01*
X70149Y-28625D01*
X70158Y-28633D01*
X70168Y-28651D01*
X70168Y-28685D01*
X70158Y-28702D01*
X70149Y-28711D01*
X70130Y-28719D01*
X70082Y-28719D01*
X70063Y-28711D01*
X70054Y-28702D01*
X70044Y-28685D01*
X70044Y-28651D01*
X70054Y-28633D01*
X70063Y-28625D01*
X70082Y-28616D01*
X63609Y-29721D02*
X63618Y-29712D01*
X63628Y-29686D01*
X63628Y-29669D01*
X63618Y-29644D01*
X63599Y-29626D01*
X63580Y-29618D01*
X63542Y-29609D01*
X63514Y-29609D01*
X63476Y-29618D01*
X63457Y-29626D01*
X63437Y-29644D01*
X63428Y-29669D01*
X63428Y-29686D01*
X63437Y-29712D01*
X63447Y-29721D01*
X63447Y-29789D02*
X63437Y-29798D01*
X63428Y-29815D01*
X63428Y-29858D01*
X63437Y-29875D01*
X63447Y-29884D01*
X63466Y-29892D01*
X63485Y-29892D01*
X63514Y-29884D01*
X63628Y-29781D01*
X63628Y-29892D01*
X63447Y-29960D02*
X63437Y-29969D01*
X63428Y-29986D01*
X63428Y-30029D01*
X63437Y-30046D01*
X63447Y-30055D01*
X63466Y-30063D01*
X63485Y-30063D01*
X63514Y-30055D01*
X63628Y-29952D01*
X63628Y-30063D01*
X63428Y-30174D02*
X63428Y-30191D01*
X63437Y-30208D01*
X63447Y-30217D01*
X63466Y-30226D01*
X63504Y-30234D01*
X63552Y-30234D01*
X63590Y-30226D01*
X63609Y-30217D01*
X63618Y-30208D01*
X63628Y-30191D01*
X63628Y-30174D01*
X63618Y-30157D01*
X63609Y-30148D01*
X63590Y-30140D01*
X63552Y-30131D01*
X63504Y-30131D01*
X63466Y-30140D01*
X63447Y-30148D01*
X63437Y-30157D01*
X63428Y-30174D01*
X67688Y-30670D02*
X67697Y-30661D01*
X67707Y-30635D01*
X67707Y-30618D01*
X67697Y-30593D01*
X67678Y-30575D01*
X67659Y-30567D01*
X67621Y-30558D01*
X67593Y-30558D01*
X67555Y-30567D01*
X67536Y-30575D01*
X67516Y-30593D01*
X67507Y-30618D01*
X67507Y-30635D01*
X67516Y-30661D01*
X67526Y-30670D01*
X67526Y-30738D02*
X67516Y-30747D01*
X67507Y-30764D01*
X67507Y-30807D01*
X67516Y-30824D01*
X67526Y-30833D01*
X67545Y-30841D01*
X67564Y-30841D01*
X67593Y-30833D01*
X67707Y-30730D01*
X67707Y-30841D01*
X67707Y-31012D02*
X67707Y-30909D01*
X67707Y-30961D02*
X67507Y-30961D01*
X67536Y-30944D01*
X67555Y-30926D01*
X67564Y-30909D01*
X67574Y-31166D02*
X67707Y-31166D01*
X67497Y-31123D02*
X67640Y-31080D01*
X67640Y-31192D01*
X59259Y-40444D02*
X59268Y-40453D01*
X59294Y-40463D01*
X59311Y-40463D01*
X59336Y-40453D01*
X59354Y-40434D01*
X59362Y-40415D01*
X59371Y-40377D01*
X59371Y-40349D01*
X59362Y-40311D01*
X59354Y-40292D01*
X59336Y-40272D01*
X59311Y-40263D01*
X59294Y-40263D01*
X59268Y-40272D01*
X59259Y-40282D01*
X59191Y-40282D02*
X59182Y-40272D01*
X59165Y-40263D01*
X59122Y-40263D01*
X59105Y-40272D01*
X59096Y-40282D01*
X59088Y-40301D01*
X59088Y-40320D01*
X59096Y-40349D01*
X59199Y-40463D01*
X59088Y-40463D01*
X58917Y-40463D02*
X59020Y-40463D01*
X58968Y-40463D02*
X58968Y-40263D01*
X58985Y-40292D01*
X59003Y-40311D01*
X59020Y-40320D01*
X58849Y-40282D02*
X58840Y-40272D01*
X58823Y-40263D01*
X58780Y-40263D01*
X58763Y-40272D01*
X58754Y-40282D01*
X58746Y-40301D01*
X58746Y-40320D01*
X58754Y-40349D01*
X58857Y-40463D01*
X58746Y-40463D01*
X70141Y-41576D02*
X70150Y-41567D01*
X70160Y-41541D01*
X70160Y-41524D01*
X70150Y-41499D01*
X70131Y-41481D01*
X70112Y-41473D01*
X70074Y-41464D01*
X70046Y-41464D01*
X70008Y-41473D01*
X69989Y-41481D01*
X69969Y-41499D01*
X69960Y-41524D01*
X69960Y-41541D01*
X69969Y-41567D01*
X69979Y-41576D01*
X69979Y-41644D02*
X69969Y-41653D01*
X69960Y-41670D01*
X69960Y-41713D01*
X69969Y-41730D01*
X69979Y-41739D01*
X69998Y-41747D01*
X70017Y-41747D01*
X70046Y-41739D01*
X70160Y-41636D01*
X70160Y-41747D01*
X70160Y-41918D02*
X70160Y-41815D01*
X70160Y-41867D02*
X69960Y-41867D01*
X69989Y-41850D01*
X70008Y-41832D01*
X70017Y-41815D01*
X70160Y-42089D02*
X70160Y-41986D01*
X70160Y-42038D02*
X69960Y-42038D01*
X69989Y-42021D01*
X70008Y-42003D01*
X70017Y-41986D01*
X60149Y-39771D02*
X60158Y-39780D01*
X60184Y-39790D01*
X60201Y-39790D01*
X60226Y-39780D01*
X60244Y-39761D01*
X60252Y-39742D01*
X60261Y-39704D01*
X60261Y-39676D01*
X60252Y-39638D01*
X60244Y-39619D01*
X60226Y-39599D01*
X60201Y-39590D01*
X60184Y-39590D01*
X60158Y-39599D01*
X60149Y-39609D01*
X60081Y-39609D02*
X60072Y-39599D01*
X60055Y-39590D01*
X60012Y-39590D01*
X59995Y-39599D01*
X59986Y-39609D01*
X59978Y-39628D01*
X59978Y-39647D01*
X59986Y-39676D01*
X60089Y-39790D01*
X59978Y-39790D01*
X59807Y-39790D02*
X59910Y-39790D01*
X59858Y-39790D02*
X59858Y-39590D01*
X59875Y-39619D01*
X59893Y-39638D01*
X59910Y-39647D01*
X59696Y-39590D02*
X59679Y-39590D01*
X59662Y-39599D01*
X59653Y-39609D01*
X59644Y-39628D01*
X59636Y-39666D01*
X59636Y-39714D01*
X59644Y-39752D01*
X59653Y-39771D01*
X59662Y-39780D01*
X59679Y-39790D01*
X59696Y-39790D01*
X59713Y-39780D01*
X59722Y-39771D01*
X59730Y-39752D01*
X59739Y-39714D01*
X59739Y-39666D01*
X59730Y-39628D01*
X59722Y-39609D01*
X59713Y-39599D01*
X59696Y-39590D01*
X69531Y-41583D02*
X69540Y-41574D01*
X69550Y-41548D01*
X69550Y-41531D01*
X69540Y-41506D01*
X69521Y-41488D01*
X69502Y-41480D01*
X69464Y-41471D01*
X69436Y-41471D01*
X69398Y-41480D01*
X69379Y-41488D01*
X69359Y-41506D01*
X69350Y-41531D01*
X69350Y-41548D01*
X69359Y-41574D01*
X69369Y-41583D01*
X69369Y-41651D02*
X69359Y-41660D01*
X69350Y-41677D01*
X69350Y-41720D01*
X69359Y-41737D01*
X69369Y-41746D01*
X69388Y-41754D01*
X69407Y-41754D01*
X69436Y-41746D01*
X69550Y-41643D01*
X69550Y-41754D01*
X69350Y-41865D02*
X69350Y-41882D01*
X69359Y-41899D01*
X69369Y-41908D01*
X69388Y-41917D01*
X69426Y-41925D01*
X69474Y-41925D01*
X69512Y-41917D01*
X69531Y-41908D01*
X69540Y-41899D01*
X69550Y-41882D01*
X69550Y-41865D01*
X69540Y-41848D01*
X69531Y-41839D01*
X69512Y-41831D01*
X69474Y-41822D01*
X69426Y-41822D01*
X69388Y-41831D01*
X69369Y-41839D01*
X69359Y-41848D01*
X69350Y-41865D01*
X69550Y-42010D02*
X69550Y-42045D01*
X69540Y-42062D01*
X69531Y-42070D01*
X69502Y-42088D01*
X69464Y-42096D01*
X69388Y-42096D01*
X69369Y-42088D01*
X69359Y-42079D01*
X69350Y-42062D01*
X69350Y-42028D01*
X69359Y-42010D01*
X69369Y-42002D01*
X69388Y-41993D01*
X69436Y-41993D01*
X69455Y-42002D01*
X69464Y-42010D01*
X69474Y-42028D01*
X69474Y-42062D01*
X69464Y-42079D01*
X69455Y-42088D01*
X69436Y-42096D01*
X68162Y-40824D02*
X68171Y-40815D01*
X68181Y-40789D01*
X68181Y-40772D01*
X68171Y-40747D01*
X68152Y-40729D01*
X68133Y-40721D01*
X68095Y-40712D01*
X68067Y-40712D01*
X68029Y-40721D01*
X68010Y-40729D01*
X67990Y-40747D01*
X67981Y-40772D01*
X67981Y-40789D01*
X67990Y-40815D01*
X68000Y-40824D01*
X68000Y-40892D02*
X67990Y-40901D01*
X67981Y-40918D01*
X67981Y-40961D01*
X67990Y-40978D01*
X68000Y-40987D01*
X68019Y-40995D01*
X68038Y-40995D01*
X68067Y-40987D01*
X68181Y-40884D01*
X68181Y-40995D01*
X67981Y-41106D02*
X67981Y-41123D01*
X67990Y-41140D01*
X68000Y-41149D01*
X68019Y-41158D01*
X68057Y-41166D01*
X68105Y-41166D01*
X68143Y-41158D01*
X68162Y-41149D01*
X68171Y-41140D01*
X68181Y-41123D01*
X68181Y-41106D01*
X68171Y-41089D01*
X68162Y-41080D01*
X68143Y-41072D01*
X68105Y-41063D01*
X68057Y-41063D01*
X68019Y-41072D01*
X68000Y-41080D01*
X67990Y-41089D01*
X67981Y-41106D01*
X68067Y-41269D02*
X68057Y-41251D01*
X68048Y-41243D01*
X68029Y-41234D01*
X68019Y-41234D01*
X68000Y-41243D01*
X67990Y-41251D01*
X67981Y-41269D01*
X67981Y-41303D01*
X67990Y-41320D01*
X68000Y-41329D01*
X68019Y-41337D01*
X68029Y-41337D01*
X68048Y-41329D01*
X68057Y-41320D01*
X68067Y-41303D01*
X68067Y-41269D01*
X68076Y-41251D01*
X68086Y-41243D01*
X68105Y-41234D01*
X68143Y-41234D01*
X68162Y-41243D01*
X68171Y-41251D01*
X68181Y-41269D01*
X68181Y-41303D01*
X68171Y-41320D01*
X68162Y-41329D01*
X68143Y-41337D01*
X68105Y-41337D01*
X68086Y-41329D01*
X68076Y-41320D01*
X68067Y-41303D01*
X62306Y-44442D02*
X62315Y-44451D01*
X62341Y-44461D01*
X62358Y-44461D01*
X62383Y-44451D01*
X62401Y-44432D01*
X62409Y-44413D01*
X62418Y-44375D01*
X62418Y-44347D01*
X62409Y-44309D01*
X62401Y-44290D01*
X62383Y-44270D01*
X62358Y-44261D01*
X62341Y-44261D01*
X62315Y-44270D01*
X62306Y-44280D01*
X62238Y-44280D02*
X62229Y-44270D01*
X62212Y-44261D01*
X62169Y-44261D01*
X62152Y-44270D01*
X62143Y-44280D01*
X62135Y-44299D01*
X62135Y-44318D01*
X62143Y-44347D01*
X62246Y-44461D01*
X62135Y-44461D01*
X62024Y-44261D02*
X62007Y-44261D01*
X61990Y-44270D01*
X61981Y-44280D01*
X61972Y-44299D01*
X61964Y-44337D01*
X61964Y-44385D01*
X61972Y-44423D01*
X61981Y-44442D01*
X61990Y-44451D01*
X62007Y-44461D01*
X62024Y-44461D01*
X62041Y-44451D01*
X62050Y-44442D01*
X62058Y-44423D01*
X62067Y-44385D01*
X62067Y-44337D01*
X62058Y-44299D01*
X62050Y-44280D01*
X62041Y-44270D01*
X62024Y-44261D01*
X61904Y-44261D02*
X61784Y-44261D01*
X61861Y-44461D01*
X70062Y-44550D02*
X70071Y-44559D01*
X70097Y-44569D01*
X70114Y-44569D01*
X70139Y-44559D01*
X70157Y-44540D01*
X70165Y-44521D01*
X70174Y-44483D01*
X70174Y-44455D01*
X70165Y-44417D01*
X70157Y-44398D01*
X70139Y-44378D01*
X70114Y-44369D01*
X70097Y-44369D01*
X70071Y-44378D01*
X70062Y-44388D01*
X69994Y-44388D02*
X69985Y-44378D01*
X69968Y-44369D01*
X69925Y-44369D01*
X69908Y-44378D01*
X69899Y-44388D01*
X69891Y-44407D01*
X69891Y-44426D01*
X69899Y-44455D01*
X70002Y-44569D01*
X69891Y-44569D01*
X69780Y-44369D02*
X69763Y-44369D01*
X69746Y-44378D01*
X69737Y-44388D01*
X69728Y-44407D01*
X69720Y-44445D01*
X69720Y-44493D01*
X69728Y-44531D01*
X69737Y-44550D01*
X69746Y-44559D01*
X69763Y-44569D01*
X69780Y-44569D01*
X69797Y-44559D01*
X69806Y-44550D01*
X69814Y-44531D01*
X69823Y-44493D01*
X69823Y-44445D01*
X69814Y-44407D01*
X69806Y-44388D01*
X69797Y-44378D01*
X69780Y-44369D01*
X69566Y-44369D02*
X69600Y-44369D01*
X69617Y-44378D01*
X69626Y-44388D01*
X69643Y-44417D01*
X69652Y-44455D01*
X69652Y-44531D01*
X69643Y-44550D01*
X69635Y-44559D01*
X69617Y-44569D01*
X69583Y-44569D01*
X69566Y-44559D01*
X69557Y-44550D01*
X69549Y-44531D01*
X69549Y-44483D01*
X69557Y-44464D01*
X69566Y-44455D01*
X69583Y-44445D01*
X69617Y-44445D01*
X69635Y-44455D01*
X69643Y-44464D01*
X69652Y-44483D01*
X71106Y-43897D02*
X71115Y-43906D01*
X71141Y-43916D01*
X71158Y-43916D01*
X71183Y-43906D01*
X71201Y-43887D01*
X71209Y-43868D01*
X71218Y-43830D01*
X71218Y-43802D01*
X71209Y-43764D01*
X71201Y-43745D01*
X71183Y-43725D01*
X71158Y-43716D01*
X71141Y-43716D01*
X71115Y-43725D01*
X71106Y-43735D01*
X71038Y-43735D02*
X71029Y-43725D01*
X71012Y-43716D01*
X70969Y-43716D01*
X70952Y-43725D01*
X70943Y-43735D01*
X70935Y-43754D01*
X70935Y-43773D01*
X70943Y-43802D01*
X71046Y-43916D01*
X70935Y-43916D01*
X70824Y-43716D02*
X70807Y-43716D01*
X70790Y-43725D01*
X70781Y-43735D01*
X70772Y-43754D01*
X70764Y-43792D01*
X70764Y-43840D01*
X70772Y-43878D01*
X70781Y-43897D01*
X70790Y-43906D01*
X70807Y-43916D01*
X70824Y-43916D01*
X70841Y-43906D01*
X70850Y-43897D01*
X70858Y-43878D01*
X70867Y-43840D01*
X70867Y-43792D01*
X70858Y-43754D01*
X70850Y-43735D01*
X70841Y-43725D01*
X70824Y-43716D01*
X70601Y-43716D02*
X70687Y-43716D01*
X70696Y-43811D01*
X70687Y-43802D01*
X70670Y-43792D01*
X70627Y-43792D01*
X70610Y-43802D01*
X70601Y-43811D01*
X70593Y-43830D01*
X70593Y-43878D01*
X70601Y-43897D01*
X70610Y-43906D01*
X70627Y-43916D01*
X70670Y-43916D01*
X70687Y-43906D01*
X70696Y-43897D01*
X69928Y-42649D02*
X69937Y-42658D01*
X69963Y-42668D01*
X69980Y-42668D01*
X70005Y-42658D01*
X70023Y-42639D01*
X70031Y-42620D01*
X70040Y-42582D01*
X70040Y-42554D01*
X70031Y-42516D01*
X70023Y-42497D01*
X70005Y-42477D01*
X69980Y-42468D01*
X69963Y-42468D01*
X69937Y-42477D01*
X69928Y-42487D01*
X69860Y-42487D02*
X69851Y-42477D01*
X69834Y-42468D01*
X69791Y-42468D01*
X69774Y-42477D01*
X69765Y-42487D01*
X69757Y-42506D01*
X69757Y-42525D01*
X69765Y-42554D01*
X69868Y-42668D01*
X69757Y-42668D01*
X69646Y-42468D02*
X69629Y-42468D01*
X69612Y-42477D01*
X69603Y-42487D01*
X69594Y-42506D01*
X69586Y-42544D01*
X69586Y-42592D01*
X69594Y-42630D01*
X69603Y-42649D01*
X69612Y-42658D01*
X69629Y-42668D01*
X69646Y-42668D01*
X69663Y-42658D01*
X69672Y-42649D01*
X69680Y-42630D01*
X69689Y-42592D01*
X69689Y-42544D01*
X69680Y-42506D01*
X69672Y-42487D01*
X69663Y-42477D01*
X69646Y-42468D01*
X69432Y-42535D02*
X69432Y-42668D01*
X69475Y-42458D02*
X69518Y-42601D01*
X69406Y-42601D01*
X71090Y-43279D02*
X71099Y-43288D01*
X71125Y-43298D01*
X71142Y-43298D01*
X71167Y-43288D01*
X71185Y-43269D01*
X71193Y-43250D01*
X71202Y-43212D01*
X71202Y-43184D01*
X71193Y-43146D01*
X71185Y-43127D01*
X71167Y-43107D01*
X71142Y-43098D01*
X71125Y-43098D01*
X71099Y-43107D01*
X71090Y-43117D01*
X71022Y-43117D02*
X71013Y-43107D01*
X70996Y-43098D01*
X70953Y-43098D01*
X70936Y-43107D01*
X70927Y-43117D01*
X70919Y-43136D01*
X70919Y-43155D01*
X70927Y-43184D01*
X71030Y-43298D01*
X70919Y-43298D01*
X70808Y-43098D02*
X70791Y-43098D01*
X70774Y-43107D01*
X70765Y-43117D01*
X70756Y-43136D01*
X70748Y-43174D01*
X70748Y-43222D01*
X70756Y-43260D01*
X70765Y-43279D01*
X70774Y-43288D01*
X70791Y-43298D01*
X70808Y-43298D01*
X70825Y-43288D01*
X70834Y-43279D01*
X70842Y-43260D01*
X70851Y-43222D01*
X70851Y-43174D01*
X70842Y-43136D01*
X70834Y-43117D01*
X70825Y-43107D01*
X70808Y-43098D01*
X70688Y-43098D02*
X70577Y-43098D01*
X70637Y-43174D01*
X70611Y-43174D01*
X70594Y-43184D01*
X70585Y-43193D01*
X70577Y-43212D01*
X70577Y-43260D01*
X70585Y-43279D01*
X70594Y-43288D01*
X70611Y-43298D01*
X70663Y-43298D01*
X70680Y-43288D01*
X70688Y-43279D01*
X63747Y-42491D02*
X63756Y-42500D01*
X63782Y-42510D01*
X63799Y-42510D01*
X63824Y-42500D01*
X63842Y-42481D01*
X63850Y-42462D01*
X63859Y-42424D01*
X63859Y-42396D01*
X63850Y-42358D01*
X63842Y-42339D01*
X63824Y-42319D01*
X63799Y-42310D01*
X63782Y-42310D01*
X63756Y-42319D01*
X63747Y-42329D01*
X63679Y-42329D02*
X63670Y-42319D01*
X63653Y-42310D01*
X63610Y-42310D01*
X63593Y-42319D01*
X63584Y-42329D01*
X63576Y-42348D01*
X63576Y-42367D01*
X63584Y-42396D01*
X63687Y-42510D01*
X63576Y-42510D01*
X63465Y-42310D02*
X63448Y-42310D01*
X63431Y-42319D01*
X63422Y-42329D01*
X63413Y-42348D01*
X63405Y-42386D01*
X63405Y-42434D01*
X63413Y-42472D01*
X63422Y-42491D01*
X63431Y-42500D01*
X63448Y-42510D01*
X63465Y-42510D01*
X63482Y-42500D01*
X63491Y-42491D01*
X63499Y-42472D01*
X63508Y-42434D01*
X63508Y-42386D01*
X63499Y-42348D01*
X63491Y-42329D01*
X63482Y-42319D01*
X63465Y-42310D01*
X63337Y-42329D02*
X63328Y-42319D01*
X63311Y-42310D01*
X63268Y-42310D01*
X63251Y-42319D01*
X63242Y-42329D01*
X63234Y-42348D01*
X63234Y-42367D01*
X63242Y-42396D01*
X63345Y-42510D01*
X63234Y-42510D01*
X62243Y-38095D02*
X62252Y-38086D01*
X62262Y-38060D01*
X62262Y-38043D01*
X62252Y-38018D01*
X62233Y-38000D01*
X62214Y-37992D01*
X62176Y-37983D01*
X62148Y-37983D01*
X62110Y-37992D01*
X62091Y-38000D01*
X62071Y-38018D01*
X62062Y-38043D01*
X62062Y-38060D01*
X62071Y-38086D01*
X62081Y-38095D01*
X62062Y-38155D02*
X62062Y-38275D01*
X62262Y-38198D01*
X62262Y-38437D02*
X62262Y-38334D01*
X62262Y-38386D02*
X62062Y-38386D01*
X62091Y-38369D01*
X62110Y-38351D01*
X62119Y-38334D01*
X62062Y-38548D02*
X62062Y-38565D01*
X62071Y-38582D01*
X62081Y-38591D01*
X62100Y-38600D01*
X62138Y-38608D01*
X62186Y-38608D01*
X62224Y-38600D01*
X62243Y-38591D01*
X62252Y-38582D01*
X62262Y-38565D01*
X62262Y-38548D01*
X62252Y-38531D01*
X62243Y-38522D01*
X62224Y-38514D01*
X62186Y-38505D01*
X62138Y-38505D01*
X62100Y-38514D01*
X62081Y-38522D01*
X62071Y-38531D01*
X62062Y-38548D01*
X59231Y-37731D02*
X59240Y-37740D01*
X59266Y-37750D01*
X59283Y-37750D01*
X59308Y-37740D01*
X59326Y-37721D01*
X59334Y-37702D01*
X59343Y-37664D01*
X59343Y-37636D01*
X59334Y-37598D01*
X59326Y-37579D01*
X59308Y-37559D01*
X59283Y-37550D01*
X59266Y-37550D01*
X59240Y-37559D01*
X59231Y-37569D01*
X59171Y-37550D02*
X59051Y-37550D01*
X59128Y-37750D01*
X58889Y-37750D02*
X58992Y-37750D01*
X58940Y-37750D02*
X58940Y-37550D01*
X58957Y-37579D01*
X58975Y-37598D01*
X58992Y-37607D01*
X58786Y-37636D02*
X58804Y-37626D01*
X58812Y-37617D01*
X58821Y-37598D01*
X58821Y-37588D01*
X58812Y-37569D01*
X58804Y-37559D01*
X58786Y-37550D01*
X58752Y-37550D01*
X58735Y-37559D01*
X58726Y-37569D01*
X58718Y-37588D01*
X58718Y-37598D01*
X58726Y-37617D01*
X58735Y-37626D01*
X58752Y-37636D01*
X58786Y-37636D01*
X58804Y-37645D01*
X58812Y-37655D01*
X58821Y-37674D01*
X58821Y-37712D01*
X58812Y-37731D01*
X58804Y-37740D01*
X58786Y-37750D01*
X58752Y-37750D01*
X58735Y-37740D01*
X58726Y-37731D01*
X58718Y-37712D01*
X58718Y-37674D01*
X58726Y-37655D01*
X58735Y-37645D01*
X58752Y-37636D01*
X59590Y-36483D02*
X59599Y-36492D01*
X59625Y-36502D01*
X59642Y-36502D01*
X59667Y-36492D01*
X59685Y-36473D01*
X59693Y-36454D01*
X59702Y-36416D01*
X59702Y-36388D01*
X59693Y-36350D01*
X59685Y-36331D01*
X59667Y-36311D01*
X59642Y-36302D01*
X59625Y-36302D01*
X59599Y-36311D01*
X59590Y-36321D01*
X59530Y-36302D02*
X59410Y-36302D01*
X59487Y-36502D01*
X59248Y-36502D02*
X59351Y-36502D01*
X59299Y-36502D02*
X59299Y-36302D01*
X59316Y-36331D01*
X59334Y-36350D01*
X59351Y-36359D01*
X59188Y-36302D02*
X59068Y-36302D01*
X59145Y-36502D01*
X66523Y-36769D02*
X66532Y-36760D01*
X66542Y-36734D01*
X66542Y-36717D01*
X66532Y-36692D01*
X66513Y-36674D01*
X66494Y-36666D01*
X66456Y-36657D01*
X66428Y-36657D01*
X66390Y-36666D01*
X66371Y-36674D01*
X66351Y-36692D01*
X66342Y-36717D01*
X66342Y-36734D01*
X66351Y-36760D01*
X66361Y-36769D01*
X66342Y-36829D02*
X66342Y-36949D01*
X66542Y-36872D01*
X66542Y-37111D02*
X66542Y-37008D01*
X66542Y-37060D02*
X66342Y-37060D01*
X66371Y-37043D01*
X66390Y-37025D01*
X66399Y-37008D01*
X66342Y-37265D02*
X66342Y-37231D01*
X66351Y-37214D01*
X66361Y-37205D01*
X66390Y-37188D01*
X66428Y-37179D01*
X66504Y-37179D01*
X66523Y-37188D01*
X66532Y-37196D01*
X66542Y-37214D01*
X66542Y-37248D01*
X66532Y-37265D01*
X66523Y-37274D01*
X66504Y-37282D01*
X66456Y-37282D01*
X66437Y-37274D01*
X66428Y-37265D01*
X66418Y-37248D01*
X66418Y-37214D01*
X66428Y-37196D01*
X66437Y-37188D01*
X66456Y-37179D01*
X65582Y-36009D02*
X65591Y-36000D01*
X65601Y-35974D01*
X65601Y-35957D01*
X65591Y-35932D01*
X65572Y-35914D01*
X65553Y-35906D01*
X65515Y-35897D01*
X65487Y-35897D01*
X65449Y-35906D01*
X65430Y-35914D01*
X65410Y-35932D01*
X65401Y-35957D01*
X65401Y-35974D01*
X65410Y-36000D01*
X65420Y-36009D01*
X65401Y-36069D02*
X65401Y-36189D01*
X65601Y-36112D01*
X65601Y-36351D02*
X65601Y-36248D01*
X65601Y-36300D02*
X65401Y-36300D01*
X65430Y-36283D01*
X65449Y-36265D01*
X65458Y-36248D01*
X65401Y-36514D02*
X65401Y-36428D01*
X65496Y-36419D01*
X65487Y-36428D01*
X65477Y-36445D01*
X65477Y-36488D01*
X65487Y-36505D01*
X65496Y-36514D01*
X65515Y-36522D01*
X65563Y-36522D01*
X65582Y-36514D01*
X65591Y-36505D01*
X65601Y-36488D01*
X65601Y-36445D01*
X65591Y-36428D01*
X65582Y-36419D01*
X60149Y-39133D02*
X60158Y-39142D01*
X60184Y-39152D01*
X60201Y-39152D01*
X60226Y-39142D01*
X60244Y-39123D01*
X60252Y-39104D01*
X60261Y-39066D01*
X60261Y-39038D01*
X60252Y-39000D01*
X60244Y-38981D01*
X60226Y-38961D01*
X60201Y-38952D01*
X60184Y-38952D01*
X60158Y-38961D01*
X60149Y-38971D01*
X60089Y-38952D02*
X59969Y-38952D01*
X60046Y-39152D01*
X59807Y-39152D02*
X59910Y-39152D01*
X59858Y-39152D02*
X59858Y-38952D01*
X59875Y-38981D01*
X59893Y-39000D01*
X59910Y-39009D01*
X59653Y-39019D02*
X59653Y-39152D01*
X59696Y-38942D02*
X59739Y-39085D01*
X59627Y-39085D01*
X60932Y-29702D02*
X60941Y-29693D01*
X60951Y-29667D01*
X60951Y-29650D01*
X60941Y-29625D01*
X60922Y-29607D01*
X60903Y-29599D01*
X60865Y-29590D01*
X60837Y-29590D01*
X60799Y-29599D01*
X60780Y-29607D01*
X60760Y-29625D01*
X60751Y-29650D01*
X60751Y-29667D01*
X60760Y-29693D01*
X60770Y-29702D01*
X60751Y-29762D02*
X60751Y-29882D01*
X60951Y-29805D01*
X60951Y-30044D02*
X60951Y-29941D01*
X60951Y-29993D02*
X60751Y-29993D01*
X60780Y-29976D01*
X60799Y-29958D01*
X60808Y-29941D01*
X60751Y-30104D02*
X60751Y-30215D01*
X60827Y-30155D01*
X60827Y-30181D01*
X60837Y-30198D01*
X60846Y-30207D01*
X60865Y-30215D01*
X60913Y-30215D01*
X60932Y-30207D01*
X60941Y-30198D01*
X60951Y-30181D01*
X60951Y-30129D01*
X60941Y-30112D01*
X60932Y-30104D01*
X59472Y-37101D02*
X59481Y-37110D01*
X59507Y-37120D01*
X59524Y-37120D01*
X59549Y-37110D01*
X59567Y-37091D01*
X59575Y-37072D01*
X59584Y-37034D01*
X59584Y-37006D01*
X59575Y-36968D01*
X59567Y-36949D01*
X59549Y-36929D01*
X59524Y-36920D01*
X59507Y-36920D01*
X59481Y-36929D01*
X59472Y-36939D01*
X59412Y-36920D02*
X59292Y-36920D01*
X59369Y-37120D01*
X59130Y-37120D02*
X59233Y-37120D01*
X59181Y-37120D02*
X59181Y-36920D01*
X59198Y-36949D01*
X59216Y-36968D01*
X59233Y-36977D01*
X59062Y-36939D02*
X59053Y-36929D01*
X59036Y-36920D01*
X58993Y-36920D01*
X58976Y-36929D01*
X58967Y-36939D01*
X58959Y-36958D01*
X58959Y-36977D01*
X58967Y-37006D01*
X59070Y-37120D01*
X58959Y-37120D01*
X59129Y-38334D02*
X59138Y-38343D01*
X59164Y-38353D01*
X59181Y-38353D01*
X59206Y-38343D01*
X59224Y-38324D01*
X59232Y-38305D01*
X59241Y-38267D01*
X59241Y-38239D01*
X59232Y-38201D01*
X59224Y-38182D01*
X59206Y-38162D01*
X59181Y-38153D01*
X59164Y-38153D01*
X59138Y-38162D01*
X59129Y-38172D01*
X59069Y-38153D02*
X58949Y-38153D01*
X59026Y-38353D01*
X58787Y-38353D02*
X58890Y-38353D01*
X58838Y-38353D02*
X58838Y-38153D01*
X58855Y-38182D01*
X58873Y-38201D01*
X58890Y-38210D01*
X58616Y-38353D02*
X58719Y-38353D01*
X58667Y-38353D02*
X58667Y-38153D01*
X58684Y-38182D01*
X58702Y-38201D01*
X58719Y-38210D01*
X62223Y-35422D02*
X62232Y-35413D01*
X62242Y-35387D01*
X62242Y-35370D01*
X62232Y-35345D01*
X62213Y-35327D01*
X62194Y-35319D01*
X62156Y-35310D01*
X62128Y-35310D01*
X62090Y-35319D01*
X62071Y-35327D01*
X62051Y-35345D01*
X62042Y-35370D01*
X62042Y-35387D01*
X62051Y-35413D01*
X62061Y-35422D01*
X62042Y-35482D02*
X62042Y-35602D01*
X62242Y-35525D01*
X62042Y-35704D02*
X62042Y-35721D01*
X62051Y-35738D01*
X62061Y-35747D01*
X62080Y-35756D01*
X62118Y-35764D01*
X62166Y-35764D01*
X62204Y-35756D01*
X62223Y-35747D01*
X62232Y-35738D01*
X62242Y-35721D01*
X62242Y-35704D01*
X62232Y-35687D01*
X62223Y-35678D01*
X62204Y-35670D01*
X62166Y-35661D01*
X62118Y-35661D01*
X62080Y-35670D01*
X62061Y-35678D01*
X62051Y-35687D01*
X62042Y-35704D01*
X62242Y-35849D02*
X62242Y-35884D01*
X62232Y-35901D01*
X62223Y-35909D01*
X62194Y-35927D01*
X62156Y-35935D01*
X62080Y-35935D01*
X62061Y-35927D01*
X62051Y-35918D01*
X62042Y-35901D01*
X62042Y-35867D01*
X62051Y-35849D01*
X62061Y-35841D01*
X62080Y-35832D01*
X62128Y-35832D01*
X62147Y-35841D01*
X62156Y-35849D01*
X62166Y-35867D01*
X62166Y-35901D01*
X62156Y-35918D01*
X62147Y-35927D01*
X62128Y-35935D01*
X60735Y-37806D02*
X60744Y-37815D01*
X60770Y-37825D01*
X60787Y-37825D01*
X60812Y-37815D01*
X60830Y-37796D01*
X60838Y-37777D01*
X60847Y-37739D01*
X60847Y-37711D01*
X60838Y-37673D01*
X60830Y-37654D01*
X60812Y-37634D01*
X60787Y-37625D01*
X60770Y-37625D01*
X60744Y-37634D01*
X60735Y-37644D01*
X60675Y-37625D02*
X60555Y-37625D01*
X60632Y-37825D01*
X60453Y-37625D02*
X60436Y-37625D01*
X60419Y-37634D01*
X60410Y-37644D01*
X60401Y-37663D01*
X60393Y-37701D01*
X60393Y-37749D01*
X60401Y-37787D01*
X60410Y-37806D01*
X60419Y-37815D01*
X60436Y-37825D01*
X60453Y-37825D01*
X60470Y-37815D01*
X60479Y-37806D01*
X60487Y-37787D01*
X60496Y-37749D01*
X60496Y-37701D01*
X60487Y-37663D01*
X60479Y-37644D01*
X60470Y-37634D01*
X60453Y-37625D01*
X60290Y-37711D02*
X60308Y-37701D01*
X60316Y-37692D01*
X60325Y-37673D01*
X60325Y-37663D01*
X60316Y-37644D01*
X60308Y-37634D01*
X60290Y-37625D01*
X60256Y-37625D01*
X60239Y-37634D01*
X60230Y-37644D01*
X60222Y-37663D01*
X60222Y-37673D01*
X60230Y-37692D01*
X60239Y-37701D01*
X60256Y-37711D01*
X60290Y-37711D01*
X60308Y-37720D01*
X60316Y-37730D01*
X60325Y-37749D01*
X60325Y-37787D01*
X60316Y-37806D01*
X60308Y-37815D01*
X60290Y-37825D01*
X60256Y-37825D01*
X60239Y-37815D01*
X60230Y-37806D01*
X60222Y-37787D01*
X60222Y-37749D01*
X60230Y-37730D01*
X60239Y-37720D01*
X60256Y-37711D01*
X59669Y-35861D02*
X59678Y-35870D01*
X59704Y-35880D01*
X59721Y-35880D01*
X59746Y-35870D01*
X59764Y-35851D01*
X59772Y-35832D01*
X59781Y-35794D01*
X59781Y-35766D01*
X59772Y-35728D01*
X59764Y-35709D01*
X59746Y-35689D01*
X59721Y-35680D01*
X59704Y-35680D01*
X59678Y-35689D01*
X59669Y-35699D01*
X59609Y-35680D02*
X59489Y-35680D01*
X59566Y-35880D01*
X59387Y-35680D02*
X59370Y-35680D01*
X59353Y-35689D01*
X59344Y-35699D01*
X59335Y-35718D01*
X59327Y-35756D01*
X59327Y-35804D01*
X59335Y-35842D01*
X59344Y-35861D01*
X59353Y-35870D01*
X59370Y-35880D01*
X59387Y-35880D01*
X59404Y-35870D01*
X59413Y-35861D01*
X59421Y-35842D01*
X59430Y-35804D01*
X59430Y-35756D01*
X59421Y-35718D01*
X59413Y-35699D01*
X59404Y-35689D01*
X59387Y-35680D01*
X59267Y-35680D02*
X59147Y-35680D01*
X59224Y-35880D01*
X59054Y-38983D02*
X59063Y-38992D01*
X59089Y-39002D01*
X59106Y-39002D01*
X59131Y-38992D01*
X59149Y-38973D01*
X59157Y-38954D01*
X59166Y-38916D01*
X59166Y-38888D01*
X59157Y-38850D01*
X59149Y-38831D01*
X59131Y-38811D01*
X59106Y-38802D01*
X59089Y-38802D01*
X59063Y-38811D01*
X59054Y-38821D01*
X58994Y-38802D02*
X58874Y-38802D01*
X58951Y-39002D01*
X58772Y-38802D02*
X58755Y-38802D01*
X58738Y-38811D01*
X58729Y-38821D01*
X58720Y-38840D01*
X58712Y-38878D01*
X58712Y-38926D01*
X58720Y-38964D01*
X58729Y-38983D01*
X58738Y-38992D01*
X58755Y-39002D01*
X58772Y-39002D01*
X58789Y-38992D01*
X58798Y-38983D01*
X58806Y-38964D01*
X58815Y-38926D01*
X58815Y-38878D01*
X58806Y-38840D01*
X58798Y-38821D01*
X58789Y-38811D01*
X58772Y-38802D01*
X58558Y-38802D02*
X58592Y-38802D01*
X58609Y-38811D01*
X58618Y-38821D01*
X58635Y-38850D01*
X58644Y-38888D01*
X58644Y-38964D01*
X58635Y-38983D01*
X58627Y-38992D01*
X58609Y-39002D01*
X58575Y-39002D01*
X58558Y-38992D01*
X58549Y-38983D01*
X58541Y-38964D01*
X58541Y-38916D01*
X58549Y-38897D01*
X58558Y-38888D01*
X58575Y-38878D01*
X58609Y-38878D01*
X58627Y-38888D01*
X58635Y-38897D01*
X58644Y-38916D01*
X59661Y-33964D02*
X59670Y-33973D01*
X59696Y-33983D01*
X59713Y-33983D01*
X59738Y-33973D01*
X59756Y-33954D01*
X59764Y-33935D01*
X59773Y-33897D01*
X59773Y-33869D01*
X59764Y-33831D01*
X59756Y-33812D01*
X59738Y-33792D01*
X59713Y-33783D01*
X59696Y-33783D01*
X59670Y-33792D01*
X59661Y-33802D01*
X59601Y-33783D02*
X59481Y-33783D01*
X59558Y-33983D01*
X59379Y-33783D02*
X59362Y-33783D01*
X59345Y-33792D01*
X59336Y-33802D01*
X59327Y-33821D01*
X59319Y-33859D01*
X59319Y-33907D01*
X59327Y-33945D01*
X59336Y-33964D01*
X59345Y-33973D01*
X59362Y-33983D01*
X59379Y-33983D01*
X59396Y-33973D01*
X59405Y-33964D01*
X59413Y-33945D01*
X59422Y-33907D01*
X59422Y-33859D01*
X59413Y-33821D01*
X59405Y-33802D01*
X59396Y-33792D01*
X59379Y-33783D01*
X59156Y-33783D02*
X59242Y-33783D01*
X59251Y-33878D01*
X59242Y-33869D01*
X59225Y-33859D01*
X59182Y-33859D01*
X59165Y-33869D01*
X59156Y-33878D01*
X59148Y-33897D01*
X59148Y-33945D01*
X59156Y-33964D01*
X59165Y-33973D01*
X59182Y-33983D01*
X59225Y-33983D01*
X59242Y-33973D01*
X59251Y-33964D01*
X61629Y-38426D02*
X61638Y-38417D01*
X61648Y-38391D01*
X61648Y-38374D01*
X61638Y-38349D01*
X61619Y-38331D01*
X61600Y-38323D01*
X61562Y-38314D01*
X61534Y-38314D01*
X61496Y-38323D01*
X61477Y-38331D01*
X61457Y-38349D01*
X61448Y-38374D01*
X61448Y-38391D01*
X61457Y-38417D01*
X61467Y-38426D01*
X61448Y-38486D02*
X61448Y-38606D01*
X61648Y-38529D01*
X61448Y-38708D02*
X61448Y-38725D01*
X61457Y-38742D01*
X61467Y-38751D01*
X61486Y-38760D01*
X61524Y-38768D01*
X61572Y-38768D01*
X61610Y-38760D01*
X61629Y-38751D01*
X61638Y-38742D01*
X61648Y-38725D01*
X61648Y-38708D01*
X61638Y-38691D01*
X61629Y-38682D01*
X61610Y-38674D01*
X61572Y-38665D01*
X61524Y-38665D01*
X61486Y-38674D01*
X61467Y-38682D01*
X61457Y-38691D01*
X61448Y-38708D01*
X61515Y-38922D02*
X61648Y-38922D01*
X61438Y-38879D02*
X61581Y-38836D01*
X61581Y-38948D01*
X61613Y-35422D02*
X61622Y-35413D01*
X61632Y-35387D01*
X61632Y-35370D01*
X61622Y-35345D01*
X61603Y-35327D01*
X61584Y-35319D01*
X61546Y-35310D01*
X61518Y-35310D01*
X61480Y-35319D01*
X61461Y-35327D01*
X61441Y-35345D01*
X61432Y-35370D01*
X61432Y-35387D01*
X61441Y-35413D01*
X61451Y-35422D01*
X61432Y-35482D02*
X61432Y-35602D01*
X61632Y-35525D01*
X61432Y-35704D02*
X61432Y-35721D01*
X61441Y-35738D01*
X61451Y-35747D01*
X61470Y-35756D01*
X61508Y-35764D01*
X61556Y-35764D01*
X61594Y-35756D01*
X61613Y-35747D01*
X61622Y-35738D01*
X61632Y-35721D01*
X61632Y-35704D01*
X61622Y-35687D01*
X61613Y-35678D01*
X61594Y-35670D01*
X61556Y-35661D01*
X61508Y-35661D01*
X61470Y-35670D01*
X61451Y-35678D01*
X61441Y-35687D01*
X61432Y-35704D01*
X61432Y-35824D02*
X61432Y-35935D01*
X61508Y-35875D01*
X61508Y-35901D01*
X61518Y-35918D01*
X61527Y-35927D01*
X61546Y-35935D01*
X61594Y-35935D01*
X61613Y-35927D01*
X61622Y-35918D01*
X61632Y-35901D01*
X61632Y-35849D01*
X61622Y-35832D01*
X61613Y-35824D01*
X60735Y-37192D02*
X60744Y-37201D01*
X60770Y-37211D01*
X60787Y-37211D01*
X60812Y-37201D01*
X60830Y-37182D01*
X60838Y-37163D01*
X60847Y-37125D01*
X60847Y-37097D01*
X60838Y-37059D01*
X60830Y-37040D01*
X60812Y-37020D01*
X60787Y-37011D01*
X60770Y-37011D01*
X60744Y-37020D01*
X60735Y-37030D01*
X60675Y-37011D02*
X60555Y-37011D01*
X60632Y-37211D01*
X60453Y-37011D02*
X60436Y-37011D01*
X60419Y-37020D01*
X60410Y-37030D01*
X60401Y-37049D01*
X60393Y-37087D01*
X60393Y-37135D01*
X60401Y-37173D01*
X60410Y-37192D01*
X60419Y-37201D01*
X60436Y-37211D01*
X60453Y-37211D01*
X60470Y-37201D01*
X60479Y-37192D01*
X60487Y-37173D01*
X60496Y-37135D01*
X60496Y-37087D01*
X60487Y-37049D01*
X60479Y-37030D01*
X60470Y-37020D01*
X60453Y-37011D01*
X60325Y-37030D02*
X60316Y-37020D01*
X60299Y-37011D01*
X60256Y-37011D01*
X60239Y-37020D01*
X60230Y-37030D01*
X60222Y-37049D01*
X60222Y-37068D01*
X60230Y-37097D01*
X60333Y-37211D01*
X60222Y-37211D01*
X61023Y-33942D02*
X61032Y-33933D01*
X61042Y-33907D01*
X61042Y-33890D01*
X61032Y-33865D01*
X61013Y-33847D01*
X60994Y-33839D01*
X60956Y-33830D01*
X60928Y-33830D01*
X60890Y-33839D01*
X60871Y-33847D01*
X60851Y-33865D01*
X60842Y-33890D01*
X60842Y-33907D01*
X60851Y-33933D01*
X60861Y-33942D01*
X60842Y-34002D02*
X60842Y-34122D01*
X61042Y-34045D01*
X60842Y-34224D02*
X60842Y-34241D01*
X60851Y-34258D01*
X60861Y-34267D01*
X60880Y-34276D01*
X60918Y-34284D01*
X60966Y-34284D01*
X61004Y-34276D01*
X61023Y-34267D01*
X61032Y-34258D01*
X61042Y-34241D01*
X61042Y-34224D01*
X61032Y-34207D01*
X61023Y-34198D01*
X61004Y-34190D01*
X60966Y-34181D01*
X60918Y-34181D01*
X60880Y-34190D01*
X60861Y-34198D01*
X60851Y-34207D01*
X60842Y-34224D01*
X61042Y-34455D02*
X61042Y-34352D01*
X61042Y-34404D02*
X60842Y-34404D01*
X60871Y-34387D01*
X60890Y-34369D01*
X60899Y-34352D01*
G54D11*
X64436Y-33415D02*
X64436Y-33129D01*
X63836Y-33129D01*
X63893Y-33586D02*
X63864Y-33615D01*
X63836Y-33672D01*
X63836Y-33815D01*
X63864Y-33872D01*
X63893Y-33901D01*
X63950Y-33929D01*
X64007Y-33929D01*
X64093Y-33901D01*
X64436Y-33558D01*
X64436Y-33929D01*
X63836Y-34300D02*
X63836Y-34357D01*
X63864Y-34414D01*
X63893Y-34443D01*
X63950Y-34472D01*
X64064Y-34500D01*
X64207Y-34500D01*
X64322Y-34472D01*
X64379Y-34443D01*
X64407Y-34414D01*
X64436Y-34357D01*
X64436Y-34300D01*
X64407Y-34243D01*
X64379Y-34214D01*
X64322Y-34186D01*
X64207Y-34157D01*
X64064Y-34157D01*
X63950Y-34186D01*
X63893Y-34214D01*
X63864Y-34243D01*
X63836Y-34300D01*
X64036Y-35014D02*
X64436Y-35014D01*
X63807Y-34871D02*
X64236Y-34728D01*
X64236Y-35100D01*
X67593Y-33249D02*
X67564Y-33278D01*
X67536Y-33335D01*
X67536Y-33478D01*
X67564Y-33535D01*
X67593Y-33564D01*
X67650Y-33592D01*
X67707Y-33592D01*
X67793Y-33564D01*
X68136Y-33221D01*
X68136Y-33592D01*
X68079Y-33849D02*
X68107Y-33877D01*
X68136Y-33849D01*
X68107Y-33820D01*
X68079Y-33849D01*
X68136Y-33849D01*
X67593Y-34106D02*
X67564Y-34135D01*
X67536Y-34192D01*
X67536Y-34335D01*
X67564Y-34392D01*
X67593Y-34421D01*
X67650Y-34449D01*
X67707Y-34449D01*
X67793Y-34421D01*
X68136Y-34078D01*
X68136Y-34449D01*
X67536Y-34706D02*
X68022Y-34706D01*
X68079Y-34734D01*
X68107Y-34763D01*
X68136Y-34820D01*
X68136Y-34934D01*
X68107Y-34992D01*
X68079Y-35020D01*
X68022Y-35049D01*
X67536Y-35049D01*
X68136Y-35335D02*
X67536Y-35335D01*
X67822Y-35335D02*
X67822Y-35678D01*
X68136Y-35678D02*
X67536Y-35678D01*
X63081Y-30253D02*
X63367Y-30253D01*
X63367Y-29653D01*
X62910Y-29710D02*
X62881Y-29681D01*
X62824Y-29653D01*
X62681Y-29653D01*
X62624Y-29681D01*
X62595Y-29710D01*
X62567Y-29767D01*
X62567Y-29824D01*
X62595Y-29910D01*
X62938Y-30253D01*
X62567Y-30253D01*
X62196Y-29653D02*
X62139Y-29653D01*
X62082Y-29681D01*
X62053Y-29710D01*
X62024Y-29767D01*
X61996Y-29881D01*
X61996Y-30024D01*
X62024Y-30139D01*
X62053Y-30196D01*
X62082Y-30224D01*
X62139Y-30253D01*
X62196Y-30253D01*
X62253Y-30224D01*
X62282Y-30196D01*
X62310Y-30139D01*
X62339Y-30024D01*
X62339Y-29881D01*
X62310Y-29767D01*
X62282Y-29710D01*
X62253Y-29681D01*
X62196Y-29653D01*
X61796Y-29653D02*
X61425Y-29653D01*
X61625Y-29881D01*
X61539Y-29881D01*
X61482Y-29910D01*
X61453Y-29939D01*
X61425Y-29996D01*
X61425Y-30139D01*
X61453Y-30196D01*
X61482Y-30224D01*
X61539Y-30253D01*
X61711Y-30253D01*
X61768Y-30224D01*
X61796Y-30196D01*
X63247Y-33410D02*
X63218Y-33381D01*
X63161Y-33353D01*
X63018Y-33353D01*
X62961Y-33381D01*
X62932Y-33410D01*
X62904Y-33467D01*
X62904Y-33524D01*
X62932Y-33610D01*
X63275Y-33953D01*
X62904Y-33953D01*
X62647Y-33896D02*
X62619Y-33924D01*
X62647Y-33953D01*
X62676Y-33924D01*
X62647Y-33896D01*
X62647Y-33953D01*
X62390Y-33410D02*
X62361Y-33381D01*
X62304Y-33353D01*
X62161Y-33353D01*
X62104Y-33381D01*
X62075Y-33410D01*
X62047Y-33467D01*
X62047Y-33524D01*
X62075Y-33610D01*
X62418Y-33953D01*
X62047Y-33953D01*
X61790Y-33353D02*
X61790Y-33839D01*
X61762Y-33896D01*
X61733Y-33924D01*
X61676Y-33953D01*
X61562Y-33953D01*
X61504Y-33924D01*
X61476Y-33896D01*
X61447Y-33839D01*
X61447Y-33353D01*
X61161Y-33953D02*
X61161Y-33353D01*
X61161Y-33639D02*
X60818Y-33639D01*
X60818Y-33953D02*
X60818Y-33353D01*
X67979Y-38424D02*
X67979Y-38138D01*
X67379Y-38138D01*
X67436Y-38595D02*
X67407Y-38624D01*
X67379Y-38681D01*
X67379Y-38824D01*
X67407Y-38881D01*
X67436Y-38910D01*
X67493Y-38938D01*
X67550Y-38938D01*
X67636Y-38910D01*
X67979Y-38567D01*
X67979Y-38938D01*
X67379Y-39309D02*
X67379Y-39366D01*
X67407Y-39423D01*
X67436Y-39452D01*
X67493Y-39481D01*
X67607Y-39509D01*
X67750Y-39509D01*
X67865Y-39481D01*
X67922Y-39452D01*
X67950Y-39423D01*
X67979Y-39366D01*
X67979Y-39309D01*
X67950Y-39252D01*
X67922Y-39223D01*
X67865Y-39195D01*
X67750Y-39166D01*
X67607Y-39166D01*
X67493Y-39195D01*
X67436Y-39223D01*
X67407Y-39252D01*
X67379Y-39309D01*
X67979Y-40080D02*
X67979Y-39737D01*
X67979Y-39909D02*
X67379Y-39909D01*
X67465Y-39852D01*
X67522Y-39794D01*
X67550Y-39737D01*
X63736Y-37472D02*
X63707Y-37501D01*
X63679Y-37558D01*
X63679Y-37701D01*
X63707Y-37758D01*
X63736Y-37787D01*
X63793Y-37815D01*
X63850Y-37815D01*
X63936Y-37787D01*
X64279Y-37444D01*
X64279Y-37815D01*
X64222Y-38072D02*
X64250Y-38100D01*
X64279Y-38072D01*
X64250Y-38043D01*
X64222Y-38072D01*
X64279Y-38072D01*
X63736Y-38329D02*
X63707Y-38358D01*
X63679Y-38415D01*
X63679Y-38558D01*
X63707Y-38615D01*
X63736Y-38644D01*
X63793Y-38672D01*
X63850Y-38672D01*
X63936Y-38644D01*
X64279Y-38301D01*
X64279Y-38672D01*
X63679Y-38929D02*
X64165Y-38929D01*
X64222Y-38957D01*
X64250Y-38986D01*
X64279Y-39043D01*
X64279Y-39157D01*
X64250Y-39215D01*
X64222Y-39243D01*
X64165Y-39272D01*
X63679Y-39272D01*
X64279Y-39558D02*
X63679Y-39558D01*
X63965Y-39558D02*
X63965Y-39901D01*
X64279Y-39901D02*
X63679Y-39901D01*
X61871Y-40362D02*
X62157Y-40362D01*
X62157Y-39762D01*
X61700Y-39819D02*
X61671Y-39790D01*
X61614Y-39762D01*
X61471Y-39762D01*
X61414Y-39790D01*
X61385Y-39819D01*
X61357Y-39876D01*
X61357Y-39933D01*
X61385Y-40019D01*
X61728Y-40362D01*
X61357Y-40362D01*
X60986Y-39762D02*
X60929Y-39762D01*
X60872Y-39790D01*
X60843Y-39819D01*
X60814Y-39876D01*
X60786Y-39990D01*
X60786Y-40133D01*
X60814Y-40248D01*
X60843Y-40305D01*
X60872Y-40333D01*
X60929Y-40362D01*
X60986Y-40362D01*
X61043Y-40333D01*
X61072Y-40305D01*
X61100Y-40248D01*
X61129Y-40133D01*
X61129Y-39990D01*
X61100Y-39876D01*
X61072Y-39819D01*
X61043Y-39790D01*
X60986Y-39762D01*
X60558Y-39819D02*
X60529Y-39790D01*
X60472Y-39762D01*
X60329Y-39762D01*
X60272Y-39790D01*
X60243Y-39819D01*
X60215Y-39876D01*
X60215Y-39933D01*
X60243Y-40019D01*
X60586Y-40362D01*
X60215Y-40362D01*
X62037Y-43519D02*
X62008Y-43490D01*
X61951Y-43462D01*
X61808Y-43462D01*
X61751Y-43490D01*
X61722Y-43519D01*
X61694Y-43576D01*
X61694Y-43633D01*
X61722Y-43719D01*
X62065Y-44062D01*
X61694Y-44062D01*
X61437Y-44005D02*
X61409Y-44033D01*
X61437Y-44062D01*
X61466Y-44033D01*
X61437Y-44005D01*
X61437Y-44062D01*
X61180Y-43519D02*
X61151Y-43490D01*
X61094Y-43462D01*
X60951Y-43462D01*
X60894Y-43490D01*
X60865Y-43519D01*
X60837Y-43576D01*
X60837Y-43633D01*
X60865Y-43719D01*
X61208Y-44062D01*
X60837Y-44062D01*
X60580Y-43462D02*
X60580Y-43948D01*
X60552Y-44005D01*
X60523Y-44033D01*
X60466Y-44062D01*
X60352Y-44062D01*
X60294Y-44033D01*
X60266Y-44005D01*
X60237Y-43948D01*
X60237Y-43462D01*
X59951Y-44062D02*
X59951Y-43462D01*
X59951Y-43748D02*
X59608Y-43748D01*
X59608Y-44062D02*
X59608Y-43462D01*
G54D12*
X59757Y-33113D02*
X59771Y-33127D01*
X59814Y-33141D01*
X59843Y-33141D01*
X59886Y-33127D01*
X59914Y-33099D01*
X59929Y-33070D01*
X59943Y-33013D01*
X59943Y-32970D01*
X59929Y-32913D01*
X59914Y-32884D01*
X59886Y-32856D01*
X59843Y-32841D01*
X59814Y-32841D01*
X59771Y-32856D01*
X59757Y-32870D01*
X59657Y-32841D02*
X59457Y-32841D01*
X59586Y-33141D01*
X59214Y-32941D02*
X59214Y-33141D01*
X59285Y-32827D02*
X59357Y-33041D01*
X59171Y-33041D01*
X59071Y-32870D02*
X59057Y-32856D01*
X59028Y-32841D01*
X58957Y-32841D01*
X58928Y-32856D01*
X58914Y-32870D01*
X58899Y-32899D01*
X58899Y-32927D01*
X58914Y-32970D01*
X59085Y-33141D01*
X58899Y-33141D01*
X59757Y-28132D02*
X59771Y-28146D01*
X59814Y-28160D01*
X59843Y-28160D01*
X59886Y-28146D01*
X59914Y-28118D01*
X59929Y-28089D01*
X59943Y-28032D01*
X59943Y-27989D01*
X59929Y-27932D01*
X59914Y-27903D01*
X59886Y-27875D01*
X59843Y-27860D01*
X59814Y-27860D01*
X59771Y-27875D01*
X59757Y-27889D01*
X59657Y-27860D02*
X59457Y-27860D01*
X59586Y-28160D01*
X59214Y-27960D02*
X59214Y-28160D01*
X59285Y-27846D02*
X59357Y-28060D01*
X59171Y-28060D01*
X58899Y-28160D02*
X59071Y-28160D01*
X58985Y-28160D02*
X58985Y-27860D01*
X59014Y-27903D01*
X59042Y-27932D01*
X59071Y-27946D01*
X63085Y-37507D02*
X63099Y-37493D01*
X63113Y-37450D01*
X63113Y-37421D01*
X63099Y-37378D01*
X63071Y-37350D01*
X63042Y-37335D01*
X62985Y-37321D01*
X62942Y-37321D01*
X62885Y-37335D01*
X62856Y-37350D01*
X62828Y-37378D01*
X62813Y-37421D01*
X62813Y-37450D01*
X62828Y-37493D01*
X62842Y-37507D01*
X62813Y-37607D02*
X62813Y-37807D01*
X63113Y-37678D01*
X62913Y-38050D02*
X63113Y-38050D01*
X62799Y-37979D02*
X63013Y-37907D01*
X63013Y-38093D01*
X62813Y-38265D02*
X62813Y-38293D01*
X62828Y-38322D01*
X62842Y-38336D01*
X62871Y-38350D01*
X62928Y-38365D01*
X62999Y-38365D01*
X63056Y-38350D01*
X63085Y-38336D01*
X63099Y-38322D01*
X63113Y-38293D01*
X63113Y-38265D01*
X63099Y-38236D01*
X63085Y-38222D01*
X63056Y-38207D01*
X62999Y-38193D01*
X62928Y-38193D01*
X62871Y-38207D01*
X62842Y-38222D01*
X62828Y-38236D01*
X62813Y-38265D01*
X63062Y-35373D02*
X63076Y-35359D01*
X63090Y-35316D01*
X63090Y-35287D01*
X63076Y-35244D01*
X63048Y-35216D01*
X63019Y-35201D01*
X62962Y-35187D01*
X62919Y-35187D01*
X62862Y-35201D01*
X62833Y-35216D01*
X62805Y-35244D01*
X62790Y-35287D01*
X62790Y-35316D01*
X62805Y-35359D01*
X62819Y-35373D01*
X62790Y-35473D02*
X62790Y-35673D01*
X63090Y-35544D01*
X62790Y-35759D02*
X62790Y-35945D01*
X62905Y-35845D01*
X62905Y-35887D01*
X62919Y-35916D01*
X62933Y-35930D01*
X62962Y-35945D01*
X63033Y-35945D01*
X63062Y-35930D01*
X63076Y-35916D01*
X63090Y-35887D01*
X63090Y-35802D01*
X63076Y-35773D01*
X63062Y-35759D01*
X63090Y-36088D02*
X63090Y-36145D01*
X63076Y-36173D01*
X63062Y-36188D01*
X63019Y-36216D01*
X62962Y-36231D01*
X62848Y-36231D01*
X62819Y-36216D01*
X62805Y-36202D01*
X62790Y-36173D01*
X62790Y-36116D01*
X62805Y-36088D01*
X62819Y-36073D01*
X62848Y-36059D01*
X62919Y-36059D01*
X62948Y-36073D01*
X62962Y-36088D01*
X62976Y-36116D01*
X62976Y-36173D01*
X62962Y-36202D01*
X62948Y-36216D01*
X62919Y-36231D01*
X58836Y-42313D02*
X58850Y-42327D01*
X58893Y-42341D01*
X58922Y-42341D01*
X58965Y-42327D01*
X58993Y-42299D01*
X59008Y-42270D01*
X59022Y-42213D01*
X59022Y-42170D01*
X59008Y-42113D01*
X58993Y-42084D01*
X58965Y-42056D01*
X58922Y-42041D01*
X58893Y-42041D01*
X58850Y-42056D01*
X58836Y-42070D01*
X58736Y-42041D02*
X58536Y-42041D01*
X58665Y-42341D01*
X58450Y-42041D02*
X58264Y-42041D01*
X58364Y-42156D01*
X58322Y-42156D01*
X58293Y-42170D01*
X58279Y-42184D01*
X58264Y-42213D01*
X58264Y-42284D01*
X58279Y-42313D01*
X58293Y-42327D01*
X58322Y-42341D01*
X58407Y-42341D01*
X58436Y-42327D01*
X58450Y-42313D01*
X58093Y-42170D02*
X58121Y-42156D01*
X58136Y-42141D01*
X58150Y-42113D01*
X58150Y-42099D01*
X58136Y-42070D01*
X58121Y-42056D01*
X58093Y-42041D01*
X58036Y-42041D01*
X58007Y-42056D01*
X57993Y-42070D01*
X57978Y-42099D01*
X57978Y-42113D01*
X57993Y-42141D01*
X58007Y-42156D01*
X58036Y-42170D01*
X58093Y-42170D01*
X58121Y-42184D01*
X58136Y-42199D01*
X58150Y-42227D01*
X58150Y-42284D01*
X58136Y-42313D01*
X58121Y-42327D01*
X58093Y-42341D01*
X58036Y-42341D01*
X58007Y-42327D01*
X57993Y-42313D01*
X57978Y-42284D01*
X57978Y-42227D01*
X57993Y-42199D01*
X58007Y-42184D01*
X58036Y-42170D01*
X59757Y-30144D02*
X59771Y-30158D01*
X59814Y-30172D01*
X59843Y-30172D01*
X59886Y-30158D01*
X59914Y-30130D01*
X59929Y-30101D01*
X59943Y-30044D01*
X59943Y-30001D01*
X59929Y-29944D01*
X59914Y-29915D01*
X59886Y-29887D01*
X59843Y-29872D01*
X59814Y-29872D01*
X59771Y-29887D01*
X59757Y-29901D01*
X59657Y-29872D02*
X59457Y-29872D01*
X59586Y-30172D01*
X59371Y-29872D02*
X59185Y-29872D01*
X59285Y-29987D01*
X59243Y-29987D01*
X59214Y-30001D01*
X59200Y-30015D01*
X59185Y-30044D01*
X59185Y-30115D01*
X59200Y-30144D01*
X59214Y-30158D01*
X59243Y-30172D01*
X59328Y-30172D01*
X59357Y-30158D01*
X59371Y-30144D01*
X59085Y-29872D02*
X58885Y-29872D01*
X59014Y-30172D01*
G54D15*
X67109Y-36776D02*
X67118Y-36767D01*
X67128Y-36741D01*
X67128Y-36724D01*
X67118Y-36699D01*
X67099Y-36681D01*
X67080Y-36673D01*
X67042Y-36664D01*
X67014Y-36664D01*
X66976Y-36673D01*
X66957Y-36681D01*
X66937Y-36699D01*
X66928Y-36724D01*
X66928Y-36741D01*
X66937Y-36767D01*
X66947Y-36776D01*
X66928Y-36836D02*
X66928Y-36956D01*
X67128Y-36879D01*
X66928Y-37007D02*
X66928Y-37118D01*
X67004Y-37058D01*
X67004Y-37084D01*
X67014Y-37101D01*
X67023Y-37110D01*
X67042Y-37118D01*
X67090Y-37118D01*
X67109Y-37110D01*
X67118Y-37101D01*
X67128Y-37084D01*
X67128Y-37032D01*
X67118Y-37015D01*
X67109Y-37007D01*
X66995Y-37272D02*
X67128Y-37272D01*
X66918Y-37229D02*
X67061Y-37186D01*
X67061Y-37298D01*
X62298Y-33954D02*
X62307Y-33945D01*
X62317Y-33919D01*
X62317Y-33902D01*
X62307Y-33877D01*
X62288Y-33859D01*
X62269Y-33851D01*
X62231Y-33842D01*
X62203Y-33842D01*
X62165Y-33851D01*
X62146Y-33859D01*
X62126Y-33877D01*
X62117Y-33902D01*
X62117Y-33919D01*
X62126Y-33945D01*
X62136Y-33954D01*
X62117Y-34014D02*
X62117Y-34134D01*
X62317Y-34057D01*
X62117Y-34185D02*
X62117Y-34296D01*
X62193Y-34236D01*
X62193Y-34262D01*
X62203Y-34279D01*
X62212Y-34288D01*
X62231Y-34296D01*
X62279Y-34296D01*
X62298Y-34288D01*
X62307Y-34279D01*
X62317Y-34262D01*
X62317Y-34210D01*
X62307Y-34193D01*
X62298Y-34185D01*
X62117Y-34450D02*
X62117Y-34416D01*
X62126Y-34399D01*
X62136Y-34390D01*
X62165Y-34373D01*
X62203Y-34364D01*
X62279Y-34364D01*
X62298Y-34373D01*
X62307Y-34381D01*
X62317Y-34399D01*
X62317Y-34433D01*
X62307Y-34450D01*
X62298Y-34459D01*
X62279Y-34467D01*
X62231Y-34467D01*
X62212Y-34459D01*
X62203Y-34450D01*
X62193Y-34433D01*
X62193Y-34399D01*
X62203Y-34381D01*
X62212Y-34373D01*
X62231Y-34364D01*
X59669Y-35223D02*
X59678Y-35232D01*
X59704Y-35242D01*
X59721Y-35242D01*
X59746Y-35232D01*
X59764Y-35213D01*
X59772Y-35194D01*
X59781Y-35156D01*
X59781Y-35128D01*
X59772Y-35090D01*
X59764Y-35071D01*
X59746Y-35051D01*
X59721Y-35042D01*
X59704Y-35042D01*
X59678Y-35051D01*
X59669Y-35061D01*
X59609Y-35042D02*
X59489Y-35042D01*
X59566Y-35242D01*
X59438Y-35042D02*
X59327Y-35042D01*
X59387Y-35118D01*
X59361Y-35118D01*
X59344Y-35128D01*
X59335Y-35137D01*
X59327Y-35156D01*
X59327Y-35204D01*
X59335Y-35223D01*
X59344Y-35232D01*
X59361Y-35242D01*
X59413Y-35242D01*
X59430Y-35232D01*
X59438Y-35223D01*
X59164Y-35042D02*
X59250Y-35042D01*
X59259Y-35137D01*
X59250Y-35128D01*
X59233Y-35118D01*
X59190Y-35118D01*
X59173Y-35128D01*
X59164Y-35137D01*
X59156Y-35156D01*
X59156Y-35204D01*
X59164Y-35223D01*
X59173Y-35232D01*
X59190Y-35242D01*
X59233Y-35242D01*
X59250Y-35232D01*
X59259Y-35223D01*
X61653Y-33954D02*
X61662Y-33945D01*
X61672Y-33919D01*
X61672Y-33902D01*
X61662Y-33877D01*
X61643Y-33859D01*
X61624Y-33851D01*
X61586Y-33842D01*
X61558Y-33842D01*
X61520Y-33851D01*
X61501Y-33859D01*
X61481Y-33877D01*
X61472Y-33902D01*
X61472Y-33919D01*
X61481Y-33945D01*
X61491Y-33954D01*
X61472Y-34014D02*
X61472Y-34134D01*
X61672Y-34057D01*
X61491Y-34193D02*
X61481Y-34202D01*
X61472Y-34219D01*
X61472Y-34262D01*
X61481Y-34279D01*
X61491Y-34288D01*
X61510Y-34296D01*
X61529Y-34296D01*
X61558Y-34288D01*
X61672Y-34185D01*
X61672Y-34296D01*
X61472Y-34459D02*
X61472Y-34373D01*
X61567Y-34364D01*
X61558Y-34373D01*
X61548Y-34390D01*
X61548Y-34433D01*
X61558Y-34450D01*
X61567Y-34459D01*
X61586Y-34467D01*
X61634Y-34467D01*
X61653Y-34459D01*
X61662Y-34450D01*
X61672Y-34433D01*
X61672Y-34390D01*
X61662Y-34373D01*
X61653Y-34364D01*
X64983Y-35989D02*
X64992Y-35980D01*
X65002Y-35954D01*
X65002Y-35937D01*
X64992Y-35912D01*
X64973Y-35894D01*
X64954Y-35886D01*
X64916Y-35877D01*
X64888Y-35877D01*
X64850Y-35886D01*
X64831Y-35894D01*
X64811Y-35912D01*
X64802Y-35937D01*
X64802Y-35954D01*
X64811Y-35980D01*
X64821Y-35989D01*
X64802Y-36049D02*
X64802Y-36169D01*
X65002Y-36092D01*
X64802Y-36220D02*
X64802Y-36331D01*
X64878Y-36271D01*
X64878Y-36297D01*
X64888Y-36314D01*
X64897Y-36323D01*
X64916Y-36331D01*
X64964Y-36331D01*
X64983Y-36323D01*
X64992Y-36314D01*
X65002Y-36297D01*
X65002Y-36245D01*
X64992Y-36228D01*
X64983Y-36220D01*
X64802Y-36391D02*
X64802Y-36502D01*
X64878Y-36442D01*
X64878Y-36468D01*
X64888Y-36485D01*
X64897Y-36494D01*
X64916Y-36502D01*
X64964Y-36502D01*
X64983Y-36494D01*
X64992Y-36485D01*
X65002Y-36468D01*
X65002Y-36416D01*
X64992Y-36399D01*
X64983Y-36391D01*
X60259Y-38456D02*
X60268Y-38465D01*
X60294Y-38475D01*
X60311Y-38475D01*
X60336Y-38465D01*
X60354Y-38446D01*
X60362Y-38427D01*
X60371Y-38389D01*
X60371Y-38361D01*
X60362Y-38323D01*
X60354Y-38304D01*
X60336Y-38284D01*
X60311Y-38275D01*
X60294Y-38275D01*
X60268Y-38284D01*
X60259Y-38294D01*
X60199Y-38275D02*
X60079Y-38275D01*
X60156Y-38475D01*
X60028Y-38275D02*
X59917Y-38275D01*
X59977Y-38351D01*
X59951Y-38351D01*
X59934Y-38361D01*
X59925Y-38370D01*
X59917Y-38389D01*
X59917Y-38437D01*
X59925Y-38456D01*
X59934Y-38465D01*
X59951Y-38475D01*
X60003Y-38475D01*
X60020Y-38465D01*
X60028Y-38456D01*
X59849Y-38294D02*
X59840Y-38284D01*
X59823Y-38275D01*
X59780Y-38275D01*
X59763Y-38284D01*
X59754Y-38294D01*
X59746Y-38313D01*
X59746Y-38332D01*
X59754Y-38361D01*
X59857Y-38475D01*
X59746Y-38475D01*
X63574Y-33954D02*
X63583Y-33945D01*
X63593Y-33919D01*
X63593Y-33902D01*
X63583Y-33877D01*
X63564Y-33859D01*
X63545Y-33851D01*
X63507Y-33842D01*
X63479Y-33842D01*
X63441Y-33851D01*
X63422Y-33859D01*
X63402Y-33877D01*
X63393Y-33902D01*
X63393Y-33919D01*
X63402Y-33945D01*
X63412Y-33954D01*
X63393Y-34014D02*
X63393Y-34134D01*
X63593Y-34057D01*
X63393Y-34185D02*
X63393Y-34296D01*
X63469Y-34236D01*
X63469Y-34262D01*
X63479Y-34279D01*
X63488Y-34288D01*
X63507Y-34296D01*
X63555Y-34296D01*
X63574Y-34288D01*
X63583Y-34279D01*
X63593Y-34262D01*
X63593Y-34210D01*
X63583Y-34193D01*
X63574Y-34185D01*
X63593Y-34467D02*
X63593Y-34364D01*
X63593Y-34416D02*
X63393Y-34416D01*
X63422Y-34399D01*
X63441Y-34381D01*
X63450Y-34364D01*
X59661Y-34582D02*
X59670Y-34591D01*
X59696Y-34601D01*
X59713Y-34601D01*
X59738Y-34591D01*
X59756Y-34572D01*
X59764Y-34553D01*
X59773Y-34515D01*
X59773Y-34487D01*
X59764Y-34449D01*
X59756Y-34430D01*
X59738Y-34410D01*
X59713Y-34401D01*
X59696Y-34401D01*
X59670Y-34410D01*
X59661Y-34420D01*
X59601Y-34401D02*
X59481Y-34401D01*
X59558Y-34601D01*
X59430Y-34401D02*
X59319Y-34401D01*
X59379Y-34477D01*
X59353Y-34477D01*
X59336Y-34487D01*
X59327Y-34496D01*
X59319Y-34515D01*
X59319Y-34563D01*
X59327Y-34582D01*
X59336Y-34591D01*
X59353Y-34601D01*
X59405Y-34601D01*
X59422Y-34591D01*
X59430Y-34582D01*
X59208Y-34401D02*
X59191Y-34401D01*
X59174Y-34410D01*
X59165Y-34420D01*
X59156Y-34439D01*
X59148Y-34477D01*
X59148Y-34525D01*
X59156Y-34563D01*
X59165Y-34582D01*
X59174Y-34591D01*
X59191Y-34601D01*
X59208Y-34601D01*
X59225Y-34591D01*
X59234Y-34582D01*
X59242Y-34563D01*
X59251Y-34525D01*
X59251Y-34477D01*
X59242Y-34439D01*
X59234Y-34420D01*
X59225Y-34410D01*
X59208Y-34401D01*
X64188Y-33946D02*
X64197Y-33937D01*
X64207Y-33911D01*
X64207Y-33894D01*
X64197Y-33869D01*
X64178Y-33851D01*
X64159Y-33843D01*
X64121Y-33834D01*
X64093Y-33834D01*
X64055Y-33843D01*
X64036Y-33851D01*
X64016Y-33869D01*
X64007Y-33894D01*
X64007Y-33911D01*
X64016Y-33937D01*
X64026Y-33946D01*
X64007Y-34006D02*
X64007Y-34126D01*
X64207Y-34049D01*
X64026Y-34185D02*
X64016Y-34194D01*
X64007Y-34211D01*
X64007Y-34254D01*
X64016Y-34271D01*
X64026Y-34280D01*
X64045Y-34288D01*
X64064Y-34288D01*
X64093Y-34280D01*
X64207Y-34177D01*
X64207Y-34288D01*
X64207Y-34373D02*
X64207Y-34408D01*
X64197Y-34425D01*
X64188Y-34433D01*
X64159Y-34451D01*
X64121Y-34459D01*
X64045Y-34459D01*
X64026Y-34451D01*
X64016Y-34442D01*
X64007Y-34425D01*
X64007Y-34391D01*
X64016Y-34373D01*
X64026Y-34365D01*
X64045Y-34356D01*
X64093Y-34356D01*
X64112Y-34365D01*
X64121Y-34373D01*
X64131Y-34391D01*
X64131Y-34425D01*
X64121Y-34442D01*
X64112Y-34451D01*
X64093Y-34459D01*
X61003Y-38686D02*
X61012Y-38677D01*
X61022Y-38651D01*
X61022Y-38634D01*
X61012Y-38609D01*
X60993Y-38591D01*
X60974Y-38583D01*
X60936Y-38574D01*
X60908Y-38574D01*
X60870Y-38583D01*
X60851Y-38591D01*
X60831Y-38609D01*
X60822Y-38634D01*
X60822Y-38651D01*
X60831Y-38677D01*
X60841Y-38686D01*
X60822Y-38746D02*
X60822Y-38866D01*
X61022Y-38789D01*
X60841Y-38925D02*
X60831Y-38934D01*
X60822Y-38951D01*
X60822Y-38994D01*
X60831Y-39011D01*
X60841Y-39020D01*
X60860Y-39028D01*
X60879Y-39028D01*
X60908Y-39020D01*
X61022Y-38917D01*
X61022Y-39028D01*
X60908Y-39131D02*
X60898Y-39113D01*
X60889Y-39105D01*
X60870Y-39096D01*
X60860Y-39096D01*
X60841Y-39105D01*
X60831Y-39113D01*
X60822Y-39131D01*
X60822Y-39165D01*
X60831Y-39182D01*
X60841Y-39191D01*
X60860Y-39199D01*
X60870Y-39199D01*
X60889Y-39191D01*
X60898Y-39182D01*
X60908Y-39165D01*
X60908Y-39131D01*
X60917Y-39113D01*
X60927Y-39105D01*
X60946Y-39096D01*
X60984Y-39096D01*
X61003Y-39105D01*
X61012Y-39113D01*
X61022Y-39131D01*
X61022Y-39165D01*
X61012Y-39182D01*
X61003Y-39191D01*
X60984Y-39199D01*
X60946Y-39199D01*
X60927Y-39191D01*
X60917Y-39182D01*
X60908Y-39165D01*
X61003Y-35422D02*
X61012Y-35413D01*
X61022Y-35387D01*
X61022Y-35370D01*
X61012Y-35345D01*
X60993Y-35327D01*
X60974Y-35319D01*
X60936Y-35310D01*
X60908Y-35310D01*
X60870Y-35319D01*
X60851Y-35327D01*
X60831Y-35345D01*
X60822Y-35370D01*
X60822Y-35387D01*
X60831Y-35413D01*
X60841Y-35422D01*
X60822Y-35482D02*
X60822Y-35602D01*
X61022Y-35525D01*
X60841Y-35661D02*
X60831Y-35670D01*
X60822Y-35687D01*
X60822Y-35730D01*
X60831Y-35747D01*
X60841Y-35756D01*
X60860Y-35764D01*
X60879Y-35764D01*
X60908Y-35756D01*
X61022Y-35653D01*
X61022Y-35764D01*
X60822Y-35824D02*
X60822Y-35944D01*
X61022Y-35867D01*
X60735Y-36582D02*
X60744Y-36591D01*
X60770Y-36601D01*
X60787Y-36601D01*
X60812Y-36591D01*
X60830Y-36572D01*
X60838Y-36553D01*
X60847Y-36515D01*
X60847Y-36487D01*
X60838Y-36449D01*
X60830Y-36430D01*
X60812Y-36410D01*
X60787Y-36401D01*
X60770Y-36401D01*
X60744Y-36410D01*
X60735Y-36420D01*
X60675Y-36401D02*
X60555Y-36401D01*
X60632Y-36601D01*
X60496Y-36420D02*
X60487Y-36410D01*
X60470Y-36401D01*
X60427Y-36401D01*
X60410Y-36410D01*
X60401Y-36420D01*
X60393Y-36439D01*
X60393Y-36458D01*
X60401Y-36487D01*
X60504Y-36601D01*
X60393Y-36601D01*
X60239Y-36401D02*
X60273Y-36401D01*
X60290Y-36410D01*
X60299Y-36420D01*
X60316Y-36449D01*
X60325Y-36487D01*
X60325Y-36563D01*
X60316Y-36582D01*
X60308Y-36591D01*
X60290Y-36601D01*
X60256Y-36601D01*
X60239Y-36591D01*
X60230Y-36582D01*
X60222Y-36563D01*
X60222Y-36515D01*
X60230Y-36496D01*
X60239Y-36487D01*
X60256Y-36477D01*
X60290Y-36477D01*
X60308Y-36487D01*
X60316Y-36496D01*
X60325Y-36515D01*
G54D16*
X65601Y-44150D02*
X65761Y-44150D01*
X65779Y-44159D01*
X65789Y-44169D01*
X65798Y-44187D01*
X65798Y-44225D01*
X65789Y-44244D01*
X65779Y-44253D01*
X65761Y-44262D01*
X65601Y-44262D01*
X65620Y-44347D02*
X65611Y-44356D01*
X65601Y-44375D01*
X65601Y-44422D01*
X65611Y-44440D01*
X65620Y-44450D01*
X65639Y-44459D01*
X65658Y-44459D01*
X65686Y-44450D01*
X65798Y-44337D01*
X65798Y-44459D01*
X65601Y-44581D02*
X65601Y-44600D01*
X65611Y-44619D01*
X65620Y-44628D01*
X65639Y-44638D01*
X65676Y-44647D01*
X65723Y-44647D01*
X65761Y-44638D01*
X65779Y-44628D01*
X65789Y-44619D01*
X65798Y-44600D01*
X65798Y-44581D01*
X65789Y-44563D01*
X65779Y-44553D01*
X65761Y-44544D01*
X65723Y-44535D01*
X65676Y-44535D01*
X65639Y-44544D01*
X65620Y-44553D01*
X65611Y-44563D01*
X65601Y-44581D01*
X65667Y-44816D02*
X65798Y-44816D01*
X65592Y-44769D02*
X65733Y-44723D01*
X65733Y-44844D01*
X66526Y-43715D02*
X66526Y-43621D01*
X66329Y-43621D01*
X66329Y-43752D02*
X66329Y-43864D01*
X66526Y-43808D02*
X66329Y-43808D01*
X66507Y-44042D02*
X66517Y-44033D01*
X66526Y-44005D01*
X66526Y-43986D01*
X66517Y-43958D01*
X66498Y-43939D01*
X66479Y-43930D01*
X66442Y-43921D01*
X66414Y-43921D01*
X66376Y-43930D01*
X66357Y-43939D01*
X66339Y-43958D01*
X66329Y-43986D01*
X66329Y-44005D01*
X66339Y-44033D01*
X66348Y-44042D01*
X66329Y-44108D02*
X66329Y-44230D01*
X66404Y-44164D01*
X66404Y-44193D01*
X66414Y-44211D01*
X66423Y-44221D01*
X66442Y-44230D01*
X66489Y-44230D01*
X66507Y-44221D01*
X66517Y-44211D01*
X66526Y-44193D01*
X66526Y-44136D01*
X66517Y-44118D01*
X66507Y-44108D01*
X66329Y-44409D02*
X66329Y-44315D01*
X66423Y-44306D01*
X66414Y-44315D01*
X66404Y-44334D01*
X66404Y-44381D01*
X66414Y-44399D01*
X66423Y-44409D01*
X66442Y-44418D01*
X66489Y-44418D01*
X66507Y-44409D01*
X66517Y-44399D01*
X66526Y-44381D01*
X66526Y-44334D01*
X66517Y-44315D01*
X66507Y-44306D01*
X66395Y-44587D02*
X66526Y-44587D01*
X66320Y-44540D02*
X66461Y-44494D01*
X66461Y-44615D01*
X66329Y-44775D02*
X66329Y-44738D01*
X66339Y-44719D01*
X66348Y-44710D01*
X66376Y-44691D01*
X66414Y-44682D01*
X66489Y-44682D01*
X66507Y-44691D01*
X66517Y-44700D01*
X66526Y-44719D01*
X66526Y-44757D01*
X66517Y-44775D01*
X66507Y-44785D01*
X66489Y-44794D01*
X66442Y-44794D01*
X66423Y-44785D01*
X66414Y-44775D01*
X66404Y-44757D01*
X66404Y-44719D01*
X66414Y-44700D01*
X66423Y-44691D01*
X66442Y-44682D01*
X65964Y-28245D02*
X66124Y-28245D01*
X66142Y-28254D01*
X66152Y-28264D01*
X66161Y-28282D01*
X66161Y-28320D01*
X66152Y-28339D01*
X66142Y-28348D01*
X66124Y-28357D01*
X65964Y-28357D01*
X65983Y-28442D02*
X65974Y-28451D01*
X65964Y-28470D01*
X65964Y-28517D01*
X65974Y-28535D01*
X65983Y-28545D01*
X66002Y-28554D01*
X66021Y-28554D01*
X66049Y-28545D01*
X66161Y-28432D01*
X66161Y-28554D01*
X65964Y-28676D02*
X65964Y-28695D01*
X65974Y-28714D01*
X65983Y-28723D01*
X66002Y-28733D01*
X66039Y-28742D01*
X66086Y-28742D01*
X66124Y-28733D01*
X66142Y-28723D01*
X66152Y-28714D01*
X66161Y-28695D01*
X66161Y-28676D01*
X66152Y-28658D01*
X66142Y-28648D01*
X66124Y-28639D01*
X66086Y-28630D01*
X66039Y-28630D01*
X66002Y-28639D01*
X65983Y-28648D01*
X65974Y-28658D01*
X65964Y-28676D01*
X65964Y-28911D02*
X65964Y-28874D01*
X65974Y-28855D01*
X65983Y-28846D01*
X66011Y-28827D01*
X66049Y-28818D01*
X66124Y-28818D01*
X66142Y-28827D01*
X66152Y-28836D01*
X66161Y-28855D01*
X66161Y-28893D01*
X66152Y-28911D01*
X66142Y-28921D01*
X66124Y-28930D01*
X66077Y-28930D01*
X66058Y-28921D01*
X66049Y-28911D01*
X66039Y-28893D01*
X66039Y-28855D01*
X66049Y-28836D01*
X66058Y-28827D01*
X66077Y-28818D01*
X65433Y-28380D02*
X65433Y-28286D01*
X65236Y-28286D01*
X65236Y-28417D02*
X65236Y-28529D01*
X65433Y-28473D02*
X65236Y-28473D01*
X65414Y-28707D02*
X65424Y-28698D01*
X65433Y-28670D01*
X65433Y-28651D01*
X65424Y-28623D01*
X65405Y-28604D01*
X65386Y-28595D01*
X65349Y-28586D01*
X65321Y-28586D01*
X65283Y-28595D01*
X65264Y-28604D01*
X65246Y-28623D01*
X65236Y-28651D01*
X65236Y-28670D01*
X65246Y-28698D01*
X65255Y-28707D01*
X65236Y-28773D02*
X65236Y-28895D01*
X65311Y-28829D01*
X65311Y-28858D01*
X65321Y-28876D01*
X65330Y-28886D01*
X65349Y-28895D01*
X65396Y-28895D01*
X65414Y-28886D01*
X65424Y-28876D01*
X65433Y-28858D01*
X65433Y-28801D01*
X65424Y-28783D01*
X65414Y-28773D01*
X65236Y-29074D02*
X65236Y-28980D01*
X65330Y-28971D01*
X65321Y-28980D01*
X65311Y-28999D01*
X65311Y-29046D01*
X65321Y-29064D01*
X65330Y-29074D01*
X65349Y-29083D01*
X65396Y-29083D01*
X65414Y-29074D01*
X65424Y-29064D01*
X65433Y-29046D01*
X65433Y-28999D01*
X65424Y-28980D01*
X65414Y-28971D01*
X65302Y-29252D02*
X65433Y-29252D01*
X65227Y-29205D02*
X65368Y-29159D01*
X65368Y-29280D01*
X65236Y-29440D02*
X65236Y-29403D01*
X65246Y-29384D01*
X65255Y-29375D01*
X65283Y-29356D01*
X65321Y-29347D01*
X65396Y-29347D01*
X65414Y-29356D01*
X65424Y-29365D01*
X65433Y-29384D01*
X65433Y-29422D01*
X65424Y-29440D01*
X65414Y-29450D01*
X65396Y-29459D01*
X65349Y-29459D01*
X65330Y-29450D01*
X65321Y-29440D01*
X65311Y-29422D01*
X65311Y-29384D01*
X65321Y-29365D01*
X65330Y-29356D01*
X65349Y-29347D01*
M02*
