G04 (created by PCBNEW-RS274X (2012-jan-04)-stable) date Tue Nov 13 20:46:58 2012*
G01*
G70*
G90*
%MOIN*%
G04 Gerber Fmt 3.4, Leading zero omitted, Abs format*
%FSLAX34Y34*%
G04 APERTURE LIST*
%ADD10C,0.006000*%
%ADD11C,0.012000*%
%ADD12C,0.003900*%
%ADD13C,0.005000*%
%ADD14C,0.015000*%
%ADD15C,0.005900*%
%ADD16C,0.006900*%
%ADD17C,0.004500*%
G04 APERTURE END LIST*
G54D10*
X04000Y-04000D02*
X113000Y-04000D01*
X113000Y-78670D01*
X04000Y-78670D01*
X04000Y-04000D01*
X04700Y-04700D02*
X112300Y-04700D01*
X112300Y-77970D01*
X04700Y-77970D01*
X04700Y-04700D01*
X25800Y-04000D02*
X25800Y-04700D01*
X15043Y-04552D02*
X14757Y-04552D01*
X14900Y-04552D02*
X14900Y-04052D01*
X14852Y-04124D01*
X14805Y-04171D01*
X14757Y-04195D01*
X25800Y-78670D02*
X25800Y-77970D01*
X15043Y-78522D02*
X14757Y-78522D01*
X14900Y-78522D02*
X14900Y-78022D01*
X14852Y-78094D01*
X14805Y-78141D01*
X14757Y-78165D01*
X47600Y-04000D02*
X47600Y-04700D01*
X36557Y-04100D02*
X36581Y-04076D01*
X36629Y-04052D01*
X36748Y-04052D01*
X36795Y-04076D01*
X36819Y-04100D01*
X36843Y-04148D01*
X36843Y-04195D01*
X36819Y-04267D01*
X36533Y-04552D01*
X36843Y-04552D01*
X47600Y-78670D02*
X47600Y-77970D01*
X36557Y-78070D02*
X36581Y-78046D01*
X36629Y-78022D01*
X36748Y-78022D01*
X36795Y-78046D01*
X36819Y-78070D01*
X36843Y-78118D01*
X36843Y-78165D01*
X36819Y-78237D01*
X36533Y-78522D01*
X36843Y-78522D01*
X69400Y-04000D02*
X69400Y-04700D01*
X58333Y-04052D02*
X58643Y-04052D01*
X58476Y-04243D01*
X58548Y-04243D01*
X58595Y-04267D01*
X58619Y-04290D01*
X58643Y-04338D01*
X58643Y-04457D01*
X58619Y-04505D01*
X58595Y-04529D01*
X58548Y-04552D01*
X58405Y-04552D01*
X58357Y-04529D01*
X58333Y-04505D01*
X69400Y-78670D02*
X69400Y-77970D01*
X58333Y-78022D02*
X58643Y-78022D01*
X58476Y-78213D01*
X58548Y-78213D01*
X58595Y-78237D01*
X58619Y-78260D01*
X58643Y-78308D01*
X58643Y-78427D01*
X58619Y-78475D01*
X58595Y-78499D01*
X58548Y-78522D01*
X58405Y-78522D01*
X58357Y-78499D01*
X58333Y-78475D01*
X91200Y-04000D02*
X91200Y-04700D01*
X80395Y-04219D02*
X80395Y-04552D01*
X80276Y-04029D02*
X80157Y-04386D01*
X80467Y-04386D01*
X91200Y-78670D02*
X91200Y-77970D01*
X80395Y-78189D02*
X80395Y-78522D01*
X80276Y-77999D02*
X80157Y-78356D01*
X80467Y-78356D01*
X102219Y-04052D02*
X101981Y-04052D01*
X101957Y-04290D01*
X101981Y-04267D01*
X102029Y-04243D01*
X102148Y-04243D01*
X102195Y-04267D01*
X102219Y-04290D01*
X102243Y-04338D01*
X102243Y-04457D01*
X102219Y-04505D01*
X102195Y-04529D01*
X102148Y-04552D01*
X102029Y-04552D01*
X101981Y-04529D01*
X101957Y-04505D01*
X102219Y-78022D02*
X101981Y-78022D01*
X101957Y-78260D01*
X101981Y-78237D01*
X102029Y-78213D01*
X102148Y-78213D01*
X102195Y-78237D01*
X102219Y-78260D01*
X102243Y-78308D01*
X102243Y-78427D01*
X102219Y-78475D01*
X102195Y-78499D01*
X102148Y-78522D01*
X102029Y-78522D01*
X101981Y-78499D01*
X101957Y-78475D01*
X04000Y-28890D02*
X04700Y-28890D01*
X04231Y-16510D02*
X04469Y-16510D01*
X04184Y-16652D02*
X04350Y-16152D01*
X04517Y-16652D01*
X113000Y-28890D02*
X112300Y-28890D01*
X112531Y-16510D02*
X112769Y-16510D01*
X112484Y-16652D02*
X112650Y-16152D01*
X112817Y-16652D01*
X04000Y-53780D02*
X04700Y-53780D01*
X04386Y-41280D02*
X04457Y-41304D01*
X04481Y-41328D01*
X04505Y-41376D01*
X04505Y-41447D01*
X04481Y-41495D01*
X04457Y-41519D01*
X04410Y-41542D01*
X04219Y-41542D01*
X04219Y-41042D01*
X04386Y-41042D01*
X04433Y-41066D01*
X04457Y-41090D01*
X04481Y-41138D01*
X04481Y-41185D01*
X04457Y-41233D01*
X04433Y-41257D01*
X04386Y-41280D01*
X04219Y-41280D01*
X113000Y-53780D02*
X112300Y-53780D01*
X112686Y-41280D02*
X112757Y-41304D01*
X112781Y-41328D01*
X112805Y-41376D01*
X112805Y-41447D01*
X112781Y-41495D01*
X112757Y-41519D01*
X112710Y-41542D01*
X112519Y-41542D01*
X112519Y-41042D01*
X112686Y-41042D01*
X112733Y-41066D01*
X112757Y-41090D01*
X112781Y-41138D01*
X112781Y-41185D01*
X112757Y-41233D01*
X112733Y-41257D01*
X112686Y-41280D01*
X112519Y-41280D01*
X04505Y-66385D02*
X04481Y-66409D01*
X04410Y-66432D01*
X04362Y-66432D01*
X04290Y-66409D01*
X04243Y-66361D01*
X04219Y-66313D01*
X04195Y-66218D01*
X04195Y-66147D01*
X04219Y-66051D01*
X04243Y-66004D01*
X04290Y-65956D01*
X04362Y-65932D01*
X04410Y-65932D01*
X04481Y-65956D01*
X04505Y-65980D01*
X112805Y-66385D02*
X112781Y-66409D01*
X112710Y-66432D01*
X112662Y-66432D01*
X112590Y-66409D01*
X112543Y-66361D01*
X112519Y-66313D01*
X112495Y-66218D01*
X112495Y-66147D01*
X112519Y-66051D01*
X112543Y-66004D01*
X112590Y-65956D01*
X112662Y-65932D01*
X112710Y-65932D01*
X112781Y-65956D01*
X112805Y-65980D01*
G54D11*
X79443Y-76413D02*
X79443Y-75813D01*
X79586Y-75813D01*
X79671Y-75841D01*
X79729Y-75899D01*
X79757Y-75956D01*
X79786Y-76070D01*
X79786Y-76156D01*
X79757Y-76270D01*
X79729Y-76327D01*
X79671Y-76384D01*
X79586Y-76413D01*
X79443Y-76413D01*
X80300Y-76413D02*
X80300Y-76099D01*
X80271Y-76041D01*
X80214Y-76013D01*
X80100Y-76013D01*
X80043Y-76041D01*
X80300Y-76384D02*
X80243Y-76413D01*
X80100Y-76413D01*
X80043Y-76384D01*
X80014Y-76327D01*
X80014Y-76270D01*
X80043Y-76213D01*
X80100Y-76184D01*
X80243Y-76184D01*
X80300Y-76156D01*
X80500Y-76013D02*
X80729Y-76013D01*
X80586Y-75813D02*
X80586Y-76327D01*
X80614Y-76384D01*
X80672Y-76413D01*
X80729Y-76413D01*
X81157Y-76384D02*
X81100Y-76413D01*
X80986Y-76413D01*
X80929Y-76384D01*
X80900Y-76327D01*
X80900Y-76099D01*
X80929Y-76041D01*
X80986Y-76013D01*
X81100Y-76013D01*
X81157Y-76041D01*
X81186Y-76099D01*
X81186Y-76156D01*
X80900Y-76213D01*
X81443Y-76356D02*
X81471Y-76384D01*
X81443Y-76413D01*
X81414Y-76384D01*
X81443Y-76356D01*
X81443Y-76413D01*
X81443Y-76041D02*
X81471Y-76070D01*
X81443Y-76099D01*
X81414Y-76070D01*
X81443Y-76041D01*
X81443Y-76099D01*
X82500Y-76413D02*
X82157Y-76413D01*
X82329Y-76413D02*
X82329Y-75813D01*
X82272Y-75899D01*
X82214Y-75956D01*
X82157Y-75984D01*
X83014Y-76013D02*
X83014Y-76413D01*
X82871Y-75784D02*
X82728Y-76213D01*
X83100Y-76213D01*
X83785Y-76013D02*
X83785Y-76413D01*
X83785Y-76070D02*
X83813Y-76041D01*
X83871Y-76013D01*
X83956Y-76013D01*
X84013Y-76041D01*
X84042Y-76099D01*
X84042Y-76413D01*
X84414Y-76413D02*
X84356Y-76384D01*
X84328Y-76356D01*
X84299Y-76299D01*
X84299Y-76127D01*
X84328Y-76070D01*
X84356Y-76041D01*
X84414Y-76013D01*
X84499Y-76013D01*
X84556Y-76041D01*
X84585Y-76070D01*
X84614Y-76127D01*
X84614Y-76299D01*
X84585Y-76356D01*
X84556Y-76384D01*
X84499Y-76413D01*
X84414Y-76413D01*
X84814Y-76013D02*
X84957Y-76413D01*
X85099Y-76013D01*
X85756Y-75870D02*
X85785Y-75841D01*
X85842Y-75813D01*
X85985Y-75813D01*
X86042Y-75841D01*
X86071Y-75870D01*
X86099Y-75927D01*
X86099Y-75984D01*
X86071Y-76070D01*
X85728Y-76413D01*
X86099Y-76413D01*
X86470Y-75813D02*
X86527Y-75813D01*
X86584Y-75841D01*
X86613Y-75870D01*
X86642Y-75927D01*
X86670Y-76041D01*
X86670Y-76184D01*
X86642Y-76299D01*
X86613Y-76356D01*
X86584Y-76384D01*
X86527Y-76413D01*
X86470Y-76413D01*
X86413Y-76384D01*
X86384Y-76356D01*
X86356Y-76299D01*
X86327Y-76184D01*
X86327Y-76041D01*
X86356Y-75927D01*
X86384Y-75870D01*
X86413Y-75841D01*
X86470Y-75813D01*
X87241Y-76413D02*
X86898Y-76413D01*
X87070Y-76413D02*
X87070Y-75813D01*
X87013Y-75899D01*
X86955Y-75956D01*
X86898Y-75984D01*
X87469Y-75870D02*
X87498Y-75841D01*
X87555Y-75813D01*
X87698Y-75813D01*
X87755Y-75841D01*
X87784Y-75870D01*
X87812Y-75927D01*
X87812Y-75984D01*
X87784Y-76070D01*
X87441Y-76413D01*
X87812Y-76413D01*
G54D10*
X71043Y-77613D02*
X71043Y-77013D01*
X71386Y-77613D02*
X71129Y-77270D01*
X71386Y-77013D02*
X71043Y-77356D01*
X71643Y-77613D02*
X71643Y-77213D01*
X71643Y-77013D02*
X71614Y-77041D01*
X71643Y-77070D01*
X71671Y-77041D01*
X71643Y-77013D01*
X71643Y-77070D01*
X72272Y-77556D02*
X72243Y-77584D01*
X72157Y-77613D01*
X72100Y-77613D01*
X72015Y-77584D01*
X71957Y-77527D01*
X71929Y-77470D01*
X71900Y-77356D01*
X71900Y-77270D01*
X71929Y-77156D01*
X71957Y-77099D01*
X72015Y-77041D01*
X72100Y-77013D01*
X72157Y-77013D01*
X72243Y-77041D01*
X72272Y-77070D01*
X72786Y-77613D02*
X72786Y-77299D01*
X72757Y-77241D01*
X72700Y-77213D01*
X72586Y-77213D01*
X72529Y-77241D01*
X72786Y-77584D02*
X72729Y-77613D01*
X72586Y-77613D01*
X72529Y-77584D01*
X72500Y-77527D01*
X72500Y-77470D01*
X72529Y-77413D01*
X72586Y-77384D01*
X72729Y-77384D01*
X72786Y-77356D01*
X73329Y-77613D02*
X73329Y-77013D01*
X73329Y-77584D02*
X73272Y-77613D01*
X73158Y-77613D01*
X73100Y-77584D01*
X73072Y-77556D01*
X73043Y-77499D01*
X73043Y-77327D01*
X73072Y-77270D01*
X73100Y-77241D01*
X73158Y-77213D01*
X73272Y-77213D01*
X73329Y-77241D01*
X74072Y-77299D02*
X74272Y-77299D01*
X74358Y-77613D02*
X74072Y-77613D01*
X74072Y-77013D01*
X74358Y-77013D01*
X74615Y-77556D02*
X74643Y-77584D01*
X74615Y-77613D01*
X74586Y-77584D01*
X74615Y-77556D01*
X74615Y-77613D01*
X74901Y-77613D02*
X74901Y-77013D01*
X75044Y-77013D01*
X75129Y-77041D01*
X75187Y-77099D01*
X75215Y-77156D01*
X75244Y-77270D01*
X75244Y-77356D01*
X75215Y-77470D01*
X75187Y-77527D01*
X75129Y-77584D01*
X75044Y-77613D01*
X74901Y-77613D01*
X75501Y-77556D02*
X75529Y-77584D01*
X75501Y-77613D01*
X75472Y-77584D01*
X75501Y-77556D01*
X75501Y-77613D01*
X75758Y-77441D02*
X76044Y-77441D01*
X75701Y-77613D02*
X75901Y-77013D01*
X76101Y-77613D01*
X76301Y-77556D02*
X76329Y-77584D01*
X76301Y-77613D01*
X76272Y-77584D01*
X76301Y-77556D01*
X76301Y-77613D01*
G54D11*
X104586Y-76413D02*
X104386Y-76127D01*
X104243Y-76413D02*
X104243Y-75813D01*
X104471Y-75813D01*
X104529Y-75841D01*
X104557Y-75870D01*
X104586Y-75927D01*
X104586Y-76013D01*
X104557Y-76070D01*
X104529Y-76099D01*
X104471Y-76127D01*
X104243Y-76127D01*
X105071Y-76384D02*
X105014Y-76413D01*
X104900Y-76413D01*
X104843Y-76384D01*
X104814Y-76327D01*
X104814Y-76099D01*
X104843Y-76041D01*
X104900Y-76013D01*
X105014Y-76013D01*
X105071Y-76041D01*
X105100Y-76099D01*
X105100Y-76156D01*
X104814Y-76213D01*
X105300Y-76013D02*
X105443Y-76413D01*
X105585Y-76013D01*
X105814Y-76356D02*
X105842Y-76384D01*
X105814Y-76413D01*
X105785Y-76384D01*
X105814Y-76356D01*
X105814Y-76413D01*
X105814Y-76041D02*
X105842Y-76070D01*
X105814Y-76099D01*
X105785Y-76070D01*
X105814Y-76041D01*
X105814Y-76099D01*
X106671Y-75813D02*
X106728Y-75813D01*
X106785Y-75841D01*
X106814Y-75870D01*
X106843Y-75927D01*
X106871Y-76041D01*
X106871Y-76184D01*
X106843Y-76299D01*
X106814Y-76356D01*
X106785Y-76384D01*
X106728Y-76413D01*
X106671Y-76413D01*
X106614Y-76384D01*
X106585Y-76356D01*
X106557Y-76299D01*
X106528Y-76184D01*
X106528Y-76041D01*
X106557Y-75927D01*
X106585Y-75870D01*
X106614Y-75841D01*
X106671Y-75813D01*
X107442Y-76413D02*
X107099Y-76413D01*
X107271Y-76413D02*
X107271Y-75813D01*
X107214Y-75899D01*
X107156Y-75956D01*
X107099Y-75984D01*
G54D10*
X71014Y-76384D02*
X71100Y-76413D01*
X71243Y-76413D01*
X71300Y-76384D01*
X71329Y-76356D01*
X71357Y-76299D01*
X71357Y-76241D01*
X71329Y-76184D01*
X71300Y-76156D01*
X71243Y-76127D01*
X71129Y-76099D01*
X71071Y-76070D01*
X71043Y-76041D01*
X71014Y-75984D01*
X71014Y-75927D01*
X71043Y-75870D01*
X71071Y-75841D01*
X71129Y-75813D01*
X71271Y-75813D01*
X71357Y-75841D01*
X71614Y-76413D02*
X71614Y-76013D01*
X71614Y-75813D02*
X71585Y-75841D01*
X71614Y-75870D01*
X71642Y-75841D01*
X71614Y-75813D01*
X71614Y-75870D01*
X71843Y-76013D02*
X72157Y-76013D01*
X71843Y-76413D01*
X72157Y-76413D01*
X72614Y-76384D02*
X72557Y-76413D01*
X72443Y-76413D01*
X72386Y-76384D01*
X72357Y-76327D01*
X72357Y-76099D01*
X72386Y-76041D01*
X72443Y-76013D01*
X72557Y-76013D01*
X72614Y-76041D01*
X72643Y-76099D01*
X72643Y-76156D01*
X72357Y-76213D01*
X72900Y-76356D02*
X72928Y-76384D01*
X72900Y-76413D01*
X72871Y-76384D01*
X72900Y-76356D01*
X72900Y-76413D01*
X72900Y-76041D02*
X72928Y-76070D01*
X72900Y-76099D01*
X72871Y-76070D01*
X72900Y-76041D01*
X72900Y-76099D01*
X73614Y-76241D02*
X73900Y-76241D01*
X73557Y-76413D02*
X73757Y-75813D01*
X73957Y-76413D01*
X74414Y-76013D02*
X74414Y-76413D01*
X74271Y-75784D02*
X74128Y-76213D01*
X74500Y-76213D01*
X104243Y-77613D02*
X104243Y-77013D01*
X104786Y-77613D02*
X104786Y-77013D01*
X104786Y-77584D02*
X104729Y-77613D01*
X104615Y-77613D01*
X104557Y-77584D01*
X104529Y-77556D01*
X104500Y-77499D01*
X104500Y-77327D01*
X104529Y-77270D01*
X104557Y-77241D01*
X104615Y-77213D01*
X104729Y-77213D01*
X104786Y-77241D01*
X105072Y-77556D02*
X105100Y-77584D01*
X105072Y-77613D01*
X105043Y-77584D01*
X105072Y-77556D01*
X105072Y-77613D01*
X105072Y-77241D02*
X105100Y-77270D01*
X105072Y-77299D01*
X105043Y-77270D01*
X105072Y-77241D01*
X105072Y-77299D01*
X106129Y-77613D02*
X105786Y-77613D01*
X105958Y-77613D02*
X105958Y-77013D01*
X105901Y-77099D01*
X105843Y-77156D01*
X105786Y-77184D01*
X106814Y-76984D02*
X106300Y-77756D01*
X107329Y-77613D02*
X106986Y-77613D01*
X107158Y-77613D02*
X107158Y-77013D01*
X107101Y-77099D01*
X107043Y-77156D01*
X106986Y-77184D01*
G54D11*
X70957Y-74613D02*
X71300Y-74613D01*
X71129Y-75213D02*
X71129Y-74613D01*
X71500Y-75213D02*
X71500Y-74813D01*
X71500Y-74613D02*
X71471Y-74641D01*
X71500Y-74670D01*
X71528Y-74641D01*
X71500Y-74613D01*
X71500Y-74670D01*
X71700Y-74813D02*
X71929Y-74813D01*
X71786Y-74613D02*
X71786Y-75127D01*
X71814Y-75184D01*
X71872Y-75213D01*
X71929Y-75213D01*
X72215Y-75213D02*
X72157Y-75184D01*
X72129Y-75127D01*
X72129Y-74613D01*
X72671Y-75184D02*
X72614Y-75213D01*
X72500Y-75213D01*
X72443Y-75184D01*
X72414Y-75127D01*
X72414Y-74899D01*
X72443Y-74841D01*
X72500Y-74813D01*
X72614Y-74813D01*
X72671Y-74841D01*
X72700Y-74899D01*
X72700Y-74956D01*
X72414Y-75013D01*
X72957Y-75156D02*
X72985Y-75184D01*
X72957Y-75213D01*
X72928Y-75184D01*
X72957Y-75156D01*
X72957Y-75213D01*
X72957Y-74841D02*
X72985Y-74870D01*
X72957Y-74899D01*
X72928Y-74870D01*
X72957Y-74841D01*
X72957Y-74899D01*
X73900Y-74899D02*
X73986Y-74927D01*
X74014Y-74956D01*
X74043Y-75013D01*
X74043Y-75099D01*
X74014Y-75156D01*
X73986Y-75184D01*
X73928Y-75213D01*
X73700Y-75213D01*
X73700Y-74613D01*
X73900Y-74613D01*
X73957Y-74641D01*
X73986Y-74670D01*
X74014Y-74727D01*
X74014Y-74784D01*
X73986Y-74841D01*
X73957Y-74870D01*
X73900Y-74899D01*
X73700Y-74899D01*
X74528Y-75184D02*
X74471Y-75213D01*
X74357Y-75213D01*
X74300Y-75184D01*
X74271Y-75127D01*
X74271Y-74899D01*
X74300Y-74841D01*
X74357Y-74813D01*
X74471Y-74813D01*
X74528Y-74841D01*
X74557Y-74899D01*
X74557Y-74956D01*
X74271Y-75013D01*
X75071Y-75213D02*
X75071Y-74899D01*
X75042Y-74841D01*
X74985Y-74813D01*
X74871Y-74813D01*
X74814Y-74841D01*
X75071Y-75184D02*
X75014Y-75213D01*
X74871Y-75213D01*
X74814Y-75184D01*
X74785Y-75127D01*
X74785Y-75070D01*
X74814Y-75013D01*
X74871Y-74984D01*
X75014Y-74984D01*
X75071Y-74956D01*
X75614Y-74813D02*
X75614Y-75299D01*
X75585Y-75356D01*
X75557Y-75384D01*
X75500Y-75413D01*
X75414Y-75413D01*
X75357Y-75384D01*
X75614Y-75184D02*
X75557Y-75213D01*
X75443Y-75213D01*
X75385Y-75184D01*
X75357Y-75156D01*
X75328Y-75099D01*
X75328Y-74927D01*
X75357Y-74870D01*
X75385Y-74841D01*
X75443Y-74813D01*
X75557Y-74813D01*
X75614Y-74841D01*
X75986Y-75213D02*
X75928Y-75184D01*
X75900Y-75127D01*
X75900Y-74613D01*
X76442Y-75184D02*
X76385Y-75213D01*
X76271Y-75213D01*
X76214Y-75184D01*
X76185Y-75127D01*
X76185Y-74899D01*
X76214Y-74841D01*
X76271Y-74813D01*
X76385Y-74813D01*
X76442Y-74841D01*
X76471Y-74899D01*
X76471Y-74956D01*
X76185Y-75013D01*
X76728Y-75213D02*
X76728Y-74613D01*
X76728Y-74841D02*
X76785Y-74813D01*
X76899Y-74813D01*
X76956Y-74841D01*
X76985Y-74870D01*
X77014Y-74927D01*
X77014Y-75099D01*
X76985Y-75156D01*
X76956Y-75184D01*
X76899Y-75213D01*
X76785Y-75213D01*
X76728Y-75184D01*
X77357Y-75213D02*
X77299Y-75184D01*
X77271Y-75156D01*
X77242Y-75099D01*
X77242Y-74927D01*
X77271Y-74870D01*
X77299Y-74841D01*
X77357Y-74813D01*
X77442Y-74813D01*
X77499Y-74841D01*
X77528Y-74870D01*
X77557Y-74927D01*
X77557Y-75099D01*
X77528Y-75156D01*
X77499Y-75184D01*
X77442Y-75213D01*
X77357Y-75213D01*
X77814Y-74813D02*
X77814Y-75213D01*
X77814Y-74870D02*
X77842Y-74841D01*
X77900Y-74813D01*
X77985Y-74813D01*
X78042Y-74841D01*
X78071Y-74899D01*
X78071Y-75213D01*
X78585Y-75184D02*
X78528Y-75213D01*
X78414Y-75213D01*
X78357Y-75184D01*
X78328Y-75127D01*
X78328Y-74899D01*
X78357Y-74841D01*
X78414Y-74813D01*
X78528Y-74813D01*
X78585Y-74841D01*
X78614Y-74899D01*
X78614Y-74956D01*
X78328Y-75013D01*
X78871Y-74984D02*
X79328Y-74984D01*
X79585Y-75184D02*
X79671Y-75213D01*
X79814Y-75213D01*
X79871Y-75184D01*
X79900Y-75156D01*
X79928Y-75099D01*
X79928Y-75041D01*
X79900Y-74984D01*
X79871Y-74956D01*
X79814Y-74927D01*
X79700Y-74899D01*
X79642Y-74870D01*
X79614Y-74841D01*
X79585Y-74784D01*
X79585Y-74727D01*
X79614Y-74670D01*
X79642Y-74641D01*
X79700Y-74613D01*
X79842Y-74613D01*
X79928Y-74641D01*
X80185Y-74813D02*
X80185Y-75413D01*
X80185Y-74841D02*
X80242Y-74813D01*
X80356Y-74813D01*
X80413Y-74841D01*
X80442Y-74870D01*
X80471Y-74927D01*
X80471Y-75099D01*
X80442Y-75156D01*
X80413Y-75184D01*
X80356Y-75213D01*
X80242Y-75213D01*
X80185Y-75184D01*
X80985Y-75213D02*
X80985Y-74899D01*
X80956Y-74841D01*
X80899Y-74813D01*
X80785Y-74813D01*
X80728Y-74841D01*
X80985Y-75184D02*
X80928Y-75213D01*
X80785Y-75213D01*
X80728Y-75184D01*
X80699Y-75127D01*
X80699Y-75070D01*
X80728Y-75013D01*
X80785Y-74984D01*
X80928Y-74984D01*
X80985Y-74956D01*
X81271Y-75213D02*
X81271Y-74813D01*
X81271Y-74927D02*
X81299Y-74870D01*
X81328Y-74841D01*
X81385Y-74813D01*
X81442Y-74813D01*
X81556Y-74813D02*
X81785Y-74813D01*
X81642Y-74613D02*
X81642Y-75127D01*
X81670Y-75184D01*
X81728Y-75213D01*
X81785Y-75213D01*
X82242Y-75213D02*
X82242Y-74899D01*
X82213Y-74841D01*
X82156Y-74813D01*
X82042Y-74813D01*
X81985Y-74841D01*
X82242Y-75184D02*
X82185Y-75213D01*
X82042Y-75213D01*
X81985Y-75184D01*
X81956Y-75127D01*
X81956Y-75070D01*
X81985Y-75013D01*
X82042Y-74984D01*
X82185Y-74984D01*
X82242Y-74956D01*
X82528Y-74813D02*
X82528Y-75213D01*
X82528Y-74870D02*
X82556Y-74841D01*
X82614Y-74813D01*
X82699Y-74813D01*
X82756Y-74841D01*
X82785Y-74899D01*
X82785Y-75213D01*
X83328Y-74613D02*
X83214Y-74613D01*
X83157Y-74641D01*
X83128Y-74670D01*
X83071Y-74756D01*
X83042Y-74870D01*
X83042Y-75099D01*
X83071Y-75156D01*
X83099Y-75184D01*
X83157Y-75213D01*
X83271Y-75213D01*
X83328Y-75184D01*
X83357Y-75156D01*
X83385Y-75099D01*
X83385Y-74956D01*
X83357Y-74899D01*
X83328Y-74870D01*
X83271Y-74841D01*
X83157Y-74841D01*
X83099Y-74870D01*
X83071Y-74899D01*
X83042Y-74956D01*
X83642Y-74984D02*
X84099Y-74984D01*
X84728Y-75156D02*
X84699Y-75184D01*
X84613Y-75213D01*
X84556Y-75213D01*
X84471Y-75184D01*
X84413Y-75127D01*
X84385Y-75070D01*
X84356Y-74956D01*
X84356Y-74870D01*
X84385Y-74756D01*
X84413Y-74699D01*
X84471Y-74641D01*
X84556Y-74613D01*
X84613Y-74613D01*
X84699Y-74641D01*
X84728Y-74670D01*
X85242Y-75213D02*
X85242Y-74899D01*
X85213Y-74841D01*
X85156Y-74813D01*
X85042Y-74813D01*
X84985Y-74841D01*
X85242Y-75184D02*
X85185Y-75213D01*
X85042Y-75213D01*
X84985Y-75184D01*
X84956Y-75127D01*
X84956Y-75070D01*
X84985Y-75013D01*
X85042Y-74984D01*
X85185Y-74984D01*
X85242Y-74956D01*
X85528Y-74813D02*
X85528Y-75413D01*
X85528Y-74841D02*
X85585Y-74813D01*
X85699Y-74813D01*
X85756Y-74841D01*
X85785Y-74870D01*
X85814Y-74927D01*
X85814Y-75099D01*
X85785Y-75156D01*
X85756Y-75184D01*
X85699Y-75213D01*
X85585Y-75213D01*
X85528Y-75184D01*
X86299Y-75184D02*
X86242Y-75213D01*
X86128Y-75213D01*
X86071Y-75184D01*
X86042Y-75127D01*
X86042Y-74899D01*
X86071Y-74841D01*
X86128Y-74813D01*
X86242Y-74813D01*
X86299Y-74841D01*
X86328Y-74899D01*
X86328Y-74956D01*
X86042Y-75013D01*
G54D10*
X71243Y-72499D02*
X71043Y-72499D01*
X71043Y-72813D02*
X71043Y-72213D01*
X71329Y-72213D01*
X71557Y-72813D02*
X71557Y-72413D01*
X71557Y-72213D02*
X71528Y-72241D01*
X71557Y-72270D01*
X71585Y-72241D01*
X71557Y-72213D01*
X71557Y-72270D01*
X71929Y-72813D02*
X71871Y-72784D01*
X71843Y-72727D01*
X71843Y-72213D01*
X72385Y-72784D02*
X72328Y-72813D01*
X72214Y-72813D01*
X72157Y-72784D01*
X72128Y-72727D01*
X72128Y-72499D01*
X72157Y-72441D01*
X72214Y-72413D01*
X72328Y-72413D01*
X72385Y-72441D01*
X72414Y-72499D01*
X72414Y-72556D01*
X72128Y-72613D01*
X72671Y-72756D02*
X72699Y-72784D01*
X72671Y-72813D01*
X72642Y-72784D01*
X72671Y-72756D01*
X72671Y-72813D01*
X72671Y-72441D02*
X72699Y-72470D01*
X72671Y-72499D01*
X72642Y-72470D01*
X72671Y-72441D01*
X72671Y-72499D01*
X73414Y-72813D02*
X73414Y-72213D01*
X73414Y-72441D02*
X73471Y-72413D01*
X73585Y-72413D01*
X73642Y-72441D01*
X73671Y-72470D01*
X73700Y-72527D01*
X73700Y-72699D01*
X73671Y-72756D01*
X73642Y-72784D01*
X73585Y-72813D01*
X73471Y-72813D01*
X73414Y-72784D01*
X74043Y-72813D02*
X73985Y-72784D01*
X73957Y-72756D01*
X73928Y-72699D01*
X73928Y-72527D01*
X73957Y-72470D01*
X73985Y-72441D01*
X74043Y-72413D01*
X74128Y-72413D01*
X74185Y-72441D01*
X74214Y-72470D01*
X74243Y-72527D01*
X74243Y-72699D01*
X74214Y-72756D01*
X74185Y-72784D01*
X74128Y-72813D01*
X74043Y-72813D01*
X74500Y-72413D02*
X74500Y-72813D01*
X74500Y-72470D02*
X74528Y-72441D01*
X74586Y-72413D01*
X74671Y-72413D01*
X74728Y-72441D01*
X74757Y-72499D01*
X74757Y-72813D01*
X75271Y-72784D02*
X75214Y-72813D01*
X75100Y-72813D01*
X75043Y-72784D01*
X75014Y-72727D01*
X75014Y-72499D01*
X75043Y-72441D01*
X75100Y-72413D01*
X75214Y-72413D01*
X75271Y-72441D01*
X75300Y-72499D01*
X75300Y-72556D01*
X75014Y-72613D01*
X75471Y-72413D02*
X75700Y-72413D01*
X75557Y-72813D02*
X75557Y-72299D01*
X75585Y-72241D01*
X75643Y-72213D01*
X75700Y-72213D01*
X75900Y-72413D02*
X75900Y-73013D01*
X75900Y-72441D02*
X75957Y-72413D01*
X76071Y-72413D01*
X76128Y-72441D01*
X76157Y-72470D01*
X76186Y-72527D01*
X76186Y-72699D01*
X76157Y-72756D01*
X76128Y-72784D01*
X76071Y-72813D01*
X75957Y-72813D01*
X75900Y-72784D01*
X76700Y-72413D02*
X76700Y-72899D01*
X76671Y-72956D01*
X76643Y-72984D01*
X76586Y-73013D01*
X76500Y-73013D01*
X76443Y-72984D01*
X76700Y-72784D02*
X76643Y-72813D01*
X76529Y-72813D01*
X76471Y-72784D01*
X76443Y-72756D01*
X76414Y-72699D01*
X76414Y-72527D01*
X76443Y-72470D01*
X76471Y-72441D01*
X76529Y-72413D01*
X76643Y-72413D01*
X76700Y-72441D01*
X77243Y-72813D02*
X77243Y-72499D01*
X77214Y-72441D01*
X77157Y-72413D01*
X77043Y-72413D01*
X76986Y-72441D01*
X77243Y-72784D02*
X77186Y-72813D01*
X77043Y-72813D01*
X76986Y-72784D01*
X76957Y-72727D01*
X76957Y-72670D01*
X76986Y-72613D01*
X77043Y-72584D01*
X77186Y-72584D01*
X77243Y-72556D01*
X77529Y-72756D02*
X77557Y-72784D01*
X77529Y-72813D01*
X77500Y-72784D01*
X77529Y-72756D01*
X77529Y-72813D01*
X77815Y-72813D02*
X77815Y-72213D01*
X77815Y-72441D02*
X77872Y-72413D01*
X77986Y-72413D01*
X78043Y-72441D01*
X78072Y-72470D01*
X78101Y-72527D01*
X78101Y-72699D01*
X78072Y-72756D01*
X78043Y-72784D01*
X77986Y-72813D01*
X77872Y-72813D01*
X77815Y-72784D01*
X78358Y-72813D02*
X78358Y-72413D01*
X78358Y-72527D02*
X78386Y-72470D01*
X78415Y-72441D01*
X78472Y-72413D01*
X78529Y-72413D01*
X78986Y-72813D02*
X78986Y-72213D01*
X78986Y-72784D02*
X78929Y-72813D01*
X78815Y-72813D01*
X78757Y-72784D01*
X78729Y-72756D01*
X78700Y-72699D01*
X78700Y-72527D01*
X78729Y-72470D01*
X78757Y-72441D01*
X78815Y-72413D01*
X78929Y-72413D01*
X78986Y-72441D01*
X71014Y-73984D02*
X71100Y-74013D01*
X71243Y-74013D01*
X71300Y-73984D01*
X71329Y-73956D01*
X71357Y-73899D01*
X71357Y-73841D01*
X71329Y-73784D01*
X71300Y-73756D01*
X71243Y-73727D01*
X71129Y-73699D01*
X71071Y-73670D01*
X71043Y-73641D01*
X71014Y-73584D01*
X71014Y-73527D01*
X71043Y-73470D01*
X71071Y-73441D01*
X71129Y-73413D01*
X71271Y-73413D01*
X71357Y-73441D01*
X71614Y-74013D02*
X71614Y-73413D01*
X71871Y-74013D02*
X71871Y-73699D01*
X71842Y-73641D01*
X71785Y-73613D01*
X71700Y-73613D01*
X71642Y-73641D01*
X71614Y-73670D01*
X72385Y-73984D02*
X72328Y-74013D01*
X72214Y-74013D01*
X72157Y-73984D01*
X72128Y-73927D01*
X72128Y-73699D01*
X72157Y-73641D01*
X72214Y-73613D01*
X72328Y-73613D01*
X72385Y-73641D01*
X72414Y-73699D01*
X72414Y-73756D01*
X72128Y-73813D01*
X72899Y-73984D02*
X72842Y-74013D01*
X72728Y-74013D01*
X72671Y-73984D01*
X72642Y-73927D01*
X72642Y-73699D01*
X72671Y-73641D01*
X72728Y-73613D01*
X72842Y-73613D01*
X72899Y-73641D01*
X72928Y-73699D01*
X72928Y-73756D01*
X72642Y-73813D01*
X73099Y-73613D02*
X73328Y-73613D01*
X73185Y-73413D02*
X73185Y-73927D01*
X73213Y-73984D01*
X73271Y-74013D01*
X73328Y-74013D01*
X73528Y-73956D02*
X73556Y-73984D01*
X73528Y-74013D01*
X73499Y-73984D01*
X73528Y-73956D01*
X73528Y-74013D01*
X73528Y-73641D02*
X73556Y-73670D01*
X73528Y-73699D01*
X73499Y-73670D01*
X73528Y-73641D01*
X73528Y-73699D01*
X74585Y-74013D02*
X74242Y-74013D01*
X74414Y-74013D02*
X74414Y-73413D01*
X74357Y-73499D01*
X74299Y-73556D01*
X74242Y-73584D01*
X75270Y-73384D02*
X74756Y-74156D01*
X75785Y-74013D02*
X75442Y-74013D01*
X75614Y-74013D02*
X75614Y-73413D01*
X75557Y-73499D01*
X75499Y-73556D01*
X75442Y-73584D01*
X71043Y-70413D02*
X71043Y-69813D01*
X71243Y-70241D01*
X71443Y-69813D01*
X71443Y-70413D01*
X71729Y-70413D02*
X71729Y-70013D01*
X71729Y-69813D02*
X71700Y-69841D01*
X71729Y-69870D01*
X71757Y-69841D01*
X71729Y-69813D01*
X71729Y-69870D01*
X72272Y-70384D02*
X72215Y-70413D01*
X72101Y-70413D01*
X72043Y-70384D01*
X72015Y-70356D01*
X71986Y-70299D01*
X71986Y-70127D01*
X72015Y-70070D01*
X72043Y-70041D01*
X72101Y-70013D01*
X72215Y-70013D01*
X72272Y-70041D01*
X72529Y-70413D02*
X72529Y-69813D01*
X72786Y-70413D02*
X72786Y-70099D01*
X72757Y-70041D01*
X72700Y-70013D01*
X72615Y-70013D01*
X72557Y-70041D01*
X72529Y-70070D01*
X73329Y-70413D02*
X73329Y-70099D01*
X73300Y-70041D01*
X73243Y-70013D01*
X73129Y-70013D01*
X73072Y-70041D01*
X73329Y-70384D02*
X73272Y-70413D01*
X73129Y-70413D01*
X73072Y-70384D01*
X73043Y-70327D01*
X73043Y-70270D01*
X73072Y-70213D01*
X73129Y-70184D01*
X73272Y-70184D01*
X73329Y-70156D01*
X73843Y-70384D02*
X73786Y-70413D01*
X73672Y-70413D01*
X73615Y-70384D01*
X73586Y-70327D01*
X73586Y-70099D01*
X73615Y-70041D01*
X73672Y-70013D01*
X73786Y-70013D01*
X73843Y-70041D01*
X73872Y-70099D01*
X73872Y-70156D01*
X73586Y-70213D01*
X74215Y-70413D02*
X74157Y-70384D01*
X74129Y-70327D01*
X74129Y-69813D01*
X74900Y-70413D02*
X74900Y-69813D01*
X75100Y-70241D01*
X75300Y-69813D01*
X75300Y-70413D01*
X75843Y-70413D02*
X75843Y-70099D01*
X75814Y-70041D01*
X75757Y-70013D01*
X75643Y-70013D01*
X75586Y-70041D01*
X75843Y-70384D02*
X75786Y-70413D01*
X75643Y-70413D01*
X75586Y-70384D01*
X75557Y-70327D01*
X75557Y-70270D01*
X75586Y-70213D01*
X75643Y-70184D01*
X75786Y-70184D01*
X75843Y-70156D01*
X76386Y-70013D02*
X76386Y-70499D01*
X76357Y-70556D01*
X76329Y-70584D01*
X76272Y-70613D01*
X76186Y-70613D01*
X76129Y-70584D01*
X76386Y-70384D02*
X76329Y-70413D01*
X76215Y-70413D01*
X76157Y-70384D01*
X76129Y-70356D01*
X76100Y-70299D01*
X76100Y-70127D01*
X76129Y-70070D01*
X76157Y-70041D01*
X76215Y-70013D01*
X76329Y-70013D01*
X76386Y-70041D01*
X76615Y-70013D02*
X76758Y-70413D01*
X76900Y-70013D02*
X76758Y-70413D01*
X76700Y-70556D01*
X76672Y-70584D01*
X76615Y-70613D01*
X77386Y-70413D02*
X77386Y-70099D01*
X77357Y-70041D01*
X77300Y-70013D01*
X77186Y-70013D01*
X77129Y-70041D01*
X77386Y-70384D02*
X77329Y-70413D01*
X77186Y-70413D01*
X77129Y-70384D01*
X77100Y-70327D01*
X77100Y-70270D01*
X77129Y-70213D01*
X77186Y-70184D01*
X77329Y-70184D01*
X77386Y-70156D01*
X77672Y-70413D02*
X77672Y-70013D01*
X77672Y-70127D02*
X77700Y-70070D01*
X77729Y-70041D01*
X77786Y-70013D01*
X77843Y-70013D01*
X70300Y-69570D02*
X70300Y-77970D01*
X70300Y-71970D02*
X112300Y-71970D01*
X70300Y-69570D02*
X112300Y-69570D01*
X70300Y-74370D02*
X112300Y-74370D01*
X103500Y-75570D02*
X103500Y-77970D01*
X70300Y-76770D02*
X112300Y-76770D01*
X70300Y-75570D02*
X112300Y-75570D01*
X76900Y-75570D02*
X76900Y-76770D01*
G54D12*
X56791Y-31378D02*
X56791Y-29921D01*
X60295Y-29921D02*
X56791Y-29921D01*
X65413Y-30295D02*
X65413Y-29921D01*
X59823Y-33740D02*
X56791Y-33740D01*
X65413Y-31398D02*
X65413Y-30295D01*
X60295Y-33740D02*
X59823Y-33740D01*
X65413Y-29921D02*
X60295Y-29921D01*
X56791Y-31379D02*
X56791Y-33741D01*
X60295Y-33740D02*
X65413Y-33740D01*
X65413Y-33740D02*
X65413Y-31378D01*
G54D13*
X65370Y-33487D02*
X65366Y-33518D01*
X65357Y-33547D01*
X65343Y-33575D01*
X65323Y-33599D01*
X65299Y-33619D01*
X65272Y-33634D01*
X65242Y-33643D01*
X65211Y-33646D01*
X65181Y-33644D01*
X65151Y-33635D01*
X65123Y-33620D01*
X65099Y-33601D01*
X65078Y-33577D01*
X65063Y-33550D01*
X65054Y-33520D01*
X65051Y-33489D01*
X65053Y-33459D01*
X65062Y-33429D01*
X65076Y-33401D01*
X65095Y-33376D01*
X65119Y-33356D01*
X65146Y-33341D01*
X65176Y-33331D01*
X65207Y-33328D01*
X65237Y-33330D01*
X65267Y-33338D01*
X65295Y-33352D01*
X65320Y-33372D01*
X65340Y-33395D01*
X65356Y-33422D01*
X65366Y-33452D01*
X65369Y-33483D01*
X65370Y-33487D01*
G54D14*
X66271Y-43839D02*
X67826Y-43839D01*
X67924Y-43839D02*
X67924Y-42186D01*
X67826Y-42186D02*
X66606Y-42186D01*
X66606Y-42166D02*
X66271Y-42520D01*
X66271Y-42520D02*
X66271Y-43839D01*
G54D13*
X57997Y-41335D02*
X57097Y-41335D01*
X57097Y-41335D02*
X57097Y-40685D01*
X57997Y-39985D02*
X57997Y-39335D01*
X57997Y-39335D02*
X57097Y-39335D01*
X57097Y-39335D02*
X57097Y-39985D01*
X57997Y-40685D02*
X57997Y-41335D01*
X66890Y-36600D02*
X66890Y-35700D01*
X66890Y-35700D02*
X67540Y-35700D01*
X68240Y-36600D02*
X68890Y-36600D01*
X68890Y-36600D02*
X68890Y-35700D01*
X68890Y-35700D02*
X68240Y-35700D01*
X67540Y-36600D02*
X66890Y-36600D01*
X66874Y-38623D02*
X66874Y-37723D01*
X66874Y-37723D02*
X67524Y-37723D01*
X68224Y-38623D02*
X68874Y-38623D01*
X68874Y-38623D02*
X68874Y-37723D01*
X68874Y-37723D02*
X68224Y-37723D01*
X67524Y-38623D02*
X66874Y-38623D01*
X66846Y-39647D02*
X66846Y-38747D01*
X66846Y-38747D02*
X67496Y-38747D01*
X68196Y-39647D02*
X68846Y-39647D01*
X68846Y-39647D02*
X68846Y-38747D01*
X68846Y-38747D02*
X68196Y-38747D01*
X67496Y-39647D02*
X66846Y-39647D01*
X62004Y-40471D02*
X62004Y-41371D01*
X62004Y-41371D02*
X61354Y-41371D01*
X60654Y-40471D02*
X60004Y-40471D01*
X60004Y-40471D02*
X60004Y-41371D01*
X60004Y-41371D02*
X60654Y-41371D01*
X61354Y-40471D02*
X62004Y-40471D01*
X66874Y-37604D02*
X66874Y-36704D01*
X66874Y-36704D02*
X67524Y-36704D01*
X68224Y-37604D02*
X68874Y-37604D01*
X68874Y-37604D02*
X68874Y-36704D01*
X68874Y-36704D02*
X68224Y-36704D01*
X67524Y-37604D02*
X66874Y-37604D01*
X56296Y-42108D02*
X55396Y-42108D01*
X55396Y-42108D02*
X55396Y-42608D01*
X55396Y-42608D02*
X56296Y-42608D01*
X56296Y-42608D02*
X56296Y-42108D01*
X56911Y-41478D02*
X56011Y-41478D01*
X56011Y-41478D02*
X56011Y-41978D01*
X56011Y-41978D02*
X56911Y-41978D01*
X56911Y-41978D02*
X56911Y-41478D01*
X66231Y-44545D02*
X67131Y-44545D01*
X67131Y-44545D02*
X67131Y-44045D01*
X67131Y-44045D02*
X66231Y-44045D01*
X66231Y-44045D02*
X66231Y-44545D01*
X65101Y-44541D02*
X66001Y-44541D01*
X66001Y-44541D02*
X66001Y-44041D01*
X66001Y-44041D02*
X65101Y-44041D01*
X65101Y-44041D02*
X65101Y-44541D01*
X66021Y-43400D02*
X65121Y-43400D01*
X65121Y-43400D02*
X65121Y-43900D01*
X65121Y-43900D02*
X66021Y-43900D01*
X66021Y-43900D02*
X66021Y-43400D01*
X56007Y-41348D02*
X56907Y-41348D01*
X56907Y-41348D02*
X56907Y-40848D01*
X56907Y-40848D02*
X56007Y-40848D01*
X56007Y-40848D02*
X56007Y-41348D01*
X70069Y-29310D02*
X70069Y-30210D01*
X70069Y-30210D02*
X70569Y-30210D01*
X70569Y-30210D02*
X70569Y-29310D01*
X70569Y-29310D02*
X70069Y-29310D01*
X62219Y-38085D02*
X63119Y-38085D01*
X63119Y-38085D02*
X63119Y-37585D01*
X63119Y-37585D02*
X62219Y-37585D01*
X62219Y-37585D02*
X62219Y-38085D01*
X55317Y-42643D02*
X55317Y-41743D01*
X55317Y-41743D02*
X54817Y-41743D01*
X54817Y-41743D02*
X54817Y-42643D01*
X54817Y-42643D02*
X55317Y-42643D01*
X68064Y-41506D02*
X67164Y-41506D01*
X67164Y-41506D02*
X67164Y-42006D01*
X67164Y-42006D02*
X68064Y-42006D01*
X68064Y-42006D02*
X68064Y-41506D01*
X66869Y-40844D02*
X67769Y-40844D01*
X67769Y-40844D02*
X67769Y-40344D01*
X67769Y-40344D02*
X66869Y-40344D01*
X66869Y-40344D02*
X66869Y-40844D01*
X71238Y-30222D02*
X71238Y-29322D01*
X71238Y-29322D02*
X70738Y-29322D01*
X70738Y-29322D02*
X70738Y-30222D01*
X70738Y-30222D02*
X71238Y-30222D01*
X68148Y-43235D02*
X68148Y-44135D01*
X68148Y-44135D02*
X68648Y-44135D01*
X68648Y-44135D02*
X68648Y-43235D01*
X68648Y-43235D02*
X68148Y-43235D01*
X70392Y-27810D02*
X70392Y-28710D01*
X70392Y-28710D02*
X70892Y-28710D01*
X70892Y-28710D02*
X70892Y-27810D01*
X70892Y-27810D02*
X70392Y-27810D01*
X69754Y-28097D02*
X69754Y-28997D01*
X69754Y-28997D02*
X70254Y-28997D01*
X70254Y-28997D02*
X70254Y-28097D01*
X70254Y-28097D02*
X69754Y-28097D01*
X63848Y-35585D02*
X63848Y-36485D01*
X63848Y-36485D02*
X64348Y-36485D01*
X64348Y-36485D02*
X64348Y-35585D01*
X64348Y-35585D02*
X63848Y-35585D01*
X66044Y-37250D02*
X65144Y-37250D01*
X65144Y-37250D02*
X65144Y-37750D01*
X65144Y-37750D02*
X66044Y-37750D01*
X66044Y-37750D02*
X66044Y-37250D01*
X66017Y-38494D02*
X65117Y-38494D01*
X65117Y-38494D02*
X65117Y-38994D01*
X65117Y-38994D02*
X66017Y-38994D01*
X66017Y-38994D02*
X66017Y-38494D01*
X66246Y-40440D02*
X66246Y-41340D01*
X66246Y-41340D02*
X66746Y-41340D01*
X66746Y-41340D02*
X66746Y-40440D01*
X66746Y-40440D02*
X66246Y-40440D01*
X58826Y-40990D02*
X59726Y-40990D01*
X59726Y-40990D02*
X59726Y-40490D01*
X59726Y-40490D02*
X58826Y-40490D01*
X58826Y-40490D02*
X58826Y-40990D01*
X62200Y-38904D02*
X63100Y-38904D01*
X63100Y-38904D02*
X63100Y-38404D01*
X63100Y-38404D02*
X62200Y-38404D01*
X62200Y-38404D02*
X62200Y-38904D01*
X66029Y-37880D02*
X65129Y-37880D01*
X65129Y-37880D02*
X65129Y-38380D01*
X65129Y-38380D02*
X66029Y-38380D01*
X66029Y-38380D02*
X66029Y-37880D01*
X66001Y-39081D02*
X65101Y-39081D01*
X65101Y-39081D02*
X65101Y-39581D01*
X65101Y-39581D02*
X66001Y-39581D01*
X66001Y-39581D02*
X66001Y-39081D01*
X58826Y-40396D02*
X59726Y-40396D01*
X59726Y-40396D02*
X59726Y-39896D01*
X59726Y-39896D02*
X58826Y-39896D01*
X58826Y-39896D02*
X58826Y-40396D01*
X62196Y-40352D02*
X63096Y-40352D01*
X63096Y-40352D02*
X63096Y-39852D01*
X63096Y-39852D02*
X62196Y-39852D01*
X62196Y-39852D02*
X62196Y-40352D01*
X66017Y-36652D02*
X65117Y-36652D01*
X65117Y-36652D02*
X65117Y-37152D01*
X65117Y-37152D02*
X66017Y-37152D01*
X66017Y-37152D02*
X66017Y-36652D01*
X65985Y-39738D02*
X65085Y-39738D01*
X65085Y-39738D02*
X65085Y-40238D01*
X65085Y-40238D02*
X65985Y-40238D01*
X65985Y-40238D02*
X65985Y-39738D01*
X66001Y-36006D02*
X65101Y-36006D01*
X65101Y-36006D02*
X65101Y-36506D01*
X65101Y-36506D02*
X66001Y-36506D01*
X66001Y-36506D02*
X66001Y-36006D01*
X64478Y-35578D02*
X64478Y-36478D01*
X64478Y-36478D02*
X64978Y-36478D01*
X64978Y-36478D02*
X64978Y-35578D01*
X64978Y-35578D02*
X64478Y-35578D01*
X58822Y-39809D02*
X59722Y-39809D01*
X59722Y-39809D02*
X59722Y-39309D01*
X59722Y-39309D02*
X58822Y-39309D01*
X58822Y-39309D02*
X58822Y-39809D01*
X62204Y-39699D02*
X63104Y-39699D01*
X63104Y-39699D02*
X63104Y-39199D01*
X63104Y-39199D02*
X62204Y-39199D01*
X62204Y-39199D02*
X62204Y-39699D01*
X65986Y-35812D02*
X65986Y-34912D01*
X65986Y-34912D02*
X65486Y-34912D01*
X65486Y-34912D02*
X65486Y-35812D01*
X65486Y-35812D02*
X65986Y-35812D01*
G54D14*
X60086Y-41559D02*
X60086Y-44472D01*
X60086Y-44472D02*
X62764Y-44472D01*
X62764Y-44472D02*
X62764Y-41559D01*
X62764Y-41559D02*
X60126Y-41559D01*
X66023Y-40519D02*
X63110Y-40519D01*
X63110Y-40519D02*
X63110Y-43197D01*
X63110Y-43197D02*
X66023Y-43197D01*
X66023Y-43197D02*
X66023Y-40559D01*
X67161Y-29768D02*
X67161Y-32681D01*
X67161Y-32681D02*
X69839Y-32681D01*
X69839Y-32681D02*
X69839Y-29768D01*
X69839Y-29768D02*
X67201Y-29768D01*
X66918Y-35559D02*
X69831Y-35559D01*
X69831Y-35559D02*
X69831Y-32881D01*
X69831Y-32881D02*
X66918Y-32881D01*
X66918Y-32881D02*
X66918Y-35519D01*
G54D13*
X66869Y-40238D02*
X67769Y-40238D01*
X67769Y-40238D02*
X67769Y-39738D01*
X67769Y-39738D02*
X66869Y-39738D01*
X66869Y-39738D02*
X66869Y-40238D01*
X55045Y-43615D02*
X55045Y-42715D01*
X55045Y-42715D02*
X54545Y-42715D01*
X54545Y-42715D02*
X54545Y-43615D01*
X54545Y-43615D02*
X55045Y-43615D01*
G54D14*
X59748Y-44496D02*
X59748Y-41583D01*
X59748Y-41583D02*
X57070Y-41583D01*
X57070Y-41583D02*
X57070Y-44496D01*
X57070Y-44496D02*
X59708Y-44496D01*
X69614Y-29532D02*
X69614Y-27977D01*
X69614Y-27879D02*
X67961Y-27879D01*
X67961Y-27977D02*
X67961Y-29197D01*
X67941Y-29197D02*
X68295Y-29532D01*
X68295Y-29532D02*
X69614Y-29532D01*
X56851Y-42779D02*
X55296Y-42779D01*
X55198Y-42779D02*
X55198Y-44432D01*
X55296Y-44432D02*
X56516Y-44432D01*
X56516Y-44452D02*
X56851Y-44098D01*
X56851Y-44098D02*
X56851Y-42779D01*
G54D15*
X56396Y-30619D02*
X56396Y-30858D01*
X56382Y-30886D01*
X56368Y-30900D01*
X56340Y-30914D01*
X56283Y-30914D01*
X56255Y-30900D01*
X56241Y-30886D01*
X56227Y-30858D01*
X56227Y-30619D01*
X55946Y-30619D02*
X56087Y-30619D01*
X56101Y-30759D01*
X56087Y-30745D01*
X56059Y-30731D01*
X55988Y-30731D01*
X55960Y-30745D01*
X55946Y-30759D01*
X55932Y-30787D01*
X55932Y-30858D01*
X55946Y-30886D01*
X55960Y-30900D01*
X55988Y-30914D01*
X56059Y-30914D01*
X56087Y-30900D01*
X56101Y-30886D01*
X55750Y-30619D02*
X55721Y-30619D01*
X55693Y-30633D01*
X55679Y-30647D01*
X55665Y-30675D01*
X55651Y-30731D01*
X55651Y-30802D01*
X55665Y-30858D01*
X55679Y-30886D01*
X55693Y-30900D01*
X55721Y-30914D01*
X55750Y-30914D01*
X55778Y-30900D01*
X55792Y-30886D01*
X55806Y-30858D01*
X55820Y-30802D01*
X55820Y-30731D01*
X55806Y-30675D01*
X55792Y-30647D01*
X55778Y-30633D01*
X55750Y-30619D01*
X55553Y-30619D02*
X55370Y-30619D01*
X55469Y-30731D01*
X55426Y-30731D01*
X55398Y-30745D01*
X55384Y-30759D01*
X55370Y-30787D01*
X55370Y-30858D01*
X55384Y-30886D01*
X55398Y-30900D01*
X55426Y-30914D01*
X55511Y-30914D01*
X55539Y-30900D01*
X55553Y-30886D01*
G54D16*
X70091Y-42025D02*
X70091Y-42248D01*
X70078Y-42274D01*
X70065Y-42288D01*
X70039Y-42301D01*
X69986Y-42301D01*
X69960Y-42288D01*
X69947Y-42274D01*
X69934Y-42248D01*
X69934Y-42025D01*
X69815Y-42051D02*
X69802Y-42038D01*
X69776Y-42025D01*
X69710Y-42025D01*
X69684Y-42038D01*
X69671Y-42051D01*
X69658Y-42077D01*
X69658Y-42104D01*
X69671Y-42143D01*
X69829Y-42301D01*
X69658Y-42301D01*
X69487Y-42025D02*
X69460Y-42025D01*
X69434Y-42038D01*
X69421Y-42051D01*
X69408Y-42077D01*
X69395Y-42130D01*
X69395Y-42196D01*
X69408Y-42248D01*
X69421Y-42274D01*
X69434Y-42288D01*
X69460Y-42301D01*
X69487Y-42301D01*
X69513Y-42288D01*
X69526Y-42274D01*
X69539Y-42248D01*
X69552Y-42196D01*
X69552Y-42130D01*
X69539Y-42077D01*
X69526Y-42051D01*
X69513Y-42038D01*
X69487Y-42025D01*
X69303Y-42025D02*
X69132Y-42025D01*
X69224Y-42130D01*
X69184Y-42130D01*
X69158Y-42143D01*
X69145Y-42156D01*
X69132Y-42182D01*
X69132Y-42248D01*
X69145Y-42274D01*
X69158Y-42288D01*
X69184Y-42301D01*
X69263Y-42301D01*
X69289Y-42288D01*
X69303Y-42274D01*
G54D13*
X57361Y-37176D02*
X57375Y-37162D01*
X57389Y-37119D01*
X57389Y-37090D01*
X57375Y-37047D01*
X57347Y-37019D01*
X57318Y-37004D01*
X57261Y-36990D01*
X57218Y-36990D01*
X57161Y-37004D01*
X57132Y-37019D01*
X57104Y-37047D01*
X57089Y-37090D01*
X57089Y-37119D01*
X57104Y-37162D01*
X57118Y-37176D01*
X57089Y-37276D02*
X57089Y-37476D01*
X57389Y-37347D01*
X57118Y-37576D02*
X57104Y-37590D01*
X57089Y-37619D01*
X57089Y-37690D01*
X57104Y-37719D01*
X57118Y-37733D01*
X57147Y-37748D01*
X57175Y-37748D01*
X57218Y-37733D01*
X57389Y-37562D01*
X57389Y-37748D01*
X57389Y-38034D02*
X57389Y-37862D01*
X57389Y-37948D02*
X57089Y-37948D01*
X57132Y-37919D01*
X57161Y-37891D01*
X57175Y-37862D01*
X69774Y-36266D02*
X69787Y-36280D01*
X69826Y-36293D01*
X69852Y-36293D01*
X69892Y-36280D01*
X69918Y-36253D01*
X69931Y-36227D01*
X69944Y-36174D01*
X69944Y-36135D01*
X69931Y-36082D01*
X69918Y-36056D01*
X69892Y-36030D01*
X69852Y-36017D01*
X69826Y-36017D01*
X69787Y-36030D01*
X69774Y-36043D01*
X69682Y-36017D02*
X69498Y-36017D01*
X69616Y-36293D01*
X69405Y-36043D02*
X69392Y-36030D01*
X69366Y-36017D01*
X69300Y-36017D01*
X69274Y-36030D01*
X69261Y-36043D01*
X69248Y-36069D01*
X69248Y-36096D01*
X69261Y-36135D01*
X69419Y-36293D01*
X69248Y-36293D01*
X69142Y-36043D02*
X69129Y-36030D01*
X69103Y-36017D01*
X69037Y-36017D01*
X69011Y-36030D01*
X68998Y-36043D01*
X68985Y-36069D01*
X68985Y-36096D01*
X68998Y-36135D01*
X69156Y-36293D01*
X68985Y-36293D01*
X69758Y-38274D02*
X69771Y-38288D01*
X69810Y-38301D01*
X69836Y-38301D01*
X69876Y-38288D01*
X69902Y-38261D01*
X69915Y-38235D01*
X69928Y-38182D01*
X69928Y-38143D01*
X69915Y-38090D01*
X69902Y-38064D01*
X69876Y-38038D01*
X69836Y-38025D01*
X69810Y-38025D01*
X69771Y-38038D01*
X69758Y-38051D01*
X69666Y-38025D02*
X69482Y-38025D01*
X69600Y-38301D01*
X69389Y-38051D02*
X69376Y-38038D01*
X69350Y-38025D01*
X69284Y-38025D01*
X69258Y-38038D01*
X69245Y-38051D01*
X69232Y-38077D01*
X69232Y-38104D01*
X69245Y-38143D01*
X69403Y-38301D01*
X69232Y-38301D01*
X69140Y-38025D02*
X68969Y-38025D01*
X69061Y-38130D01*
X69021Y-38130D01*
X68995Y-38143D01*
X68982Y-38156D01*
X68969Y-38182D01*
X68969Y-38248D01*
X68982Y-38274D01*
X68995Y-38288D01*
X69021Y-38301D01*
X69100Y-38301D01*
X69126Y-38288D01*
X69140Y-38274D01*
X69758Y-39266D02*
X69771Y-39280D01*
X69810Y-39293D01*
X69836Y-39293D01*
X69876Y-39280D01*
X69902Y-39253D01*
X69915Y-39227D01*
X69928Y-39174D01*
X69928Y-39135D01*
X69915Y-39082D01*
X69902Y-39056D01*
X69876Y-39030D01*
X69836Y-39017D01*
X69810Y-39017D01*
X69771Y-39030D01*
X69758Y-39043D01*
X69666Y-39017D02*
X69482Y-39017D01*
X69600Y-39293D01*
X69232Y-39293D02*
X69389Y-39293D01*
X69311Y-39293D02*
X69311Y-39017D01*
X69337Y-39056D01*
X69363Y-39082D01*
X69389Y-39096D01*
X69100Y-39293D02*
X69048Y-39293D01*
X69021Y-39280D01*
X69008Y-39266D01*
X68982Y-39227D01*
X68969Y-39174D01*
X68969Y-39069D01*
X68982Y-39043D01*
X68995Y-39030D01*
X69021Y-39017D01*
X69074Y-39017D01*
X69100Y-39030D01*
X69113Y-39043D01*
X69126Y-39069D01*
X69126Y-39135D01*
X69113Y-39161D01*
X69100Y-39174D01*
X69074Y-39188D01*
X69021Y-39188D01*
X68995Y-39174D01*
X68982Y-39161D01*
X68969Y-39135D01*
X61305Y-40235D02*
X61319Y-40249D01*
X61362Y-40263D01*
X61391Y-40263D01*
X61434Y-40249D01*
X61462Y-40221D01*
X61477Y-40192D01*
X61491Y-40135D01*
X61491Y-40092D01*
X61477Y-40035D01*
X61462Y-40006D01*
X61434Y-39978D01*
X61391Y-39963D01*
X61362Y-39963D01*
X61319Y-39978D01*
X61305Y-39992D01*
X61205Y-39963D02*
X61005Y-39963D01*
X61134Y-40263D01*
X60905Y-39992D02*
X60891Y-39978D01*
X60862Y-39963D01*
X60791Y-39963D01*
X60762Y-39978D01*
X60748Y-39992D01*
X60733Y-40021D01*
X60733Y-40049D01*
X60748Y-40092D01*
X60919Y-40263D01*
X60733Y-40263D01*
X60547Y-39963D02*
X60519Y-39963D01*
X60490Y-39978D01*
X60476Y-39992D01*
X60462Y-40021D01*
X60447Y-40078D01*
X60447Y-40149D01*
X60462Y-40206D01*
X60476Y-40235D01*
X60490Y-40249D01*
X60519Y-40263D01*
X60547Y-40263D01*
X60576Y-40249D01*
X60590Y-40235D01*
X60605Y-40206D01*
X60619Y-40149D01*
X60619Y-40078D01*
X60605Y-40021D01*
X60590Y-39992D01*
X60576Y-39978D01*
X60547Y-39963D01*
X69742Y-37239D02*
X69755Y-37253D01*
X69794Y-37266D01*
X69820Y-37266D01*
X69860Y-37253D01*
X69886Y-37226D01*
X69899Y-37200D01*
X69912Y-37147D01*
X69912Y-37108D01*
X69899Y-37055D01*
X69886Y-37029D01*
X69860Y-37003D01*
X69820Y-36990D01*
X69794Y-36990D01*
X69755Y-37003D01*
X69742Y-37016D01*
X69650Y-36990D02*
X69466Y-36990D01*
X69584Y-37266D01*
X69373Y-37016D02*
X69360Y-37003D01*
X69334Y-36990D01*
X69268Y-36990D01*
X69242Y-37003D01*
X69229Y-37016D01*
X69216Y-37042D01*
X69216Y-37069D01*
X69229Y-37108D01*
X69387Y-37266D01*
X69216Y-37266D01*
X68979Y-37082D02*
X68979Y-37266D01*
X69045Y-36977D02*
X69110Y-37174D01*
X68940Y-37174D01*
G54D17*
X56365Y-39074D02*
X56425Y-38941D01*
X56468Y-39074D02*
X56468Y-38794D01*
X56400Y-38794D01*
X56382Y-38808D01*
X56374Y-38821D01*
X56365Y-38848D01*
X56365Y-38888D01*
X56374Y-38914D01*
X56382Y-38928D01*
X56400Y-38941D01*
X56468Y-38941D01*
X56297Y-38821D02*
X56288Y-38808D01*
X56271Y-38794D01*
X56228Y-38794D01*
X56211Y-38808D01*
X56202Y-38821D01*
X56194Y-38848D01*
X56194Y-38874D01*
X56202Y-38914D01*
X56305Y-39074D01*
X56194Y-39074D01*
X56083Y-38794D02*
X56066Y-38794D01*
X56049Y-38808D01*
X56040Y-38821D01*
X56031Y-38848D01*
X56023Y-38901D01*
X56023Y-38968D01*
X56031Y-39021D01*
X56040Y-39048D01*
X56049Y-39061D01*
X56066Y-39074D01*
X56083Y-39074D01*
X56100Y-39061D01*
X56109Y-39048D01*
X56117Y-39021D01*
X56126Y-38968D01*
X56126Y-38901D01*
X56117Y-38848D01*
X56109Y-38821D01*
X56100Y-38808D01*
X56083Y-38794D01*
X55963Y-38794D02*
X55843Y-38794D01*
X55920Y-39074D01*
X56783Y-38637D02*
X56843Y-38504D01*
X56886Y-38637D02*
X56886Y-38357D01*
X56818Y-38357D01*
X56800Y-38371D01*
X56792Y-38384D01*
X56783Y-38411D01*
X56783Y-38451D01*
X56792Y-38477D01*
X56800Y-38491D01*
X56818Y-38504D01*
X56886Y-38504D01*
X56715Y-38384D02*
X56706Y-38371D01*
X56689Y-38357D01*
X56646Y-38357D01*
X56629Y-38371D01*
X56620Y-38384D01*
X56612Y-38411D01*
X56612Y-38437D01*
X56620Y-38477D01*
X56723Y-38637D01*
X56612Y-38637D01*
X56501Y-38357D02*
X56484Y-38357D01*
X56467Y-38371D01*
X56458Y-38384D01*
X56449Y-38411D01*
X56441Y-38464D01*
X56441Y-38531D01*
X56449Y-38584D01*
X56458Y-38611D01*
X56467Y-38624D01*
X56484Y-38637D01*
X56501Y-38637D01*
X56518Y-38624D01*
X56527Y-38611D01*
X56535Y-38584D01*
X56544Y-38531D01*
X56544Y-38464D01*
X56535Y-38411D01*
X56527Y-38384D01*
X56518Y-38371D01*
X56501Y-38357D01*
X56287Y-38357D02*
X56321Y-38357D01*
X56338Y-38371D01*
X56347Y-38384D01*
X56364Y-38424D01*
X56373Y-38477D01*
X56373Y-38584D01*
X56364Y-38611D01*
X56356Y-38624D01*
X56338Y-38637D01*
X56304Y-38637D01*
X56287Y-38624D01*
X56278Y-38611D01*
X56270Y-38584D01*
X56270Y-38517D01*
X56278Y-38491D01*
X56287Y-38477D01*
X56304Y-38464D01*
X56338Y-38464D01*
X56356Y-38477D01*
X56364Y-38491D01*
X56373Y-38517D01*
X67735Y-44436D02*
X67795Y-44303D01*
X67838Y-44436D02*
X67838Y-44156D01*
X67770Y-44156D01*
X67752Y-44170D01*
X67744Y-44183D01*
X67735Y-44210D01*
X67735Y-44250D01*
X67744Y-44276D01*
X67752Y-44290D01*
X67770Y-44303D01*
X67838Y-44303D01*
X67667Y-44183D02*
X67658Y-44170D01*
X67641Y-44156D01*
X67598Y-44156D01*
X67581Y-44170D01*
X67572Y-44183D01*
X67564Y-44210D01*
X67564Y-44236D01*
X67572Y-44276D01*
X67675Y-44436D01*
X67564Y-44436D01*
X67453Y-44156D02*
X67436Y-44156D01*
X67419Y-44170D01*
X67410Y-44183D01*
X67401Y-44210D01*
X67393Y-44263D01*
X67393Y-44330D01*
X67401Y-44383D01*
X67410Y-44410D01*
X67419Y-44423D01*
X67436Y-44436D01*
X67453Y-44436D01*
X67470Y-44423D01*
X67479Y-44410D01*
X67487Y-44383D01*
X67496Y-44330D01*
X67496Y-44263D01*
X67487Y-44210D01*
X67479Y-44183D01*
X67470Y-44170D01*
X67453Y-44156D01*
X67239Y-44250D02*
X67239Y-44436D01*
X67282Y-44143D02*
X67325Y-44343D01*
X67213Y-44343D01*
X64917Y-44396D02*
X64977Y-44263D01*
X65020Y-44396D02*
X65020Y-44116D01*
X64952Y-44116D01*
X64934Y-44130D01*
X64926Y-44143D01*
X64917Y-44170D01*
X64917Y-44210D01*
X64926Y-44236D01*
X64934Y-44250D01*
X64952Y-44263D01*
X65020Y-44263D01*
X64849Y-44143D02*
X64840Y-44130D01*
X64823Y-44116D01*
X64780Y-44116D01*
X64763Y-44130D01*
X64754Y-44143D01*
X64746Y-44170D01*
X64746Y-44196D01*
X64754Y-44236D01*
X64857Y-44396D01*
X64746Y-44396D01*
X64635Y-44116D02*
X64618Y-44116D01*
X64601Y-44130D01*
X64592Y-44143D01*
X64583Y-44170D01*
X64575Y-44223D01*
X64575Y-44290D01*
X64583Y-44343D01*
X64592Y-44370D01*
X64601Y-44383D01*
X64618Y-44396D01*
X64635Y-44396D01*
X64652Y-44383D01*
X64661Y-44370D01*
X64669Y-44343D01*
X64678Y-44290D01*
X64678Y-44223D01*
X64669Y-44170D01*
X64661Y-44143D01*
X64652Y-44130D01*
X64635Y-44116D01*
X64515Y-44116D02*
X64404Y-44116D01*
X64464Y-44223D01*
X64438Y-44223D01*
X64421Y-44236D01*
X64412Y-44250D01*
X64404Y-44276D01*
X64404Y-44343D01*
X64412Y-44370D01*
X64421Y-44383D01*
X64438Y-44396D01*
X64490Y-44396D01*
X64507Y-44383D01*
X64515Y-44370D01*
X64881Y-43778D02*
X64941Y-43645D01*
X64984Y-43778D02*
X64984Y-43498D01*
X64916Y-43498D01*
X64898Y-43512D01*
X64890Y-43525D01*
X64881Y-43552D01*
X64881Y-43592D01*
X64890Y-43618D01*
X64898Y-43632D01*
X64916Y-43645D01*
X64984Y-43645D01*
X64813Y-43525D02*
X64804Y-43512D01*
X64787Y-43498D01*
X64744Y-43498D01*
X64727Y-43512D01*
X64718Y-43525D01*
X64710Y-43552D01*
X64710Y-43578D01*
X64718Y-43618D01*
X64821Y-43778D01*
X64710Y-43778D01*
X64599Y-43498D02*
X64582Y-43498D01*
X64565Y-43512D01*
X64556Y-43525D01*
X64547Y-43552D01*
X64539Y-43605D01*
X64539Y-43672D01*
X64547Y-43725D01*
X64556Y-43752D01*
X64565Y-43765D01*
X64582Y-43778D01*
X64599Y-43778D01*
X64616Y-43765D01*
X64625Y-43752D01*
X64633Y-43725D01*
X64642Y-43672D01*
X64642Y-43605D01*
X64633Y-43552D01*
X64625Y-43525D01*
X64616Y-43512D01*
X64599Y-43498D01*
X64471Y-43525D02*
X64462Y-43512D01*
X64445Y-43498D01*
X64402Y-43498D01*
X64385Y-43512D01*
X64376Y-43525D01*
X64368Y-43552D01*
X64368Y-43578D01*
X64376Y-43618D01*
X64479Y-43778D01*
X64368Y-43778D01*
X56763Y-38152D02*
X56823Y-38019D01*
X56866Y-38152D02*
X56866Y-37872D01*
X56798Y-37872D01*
X56780Y-37886D01*
X56772Y-37899D01*
X56763Y-37926D01*
X56763Y-37966D01*
X56772Y-37992D01*
X56780Y-38006D01*
X56798Y-38019D01*
X56866Y-38019D01*
X56695Y-37899D02*
X56686Y-37886D01*
X56669Y-37872D01*
X56626Y-37872D01*
X56609Y-37886D01*
X56600Y-37899D01*
X56592Y-37926D01*
X56592Y-37952D01*
X56600Y-37992D01*
X56703Y-38152D01*
X56592Y-38152D01*
X56481Y-37872D02*
X56464Y-37872D01*
X56447Y-37886D01*
X56438Y-37899D01*
X56429Y-37926D01*
X56421Y-37979D01*
X56421Y-38046D01*
X56429Y-38099D01*
X56438Y-38126D01*
X56447Y-38139D01*
X56464Y-38152D01*
X56481Y-38152D01*
X56498Y-38139D01*
X56507Y-38126D01*
X56515Y-38099D01*
X56524Y-38046D01*
X56524Y-37979D01*
X56515Y-37926D01*
X56507Y-37899D01*
X56498Y-37886D01*
X56481Y-37872D01*
X56258Y-37872D02*
X56344Y-37872D01*
X56353Y-38006D01*
X56344Y-37992D01*
X56327Y-37979D01*
X56284Y-37979D01*
X56267Y-37992D01*
X56258Y-38006D01*
X56250Y-38032D01*
X56250Y-38099D01*
X56258Y-38126D01*
X56267Y-38139D01*
X56284Y-38152D01*
X56327Y-38152D01*
X56344Y-38139D01*
X56353Y-38126D01*
X70452Y-30469D02*
X70319Y-30409D01*
X70452Y-30366D02*
X70172Y-30366D01*
X70172Y-30434D01*
X70186Y-30452D01*
X70199Y-30460D01*
X70226Y-30469D01*
X70266Y-30469D01*
X70292Y-30460D01*
X70306Y-30452D01*
X70319Y-30434D01*
X70319Y-30366D01*
X70199Y-30537D02*
X70186Y-30546D01*
X70172Y-30563D01*
X70172Y-30606D01*
X70186Y-30623D01*
X70199Y-30632D01*
X70226Y-30640D01*
X70252Y-30640D01*
X70292Y-30632D01*
X70452Y-30529D01*
X70452Y-30640D01*
X70172Y-30751D02*
X70172Y-30768D01*
X70186Y-30785D01*
X70199Y-30794D01*
X70226Y-30803D01*
X70279Y-30811D01*
X70346Y-30811D01*
X70399Y-30803D01*
X70426Y-30794D01*
X70439Y-30785D01*
X70452Y-30768D01*
X70452Y-30751D01*
X70439Y-30734D01*
X70426Y-30725D01*
X70399Y-30717D01*
X70346Y-30708D01*
X70279Y-30708D01*
X70226Y-30717D01*
X70199Y-30725D01*
X70186Y-30734D01*
X70172Y-30751D01*
X70452Y-30982D02*
X70452Y-30879D01*
X70452Y-30931D02*
X70172Y-30931D01*
X70212Y-30914D01*
X70239Y-30896D01*
X70252Y-30879D01*
X63720Y-37924D02*
X63729Y-37933D01*
X63755Y-37943D01*
X63772Y-37943D01*
X63797Y-37933D01*
X63815Y-37914D01*
X63823Y-37895D01*
X63832Y-37857D01*
X63832Y-37829D01*
X63823Y-37791D01*
X63815Y-37772D01*
X63797Y-37752D01*
X63772Y-37743D01*
X63755Y-37743D01*
X63729Y-37752D01*
X63720Y-37762D01*
X63652Y-37762D02*
X63643Y-37752D01*
X63626Y-37743D01*
X63583Y-37743D01*
X63566Y-37752D01*
X63557Y-37762D01*
X63549Y-37781D01*
X63549Y-37800D01*
X63557Y-37829D01*
X63660Y-37943D01*
X63549Y-37943D01*
X63438Y-37743D02*
X63421Y-37743D01*
X63404Y-37752D01*
X63395Y-37762D01*
X63386Y-37781D01*
X63378Y-37819D01*
X63378Y-37867D01*
X63386Y-37905D01*
X63395Y-37924D01*
X63404Y-37933D01*
X63421Y-37943D01*
X63438Y-37943D01*
X63455Y-37933D01*
X63464Y-37924D01*
X63472Y-37905D01*
X63481Y-37867D01*
X63481Y-37819D01*
X63472Y-37781D01*
X63464Y-37762D01*
X63455Y-37752D01*
X63438Y-37743D01*
X63293Y-37943D02*
X63258Y-37943D01*
X63241Y-37933D01*
X63233Y-37924D01*
X63215Y-37895D01*
X63207Y-37857D01*
X63207Y-37781D01*
X63215Y-37762D01*
X63224Y-37752D01*
X63241Y-37743D01*
X63275Y-37743D01*
X63293Y-37752D01*
X63301Y-37762D01*
X63310Y-37781D01*
X63310Y-37829D01*
X63301Y-37848D01*
X63293Y-37857D01*
X63275Y-37867D01*
X63241Y-37867D01*
X63224Y-37857D01*
X63215Y-37848D01*
X63207Y-37829D01*
X55570Y-38540D02*
X55579Y-38531D01*
X55589Y-38505D01*
X55589Y-38488D01*
X55579Y-38463D01*
X55560Y-38445D01*
X55541Y-38437D01*
X55503Y-38428D01*
X55475Y-38428D01*
X55437Y-38437D01*
X55418Y-38445D01*
X55398Y-38463D01*
X55389Y-38488D01*
X55389Y-38505D01*
X55398Y-38531D01*
X55408Y-38540D01*
X55408Y-38608D02*
X55398Y-38617D01*
X55389Y-38634D01*
X55389Y-38677D01*
X55398Y-38694D01*
X55408Y-38703D01*
X55427Y-38711D01*
X55446Y-38711D01*
X55475Y-38703D01*
X55589Y-38600D01*
X55589Y-38711D01*
X55389Y-38822D02*
X55389Y-38839D01*
X55398Y-38856D01*
X55408Y-38865D01*
X55427Y-38874D01*
X55465Y-38882D01*
X55513Y-38882D01*
X55551Y-38874D01*
X55570Y-38865D01*
X55579Y-38856D01*
X55589Y-38839D01*
X55589Y-38822D01*
X55579Y-38805D01*
X55570Y-38796D01*
X55551Y-38788D01*
X55513Y-38779D01*
X55465Y-38779D01*
X55427Y-38788D01*
X55408Y-38796D01*
X55398Y-38805D01*
X55389Y-38822D01*
X55475Y-38985D02*
X55465Y-38967D01*
X55456Y-38959D01*
X55437Y-38950D01*
X55427Y-38950D01*
X55408Y-38959D01*
X55398Y-38967D01*
X55389Y-38985D01*
X55389Y-39019D01*
X55398Y-39036D01*
X55408Y-39045D01*
X55427Y-39053D01*
X55437Y-39053D01*
X55456Y-39045D01*
X55465Y-39036D01*
X55475Y-39019D01*
X55475Y-38985D01*
X55484Y-38967D01*
X55494Y-38959D01*
X55513Y-38950D01*
X55551Y-38950D01*
X55570Y-38959D01*
X55579Y-38967D01*
X55589Y-38985D01*
X55589Y-39019D01*
X55579Y-39036D01*
X55570Y-39045D01*
X55551Y-39053D01*
X55513Y-39053D01*
X55494Y-39045D01*
X55484Y-39036D01*
X55475Y-39019D01*
X67806Y-41397D02*
X67815Y-41406D01*
X67841Y-41416D01*
X67858Y-41416D01*
X67883Y-41406D01*
X67901Y-41387D01*
X67909Y-41368D01*
X67918Y-41330D01*
X67918Y-41302D01*
X67909Y-41264D01*
X67901Y-41245D01*
X67883Y-41225D01*
X67858Y-41216D01*
X67841Y-41216D01*
X67815Y-41225D01*
X67806Y-41235D01*
X67738Y-41235D02*
X67729Y-41225D01*
X67712Y-41216D01*
X67669Y-41216D01*
X67652Y-41225D01*
X67643Y-41235D01*
X67635Y-41254D01*
X67635Y-41273D01*
X67643Y-41302D01*
X67746Y-41416D01*
X67635Y-41416D01*
X67524Y-41216D02*
X67507Y-41216D01*
X67490Y-41225D01*
X67481Y-41235D01*
X67472Y-41254D01*
X67464Y-41292D01*
X67464Y-41340D01*
X67472Y-41378D01*
X67481Y-41397D01*
X67490Y-41406D01*
X67507Y-41416D01*
X67524Y-41416D01*
X67541Y-41406D01*
X67550Y-41397D01*
X67558Y-41378D01*
X67567Y-41340D01*
X67567Y-41292D01*
X67558Y-41254D01*
X67550Y-41235D01*
X67541Y-41225D01*
X67524Y-41216D01*
X67404Y-41216D02*
X67284Y-41216D01*
X67361Y-41416D01*
X68409Y-40676D02*
X68418Y-40685D01*
X68444Y-40695D01*
X68461Y-40695D01*
X68486Y-40685D01*
X68504Y-40666D01*
X68512Y-40647D01*
X68521Y-40609D01*
X68521Y-40581D01*
X68512Y-40543D01*
X68504Y-40524D01*
X68486Y-40504D01*
X68461Y-40495D01*
X68444Y-40495D01*
X68418Y-40504D01*
X68409Y-40514D01*
X68341Y-40514D02*
X68332Y-40504D01*
X68315Y-40495D01*
X68272Y-40495D01*
X68255Y-40504D01*
X68246Y-40514D01*
X68238Y-40533D01*
X68238Y-40552D01*
X68246Y-40581D01*
X68349Y-40695D01*
X68238Y-40695D01*
X68127Y-40495D02*
X68110Y-40495D01*
X68093Y-40504D01*
X68084Y-40514D01*
X68075Y-40533D01*
X68067Y-40571D01*
X68067Y-40619D01*
X68075Y-40657D01*
X68084Y-40676D01*
X68093Y-40685D01*
X68110Y-40695D01*
X68127Y-40695D01*
X68144Y-40685D01*
X68153Y-40676D01*
X68161Y-40657D01*
X68170Y-40619D01*
X68170Y-40571D01*
X68161Y-40533D01*
X68153Y-40514D01*
X68144Y-40504D01*
X68127Y-40495D01*
X67913Y-40495D02*
X67947Y-40495D01*
X67964Y-40504D01*
X67973Y-40514D01*
X67990Y-40543D01*
X67999Y-40581D01*
X67999Y-40657D01*
X67990Y-40676D01*
X67982Y-40685D01*
X67964Y-40695D01*
X67930Y-40695D01*
X67913Y-40685D01*
X67904Y-40676D01*
X67896Y-40657D01*
X67896Y-40609D01*
X67904Y-40590D01*
X67913Y-40581D01*
X67930Y-40571D01*
X67964Y-40571D01*
X67982Y-40581D01*
X67990Y-40590D01*
X67999Y-40609D01*
X71062Y-30418D02*
X71071Y-30409D01*
X71081Y-30383D01*
X71081Y-30366D01*
X71071Y-30341D01*
X71052Y-30323D01*
X71033Y-30315D01*
X70995Y-30306D01*
X70967Y-30306D01*
X70929Y-30315D01*
X70910Y-30323D01*
X70890Y-30341D01*
X70881Y-30366D01*
X70881Y-30383D01*
X70890Y-30409D01*
X70900Y-30418D01*
X70900Y-30486D02*
X70890Y-30495D01*
X70881Y-30512D01*
X70881Y-30555D01*
X70890Y-30572D01*
X70900Y-30581D01*
X70919Y-30589D01*
X70938Y-30589D01*
X70967Y-30581D01*
X71081Y-30478D01*
X71081Y-30589D01*
X70881Y-30700D02*
X70881Y-30717D01*
X70890Y-30734D01*
X70900Y-30743D01*
X70919Y-30752D01*
X70957Y-30760D01*
X71005Y-30760D01*
X71043Y-30752D01*
X71062Y-30743D01*
X71071Y-30734D01*
X71081Y-30717D01*
X71081Y-30700D01*
X71071Y-30683D01*
X71062Y-30674D01*
X71043Y-30666D01*
X71005Y-30657D01*
X70957Y-30657D01*
X70919Y-30666D01*
X70900Y-30674D01*
X70890Y-30683D01*
X70881Y-30700D01*
X70881Y-30923D02*
X70881Y-30837D01*
X70976Y-30828D01*
X70967Y-30837D01*
X70957Y-30854D01*
X70957Y-30897D01*
X70967Y-30914D01*
X70976Y-30923D01*
X70995Y-30931D01*
X71043Y-30931D01*
X71062Y-30923D01*
X71071Y-30914D01*
X71081Y-30897D01*
X71081Y-30854D01*
X71071Y-30837D01*
X71062Y-30828D01*
X68944Y-43454D02*
X68953Y-43445D01*
X68963Y-43419D01*
X68963Y-43402D01*
X68953Y-43377D01*
X68934Y-43359D01*
X68915Y-43351D01*
X68877Y-43342D01*
X68849Y-43342D01*
X68811Y-43351D01*
X68792Y-43359D01*
X68772Y-43377D01*
X68763Y-43402D01*
X68763Y-43419D01*
X68772Y-43445D01*
X68782Y-43454D01*
X68782Y-43522D02*
X68772Y-43531D01*
X68763Y-43548D01*
X68763Y-43591D01*
X68772Y-43608D01*
X68782Y-43617D01*
X68801Y-43625D01*
X68820Y-43625D01*
X68849Y-43617D01*
X68963Y-43514D01*
X68963Y-43625D01*
X68763Y-43736D02*
X68763Y-43753D01*
X68772Y-43770D01*
X68782Y-43779D01*
X68801Y-43788D01*
X68839Y-43796D01*
X68887Y-43796D01*
X68925Y-43788D01*
X68944Y-43779D01*
X68953Y-43770D01*
X68963Y-43753D01*
X68963Y-43736D01*
X68953Y-43719D01*
X68944Y-43710D01*
X68925Y-43702D01*
X68887Y-43693D01*
X68839Y-43693D01*
X68801Y-43702D01*
X68782Y-43710D01*
X68772Y-43719D01*
X68763Y-43736D01*
X68830Y-43950D02*
X68963Y-43950D01*
X68753Y-43907D02*
X68896Y-43864D01*
X68896Y-43976D01*
X71834Y-27891D02*
X71843Y-27882D01*
X71853Y-27856D01*
X71853Y-27839D01*
X71843Y-27814D01*
X71824Y-27796D01*
X71805Y-27788D01*
X71767Y-27779D01*
X71739Y-27779D01*
X71701Y-27788D01*
X71682Y-27796D01*
X71662Y-27814D01*
X71653Y-27839D01*
X71653Y-27856D01*
X71662Y-27882D01*
X71672Y-27891D01*
X71672Y-27959D02*
X71662Y-27968D01*
X71653Y-27985D01*
X71653Y-28028D01*
X71662Y-28045D01*
X71672Y-28054D01*
X71691Y-28062D01*
X71710Y-28062D01*
X71739Y-28054D01*
X71853Y-27951D01*
X71853Y-28062D01*
X71653Y-28173D02*
X71653Y-28190D01*
X71662Y-28207D01*
X71672Y-28216D01*
X71691Y-28225D01*
X71729Y-28233D01*
X71777Y-28233D01*
X71815Y-28225D01*
X71834Y-28216D01*
X71843Y-28207D01*
X71853Y-28190D01*
X71853Y-28173D01*
X71843Y-28156D01*
X71834Y-28147D01*
X71815Y-28139D01*
X71777Y-28130D01*
X71729Y-28130D01*
X71691Y-28139D01*
X71672Y-28147D01*
X71662Y-28156D01*
X71653Y-28173D01*
X71653Y-28293D02*
X71653Y-28404D01*
X71729Y-28344D01*
X71729Y-28370D01*
X71739Y-28387D01*
X71748Y-28396D01*
X71767Y-28404D01*
X71815Y-28404D01*
X71834Y-28396D01*
X71843Y-28387D01*
X71853Y-28370D01*
X71853Y-28318D01*
X71843Y-28301D01*
X71834Y-28293D01*
X71412Y-28359D02*
X71421Y-28350D01*
X71431Y-28324D01*
X71431Y-28307D01*
X71421Y-28282D01*
X71402Y-28264D01*
X71383Y-28256D01*
X71345Y-28247D01*
X71317Y-28247D01*
X71279Y-28256D01*
X71260Y-28264D01*
X71240Y-28282D01*
X71231Y-28307D01*
X71231Y-28324D01*
X71240Y-28350D01*
X71250Y-28359D01*
X71250Y-28427D02*
X71240Y-28436D01*
X71231Y-28453D01*
X71231Y-28496D01*
X71240Y-28513D01*
X71250Y-28522D01*
X71269Y-28530D01*
X71288Y-28530D01*
X71317Y-28522D01*
X71431Y-28419D01*
X71431Y-28530D01*
X71231Y-28641D02*
X71231Y-28658D01*
X71240Y-28675D01*
X71250Y-28684D01*
X71269Y-28693D01*
X71307Y-28701D01*
X71355Y-28701D01*
X71393Y-28693D01*
X71412Y-28684D01*
X71421Y-28675D01*
X71431Y-28658D01*
X71431Y-28641D01*
X71421Y-28624D01*
X71412Y-28615D01*
X71393Y-28607D01*
X71355Y-28598D01*
X71307Y-28598D01*
X71269Y-28607D01*
X71250Y-28615D01*
X71240Y-28624D01*
X71231Y-28641D01*
X71250Y-28769D02*
X71240Y-28778D01*
X71231Y-28795D01*
X71231Y-28838D01*
X71240Y-28855D01*
X71250Y-28864D01*
X71269Y-28872D01*
X71288Y-28872D01*
X71317Y-28864D01*
X71431Y-28761D01*
X71431Y-28872D01*
X64204Y-34969D02*
X64213Y-34960D01*
X64223Y-34934D01*
X64223Y-34917D01*
X64213Y-34892D01*
X64194Y-34874D01*
X64175Y-34866D01*
X64137Y-34857D01*
X64109Y-34857D01*
X64071Y-34866D01*
X64052Y-34874D01*
X64032Y-34892D01*
X64023Y-34917D01*
X64023Y-34934D01*
X64032Y-34960D01*
X64042Y-34969D01*
X64023Y-35029D02*
X64023Y-35149D01*
X64223Y-35072D01*
X64223Y-35311D02*
X64223Y-35208D01*
X64223Y-35260D02*
X64023Y-35260D01*
X64052Y-35243D01*
X64071Y-35225D01*
X64080Y-35208D01*
X64023Y-35422D02*
X64023Y-35439D01*
X64032Y-35456D01*
X64042Y-35465D01*
X64061Y-35474D01*
X64099Y-35482D01*
X64147Y-35482D01*
X64185Y-35474D01*
X64204Y-35465D01*
X64213Y-35456D01*
X64223Y-35439D01*
X64223Y-35422D01*
X64213Y-35405D01*
X64204Y-35396D01*
X64185Y-35388D01*
X64147Y-35379D01*
X64099Y-35379D01*
X64061Y-35388D01*
X64042Y-35396D01*
X64032Y-35405D01*
X64023Y-35422D01*
X66637Y-37597D02*
X66646Y-37606D01*
X66672Y-37616D01*
X66689Y-37616D01*
X66714Y-37606D01*
X66732Y-37587D01*
X66740Y-37568D01*
X66749Y-37530D01*
X66749Y-37502D01*
X66740Y-37464D01*
X66732Y-37445D01*
X66714Y-37425D01*
X66689Y-37416D01*
X66672Y-37416D01*
X66646Y-37425D01*
X66637Y-37435D01*
X66577Y-37416D02*
X66457Y-37416D01*
X66534Y-37616D01*
X66295Y-37616D02*
X66398Y-37616D01*
X66346Y-37616D02*
X66346Y-37416D01*
X66363Y-37445D01*
X66381Y-37464D01*
X66398Y-37473D01*
X66192Y-37502D02*
X66210Y-37492D01*
X66218Y-37483D01*
X66227Y-37464D01*
X66227Y-37454D01*
X66218Y-37435D01*
X66210Y-37425D01*
X66192Y-37416D01*
X66158Y-37416D01*
X66141Y-37425D01*
X66132Y-37435D01*
X66124Y-37454D01*
X66124Y-37464D01*
X66132Y-37483D01*
X66141Y-37492D01*
X66158Y-37502D01*
X66192Y-37502D01*
X66210Y-37511D01*
X66218Y-37521D01*
X66227Y-37540D01*
X66227Y-37578D01*
X66218Y-37597D01*
X66210Y-37606D01*
X66192Y-37616D01*
X66158Y-37616D01*
X66141Y-37606D01*
X66132Y-37597D01*
X66124Y-37578D01*
X66124Y-37540D01*
X66132Y-37521D01*
X66141Y-37511D01*
X66158Y-37502D01*
X66594Y-38814D02*
X66603Y-38823D01*
X66629Y-38833D01*
X66646Y-38833D01*
X66671Y-38823D01*
X66689Y-38804D01*
X66697Y-38785D01*
X66706Y-38747D01*
X66706Y-38719D01*
X66697Y-38681D01*
X66689Y-38662D01*
X66671Y-38642D01*
X66646Y-38633D01*
X66629Y-38633D01*
X66603Y-38642D01*
X66594Y-38652D01*
X66534Y-38633D02*
X66414Y-38633D01*
X66491Y-38833D01*
X66252Y-38833D02*
X66355Y-38833D01*
X66303Y-38833D02*
X66303Y-38633D01*
X66320Y-38662D01*
X66338Y-38681D01*
X66355Y-38690D01*
X66192Y-38633D02*
X66072Y-38633D01*
X66149Y-38833D01*
X66550Y-41560D02*
X66559Y-41551D01*
X66569Y-41525D01*
X66569Y-41508D01*
X66559Y-41483D01*
X66540Y-41465D01*
X66521Y-41457D01*
X66483Y-41448D01*
X66455Y-41448D01*
X66417Y-41457D01*
X66398Y-41465D01*
X66378Y-41483D01*
X66369Y-41508D01*
X66369Y-41525D01*
X66378Y-41551D01*
X66388Y-41560D01*
X66369Y-41620D02*
X66369Y-41740D01*
X66569Y-41663D01*
X66569Y-41902D02*
X66569Y-41799D01*
X66569Y-41851D02*
X66369Y-41851D01*
X66398Y-41834D01*
X66417Y-41816D01*
X66426Y-41799D01*
X66369Y-42056D02*
X66369Y-42022D01*
X66378Y-42005D01*
X66388Y-41996D01*
X66417Y-41979D01*
X66455Y-41970D01*
X66531Y-41970D01*
X66550Y-41979D01*
X66559Y-41987D01*
X66569Y-42005D01*
X66569Y-42039D01*
X66559Y-42056D01*
X66550Y-42065D01*
X66531Y-42073D01*
X66483Y-42073D01*
X66464Y-42065D01*
X66455Y-42056D01*
X66445Y-42039D01*
X66445Y-42005D01*
X66455Y-41987D01*
X66464Y-41979D01*
X66483Y-41970D01*
X58259Y-38011D02*
X58268Y-38020D01*
X58294Y-38030D01*
X58311Y-38030D01*
X58336Y-38020D01*
X58354Y-38001D01*
X58362Y-37982D01*
X58371Y-37944D01*
X58371Y-37916D01*
X58362Y-37878D01*
X58354Y-37859D01*
X58336Y-37839D01*
X58311Y-37830D01*
X58294Y-37830D01*
X58268Y-37839D01*
X58259Y-37849D01*
X58199Y-37830D02*
X58079Y-37830D01*
X58156Y-38030D01*
X57917Y-38030D02*
X58020Y-38030D01*
X57968Y-38030D02*
X57968Y-37830D01*
X57985Y-37859D01*
X58003Y-37878D01*
X58020Y-37887D01*
X57754Y-37830D02*
X57840Y-37830D01*
X57849Y-37925D01*
X57840Y-37916D01*
X57823Y-37906D01*
X57780Y-37906D01*
X57763Y-37916D01*
X57754Y-37925D01*
X57746Y-37944D01*
X57746Y-37992D01*
X57754Y-38011D01*
X57763Y-38020D01*
X57780Y-38030D01*
X57823Y-38030D01*
X57840Y-38020D01*
X57849Y-38011D01*
X63696Y-38723D02*
X63705Y-38732D01*
X63731Y-38742D01*
X63748Y-38742D01*
X63773Y-38732D01*
X63791Y-38713D01*
X63799Y-38694D01*
X63808Y-38656D01*
X63808Y-38628D01*
X63799Y-38590D01*
X63791Y-38571D01*
X63773Y-38551D01*
X63748Y-38542D01*
X63731Y-38542D01*
X63705Y-38551D01*
X63696Y-38561D01*
X63636Y-38542D02*
X63516Y-38542D01*
X63593Y-38742D01*
X63354Y-38742D02*
X63457Y-38742D01*
X63405Y-38742D02*
X63405Y-38542D01*
X63422Y-38571D01*
X63440Y-38590D01*
X63457Y-38599D01*
X63200Y-38609D02*
X63200Y-38742D01*
X63243Y-38532D02*
X63286Y-38675D01*
X63174Y-38675D01*
X66617Y-38192D02*
X66626Y-38201D01*
X66652Y-38211D01*
X66669Y-38211D01*
X66694Y-38201D01*
X66712Y-38182D01*
X66720Y-38163D01*
X66729Y-38125D01*
X66729Y-38097D01*
X66720Y-38059D01*
X66712Y-38040D01*
X66694Y-38020D01*
X66669Y-38011D01*
X66652Y-38011D01*
X66626Y-38020D01*
X66617Y-38030D01*
X66557Y-38011D02*
X66437Y-38011D01*
X66514Y-38211D01*
X66275Y-38211D02*
X66378Y-38211D01*
X66326Y-38211D02*
X66326Y-38011D01*
X66343Y-38040D01*
X66361Y-38059D01*
X66378Y-38068D01*
X66207Y-38030D02*
X66198Y-38020D01*
X66181Y-38011D01*
X66138Y-38011D01*
X66121Y-38020D01*
X66112Y-38030D01*
X66104Y-38049D01*
X66104Y-38068D01*
X66112Y-38097D01*
X66215Y-38211D01*
X66104Y-38211D01*
X66602Y-39401D02*
X66611Y-39410D01*
X66637Y-39420D01*
X66654Y-39420D01*
X66679Y-39410D01*
X66697Y-39391D01*
X66705Y-39372D01*
X66714Y-39334D01*
X66714Y-39306D01*
X66705Y-39268D01*
X66697Y-39249D01*
X66679Y-39229D01*
X66654Y-39220D01*
X66637Y-39220D01*
X66611Y-39229D01*
X66602Y-39239D01*
X66542Y-39220D02*
X66422Y-39220D01*
X66499Y-39420D01*
X66260Y-39420D02*
X66363Y-39420D01*
X66311Y-39420D02*
X66311Y-39220D01*
X66328Y-39249D01*
X66346Y-39268D01*
X66363Y-39277D01*
X66089Y-39420D02*
X66192Y-39420D01*
X66140Y-39420D02*
X66140Y-39220D01*
X66157Y-39249D01*
X66175Y-39268D01*
X66192Y-39277D01*
X58271Y-37593D02*
X58280Y-37602D01*
X58306Y-37612D01*
X58323Y-37612D01*
X58348Y-37602D01*
X58366Y-37583D01*
X58374Y-37564D01*
X58383Y-37526D01*
X58383Y-37498D01*
X58374Y-37460D01*
X58366Y-37441D01*
X58348Y-37421D01*
X58323Y-37412D01*
X58306Y-37412D01*
X58280Y-37421D01*
X58271Y-37431D01*
X58211Y-37412D02*
X58091Y-37412D01*
X58168Y-37612D01*
X57989Y-37412D02*
X57972Y-37412D01*
X57955Y-37421D01*
X57946Y-37431D01*
X57937Y-37450D01*
X57929Y-37488D01*
X57929Y-37536D01*
X57937Y-37574D01*
X57946Y-37593D01*
X57955Y-37602D01*
X57972Y-37612D01*
X57989Y-37612D01*
X58006Y-37602D01*
X58015Y-37593D01*
X58023Y-37574D01*
X58032Y-37536D01*
X58032Y-37488D01*
X58023Y-37450D01*
X58015Y-37431D01*
X58006Y-37421D01*
X57989Y-37412D01*
X57844Y-37612D02*
X57809Y-37612D01*
X57792Y-37602D01*
X57784Y-37593D01*
X57766Y-37564D01*
X57758Y-37526D01*
X57758Y-37450D01*
X57766Y-37431D01*
X57775Y-37421D01*
X57792Y-37412D01*
X57826Y-37412D01*
X57844Y-37421D01*
X57852Y-37431D01*
X57861Y-37450D01*
X57861Y-37498D01*
X57852Y-37517D01*
X57844Y-37526D01*
X57826Y-37536D01*
X57792Y-37536D01*
X57775Y-37526D01*
X57766Y-37517D01*
X57758Y-37498D01*
X63704Y-40184D02*
X63713Y-40193D01*
X63739Y-40203D01*
X63756Y-40203D01*
X63781Y-40193D01*
X63799Y-40174D01*
X63807Y-40155D01*
X63816Y-40117D01*
X63816Y-40089D01*
X63807Y-40051D01*
X63799Y-40032D01*
X63781Y-40012D01*
X63756Y-40003D01*
X63739Y-40003D01*
X63713Y-40012D01*
X63704Y-40022D01*
X63644Y-40003D02*
X63524Y-40003D01*
X63601Y-40203D01*
X63422Y-40003D02*
X63405Y-40003D01*
X63388Y-40012D01*
X63379Y-40022D01*
X63370Y-40041D01*
X63362Y-40079D01*
X63362Y-40127D01*
X63370Y-40165D01*
X63379Y-40184D01*
X63388Y-40193D01*
X63405Y-40203D01*
X63422Y-40203D01*
X63439Y-40193D01*
X63448Y-40184D01*
X63456Y-40165D01*
X63465Y-40127D01*
X63465Y-40079D01*
X63456Y-40041D01*
X63448Y-40022D01*
X63439Y-40012D01*
X63422Y-40003D01*
X63259Y-40089D02*
X63277Y-40079D01*
X63285Y-40070D01*
X63294Y-40051D01*
X63294Y-40041D01*
X63285Y-40022D01*
X63277Y-40012D01*
X63259Y-40003D01*
X63225Y-40003D01*
X63208Y-40012D01*
X63199Y-40022D01*
X63191Y-40041D01*
X63191Y-40051D01*
X63199Y-40070D01*
X63208Y-40079D01*
X63225Y-40089D01*
X63259Y-40089D01*
X63277Y-40098D01*
X63285Y-40108D01*
X63294Y-40127D01*
X63294Y-40165D01*
X63285Y-40184D01*
X63277Y-40193D01*
X63259Y-40203D01*
X63225Y-40203D01*
X63208Y-40193D01*
X63199Y-40184D01*
X63191Y-40165D01*
X63191Y-40127D01*
X63199Y-40108D01*
X63208Y-40098D01*
X63225Y-40089D01*
X66617Y-37003D02*
X66626Y-37012D01*
X66652Y-37022D01*
X66669Y-37022D01*
X66694Y-37012D01*
X66712Y-36993D01*
X66720Y-36974D01*
X66729Y-36936D01*
X66729Y-36908D01*
X66720Y-36870D01*
X66712Y-36851D01*
X66694Y-36831D01*
X66669Y-36822D01*
X66652Y-36822D01*
X66626Y-36831D01*
X66617Y-36841D01*
X66557Y-36822D02*
X66437Y-36822D01*
X66514Y-37022D01*
X66335Y-36822D02*
X66318Y-36822D01*
X66301Y-36831D01*
X66292Y-36841D01*
X66283Y-36860D01*
X66275Y-36898D01*
X66275Y-36946D01*
X66283Y-36984D01*
X66292Y-37003D01*
X66301Y-37012D01*
X66318Y-37022D01*
X66335Y-37022D01*
X66352Y-37012D01*
X66361Y-37003D01*
X66369Y-36984D01*
X66378Y-36946D01*
X66378Y-36898D01*
X66369Y-36860D01*
X66361Y-36841D01*
X66352Y-36831D01*
X66335Y-36822D01*
X66215Y-36822D02*
X66095Y-36822D01*
X66172Y-37022D01*
X66629Y-40093D02*
X66638Y-40102D01*
X66664Y-40112D01*
X66681Y-40112D01*
X66706Y-40102D01*
X66724Y-40083D01*
X66732Y-40064D01*
X66741Y-40026D01*
X66741Y-39998D01*
X66732Y-39960D01*
X66724Y-39941D01*
X66706Y-39921D01*
X66681Y-39912D01*
X66664Y-39912D01*
X66638Y-39921D01*
X66629Y-39931D01*
X66569Y-39912D02*
X66449Y-39912D01*
X66526Y-40112D01*
X66347Y-39912D02*
X66330Y-39912D01*
X66313Y-39921D01*
X66304Y-39931D01*
X66295Y-39950D01*
X66287Y-39988D01*
X66287Y-40036D01*
X66295Y-40074D01*
X66304Y-40093D01*
X66313Y-40102D01*
X66330Y-40112D01*
X66347Y-40112D01*
X66364Y-40102D01*
X66373Y-40093D01*
X66381Y-40074D01*
X66390Y-40036D01*
X66390Y-39988D01*
X66381Y-39950D01*
X66373Y-39931D01*
X66364Y-39921D01*
X66347Y-39912D01*
X66133Y-39912D02*
X66167Y-39912D01*
X66184Y-39921D01*
X66193Y-39931D01*
X66210Y-39960D01*
X66219Y-39998D01*
X66219Y-40074D01*
X66210Y-40093D01*
X66202Y-40102D01*
X66184Y-40112D01*
X66150Y-40112D01*
X66133Y-40102D01*
X66124Y-40093D01*
X66116Y-40074D01*
X66116Y-40026D01*
X66124Y-40007D01*
X66133Y-39998D01*
X66150Y-39988D01*
X66184Y-39988D01*
X66202Y-39998D01*
X66210Y-40007D01*
X66219Y-40026D01*
X66602Y-36349D02*
X66611Y-36358D01*
X66637Y-36368D01*
X66654Y-36368D01*
X66679Y-36358D01*
X66697Y-36339D01*
X66705Y-36320D01*
X66714Y-36282D01*
X66714Y-36254D01*
X66705Y-36216D01*
X66697Y-36197D01*
X66679Y-36177D01*
X66654Y-36168D01*
X66637Y-36168D01*
X66611Y-36177D01*
X66602Y-36187D01*
X66542Y-36168D02*
X66422Y-36168D01*
X66499Y-36368D01*
X66320Y-36168D02*
X66303Y-36168D01*
X66286Y-36177D01*
X66277Y-36187D01*
X66268Y-36206D01*
X66260Y-36244D01*
X66260Y-36292D01*
X66268Y-36330D01*
X66277Y-36349D01*
X66286Y-36358D01*
X66303Y-36368D01*
X66320Y-36368D01*
X66337Y-36358D01*
X66346Y-36349D01*
X66354Y-36330D01*
X66363Y-36292D01*
X66363Y-36244D01*
X66354Y-36206D01*
X66346Y-36187D01*
X66337Y-36177D01*
X66320Y-36168D01*
X66097Y-36168D02*
X66183Y-36168D01*
X66192Y-36263D01*
X66183Y-36254D01*
X66166Y-36244D01*
X66123Y-36244D01*
X66106Y-36254D01*
X66097Y-36263D01*
X66089Y-36282D01*
X66089Y-36330D01*
X66097Y-36349D01*
X66106Y-36358D01*
X66123Y-36368D01*
X66166Y-36368D01*
X66183Y-36358D01*
X66192Y-36349D01*
X64790Y-34950D02*
X64799Y-34941D01*
X64809Y-34915D01*
X64809Y-34898D01*
X64799Y-34873D01*
X64780Y-34855D01*
X64761Y-34847D01*
X64723Y-34838D01*
X64695Y-34838D01*
X64657Y-34847D01*
X64638Y-34855D01*
X64618Y-34873D01*
X64609Y-34898D01*
X64609Y-34915D01*
X64618Y-34941D01*
X64628Y-34950D01*
X64609Y-35010D02*
X64609Y-35130D01*
X64809Y-35053D01*
X64609Y-35232D02*
X64609Y-35249D01*
X64618Y-35266D01*
X64628Y-35275D01*
X64647Y-35284D01*
X64685Y-35292D01*
X64733Y-35292D01*
X64771Y-35284D01*
X64790Y-35275D01*
X64799Y-35266D01*
X64809Y-35249D01*
X64809Y-35232D01*
X64799Y-35215D01*
X64790Y-35206D01*
X64771Y-35198D01*
X64733Y-35189D01*
X64685Y-35189D01*
X64647Y-35198D01*
X64628Y-35206D01*
X64618Y-35215D01*
X64609Y-35232D01*
X64676Y-35446D02*
X64809Y-35446D01*
X64599Y-35403D02*
X64742Y-35360D01*
X64742Y-35472D01*
X58279Y-37212D02*
X58288Y-37221D01*
X58314Y-37231D01*
X58331Y-37231D01*
X58356Y-37221D01*
X58374Y-37202D01*
X58382Y-37183D01*
X58391Y-37145D01*
X58391Y-37117D01*
X58382Y-37079D01*
X58374Y-37060D01*
X58356Y-37040D01*
X58331Y-37031D01*
X58314Y-37031D01*
X58288Y-37040D01*
X58279Y-37050D01*
X58219Y-37031D02*
X58099Y-37031D01*
X58176Y-37231D01*
X57997Y-37031D02*
X57980Y-37031D01*
X57963Y-37040D01*
X57954Y-37050D01*
X57945Y-37069D01*
X57937Y-37107D01*
X57937Y-37155D01*
X57945Y-37193D01*
X57954Y-37212D01*
X57963Y-37221D01*
X57980Y-37231D01*
X57997Y-37231D01*
X58014Y-37221D01*
X58023Y-37212D01*
X58031Y-37193D01*
X58040Y-37155D01*
X58040Y-37107D01*
X58031Y-37069D01*
X58023Y-37050D01*
X58014Y-37040D01*
X57997Y-37031D01*
X57877Y-37031D02*
X57766Y-37031D01*
X57826Y-37107D01*
X57800Y-37107D01*
X57783Y-37117D01*
X57774Y-37126D01*
X57766Y-37145D01*
X57766Y-37193D01*
X57774Y-37212D01*
X57783Y-37221D01*
X57800Y-37231D01*
X57852Y-37231D01*
X57869Y-37221D01*
X57877Y-37212D01*
X63696Y-39523D02*
X63705Y-39532D01*
X63731Y-39542D01*
X63748Y-39542D01*
X63773Y-39532D01*
X63791Y-39513D01*
X63799Y-39494D01*
X63808Y-39456D01*
X63808Y-39428D01*
X63799Y-39390D01*
X63791Y-39371D01*
X63773Y-39351D01*
X63748Y-39342D01*
X63731Y-39342D01*
X63705Y-39351D01*
X63696Y-39361D01*
X63636Y-39342D02*
X63516Y-39342D01*
X63593Y-39542D01*
X63414Y-39342D02*
X63397Y-39342D01*
X63380Y-39351D01*
X63371Y-39361D01*
X63362Y-39380D01*
X63354Y-39418D01*
X63354Y-39466D01*
X63362Y-39504D01*
X63371Y-39523D01*
X63380Y-39532D01*
X63397Y-39542D01*
X63414Y-39542D01*
X63431Y-39532D01*
X63440Y-39523D01*
X63448Y-39504D01*
X63457Y-39466D01*
X63457Y-39418D01*
X63448Y-39380D01*
X63440Y-39361D01*
X63431Y-39351D01*
X63414Y-39342D01*
X63286Y-39361D02*
X63277Y-39351D01*
X63260Y-39342D01*
X63217Y-39342D01*
X63200Y-39351D01*
X63191Y-39361D01*
X63183Y-39380D01*
X63183Y-39399D01*
X63191Y-39428D01*
X63294Y-39542D01*
X63183Y-39542D01*
X66267Y-35158D02*
X66276Y-35149D01*
X66286Y-35123D01*
X66286Y-35106D01*
X66276Y-35081D01*
X66257Y-35063D01*
X66238Y-35055D01*
X66200Y-35046D01*
X66172Y-35046D01*
X66134Y-35055D01*
X66115Y-35063D01*
X66095Y-35081D01*
X66086Y-35106D01*
X66086Y-35123D01*
X66095Y-35149D01*
X66105Y-35158D01*
X66086Y-35218D02*
X66086Y-35338D01*
X66286Y-35261D01*
X66086Y-35440D02*
X66086Y-35457D01*
X66095Y-35474D01*
X66105Y-35483D01*
X66124Y-35492D01*
X66162Y-35500D01*
X66210Y-35500D01*
X66248Y-35492D01*
X66267Y-35483D01*
X66276Y-35474D01*
X66286Y-35457D01*
X66286Y-35440D01*
X66276Y-35423D01*
X66267Y-35414D01*
X66248Y-35406D01*
X66210Y-35397D01*
X66162Y-35397D01*
X66124Y-35406D01*
X66105Y-35414D01*
X66095Y-35423D01*
X66086Y-35440D01*
X66286Y-35671D02*
X66286Y-35568D01*
X66286Y-35620D02*
X66086Y-35620D01*
X66115Y-35603D01*
X66134Y-35585D01*
X66143Y-35568D01*
G54D16*
X63715Y-44376D02*
X63846Y-44376D01*
X63846Y-44100D01*
X63636Y-44126D02*
X63623Y-44113D01*
X63597Y-44100D01*
X63531Y-44100D01*
X63505Y-44113D01*
X63492Y-44126D01*
X63479Y-44152D01*
X63479Y-44179D01*
X63492Y-44218D01*
X63650Y-44376D01*
X63479Y-44376D01*
X63308Y-44100D02*
X63281Y-44100D01*
X63255Y-44113D01*
X63242Y-44126D01*
X63229Y-44152D01*
X63216Y-44205D01*
X63216Y-44271D01*
X63229Y-44323D01*
X63242Y-44349D01*
X63255Y-44363D01*
X63281Y-44376D01*
X63308Y-44376D01*
X63334Y-44363D01*
X63347Y-44349D01*
X63360Y-44323D01*
X63373Y-44271D01*
X63373Y-44205D01*
X63360Y-44152D01*
X63347Y-44126D01*
X63334Y-44113D01*
X63308Y-44100D01*
X62979Y-44192D02*
X62979Y-44376D01*
X63045Y-44087D02*
X63110Y-44284D01*
X62940Y-44284D01*
X64679Y-40329D02*
X64810Y-40329D01*
X64810Y-40053D01*
X64600Y-40079D02*
X64587Y-40066D01*
X64561Y-40053D01*
X64495Y-40053D01*
X64469Y-40066D01*
X64456Y-40079D01*
X64443Y-40105D01*
X64443Y-40132D01*
X64456Y-40171D01*
X64614Y-40329D01*
X64443Y-40329D01*
X64272Y-40053D02*
X64245Y-40053D01*
X64219Y-40066D01*
X64206Y-40079D01*
X64193Y-40105D01*
X64180Y-40158D01*
X64180Y-40224D01*
X64193Y-40276D01*
X64206Y-40302D01*
X64219Y-40316D01*
X64245Y-40329D01*
X64272Y-40329D01*
X64298Y-40316D01*
X64311Y-40302D01*
X64324Y-40276D01*
X64337Y-40224D01*
X64337Y-40158D01*
X64324Y-40105D01*
X64311Y-40079D01*
X64298Y-40066D01*
X64272Y-40053D01*
X64088Y-40053D02*
X63917Y-40053D01*
X64009Y-40158D01*
X63969Y-40158D01*
X63943Y-40171D01*
X63930Y-40184D01*
X63917Y-40210D01*
X63917Y-40276D01*
X63930Y-40302D01*
X63943Y-40316D01*
X63969Y-40329D01*
X64048Y-40329D01*
X64074Y-40316D01*
X64088Y-40302D01*
X66770Y-31092D02*
X66901Y-31092D01*
X66901Y-30816D01*
X66691Y-30842D02*
X66678Y-30829D01*
X66652Y-30816D01*
X66586Y-30816D01*
X66560Y-30829D01*
X66547Y-30842D01*
X66534Y-30868D01*
X66534Y-30895D01*
X66547Y-30934D01*
X66705Y-31092D01*
X66534Y-31092D01*
X66363Y-30816D02*
X66336Y-30816D01*
X66310Y-30829D01*
X66297Y-30842D01*
X66284Y-30868D01*
X66271Y-30921D01*
X66271Y-30987D01*
X66284Y-31039D01*
X66297Y-31065D01*
X66310Y-31079D01*
X66336Y-31092D01*
X66363Y-31092D01*
X66389Y-31079D01*
X66402Y-31065D01*
X66415Y-31039D01*
X66428Y-30987D01*
X66428Y-30921D01*
X66415Y-30868D01*
X66402Y-30842D01*
X66389Y-30829D01*
X66363Y-30816D01*
X66008Y-31092D02*
X66165Y-31092D01*
X66087Y-31092D02*
X66087Y-30816D01*
X66113Y-30855D01*
X66139Y-30881D01*
X66165Y-30895D01*
X66600Y-33262D02*
X66731Y-33262D01*
X66731Y-32986D01*
X66521Y-33012D02*
X66508Y-32999D01*
X66482Y-32986D01*
X66416Y-32986D01*
X66390Y-32999D01*
X66377Y-33012D01*
X66364Y-33038D01*
X66364Y-33065D01*
X66377Y-33104D01*
X66535Y-33262D01*
X66364Y-33262D01*
X66193Y-32986D02*
X66166Y-32986D01*
X66140Y-32999D01*
X66127Y-33012D01*
X66114Y-33038D01*
X66101Y-33091D01*
X66101Y-33157D01*
X66114Y-33209D01*
X66127Y-33235D01*
X66140Y-33249D01*
X66166Y-33262D01*
X66193Y-33262D01*
X66219Y-33249D01*
X66232Y-33235D01*
X66245Y-33209D01*
X66258Y-33157D01*
X66258Y-33091D01*
X66245Y-33038D01*
X66232Y-33012D01*
X66219Y-32999D01*
X66193Y-32986D01*
X65995Y-33012D02*
X65982Y-32999D01*
X65956Y-32986D01*
X65890Y-32986D01*
X65864Y-32999D01*
X65851Y-33012D01*
X65838Y-33038D01*
X65838Y-33065D01*
X65851Y-33104D01*
X66009Y-33262D01*
X65838Y-33262D01*
G54D17*
X68401Y-40090D02*
X68410Y-40099D01*
X68436Y-40109D01*
X68453Y-40109D01*
X68478Y-40099D01*
X68496Y-40080D01*
X68504Y-40061D01*
X68513Y-40023D01*
X68513Y-39995D01*
X68504Y-39957D01*
X68496Y-39938D01*
X68478Y-39918D01*
X68453Y-39909D01*
X68436Y-39909D01*
X68410Y-39918D01*
X68401Y-39928D01*
X68341Y-39909D02*
X68221Y-39909D01*
X68298Y-40109D01*
X68059Y-40109D02*
X68162Y-40109D01*
X68110Y-40109D02*
X68110Y-39909D01*
X68127Y-39938D01*
X68145Y-39957D01*
X68162Y-39966D01*
X67999Y-39909D02*
X67888Y-39909D01*
X67948Y-39985D01*
X67922Y-39985D01*
X67905Y-39995D01*
X67896Y-40004D01*
X67888Y-40023D01*
X67888Y-40071D01*
X67896Y-40090D01*
X67905Y-40099D01*
X67922Y-40109D01*
X67974Y-40109D01*
X67991Y-40099D01*
X67999Y-40090D01*
X55546Y-39312D02*
X55555Y-39303D01*
X55565Y-39277D01*
X55565Y-39260D01*
X55555Y-39235D01*
X55536Y-39217D01*
X55517Y-39209D01*
X55479Y-39200D01*
X55451Y-39200D01*
X55413Y-39209D01*
X55394Y-39217D01*
X55374Y-39235D01*
X55365Y-39260D01*
X55365Y-39277D01*
X55374Y-39303D01*
X55384Y-39312D01*
X55384Y-39380D02*
X55374Y-39389D01*
X55365Y-39406D01*
X55365Y-39449D01*
X55374Y-39466D01*
X55384Y-39475D01*
X55403Y-39483D01*
X55422Y-39483D01*
X55451Y-39475D01*
X55565Y-39372D01*
X55565Y-39483D01*
X55365Y-39594D02*
X55365Y-39611D01*
X55374Y-39628D01*
X55384Y-39637D01*
X55403Y-39646D01*
X55441Y-39654D01*
X55489Y-39654D01*
X55527Y-39646D01*
X55546Y-39637D01*
X55555Y-39628D01*
X55565Y-39611D01*
X55565Y-39594D01*
X55555Y-39577D01*
X55546Y-39568D01*
X55527Y-39560D01*
X55489Y-39551D01*
X55441Y-39551D01*
X55403Y-39560D01*
X55384Y-39568D01*
X55374Y-39577D01*
X55365Y-39594D01*
X55565Y-39825D02*
X55565Y-39722D01*
X55565Y-39774D02*
X55365Y-39774D01*
X55394Y-39757D01*
X55413Y-39739D01*
X55422Y-39722D01*
G54D16*
X57884Y-38679D02*
X58015Y-38679D01*
X58015Y-38403D01*
X57805Y-38429D02*
X57792Y-38416D01*
X57766Y-38403D01*
X57700Y-38403D01*
X57674Y-38416D01*
X57661Y-38429D01*
X57648Y-38455D01*
X57648Y-38482D01*
X57661Y-38521D01*
X57819Y-38679D01*
X57648Y-38679D01*
X57477Y-38403D02*
X57450Y-38403D01*
X57424Y-38416D01*
X57411Y-38429D01*
X57398Y-38455D01*
X57385Y-38508D01*
X57385Y-38574D01*
X57398Y-38626D01*
X57411Y-38652D01*
X57424Y-38666D01*
X57450Y-38679D01*
X57477Y-38679D01*
X57503Y-38666D01*
X57516Y-38652D01*
X57529Y-38626D01*
X57542Y-38574D01*
X57542Y-38508D01*
X57529Y-38455D01*
X57516Y-38429D01*
X57503Y-38416D01*
X57477Y-38403D01*
X57135Y-38403D02*
X57266Y-38403D01*
X57279Y-38534D01*
X57266Y-38521D01*
X57240Y-38508D01*
X57174Y-38508D01*
X57148Y-38521D01*
X57135Y-38534D01*
X57122Y-38560D01*
X57122Y-38626D01*
X57135Y-38652D01*
X57148Y-38666D01*
X57174Y-38679D01*
X57240Y-38679D01*
X57266Y-38666D01*
X57279Y-38652D01*
X67682Y-27856D02*
X67682Y-28079D01*
X67669Y-28105D01*
X67656Y-28119D01*
X67630Y-28132D01*
X67577Y-28132D01*
X67551Y-28119D01*
X67538Y-28105D01*
X67525Y-28079D01*
X67525Y-27856D01*
X67406Y-27882D02*
X67393Y-27869D01*
X67367Y-27856D01*
X67301Y-27856D01*
X67275Y-27869D01*
X67262Y-27882D01*
X67249Y-27908D01*
X67249Y-27935D01*
X67262Y-27974D01*
X67420Y-28132D01*
X67249Y-28132D01*
X67078Y-27856D02*
X67051Y-27856D01*
X67025Y-27869D01*
X67012Y-27882D01*
X66999Y-27908D01*
X66986Y-27961D01*
X66986Y-28027D01*
X66999Y-28079D01*
X67012Y-28105D01*
X67025Y-28119D01*
X67051Y-28132D01*
X67078Y-28132D01*
X67104Y-28119D01*
X67117Y-28105D01*
X67130Y-28079D01*
X67143Y-28027D01*
X67143Y-27961D01*
X67130Y-27908D01*
X67117Y-27882D01*
X67104Y-27869D01*
X67078Y-27856D01*
X66880Y-27882D02*
X66867Y-27869D01*
X66841Y-27856D01*
X66775Y-27856D01*
X66749Y-27869D01*
X66736Y-27882D01*
X66723Y-27908D01*
X66723Y-27935D01*
X66736Y-27974D01*
X66894Y-28132D01*
X66723Y-28132D01*
X56768Y-39316D02*
X56768Y-39539D01*
X56755Y-39565D01*
X56742Y-39579D01*
X56716Y-39592D01*
X56663Y-39592D01*
X56637Y-39579D01*
X56624Y-39565D01*
X56611Y-39539D01*
X56611Y-39316D01*
X56492Y-39342D02*
X56479Y-39329D01*
X56453Y-39316D01*
X56387Y-39316D01*
X56361Y-39329D01*
X56348Y-39342D01*
X56335Y-39368D01*
X56335Y-39395D01*
X56348Y-39434D01*
X56506Y-39592D01*
X56335Y-39592D01*
X56164Y-39316D02*
X56137Y-39316D01*
X56111Y-39329D01*
X56098Y-39342D01*
X56085Y-39368D01*
X56072Y-39421D01*
X56072Y-39487D01*
X56085Y-39539D01*
X56098Y-39565D01*
X56111Y-39579D01*
X56137Y-39592D01*
X56164Y-39592D01*
X56190Y-39579D01*
X56203Y-39565D01*
X56216Y-39539D01*
X56229Y-39487D01*
X56229Y-39421D01*
X56216Y-39368D01*
X56203Y-39342D01*
X56190Y-39329D01*
X56164Y-39316D01*
X55835Y-39408D02*
X55835Y-39592D01*
X55901Y-39303D02*
X55966Y-39500D01*
X55796Y-39500D01*
M02*
