G04 (created by PCBNEW (2012-jan-04)-stable) date Mon Dec 31 11:21:53 2012*
G01*
G70*
G90*
%MOIN*%
G04 Gerber Fmt 3.4, Leading zero omitted, Abs format*
%FSLAX34Y34*%
G04 APERTURE LIST*
%ADD10C,0.001000*%
%ADD11C,0.015000*%
%ADD12C,0.008000*%
G04 APERTURE END LIST*
G54D10*
G54D11*
X75449Y-40870D02*
X75429Y-40850D01*
X70118Y-40870D02*
X75449Y-40870D01*
X70118Y-33551D02*
X70118Y-40870D01*
X78189Y-33551D02*
X70118Y-33551D01*
X78189Y-25449D02*
X78189Y-33551D01*
X44118Y-25449D02*
X78189Y-25449D01*
X44118Y-46949D02*
X44118Y-25449D01*
X75469Y-46949D02*
X44118Y-46949D01*
X75469Y-40839D02*
X75469Y-46949D01*
G54D10*
X55733Y-43843D02*
X55803Y-43913D01*
X55803Y-43843D02*
X55733Y-43913D01*
X57386Y-36506D02*
X57456Y-36576D01*
X57456Y-36506D02*
X57386Y-36576D01*
X61378Y-35689D02*
X61448Y-35759D01*
X61448Y-35689D02*
X61378Y-35759D01*
X62626Y-27977D02*
X62696Y-28047D01*
X62696Y-27977D02*
X62626Y-28047D01*
X63567Y-27949D02*
X63637Y-28019D01*
X63637Y-27949D02*
X63567Y-28019D01*
X65544Y-43540D02*
X65614Y-43610D01*
X65614Y-43540D02*
X65544Y-43610D01*
X67288Y-41335D02*
X67358Y-41405D01*
X67358Y-41335D02*
X67288Y-41405D01*
X54447Y-42862D02*
X54446Y-42871D01*
X54443Y-42880D01*
X54438Y-42889D01*
X54432Y-42896D01*
X54425Y-42902D01*
X54416Y-42907D01*
X54407Y-42909D01*
X54398Y-42910D01*
X54389Y-42910D01*
X54380Y-42907D01*
X54372Y-42903D01*
X54364Y-42897D01*
X54358Y-42889D01*
X54353Y-42881D01*
X54351Y-42872D01*
X54350Y-42862D01*
X54350Y-42854D01*
X54353Y-42844D01*
X54357Y-42836D01*
X54363Y-42828D01*
X54371Y-42822D01*
X54379Y-42818D01*
X54388Y-42815D01*
X54397Y-42814D01*
X54406Y-42814D01*
X54415Y-42817D01*
X54424Y-42821D01*
X54431Y-42827D01*
X54438Y-42834D01*
X54442Y-42843D01*
X54445Y-42852D01*
X54446Y-42861D01*
X54447Y-42862D01*
X54844Y-44461D02*
X54843Y-44470D01*
X54840Y-44479D01*
X54835Y-44488D01*
X54829Y-44495D01*
X54822Y-44501D01*
X54813Y-44506D01*
X54804Y-44508D01*
X54795Y-44509D01*
X54786Y-44509D01*
X54777Y-44506D01*
X54769Y-44502D01*
X54761Y-44496D01*
X54755Y-44488D01*
X54750Y-44480D01*
X54748Y-44471D01*
X54747Y-44461D01*
X54747Y-44453D01*
X54750Y-44443D01*
X54754Y-44435D01*
X54760Y-44427D01*
X54768Y-44421D01*
X54776Y-44417D01*
X54785Y-44414D01*
X54794Y-44413D01*
X54803Y-44413D01*
X54812Y-44416D01*
X54821Y-44420D01*
X54828Y-44426D01*
X54835Y-44433D01*
X54839Y-44442D01*
X54842Y-44451D01*
X54843Y-44460D01*
X54844Y-44461D01*
X55010Y-44652D02*
X55009Y-44661D01*
X55006Y-44670D01*
X55001Y-44679D01*
X54995Y-44686D01*
X54988Y-44692D01*
X54979Y-44697D01*
X54970Y-44699D01*
X54961Y-44700D01*
X54952Y-44700D01*
X54943Y-44697D01*
X54935Y-44693D01*
X54927Y-44687D01*
X54921Y-44679D01*
X54916Y-44671D01*
X54914Y-44662D01*
X54913Y-44652D01*
X54913Y-44644D01*
X54916Y-44634D01*
X54920Y-44626D01*
X54926Y-44618D01*
X54934Y-44612D01*
X54942Y-44608D01*
X54951Y-44605D01*
X54960Y-44604D01*
X54969Y-44604D01*
X54978Y-44607D01*
X54987Y-44611D01*
X54994Y-44617D01*
X55001Y-44624D01*
X55005Y-44633D01*
X55008Y-44642D01*
X55009Y-44651D01*
X55010Y-44652D01*
X55171Y-44465D02*
X55170Y-44474D01*
X55167Y-44483D01*
X55162Y-44492D01*
X55156Y-44499D01*
X55149Y-44505D01*
X55140Y-44510D01*
X55131Y-44512D01*
X55122Y-44513D01*
X55113Y-44513D01*
X55104Y-44510D01*
X55096Y-44506D01*
X55088Y-44500D01*
X55082Y-44492D01*
X55077Y-44484D01*
X55075Y-44475D01*
X55074Y-44465D01*
X55074Y-44457D01*
X55077Y-44447D01*
X55081Y-44439D01*
X55087Y-44431D01*
X55095Y-44425D01*
X55103Y-44421D01*
X55112Y-44418D01*
X55121Y-44417D01*
X55130Y-44417D01*
X55139Y-44420D01*
X55148Y-44424D01*
X55155Y-44430D01*
X55162Y-44437D01*
X55166Y-44446D01*
X55169Y-44455D01*
X55170Y-44464D01*
X55171Y-44465D01*
X55348Y-44644D02*
X55347Y-44653D01*
X55344Y-44662D01*
X55339Y-44671D01*
X55333Y-44678D01*
X55326Y-44684D01*
X55317Y-44689D01*
X55308Y-44691D01*
X55299Y-44692D01*
X55290Y-44692D01*
X55281Y-44689D01*
X55273Y-44685D01*
X55265Y-44679D01*
X55259Y-44671D01*
X55254Y-44663D01*
X55252Y-44654D01*
X55251Y-44644D01*
X55251Y-44636D01*
X55254Y-44626D01*
X55258Y-44618D01*
X55264Y-44610D01*
X55272Y-44604D01*
X55280Y-44600D01*
X55289Y-44597D01*
X55298Y-44596D01*
X55307Y-44596D01*
X55316Y-44599D01*
X55325Y-44603D01*
X55332Y-44609D01*
X55339Y-44616D01*
X55343Y-44625D01*
X55346Y-44634D01*
X55347Y-44643D01*
X55348Y-44644D01*
X55447Y-41614D02*
X55446Y-41623D01*
X55443Y-41632D01*
X55438Y-41641D01*
X55432Y-41648D01*
X55425Y-41654D01*
X55416Y-41659D01*
X55407Y-41661D01*
X55398Y-41662D01*
X55389Y-41662D01*
X55380Y-41659D01*
X55372Y-41655D01*
X55364Y-41649D01*
X55358Y-41641D01*
X55353Y-41633D01*
X55351Y-41624D01*
X55350Y-41614D01*
X55350Y-41606D01*
X55353Y-41596D01*
X55357Y-41588D01*
X55363Y-41580D01*
X55371Y-41574D01*
X55379Y-41570D01*
X55388Y-41567D01*
X55397Y-41566D01*
X55406Y-41566D01*
X55415Y-41569D01*
X55424Y-41573D01*
X55431Y-41579D01*
X55438Y-41586D01*
X55442Y-41595D01*
X55445Y-41604D01*
X55446Y-41613D01*
X55447Y-41614D01*
X55514Y-44453D02*
X55513Y-44462D01*
X55510Y-44471D01*
X55505Y-44480D01*
X55499Y-44487D01*
X55492Y-44493D01*
X55483Y-44498D01*
X55474Y-44500D01*
X55465Y-44501D01*
X55456Y-44501D01*
X55447Y-44498D01*
X55439Y-44494D01*
X55431Y-44488D01*
X55425Y-44480D01*
X55420Y-44472D01*
X55418Y-44463D01*
X55417Y-44453D01*
X55417Y-44445D01*
X55420Y-44435D01*
X55424Y-44427D01*
X55430Y-44419D01*
X55438Y-44413D01*
X55446Y-44409D01*
X55455Y-44406D01*
X55464Y-44405D01*
X55473Y-44405D01*
X55482Y-44408D01*
X55491Y-44412D01*
X55498Y-44418D01*
X55505Y-44425D01*
X55509Y-44434D01*
X55512Y-44443D01*
X55513Y-44452D01*
X55514Y-44453D01*
X55868Y-41417D02*
X55867Y-41426D01*
X55864Y-41435D01*
X55859Y-41444D01*
X55853Y-41451D01*
X55846Y-41457D01*
X55837Y-41462D01*
X55828Y-41464D01*
X55819Y-41465D01*
X55810Y-41465D01*
X55801Y-41462D01*
X55793Y-41458D01*
X55785Y-41452D01*
X55779Y-41444D01*
X55774Y-41436D01*
X55772Y-41427D01*
X55771Y-41417D01*
X55771Y-41409D01*
X55774Y-41399D01*
X55778Y-41391D01*
X55784Y-41383D01*
X55792Y-41377D01*
X55800Y-41373D01*
X55809Y-41370D01*
X55818Y-41369D01*
X55827Y-41369D01*
X55836Y-41372D01*
X55845Y-41376D01*
X55852Y-41382D01*
X55859Y-41389D01*
X55863Y-41398D01*
X55866Y-41407D01*
X55867Y-41416D01*
X55868Y-41417D01*
X55970Y-42787D02*
X55969Y-42796D01*
X55966Y-42805D01*
X55961Y-42814D01*
X55955Y-42821D01*
X55948Y-42827D01*
X55939Y-42832D01*
X55930Y-42834D01*
X55921Y-42835D01*
X55912Y-42835D01*
X55903Y-42832D01*
X55895Y-42828D01*
X55887Y-42822D01*
X55881Y-42814D01*
X55876Y-42806D01*
X55874Y-42797D01*
X55873Y-42787D01*
X55873Y-42779D01*
X55876Y-42769D01*
X55880Y-42761D01*
X55886Y-42753D01*
X55894Y-42747D01*
X55902Y-42743D01*
X55911Y-42740D01*
X55920Y-42739D01*
X55929Y-42739D01*
X55938Y-42742D01*
X55947Y-42746D01*
X55954Y-42752D01*
X55961Y-42759D01*
X55965Y-42768D01*
X55968Y-42777D01*
X55969Y-42786D01*
X55970Y-42787D01*
X56073Y-43606D02*
X56072Y-43615D01*
X56069Y-43624D01*
X56064Y-43633D01*
X56058Y-43640D01*
X56051Y-43646D01*
X56042Y-43651D01*
X56033Y-43653D01*
X56024Y-43654D01*
X56015Y-43654D01*
X56006Y-43651D01*
X55998Y-43647D01*
X55990Y-43641D01*
X55984Y-43633D01*
X55979Y-43625D01*
X55977Y-43616D01*
X55976Y-43606D01*
X55976Y-43598D01*
X55979Y-43588D01*
X55983Y-43580D01*
X55989Y-43572D01*
X55997Y-43566D01*
X56005Y-43562D01*
X56014Y-43559D01*
X56023Y-43558D01*
X56032Y-43558D01*
X56041Y-43561D01*
X56050Y-43565D01*
X56057Y-43571D01*
X56064Y-43578D01*
X56068Y-43587D01*
X56071Y-43596D01*
X56072Y-43605D01*
X56073Y-43606D01*
X56260Y-34642D02*
X56259Y-34651D01*
X56256Y-34660D01*
X56251Y-34669D01*
X56245Y-34676D01*
X56238Y-34682D01*
X56229Y-34687D01*
X56220Y-34689D01*
X56211Y-34690D01*
X56202Y-34690D01*
X56193Y-34687D01*
X56185Y-34683D01*
X56177Y-34677D01*
X56171Y-34669D01*
X56166Y-34661D01*
X56164Y-34652D01*
X56163Y-34642D01*
X56163Y-34634D01*
X56166Y-34624D01*
X56170Y-34616D01*
X56176Y-34608D01*
X56184Y-34602D01*
X56192Y-34598D01*
X56201Y-34595D01*
X56210Y-34594D01*
X56219Y-34594D01*
X56228Y-34597D01*
X56237Y-34601D01*
X56244Y-34607D01*
X56251Y-34614D01*
X56255Y-34623D01*
X56258Y-34632D01*
X56259Y-34641D01*
X56260Y-34642D01*
X56443Y-44157D02*
X56442Y-44166D01*
X56439Y-44175D01*
X56434Y-44184D01*
X56428Y-44191D01*
X56421Y-44197D01*
X56412Y-44202D01*
X56403Y-44204D01*
X56394Y-44205D01*
X56385Y-44205D01*
X56376Y-44202D01*
X56368Y-44198D01*
X56360Y-44192D01*
X56354Y-44184D01*
X56349Y-44176D01*
X56347Y-44167D01*
X56346Y-44157D01*
X56346Y-44149D01*
X56349Y-44139D01*
X56353Y-44131D01*
X56359Y-44123D01*
X56367Y-44117D01*
X56375Y-44113D01*
X56384Y-44110D01*
X56393Y-44109D01*
X56402Y-44109D01*
X56411Y-44112D01*
X56420Y-44116D01*
X56427Y-44122D01*
X56434Y-44129D01*
X56438Y-44138D01*
X56441Y-44147D01*
X56442Y-44156D01*
X56443Y-44157D01*
X56551Y-38591D02*
X56550Y-38600D01*
X56547Y-38609D01*
X56542Y-38618D01*
X56536Y-38625D01*
X56529Y-38631D01*
X56520Y-38636D01*
X56511Y-38638D01*
X56502Y-38639D01*
X56493Y-38639D01*
X56484Y-38636D01*
X56476Y-38632D01*
X56468Y-38626D01*
X56462Y-38618D01*
X56457Y-38610D01*
X56455Y-38601D01*
X56454Y-38591D01*
X56454Y-38583D01*
X56457Y-38573D01*
X56461Y-38565D01*
X56467Y-38557D01*
X56475Y-38551D01*
X56483Y-38547D01*
X56492Y-38544D01*
X56501Y-38543D01*
X56510Y-38543D01*
X56519Y-38546D01*
X56528Y-38550D01*
X56535Y-38556D01*
X56542Y-38563D01*
X56546Y-38572D01*
X56549Y-38581D01*
X56550Y-38590D01*
X56551Y-38591D01*
X56565Y-37931D02*
X56564Y-37940D01*
X56561Y-37949D01*
X56556Y-37958D01*
X56550Y-37965D01*
X56543Y-37971D01*
X56534Y-37976D01*
X56525Y-37978D01*
X56516Y-37979D01*
X56507Y-37979D01*
X56498Y-37976D01*
X56490Y-37972D01*
X56482Y-37966D01*
X56476Y-37958D01*
X56471Y-37950D01*
X56469Y-37941D01*
X56468Y-37931D01*
X56468Y-37923D01*
X56471Y-37913D01*
X56475Y-37905D01*
X56481Y-37897D01*
X56489Y-37891D01*
X56497Y-37887D01*
X56506Y-37884D01*
X56515Y-37883D01*
X56524Y-37883D01*
X56533Y-37886D01*
X56542Y-37890D01*
X56549Y-37896D01*
X56556Y-37903D01*
X56560Y-37912D01*
X56563Y-37921D01*
X56564Y-37930D01*
X56565Y-37931D01*
X56608Y-42181D02*
X56607Y-42190D01*
X56604Y-42199D01*
X56599Y-42208D01*
X56593Y-42215D01*
X56586Y-42221D01*
X56577Y-42226D01*
X56568Y-42228D01*
X56559Y-42229D01*
X56550Y-42229D01*
X56541Y-42226D01*
X56533Y-42222D01*
X56525Y-42216D01*
X56519Y-42208D01*
X56514Y-42200D01*
X56512Y-42191D01*
X56511Y-42181D01*
X56511Y-42173D01*
X56514Y-42163D01*
X56518Y-42155D01*
X56524Y-42147D01*
X56532Y-42141D01*
X56540Y-42137D01*
X56549Y-42134D01*
X56558Y-42133D01*
X56567Y-42133D01*
X56576Y-42136D01*
X56585Y-42140D01*
X56592Y-42146D01*
X56599Y-42153D01*
X56603Y-42162D01*
X56606Y-42171D01*
X56607Y-42180D01*
X56608Y-42181D01*
X56683Y-44146D02*
X56682Y-44155D01*
X56679Y-44164D01*
X56674Y-44173D01*
X56668Y-44180D01*
X56661Y-44186D01*
X56652Y-44191D01*
X56643Y-44193D01*
X56634Y-44194D01*
X56625Y-44194D01*
X56616Y-44191D01*
X56608Y-44187D01*
X56600Y-44181D01*
X56594Y-44173D01*
X56589Y-44165D01*
X56587Y-44156D01*
X56586Y-44146D01*
X56586Y-44138D01*
X56589Y-44128D01*
X56593Y-44120D01*
X56599Y-44112D01*
X56607Y-44106D01*
X56615Y-44102D01*
X56624Y-44099D01*
X56633Y-44098D01*
X56642Y-44098D01*
X56651Y-44101D01*
X56660Y-44105D01*
X56667Y-44111D01*
X56674Y-44118D01*
X56678Y-44127D01*
X56681Y-44136D01*
X56682Y-44145D01*
X56683Y-44146D01*
X56691Y-33697D02*
X56690Y-33706D01*
X56687Y-33715D01*
X56682Y-33724D01*
X56676Y-33731D01*
X56669Y-33737D01*
X56660Y-33742D01*
X56651Y-33744D01*
X56642Y-33745D01*
X56633Y-33745D01*
X56624Y-33742D01*
X56616Y-33738D01*
X56608Y-33732D01*
X56602Y-33724D01*
X56597Y-33716D01*
X56595Y-33707D01*
X56594Y-33697D01*
X56594Y-33689D01*
X56597Y-33679D01*
X56601Y-33671D01*
X56607Y-33663D01*
X56615Y-33657D01*
X56623Y-33653D01*
X56632Y-33650D01*
X56641Y-33649D01*
X56650Y-33649D01*
X56659Y-33652D01*
X56668Y-33656D01*
X56675Y-33662D01*
X56682Y-33669D01*
X56686Y-33678D01*
X56689Y-33687D01*
X56690Y-33696D01*
X56691Y-33697D01*
X56823Y-42506D02*
X56822Y-42515D01*
X56819Y-42524D01*
X56814Y-42533D01*
X56808Y-42540D01*
X56801Y-42546D01*
X56792Y-42551D01*
X56783Y-42553D01*
X56774Y-42554D01*
X56765Y-42554D01*
X56756Y-42551D01*
X56748Y-42547D01*
X56740Y-42541D01*
X56734Y-42533D01*
X56729Y-42525D01*
X56727Y-42516D01*
X56726Y-42506D01*
X56726Y-42498D01*
X56729Y-42488D01*
X56733Y-42480D01*
X56739Y-42472D01*
X56747Y-42466D01*
X56755Y-42462D01*
X56764Y-42459D01*
X56773Y-42458D01*
X56782Y-42458D01*
X56791Y-42461D01*
X56800Y-42465D01*
X56807Y-42471D01*
X56814Y-42478D01*
X56818Y-42487D01*
X56821Y-42496D01*
X56822Y-42505D01*
X56823Y-42506D01*
X57010Y-38982D02*
X57009Y-38991D01*
X57006Y-39000D01*
X57001Y-39009D01*
X56995Y-39016D01*
X56988Y-39022D01*
X56979Y-39027D01*
X56970Y-39029D01*
X56961Y-39030D01*
X56952Y-39030D01*
X56943Y-39027D01*
X56935Y-39023D01*
X56927Y-39017D01*
X56921Y-39009D01*
X56916Y-39001D01*
X56914Y-38992D01*
X56913Y-38982D01*
X56913Y-38974D01*
X56916Y-38964D01*
X56920Y-38956D01*
X56926Y-38948D01*
X56934Y-38942D01*
X56942Y-38938D01*
X56951Y-38935D01*
X56960Y-38934D01*
X56969Y-38934D01*
X56978Y-38937D01*
X56987Y-38941D01*
X56994Y-38947D01*
X57001Y-38954D01*
X57005Y-38963D01*
X57008Y-38972D01*
X57009Y-38981D01*
X57010Y-38982D01*
X57301Y-30598D02*
X57300Y-30607D01*
X57297Y-30616D01*
X57292Y-30625D01*
X57286Y-30632D01*
X57279Y-30638D01*
X57270Y-30643D01*
X57261Y-30645D01*
X57252Y-30646D01*
X57243Y-30646D01*
X57234Y-30643D01*
X57226Y-30639D01*
X57218Y-30633D01*
X57212Y-30625D01*
X57207Y-30617D01*
X57205Y-30608D01*
X57204Y-30598D01*
X57204Y-30590D01*
X57207Y-30580D01*
X57211Y-30572D01*
X57217Y-30564D01*
X57225Y-30558D01*
X57233Y-30554D01*
X57242Y-30551D01*
X57251Y-30550D01*
X57260Y-30550D01*
X57269Y-30553D01*
X57278Y-30557D01*
X57285Y-30563D01*
X57292Y-30570D01*
X57296Y-30579D01*
X57299Y-30588D01*
X57300Y-30597D01*
X57301Y-30598D01*
X57604Y-40228D02*
X57603Y-40237D01*
X57600Y-40246D01*
X57595Y-40255D01*
X57589Y-40262D01*
X57582Y-40268D01*
X57573Y-40273D01*
X57564Y-40275D01*
X57555Y-40276D01*
X57546Y-40276D01*
X57537Y-40273D01*
X57529Y-40269D01*
X57521Y-40263D01*
X57515Y-40255D01*
X57510Y-40247D01*
X57508Y-40238D01*
X57507Y-40228D01*
X57507Y-40220D01*
X57510Y-40210D01*
X57514Y-40202D01*
X57520Y-40194D01*
X57528Y-40188D01*
X57536Y-40184D01*
X57545Y-40181D01*
X57554Y-40180D01*
X57563Y-40180D01*
X57572Y-40183D01*
X57581Y-40187D01*
X57588Y-40193D01*
X57595Y-40200D01*
X57599Y-40209D01*
X57602Y-40218D01*
X57603Y-40227D01*
X57604Y-40228D01*
X57608Y-30587D02*
X57607Y-30596D01*
X57604Y-30605D01*
X57599Y-30614D01*
X57593Y-30621D01*
X57586Y-30627D01*
X57577Y-30632D01*
X57568Y-30634D01*
X57559Y-30635D01*
X57550Y-30635D01*
X57541Y-30632D01*
X57533Y-30628D01*
X57525Y-30622D01*
X57519Y-30614D01*
X57514Y-30606D01*
X57512Y-30597D01*
X57511Y-30587D01*
X57511Y-30579D01*
X57514Y-30569D01*
X57518Y-30561D01*
X57524Y-30553D01*
X57532Y-30547D01*
X57540Y-30543D01*
X57549Y-30540D01*
X57558Y-30539D01*
X57567Y-30539D01*
X57576Y-30542D01*
X57585Y-30546D01*
X57592Y-30552D01*
X57599Y-30559D01*
X57603Y-30568D01*
X57606Y-30577D01*
X57607Y-30586D01*
X57608Y-30587D01*
X57708Y-36081D02*
X57707Y-36090D01*
X57704Y-36099D01*
X57699Y-36108D01*
X57693Y-36115D01*
X57686Y-36121D01*
X57677Y-36126D01*
X57668Y-36128D01*
X57659Y-36129D01*
X57650Y-36129D01*
X57641Y-36126D01*
X57633Y-36122D01*
X57625Y-36116D01*
X57619Y-36108D01*
X57614Y-36100D01*
X57612Y-36091D01*
X57611Y-36081D01*
X57611Y-36073D01*
X57614Y-36063D01*
X57618Y-36055D01*
X57624Y-36047D01*
X57632Y-36041D01*
X57640Y-36037D01*
X57649Y-36034D01*
X57658Y-36033D01*
X57667Y-36033D01*
X57676Y-36036D01*
X57685Y-36040D01*
X57692Y-36046D01*
X57699Y-36053D01*
X57703Y-36062D01*
X57706Y-36071D01*
X57707Y-36080D01*
X57708Y-36081D01*
X57923Y-30598D02*
X57922Y-30607D01*
X57919Y-30616D01*
X57914Y-30625D01*
X57908Y-30632D01*
X57901Y-30638D01*
X57892Y-30643D01*
X57883Y-30645D01*
X57874Y-30646D01*
X57865Y-30646D01*
X57856Y-30643D01*
X57848Y-30639D01*
X57840Y-30633D01*
X57834Y-30625D01*
X57829Y-30617D01*
X57827Y-30608D01*
X57826Y-30598D01*
X57826Y-30590D01*
X57829Y-30580D01*
X57833Y-30572D01*
X57839Y-30564D01*
X57847Y-30558D01*
X57855Y-30554D01*
X57864Y-30551D01*
X57873Y-30550D01*
X57882Y-30550D01*
X57891Y-30553D01*
X57900Y-30557D01*
X57907Y-30563D01*
X57914Y-30570D01*
X57918Y-30579D01*
X57921Y-30588D01*
X57922Y-30597D01*
X57923Y-30598D01*
X58116Y-35350D02*
X58115Y-35359D01*
X58112Y-35368D01*
X58107Y-35377D01*
X58101Y-35384D01*
X58094Y-35390D01*
X58085Y-35395D01*
X58076Y-35397D01*
X58067Y-35398D01*
X58058Y-35398D01*
X58049Y-35395D01*
X58041Y-35391D01*
X58033Y-35385D01*
X58027Y-35377D01*
X58022Y-35369D01*
X58020Y-35360D01*
X58019Y-35350D01*
X58019Y-35342D01*
X58022Y-35332D01*
X58026Y-35324D01*
X58032Y-35316D01*
X58040Y-35310D01*
X58048Y-35306D01*
X58057Y-35303D01*
X58066Y-35302D01*
X58075Y-35302D01*
X58084Y-35305D01*
X58093Y-35309D01*
X58100Y-35315D01*
X58107Y-35322D01*
X58111Y-35331D01*
X58114Y-35340D01*
X58115Y-35349D01*
X58116Y-35350D01*
X58238Y-30591D02*
X58237Y-30600D01*
X58234Y-30609D01*
X58229Y-30618D01*
X58223Y-30625D01*
X58216Y-30631D01*
X58207Y-30636D01*
X58198Y-30638D01*
X58189Y-30639D01*
X58180Y-30639D01*
X58171Y-30636D01*
X58163Y-30632D01*
X58155Y-30626D01*
X58149Y-30618D01*
X58144Y-30610D01*
X58142Y-30601D01*
X58141Y-30591D01*
X58141Y-30583D01*
X58144Y-30573D01*
X58148Y-30565D01*
X58154Y-30557D01*
X58162Y-30551D01*
X58170Y-30547D01*
X58179Y-30544D01*
X58188Y-30543D01*
X58197Y-30543D01*
X58206Y-30546D01*
X58215Y-30550D01*
X58222Y-30556D01*
X58229Y-30563D01*
X58233Y-30572D01*
X58236Y-30581D01*
X58237Y-30590D01*
X58238Y-30591D01*
X58338Y-39222D02*
X58337Y-39231D01*
X58334Y-39240D01*
X58329Y-39249D01*
X58323Y-39256D01*
X58316Y-39262D01*
X58307Y-39267D01*
X58298Y-39269D01*
X58289Y-39270D01*
X58280Y-39270D01*
X58271Y-39267D01*
X58263Y-39263D01*
X58255Y-39257D01*
X58249Y-39249D01*
X58244Y-39241D01*
X58242Y-39232D01*
X58241Y-39222D01*
X58241Y-39214D01*
X58244Y-39204D01*
X58248Y-39196D01*
X58254Y-39188D01*
X58262Y-39182D01*
X58270Y-39178D01*
X58279Y-39175D01*
X58288Y-39174D01*
X58297Y-39174D01*
X58306Y-39177D01*
X58315Y-39181D01*
X58322Y-39187D01*
X58329Y-39194D01*
X58333Y-39203D01*
X58336Y-39212D01*
X58337Y-39221D01*
X58338Y-39222D01*
X58356Y-33543D02*
X58355Y-33552D01*
X58352Y-33561D01*
X58347Y-33570D01*
X58341Y-33577D01*
X58334Y-33583D01*
X58325Y-33588D01*
X58316Y-33590D01*
X58307Y-33591D01*
X58298Y-33591D01*
X58289Y-33588D01*
X58281Y-33584D01*
X58273Y-33578D01*
X58267Y-33570D01*
X58262Y-33562D01*
X58260Y-33553D01*
X58259Y-33543D01*
X58259Y-33535D01*
X58262Y-33525D01*
X58266Y-33517D01*
X58272Y-33509D01*
X58280Y-33503D01*
X58288Y-33499D01*
X58297Y-33496D01*
X58306Y-33495D01*
X58315Y-33495D01*
X58324Y-33498D01*
X58333Y-33502D01*
X58340Y-33508D01*
X58347Y-33515D01*
X58351Y-33524D01*
X58354Y-33533D01*
X58355Y-33542D01*
X58356Y-33543D01*
X58433Y-40449D02*
X58432Y-40458D01*
X58429Y-40467D01*
X58424Y-40476D01*
X58418Y-40483D01*
X58411Y-40489D01*
X58402Y-40494D01*
X58393Y-40496D01*
X58384Y-40497D01*
X58375Y-40497D01*
X58366Y-40494D01*
X58358Y-40490D01*
X58350Y-40484D01*
X58344Y-40476D01*
X58339Y-40468D01*
X58337Y-40459D01*
X58336Y-40449D01*
X58336Y-40441D01*
X58339Y-40431D01*
X58343Y-40423D01*
X58349Y-40415D01*
X58357Y-40409D01*
X58365Y-40405D01*
X58374Y-40402D01*
X58383Y-40401D01*
X58392Y-40401D01*
X58401Y-40404D01*
X58410Y-40408D01*
X58417Y-40414D01*
X58424Y-40421D01*
X58428Y-40430D01*
X58431Y-40439D01*
X58432Y-40448D01*
X58433Y-40449D01*
X58486Y-39854D02*
X58485Y-39863D01*
X58482Y-39872D01*
X58477Y-39881D01*
X58471Y-39888D01*
X58464Y-39894D01*
X58455Y-39899D01*
X58446Y-39901D01*
X58437Y-39902D01*
X58428Y-39902D01*
X58419Y-39899D01*
X58411Y-39895D01*
X58403Y-39889D01*
X58397Y-39881D01*
X58392Y-39873D01*
X58390Y-39864D01*
X58389Y-39854D01*
X58389Y-39846D01*
X58392Y-39836D01*
X58396Y-39828D01*
X58402Y-39820D01*
X58410Y-39814D01*
X58418Y-39810D01*
X58427Y-39807D01*
X58436Y-39806D01*
X58445Y-39806D01*
X58454Y-39809D01*
X58463Y-39813D01*
X58470Y-39819D01*
X58477Y-39826D01*
X58481Y-39835D01*
X58484Y-39844D01*
X58485Y-39853D01*
X58486Y-39854D01*
X58510Y-39539D02*
X58509Y-39548D01*
X58506Y-39557D01*
X58501Y-39566D01*
X58495Y-39573D01*
X58488Y-39579D01*
X58479Y-39584D01*
X58470Y-39586D01*
X58461Y-39587D01*
X58452Y-39587D01*
X58443Y-39584D01*
X58435Y-39580D01*
X58427Y-39574D01*
X58421Y-39566D01*
X58416Y-39558D01*
X58414Y-39549D01*
X58413Y-39539D01*
X58413Y-39531D01*
X58416Y-39521D01*
X58420Y-39513D01*
X58426Y-39505D01*
X58434Y-39499D01*
X58442Y-39495D01*
X58451Y-39492D01*
X58460Y-39491D01*
X58469Y-39491D01*
X58478Y-39494D01*
X58487Y-39498D01*
X58494Y-39504D01*
X58501Y-39511D01*
X58505Y-39520D01*
X58508Y-39529D01*
X58509Y-39538D01*
X58510Y-39539D01*
X58547Y-36089D02*
X58546Y-36098D01*
X58543Y-36107D01*
X58538Y-36116D01*
X58532Y-36123D01*
X58525Y-36129D01*
X58516Y-36134D01*
X58507Y-36136D01*
X58498Y-36137D01*
X58489Y-36137D01*
X58480Y-36134D01*
X58472Y-36130D01*
X58464Y-36124D01*
X58458Y-36116D01*
X58453Y-36108D01*
X58451Y-36099D01*
X58450Y-36089D01*
X58450Y-36081D01*
X58453Y-36071D01*
X58457Y-36063D01*
X58463Y-36055D01*
X58471Y-36049D01*
X58479Y-36045D01*
X58488Y-36042D01*
X58497Y-36041D01*
X58506Y-36041D01*
X58515Y-36044D01*
X58524Y-36048D01*
X58531Y-36054D01*
X58538Y-36061D01*
X58542Y-36070D01*
X58545Y-36079D01*
X58546Y-36088D01*
X58547Y-36089D01*
X58553Y-30598D02*
X58552Y-30607D01*
X58549Y-30616D01*
X58544Y-30625D01*
X58538Y-30632D01*
X58531Y-30638D01*
X58522Y-30643D01*
X58513Y-30645D01*
X58504Y-30646D01*
X58495Y-30646D01*
X58486Y-30643D01*
X58478Y-30639D01*
X58470Y-30633D01*
X58464Y-30625D01*
X58459Y-30617D01*
X58457Y-30608D01*
X58456Y-30598D01*
X58456Y-30590D01*
X58459Y-30580D01*
X58463Y-30572D01*
X58469Y-30564D01*
X58477Y-30558D01*
X58485Y-30554D01*
X58494Y-30551D01*
X58503Y-30550D01*
X58512Y-30550D01*
X58521Y-30553D01*
X58530Y-30557D01*
X58537Y-30563D01*
X58544Y-30570D01*
X58548Y-30579D01*
X58551Y-30588D01*
X58552Y-30597D01*
X58553Y-30598D01*
X58608Y-40213D02*
X58607Y-40222D01*
X58604Y-40231D01*
X58599Y-40240D01*
X58593Y-40247D01*
X58586Y-40253D01*
X58577Y-40258D01*
X58568Y-40260D01*
X58559Y-40261D01*
X58550Y-40261D01*
X58541Y-40258D01*
X58533Y-40254D01*
X58525Y-40248D01*
X58519Y-40240D01*
X58514Y-40232D01*
X58512Y-40223D01*
X58511Y-40213D01*
X58511Y-40205D01*
X58514Y-40195D01*
X58518Y-40187D01*
X58524Y-40179D01*
X58532Y-40173D01*
X58540Y-40169D01*
X58549Y-40166D01*
X58558Y-40165D01*
X58567Y-40165D01*
X58576Y-40168D01*
X58585Y-40172D01*
X58592Y-40178D01*
X58599Y-40185D01*
X58603Y-40194D01*
X58606Y-40203D01*
X58607Y-40212D01*
X58608Y-40213D01*
X58710Y-31537D02*
X58709Y-31546D01*
X58706Y-31555D01*
X58701Y-31564D01*
X58695Y-31571D01*
X58688Y-31577D01*
X58679Y-31582D01*
X58670Y-31584D01*
X58661Y-31585D01*
X58652Y-31585D01*
X58643Y-31582D01*
X58635Y-31578D01*
X58627Y-31572D01*
X58621Y-31564D01*
X58616Y-31556D01*
X58614Y-31547D01*
X58613Y-31537D01*
X58613Y-31529D01*
X58616Y-31519D01*
X58620Y-31511D01*
X58626Y-31503D01*
X58634Y-31497D01*
X58642Y-31493D01*
X58651Y-31490D01*
X58660Y-31489D01*
X58669Y-31489D01*
X58678Y-31492D01*
X58687Y-31496D01*
X58694Y-31502D01*
X58701Y-31509D01*
X58705Y-31518D01*
X58708Y-31527D01*
X58709Y-31536D01*
X58710Y-31537D01*
X58868Y-30618D02*
X58867Y-30627D01*
X58864Y-30636D01*
X58859Y-30645D01*
X58853Y-30652D01*
X58846Y-30658D01*
X58837Y-30663D01*
X58828Y-30665D01*
X58819Y-30666D01*
X58810Y-30666D01*
X58801Y-30663D01*
X58793Y-30659D01*
X58785Y-30653D01*
X58779Y-30645D01*
X58774Y-30637D01*
X58772Y-30628D01*
X58771Y-30618D01*
X58771Y-30610D01*
X58774Y-30600D01*
X58778Y-30592D01*
X58784Y-30584D01*
X58792Y-30578D01*
X58800Y-30574D01*
X58809Y-30571D01*
X58818Y-30570D01*
X58827Y-30570D01*
X58836Y-30573D01*
X58845Y-30577D01*
X58852Y-30583D01*
X58859Y-30590D01*
X58863Y-30599D01*
X58866Y-30608D01*
X58867Y-30617D01*
X58868Y-30618D01*
X59197Y-30654D02*
X59196Y-30663D01*
X59193Y-30672D01*
X59188Y-30681D01*
X59182Y-30688D01*
X59175Y-30694D01*
X59166Y-30699D01*
X59157Y-30701D01*
X59148Y-30702D01*
X59139Y-30702D01*
X59130Y-30699D01*
X59122Y-30695D01*
X59114Y-30689D01*
X59108Y-30681D01*
X59103Y-30673D01*
X59101Y-30664D01*
X59100Y-30654D01*
X59100Y-30646D01*
X59103Y-30636D01*
X59107Y-30628D01*
X59113Y-30620D01*
X59121Y-30614D01*
X59129Y-30610D01*
X59138Y-30607D01*
X59147Y-30606D01*
X59156Y-30606D01*
X59165Y-30609D01*
X59174Y-30613D01*
X59181Y-30619D01*
X59188Y-30626D01*
X59192Y-30635D01*
X59195Y-30644D01*
X59196Y-30653D01*
X59197Y-30654D01*
X59494Y-30626D02*
X59493Y-30635D01*
X59490Y-30644D01*
X59485Y-30653D01*
X59479Y-30660D01*
X59472Y-30666D01*
X59463Y-30671D01*
X59454Y-30673D01*
X59445Y-30674D01*
X59436Y-30674D01*
X59427Y-30671D01*
X59419Y-30667D01*
X59411Y-30661D01*
X59405Y-30653D01*
X59400Y-30645D01*
X59398Y-30636D01*
X59397Y-30626D01*
X59397Y-30618D01*
X59400Y-30608D01*
X59404Y-30600D01*
X59410Y-30592D01*
X59418Y-30586D01*
X59426Y-30582D01*
X59435Y-30579D01*
X59444Y-30578D01*
X59453Y-30578D01*
X59462Y-30581D01*
X59471Y-30585D01*
X59478Y-30591D01*
X59485Y-30598D01*
X59489Y-30607D01*
X59492Y-30616D01*
X59493Y-30625D01*
X59494Y-30626D01*
X59817Y-30626D02*
X59816Y-30635D01*
X59813Y-30644D01*
X59808Y-30653D01*
X59802Y-30660D01*
X59795Y-30666D01*
X59786Y-30671D01*
X59777Y-30673D01*
X59768Y-30674D01*
X59759Y-30674D01*
X59750Y-30671D01*
X59742Y-30667D01*
X59734Y-30661D01*
X59728Y-30653D01*
X59723Y-30645D01*
X59721Y-30636D01*
X59720Y-30626D01*
X59720Y-30618D01*
X59723Y-30608D01*
X59727Y-30600D01*
X59733Y-30592D01*
X59741Y-30586D01*
X59749Y-30582D01*
X59758Y-30579D01*
X59767Y-30578D01*
X59776Y-30578D01*
X59785Y-30581D01*
X59794Y-30585D01*
X59801Y-30591D01*
X59808Y-30598D01*
X59812Y-30607D01*
X59815Y-30616D01*
X59816Y-30625D01*
X59817Y-30626D01*
X59868Y-37689D02*
X59867Y-37698D01*
X59864Y-37707D01*
X59859Y-37716D01*
X59853Y-37723D01*
X59846Y-37729D01*
X59837Y-37734D01*
X59828Y-37736D01*
X59819Y-37737D01*
X59810Y-37737D01*
X59801Y-37734D01*
X59793Y-37730D01*
X59785Y-37724D01*
X59779Y-37716D01*
X59774Y-37708D01*
X59772Y-37699D01*
X59771Y-37689D01*
X59771Y-37681D01*
X59774Y-37671D01*
X59778Y-37663D01*
X59784Y-37655D01*
X59792Y-37649D01*
X59800Y-37645D01*
X59809Y-37642D01*
X59818Y-37641D01*
X59827Y-37641D01*
X59836Y-37644D01*
X59845Y-37648D01*
X59852Y-37654D01*
X59859Y-37661D01*
X59863Y-37670D01*
X59866Y-37679D01*
X59867Y-37688D01*
X59868Y-37689D01*
X59870Y-38083D02*
X59869Y-38092D01*
X59866Y-38101D01*
X59861Y-38110D01*
X59855Y-38117D01*
X59848Y-38123D01*
X59839Y-38128D01*
X59830Y-38130D01*
X59821Y-38131D01*
X59812Y-38131D01*
X59803Y-38128D01*
X59795Y-38124D01*
X59787Y-38118D01*
X59781Y-38110D01*
X59776Y-38102D01*
X59774Y-38093D01*
X59773Y-38083D01*
X59773Y-38075D01*
X59776Y-38065D01*
X59780Y-38057D01*
X59786Y-38049D01*
X59794Y-38043D01*
X59802Y-38039D01*
X59811Y-38036D01*
X59820Y-38035D01*
X59829Y-38035D01*
X59838Y-38038D01*
X59847Y-38042D01*
X59854Y-38048D01*
X59861Y-38055D01*
X59865Y-38064D01*
X59868Y-38073D01*
X59869Y-38082D01*
X59870Y-38083D01*
X59874Y-38490D02*
X59873Y-38499D01*
X59870Y-38508D01*
X59865Y-38517D01*
X59859Y-38524D01*
X59852Y-38530D01*
X59843Y-38535D01*
X59834Y-38537D01*
X59825Y-38538D01*
X59816Y-38538D01*
X59807Y-38535D01*
X59799Y-38531D01*
X59791Y-38525D01*
X59785Y-38517D01*
X59780Y-38509D01*
X59778Y-38500D01*
X59777Y-38490D01*
X59777Y-38482D01*
X59780Y-38472D01*
X59784Y-38464D01*
X59790Y-38456D01*
X59798Y-38450D01*
X59806Y-38446D01*
X59815Y-38443D01*
X59824Y-38442D01*
X59833Y-38442D01*
X59842Y-38445D01*
X59851Y-38449D01*
X59858Y-38455D01*
X59865Y-38462D01*
X59869Y-38471D01*
X59872Y-38480D01*
X59873Y-38489D01*
X59874Y-38490D01*
X59880Y-36100D02*
X59879Y-36109D01*
X59876Y-36118D01*
X59871Y-36127D01*
X59865Y-36134D01*
X59858Y-36140D01*
X59849Y-36145D01*
X59840Y-36147D01*
X59831Y-36148D01*
X59822Y-36148D01*
X59813Y-36145D01*
X59805Y-36141D01*
X59797Y-36135D01*
X59791Y-36127D01*
X59786Y-36119D01*
X59784Y-36110D01*
X59783Y-36100D01*
X59783Y-36092D01*
X59786Y-36082D01*
X59790Y-36074D01*
X59796Y-36066D01*
X59804Y-36060D01*
X59812Y-36056D01*
X59821Y-36053D01*
X59830Y-36052D01*
X59839Y-36052D01*
X59848Y-36055D01*
X59857Y-36059D01*
X59864Y-36065D01*
X59871Y-36072D01*
X59875Y-36081D01*
X59878Y-36090D01*
X59879Y-36099D01*
X59880Y-36100D01*
X59880Y-39224D02*
X59879Y-39233D01*
X59876Y-39242D01*
X59871Y-39251D01*
X59865Y-39258D01*
X59858Y-39264D01*
X59849Y-39269D01*
X59840Y-39271D01*
X59831Y-39272D01*
X59822Y-39272D01*
X59813Y-39269D01*
X59805Y-39265D01*
X59797Y-39259D01*
X59791Y-39251D01*
X59786Y-39243D01*
X59784Y-39234D01*
X59783Y-39224D01*
X59783Y-39216D01*
X59786Y-39206D01*
X59790Y-39198D01*
X59796Y-39190D01*
X59804Y-39184D01*
X59812Y-39180D01*
X59821Y-39177D01*
X59830Y-39176D01*
X59839Y-39176D01*
X59848Y-39179D01*
X59857Y-39183D01*
X59864Y-39189D01*
X59871Y-39196D01*
X59875Y-39205D01*
X59878Y-39214D01*
X59879Y-39223D01*
X59880Y-39224D01*
X59884Y-36496D02*
X59883Y-36505D01*
X59880Y-36514D01*
X59875Y-36523D01*
X59869Y-36530D01*
X59862Y-36536D01*
X59853Y-36541D01*
X59844Y-36543D01*
X59835Y-36544D01*
X59826Y-36544D01*
X59817Y-36541D01*
X59809Y-36537D01*
X59801Y-36531D01*
X59795Y-36523D01*
X59790Y-36515D01*
X59788Y-36506D01*
X59787Y-36496D01*
X59787Y-36488D01*
X59790Y-36478D01*
X59794Y-36470D01*
X59800Y-36462D01*
X59808Y-36456D01*
X59816Y-36452D01*
X59825Y-36449D01*
X59834Y-36448D01*
X59843Y-36448D01*
X59852Y-36451D01*
X59861Y-36455D01*
X59868Y-36461D01*
X59875Y-36468D01*
X59879Y-36477D01*
X59882Y-36486D01*
X59883Y-36495D01*
X59884Y-36496D01*
X59892Y-38846D02*
X59891Y-38855D01*
X59888Y-38864D01*
X59883Y-38873D01*
X59877Y-38880D01*
X59870Y-38886D01*
X59861Y-38891D01*
X59852Y-38893D01*
X59843Y-38894D01*
X59834Y-38894D01*
X59825Y-38891D01*
X59817Y-38887D01*
X59809Y-38881D01*
X59803Y-38873D01*
X59798Y-38865D01*
X59796Y-38856D01*
X59795Y-38846D01*
X59795Y-38838D01*
X59798Y-38828D01*
X59802Y-38820D01*
X59808Y-38812D01*
X59816Y-38806D01*
X59824Y-38802D01*
X59833Y-38799D01*
X59842Y-38798D01*
X59851Y-38798D01*
X59860Y-38801D01*
X59869Y-38805D01*
X59876Y-38811D01*
X59883Y-38818D01*
X59887Y-38827D01*
X59890Y-38836D01*
X59891Y-38845D01*
X59892Y-38846D01*
X59897Y-35728D02*
X59896Y-35737D01*
X59893Y-35746D01*
X59888Y-35755D01*
X59882Y-35762D01*
X59875Y-35768D01*
X59866Y-35773D01*
X59857Y-35775D01*
X59848Y-35776D01*
X59839Y-35776D01*
X59830Y-35773D01*
X59822Y-35769D01*
X59814Y-35763D01*
X59808Y-35755D01*
X59803Y-35747D01*
X59801Y-35738D01*
X59800Y-35728D01*
X59800Y-35720D01*
X59803Y-35710D01*
X59807Y-35702D01*
X59813Y-35694D01*
X59821Y-35688D01*
X59829Y-35684D01*
X59838Y-35681D01*
X59847Y-35680D01*
X59856Y-35680D01*
X59865Y-35683D01*
X59874Y-35687D01*
X59881Y-35693D01*
X59888Y-35700D01*
X59892Y-35709D01*
X59895Y-35718D01*
X59896Y-35727D01*
X59897Y-35728D01*
X59899Y-35341D02*
X59898Y-35350D01*
X59895Y-35359D01*
X59890Y-35368D01*
X59884Y-35375D01*
X59877Y-35381D01*
X59868Y-35386D01*
X59859Y-35388D01*
X59850Y-35389D01*
X59841Y-35389D01*
X59832Y-35386D01*
X59824Y-35382D01*
X59816Y-35376D01*
X59810Y-35368D01*
X59805Y-35360D01*
X59803Y-35351D01*
X59802Y-35341D01*
X59802Y-35333D01*
X59805Y-35323D01*
X59809Y-35315D01*
X59815Y-35307D01*
X59823Y-35301D01*
X59831Y-35297D01*
X59840Y-35294D01*
X59849Y-35293D01*
X59858Y-35293D01*
X59867Y-35296D01*
X59876Y-35300D01*
X59883Y-35306D01*
X59890Y-35313D01*
X59894Y-35322D01*
X59897Y-35331D01*
X59898Y-35340D01*
X59899Y-35341D01*
X59903Y-39689D02*
X59902Y-39698D01*
X59899Y-39707D01*
X59894Y-39716D01*
X59888Y-39723D01*
X59881Y-39729D01*
X59872Y-39734D01*
X59863Y-39736D01*
X59854Y-39737D01*
X59845Y-39737D01*
X59836Y-39734D01*
X59828Y-39730D01*
X59820Y-39724D01*
X59814Y-39716D01*
X59809Y-39708D01*
X59807Y-39699D01*
X59806Y-39689D01*
X59806Y-39681D01*
X59809Y-39671D01*
X59813Y-39663D01*
X59819Y-39655D01*
X59827Y-39649D01*
X59835Y-39645D01*
X59844Y-39642D01*
X59853Y-39641D01*
X59862Y-39641D01*
X59871Y-39644D01*
X59880Y-39648D01*
X59887Y-39654D01*
X59894Y-39661D01*
X59898Y-39670D01*
X59901Y-39679D01*
X59902Y-39688D01*
X59903Y-39689D01*
X59907Y-37268D02*
X59906Y-37277D01*
X59903Y-37286D01*
X59898Y-37295D01*
X59892Y-37302D01*
X59885Y-37308D01*
X59876Y-37313D01*
X59867Y-37315D01*
X59858Y-37316D01*
X59849Y-37316D01*
X59840Y-37313D01*
X59832Y-37309D01*
X59824Y-37303D01*
X59818Y-37295D01*
X59813Y-37287D01*
X59811Y-37278D01*
X59810Y-37268D01*
X59810Y-37260D01*
X59813Y-37250D01*
X59817Y-37242D01*
X59823Y-37234D01*
X59831Y-37228D01*
X59839Y-37224D01*
X59848Y-37221D01*
X59857Y-37220D01*
X59866Y-37220D01*
X59875Y-37223D01*
X59884Y-37227D01*
X59891Y-37233D01*
X59898Y-37240D01*
X59902Y-37249D01*
X59905Y-37258D01*
X59906Y-37267D01*
X59907Y-37268D01*
X60128Y-30646D02*
X60127Y-30655D01*
X60124Y-30664D01*
X60119Y-30673D01*
X60113Y-30680D01*
X60106Y-30686D01*
X60097Y-30691D01*
X60088Y-30693D01*
X60079Y-30694D01*
X60070Y-30694D01*
X60061Y-30691D01*
X60053Y-30687D01*
X60045Y-30681D01*
X60039Y-30673D01*
X60034Y-30665D01*
X60032Y-30656D01*
X60031Y-30646D01*
X60031Y-30638D01*
X60034Y-30628D01*
X60038Y-30620D01*
X60044Y-30612D01*
X60052Y-30606D01*
X60060Y-30602D01*
X60069Y-30599D01*
X60078Y-30598D01*
X60087Y-30598D01*
X60096Y-30601D01*
X60105Y-30605D01*
X60112Y-30611D01*
X60119Y-30618D01*
X60123Y-30627D01*
X60126Y-30636D01*
X60127Y-30645D01*
X60128Y-30646D01*
X60273Y-38069D02*
X60272Y-38078D01*
X60269Y-38087D01*
X60264Y-38096D01*
X60258Y-38103D01*
X60251Y-38109D01*
X60242Y-38114D01*
X60233Y-38116D01*
X60224Y-38117D01*
X60215Y-38117D01*
X60206Y-38114D01*
X60198Y-38110D01*
X60190Y-38104D01*
X60184Y-38096D01*
X60179Y-38088D01*
X60177Y-38079D01*
X60176Y-38069D01*
X60176Y-38061D01*
X60179Y-38051D01*
X60183Y-38043D01*
X60189Y-38035D01*
X60197Y-38029D01*
X60205Y-38025D01*
X60214Y-38022D01*
X60223Y-38021D01*
X60232Y-38021D01*
X60241Y-38024D01*
X60250Y-38028D01*
X60257Y-38034D01*
X60264Y-38041D01*
X60268Y-38050D01*
X60271Y-38059D01*
X60272Y-38068D01*
X60273Y-38069D01*
X60275Y-35321D02*
X60274Y-35330D01*
X60271Y-35339D01*
X60266Y-35348D01*
X60260Y-35355D01*
X60253Y-35361D01*
X60244Y-35366D01*
X60235Y-35368D01*
X60226Y-35369D01*
X60217Y-35369D01*
X60208Y-35366D01*
X60200Y-35362D01*
X60192Y-35356D01*
X60186Y-35348D01*
X60181Y-35340D01*
X60179Y-35331D01*
X60178Y-35321D01*
X60178Y-35313D01*
X60181Y-35303D01*
X60185Y-35295D01*
X60191Y-35287D01*
X60199Y-35281D01*
X60207Y-35277D01*
X60216Y-35274D01*
X60225Y-35273D01*
X60234Y-35273D01*
X60243Y-35276D01*
X60252Y-35280D01*
X60259Y-35286D01*
X60266Y-35293D01*
X60270Y-35302D01*
X60273Y-35311D01*
X60274Y-35320D01*
X60275Y-35321D01*
X60275Y-36108D02*
X60274Y-36117D01*
X60271Y-36126D01*
X60266Y-36135D01*
X60260Y-36142D01*
X60253Y-36148D01*
X60244Y-36153D01*
X60235Y-36155D01*
X60226Y-36156D01*
X60217Y-36156D01*
X60208Y-36153D01*
X60200Y-36149D01*
X60192Y-36143D01*
X60186Y-36135D01*
X60181Y-36127D01*
X60179Y-36118D01*
X60178Y-36108D01*
X60178Y-36100D01*
X60181Y-36090D01*
X60185Y-36082D01*
X60191Y-36074D01*
X60199Y-36068D01*
X60207Y-36064D01*
X60216Y-36061D01*
X60225Y-36060D01*
X60234Y-36060D01*
X60243Y-36063D01*
X60252Y-36067D01*
X60259Y-36073D01*
X60266Y-36080D01*
X60270Y-36089D01*
X60273Y-36098D01*
X60274Y-36107D01*
X60275Y-36108D01*
X60277Y-35715D02*
X60276Y-35724D01*
X60273Y-35733D01*
X60268Y-35742D01*
X60262Y-35749D01*
X60255Y-35755D01*
X60246Y-35760D01*
X60237Y-35762D01*
X60228Y-35763D01*
X60219Y-35763D01*
X60210Y-35760D01*
X60202Y-35756D01*
X60194Y-35750D01*
X60188Y-35742D01*
X60183Y-35734D01*
X60181Y-35725D01*
X60180Y-35715D01*
X60180Y-35707D01*
X60183Y-35697D01*
X60187Y-35689D01*
X60193Y-35681D01*
X60201Y-35675D01*
X60209Y-35671D01*
X60218Y-35668D01*
X60227Y-35667D01*
X60236Y-35667D01*
X60245Y-35670D01*
X60254Y-35674D01*
X60261Y-35680D01*
X60268Y-35687D01*
X60272Y-35696D01*
X60275Y-35705D01*
X60276Y-35714D01*
X60277Y-35715D01*
X60277Y-37272D02*
X60276Y-37281D01*
X60273Y-37290D01*
X60268Y-37299D01*
X60262Y-37306D01*
X60255Y-37312D01*
X60246Y-37317D01*
X60237Y-37319D01*
X60228Y-37320D01*
X60219Y-37320D01*
X60210Y-37317D01*
X60202Y-37313D01*
X60194Y-37307D01*
X60188Y-37299D01*
X60183Y-37291D01*
X60181Y-37282D01*
X60180Y-37272D01*
X60180Y-37264D01*
X60183Y-37254D01*
X60187Y-37246D01*
X60193Y-37238D01*
X60201Y-37232D01*
X60209Y-37228D01*
X60218Y-37225D01*
X60227Y-37224D01*
X60236Y-37224D01*
X60245Y-37227D01*
X60254Y-37231D01*
X60261Y-37237D01*
X60268Y-37244D01*
X60272Y-37253D01*
X60275Y-37262D01*
X60276Y-37271D01*
X60277Y-37272D01*
X60285Y-37665D02*
X60284Y-37674D01*
X60281Y-37683D01*
X60276Y-37692D01*
X60270Y-37699D01*
X60263Y-37705D01*
X60254Y-37710D01*
X60245Y-37712D01*
X60236Y-37713D01*
X60227Y-37713D01*
X60218Y-37710D01*
X60210Y-37706D01*
X60202Y-37700D01*
X60196Y-37692D01*
X60191Y-37684D01*
X60189Y-37675D01*
X60188Y-37665D01*
X60188Y-37657D01*
X60191Y-37647D01*
X60195Y-37639D01*
X60201Y-37631D01*
X60209Y-37625D01*
X60217Y-37621D01*
X60226Y-37618D01*
X60235Y-37617D01*
X60244Y-37617D01*
X60253Y-37620D01*
X60262Y-37624D01*
X60269Y-37630D01*
X60276Y-37637D01*
X60280Y-37646D01*
X60283Y-37655D01*
X60284Y-37664D01*
X60285Y-37665D01*
X60285Y-38461D02*
X60284Y-38470D01*
X60281Y-38479D01*
X60276Y-38488D01*
X60270Y-38495D01*
X60263Y-38501D01*
X60254Y-38506D01*
X60245Y-38508D01*
X60236Y-38509D01*
X60227Y-38509D01*
X60218Y-38506D01*
X60210Y-38502D01*
X60202Y-38496D01*
X60196Y-38488D01*
X60191Y-38480D01*
X60189Y-38471D01*
X60188Y-38461D01*
X60188Y-38453D01*
X60191Y-38443D01*
X60195Y-38435D01*
X60201Y-38427D01*
X60209Y-38421D01*
X60217Y-38417D01*
X60226Y-38414D01*
X60235Y-38413D01*
X60244Y-38413D01*
X60253Y-38416D01*
X60262Y-38420D01*
X60269Y-38426D01*
X60276Y-38433D01*
X60280Y-38442D01*
X60283Y-38451D01*
X60284Y-38460D01*
X60285Y-38461D01*
X60297Y-36520D02*
X60296Y-36529D01*
X60293Y-36538D01*
X60288Y-36547D01*
X60282Y-36554D01*
X60275Y-36560D01*
X60266Y-36565D01*
X60257Y-36567D01*
X60248Y-36568D01*
X60239Y-36568D01*
X60230Y-36565D01*
X60222Y-36561D01*
X60214Y-36555D01*
X60208Y-36547D01*
X60203Y-36539D01*
X60201Y-36530D01*
X60200Y-36520D01*
X60200Y-36512D01*
X60203Y-36502D01*
X60207Y-36494D01*
X60213Y-36486D01*
X60221Y-36480D01*
X60229Y-36476D01*
X60238Y-36473D01*
X60247Y-36472D01*
X60256Y-36472D01*
X60265Y-36475D01*
X60274Y-36479D01*
X60281Y-36485D01*
X60288Y-36492D01*
X60292Y-36501D01*
X60295Y-36510D01*
X60296Y-36519D01*
X60297Y-36520D01*
X60443Y-30646D02*
X60442Y-30655D01*
X60439Y-30664D01*
X60434Y-30673D01*
X60428Y-30680D01*
X60421Y-30686D01*
X60412Y-30691D01*
X60403Y-30693D01*
X60394Y-30694D01*
X60385Y-30694D01*
X60376Y-30691D01*
X60368Y-30687D01*
X60360Y-30681D01*
X60354Y-30673D01*
X60349Y-30665D01*
X60347Y-30656D01*
X60346Y-30646D01*
X60346Y-30638D01*
X60349Y-30628D01*
X60353Y-30620D01*
X60359Y-30612D01*
X60367Y-30606D01*
X60375Y-30602D01*
X60384Y-30599D01*
X60393Y-30598D01*
X60402Y-30598D01*
X60411Y-30601D01*
X60420Y-30605D01*
X60427Y-30611D01*
X60434Y-30618D01*
X60438Y-30627D01*
X60441Y-30636D01*
X60442Y-30645D01*
X60443Y-30646D01*
X60651Y-38091D02*
X60650Y-38100D01*
X60647Y-38109D01*
X60642Y-38118D01*
X60636Y-38125D01*
X60629Y-38131D01*
X60620Y-38136D01*
X60611Y-38138D01*
X60602Y-38139D01*
X60593Y-38139D01*
X60584Y-38136D01*
X60576Y-38132D01*
X60568Y-38126D01*
X60562Y-38118D01*
X60557Y-38110D01*
X60555Y-38101D01*
X60554Y-38091D01*
X60554Y-38083D01*
X60557Y-38073D01*
X60561Y-38065D01*
X60567Y-38057D01*
X60575Y-38051D01*
X60583Y-38047D01*
X60592Y-38044D01*
X60601Y-38043D01*
X60610Y-38043D01*
X60619Y-38046D01*
X60628Y-38050D01*
X60635Y-38056D01*
X60642Y-38063D01*
X60646Y-38072D01*
X60649Y-38081D01*
X60650Y-38090D01*
X60651Y-38091D01*
X60659Y-36488D02*
X60658Y-36497D01*
X60655Y-36506D01*
X60650Y-36515D01*
X60644Y-36522D01*
X60637Y-36528D01*
X60628Y-36533D01*
X60619Y-36535D01*
X60610Y-36536D01*
X60601Y-36536D01*
X60592Y-36533D01*
X60584Y-36529D01*
X60576Y-36523D01*
X60570Y-36515D01*
X60565Y-36507D01*
X60563Y-36498D01*
X60562Y-36488D01*
X60562Y-36480D01*
X60565Y-36470D01*
X60569Y-36462D01*
X60575Y-36454D01*
X60583Y-36448D01*
X60591Y-36444D01*
X60600Y-36441D01*
X60609Y-36440D01*
X60618Y-36440D01*
X60627Y-36443D01*
X60636Y-36447D01*
X60643Y-36453D01*
X60650Y-36460D01*
X60654Y-36469D01*
X60657Y-36478D01*
X60658Y-36487D01*
X60659Y-36488D01*
X60659Y-38846D02*
X60658Y-38855D01*
X60655Y-38864D01*
X60650Y-38873D01*
X60644Y-38880D01*
X60637Y-38886D01*
X60628Y-38891D01*
X60619Y-38893D01*
X60610Y-38894D01*
X60601Y-38894D01*
X60592Y-38891D01*
X60584Y-38887D01*
X60576Y-38881D01*
X60570Y-38873D01*
X60565Y-38865D01*
X60563Y-38856D01*
X60562Y-38846D01*
X60562Y-38838D01*
X60565Y-38828D01*
X60569Y-38820D01*
X60575Y-38812D01*
X60583Y-38806D01*
X60591Y-38802D01*
X60600Y-38799D01*
X60609Y-38798D01*
X60618Y-38798D01*
X60627Y-38801D01*
X60636Y-38805D01*
X60643Y-38811D01*
X60650Y-38818D01*
X60654Y-38827D01*
X60657Y-38836D01*
X60658Y-38845D01*
X60659Y-38846D01*
X60669Y-35709D02*
X60668Y-35718D01*
X60665Y-35727D01*
X60660Y-35736D01*
X60654Y-35743D01*
X60647Y-35749D01*
X60638Y-35754D01*
X60629Y-35756D01*
X60620Y-35757D01*
X60611Y-35757D01*
X60602Y-35754D01*
X60594Y-35750D01*
X60586Y-35744D01*
X60580Y-35736D01*
X60575Y-35728D01*
X60573Y-35719D01*
X60572Y-35709D01*
X60572Y-35701D01*
X60575Y-35691D01*
X60579Y-35683D01*
X60585Y-35675D01*
X60593Y-35669D01*
X60601Y-35665D01*
X60610Y-35662D01*
X60619Y-35661D01*
X60628Y-35661D01*
X60637Y-35664D01*
X60646Y-35668D01*
X60653Y-35674D01*
X60660Y-35681D01*
X60664Y-35690D01*
X60667Y-35699D01*
X60668Y-35708D01*
X60669Y-35709D01*
X60671Y-37673D02*
X60670Y-37682D01*
X60667Y-37691D01*
X60662Y-37700D01*
X60656Y-37707D01*
X60649Y-37713D01*
X60640Y-37718D01*
X60631Y-37720D01*
X60622Y-37721D01*
X60613Y-37721D01*
X60604Y-37718D01*
X60596Y-37714D01*
X60588Y-37708D01*
X60582Y-37700D01*
X60577Y-37692D01*
X60575Y-37683D01*
X60574Y-37673D01*
X60574Y-37665D01*
X60577Y-37655D01*
X60581Y-37647D01*
X60587Y-37639D01*
X60595Y-37633D01*
X60603Y-37629D01*
X60612Y-37626D01*
X60621Y-37625D01*
X60630Y-37625D01*
X60639Y-37628D01*
X60648Y-37632D01*
X60655Y-37638D01*
X60662Y-37645D01*
X60666Y-37654D01*
X60669Y-37663D01*
X60670Y-37672D01*
X60671Y-37673D01*
X60679Y-35327D02*
X60678Y-35336D01*
X60675Y-35345D01*
X60670Y-35354D01*
X60664Y-35361D01*
X60657Y-35367D01*
X60648Y-35372D01*
X60639Y-35374D01*
X60630Y-35375D01*
X60621Y-35375D01*
X60612Y-35372D01*
X60604Y-35368D01*
X60596Y-35362D01*
X60590Y-35354D01*
X60585Y-35346D01*
X60583Y-35337D01*
X60582Y-35327D01*
X60582Y-35319D01*
X60585Y-35309D01*
X60589Y-35301D01*
X60595Y-35293D01*
X60603Y-35287D01*
X60611Y-35283D01*
X60620Y-35280D01*
X60629Y-35279D01*
X60638Y-35279D01*
X60647Y-35282D01*
X60656Y-35286D01*
X60663Y-35292D01*
X60670Y-35299D01*
X60674Y-35308D01*
X60677Y-35317D01*
X60678Y-35326D01*
X60679Y-35327D01*
X60687Y-36909D02*
X60686Y-36918D01*
X60683Y-36927D01*
X60678Y-36936D01*
X60672Y-36943D01*
X60665Y-36949D01*
X60656Y-36954D01*
X60647Y-36956D01*
X60638Y-36957D01*
X60629Y-36957D01*
X60620Y-36954D01*
X60612Y-36950D01*
X60604Y-36944D01*
X60598Y-36936D01*
X60593Y-36928D01*
X60591Y-36919D01*
X60590Y-36909D01*
X60590Y-36901D01*
X60593Y-36891D01*
X60597Y-36883D01*
X60603Y-36875D01*
X60611Y-36869D01*
X60619Y-36865D01*
X60628Y-36862D01*
X60637Y-36861D01*
X60646Y-36861D01*
X60655Y-36864D01*
X60664Y-36868D01*
X60671Y-36874D01*
X60678Y-36881D01*
X60682Y-36890D01*
X60685Y-36899D01*
X60686Y-36908D01*
X60687Y-36909D01*
X61014Y-30673D02*
X61013Y-30682D01*
X61010Y-30691D01*
X61005Y-30700D01*
X60999Y-30707D01*
X60992Y-30713D01*
X60983Y-30718D01*
X60974Y-30720D01*
X60965Y-30721D01*
X60956Y-30721D01*
X60947Y-30718D01*
X60939Y-30714D01*
X60931Y-30708D01*
X60925Y-30700D01*
X60920Y-30692D01*
X60918Y-30683D01*
X60917Y-30673D01*
X60917Y-30665D01*
X60920Y-30655D01*
X60924Y-30647D01*
X60930Y-30639D01*
X60938Y-30633D01*
X60946Y-30629D01*
X60955Y-30626D01*
X60964Y-30625D01*
X60973Y-30625D01*
X60982Y-30628D01*
X60991Y-30632D01*
X60998Y-30638D01*
X61005Y-30645D01*
X61009Y-30654D01*
X61012Y-30663D01*
X61013Y-30672D01*
X61014Y-30673D01*
X61057Y-35720D02*
X61056Y-35729D01*
X61053Y-35738D01*
X61048Y-35747D01*
X61042Y-35754D01*
X61035Y-35760D01*
X61026Y-35765D01*
X61017Y-35767D01*
X61008Y-35768D01*
X60999Y-35768D01*
X60990Y-35765D01*
X60982Y-35761D01*
X60974Y-35755D01*
X60968Y-35747D01*
X60963Y-35739D01*
X60961Y-35730D01*
X60960Y-35720D01*
X60960Y-35712D01*
X60963Y-35702D01*
X60967Y-35694D01*
X60973Y-35686D01*
X60981Y-35680D01*
X60989Y-35676D01*
X60998Y-35673D01*
X61007Y-35672D01*
X61016Y-35672D01*
X61025Y-35675D01*
X61034Y-35679D01*
X61041Y-35685D01*
X61048Y-35692D01*
X61052Y-35701D01*
X61055Y-35710D01*
X61056Y-35719D01*
X61057Y-35720D01*
X61065Y-36492D02*
X61064Y-36501D01*
X61061Y-36510D01*
X61056Y-36519D01*
X61050Y-36526D01*
X61043Y-36532D01*
X61034Y-36537D01*
X61025Y-36539D01*
X61016Y-36540D01*
X61007Y-36540D01*
X60998Y-36537D01*
X60990Y-36533D01*
X60982Y-36527D01*
X60976Y-36519D01*
X60971Y-36511D01*
X60969Y-36502D01*
X60968Y-36492D01*
X60968Y-36484D01*
X60971Y-36474D01*
X60975Y-36466D01*
X60981Y-36458D01*
X60989Y-36452D01*
X60997Y-36448D01*
X61006Y-36445D01*
X61015Y-36444D01*
X61024Y-36444D01*
X61033Y-36447D01*
X61042Y-36451D01*
X61049Y-36457D01*
X61056Y-36464D01*
X61060Y-36473D01*
X61063Y-36482D01*
X61064Y-36491D01*
X61065Y-36492D01*
X61073Y-29969D02*
X61072Y-29978D01*
X61069Y-29987D01*
X61064Y-29996D01*
X61058Y-30003D01*
X61051Y-30009D01*
X61042Y-30014D01*
X61033Y-30016D01*
X61024Y-30017D01*
X61015Y-30017D01*
X61006Y-30014D01*
X60998Y-30010D01*
X60990Y-30004D01*
X60984Y-29996D01*
X60979Y-29988D01*
X60977Y-29979D01*
X60976Y-29969D01*
X60976Y-29961D01*
X60979Y-29951D01*
X60983Y-29943D01*
X60989Y-29935D01*
X60997Y-29929D01*
X61005Y-29925D01*
X61014Y-29922D01*
X61023Y-29921D01*
X61032Y-29921D01*
X61041Y-29924D01*
X61050Y-29928D01*
X61057Y-29934D01*
X61064Y-29941D01*
X61068Y-29950D01*
X61071Y-29959D01*
X61072Y-29968D01*
X61073Y-29969D01*
X61073Y-39650D02*
X61072Y-39659D01*
X61069Y-39668D01*
X61064Y-39677D01*
X61058Y-39684D01*
X61051Y-39690D01*
X61042Y-39695D01*
X61033Y-39697D01*
X61024Y-39698D01*
X61015Y-39698D01*
X61006Y-39695D01*
X60998Y-39691D01*
X60990Y-39685D01*
X60984Y-39677D01*
X60979Y-39669D01*
X60977Y-39660D01*
X60976Y-39650D01*
X60976Y-39642D01*
X60979Y-39632D01*
X60983Y-39624D01*
X60989Y-39616D01*
X60997Y-39610D01*
X61005Y-39606D01*
X61014Y-39603D01*
X61023Y-39602D01*
X61032Y-39602D01*
X61041Y-39605D01*
X61050Y-39609D01*
X61057Y-39615D01*
X61064Y-39622D01*
X61068Y-39631D01*
X61071Y-39640D01*
X61072Y-39649D01*
X61073Y-39650D01*
X61088Y-35343D02*
X61087Y-35352D01*
X61084Y-35361D01*
X61079Y-35370D01*
X61073Y-35377D01*
X61066Y-35383D01*
X61057Y-35388D01*
X61048Y-35390D01*
X61039Y-35391D01*
X61030Y-35391D01*
X61021Y-35388D01*
X61013Y-35384D01*
X61005Y-35378D01*
X60999Y-35370D01*
X60994Y-35362D01*
X60992Y-35353D01*
X60991Y-35343D01*
X60991Y-35335D01*
X60994Y-35325D01*
X60998Y-35317D01*
X61004Y-35309D01*
X61012Y-35303D01*
X61020Y-35299D01*
X61029Y-35296D01*
X61038Y-35295D01*
X61047Y-35295D01*
X61056Y-35298D01*
X61065Y-35302D01*
X61072Y-35308D01*
X61079Y-35315D01*
X61083Y-35324D01*
X61086Y-35333D01*
X61087Y-35342D01*
X61088Y-35343D01*
X61175Y-33622D02*
X61174Y-33631D01*
X61171Y-33640D01*
X61166Y-33649D01*
X61160Y-33656D01*
X61153Y-33662D01*
X61144Y-33667D01*
X61135Y-33669D01*
X61126Y-33670D01*
X61117Y-33670D01*
X61108Y-33667D01*
X61100Y-33663D01*
X61092Y-33657D01*
X61086Y-33649D01*
X61081Y-33641D01*
X61079Y-33632D01*
X61078Y-33622D01*
X61078Y-33614D01*
X61081Y-33604D01*
X61085Y-33596D01*
X61091Y-33588D01*
X61099Y-33582D01*
X61107Y-33578D01*
X61116Y-33575D01*
X61125Y-33574D01*
X61134Y-33574D01*
X61143Y-33577D01*
X61152Y-33581D01*
X61159Y-33587D01*
X61166Y-33594D01*
X61170Y-33603D01*
X61173Y-33612D01*
X61174Y-33621D01*
X61175Y-33622D01*
X61214Y-33272D02*
X61213Y-33281D01*
X61210Y-33290D01*
X61205Y-33299D01*
X61199Y-33306D01*
X61192Y-33312D01*
X61183Y-33317D01*
X61174Y-33319D01*
X61165Y-33320D01*
X61156Y-33320D01*
X61147Y-33317D01*
X61139Y-33313D01*
X61131Y-33307D01*
X61125Y-33299D01*
X61120Y-33291D01*
X61118Y-33282D01*
X61117Y-33272D01*
X61117Y-33264D01*
X61120Y-33254D01*
X61124Y-33246D01*
X61130Y-33238D01*
X61138Y-33232D01*
X61146Y-33228D01*
X61155Y-33225D01*
X61164Y-33224D01*
X61173Y-33224D01*
X61182Y-33227D01*
X61191Y-33231D01*
X61198Y-33237D01*
X61205Y-33244D01*
X61209Y-33253D01*
X61212Y-33262D01*
X61213Y-33271D01*
X61214Y-33272D01*
X61439Y-37303D02*
X61438Y-37312D01*
X61435Y-37321D01*
X61430Y-37330D01*
X61424Y-37337D01*
X61417Y-37343D01*
X61408Y-37348D01*
X61399Y-37350D01*
X61390Y-37351D01*
X61381Y-37351D01*
X61372Y-37348D01*
X61364Y-37344D01*
X61356Y-37338D01*
X61350Y-37330D01*
X61345Y-37322D01*
X61343Y-37313D01*
X61342Y-37303D01*
X61342Y-37295D01*
X61345Y-37285D01*
X61349Y-37277D01*
X61355Y-37269D01*
X61363Y-37263D01*
X61371Y-37259D01*
X61380Y-37256D01*
X61389Y-37255D01*
X61398Y-37255D01*
X61407Y-37258D01*
X61416Y-37262D01*
X61423Y-37268D01*
X61430Y-37275D01*
X61434Y-37284D01*
X61437Y-37293D01*
X61438Y-37302D01*
X61439Y-37303D01*
X61447Y-39240D02*
X61446Y-39249D01*
X61443Y-39258D01*
X61438Y-39267D01*
X61432Y-39274D01*
X61425Y-39280D01*
X61416Y-39285D01*
X61407Y-39287D01*
X61398Y-39288D01*
X61389Y-39288D01*
X61380Y-39285D01*
X61372Y-39281D01*
X61364Y-39275D01*
X61358Y-39267D01*
X61353Y-39259D01*
X61351Y-39250D01*
X61350Y-39240D01*
X61350Y-39232D01*
X61353Y-39222D01*
X61357Y-39214D01*
X61363Y-39206D01*
X61371Y-39200D01*
X61379Y-39196D01*
X61388Y-39193D01*
X61397Y-39192D01*
X61406Y-39192D01*
X61415Y-39195D01*
X61424Y-39199D01*
X61431Y-39205D01*
X61438Y-39212D01*
X61442Y-39221D01*
X61445Y-39230D01*
X61446Y-39239D01*
X61447Y-39240D01*
X61453Y-37677D02*
X61452Y-37686D01*
X61449Y-37695D01*
X61444Y-37704D01*
X61438Y-37711D01*
X61431Y-37717D01*
X61422Y-37722D01*
X61413Y-37724D01*
X61404Y-37725D01*
X61395Y-37725D01*
X61386Y-37722D01*
X61378Y-37718D01*
X61370Y-37712D01*
X61364Y-37704D01*
X61359Y-37696D01*
X61357Y-37687D01*
X61356Y-37677D01*
X61356Y-37669D01*
X61359Y-37659D01*
X61363Y-37651D01*
X61369Y-37643D01*
X61377Y-37637D01*
X61385Y-37633D01*
X61394Y-37630D01*
X61403Y-37629D01*
X61412Y-37629D01*
X61421Y-37632D01*
X61430Y-37636D01*
X61437Y-37642D01*
X61444Y-37649D01*
X61448Y-37658D01*
X61451Y-37667D01*
X61452Y-37676D01*
X61453Y-37677D01*
X61456Y-34933D02*
X61455Y-34942D01*
X61452Y-34951D01*
X61447Y-34960D01*
X61441Y-34967D01*
X61434Y-34973D01*
X61425Y-34978D01*
X61416Y-34980D01*
X61407Y-34981D01*
X61398Y-34981D01*
X61389Y-34978D01*
X61381Y-34974D01*
X61373Y-34968D01*
X61367Y-34960D01*
X61362Y-34952D01*
X61360Y-34943D01*
X61359Y-34933D01*
X61359Y-34925D01*
X61362Y-34915D01*
X61366Y-34907D01*
X61372Y-34899D01*
X61380Y-34893D01*
X61388Y-34889D01*
X61397Y-34886D01*
X61406Y-34885D01*
X61415Y-34885D01*
X61424Y-34888D01*
X61433Y-34892D01*
X61440Y-34898D01*
X61447Y-34905D01*
X61451Y-34914D01*
X61454Y-34923D01*
X61455Y-34932D01*
X61456Y-34933D01*
X61464Y-36874D02*
X61463Y-36883D01*
X61460Y-36892D01*
X61455Y-36901D01*
X61449Y-36908D01*
X61442Y-36914D01*
X61433Y-36919D01*
X61424Y-36921D01*
X61415Y-36922D01*
X61406Y-36922D01*
X61397Y-36919D01*
X61389Y-36915D01*
X61381Y-36909D01*
X61375Y-36901D01*
X61370Y-36893D01*
X61368Y-36884D01*
X61367Y-36874D01*
X61367Y-36866D01*
X61370Y-36856D01*
X61374Y-36848D01*
X61380Y-36840D01*
X61388Y-36834D01*
X61396Y-36830D01*
X61405Y-36827D01*
X61414Y-36826D01*
X61423Y-36826D01*
X61432Y-36829D01*
X61441Y-36833D01*
X61448Y-36839D01*
X61455Y-36846D01*
X61459Y-36855D01*
X61462Y-36864D01*
X61463Y-36873D01*
X61464Y-36874D01*
X61470Y-35346D02*
X61469Y-35355D01*
X61466Y-35364D01*
X61461Y-35373D01*
X61455Y-35380D01*
X61448Y-35386D01*
X61439Y-35391D01*
X61430Y-35393D01*
X61421Y-35394D01*
X61412Y-35394D01*
X61403Y-35391D01*
X61395Y-35387D01*
X61387Y-35381D01*
X61381Y-35373D01*
X61376Y-35365D01*
X61374Y-35356D01*
X61373Y-35346D01*
X61373Y-35338D01*
X61376Y-35328D01*
X61380Y-35320D01*
X61386Y-35312D01*
X61394Y-35306D01*
X61402Y-35302D01*
X61411Y-35299D01*
X61420Y-35298D01*
X61429Y-35298D01*
X61438Y-35301D01*
X61447Y-35305D01*
X61454Y-35311D01*
X61461Y-35318D01*
X61465Y-35327D01*
X61468Y-35336D01*
X61469Y-35345D01*
X61470Y-35346D01*
X61474Y-31815D02*
X61473Y-31824D01*
X61470Y-31833D01*
X61465Y-31842D01*
X61459Y-31849D01*
X61452Y-31855D01*
X61443Y-31860D01*
X61434Y-31862D01*
X61425Y-31863D01*
X61416Y-31863D01*
X61407Y-31860D01*
X61399Y-31856D01*
X61391Y-31850D01*
X61385Y-31842D01*
X61380Y-31834D01*
X61378Y-31825D01*
X61377Y-31815D01*
X61377Y-31807D01*
X61380Y-31797D01*
X61384Y-31789D01*
X61390Y-31781D01*
X61398Y-31775D01*
X61406Y-31771D01*
X61415Y-31768D01*
X61424Y-31767D01*
X61433Y-31767D01*
X61442Y-31770D01*
X61451Y-31774D01*
X61458Y-31780D01*
X61465Y-31787D01*
X61469Y-31796D01*
X61472Y-31805D01*
X61473Y-31814D01*
X61474Y-31815D01*
X61478Y-38453D02*
X61477Y-38462D01*
X61474Y-38471D01*
X61469Y-38480D01*
X61463Y-38487D01*
X61456Y-38493D01*
X61447Y-38498D01*
X61438Y-38500D01*
X61429Y-38501D01*
X61420Y-38501D01*
X61411Y-38498D01*
X61403Y-38494D01*
X61395Y-38488D01*
X61389Y-38480D01*
X61384Y-38472D01*
X61382Y-38463D01*
X61381Y-38453D01*
X61381Y-38445D01*
X61384Y-38435D01*
X61388Y-38427D01*
X61394Y-38419D01*
X61402Y-38413D01*
X61410Y-38409D01*
X61419Y-38406D01*
X61428Y-38405D01*
X61437Y-38405D01*
X61446Y-38408D01*
X61455Y-38412D01*
X61462Y-38418D01*
X61469Y-38425D01*
X61473Y-38434D01*
X61476Y-38443D01*
X61477Y-38452D01*
X61478Y-38453D01*
X61703Y-30173D02*
X61702Y-30182D01*
X61699Y-30191D01*
X61694Y-30200D01*
X61688Y-30207D01*
X61681Y-30213D01*
X61672Y-30218D01*
X61663Y-30220D01*
X61654Y-30221D01*
X61645Y-30221D01*
X61636Y-30218D01*
X61628Y-30214D01*
X61620Y-30208D01*
X61614Y-30200D01*
X61609Y-30192D01*
X61607Y-30183D01*
X61606Y-30173D01*
X61606Y-30165D01*
X61609Y-30155D01*
X61613Y-30147D01*
X61619Y-30139D01*
X61627Y-30133D01*
X61635Y-30129D01*
X61644Y-30126D01*
X61653Y-30125D01*
X61662Y-30125D01*
X61671Y-30128D01*
X61680Y-30132D01*
X61687Y-30138D01*
X61694Y-30145D01*
X61698Y-30154D01*
X61701Y-30163D01*
X61702Y-30172D01*
X61703Y-30173D01*
X61769Y-31996D02*
X61768Y-32005D01*
X61765Y-32014D01*
X61760Y-32023D01*
X61754Y-32030D01*
X61747Y-32036D01*
X61738Y-32041D01*
X61729Y-32043D01*
X61720Y-32044D01*
X61711Y-32044D01*
X61702Y-32041D01*
X61694Y-32037D01*
X61686Y-32031D01*
X61680Y-32023D01*
X61675Y-32015D01*
X61673Y-32006D01*
X61672Y-31996D01*
X61672Y-31988D01*
X61675Y-31978D01*
X61679Y-31970D01*
X61685Y-31962D01*
X61693Y-31956D01*
X61701Y-31952D01*
X61710Y-31949D01*
X61719Y-31948D01*
X61728Y-31948D01*
X61737Y-31951D01*
X61746Y-31955D01*
X61753Y-31961D01*
X61760Y-31968D01*
X61764Y-31977D01*
X61767Y-31986D01*
X61768Y-31995D01*
X61769Y-31996D01*
X61834Y-33606D02*
X61833Y-33615D01*
X61830Y-33624D01*
X61825Y-33633D01*
X61819Y-33640D01*
X61812Y-33646D01*
X61803Y-33651D01*
X61794Y-33653D01*
X61785Y-33654D01*
X61776Y-33654D01*
X61767Y-33651D01*
X61759Y-33647D01*
X61751Y-33641D01*
X61745Y-33633D01*
X61740Y-33625D01*
X61738Y-33616D01*
X61737Y-33606D01*
X61737Y-33598D01*
X61740Y-33588D01*
X61744Y-33580D01*
X61750Y-33572D01*
X61758Y-33566D01*
X61766Y-33562D01*
X61775Y-33559D01*
X61784Y-33558D01*
X61793Y-33558D01*
X61802Y-33561D01*
X61811Y-33565D01*
X61818Y-33571D01*
X61825Y-33578D01*
X61829Y-33587D01*
X61832Y-33596D01*
X61833Y-33605D01*
X61834Y-33606D01*
X61840Y-39256D02*
X61839Y-39265D01*
X61836Y-39274D01*
X61831Y-39283D01*
X61825Y-39290D01*
X61818Y-39296D01*
X61809Y-39301D01*
X61800Y-39303D01*
X61791Y-39304D01*
X61782Y-39304D01*
X61773Y-39301D01*
X61765Y-39297D01*
X61757Y-39291D01*
X61751Y-39283D01*
X61746Y-39275D01*
X61744Y-39266D01*
X61743Y-39256D01*
X61743Y-39248D01*
X61746Y-39238D01*
X61750Y-39230D01*
X61756Y-39222D01*
X61764Y-39216D01*
X61772Y-39212D01*
X61781Y-39209D01*
X61790Y-39208D01*
X61799Y-39208D01*
X61808Y-39211D01*
X61817Y-39215D01*
X61824Y-39221D01*
X61831Y-39228D01*
X61835Y-39237D01*
X61838Y-39246D01*
X61839Y-39255D01*
X61840Y-39256D01*
X61846Y-34923D02*
X61845Y-34932D01*
X61842Y-34941D01*
X61837Y-34950D01*
X61831Y-34957D01*
X61824Y-34963D01*
X61815Y-34968D01*
X61806Y-34970D01*
X61797Y-34971D01*
X61788Y-34971D01*
X61779Y-34968D01*
X61771Y-34964D01*
X61763Y-34958D01*
X61757Y-34950D01*
X61752Y-34942D01*
X61750Y-34933D01*
X61749Y-34923D01*
X61749Y-34915D01*
X61752Y-34905D01*
X61756Y-34897D01*
X61762Y-34889D01*
X61770Y-34883D01*
X61778Y-34879D01*
X61787Y-34876D01*
X61796Y-34875D01*
X61805Y-34875D01*
X61814Y-34878D01*
X61823Y-34882D01*
X61830Y-34888D01*
X61837Y-34895D01*
X61841Y-34904D01*
X61844Y-34913D01*
X61845Y-34922D01*
X61846Y-34923D01*
X61848Y-37287D02*
X61847Y-37296D01*
X61844Y-37305D01*
X61839Y-37314D01*
X61833Y-37321D01*
X61826Y-37327D01*
X61817Y-37332D01*
X61808Y-37334D01*
X61799Y-37335D01*
X61790Y-37335D01*
X61781Y-37332D01*
X61773Y-37328D01*
X61765Y-37322D01*
X61759Y-37314D01*
X61754Y-37306D01*
X61752Y-37297D01*
X61751Y-37287D01*
X61751Y-37279D01*
X61754Y-37269D01*
X61758Y-37261D01*
X61764Y-37253D01*
X61772Y-37247D01*
X61780Y-37243D01*
X61789Y-37240D01*
X61798Y-37239D01*
X61807Y-37239D01*
X61816Y-37242D01*
X61825Y-37246D01*
X61832Y-37252D01*
X61839Y-37259D01*
X61843Y-37268D01*
X61846Y-37277D01*
X61847Y-37286D01*
X61848Y-37287D01*
X61849Y-38075D02*
X61848Y-38084D01*
X61845Y-38093D01*
X61840Y-38102D01*
X61834Y-38109D01*
X61827Y-38115D01*
X61818Y-38120D01*
X61809Y-38122D01*
X61800Y-38123D01*
X61791Y-38123D01*
X61782Y-38120D01*
X61774Y-38116D01*
X61766Y-38110D01*
X61760Y-38102D01*
X61755Y-38094D01*
X61753Y-38085D01*
X61752Y-38075D01*
X61752Y-38067D01*
X61755Y-38057D01*
X61759Y-38049D01*
X61765Y-38041D01*
X61773Y-38035D01*
X61781Y-38031D01*
X61790Y-38028D01*
X61799Y-38027D01*
X61808Y-38027D01*
X61817Y-38030D01*
X61826Y-38034D01*
X61833Y-38040D01*
X61840Y-38047D01*
X61844Y-38056D01*
X61847Y-38065D01*
X61848Y-38074D01*
X61849Y-38075D01*
X61850Y-35317D02*
X61849Y-35326D01*
X61846Y-35335D01*
X61841Y-35344D01*
X61835Y-35351D01*
X61828Y-35357D01*
X61819Y-35362D01*
X61810Y-35364D01*
X61801Y-35365D01*
X61792Y-35365D01*
X61783Y-35362D01*
X61775Y-35358D01*
X61767Y-35352D01*
X61761Y-35344D01*
X61756Y-35336D01*
X61754Y-35327D01*
X61753Y-35317D01*
X61753Y-35309D01*
X61756Y-35299D01*
X61760Y-35291D01*
X61766Y-35283D01*
X61774Y-35277D01*
X61782Y-35273D01*
X61791Y-35270D01*
X61800Y-35269D01*
X61809Y-35269D01*
X61818Y-35272D01*
X61827Y-35276D01*
X61834Y-35282D01*
X61841Y-35289D01*
X61845Y-35298D01*
X61848Y-35307D01*
X61849Y-35316D01*
X61850Y-35317D01*
X61868Y-39673D02*
X61867Y-39682D01*
X61864Y-39691D01*
X61859Y-39700D01*
X61853Y-39707D01*
X61846Y-39713D01*
X61837Y-39718D01*
X61828Y-39720D01*
X61819Y-39721D01*
X61810Y-39721D01*
X61801Y-39718D01*
X61793Y-39714D01*
X61785Y-39708D01*
X61779Y-39700D01*
X61774Y-39692D01*
X61772Y-39683D01*
X61771Y-39673D01*
X61771Y-39665D01*
X61774Y-39655D01*
X61778Y-39647D01*
X61784Y-39639D01*
X61792Y-39633D01*
X61800Y-39629D01*
X61809Y-39626D01*
X61818Y-39625D01*
X61827Y-39625D01*
X61836Y-39628D01*
X61845Y-39632D01*
X61852Y-39638D01*
X61859Y-39645D01*
X61863Y-39654D01*
X61866Y-39663D01*
X61867Y-39672D01*
X61868Y-39673D01*
X61884Y-38858D02*
X61883Y-38867D01*
X61880Y-38876D01*
X61875Y-38885D01*
X61869Y-38892D01*
X61862Y-38898D01*
X61853Y-38903D01*
X61844Y-38905D01*
X61835Y-38906D01*
X61826Y-38906D01*
X61817Y-38903D01*
X61809Y-38899D01*
X61801Y-38893D01*
X61795Y-38885D01*
X61790Y-38877D01*
X61788Y-38868D01*
X61787Y-38858D01*
X61787Y-38850D01*
X61790Y-38840D01*
X61794Y-38832D01*
X61800Y-38824D01*
X61808Y-38818D01*
X61816Y-38814D01*
X61825Y-38811D01*
X61834Y-38810D01*
X61843Y-38810D01*
X61852Y-38813D01*
X61861Y-38817D01*
X61868Y-38823D01*
X61875Y-38830D01*
X61879Y-38839D01*
X61882Y-38848D01*
X61883Y-38857D01*
X61884Y-38858D01*
X62025Y-31283D02*
X62024Y-31292D01*
X62021Y-31301D01*
X62016Y-31310D01*
X62010Y-31317D01*
X62003Y-31323D01*
X61994Y-31328D01*
X61985Y-31330D01*
X61976Y-31331D01*
X61967Y-31331D01*
X61958Y-31328D01*
X61950Y-31324D01*
X61942Y-31318D01*
X61936Y-31310D01*
X61931Y-31302D01*
X61929Y-31293D01*
X61928Y-31283D01*
X61928Y-31275D01*
X61931Y-31265D01*
X61935Y-31257D01*
X61941Y-31249D01*
X61949Y-31243D01*
X61957Y-31239D01*
X61966Y-31236D01*
X61975Y-31235D01*
X61984Y-31235D01*
X61993Y-31238D01*
X62002Y-31242D01*
X62009Y-31248D01*
X62016Y-31255D01*
X62020Y-31264D01*
X62023Y-31273D01*
X62024Y-31282D01*
X62025Y-31283D01*
X62143Y-29244D02*
X62142Y-29253D01*
X62139Y-29262D01*
X62134Y-29271D01*
X62128Y-29278D01*
X62121Y-29284D01*
X62112Y-29289D01*
X62103Y-29291D01*
X62094Y-29292D01*
X62085Y-29292D01*
X62076Y-29289D01*
X62068Y-29285D01*
X62060Y-29279D01*
X62054Y-29271D01*
X62049Y-29263D01*
X62047Y-29254D01*
X62046Y-29244D01*
X62046Y-29236D01*
X62049Y-29226D01*
X62053Y-29218D01*
X62059Y-29210D01*
X62067Y-29204D01*
X62075Y-29200D01*
X62084Y-29197D01*
X62093Y-29196D01*
X62102Y-29196D01*
X62111Y-29199D01*
X62120Y-29203D01*
X62127Y-29209D01*
X62134Y-29216D01*
X62138Y-29225D01*
X62141Y-29234D01*
X62142Y-29243D01*
X62143Y-29244D01*
X62175Y-33406D02*
X62174Y-33415D01*
X62171Y-33424D01*
X62166Y-33433D01*
X62160Y-33440D01*
X62153Y-33446D01*
X62144Y-33451D01*
X62135Y-33453D01*
X62126Y-33454D01*
X62117Y-33454D01*
X62108Y-33451D01*
X62100Y-33447D01*
X62092Y-33441D01*
X62086Y-33433D01*
X62081Y-33425D01*
X62079Y-33416D01*
X62078Y-33406D01*
X62078Y-33398D01*
X62081Y-33388D01*
X62085Y-33380D01*
X62091Y-33372D01*
X62099Y-33366D01*
X62107Y-33362D01*
X62116Y-33359D01*
X62125Y-33358D01*
X62134Y-33358D01*
X62143Y-33361D01*
X62152Y-33365D01*
X62159Y-33371D01*
X62166Y-33378D01*
X62170Y-33387D01*
X62173Y-33396D01*
X62174Y-33405D01*
X62175Y-33406D01*
X62230Y-35323D02*
X62229Y-35332D01*
X62226Y-35341D01*
X62221Y-35350D01*
X62215Y-35357D01*
X62208Y-35363D01*
X62199Y-35368D01*
X62190Y-35370D01*
X62181Y-35371D01*
X62172Y-35371D01*
X62163Y-35368D01*
X62155Y-35364D01*
X62147Y-35358D01*
X62141Y-35350D01*
X62136Y-35342D01*
X62134Y-35333D01*
X62133Y-35323D01*
X62133Y-35315D01*
X62136Y-35305D01*
X62140Y-35297D01*
X62146Y-35289D01*
X62154Y-35283D01*
X62162Y-35279D01*
X62171Y-35276D01*
X62180Y-35275D01*
X62189Y-35275D01*
X62198Y-35278D01*
X62207Y-35282D01*
X62214Y-35288D01*
X62221Y-35295D01*
X62225Y-35304D01*
X62228Y-35313D01*
X62229Y-35322D01*
X62230Y-35323D01*
X62238Y-36898D02*
X62237Y-36907D01*
X62234Y-36916D01*
X62229Y-36925D01*
X62223Y-36932D01*
X62216Y-36938D01*
X62207Y-36943D01*
X62198Y-36945D01*
X62189Y-36946D01*
X62180Y-36946D01*
X62171Y-36943D01*
X62163Y-36939D01*
X62155Y-36933D01*
X62149Y-36925D01*
X62144Y-36917D01*
X62142Y-36908D01*
X62141Y-36898D01*
X62141Y-36890D01*
X62144Y-36880D01*
X62148Y-36872D01*
X62154Y-36864D01*
X62162Y-36858D01*
X62170Y-36854D01*
X62179Y-36851D01*
X62188Y-36850D01*
X62197Y-36850D01*
X62206Y-36853D01*
X62215Y-36857D01*
X62222Y-36863D01*
X62229Y-36870D01*
X62233Y-36879D01*
X62236Y-36888D01*
X62237Y-36897D01*
X62238Y-36898D01*
X62242Y-34551D02*
X62241Y-34560D01*
X62238Y-34569D01*
X62233Y-34578D01*
X62227Y-34585D01*
X62220Y-34591D01*
X62211Y-34596D01*
X62202Y-34598D01*
X62193Y-34599D01*
X62184Y-34599D01*
X62175Y-34596D01*
X62167Y-34592D01*
X62159Y-34586D01*
X62153Y-34578D01*
X62148Y-34570D01*
X62146Y-34561D01*
X62145Y-34551D01*
X62145Y-34543D01*
X62148Y-34533D01*
X62152Y-34525D01*
X62158Y-34517D01*
X62166Y-34511D01*
X62174Y-34507D01*
X62183Y-34504D01*
X62192Y-34503D01*
X62201Y-34503D01*
X62210Y-34506D01*
X62219Y-34510D01*
X62226Y-34516D01*
X62233Y-34523D01*
X62237Y-34532D01*
X62240Y-34541D01*
X62241Y-34550D01*
X62242Y-34551D01*
X62246Y-36102D02*
X62245Y-36111D01*
X62242Y-36120D01*
X62237Y-36129D01*
X62231Y-36136D01*
X62224Y-36142D01*
X62215Y-36147D01*
X62206Y-36149D01*
X62197Y-36150D01*
X62188Y-36150D01*
X62179Y-36147D01*
X62171Y-36143D01*
X62163Y-36137D01*
X62157Y-36129D01*
X62152Y-36121D01*
X62150Y-36112D01*
X62149Y-36102D01*
X62149Y-36094D01*
X62152Y-36084D01*
X62156Y-36076D01*
X62162Y-36068D01*
X62170Y-36062D01*
X62178Y-36058D01*
X62187Y-36055D01*
X62196Y-36054D01*
X62205Y-36054D01*
X62214Y-36057D01*
X62223Y-36061D01*
X62230Y-36067D01*
X62237Y-36074D01*
X62241Y-36083D01*
X62244Y-36092D01*
X62245Y-36101D01*
X62246Y-36102D01*
X62266Y-34949D02*
X62265Y-34958D01*
X62262Y-34967D01*
X62257Y-34976D01*
X62251Y-34983D01*
X62244Y-34989D01*
X62235Y-34994D01*
X62226Y-34996D01*
X62217Y-34997D01*
X62208Y-34997D01*
X62199Y-34994D01*
X62191Y-34990D01*
X62183Y-34984D01*
X62177Y-34976D01*
X62172Y-34968D01*
X62170Y-34959D01*
X62169Y-34949D01*
X62169Y-34941D01*
X62172Y-34931D01*
X62176Y-34923D01*
X62182Y-34915D01*
X62190Y-34909D01*
X62198Y-34905D01*
X62207Y-34902D01*
X62216Y-34901D01*
X62225Y-34901D01*
X62234Y-34904D01*
X62243Y-34908D01*
X62250Y-34914D01*
X62257Y-34921D01*
X62261Y-34930D01*
X62264Y-34939D01*
X62265Y-34948D01*
X62266Y-34949D01*
X62303Y-37620D02*
X62302Y-37629D01*
X62299Y-37638D01*
X62294Y-37647D01*
X62288Y-37654D01*
X62281Y-37660D01*
X62272Y-37665D01*
X62263Y-37667D01*
X62254Y-37668D01*
X62245Y-37668D01*
X62236Y-37665D01*
X62228Y-37661D01*
X62220Y-37655D01*
X62214Y-37647D01*
X62209Y-37639D01*
X62207Y-37630D01*
X62206Y-37620D01*
X62206Y-37612D01*
X62209Y-37602D01*
X62213Y-37594D01*
X62219Y-37586D01*
X62227Y-37580D01*
X62235Y-37576D01*
X62244Y-37573D01*
X62253Y-37572D01*
X62262Y-37572D01*
X62271Y-37575D01*
X62280Y-37579D01*
X62287Y-37585D01*
X62294Y-37592D01*
X62298Y-37601D01*
X62301Y-37610D01*
X62302Y-37619D01*
X62303Y-37620D01*
X62580Y-33134D02*
X62579Y-33143D01*
X62576Y-33152D01*
X62571Y-33161D01*
X62565Y-33168D01*
X62558Y-33174D01*
X62549Y-33179D01*
X62540Y-33181D01*
X62531Y-33182D01*
X62522Y-33182D01*
X62513Y-33179D01*
X62505Y-33175D01*
X62497Y-33169D01*
X62491Y-33161D01*
X62486Y-33153D01*
X62484Y-33144D01*
X62483Y-33134D01*
X62483Y-33126D01*
X62486Y-33116D01*
X62490Y-33108D01*
X62496Y-33100D01*
X62504Y-33094D01*
X62512Y-33090D01*
X62521Y-33087D01*
X62530Y-33086D01*
X62539Y-33086D01*
X62548Y-33089D01*
X62557Y-33093D01*
X62564Y-33099D01*
X62571Y-33106D01*
X62575Y-33115D01*
X62578Y-33124D01*
X62579Y-33133D01*
X62580Y-33134D01*
X62620Y-36909D02*
X62619Y-36918D01*
X62616Y-36927D01*
X62611Y-36936D01*
X62605Y-36943D01*
X62598Y-36949D01*
X62589Y-36954D01*
X62580Y-36956D01*
X62571Y-36957D01*
X62562Y-36957D01*
X62553Y-36954D01*
X62545Y-36950D01*
X62537Y-36944D01*
X62531Y-36936D01*
X62526Y-36928D01*
X62524Y-36919D01*
X62523Y-36909D01*
X62523Y-36901D01*
X62526Y-36891D01*
X62530Y-36883D01*
X62536Y-36875D01*
X62544Y-36869D01*
X62552Y-36865D01*
X62561Y-36862D01*
X62570Y-36861D01*
X62579Y-36861D01*
X62588Y-36864D01*
X62597Y-36868D01*
X62604Y-36874D01*
X62611Y-36881D01*
X62615Y-36890D01*
X62618Y-36899D01*
X62619Y-36908D01*
X62620Y-36909D01*
X62643Y-33583D02*
X62642Y-33592D01*
X62639Y-33601D01*
X62634Y-33610D01*
X62628Y-33617D01*
X62621Y-33623D01*
X62612Y-33628D01*
X62603Y-33630D01*
X62594Y-33631D01*
X62585Y-33631D01*
X62576Y-33628D01*
X62568Y-33624D01*
X62560Y-33618D01*
X62554Y-33610D01*
X62549Y-33602D01*
X62547Y-33593D01*
X62546Y-33583D01*
X62546Y-33575D01*
X62549Y-33565D01*
X62553Y-33557D01*
X62559Y-33549D01*
X62567Y-33543D01*
X62575Y-33539D01*
X62584Y-33536D01*
X62593Y-33535D01*
X62602Y-33535D01*
X62611Y-33538D01*
X62620Y-33542D01*
X62627Y-33548D01*
X62634Y-33555D01*
X62638Y-33564D01*
X62641Y-33573D01*
X62642Y-33582D01*
X62643Y-33583D01*
X62643Y-34543D02*
X62642Y-34552D01*
X62639Y-34561D01*
X62634Y-34570D01*
X62628Y-34577D01*
X62621Y-34583D01*
X62612Y-34588D01*
X62603Y-34590D01*
X62594Y-34591D01*
X62585Y-34591D01*
X62576Y-34588D01*
X62568Y-34584D01*
X62560Y-34578D01*
X62554Y-34570D01*
X62549Y-34562D01*
X62547Y-34553D01*
X62546Y-34543D01*
X62546Y-34535D01*
X62549Y-34525D01*
X62553Y-34517D01*
X62559Y-34509D01*
X62567Y-34503D01*
X62575Y-34499D01*
X62584Y-34496D01*
X62593Y-34495D01*
X62602Y-34495D01*
X62611Y-34498D01*
X62620Y-34502D01*
X62627Y-34508D01*
X62634Y-34515D01*
X62638Y-34524D01*
X62641Y-34533D01*
X62642Y-34542D01*
X62643Y-34543D01*
X62655Y-31563D02*
X62654Y-31572D01*
X62651Y-31581D01*
X62646Y-31590D01*
X62640Y-31597D01*
X62633Y-31603D01*
X62624Y-31608D01*
X62615Y-31610D01*
X62606Y-31611D01*
X62597Y-31611D01*
X62588Y-31608D01*
X62580Y-31604D01*
X62572Y-31598D01*
X62566Y-31590D01*
X62561Y-31582D01*
X62559Y-31573D01*
X62558Y-31563D01*
X62558Y-31555D01*
X62561Y-31545D01*
X62565Y-31537D01*
X62571Y-31529D01*
X62579Y-31523D01*
X62587Y-31519D01*
X62596Y-31516D01*
X62605Y-31515D01*
X62614Y-31515D01*
X62623Y-31518D01*
X62632Y-31522D01*
X62639Y-31528D01*
X62646Y-31535D01*
X62650Y-31544D01*
X62653Y-31553D01*
X62654Y-31562D01*
X62655Y-31563D01*
X62734Y-30555D02*
X62733Y-30564D01*
X62730Y-30573D01*
X62725Y-30582D01*
X62719Y-30589D01*
X62712Y-30595D01*
X62703Y-30600D01*
X62694Y-30602D01*
X62685Y-30603D01*
X62676Y-30603D01*
X62667Y-30600D01*
X62659Y-30596D01*
X62651Y-30590D01*
X62645Y-30582D01*
X62640Y-30574D01*
X62638Y-30565D01*
X62637Y-30555D01*
X62637Y-30547D01*
X62640Y-30537D01*
X62644Y-30529D01*
X62650Y-30521D01*
X62658Y-30515D01*
X62666Y-30511D01*
X62675Y-30508D01*
X62684Y-30507D01*
X62693Y-30507D01*
X62702Y-30510D01*
X62711Y-30514D01*
X62718Y-30520D01*
X62725Y-30527D01*
X62729Y-30536D01*
X62732Y-30545D01*
X62733Y-30554D01*
X62734Y-30555D01*
X62760Y-30862D02*
X62759Y-30871D01*
X62756Y-30880D01*
X62751Y-30889D01*
X62745Y-30896D01*
X62738Y-30902D01*
X62729Y-30907D01*
X62720Y-30909D01*
X62711Y-30910D01*
X62702Y-30910D01*
X62693Y-30907D01*
X62685Y-30903D01*
X62677Y-30897D01*
X62671Y-30889D01*
X62666Y-30881D01*
X62664Y-30872D01*
X62663Y-30862D01*
X62663Y-30854D01*
X62666Y-30844D01*
X62670Y-30836D01*
X62676Y-30828D01*
X62684Y-30822D01*
X62692Y-30818D01*
X62701Y-30815D01*
X62710Y-30814D01*
X62719Y-30814D01*
X62728Y-30817D01*
X62737Y-30821D01*
X62744Y-30827D01*
X62751Y-30834D01*
X62755Y-30843D01*
X62758Y-30852D01*
X62759Y-30861D01*
X62760Y-30862D01*
X62825Y-33331D02*
X62824Y-33340D01*
X62821Y-33349D01*
X62816Y-33358D01*
X62810Y-33365D01*
X62803Y-33371D01*
X62794Y-33376D01*
X62785Y-33378D01*
X62776Y-33379D01*
X62767Y-33379D01*
X62758Y-33376D01*
X62750Y-33372D01*
X62742Y-33366D01*
X62736Y-33358D01*
X62731Y-33350D01*
X62729Y-33341D01*
X62728Y-33331D01*
X62728Y-33323D01*
X62731Y-33313D01*
X62735Y-33305D01*
X62741Y-33297D01*
X62749Y-33291D01*
X62757Y-33287D01*
X62766Y-33284D01*
X62775Y-33283D01*
X62784Y-33283D01*
X62793Y-33286D01*
X62802Y-33290D01*
X62809Y-33296D01*
X62816Y-33303D01*
X62820Y-33312D01*
X62823Y-33321D01*
X62824Y-33330D01*
X62825Y-33331D01*
X62964Y-31419D02*
X62963Y-31428D01*
X62960Y-31437D01*
X62955Y-31446D01*
X62949Y-31453D01*
X62942Y-31459D01*
X62933Y-31464D01*
X62924Y-31466D01*
X62915Y-31467D01*
X62906Y-31467D01*
X62897Y-31464D01*
X62889Y-31460D01*
X62881Y-31454D01*
X62875Y-31446D01*
X62870Y-31438D01*
X62868Y-31429D01*
X62867Y-31419D01*
X62867Y-31411D01*
X62870Y-31401D01*
X62874Y-31393D01*
X62880Y-31385D01*
X62888Y-31379D01*
X62896Y-31375D01*
X62905Y-31372D01*
X62914Y-31371D01*
X62923Y-31371D01*
X62932Y-31374D01*
X62941Y-31378D01*
X62948Y-31384D01*
X62955Y-31391D01*
X62959Y-31400D01*
X62962Y-31409D01*
X62963Y-31418D01*
X62964Y-31419D01*
X63029Y-39687D02*
X63028Y-39696D01*
X63025Y-39705D01*
X63020Y-39714D01*
X63014Y-39721D01*
X63007Y-39727D01*
X62998Y-39732D01*
X62989Y-39734D01*
X62980Y-39735D01*
X62971Y-39735D01*
X62962Y-39732D01*
X62954Y-39728D01*
X62946Y-39722D01*
X62940Y-39714D01*
X62935Y-39706D01*
X62933Y-39697D01*
X62932Y-39687D01*
X62932Y-39679D01*
X62935Y-39669D01*
X62939Y-39661D01*
X62945Y-39653D01*
X62953Y-39647D01*
X62961Y-39643D01*
X62970Y-39640D01*
X62979Y-39639D01*
X62988Y-39639D01*
X62997Y-39642D01*
X63006Y-39646D01*
X63013Y-39652D01*
X63020Y-39659D01*
X63024Y-39668D01*
X63027Y-39677D01*
X63028Y-39686D01*
X63029Y-39687D01*
X63033Y-35331D02*
X63032Y-35340D01*
X63029Y-35349D01*
X63024Y-35358D01*
X63018Y-35365D01*
X63011Y-35371D01*
X63002Y-35376D01*
X62993Y-35378D01*
X62984Y-35379D01*
X62975Y-35379D01*
X62966Y-35376D01*
X62958Y-35372D01*
X62950Y-35366D01*
X62944Y-35358D01*
X62939Y-35350D01*
X62937Y-35341D01*
X62936Y-35331D01*
X62936Y-35323D01*
X62939Y-35313D01*
X62943Y-35305D01*
X62949Y-35297D01*
X62957Y-35291D01*
X62965Y-35287D01*
X62974Y-35284D01*
X62983Y-35283D01*
X62992Y-35283D01*
X63001Y-35286D01*
X63010Y-35290D01*
X63017Y-35296D01*
X63024Y-35303D01*
X63028Y-35312D01*
X63031Y-35321D01*
X63032Y-35330D01*
X63033Y-35331D01*
X63033Y-37291D02*
X63032Y-37300D01*
X63029Y-37309D01*
X63024Y-37318D01*
X63018Y-37325D01*
X63011Y-37331D01*
X63002Y-37336D01*
X62993Y-37338D01*
X62984Y-37339D01*
X62975Y-37339D01*
X62966Y-37336D01*
X62958Y-37332D01*
X62950Y-37326D01*
X62944Y-37318D01*
X62939Y-37310D01*
X62937Y-37301D01*
X62936Y-37291D01*
X62936Y-37283D01*
X62939Y-37273D01*
X62943Y-37265D01*
X62949Y-37257D01*
X62957Y-37251D01*
X62965Y-37247D01*
X62974Y-37244D01*
X62983Y-37243D01*
X62992Y-37243D01*
X63001Y-37246D01*
X63010Y-37250D01*
X63017Y-37256D01*
X63024Y-37263D01*
X63028Y-37272D01*
X63031Y-37281D01*
X63032Y-37290D01*
X63033Y-37291D01*
X63120Y-30896D02*
X63119Y-30905D01*
X63116Y-30914D01*
X63111Y-30923D01*
X63105Y-30930D01*
X63098Y-30936D01*
X63089Y-30941D01*
X63080Y-30943D01*
X63071Y-30944D01*
X63062Y-30944D01*
X63053Y-30941D01*
X63045Y-30937D01*
X63037Y-30931D01*
X63031Y-30923D01*
X63026Y-30915D01*
X63024Y-30906D01*
X63023Y-30896D01*
X63023Y-30888D01*
X63026Y-30878D01*
X63030Y-30870D01*
X63036Y-30862D01*
X63044Y-30856D01*
X63052Y-30852D01*
X63061Y-30849D01*
X63070Y-30848D01*
X63079Y-30848D01*
X63088Y-30851D01*
X63097Y-30855D01*
X63104Y-30861D01*
X63111Y-30868D01*
X63115Y-30877D01*
X63118Y-30886D01*
X63119Y-30895D01*
X63120Y-30896D01*
X63411Y-35325D02*
X63410Y-35334D01*
X63407Y-35343D01*
X63402Y-35352D01*
X63396Y-35359D01*
X63389Y-35365D01*
X63380Y-35370D01*
X63371Y-35372D01*
X63362Y-35373D01*
X63353Y-35373D01*
X63344Y-35370D01*
X63336Y-35366D01*
X63328Y-35360D01*
X63322Y-35352D01*
X63317Y-35344D01*
X63315Y-35335D01*
X63314Y-35325D01*
X63314Y-35317D01*
X63317Y-35307D01*
X63321Y-35299D01*
X63327Y-35291D01*
X63335Y-35285D01*
X63343Y-35281D01*
X63352Y-35278D01*
X63361Y-35277D01*
X63370Y-35277D01*
X63379Y-35280D01*
X63388Y-35284D01*
X63395Y-35290D01*
X63402Y-35297D01*
X63406Y-35306D01*
X63409Y-35315D01*
X63410Y-35324D01*
X63411Y-35325D01*
X63415Y-38465D02*
X63414Y-38474D01*
X63411Y-38483D01*
X63406Y-38492D01*
X63400Y-38499D01*
X63393Y-38505D01*
X63384Y-38510D01*
X63375Y-38512D01*
X63366Y-38513D01*
X63357Y-38513D01*
X63348Y-38510D01*
X63340Y-38506D01*
X63332Y-38500D01*
X63326Y-38492D01*
X63321Y-38484D01*
X63319Y-38475D01*
X63318Y-38465D01*
X63318Y-38457D01*
X63321Y-38447D01*
X63325Y-38439D01*
X63331Y-38431D01*
X63339Y-38425D01*
X63347Y-38421D01*
X63356Y-38418D01*
X63365Y-38417D01*
X63374Y-38417D01*
X63383Y-38420D01*
X63392Y-38424D01*
X63399Y-38430D01*
X63406Y-38437D01*
X63410Y-38446D01*
X63413Y-38455D01*
X63414Y-38464D01*
X63415Y-38465D01*
X63419Y-37307D02*
X63418Y-37316D01*
X63415Y-37325D01*
X63410Y-37334D01*
X63404Y-37341D01*
X63397Y-37347D01*
X63388Y-37352D01*
X63379Y-37354D01*
X63370Y-37355D01*
X63361Y-37355D01*
X63352Y-37352D01*
X63344Y-37348D01*
X63336Y-37342D01*
X63330Y-37334D01*
X63325Y-37326D01*
X63323Y-37317D01*
X63322Y-37307D01*
X63322Y-37299D01*
X63325Y-37289D01*
X63329Y-37281D01*
X63335Y-37273D01*
X63343Y-37267D01*
X63351Y-37263D01*
X63360Y-37260D01*
X63369Y-37259D01*
X63378Y-37259D01*
X63387Y-37262D01*
X63396Y-37266D01*
X63403Y-37272D01*
X63410Y-37279D01*
X63414Y-37288D01*
X63417Y-37297D01*
X63418Y-37306D01*
X63419Y-37307D01*
X63455Y-36874D02*
X63454Y-36883D01*
X63451Y-36892D01*
X63446Y-36901D01*
X63440Y-36908D01*
X63433Y-36914D01*
X63424Y-36919D01*
X63415Y-36921D01*
X63406Y-36922D01*
X63397Y-36922D01*
X63388Y-36919D01*
X63380Y-36915D01*
X63372Y-36909D01*
X63366Y-36901D01*
X63361Y-36893D01*
X63359Y-36884D01*
X63358Y-36874D01*
X63358Y-36866D01*
X63361Y-36856D01*
X63365Y-36848D01*
X63371Y-36840D01*
X63379Y-36834D01*
X63387Y-36830D01*
X63396Y-36827D01*
X63405Y-36826D01*
X63414Y-36826D01*
X63423Y-36829D01*
X63432Y-36833D01*
X63439Y-36839D01*
X63446Y-36846D01*
X63450Y-36855D01*
X63453Y-36864D01*
X63454Y-36873D01*
X63455Y-36874D01*
X63490Y-33467D02*
X63489Y-33476D01*
X63486Y-33485D01*
X63481Y-33494D01*
X63475Y-33501D01*
X63468Y-33507D01*
X63459Y-33512D01*
X63450Y-33514D01*
X63441Y-33515D01*
X63432Y-33515D01*
X63423Y-33512D01*
X63415Y-33508D01*
X63407Y-33502D01*
X63401Y-33494D01*
X63396Y-33486D01*
X63394Y-33477D01*
X63393Y-33467D01*
X63393Y-33459D01*
X63396Y-33449D01*
X63400Y-33441D01*
X63406Y-33433D01*
X63414Y-33427D01*
X63422Y-33423D01*
X63431Y-33420D01*
X63440Y-33419D01*
X63449Y-33419D01*
X63458Y-33422D01*
X63467Y-33426D01*
X63474Y-33432D01*
X63481Y-33439D01*
X63485Y-33448D01*
X63488Y-33457D01*
X63489Y-33466D01*
X63490Y-33467D01*
X63708Y-32839D02*
X63707Y-32848D01*
X63704Y-32857D01*
X63699Y-32866D01*
X63693Y-32873D01*
X63686Y-32879D01*
X63677Y-32884D01*
X63668Y-32886D01*
X63659Y-32887D01*
X63650Y-32887D01*
X63641Y-32884D01*
X63633Y-32880D01*
X63625Y-32874D01*
X63619Y-32866D01*
X63614Y-32858D01*
X63612Y-32849D01*
X63611Y-32839D01*
X63611Y-32831D01*
X63614Y-32821D01*
X63618Y-32813D01*
X63624Y-32805D01*
X63632Y-32799D01*
X63640Y-32795D01*
X63649Y-32792D01*
X63658Y-32791D01*
X63667Y-32791D01*
X63676Y-32794D01*
X63685Y-32798D01*
X63692Y-32804D01*
X63699Y-32811D01*
X63703Y-32820D01*
X63706Y-32829D01*
X63707Y-32838D01*
X63708Y-32839D01*
X63720Y-33211D02*
X63719Y-33220D01*
X63716Y-33229D01*
X63711Y-33238D01*
X63705Y-33245D01*
X63698Y-33251D01*
X63689Y-33256D01*
X63680Y-33258D01*
X63671Y-33259D01*
X63662Y-33259D01*
X63653Y-33256D01*
X63645Y-33252D01*
X63637Y-33246D01*
X63631Y-33238D01*
X63626Y-33230D01*
X63624Y-33221D01*
X63623Y-33211D01*
X63623Y-33203D01*
X63626Y-33193D01*
X63630Y-33185D01*
X63636Y-33177D01*
X63644Y-33171D01*
X63652Y-33167D01*
X63661Y-33164D01*
X63670Y-33163D01*
X63679Y-33163D01*
X63688Y-33166D01*
X63697Y-33170D01*
X63704Y-33176D01*
X63711Y-33183D01*
X63715Y-33192D01*
X63718Y-33201D01*
X63719Y-33210D01*
X63720Y-33211D01*
X63789Y-35724D02*
X63788Y-35733D01*
X63785Y-35742D01*
X63780Y-35751D01*
X63774Y-35758D01*
X63767Y-35764D01*
X63758Y-35769D01*
X63749Y-35771D01*
X63740Y-35772D01*
X63731Y-35772D01*
X63722Y-35769D01*
X63714Y-35765D01*
X63706Y-35759D01*
X63700Y-35751D01*
X63695Y-35743D01*
X63693Y-35734D01*
X63692Y-35724D01*
X63692Y-35716D01*
X63695Y-35706D01*
X63699Y-35698D01*
X63705Y-35690D01*
X63713Y-35684D01*
X63721Y-35680D01*
X63730Y-35677D01*
X63739Y-35676D01*
X63748Y-35676D01*
X63757Y-35679D01*
X63766Y-35683D01*
X63773Y-35689D01*
X63780Y-35696D01*
X63784Y-35705D01*
X63787Y-35714D01*
X63788Y-35723D01*
X63789Y-35724D01*
X63801Y-39264D02*
X63800Y-39273D01*
X63797Y-39282D01*
X63792Y-39291D01*
X63786Y-39298D01*
X63779Y-39304D01*
X63770Y-39309D01*
X63761Y-39311D01*
X63752Y-39312D01*
X63743Y-39312D01*
X63734Y-39309D01*
X63726Y-39305D01*
X63718Y-39299D01*
X63712Y-39291D01*
X63707Y-39283D01*
X63705Y-39274D01*
X63704Y-39264D01*
X63704Y-39256D01*
X63707Y-39246D01*
X63711Y-39238D01*
X63717Y-39230D01*
X63725Y-39224D01*
X63733Y-39220D01*
X63742Y-39217D01*
X63751Y-39216D01*
X63760Y-39216D01*
X63769Y-39219D01*
X63778Y-39223D01*
X63785Y-39229D01*
X63792Y-39236D01*
X63796Y-39245D01*
X63799Y-39254D01*
X63800Y-39263D01*
X63801Y-39264D01*
X63805Y-40035D02*
X63804Y-40044D01*
X63801Y-40053D01*
X63796Y-40062D01*
X63790Y-40069D01*
X63783Y-40075D01*
X63774Y-40080D01*
X63765Y-40082D01*
X63756Y-40083D01*
X63747Y-40083D01*
X63738Y-40080D01*
X63730Y-40076D01*
X63722Y-40070D01*
X63716Y-40062D01*
X63711Y-40054D01*
X63709Y-40045D01*
X63708Y-40035D01*
X63708Y-40027D01*
X63711Y-40017D01*
X63715Y-40009D01*
X63721Y-40001D01*
X63729Y-39995D01*
X63737Y-39991D01*
X63746Y-39988D01*
X63755Y-39987D01*
X63764Y-39987D01*
X63773Y-39990D01*
X63782Y-39994D01*
X63789Y-40000D01*
X63796Y-40007D01*
X63800Y-40016D01*
X63803Y-40025D01*
X63804Y-40034D01*
X63805Y-40035D01*
X63809Y-38063D02*
X63808Y-38072D01*
X63805Y-38081D01*
X63800Y-38090D01*
X63794Y-38097D01*
X63787Y-38103D01*
X63778Y-38108D01*
X63769Y-38110D01*
X63760Y-38111D01*
X63751Y-38111D01*
X63742Y-38108D01*
X63734Y-38104D01*
X63726Y-38098D01*
X63720Y-38090D01*
X63715Y-38082D01*
X63713Y-38073D01*
X63712Y-38063D01*
X63712Y-38055D01*
X63715Y-38045D01*
X63719Y-38037D01*
X63725Y-38029D01*
X63733Y-38023D01*
X63741Y-38019D01*
X63750Y-38016D01*
X63759Y-38015D01*
X63768Y-38015D01*
X63777Y-38018D01*
X63786Y-38022D01*
X63793Y-38028D01*
X63800Y-38035D01*
X63804Y-38044D01*
X63807Y-38053D01*
X63808Y-38062D01*
X63809Y-38063D01*
X63825Y-35311D02*
X63824Y-35320D01*
X63821Y-35329D01*
X63816Y-35338D01*
X63810Y-35345D01*
X63803Y-35351D01*
X63794Y-35356D01*
X63785Y-35358D01*
X63776Y-35359D01*
X63767Y-35359D01*
X63758Y-35356D01*
X63750Y-35352D01*
X63742Y-35346D01*
X63736Y-35338D01*
X63731Y-35330D01*
X63729Y-35321D01*
X63728Y-35311D01*
X63728Y-35303D01*
X63731Y-35293D01*
X63735Y-35285D01*
X63741Y-35277D01*
X63749Y-35271D01*
X63757Y-35267D01*
X63766Y-35264D01*
X63775Y-35263D01*
X63784Y-35263D01*
X63793Y-35266D01*
X63802Y-35270D01*
X63809Y-35276D01*
X63816Y-35283D01*
X63820Y-35292D01*
X63823Y-35301D01*
X63824Y-35310D01*
X63825Y-35311D01*
X63909Y-31376D02*
X63908Y-31385D01*
X63905Y-31394D01*
X63900Y-31403D01*
X63894Y-31410D01*
X63887Y-31416D01*
X63878Y-31421D01*
X63869Y-31423D01*
X63860Y-31424D01*
X63851Y-31424D01*
X63842Y-31421D01*
X63834Y-31417D01*
X63826Y-31411D01*
X63820Y-31403D01*
X63815Y-31395D01*
X63813Y-31386D01*
X63812Y-31376D01*
X63812Y-31368D01*
X63815Y-31358D01*
X63819Y-31350D01*
X63825Y-31342D01*
X63833Y-31336D01*
X63841Y-31332D01*
X63850Y-31329D01*
X63859Y-31328D01*
X63868Y-31328D01*
X63877Y-31331D01*
X63886Y-31335D01*
X63893Y-31341D01*
X63900Y-31348D01*
X63904Y-31357D01*
X63907Y-31366D01*
X63908Y-31375D01*
X63909Y-31376D01*
X64000Y-31951D02*
X63999Y-31960D01*
X63996Y-31969D01*
X63991Y-31978D01*
X63985Y-31985D01*
X63978Y-31991D01*
X63969Y-31996D01*
X63960Y-31998D01*
X63951Y-31999D01*
X63942Y-31999D01*
X63933Y-31996D01*
X63925Y-31992D01*
X63917Y-31986D01*
X63911Y-31978D01*
X63906Y-31970D01*
X63904Y-31961D01*
X63903Y-31951D01*
X63903Y-31943D01*
X63906Y-31933D01*
X63910Y-31925D01*
X63916Y-31917D01*
X63924Y-31911D01*
X63932Y-31907D01*
X63941Y-31904D01*
X63950Y-31903D01*
X63959Y-31903D01*
X63968Y-31906D01*
X63977Y-31910D01*
X63984Y-31916D01*
X63991Y-31923D01*
X63995Y-31932D01*
X63998Y-31941D01*
X63999Y-31950D01*
X64000Y-31951D01*
X64222Y-36549D02*
X64221Y-36558D01*
X64218Y-36567D01*
X64213Y-36576D01*
X64207Y-36583D01*
X64200Y-36589D01*
X64191Y-36594D01*
X64182Y-36596D01*
X64173Y-36597D01*
X64164Y-36597D01*
X64155Y-36594D01*
X64147Y-36590D01*
X64139Y-36584D01*
X64133Y-36576D01*
X64128Y-36568D01*
X64126Y-36559D01*
X64125Y-36549D01*
X64125Y-36541D01*
X64128Y-36531D01*
X64132Y-36523D01*
X64138Y-36515D01*
X64146Y-36509D01*
X64154Y-36505D01*
X64163Y-36502D01*
X64172Y-36501D01*
X64181Y-36501D01*
X64190Y-36504D01*
X64199Y-36508D01*
X64206Y-36514D01*
X64213Y-36521D01*
X64217Y-36530D01*
X64220Y-36539D01*
X64221Y-36548D01*
X64222Y-36549D01*
X64226Y-31480D02*
X64225Y-31489D01*
X64222Y-31498D01*
X64217Y-31507D01*
X64211Y-31514D01*
X64204Y-31520D01*
X64195Y-31525D01*
X64186Y-31527D01*
X64177Y-31528D01*
X64168Y-31528D01*
X64159Y-31525D01*
X64151Y-31521D01*
X64143Y-31515D01*
X64137Y-31507D01*
X64132Y-31499D01*
X64130Y-31490D01*
X64129Y-31480D01*
X64129Y-31472D01*
X64132Y-31462D01*
X64136Y-31454D01*
X64142Y-31446D01*
X64150Y-31440D01*
X64158Y-31436D01*
X64167Y-31433D01*
X64176Y-31432D01*
X64185Y-31432D01*
X64194Y-31435D01*
X64203Y-31439D01*
X64210Y-31445D01*
X64217Y-31452D01*
X64221Y-31461D01*
X64224Y-31470D01*
X64225Y-31479D01*
X64226Y-31480D01*
X64525Y-29331D02*
X64524Y-29340D01*
X64521Y-29349D01*
X64516Y-29358D01*
X64510Y-29365D01*
X64503Y-29371D01*
X64494Y-29376D01*
X64485Y-29378D01*
X64476Y-29379D01*
X64467Y-29379D01*
X64458Y-29376D01*
X64450Y-29372D01*
X64442Y-29366D01*
X64436Y-29358D01*
X64431Y-29350D01*
X64429Y-29341D01*
X64428Y-29331D01*
X64428Y-29323D01*
X64431Y-29313D01*
X64435Y-29305D01*
X64441Y-29297D01*
X64449Y-29291D01*
X64457Y-29287D01*
X64466Y-29284D01*
X64475Y-29283D01*
X64484Y-29283D01*
X64493Y-29286D01*
X64502Y-29290D01*
X64509Y-29296D01*
X64516Y-29303D01*
X64520Y-29312D01*
X64523Y-29321D01*
X64524Y-29330D01*
X64525Y-29331D01*
X64588Y-38091D02*
X64587Y-38100D01*
X64584Y-38109D01*
X64579Y-38118D01*
X64573Y-38125D01*
X64566Y-38131D01*
X64557Y-38136D01*
X64548Y-38138D01*
X64539Y-38139D01*
X64530Y-38139D01*
X64521Y-38136D01*
X64513Y-38132D01*
X64505Y-38126D01*
X64499Y-38118D01*
X64494Y-38110D01*
X64492Y-38101D01*
X64491Y-38091D01*
X64491Y-38083D01*
X64494Y-38073D01*
X64498Y-38065D01*
X64504Y-38057D01*
X64512Y-38051D01*
X64520Y-38047D01*
X64529Y-38044D01*
X64538Y-38043D01*
X64547Y-38043D01*
X64556Y-38046D01*
X64565Y-38050D01*
X64572Y-38056D01*
X64579Y-38063D01*
X64583Y-38072D01*
X64586Y-38081D01*
X64587Y-38090D01*
X64588Y-38091D01*
X64592Y-35323D02*
X64591Y-35332D01*
X64588Y-35341D01*
X64583Y-35350D01*
X64577Y-35357D01*
X64570Y-35363D01*
X64561Y-35368D01*
X64552Y-35370D01*
X64543Y-35371D01*
X64534Y-35371D01*
X64525Y-35368D01*
X64517Y-35364D01*
X64509Y-35358D01*
X64503Y-35350D01*
X64498Y-35342D01*
X64496Y-35333D01*
X64495Y-35323D01*
X64495Y-35315D01*
X64498Y-35305D01*
X64502Y-35297D01*
X64508Y-35289D01*
X64516Y-35283D01*
X64524Y-35279D01*
X64533Y-35276D01*
X64542Y-35275D01*
X64551Y-35275D01*
X64560Y-35278D01*
X64569Y-35282D01*
X64576Y-35288D01*
X64583Y-35295D01*
X64587Y-35304D01*
X64590Y-35313D01*
X64591Y-35322D01*
X64592Y-35323D01*
X64592Y-37642D02*
X64591Y-37651D01*
X64588Y-37660D01*
X64583Y-37669D01*
X64577Y-37676D01*
X64570Y-37682D01*
X64561Y-37687D01*
X64552Y-37689D01*
X64543Y-37690D01*
X64534Y-37690D01*
X64525Y-37687D01*
X64517Y-37683D01*
X64509Y-37677D01*
X64503Y-37669D01*
X64498Y-37661D01*
X64496Y-37652D01*
X64495Y-37642D01*
X64495Y-37634D01*
X64498Y-37624D01*
X64502Y-37616D01*
X64508Y-37608D01*
X64516Y-37602D01*
X64524Y-37598D01*
X64533Y-37595D01*
X64542Y-37594D01*
X64551Y-37594D01*
X64560Y-37597D01*
X64569Y-37601D01*
X64576Y-37607D01*
X64583Y-37614D01*
X64587Y-37623D01*
X64590Y-37632D01*
X64591Y-37641D01*
X64592Y-37642D01*
X64608Y-38862D02*
X64607Y-38871D01*
X64604Y-38880D01*
X64599Y-38889D01*
X64593Y-38896D01*
X64586Y-38902D01*
X64577Y-38907D01*
X64568Y-38909D01*
X64559Y-38910D01*
X64550Y-38910D01*
X64541Y-38907D01*
X64533Y-38903D01*
X64525Y-38897D01*
X64519Y-38889D01*
X64514Y-38881D01*
X64512Y-38872D01*
X64511Y-38862D01*
X64511Y-38854D01*
X64514Y-38844D01*
X64518Y-38836D01*
X64524Y-38828D01*
X64532Y-38822D01*
X64540Y-38818D01*
X64549Y-38815D01*
X64558Y-38814D01*
X64567Y-38814D01*
X64576Y-38817D01*
X64585Y-38821D01*
X64592Y-38827D01*
X64599Y-38834D01*
X64603Y-38843D01*
X64606Y-38852D01*
X64607Y-38861D01*
X64608Y-38862D01*
X64614Y-36892D02*
X64613Y-36901D01*
X64610Y-36910D01*
X64605Y-36919D01*
X64599Y-36926D01*
X64592Y-36932D01*
X64583Y-36937D01*
X64574Y-36939D01*
X64565Y-36940D01*
X64556Y-36940D01*
X64547Y-36937D01*
X64539Y-36933D01*
X64531Y-36927D01*
X64525Y-36919D01*
X64520Y-36911D01*
X64518Y-36902D01*
X64517Y-36892D01*
X64517Y-36884D01*
X64520Y-36874D01*
X64524Y-36866D01*
X64530Y-36858D01*
X64538Y-36852D01*
X64546Y-36848D01*
X64555Y-36845D01*
X64564Y-36844D01*
X64573Y-36844D01*
X64582Y-36847D01*
X64591Y-36851D01*
X64598Y-36857D01*
X64605Y-36864D01*
X64609Y-36873D01*
X64612Y-36882D01*
X64613Y-36891D01*
X64614Y-36892D01*
X64695Y-29106D02*
X64694Y-29115D01*
X64691Y-29124D01*
X64686Y-29133D01*
X64680Y-29140D01*
X64673Y-29146D01*
X64664Y-29151D01*
X64655Y-29153D01*
X64646Y-29154D01*
X64637Y-29154D01*
X64628Y-29151D01*
X64620Y-29147D01*
X64612Y-29141D01*
X64606Y-29133D01*
X64601Y-29125D01*
X64599Y-29116D01*
X64598Y-29106D01*
X64598Y-29098D01*
X64601Y-29088D01*
X64605Y-29080D01*
X64611Y-29072D01*
X64619Y-29066D01*
X64627Y-29062D01*
X64636Y-29059D01*
X64645Y-29058D01*
X64654Y-29058D01*
X64663Y-29061D01*
X64672Y-29065D01*
X64679Y-29071D01*
X64686Y-29078D01*
X64690Y-29087D01*
X64693Y-29096D01*
X64694Y-29105D01*
X64695Y-29106D01*
X64732Y-32431D02*
X64731Y-32440D01*
X64728Y-32449D01*
X64723Y-32458D01*
X64717Y-32465D01*
X64710Y-32471D01*
X64701Y-32476D01*
X64692Y-32478D01*
X64683Y-32479D01*
X64674Y-32479D01*
X64665Y-32476D01*
X64657Y-32472D01*
X64649Y-32466D01*
X64643Y-32458D01*
X64638Y-32450D01*
X64636Y-32441D01*
X64635Y-32431D01*
X64635Y-32423D01*
X64638Y-32413D01*
X64642Y-32405D01*
X64648Y-32397D01*
X64656Y-32391D01*
X64664Y-32387D01*
X64673Y-32384D01*
X64682Y-32383D01*
X64691Y-32383D01*
X64700Y-32386D01*
X64709Y-32390D01*
X64716Y-32396D01*
X64723Y-32403D01*
X64727Y-32412D01*
X64730Y-32421D01*
X64731Y-32430D01*
X64732Y-32431D01*
X64856Y-31421D02*
X64855Y-31430D01*
X64852Y-31439D01*
X64847Y-31448D01*
X64841Y-31455D01*
X64834Y-31461D01*
X64825Y-31466D01*
X64816Y-31468D01*
X64807Y-31469D01*
X64798Y-31469D01*
X64789Y-31466D01*
X64781Y-31462D01*
X64773Y-31456D01*
X64767Y-31448D01*
X64762Y-31440D01*
X64760Y-31431D01*
X64759Y-31421D01*
X64759Y-31413D01*
X64762Y-31403D01*
X64766Y-31395D01*
X64772Y-31387D01*
X64780Y-31381D01*
X64788Y-31377D01*
X64797Y-31374D01*
X64806Y-31373D01*
X64815Y-31373D01*
X64824Y-31376D01*
X64833Y-31380D01*
X64840Y-31386D01*
X64847Y-31393D01*
X64851Y-31402D01*
X64854Y-31411D01*
X64855Y-31420D01*
X64856Y-31421D01*
X64994Y-38055D02*
X64993Y-38064D01*
X64990Y-38073D01*
X64985Y-38082D01*
X64979Y-38089D01*
X64972Y-38095D01*
X64963Y-38100D01*
X64954Y-38102D01*
X64945Y-38103D01*
X64936Y-38103D01*
X64927Y-38100D01*
X64919Y-38096D01*
X64911Y-38090D01*
X64905Y-38082D01*
X64900Y-38074D01*
X64898Y-38065D01*
X64897Y-38055D01*
X64897Y-38047D01*
X64900Y-38037D01*
X64904Y-38029D01*
X64910Y-38021D01*
X64918Y-38015D01*
X64926Y-38011D01*
X64935Y-38008D01*
X64944Y-38007D01*
X64953Y-38007D01*
X64962Y-38010D01*
X64971Y-38014D01*
X64978Y-38020D01*
X64985Y-38027D01*
X64989Y-38036D01*
X64992Y-38045D01*
X64993Y-38054D01*
X64994Y-38055D01*
X65018Y-39051D02*
X65017Y-39060D01*
X65014Y-39069D01*
X65009Y-39078D01*
X65003Y-39085D01*
X64996Y-39091D01*
X64987Y-39096D01*
X64978Y-39098D01*
X64969Y-39099D01*
X64960Y-39099D01*
X64951Y-39096D01*
X64943Y-39092D01*
X64935Y-39086D01*
X64929Y-39078D01*
X64924Y-39070D01*
X64922Y-39061D01*
X64921Y-39051D01*
X64921Y-39043D01*
X64924Y-39033D01*
X64928Y-39025D01*
X64934Y-39017D01*
X64942Y-39011D01*
X64950Y-39007D01*
X64959Y-39004D01*
X64968Y-39003D01*
X64977Y-39003D01*
X64986Y-39006D01*
X64995Y-39010D01*
X65002Y-39016D01*
X65009Y-39023D01*
X65013Y-39032D01*
X65016Y-39041D01*
X65017Y-39050D01*
X65018Y-39051D01*
X65021Y-39638D02*
X65020Y-39647D01*
X65017Y-39656D01*
X65012Y-39665D01*
X65006Y-39672D01*
X64999Y-39678D01*
X64990Y-39683D01*
X64981Y-39685D01*
X64972Y-39686D01*
X64963Y-39686D01*
X64954Y-39683D01*
X64946Y-39679D01*
X64938Y-39673D01*
X64932Y-39665D01*
X64927Y-39657D01*
X64925Y-39648D01*
X64924Y-39638D01*
X64924Y-39630D01*
X64927Y-39620D01*
X64931Y-39612D01*
X64937Y-39604D01*
X64945Y-39598D01*
X64953Y-39594D01*
X64962Y-39591D01*
X64971Y-39590D01*
X64980Y-39590D01*
X64989Y-39593D01*
X64998Y-39597D01*
X65005Y-39603D01*
X65012Y-39610D01*
X65016Y-39619D01*
X65019Y-39628D01*
X65020Y-39637D01*
X65021Y-39638D01*
X65029Y-40118D02*
X65028Y-40127D01*
X65025Y-40136D01*
X65020Y-40145D01*
X65014Y-40152D01*
X65007Y-40158D01*
X64998Y-40163D01*
X64989Y-40165D01*
X64980Y-40166D01*
X64971Y-40166D01*
X64962Y-40163D01*
X64954Y-40159D01*
X64946Y-40153D01*
X64940Y-40145D01*
X64935Y-40137D01*
X64933Y-40128D01*
X64932Y-40118D01*
X64932Y-40110D01*
X64935Y-40100D01*
X64939Y-40092D01*
X64945Y-40084D01*
X64953Y-40078D01*
X64961Y-40074D01*
X64970Y-40071D01*
X64979Y-40070D01*
X64988Y-40070D01*
X64997Y-40073D01*
X65006Y-40077D01*
X65013Y-40083D01*
X65020Y-40090D01*
X65024Y-40099D01*
X65027Y-40108D01*
X65028Y-40117D01*
X65029Y-40118D01*
X65033Y-37669D02*
X65032Y-37678D01*
X65029Y-37687D01*
X65024Y-37696D01*
X65018Y-37703D01*
X65011Y-37709D01*
X65002Y-37714D01*
X64993Y-37716D01*
X64984Y-37717D01*
X64975Y-37717D01*
X64966Y-37714D01*
X64958Y-37710D01*
X64950Y-37704D01*
X64944Y-37696D01*
X64939Y-37688D01*
X64937Y-37679D01*
X64936Y-37669D01*
X64936Y-37661D01*
X64939Y-37651D01*
X64943Y-37643D01*
X64949Y-37635D01*
X64957Y-37629D01*
X64965Y-37625D01*
X64974Y-37622D01*
X64983Y-37621D01*
X64992Y-37621D01*
X65001Y-37624D01*
X65010Y-37628D01*
X65017Y-37634D01*
X65024Y-37641D01*
X65028Y-37650D01*
X65031Y-37659D01*
X65032Y-37668D01*
X65033Y-37669D01*
X65047Y-38461D02*
X65046Y-38470D01*
X65043Y-38479D01*
X65038Y-38488D01*
X65032Y-38495D01*
X65025Y-38501D01*
X65016Y-38506D01*
X65007Y-38508D01*
X64998Y-38509D01*
X64989Y-38509D01*
X64980Y-38506D01*
X64972Y-38502D01*
X64964Y-38496D01*
X64958Y-38488D01*
X64953Y-38480D01*
X64951Y-38471D01*
X64950Y-38461D01*
X64950Y-38453D01*
X64953Y-38443D01*
X64957Y-38435D01*
X64963Y-38427D01*
X64971Y-38421D01*
X64979Y-38417D01*
X64988Y-38414D01*
X64997Y-38413D01*
X65006Y-38413D01*
X65015Y-38416D01*
X65024Y-38420D01*
X65031Y-38426D01*
X65038Y-38433D01*
X65042Y-38442D01*
X65045Y-38451D01*
X65046Y-38460D01*
X65047Y-38461D01*
X65090Y-37118D02*
X65089Y-37127D01*
X65086Y-37136D01*
X65081Y-37145D01*
X65075Y-37152D01*
X65068Y-37158D01*
X65059Y-37163D01*
X65050Y-37165D01*
X65041Y-37166D01*
X65032Y-37166D01*
X65023Y-37163D01*
X65015Y-37159D01*
X65007Y-37153D01*
X65001Y-37145D01*
X64996Y-37137D01*
X64994Y-37128D01*
X64993Y-37118D01*
X64993Y-37110D01*
X64996Y-37100D01*
X65000Y-37092D01*
X65006Y-37084D01*
X65014Y-37078D01*
X65022Y-37074D01*
X65031Y-37071D01*
X65040Y-37070D01*
X65049Y-37070D01*
X65058Y-37073D01*
X65067Y-37077D01*
X65074Y-37083D01*
X65081Y-37090D01*
X65085Y-37099D01*
X65088Y-37108D01*
X65089Y-37117D01*
X65090Y-37118D01*
X65116Y-33350D02*
X65115Y-33359D01*
X65112Y-33368D01*
X65107Y-33377D01*
X65101Y-33384D01*
X65094Y-33390D01*
X65085Y-33395D01*
X65076Y-33397D01*
X65067Y-33398D01*
X65058Y-33398D01*
X65049Y-33395D01*
X65041Y-33391D01*
X65033Y-33385D01*
X65027Y-33377D01*
X65022Y-33369D01*
X65020Y-33360D01*
X65019Y-33350D01*
X65019Y-33342D01*
X65022Y-33332D01*
X65026Y-33324D01*
X65032Y-33316D01*
X65040Y-33310D01*
X65048Y-33306D01*
X65057Y-33303D01*
X65066Y-33302D01*
X65075Y-33302D01*
X65084Y-33305D01*
X65093Y-33309D01*
X65100Y-33315D01*
X65107Y-33322D01*
X65111Y-33331D01*
X65114Y-33340D01*
X65115Y-33349D01*
X65116Y-33350D01*
X65140Y-36565D02*
X65139Y-36574D01*
X65136Y-36583D01*
X65131Y-36592D01*
X65125Y-36599D01*
X65118Y-36605D01*
X65109Y-36610D01*
X65100Y-36612D01*
X65091Y-36613D01*
X65082Y-36613D01*
X65073Y-36610D01*
X65065Y-36606D01*
X65057Y-36600D01*
X65051Y-36592D01*
X65046Y-36584D01*
X65044Y-36575D01*
X65043Y-36565D01*
X65043Y-36557D01*
X65046Y-36547D01*
X65050Y-36539D01*
X65056Y-36531D01*
X65064Y-36525D01*
X65072Y-36521D01*
X65081Y-36518D01*
X65090Y-36517D01*
X65099Y-36517D01*
X65108Y-36520D01*
X65117Y-36524D01*
X65124Y-36530D01*
X65131Y-36537D01*
X65135Y-36546D01*
X65138Y-36555D01*
X65139Y-36564D01*
X65140Y-36565D01*
X65147Y-33031D02*
X65146Y-33040D01*
X65143Y-33049D01*
X65138Y-33058D01*
X65132Y-33065D01*
X65125Y-33071D01*
X65116Y-33076D01*
X65107Y-33078D01*
X65098Y-33079D01*
X65089Y-33079D01*
X65080Y-33076D01*
X65072Y-33072D01*
X65064Y-33066D01*
X65058Y-33058D01*
X65053Y-33050D01*
X65051Y-33041D01*
X65050Y-33031D01*
X65050Y-33023D01*
X65053Y-33013D01*
X65057Y-33005D01*
X65063Y-32997D01*
X65071Y-32991D01*
X65079Y-32987D01*
X65088Y-32984D01*
X65097Y-32983D01*
X65106Y-32983D01*
X65115Y-32986D01*
X65124Y-32990D01*
X65131Y-32996D01*
X65138Y-33003D01*
X65142Y-33012D01*
X65145Y-33021D01*
X65146Y-33030D01*
X65147Y-33031D01*
X65171Y-33689D02*
X65170Y-33698D01*
X65167Y-33707D01*
X65162Y-33716D01*
X65156Y-33723D01*
X65149Y-33729D01*
X65140Y-33734D01*
X65131Y-33736D01*
X65122Y-33737D01*
X65113Y-33737D01*
X65104Y-33734D01*
X65096Y-33730D01*
X65088Y-33724D01*
X65082Y-33716D01*
X65077Y-33708D01*
X65075Y-33699D01*
X65074Y-33689D01*
X65074Y-33681D01*
X65077Y-33671D01*
X65081Y-33663D01*
X65087Y-33655D01*
X65095Y-33649D01*
X65103Y-33645D01*
X65112Y-33642D01*
X65121Y-33641D01*
X65130Y-33641D01*
X65139Y-33644D01*
X65148Y-33648D01*
X65155Y-33654D01*
X65162Y-33661D01*
X65166Y-33670D01*
X65169Y-33679D01*
X65170Y-33688D01*
X65171Y-33689D01*
X65187Y-29301D02*
X65186Y-29310D01*
X65183Y-29319D01*
X65178Y-29328D01*
X65172Y-29335D01*
X65165Y-29341D01*
X65156Y-29346D01*
X65147Y-29348D01*
X65138Y-29349D01*
X65129Y-29349D01*
X65120Y-29346D01*
X65112Y-29342D01*
X65104Y-29336D01*
X65098Y-29328D01*
X65093Y-29320D01*
X65091Y-29311D01*
X65090Y-29301D01*
X65090Y-29293D01*
X65093Y-29283D01*
X65097Y-29275D01*
X65103Y-29267D01*
X65111Y-29261D01*
X65119Y-29257D01*
X65128Y-29254D01*
X65137Y-29253D01*
X65146Y-29253D01*
X65155Y-29256D01*
X65164Y-29260D01*
X65171Y-29266D01*
X65178Y-29273D01*
X65182Y-29282D01*
X65185Y-29291D01*
X65186Y-29300D01*
X65187Y-29301D01*
X65195Y-37898D02*
X65194Y-37907D01*
X65191Y-37916D01*
X65186Y-37925D01*
X65180Y-37932D01*
X65173Y-37938D01*
X65164Y-37943D01*
X65155Y-37945D01*
X65146Y-37946D01*
X65137Y-37946D01*
X65128Y-37943D01*
X65120Y-37939D01*
X65112Y-37933D01*
X65106Y-37925D01*
X65101Y-37917D01*
X65099Y-37908D01*
X65098Y-37898D01*
X65098Y-37890D01*
X65101Y-37880D01*
X65105Y-37872D01*
X65111Y-37864D01*
X65119Y-37858D01*
X65127Y-37854D01*
X65136Y-37851D01*
X65145Y-37850D01*
X65154Y-37850D01*
X65163Y-37853D01*
X65172Y-37857D01*
X65179Y-37863D01*
X65186Y-37870D01*
X65190Y-37879D01*
X65193Y-37888D01*
X65194Y-37897D01*
X65195Y-37898D01*
X65311Y-35467D02*
X65310Y-35476D01*
X65307Y-35485D01*
X65302Y-35494D01*
X65296Y-35501D01*
X65289Y-35507D01*
X65280Y-35512D01*
X65271Y-35514D01*
X65262Y-35515D01*
X65253Y-35515D01*
X65244Y-35512D01*
X65236Y-35508D01*
X65228Y-35502D01*
X65222Y-35494D01*
X65217Y-35486D01*
X65215Y-35477D01*
X65214Y-35467D01*
X65214Y-35459D01*
X65217Y-35449D01*
X65221Y-35441D01*
X65227Y-35433D01*
X65235Y-35427D01*
X65243Y-35423D01*
X65252Y-35420D01*
X65261Y-35419D01*
X65270Y-35419D01*
X65279Y-35422D01*
X65288Y-35426D01*
X65295Y-35432D01*
X65302Y-35439D01*
X65306Y-35448D01*
X65309Y-35457D01*
X65310Y-35466D01*
X65311Y-35467D01*
X65494Y-34575D02*
X65493Y-34584D01*
X65490Y-34593D01*
X65485Y-34602D01*
X65479Y-34609D01*
X65472Y-34615D01*
X65463Y-34620D01*
X65454Y-34622D01*
X65445Y-34623D01*
X65436Y-34623D01*
X65427Y-34620D01*
X65419Y-34616D01*
X65411Y-34610D01*
X65405Y-34602D01*
X65400Y-34594D01*
X65398Y-34585D01*
X65397Y-34575D01*
X65397Y-34567D01*
X65400Y-34557D01*
X65404Y-34549D01*
X65410Y-34541D01*
X65418Y-34535D01*
X65426Y-34531D01*
X65435Y-34528D01*
X65444Y-34527D01*
X65453Y-34527D01*
X65462Y-34530D01*
X65471Y-34534D01*
X65478Y-34540D01*
X65485Y-34547D01*
X65489Y-34556D01*
X65492Y-34565D01*
X65493Y-34574D01*
X65494Y-34575D01*
X65498Y-34016D02*
X65497Y-34025D01*
X65494Y-34034D01*
X65489Y-34043D01*
X65483Y-34050D01*
X65476Y-34056D01*
X65467Y-34061D01*
X65458Y-34063D01*
X65449Y-34064D01*
X65440Y-34064D01*
X65431Y-34061D01*
X65423Y-34057D01*
X65415Y-34051D01*
X65409Y-34043D01*
X65404Y-34035D01*
X65402Y-34026D01*
X65401Y-34016D01*
X65401Y-34008D01*
X65404Y-33998D01*
X65408Y-33990D01*
X65414Y-33982D01*
X65422Y-33976D01*
X65430Y-33972D01*
X65439Y-33969D01*
X65448Y-33968D01*
X65457Y-33968D01*
X65466Y-33971D01*
X65475Y-33975D01*
X65482Y-33981D01*
X65489Y-33988D01*
X65493Y-33997D01*
X65496Y-34006D01*
X65497Y-34015D01*
X65498Y-34016D01*
X65647Y-29134D02*
X65646Y-29143D01*
X65643Y-29152D01*
X65638Y-29161D01*
X65632Y-29168D01*
X65625Y-29174D01*
X65616Y-29179D01*
X65607Y-29181D01*
X65598Y-29182D01*
X65589Y-29182D01*
X65580Y-29179D01*
X65572Y-29175D01*
X65564Y-29169D01*
X65558Y-29161D01*
X65553Y-29153D01*
X65551Y-29144D01*
X65550Y-29134D01*
X65550Y-29126D01*
X65553Y-29116D01*
X65557Y-29108D01*
X65563Y-29100D01*
X65571Y-29094D01*
X65579Y-29090D01*
X65588Y-29087D01*
X65597Y-29086D01*
X65606Y-29086D01*
X65615Y-29089D01*
X65624Y-29093D01*
X65631Y-29099D01*
X65638Y-29106D01*
X65642Y-29115D01*
X65645Y-29124D01*
X65646Y-29133D01*
X65647Y-29134D01*
X65714Y-34740D02*
X65713Y-34749D01*
X65710Y-34758D01*
X65705Y-34767D01*
X65699Y-34774D01*
X65692Y-34780D01*
X65683Y-34785D01*
X65674Y-34787D01*
X65665Y-34788D01*
X65656Y-34788D01*
X65647Y-34785D01*
X65639Y-34781D01*
X65631Y-34775D01*
X65625Y-34767D01*
X65620Y-34759D01*
X65618Y-34750D01*
X65617Y-34740D01*
X65617Y-34732D01*
X65620Y-34722D01*
X65624Y-34714D01*
X65630Y-34706D01*
X65638Y-34700D01*
X65646Y-34696D01*
X65655Y-34693D01*
X65664Y-34692D01*
X65673Y-34692D01*
X65682Y-34695D01*
X65691Y-34699D01*
X65698Y-34705D01*
X65705Y-34712D01*
X65709Y-34721D01*
X65712Y-34730D01*
X65713Y-34739D01*
X65714Y-34740D01*
X65931Y-33504D02*
X65930Y-33513D01*
X65927Y-33522D01*
X65922Y-33531D01*
X65916Y-33538D01*
X65909Y-33544D01*
X65900Y-33549D01*
X65891Y-33551D01*
X65882Y-33552D01*
X65873Y-33552D01*
X65864Y-33549D01*
X65856Y-33545D01*
X65848Y-33539D01*
X65842Y-33531D01*
X65837Y-33523D01*
X65835Y-33514D01*
X65834Y-33504D01*
X65834Y-33496D01*
X65837Y-33486D01*
X65841Y-33478D01*
X65847Y-33470D01*
X65855Y-33464D01*
X65863Y-33460D01*
X65872Y-33457D01*
X65881Y-33456D01*
X65890Y-33456D01*
X65899Y-33459D01*
X65908Y-33463D01*
X65915Y-33469D01*
X65922Y-33476D01*
X65926Y-33485D01*
X65929Y-33494D01*
X65930Y-33503D01*
X65931Y-33504D01*
X66116Y-34571D02*
X66115Y-34580D01*
X66112Y-34589D01*
X66107Y-34598D01*
X66101Y-34605D01*
X66094Y-34611D01*
X66085Y-34616D01*
X66076Y-34618D01*
X66067Y-34619D01*
X66058Y-34619D01*
X66049Y-34616D01*
X66041Y-34612D01*
X66033Y-34606D01*
X66027Y-34598D01*
X66022Y-34590D01*
X66020Y-34581D01*
X66019Y-34571D01*
X66019Y-34563D01*
X66022Y-34553D01*
X66026Y-34545D01*
X66032Y-34537D01*
X66040Y-34531D01*
X66048Y-34527D01*
X66057Y-34524D01*
X66066Y-34523D01*
X66075Y-34523D01*
X66084Y-34526D01*
X66093Y-34530D01*
X66100Y-34536D01*
X66107Y-34543D01*
X66111Y-34552D01*
X66114Y-34561D01*
X66115Y-34570D01*
X66116Y-34571D01*
X66313Y-31835D02*
X66312Y-31844D01*
X66309Y-31853D01*
X66304Y-31862D01*
X66298Y-31869D01*
X66291Y-31875D01*
X66282Y-31880D01*
X66273Y-31882D01*
X66264Y-31883D01*
X66255Y-31883D01*
X66246Y-31880D01*
X66238Y-31876D01*
X66230Y-31870D01*
X66224Y-31862D01*
X66219Y-31854D01*
X66217Y-31845D01*
X66216Y-31835D01*
X66216Y-31827D01*
X66219Y-31817D01*
X66223Y-31809D01*
X66229Y-31801D01*
X66237Y-31795D01*
X66245Y-31791D01*
X66254Y-31788D01*
X66263Y-31787D01*
X66272Y-31787D01*
X66281Y-31790D01*
X66290Y-31794D01*
X66297Y-31800D01*
X66304Y-31807D01*
X66308Y-31816D01*
X66311Y-31825D01*
X66312Y-31834D01*
X66313Y-31835D01*
X66334Y-39343D02*
X66333Y-39352D01*
X66330Y-39361D01*
X66325Y-39370D01*
X66319Y-39377D01*
X66312Y-39383D01*
X66303Y-39388D01*
X66294Y-39390D01*
X66285Y-39391D01*
X66276Y-39391D01*
X66267Y-39388D01*
X66259Y-39384D01*
X66251Y-39378D01*
X66245Y-39370D01*
X66240Y-39362D01*
X66238Y-39353D01*
X66237Y-39343D01*
X66237Y-39335D01*
X66240Y-39325D01*
X66244Y-39317D01*
X66250Y-39309D01*
X66258Y-39303D01*
X66266Y-39299D01*
X66275Y-39296D01*
X66284Y-39295D01*
X66293Y-39295D01*
X66302Y-39298D01*
X66311Y-39302D01*
X66318Y-39308D01*
X66325Y-39315D01*
X66329Y-39324D01*
X66332Y-39333D01*
X66333Y-39342D01*
X66334Y-39343D01*
X66435Y-38736D02*
X66434Y-38745D01*
X66431Y-38754D01*
X66426Y-38763D01*
X66420Y-38770D01*
X66413Y-38776D01*
X66404Y-38781D01*
X66395Y-38783D01*
X66386Y-38784D01*
X66377Y-38784D01*
X66368Y-38781D01*
X66360Y-38777D01*
X66352Y-38771D01*
X66346Y-38763D01*
X66341Y-38755D01*
X66339Y-38746D01*
X66338Y-38736D01*
X66338Y-38728D01*
X66341Y-38718D01*
X66345Y-38710D01*
X66351Y-38702D01*
X66359Y-38696D01*
X66367Y-38692D01*
X66376Y-38689D01*
X66385Y-38688D01*
X66394Y-38688D01*
X66403Y-38691D01*
X66412Y-38695D01*
X66419Y-38701D01*
X66426Y-38708D01*
X66430Y-38717D01*
X66433Y-38726D01*
X66434Y-38735D01*
X66435Y-38736D01*
X67230Y-42169D02*
X67229Y-42178D01*
X67226Y-42187D01*
X67221Y-42196D01*
X67215Y-42203D01*
X67208Y-42209D01*
X67199Y-42214D01*
X67190Y-42216D01*
X67181Y-42217D01*
X67172Y-42217D01*
X67163Y-42214D01*
X67155Y-42210D01*
X67147Y-42204D01*
X67141Y-42196D01*
X67136Y-42188D01*
X67134Y-42179D01*
X67133Y-42169D01*
X67133Y-42161D01*
X67136Y-42151D01*
X67140Y-42143D01*
X67146Y-42135D01*
X67154Y-42129D01*
X67162Y-42125D01*
X67171Y-42122D01*
X67180Y-42121D01*
X67189Y-42121D01*
X67198Y-42124D01*
X67207Y-42128D01*
X67214Y-42134D01*
X67221Y-42141D01*
X67225Y-42150D01*
X67228Y-42159D01*
X67229Y-42168D01*
X67230Y-42169D01*
X67766Y-36339D02*
X67765Y-36348D01*
X67762Y-36357D01*
X67757Y-36366D01*
X67751Y-36373D01*
X67744Y-36379D01*
X67735Y-36384D01*
X67726Y-36386D01*
X67717Y-36387D01*
X67708Y-36387D01*
X67699Y-36384D01*
X67691Y-36380D01*
X67683Y-36374D01*
X67677Y-36366D01*
X67672Y-36358D01*
X67670Y-36349D01*
X67669Y-36339D01*
X67669Y-36331D01*
X67672Y-36321D01*
X67676Y-36313D01*
X67682Y-36305D01*
X67690Y-36299D01*
X67698Y-36295D01*
X67707Y-36292D01*
X67716Y-36291D01*
X67725Y-36291D01*
X67734Y-36294D01*
X67743Y-36298D01*
X67750Y-36304D01*
X67757Y-36311D01*
X67761Y-36320D01*
X67764Y-36329D01*
X67765Y-36338D01*
X67766Y-36339D01*
X68010Y-28610D02*
X68009Y-28619D01*
X68006Y-28628D01*
X68001Y-28637D01*
X67995Y-28644D01*
X67988Y-28650D01*
X67979Y-28655D01*
X67970Y-28657D01*
X67961Y-28658D01*
X67952Y-28658D01*
X67943Y-28655D01*
X67935Y-28651D01*
X67927Y-28645D01*
X67921Y-28637D01*
X67916Y-28629D01*
X67914Y-28620D01*
X67913Y-28610D01*
X67913Y-28602D01*
X67916Y-28592D01*
X67920Y-28584D01*
X67926Y-28576D01*
X67934Y-28570D01*
X67942Y-28566D01*
X67951Y-28563D01*
X67960Y-28562D01*
X67969Y-28562D01*
X67978Y-28565D01*
X67987Y-28569D01*
X67994Y-28575D01*
X68001Y-28582D01*
X68005Y-28591D01*
X68008Y-28600D01*
X68009Y-28609D01*
X68010Y-28610D01*
X68092Y-40008D02*
X68091Y-40017D01*
X68088Y-40026D01*
X68083Y-40035D01*
X68077Y-40042D01*
X68070Y-40048D01*
X68061Y-40053D01*
X68052Y-40055D01*
X68043Y-40056D01*
X68034Y-40056D01*
X68025Y-40053D01*
X68017Y-40049D01*
X68009Y-40043D01*
X68003Y-40035D01*
X67998Y-40027D01*
X67996Y-40018D01*
X67995Y-40008D01*
X67995Y-40000D01*
X67998Y-39990D01*
X68002Y-39982D01*
X68008Y-39974D01*
X68016Y-39968D01*
X68024Y-39964D01*
X68033Y-39961D01*
X68042Y-39960D01*
X68051Y-39960D01*
X68060Y-39963D01*
X68069Y-39967D01*
X68076Y-39973D01*
X68083Y-39980D01*
X68087Y-39989D01*
X68090Y-39998D01*
X68091Y-40007D01*
X68092Y-40008D01*
X68112Y-35929D02*
X68111Y-35938D01*
X68108Y-35947D01*
X68103Y-35956D01*
X68097Y-35963D01*
X68090Y-35969D01*
X68081Y-35974D01*
X68072Y-35976D01*
X68063Y-35977D01*
X68054Y-35977D01*
X68045Y-35974D01*
X68037Y-35970D01*
X68029Y-35964D01*
X68023Y-35956D01*
X68018Y-35948D01*
X68016Y-35939D01*
X68015Y-35929D01*
X68015Y-35921D01*
X68018Y-35911D01*
X68022Y-35903D01*
X68028Y-35895D01*
X68036Y-35889D01*
X68044Y-35885D01*
X68053Y-35882D01*
X68062Y-35881D01*
X68071Y-35881D01*
X68080Y-35884D01*
X68089Y-35888D01*
X68096Y-35894D01*
X68103Y-35901D01*
X68107Y-35910D01*
X68110Y-35919D01*
X68111Y-35928D01*
X68112Y-35929D01*
X68134Y-36203D02*
X68133Y-36212D01*
X68130Y-36221D01*
X68125Y-36230D01*
X68119Y-36237D01*
X68112Y-36243D01*
X68103Y-36248D01*
X68094Y-36250D01*
X68085Y-36251D01*
X68076Y-36251D01*
X68067Y-36248D01*
X68059Y-36244D01*
X68051Y-36238D01*
X68045Y-36230D01*
X68040Y-36222D01*
X68038Y-36213D01*
X68037Y-36203D01*
X68037Y-36195D01*
X68040Y-36185D01*
X68044Y-36177D01*
X68050Y-36169D01*
X68058Y-36163D01*
X68066Y-36159D01*
X68075Y-36156D01*
X68084Y-36155D01*
X68093Y-36155D01*
X68102Y-36158D01*
X68111Y-36162D01*
X68118Y-36168D01*
X68125Y-36175D01*
X68129Y-36184D01*
X68132Y-36193D01*
X68133Y-36202D01*
X68134Y-36203D01*
X68699Y-42012D02*
X68698Y-42021D01*
X68695Y-42030D01*
X68690Y-42039D01*
X68684Y-42046D01*
X68677Y-42052D01*
X68668Y-42057D01*
X68659Y-42059D01*
X68650Y-42060D01*
X68641Y-42060D01*
X68632Y-42057D01*
X68624Y-42053D01*
X68616Y-42047D01*
X68610Y-42039D01*
X68605Y-42031D01*
X68603Y-42022D01*
X68602Y-42012D01*
X68602Y-42004D01*
X68605Y-41994D01*
X68609Y-41986D01*
X68615Y-41978D01*
X68623Y-41972D01*
X68631Y-41968D01*
X68640Y-41965D01*
X68649Y-41964D01*
X68658Y-41964D01*
X68667Y-41967D01*
X68676Y-41971D01*
X68683Y-41977D01*
X68690Y-41984D01*
X68694Y-41993D01*
X68697Y-42002D01*
X68698Y-42011D01*
X68699Y-42012D01*
X68825Y-42551D02*
X68824Y-42560D01*
X68821Y-42569D01*
X68816Y-42578D01*
X68810Y-42585D01*
X68803Y-42591D01*
X68794Y-42596D01*
X68785Y-42598D01*
X68776Y-42599D01*
X68767Y-42599D01*
X68758Y-42596D01*
X68750Y-42592D01*
X68742Y-42586D01*
X68736Y-42578D01*
X68731Y-42570D01*
X68729Y-42561D01*
X68728Y-42551D01*
X68728Y-42543D01*
X68731Y-42533D01*
X68735Y-42525D01*
X68741Y-42517D01*
X68749Y-42511D01*
X68757Y-42507D01*
X68766Y-42504D01*
X68775Y-42503D01*
X68784Y-42503D01*
X68793Y-42506D01*
X68802Y-42510D01*
X68809Y-42516D01*
X68816Y-42523D01*
X68820Y-42532D01*
X68823Y-42541D01*
X68824Y-42550D01*
X68825Y-42551D01*
X69096Y-38165D02*
X69095Y-38174D01*
X69092Y-38183D01*
X69087Y-38192D01*
X69081Y-38199D01*
X69074Y-38205D01*
X69065Y-38210D01*
X69056Y-38212D01*
X69047Y-38213D01*
X69038Y-38213D01*
X69029Y-38210D01*
X69021Y-38206D01*
X69013Y-38200D01*
X69007Y-38192D01*
X69002Y-38184D01*
X69000Y-38175D01*
X68999Y-38165D01*
X68999Y-38157D01*
X69002Y-38147D01*
X69006Y-38139D01*
X69012Y-38131D01*
X69020Y-38125D01*
X69028Y-38121D01*
X69037Y-38118D01*
X69046Y-38117D01*
X69055Y-38117D01*
X69064Y-38120D01*
X69073Y-38124D01*
X69080Y-38130D01*
X69087Y-38137D01*
X69091Y-38146D01*
X69094Y-38155D01*
X69095Y-38164D01*
X69096Y-38165D01*
X69106Y-36142D02*
X69105Y-36151D01*
X69102Y-36160D01*
X69097Y-36169D01*
X69091Y-36176D01*
X69084Y-36182D01*
X69075Y-36187D01*
X69066Y-36189D01*
X69057Y-36190D01*
X69048Y-36190D01*
X69039Y-36187D01*
X69031Y-36183D01*
X69023Y-36177D01*
X69017Y-36169D01*
X69012Y-36161D01*
X69010Y-36152D01*
X69009Y-36142D01*
X69009Y-36134D01*
X69012Y-36124D01*
X69016Y-36116D01*
X69022Y-36108D01*
X69030Y-36102D01*
X69038Y-36098D01*
X69047Y-36095D01*
X69056Y-36094D01*
X69065Y-36094D01*
X69074Y-36097D01*
X69083Y-36101D01*
X69090Y-36107D01*
X69097Y-36114D01*
X69101Y-36123D01*
X69104Y-36132D01*
X69105Y-36141D01*
X69106Y-36142D01*
X69120Y-37157D02*
X69119Y-37166D01*
X69116Y-37175D01*
X69111Y-37184D01*
X69105Y-37191D01*
X69098Y-37197D01*
X69089Y-37202D01*
X69080Y-37204D01*
X69071Y-37205D01*
X69062Y-37205D01*
X69053Y-37202D01*
X69045Y-37198D01*
X69037Y-37192D01*
X69031Y-37184D01*
X69026Y-37176D01*
X69024Y-37167D01*
X69023Y-37157D01*
X69023Y-37149D01*
X69026Y-37139D01*
X69030Y-37131D01*
X69036Y-37123D01*
X69044Y-37117D01*
X69052Y-37113D01*
X69061Y-37110D01*
X69070Y-37109D01*
X69079Y-37109D01*
X69088Y-37112D01*
X69097Y-37116D01*
X69104Y-37122D01*
X69111Y-37129D01*
X69115Y-37138D01*
X69118Y-37147D01*
X69119Y-37156D01*
X69120Y-37157D01*
X69380Y-42209D02*
X69379Y-42218D01*
X69376Y-42227D01*
X69371Y-42236D01*
X69365Y-42243D01*
X69358Y-42249D01*
X69349Y-42254D01*
X69340Y-42256D01*
X69331Y-42257D01*
X69322Y-42257D01*
X69313Y-42254D01*
X69305Y-42250D01*
X69297Y-42244D01*
X69291Y-42236D01*
X69286Y-42228D01*
X69284Y-42219D01*
X69283Y-42209D01*
X69283Y-42201D01*
X69286Y-42191D01*
X69290Y-42183D01*
X69296Y-42175D01*
X69304Y-42169D01*
X69312Y-42165D01*
X69321Y-42162D01*
X69330Y-42161D01*
X69339Y-42161D01*
X69348Y-42164D01*
X69357Y-42168D01*
X69364Y-42174D01*
X69371Y-42181D01*
X69375Y-42190D01*
X69378Y-42199D01*
X69379Y-42208D01*
X69380Y-42209D01*
X69383Y-41756D02*
X69382Y-41765D01*
X69379Y-41774D01*
X69374Y-41783D01*
X69368Y-41790D01*
X69361Y-41796D01*
X69352Y-41801D01*
X69343Y-41803D01*
X69334Y-41804D01*
X69325Y-41804D01*
X69316Y-41801D01*
X69308Y-41797D01*
X69300Y-41791D01*
X69294Y-41783D01*
X69289Y-41775D01*
X69287Y-41766D01*
X69286Y-41756D01*
X69286Y-41748D01*
X69289Y-41738D01*
X69293Y-41730D01*
X69299Y-41722D01*
X69307Y-41716D01*
X69315Y-41712D01*
X69324Y-41709D01*
X69333Y-41708D01*
X69342Y-41708D01*
X69351Y-41711D01*
X69360Y-41715D01*
X69367Y-41721D01*
X69374Y-41728D01*
X69378Y-41737D01*
X69381Y-41746D01*
X69382Y-41755D01*
X69383Y-41756D01*
X69433Y-42915D02*
X69432Y-42924D01*
X69429Y-42933D01*
X69424Y-42942D01*
X69418Y-42949D01*
X69411Y-42955D01*
X69402Y-42960D01*
X69393Y-42962D01*
X69384Y-42963D01*
X69375Y-42963D01*
X69366Y-42960D01*
X69358Y-42956D01*
X69350Y-42950D01*
X69344Y-42942D01*
X69339Y-42934D01*
X69337Y-42925D01*
X69336Y-42915D01*
X69336Y-42907D01*
X69339Y-42897D01*
X69343Y-42889D01*
X69349Y-42881D01*
X69357Y-42875D01*
X69365Y-42871D01*
X69374Y-42868D01*
X69383Y-42867D01*
X69392Y-42867D01*
X69401Y-42870D01*
X69410Y-42874D01*
X69417Y-42880D01*
X69424Y-42887D01*
X69428Y-42896D01*
X69431Y-42905D01*
X69432Y-42914D01*
X69433Y-42915D01*
X69494Y-42656D02*
X69493Y-42665D01*
X69490Y-42674D01*
X69485Y-42683D01*
X69479Y-42690D01*
X69472Y-42696D01*
X69463Y-42701D01*
X69454Y-42703D01*
X69445Y-42704D01*
X69436Y-42704D01*
X69427Y-42701D01*
X69419Y-42697D01*
X69411Y-42691D01*
X69405Y-42683D01*
X69400Y-42675D01*
X69398Y-42666D01*
X69397Y-42656D01*
X69397Y-42648D01*
X69400Y-42638D01*
X69404Y-42630D01*
X69410Y-42622D01*
X69418Y-42616D01*
X69426Y-42612D01*
X69435Y-42609D01*
X69444Y-42608D01*
X69453Y-42608D01*
X69462Y-42611D01*
X69471Y-42615D01*
X69478Y-42621D01*
X69485Y-42628D01*
X69489Y-42637D01*
X69492Y-42646D01*
X69493Y-42655D01*
X69494Y-42656D01*
X69519Y-42400D02*
X69518Y-42409D01*
X69515Y-42418D01*
X69510Y-42427D01*
X69504Y-42434D01*
X69497Y-42440D01*
X69488Y-42445D01*
X69479Y-42447D01*
X69470Y-42448D01*
X69461Y-42448D01*
X69452Y-42445D01*
X69444Y-42441D01*
X69436Y-42435D01*
X69430Y-42427D01*
X69425Y-42419D01*
X69423Y-42410D01*
X69422Y-42400D01*
X69422Y-42392D01*
X69425Y-42382D01*
X69429Y-42374D01*
X69435Y-42366D01*
X69443Y-42360D01*
X69451Y-42356D01*
X69460Y-42353D01*
X69469Y-42352D01*
X69478Y-42352D01*
X69487Y-42355D01*
X69496Y-42359D01*
X69503Y-42365D01*
X69510Y-42372D01*
X69514Y-42381D01*
X69517Y-42390D01*
X69518Y-42399D01*
X69519Y-42400D01*
X69543Y-41514D02*
X69542Y-41523D01*
X69539Y-41532D01*
X69534Y-41541D01*
X69528Y-41548D01*
X69521Y-41554D01*
X69512Y-41559D01*
X69503Y-41561D01*
X69494Y-41562D01*
X69485Y-41562D01*
X69476Y-41559D01*
X69468Y-41555D01*
X69460Y-41549D01*
X69454Y-41541D01*
X69449Y-41533D01*
X69447Y-41524D01*
X69446Y-41514D01*
X69446Y-41506D01*
X69449Y-41496D01*
X69453Y-41488D01*
X69459Y-41480D01*
X69467Y-41474D01*
X69475Y-41470D01*
X69484Y-41467D01*
X69493Y-41466D01*
X69502Y-41466D01*
X69511Y-41469D01*
X69520Y-41473D01*
X69527Y-41479D01*
X69534Y-41486D01*
X69538Y-41495D01*
X69541Y-41504D01*
X69542Y-41513D01*
X69543Y-41514D01*
X69868Y-29744D02*
X69867Y-29753D01*
X69864Y-29762D01*
X69859Y-29771D01*
X69853Y-29778D01*
X69846Y-29784D01*
X69837Y-29789D01*
X69828Y-29791D01*
X69819Y-29792D01*
X69810Y-29792D01*
X69801Y-29789D01*
X69793Y-29785D01*
X69785Y-29779D01*
X69779Y-29771D01*
X69774Y-29763D01*
X69772Y-29754D01*
X69771Y-29744D01*
X69771Y-29736D01*
X69774Y-29726D01*
X69778Y-29718D01*
X69784Y-29710D01*
X69792Y-29704D01*
X69800Y-29700D01*
X69809Y-29697D01*
X69818Y-29696D01*
X69827Y-29696D01*
X69836Y-29699D01*
X69845Y-29703D01*
X69852Y-29709D01*
X69859Y-29716D01*
X69863Y-29725D01*
X69866Y-29734D01*
X69867Y-29743D01*
X69868Y-29744D01*
X71423Y-29445D02*
X71422Y-29454D01*
X71419Y-29463D01*
X71414Y-29472D01*
X71408Y-29479D01*
X71401Y-29485D01*
X71392Y-29490D01*
X71383Y-29492D01*
X71374Y-29493D01*
X71365Y-29493D01*
X71356Y-29490D01*
X71348Y-29486D01*
X71340Y-29480D01*
X71334Y-29472D01*
X71329Y-29464D01*
X71327Y-29455D01*
X71326Y-29445D01*
X71326Y-29437D01*
X71329Y-29427D01*
X71333Y-29419D01*
X71339Y-29411D01*
X71347Y-29405D01*
X71355Y-29401D01*
X71364Y-29398D01*
X71373Y-29397D01*
X71382Y-29397D01*
X71391Y-29400D01*
X71400Y-29404D01*
X71407Y-29410D01*
X71414Y-29417D01*
X71418Y-29426D01*
X71421Y-29435D01*
X71422Y-29444D01*
X71423Y-29445D01*
X73718Y-41972D02*
X73717Y-41981D01*
X73714Y-41990D01*
X73709Y-41999D01*
X73703Y-42006D01*
X73696Y-42012D01*
X73687Y-42017D01*
X73678Y-42019D01*
X73669Y-42020D01*
X73660Y-42020D01*
X73651Y-42017D01*
X73643Y-42013D01*
X73635Y-42007D01*
X73629Y-41999D01*
X73624Y-41991D01*
X73622Y-41982D01*
X73621Y-41972D01*
X73621Y-41964D01*
X73624Y-41954D01*
X73628Y-41946D01*
X73634Y-41938D01*
X73642Y-41932D01*
X73650Y-41928D01*
X73659Y-41925D01*
X73668Y-41924D01*
X73677Y-41924D01*
X73686Y-41927D01*
X73695Y-41931D01*
X73702Y-41937D01*
X73709Y-41944D01*
X73713Y-41953D01*
X73716Y-41962D01*
X73717Y-41971D01*
X73718Y-41972D01*
X73730Y-43331D02*
X73729Y-43340D01*
X73726Y-43349D01*
X73721Y-43358D01*
X73715Y-43365D01*
X73708Y-43371D01*
X73699Y-43376D01*
X73690Y-43378D01*
X73681Y-43379D01*
X73672Y-43379D01*
X73663Y-43376D01*
X73655Y-43372D01*
X73647Y-43366D01*
X73641Y-43358D01*
X73636Y-43350D01*
X73634Y-43341D01*
X73633Y-43331D01*
X73633Y-43323D01*
X73636Y-43313D01*
X73640Y-43305D01*
X73646Y-43297D01*
X73654Y-43291D01*
X73662Y-43287D01*
X73671Y-43284D01*
X73680Y-43283D01*
X73689Y-43283D01*
X73698Y-43286D01*
X73707Y-43290D01*
X73714Y-43296D01*
X73721Y-43303D01*
X73725Y-43312D01*
X73728Y-43321D01*
X73729Y-43330D01*
X73730Y-43331D01*
X48431Y-26024D02*
X48431Y-26338D01*
X48588Y-26181D02*
X48274Y-26181D01*
X48431Y-27024D02*
X48431Y-27338D01*
X48588Y-27181D02*
X48274Y-27181D01*
X48431Y-45024D02*
X48431Y-45338D01*
X48588Y-45181D02*
X48274Y-45181D01*
X48431Y-46024D02*
X48431Y-46338D01*
X48588Y-46181D02*
X48274Y-46181D01*
X49431Y-26024D02*
X49431Y-26338D01*
X49588Y-26181D02*
X49274Y-26181D01*
X49431Y-27024D02*
X49431Y-27338D01*
X49588Y-27181D02*
X49274Y-27181D01*
X49431Y-45024D02*
X49431Y-45338D01*
X49588Y-45181D02*
X49274Y-45181D01*
X49431Y-46024D02*
X49431Y-46338D01*
X49588Y-46181D02*
X49274Y-46181D01*
X50431Y-26024D02*
X50431Y-26338D01*
X50588Y-26181D02*
X50274Y-26181D01*
X50431Y-27024D02*
X50431Y-27338D01*
X50588Y-27181D02*
X50274Y-27181D01*
X50431Y-45024D02*
X50431Y-45338D01*
X50588Y-45181D02*
X50274Y-45181D01*
X50431Y-46024D02*
X50431Y-46338D01*
X50588Y-46181D02*
X50274Y-46181D01*
X50610Y-29768D02*
X50610Y-30082D01*
X50767Y-29925D02*
X50453Y-29925D01*
X51431Y-26024D02*
X51431Y-26338D01*
X51588Y-26181D02*
X51274Y-26181D01*
X51431Y-27024D02*
X51431Y-27338D01*
X51588Y-27181D02*
X51274Y-27181D01*
X51431Y-45024D02*
X51431Y-45338D01*
X51588Y-45181D02*
X51274Y-45181D01*
X51431Y-46024D02*
X51431Y-46338D01*
X51588Y-46181D02*
X51274Y-46181D01*
X51610Y-29768D02*
X51610Y-30082D01*
X51767Y-29925D02*
X51453Y-29925D01*
X52431Y-26024D02*
X52431Y-26338D01*
X52588Y-26181D02*
X52274Y-26181D01*
X52431Y-27024D02*
X52431Y-27338D01*
X52588Y-27181D02*
X52274Y-27181D01*
X52431Y-45024D02*
X52431Y-45338D01*
X52588Y-45181D02*
X52274Y-45181D01*
X52431Y-46024D02*
X52431Y-46338D01*
X52588Y-46181D02*
X52274Y-46181D01*
X52610Y-29768D02*
X52610Y-30082D01*
X52767Y-29925D02*
X52453Y-29925D01*
X53431Y-26024D02*
X53431Y-26338D01*
X53588Y-26181D02*
X53274Y-26181D01*
X53431Y-27024D02*
X53431Y-27338D01*
X53588Y-27181D02*
X53274Y-27181D01*
X53431Y-45024D02*
X53431Y-45338D01*
X53588Y-45181D02*
X53274Y-45181D01*
X53431Y-46024D02*
X53431Y-46338D01*
X53588Y-46181D02*
X53274Y-46181D01*
X53610Y-29768D02*
X53610Y-30082D01*
X53767Y-29925D02*
X53453Y-29925D01*
X54431Y-26024D02*
X54431Y-26338D01*
X54588Y-26181D02*
X54274Y-26181D01*
X54431Y-27024D02*
X54431Y-27338D01*
X54588Y-27181D02*
X54274Y-27181D01*
X54431Y-45024D02*
X54431Y-45338D01*
X54588Y-45181D02*
X54274Y-45181D01*
X54431Y-46024D02*
X54431Y-46338D01*
X54588Y-46181D02*
X54274Y-46181D01*
X54610Y-29768D02*
X54610Y-30082D01*
X54767Y-29925D02*
X54453Y-29925D01*
X55431Y-26024D02*
X55431Y-26338D01*
X55588Y-26181D02*
X55274Y-26181D01*
X55431Y-27024D02*
X55431Y-27338D01*
X55588Y-27181D02*
X55274Y-27181D01*
X55431Y-45024D02*
X55431Y-45338D01*
X55588Y-45181D02*
X55274Y-45181D01*
X55431Y-46024D02*
X55431Y-46338D01*
X55588Y-46181D02*
X55274Y-46181D01*
X55610Y-29768D02*
X55610Y-30082D01*
X55767Y-29925D02*
X55453Y-29925D01*
X56431Y-26024D02*
X56431Y-26338D01*
X56588Y-26181D02*
X56274Y-26181D01*
X56431Y-27024D02*
X56431Y-27338D01*
X56588Y-27181D02*
X56274Y-27181D01*
X56431Y-45024D02*
X56431Y-45338D01*
X56588Y-45181D02*
X56274Y-45181D01*
X56431Y-46024D02*
X56431Y-46338D01*
X56588Y-46181D02*
X56274Y-46181D01*
X57431Y-26024D02*
X57431Y-26338D01*
X57588Y-26181D02*
X57274Y-26181D01*
X57431Y-27024D02*
X57431Y-27338D01*
X57588Y-27181D02*
X57274Y-27181D01*
X57431Y-45024D02*
X57431Y-45338D01*
X57588Y-45181D02*
X57274Y-45181D01*
X57431Y-46024D02*
X57431Y-46338D01*
X57588Y-46181D02*
X57274Y-46181D01*
X58431Y-26024D02*
X58431Y-26338D01*
X58588Y-26181D02*
X58274Y-26181D01*
X58431Y-27024D02*
X58431Y-27338D01*
X58588Y-27181D02*
X58274Y-27181D01*
X58431Y-45024D02*
X58431Y-45338D01*
X58588Y-45181D02*
X58274Y-45181D01*
X58431Y-46024D02*
X58431Y-46338D01*
X58588Y-46181D02*
X58274Y-46181D01*
X59431Y-26024D02*
X59431Y-26338D01*
X59588Y-26181D02*
X59274Y-26181D01*
X59431Y-27024D02*
X59431Y-27338D01*
X59588Y-27181D02*
X59274Y-27181D01*
X59431Y-45024D02*
X59431Y-45338D01*
X59588Y-45181D02*
X59274Y-45181D01*
X59431Y-46024D02*
X59431Y-46338D01*
X59588Y-46181D02*
X59274Y-46181D01*
X60431Y-26024D02*
X60431Y-26338D01*
X60588Y-26181D02*
X60274Y-26181D01*
X60431Y-27024D02*
X60431Y-27338D01*
X60588Y-27181D02*
X60274Y-27181D01*
X60431Y-45024D02*
X60431Y-45338D01*
X60588Y-45181D02*
X60274Y-45181D01*
X60431Y-46024D02*
X60431Y-46338D01*
X60588Y-46181D02*
X60274Y-46181D01*
X61431Y-26024D02*
X61431Y-26338D01*
X61588Y-26181D02*
X61274Y-26181D01*
X61431Y-27024D02*
X61431Y-27338D01*
X61588Y-27181D02*
X61274Y-27181D01*
X61431Y-45024D02*
X61431Y-45338D01*
X61588Y-45181D02*
X61274Y-45181D01*
X61431Y-46024D02*
X61431Y-46338D01*
X61588Y-46181D02*
X61274Y-46181D01*
X62431Y-26024D02*
X62431Y-26338D01*
X62588Y-26181D02*
X62274Y-26181D01*
X62431Y-27024D02*
X62431Y-27338D01*
X62588Y-27181D02*
X62274Y-27181D01*
X62431Y-45024D02*
X62431Y-45338D01*
X62588Y-45181D02*
X62274Y-45181D01*
X62431Y-46024D02*
X62431Y-46338D01*
X62588Y-46181D02*
X62274Y-46181D01*
X63431Y-26024D02*
X63431Y-26338D01*
X63588Y-26181D02*
X63274Y-26181D01*
X63431Y-27024D02*
X63431Y-27338D01*
X63588Y-27181D02*
X63274Y-27181D01*
X63431Y-45024D02*
X63431Y-45338D01*
X63588Y-45181D02*
X63274Y-45181D01*
X63431Y-46024D02*
X63431Y-46338D01*
X63588Y-46181D02*
X63274Y-46181D01*
X64431Y-26024D02*
X64431Y-26338D01*
X64588Y-26181D02*
X64274Y-26181D01*
X64431Y-27024D02*
X64431Y-27338D01*
X64588Y-27181D02*
X64274Y-27181D01*
X64431Y-45024D02*
X64431Y-45338D01*
X64588Y-45181D02*
X64274Y-45181D01*
X64431Y-46024D02*
X64431Y-46338D01*
X64588Y-46181D02*
X64274Y-46181D01*
X65431Y-26024D02*
X65431Y-26338D01*
X65588Y-26181D02*
X65274Y-26181D01*
X65431Y-27024D02*
X65431Y-27338D01*
X65588Y-27181D02*
X65274Y-27181D01*
X65431Y-45024D02*
X65431Y-45338D01*
X65588Y-45181D02*
X65274Y-45181D01*
X65431Y-46024D02*
X65431Y-46338D01*
X65588Y-46181D02*
X65274Y-46181D01*
X66431Y-26024D02*
X66431Y-26338D01*
X66588Y-26181D02*
X66274Y-26181D01*
X66431Y-27024D02*
X66431Y-27338D01*
X66588Y-27181D02*
X66274Y-27181D01*
X66431Y-45024D02*
X66431Y-45338D01*
X66588Y-45181D02*
X66274Y-45181D01*
X66431Y-46024D02*
X66431Y-46338D01*
X66588Y-46181D02*
X66274Y-46181D01*
X67431Y-26024D02*
X67431Y-26338D01*
X67588Y-26181D02*
X67274Y-26181D01*
X67431Y-27024D02*
X67431Y-27338D01*
X67588Y-27181D02*
X67274Y-27181D01*
X67431Y-45024D02*
X67431Y-45338D01*
X67588Y-45181D02*
X67274Y-45181D01*
X67431Y-46024D02*
X67431Y-46338D01*
X67588Y-46181D02*
X67274Y-46181D01*
X68431Y-26024D02*
X68431Y-26338D01*
X68588Y-26181D02*
X68274Y-26181D01*
X68431Y-27024D02*
X68431Y-27338D01*
X68588Y-27181D02*
X68274Y-27181D01*
X68431Y-45024D02*
X68431Y-45338D01*
X68588Y-45181D02*
X68274Y-45181D01*
X68431Y-46024D02*
X68431Y-46338D01*
X68588Y-46181D02*
X68274Y-46181D01*
X69431Y-26024D02*
X69431Y-26338D01*
X69588Y-26181D02*
X69274Y-26181D01*
X69431Y-27024D02*
X69431Y-27338D01*
X69588Y-27181D02*
X69274Y-27181D01*
X69431Y-45024D02*
X69431Y-45338D01*
X69588Y-45181D02*
X69274Y-45181D01*
X69431Y-46024D02*
X69431Y-46338D01*
X69588Y-46181D02*
X69274Y-46181D01*
X70431Y-26024D02*
X70431Y-26338D01*
X70588Y-26181D02*
X70274Y-26181D01*
X70431Y-27024D02*
X70431Y-27338D01*
X70588Y-27181D02*
X70274Y-27181D01*
X70431Y-45024D02*
X70431Y-45338D01*
X70588Y-45181D02*
X70274Y-45181D01*
X70431Y-46024D02*
X70431Y-46338D01*
X70588Y-46181D02*
X70274Y-46181D01*
X71431Y-31774D02*
X71431Y-32088D01*
X71588Y-31931D02*
X71274Y-31931D01*
X71431Y-32774D02*
X71431Y-33088D01*
X71588Y-32931D02*
X71274Y-32931D01*
X72431Y-31774D02*
X72431Y-32088D01*
X72588Y-31931D02*
X72274Y-31931D01*
X72431Y-32774D02*
X72431Y-33088D01*
X72588Y-32931D02*
X72274Y-32931D01*
X73431Y-31774D02*
X73431Y-32088D01*
X73588Y-31931D02*
X73274Y-31931D01*
X73431Y-32774D02*
X73431Y-33088D01*
X73588Y-32931D02*
X73274Y-32931D01*
X74431Y-31774D02*
X74431Y-32088D01*
X74588Y-31931D02*
X74274Y-31931D01*
X74431Y-32774D02*
X74431Y-33088D01*
X74588Y-32931D02*
X74274Y-32931D01*
X75431Y-31774D02*
X75431Y-32088D01*
X75588Y-31931D02*
X75274Y-31931D01*
X75431Y-32774D02*
X75431Y-33088D01*
X75588Y-32931D02*
X75274Y-32931D01*
X48218Y-31949D02*
X48214Y-31979D01*
X48206Y-32009D01*
X48191Y-32036D01*
X48171Y-32061D01*
X48147Y-32080D01*
X48120Y-32095D01*
X48090Y-32104D01*
X48060Y-32107D01*
X48030Y-32105D01*
X48000Y-32096D01*
X47972Y-32082D01*
X47948Y-32062D01*
X47928Y-32038D01*
X47913Y-32011D01*
X47904Y-31982D01*
X47901Y-31951D01*
X47903Y-31921D01*
X47912Y-31891D01*
X47926Y-31863D01*
X47945Y-31839D01*
X47969Y-31819D01*
X47996Y-31804D01*
X48025Y-31794D01*
X48056Y-31791D01*
X48086Y-31793D01*
X48116Y-31801D01*
X48144Y-31815D01*
X48168Y-31834D01*
X48188Y-31858D01*
X48204Y-31885D01*
X48214Y-31914D01*
X48217Y-31945D01*
X48218Y-31949D01*
X47900Y-31790D02*
X48218Y-32108D01*
X48218Y-31790D02*
X47900Y-32108D01*
X48218Y-32949D02*
X48214Y-32979D01*
X48206Y-33009D01*
X48191Y-33036D01*
X48171Y-33061D01*
X48147Y-33080D01*
X48120Y-33095D01*
X48090Y-33104D01*
X48060Y-33107D01*
X48030Y-33105D01*
X48000Y-33096D01*
X47972Y-33082D01*
X47948Y-33062D01*
X47928Y-33038D01*
X47913Y-33011D01*
X47904Y-32982D01*
X47901Y-32951D01*
X47903Y-32921D01*
X47912Y-32891D01*
X47926Y-32863D01*
X47945Y-32839D01*
X47969Y-32819D01*
X47996Y-32804D01*
X48025Y-32794D01*
X48056Y-32791D01*
X48086Y-32793D01*
X48116Y-32801D01*
X48144Y-32815D01*
X48168Y-32834D01*
X48188Y-32858D01*
X48204Y-32885D01*
X48214Y-32914D01*
X48217Y-32945D01*
X48218Y-32949D01*
X47900Y-32790D02*
X48218Y-33108D01*
X48218Y-32790D02*
X47900Y-33108D01*
X48218Y-33949D02*
X48214Y-33979D01*
X48206Y-34009D01*
X48191Y-34036D01*
X48171Y-34061D01*
X48147Y-34080D01*
X48120Y-34095D01*
X48090Y-34104D01*
X48060Y-34107D01*
X48030Y-34105D01*
X48000Y-34096D01*
X47972Y-34082D01*
X47948Y-34062D01*
X47928Y-34038D01*
X47913Y-34011D01*
X47904Y-33982D01*
X47901Y-33951D01*
X47903Y-33921D01*
X47912Y-33891D01*
X47926Y-33863D01*
X47945Y-33839D01*
X47969Y-33819D01*
X47996Y-33804D01*
X48025Y-33794D01*
X48056Y-33791D01*
X48086Y-33793D01*
X48116Y-33801D01*
X48144Y-33815D01*
X48168Y-33834D01*
X48188Y-33858D01*
X48204Y-33885D01*
X48214Y-33914D01*
X48217Y-33945D01*
X48218Y-33949D01*
X47900Y-33790D02*
X48218Y-34108D01*
X48218Y-33790D02*
X47900Y-34108D01*
X48218Y-34949D02*
X48214Y-34979D01*
X48206Y-35009D01*
X48191Y-35036D01*
X48171Y-35061D01*
X48147Y-35080D01*
X48120Y-35095D01*
X48090Y-35104D01*
X48060Y-35107D01*
X48030Y-35105D01*
X48000Y-35096D01*
X47972Y-35082D01*
X47948Y-35062D01*
X47928Y-35038D01*
X47913Y-35011D01*
X47904Y-34982D01*
X47901Y-34951D01*
X47903Y-34921D01*
X47912Y-34891D01*
X47926Y-34863D01*
X47945Y-34839D01*
X47969Y-34819D01*
X47996Y-34804D01*
X48025Y-34794D01*
X48056Y-34791D01*
X48086Y-34793D01*
X48116Y-34801D01*
X48144Y-34815D01*
X48168Y-34834D01*
X48188Y-34858D01*
X48204Y-34885D01*
X48214Y-34914D01*
X48217Y-34945D01*
X48218Y-34949D01*
X47900Y-34790D02*
X48218Y-35108D01*
X48218Y-34790D02*
X47900Y-35108D01*
X48218Y-35949D02*
X48214Y-35979D01*
X48206Y-36009D01*
X48191Y-36036D01*
X48171Y-36061D01*
X48147Y-36080D01*
X48120Y-36095D01*
X48090Y-36104D01*
X48060Y-36107D01*
X48030Y-36105D01*
X48000Y-36096D01*
X47972Y-36082D01*
X47948Y-36062D01*
X47928Y-36038D01*
X47913Y-36011D01*
X47904Y-35982D01*
X47901Y-35951D01*
X47903Y-35921D01*
X47912Y-35891D01*
X47926Y-35863D01*
X47945Y-35839D01*
X47969Y-35819D01*
X47996Y-35804D01*
X48025Y-35794D01*
X48056Y-35791D01*
X48086Y-35793D01*
X48116Y-35801D01*
X48144Y-35815D01*
X48168Y-35834D01*
X48188Y-35858D01*
X48204Y-35885D01*
X48214Y-35914D01*
X48217Y-35945D01*
X48218Y-35949D01*
X47900Y-35790D02*
X48218Y-36108D01*
X48218Y-35790D02*
X47900Y-36108D01*
X48218Y-36949D02*
X48214Y-36979D01*
X48206Y-37009D01*
X48191Y-37036D01*
X48171Y-37061D01*
X48147Y-37080D01*
X48120Y-37095D01*
X48090Y-37104D01*
X48060Y-37107D01*
X48030Y-37105D01*
X48000Y-37096D01*
X47972Y-37082D01*
X47948Y-37062D01*
X47928Y-37038D01*
X47913Y-37011D01*
X47904Y-36982D01*
X47901Y-36951D01*
X47903Y-36921D01*
X47912Y-36891D01*
X47926Y-36863D01*
X47945Y-36839D01*
X47969Y-36819D01*
X47996Y-36804D01*
X48025Y-36794D01*
X48056Y-36791D01*
X48086Y-36793D01*
X48116Y-36801D01*
X48144Y-36815D01*
X48168Y-36834D01*
X48188Y-36858D01*
X48204Y-36885D01*
X48214Y-36914D01*
X48217Y-36945D01*
X48218Y-36949D01*
X47900Y-36790D02*
X48218Y-37108D01*
X48218Y-36790D02*
X47900Y-37108D01*
X48218Y-37949D02*
X48214Y-37979D01*
X48206Y-38009D01*
X48191Y-38036D01*
X48171Y-38061D01*
X48147Y-38080D01*
X48120Y-38095D01*
X48090Y-38104D01*
X48060Y-38107D01*
X48030Y-38105D01*
X48000Y-38096D01*
X47972Y-38082D01*
X47948Y-38062D01*
X47928Y-38038D01*
X47913Y-38011D01*
X47904Y-37982D01*
X47901Y-37951D01*
X47903Y-37921D01*
X47912Y-37891D01*
X47926Y-37863D01*
X47945Y-37839D01*
X47969Y-37819D01*
X47996Y-37804D01*
X48025Y-37794D01*
X48056Y-37791D01*
X48086Y-37793D01*
X48116Y-37801D01*
X48144Y-37815D01*
X48168Y-37834D01*
X48188Y-37858D01*
X48204Y-37885D01*
X48214Y-37914D01*
X48217Y-37945D01*
X48218Y-37949D01*
X47900Y-37790D02*
X48218Y-38108D01*
X48218Y-37790D02*
X47900Y-38108D01*
X48218Y-38949D02*
X48214Y-38979D01*
X48206Y-39009D01*
X48191Y-39036D01*
X48171Y-39061D01*
X48147Y-39080D01*
X48120Y-39095D01*
X48090Y-39104D01*
X48060Y-39107D01*
X48030Y-39105D01*
X48000Y-39096D01*
X47972Y-39082D01*
X47948Y-39062D01*
X47928Y-39038D01*
X47913Y-39011D01*
X47904Y-38982D01*
X47901Y-38951D01*
X47903Y-38921D01*
X47912Y-38891D01*
X47926Y-38863D01*
X47945Y-38839D01*
X47969Y-38819D01*
X47996Y-38804D01*
X48025Y-38794D01*
X48056Y-38791D01*
X48086Y-38793D01*
X48116Y-38801D01*
X48144Y-38815D01*
X48168Y-38834D01*
X48188Y-38858D01*
X48204Y-38885D01*
X48214Y-38914D01*
X48217Y-38945D01*
X48218Y-38949D01*
X47900Y-38790D02*
X48218Y-39108D01*
X48218Y-38790D02*
X47900Y-39108D01*
X48218Y-39949D02*
X48214Y-39979D01*
X48206Y-40009D01*
X48191Y-40036D01*
X48171Y-40061D01*
X48147Y-40080D01*
X48120Y-40095D01*
X48090Y-40104D01*
X48060Y-40107D01*
X48030Y-40105D01*
X48000Y-40096D01*
X47972Y-40082D01*
X47948Y-40062D01*
X47928Y-40038D01*
X47913Y-40011D01*
X47904Y-39982D01*
X47901Y-39951D01*
X47903Y-39921D01*
X47912Y-39891D01*
X47926Y-39863D01*
X47945Y-39839D01*
X47969Y-39819D01*
X47996Y-39804D01*
X48025Y-39794D01*
X48056Y-39791D01*
X48086Y-39793D01*
X48116Y-39801D01*
X48144Y-39815D01*
X48168Y-39834D01*
X48188Y-39858D01*
X48204Y-39885D01*
X48214Y-39914D01*
X48217Y-39945D01*
X48218Y-39949D01*
X47900Y-39790D02*
X48218Y-40108D01*
X48218Y-39790D02*
X47900Y-40108D01*
X48218Y-40949D02*
X48214Y-40979D01*
X48206Y-41009D01*
X48191Y-41036D01*
X48171Y-41061D01*
X48147Y-41080D01*
X48120Y-41095D01*
X48090Y-41104D01*
X48060Y-41107D01*
X48030Y-41105D01*
X48000Y-41096D01*
X47972Y-41082D01*
X47948Y-41062D01*
X47928Y-41038D01*
X47913Y-41011D01*
X47904Y-40982D01*
X47901Y-40951D01*
X47903Y-40921D01*
X47912Y-40891D01*
X47926Y-40863D01*
X47945Y-40839D01*
X47969Y-40819D01*
X47996Y-40804D01*
X48025Y-40794D01*
X48056Y-40791D01*
X48086Y-40793D01*
X48116Y-40801D01*
X48144Y-40815D01*
X48168Y-40834D01*
X48188Y-40858D01*
X48204Y-40885D01*
X48214Y-40914D01*
X48217Y-40945D01*
X48218Y-40949D01*
X47900Y-40790D02*
X48218Y-41108D01*
X48218Y-40790D02*
X47900Y-41108D01*
X49225Y-31949D02*
X49221Y-31979D01*
X49213Y-32009D01*
X49198Y-32036D01*
X49178Y-32061D01*
X49154Y-32080D01*
X49127Y-32095D01*
X49097Y-32104D01*
X49067Y-32107D01*
X49037Y-32105D01*
X49007Y-32096D01*
X48979Y-32082D01*
X48955Y-32062D01*
X48935Y-32038D01*
X48920Y-32011D01*
X48911Y-31982D01*
X48908Y-31951D01*
X48910Y-31921D01*
X48919Y-31891D01*
X48933Y-31863D01*
X48952Y-31839D01*
X48976Y-31819D01*
X49003Y-31804D01*
X49032Y-31794D01*
X49063Y-31791D01*
X49093Y-31793D01*
X49123Y-31801D01*
X49151Y-31815D01*
X49175Y-31834D01*
X49195Y-31858D01*
X49211Y-31885D01*
X49221Y-31914D01*
X49224Y-31945D01*
X49225Y-31949D01*
X48907Y-31790D02*
X49225Y-32108D01*
X49225Y-31790D02*
X48907Y-32108D01*
X49225Y-32949D02*
X49221Y-32979D01*
X49213Y-33009D01*
X49198Y-33036D01*
X49178Y-33061D01*
X49154Y-33080D01*
X49127Y-33095D01*
X49097Y-33104D01*
X49067Y-33107D01*
X49037Y-33105D01*
X49007Y-33096D01*
X48979Y-33082D01*
X48955Y-33062D01*
X48935Y-33038D01*
X48920Y-33011D01*
X48911Y-32982D01*
X48908Y-32951D01*
X48910Y-32921D01*
X48919Y-32891D01*
X48933Y-32863D01*
X48952Y-32839D01*
X48976Y-32819D01*
X49003Y-32804D01*
X49032Y-32794D01*
X49063Y-32791D01*
X49093Y-32793D01*
X49123Y-32801D01*
X49151Y-32815D01*
X49175Y-32834D01*
X49195Y-32858D01*
X49211Y-32885D01*
X49221Y-32914D01*
X49224Y-32945D01*
X49225Y-32949D01*
X48907Y-32790D02*
X49225Y-33108D01*
X49225Y-32790D02*
X48907Y-33108D01*
X49225Y-33949D02*
X49221Y-33979D01*
X49213Y-34009D01*
X49198Y-34036D01*
X49178Y-34061D01*
X49154Y-34080D01*
X49127Y-34095D01*
X49097Y-34104D01*
X49067Y-34107D01*
X49037Y-34105D01*
X49007Y-34096D01*
X48979Y-34082D01*
X48955Y-34062D01*
X48935Y-34038D01*
X48920Y-34011D01*
X48911Y-33982D01*
X48908Y-33951D01*
X48910Y-33921D01*
X48919Y-33891D01*
X48933Y-33863D01*
X48952Y-33839D01*
X48976Y-33819D01*
X49003Y-33804D01*
X49032Y-33794D01*
X49063Y-33791D01*
X49093Y-33793D01*
X49123Y-33801D01*
X49151Y-33815D01*
X49175Y-33834D01*
X49195Y-33858D01*
X49211Y-33885D01*
X49221Y-33914D01*
X49224Y-33945D01*
X49225Y-33949D01*
X48907Y-33790D02*
X49225Y-34108D01*
X49225Y-33790D02*
X48907Y-34108D01*
X49225Y-34949D02*
X49221Y-34979D01*
X49213Y-35009D01*
X49198Y-35036D01*
X49178Y-35061D01*
X49154Y-35080D01*
X49127Y-35095D01*
X49097Y-35104D01*
X49067Y-35107D01*
X49037Y-35105D01*
X49007Y-35096D01*
X48979Y-35082D01*
X48955Y-35062D01*
X48935Y-35038D01*
X48920Y-35011D01*
X48911Y-34982D01*
X48908Y-34951D01*
X48910Y-34921D01*
X48919Y-34891D01*
X48933Y-34863D01*
X48952Y-34839D01*
X48976Y-34819D01*
X49003Y-34804D01*
X49032Y-34794D01*
X49063Y-34791D01*
X49093Y-34793D01*
X49123Y-34801D01*
X49151Y-34815D01*
X49175Y-34834D01*
X49195Y-34858D01*
X49211Y-34885D01*
X49221Y-34914D01*
X49224Y-34945D01*
X49225Y-34949D01*
X48907Y-34790D02*
X49225Y-35108D01*
X49225Y-34790D02*
X48907Y-35108D01*
X49225Y-35949D02*
X49221Y-35979D01*
X49213Y-36009D01*
X49198Y-36036D01*
X49178Y-36061D01*
X49154Y-36080D01*
X49127Y-36095D01*
X49097Y-36104D01*
X49067Y-36107D01*
X49037Y-36105D01*
X49007Y-36096D01*
X48979Y-36082D01*
X48955Y-36062D01*
X48935Y-36038D01*
X48920Y-36011D01*
X48911Y-35982D01*
X48908Y-35951D01*
X48910Y-35921D01*
X48919Y-35891D01*
X48933Y-35863D01*
X48952Y-35839D01*
X48976Y-35819D01*
X49003Y-35804D01*
X49032Y-35794D01*
X49063Y-35791D01*
X49093Y-35793D01*
X49123Y-35801D01*
X49151Y-35815D01*
X49175Y-35834D01*
X49195Y-35858D01*
X49211Y-35885D01*
X49221Y-35914D01*
X49224Y-35945D01*
X49225Y-35949D01*
X48907Y-35790D02*
X49225Y-36108D01*
X49225Y-35790D02*
X48907Y-36108D01*
X49225Y-36949D02*
X49221Y-36979D01*
X49213Y-37009D01*
X49198Y-37036D01*
X49178Y-37061D01*
X49154Y-37080D01*
X49127Y-37095D01*
X49097Y-37104D01*
X49067Y-37107D01*
X49037Y-37105D01*
X49007Y-37096D01*
X48979Y-37082D01*
X48955Y-37062D01*
X48935Y-37038D01*
X48920Y-37011D01*
X48911Y-36982D01*
X48908Y-36951D01*
X48910Y-36921D01*
X48919Y-36891D01*
X48933Y-36863D01*
X48952Y-36839D01*
X48976Y-36819D01*
X49003Y-36804D01*
X49032Y-36794D01*
X49063Y-36791D01*
X49093Y-36793D01*
X49123Y-36801D01*
X49151Y-36815D01*
X49175Y-36834D01*
X49195Y-36858D01*
X49211Y-36885D01*
X49221Y-36914D01*
X49224Y-36945D01*
X49225Y-36949D01*
X48907Y-36790D02*
X49225Y-37108D01*
X49225Y-36790D02*
X48907Y-37108D01*
X49225Y-37949D02*
X49221Y-37979D01*
X49213Y-38009D01*
X49198Y-38036D01*
X49178Y-38061D01*
X49154Y-38080D01*
X49127Y-38095D01*
X49097Y-38104D01*
X49067Y-38107D01*
X49037Y-38105D01*
X49007Y-38096D01*
X48979Y-38082D01*
X48955Y-38062D01*
X48935Y-38038D01*
X48920Y-38011D01*
X48911Y-37982D01*
X48908Y-37951D01*
X48910Y-37921D01*
X48919Y-37891D01*
X48933Y-37863D01*
X48952Y-37839D01*
X48976Y-37819D01*
X49003Y-37804D01*
X49032Y-37794D01*
X49063Y-37791D01*
X49093Y-37793D01*
X49123Y-37801D01*
X49151Y-37815D01*
X49175Y-37834D01*
X49195Y-37858D01*
X49211Y-37885D01*
X49221Y-37914D01*
X49224Y-37945D01*
X49225Y-37949D01*
X48907Y-37790D02*
X49225Y-38108D01*
X49225Y-37790D02*
X48907Y-38108D01*
X49225Y-38949D02*
X49221Y-38979D01*
X49213Y-39009D01*
X49198Y-39036D01*
X49178Y-39061D01*
X49154Y-39080D01*
X49127Y-39095D01*
X49097Y-39104D01*
X49067Y-39107D01*
X49037Y-39105D01*
X49007Y-39096D01*
X48979Y-39082D01*
X48955Y-39062D01*
X48935Y-39038D01*
X48920Y-39011D01*
X48911Y-38982D01*
X48908Y-38951D01*
X48910Y-38921D01*
X48919Y-38891D01*
X48933Y-38863D01*
X48952Y-38839D01*
X48976Y-38819D01*
X49003Y-38804D01*
X49032Y-38794D01*
X49063Y-38791D01*
X49093Y-38793D01*
X49123Y-38801D01*
X49151Y-38815D01*
X49175Y-38834D01*
X49195Y-38858D01*
X49211Y-38885D01*
X49221Y-38914D01*
X49224Y-38945D01*
X49225Y-38949D01*
X48907Y-38790D02*
X49225Y-39108D01*
X49225Y-38790D02*
X48907Y-39108D01*
X49225Y-39949D02*
X49221Y-39979D01*
X49213Y-40009D01*
X49198Y-40036D01*
X49178Y-40061D01*
X49154Y-40080D01*
X49127Y-40095D01*
X49097Y-40104D01*
X49067Y-40107D01*
X49037Y-40105D01*
X49007Y-40096D01*
X48979Y-40082D01*
X48955Y-40062D01*
X48935Y-40038D01*
X48920Y-40011D01*
X48911Y-39982D01*
X48908Y-39951D01*
X48910Y-39921D01*
X48919Y-39891D01*
X48933Y-39863D01*
X48952Y-39839D01*
X48976Y-39819D01*
X49003Y-39804D01*
X49032Y-39794D01*
X49063Y-39791D01*
X49093Y-39793D01*
X49123Y-39801D01*
X49151Y-39815D01*
X49175Y-39834D01*
X49195Y-39858D01*
X49211Y-39885D01*
X49221Y-39914D01*
X49224Y-39945D01*
X49225Y-39949D01*
X48907Y-39790D02*
X49225Y-40108D01*
X49225Y-39790D02*
X48907Y-40108D01*
X49225Y-40949D02*
X49221Y-40979D01*
X49213Y-41009D01*
X49198Y-41036D01*
X49178Y-41061D01*
X49154Y-41080D01*
X49127Y-41095D01*
X49097Y-41104D01*
X49067Y-41107D01*
X49037Y-41105D01*
X49007Y-41096D01*
X48979Y-41082D01*
X48955Y-41062D01*
X48935Y-41038D01*
X48920Y-41011D01*
X48911Y-40982D01*
X48908Y-40951D01*
X48910Y-40921D01*
X48919Y-40891D01*
X48933Y-40863D01*
X48952Y-40839D01*
X48976Y-40819D01*
X49003Y-40804D01*
X49032Y-40794D01*
X49063Y-40791D01*
X49093Y-40793D01*
X49123Y-40801D01*
X49151Y-40815D01*
X49175Y-40834D01*
X49195Y-40858D01*
X49211Y-40885D01*
X49221Y-40914D01*
X49224Y-40945D01*
X49225Y-40949D01*
X48907Y-40790D02*
X49225Y-41108D01*
X49225Y-40790D02*
X48907Y-41108D01*
X52108Y-31949D02*
X52104Y-31979D01*
X52096Y-32009D01*
X52081Y-32036D01*
X52061Y-32061D01*
X52037Y-32080D01*
X52010Y-32095D01*
X51980Y-32104D01*
X51950Y-32107D01*
X51920Y-32105D01*
X51890Y-32096D01*
X51862Y-32082D01*
X51838Y-32062D01*
X51818Y-32038D01*
X51803Y-32011D01*
X51794Y-31982D01*
X51791Y-31951D01*
X51793Y-31921D01*
X51802Y-31891D01*
X51816Y-31863D01*
X51835Y-31839D01*
X51859Y-31819D01*
X51886Y-31804D01*
X51915Y-31794D01*
X51946Y-31791D01*
X51976Y-31793D01*
X52006Y-31801D01*
X52034Y-31815D01*
X52058Y-31834D01*
X52078Y-31858D01*
X52094Y-31885D01*
X52104Y-31914D01*
X52107Y-31945D01*
X52108Y-31949D01*
X51790Y-31790D02*
X52108Y-32108D01*
X52108Y-31790D02*
X51790Y-32108D01*
X52108Y-32949D02*
X52104Y-32979D01*
X52096Y-33009D01*
X52081Y-33036D01*
X52061Y-33061D01*
X52037Y-33080D01*
X52010Y-33095D01*
X51980Y-33104D01*
X51950Y-33107D01*
X51920Y-33105D01*
X51890Y-33096D01*
X51862Y-33082D01*
X51838Y-33062D01*
X51818Y-33038D01*
X51803Y-33011D01*
X51794Y-32982D01*
X51791Y-32951D01*
X51793Y-32921D01*
X51802Y-32891D01*
X51816Y-32863D01*
X51835Y-32839D01*
X51859Y-32819D01*
X51886Y-32804D01*
X51915Y-32794D01*
X51946Y-32791D01*
X51976Y-32793D01*
X52006Y-32801D01*
X52034Y-32815D01*
X52058Y-32834D01*
X52078Y-32858D01*
X52094Y-32885D01*
X52104Y-32914D01*
X52107Y-32945D01*
X52108Y-32949D01*
X51790Y-32790D02*
X52108Y-33108D01*
X52108Y-32790D02*
X51790Y-33108D01*
X52108Y-33949D02*
X52104Y-33979D01*
X52096Y-34009D01*
X52081Y-34036D01*
X52061Y-34061D01*
X52037Y-34080D01*
X52010Y-34095D01*
X51980Y-34104D01*
X51950Y-34107D01*
X51920Y-34105D01*
X51890Y-34096D01*
X51862Y-34082D01*
X51838Y-34062D01*
X51818Y-34038D01*
X51803Y-34011D01*
X51794Y-33982D01*
X51791Y-33951D01*
X51793Y-33921D01*
X51802Y-33891D01*
X51816Y-33863D01*
X51835Y-33839D01*
X51859Y-33819D01*
X51886Y-33804D01*
X51915Y-33794D01*
X51946Y-33791D01*
X51976Y-33793D01*
X52006Y-33801D01*
X52034Y-33815D01*
X52058Y-33834D01*
X52078Y-33858D01*
X52094Y-33885D01*
X52104Y-33914D01*
X52107Y-33945D01*
X52108Y-33949D01*
X51790Y-33790D02*
X52108Y-34108D01*
X52108Y-33790D02*
X51790Y-34108D01*
X52108Y-34949D02*
X52104Y-34979D01*
X52096Y-35009D01*
X52081Y-35036D01*
X52061Y-35061D01*
X52037Y-35080D01*
X52010Y-35095D01*
X51980Y-35104D01*
X51950Y-35107D01*
X51920Y-35105D01*
X51890Y-35096D01*
X51862Y-35082D01*
X51838Y-35062D01*
X51818Y-35038D01*
X51803Y-35011D01*
X51794Y-34982D01*
X51791Y-34951D01*
X51793Y-34921D01*
X51802Y-34891D01*
X51816Y-34863D01*
X51835Y-34839D01*
X51859Y-34819D01*
X51886Y-34804D01*
X51915Y-34794D01*
X51946Y-34791D01*
X51976Y-34793D01*
X52006Y-34801D01*
X52034Y-34815D01*
X52058Y-34834D01*
X52078Y-34858D01*
X52094Y-34885D01*
X52104Y-34914D01*
X52107Y-34945D01*
X52108Y-34949D01*
X51790Y-34790D02*
X52108Y-35108D01*
X52108Y-34790D02*
X51790Y-35108D01*
X52108Y-35949D02*
X52104Y-35979D01*
X52096Y-36009D01*
X52081Y-36036D01*
X52061Y-36061D01*
X52037Y-36080D01*
X52010Y-36095D01*
X51980Y-36104D01*
X51950Y-36107D01*
X51920Y-36105D01*
X51890Y-36096D01*
X51862Y-36082D01*
X51838Y-36062D01*
X51818Y-36038D01*
X51803Y-36011D01*
X51794Y-35982D01*
X51791Y-35951D01*
X51793Y-35921D01*
X51802Y-35891D01*
X51816Y-35863D01*
X51835Y-35839D01*
X51859Y-35819D01*
X51886Y-35804D01*
X51915Y-35794D01*
X51946Y-35791D01*
X51976Y-35793D01*
X52006Y-35801D01*
X52034Y-35815D01*
X52058Y-35834D01*
X52078Y-35858D01*
X52094Y-35885D01*
X52104Y-35914D01*
X52107Y-35945D01*
X52108Y-35949D01*
X51790Y-35790D02*
X52108Y-36108D01*
X52108Y-35790D02*
X51790Y-36108D01*
X52108Y-36949D02*
X52104Y-36979D01*
X52096Y-37009D01*
X52081Y-37036D01*
X52061Y-37061D01*
X52037Y-37080D01*
X52010Y-37095D01*
X51980Y-37104D01*
X51950Y-37107D01*
X51920Y-37105D01*
X51890Y-37096D01*
X51862Y-37082D01*
X51838Y-37062D01*
X51818Y-37038D01*
X51803Y-37011D01*
X51794Y-36982D01*
X51791Y-36951D01*
X51793Y-36921D01*
X51802Y-36891D01*
X51816Y-36863D01*
X51835Y-36839D01*
X51859Y-36819D01*
X51886Y-36804D01*
X51915Y-36794D01*
X51946Y-36791D01*
X51976Y-36793D01*
X52006Y-36801D01*
X52034Y-36815D01*
X52058Y-36834D01*
X52078Y-36858D01*
X52094Y-36885D01*
X52104Y-36914D01*
X52107Y-36945D01*
X52108Y-36949D01*
X51790Y-36790D02*
X52108Y-37108D01*
X52108Y-36790D02*
X51790Y-37108D01*
X52108Y-37949D02*
X52104Y-37979D01*
X52096Y-38009D01*
X52081Y-38036D01*
X52061Y-38061D01*
X52037Y-38080D01*
X52010Y-38095D01*
X51980Y-38104D01*
X51950Y-38107D01*
X51920Y-38105D01*
X51890Y-38096D01*
X51862Y-38082D01*
X51838Y-38062D01*
X51818Y-38038D01*
X51803Y-38011D01*
X51794Y-37982D01*
X51791Y-37951D01*
X51793Y-37921D01*
X51802Y-37891D01*
X51816Y-37863D01*
X51835Y-37839D01*
X51859Y-37819D01*
X51886Y-37804D01*
X51915Y-37794D01*
X51946Y-37791D01*
X51976Y-37793D01*
X52006Y-37801D01*
X52034Y-37815D01*
X52058Y-37834D01*
X52078Y-37858D01*
X52094Y-37885D01*
X52104Y-37914D01*
X52107Y-37945D01*
X52108Y-37949D01*
X51790Y-37790D02*
X52108Y-38108D01*
X52108Y-37790D02*
X51790Y-38108D01*
X52108Y-38949D02*
X52104Y-38979D01*
X52096Y-39009D01*
X52081Y-39036D01*
X52061Y-39061D01*
X52037Y-39080D01*
X52010Y-39095D01*
X51980Y-39104D01*
X51950Y-39107D01*
X51920Y-39105D01*
X51890Y-39096D01*
X51862Y-39082D01*
X51838Y-39062D01*
X51818Y-39038D01*
X51803Y-39011D01*
X51794Y-38982D01*
X51791Y-38951D01*
X51793Y-38921D01*
X51802Y-38891D01*
X51816Y-38863D01*
X51835Y-38839D01*
X51859Y-38819D01*
X51886Y-38804D01*
X51915Y-38794D01*
X51946Y-38791D01*
X51976Y-38793D01*
X52006Y-38801D01*
X52034Y-38815D01*
X52058Y-38834D01*
X52078Y-38858D01*
X52094Y-38885D01*
X52104Y-38914D01*
X52107Y-38945D01*
X52108Y-38949D01*
X51790Y-38790D02*
X52108Y-39108D01*
X52108Y-38790D02*
X51790Y-39108D01*
X52108Y-39949D02*
X52104Y-39979D01*
X52096Y-40009D01*
X52081Y-40036D01*
X52061Y-40061D01*
X52037Y-40080D01*
X52010Y-40095D01*
X51980Y-40104D01*
X51950Y-40107D01*
X51920Y-40105D01*
X51890Y-40096D01*
X51862Y-40082D01*
X51838Y-40062D01*
X51818Y-40038D01*
X51803Y-40011D01*
X51794Y-39982D01*
X51791Y-39951D01*
X51793Y-39921D01*
X51802Y-39891D01*
X51816Y-39863D01*
X51835Y-39839D01*
X51859Y-39819D01*
X51886Y-39804D01*
X51915Y-39794D01*
X51946Y-39791D01*
X51976Y-39793D01*
X52006Y-39801D01*
X52034Y-39815D01*
X52058Y-39834D01*
X52078Y-39858D01*
X52094Y-39885D01*
X52104Y-39914D01*
X52107Y-39945D01*
X52108Y-39949D01*
X51790Y-39790D02*
X52108Y-40108D01*
X52108Y-39790D02*
X51790Y-40108D01*
X52108Y-40949D02*
X52104Y-40979D01*
X52096Y-41009D01*
X52081Y-41036D01*
X52061Y-41061D01*
X52037Y-41080D01*
X52010Y-41095D01*
X51980Y-41104D01*
X51950Y-41107D01*
X51920Y-41105D01*
X51890Y-41096D01*
X51862Y-41082D01*
X51838Y-41062D01*
X51818Y-41038D01*
X51803Y-41011D01*
X51794Y-40982D01*
X51791Y-40951D01*
X51793Y-40921D01*
X51802Y-40891D01*
X51816Y-40863D01*
X51835Y-40839D01*
X51859Y-40819D01*
X51886Y-40804D01*
X51915Y-40794D01*
X51946Y-40791D01*
X51976Y-40793D01*
X52006Y-40801D01*
X52034Y-40815D01*
X52058Y-40834D01*
X52078Y-40858D01*
X52094Y-40885D01*
X52104Y-40914D01*
X52107Y-40945D01*
X52108Y-40949D01*
X51790Y-40790D02*
X52108Y-41108D01*
X52108Y-40790D02*
X51790Y-41108D01*
X53115Y-31949D02*
X53111Y-31979D01*
X53103Y-32009D01*
X53088Y-32036D01*
X53068Y-32061D01*
X53044Y-32080D01*
X53017Y-32095D01*
X52987Y-32104D01*
X52957Y-32107D01*
X52927Y-32105D01*
X52897Y-32096D01*
X52869Y-32082D01*
X52845Y-32062D01*
X52825Y-32038D01*
X52810Y-32011D01*
X52801Y-31982D01*
X52798Y-31951D01*
X52800Y-31921D01*
X52809Y-31891D01*
X52823Y-31863D01*
X52842Y-31839D01*
X52866Y-31819D01*
X52893Y-31804D01*
X52922Y-31794D01*
X52953Y-31791D01*
X52983Y-31793D01*
X53013Y-31801D01*
X53041Y-31815D01*
X53065Y-31834D01*
X53085Y-31858D01*
X53101Y-31885D01*
X53111Y-31914D01*
X53114Y-31945D01*
X53115Y-31949D01*
X52797Y-31790D02*
X53115Y-32108D01*
X53115Y-31790D02*
X52797Y-32108D01*
X53115Y-32949D02*
X53111Y-32979D01*
X53103Y-33009D01*
X53088Y-33036D01*
X53068Y-33061D01*
X53044Y-33080D01*
X53017Y-33095D01*
X52987Y-33104D01*
X52957Y-33107D01*
X52927Y-33105D01*
X52897Y-33096D01*
X52869Y-33082D01*
X52845Y-33062D01*
X52825Y-33038D01*
X52810Y-33011D01*
X52801Y-32982D01*
X52798Y-32951D01*
X52800Y-32921D01*
X52809Y-32891D01*
X52823Y-32863D01*
X52842Y-32839D01*
X52866Y-32819D01*
X52893Y-32804D01*
X52922Y-32794D01*
X52953Y-32791D01*
X52983Y-32793D01*
X53013Y-32801D01*
X53041Y-32815D01*
X53065Y-32834D01*
X53085Y-32858D01*
X53101Y-32885D01*
X53111Y-32914D01*
X53114Y-32945D01*
X53115Y-32949D01*
X52797Y-32790D02*
X53115Y-33108D01*
X53115Y-32790D02*
X52797Y-33108D01*
X53115Y-33949D02*
X53111Y-33979D01*
X53103Y-34009D01*
X53088Y-34036D01*
X53068Y-34061D01*
X53044Y-34080D01*
X53017Y-34095D01*
X52987Y-34104D01*
X52957Y-34107D01*
X52927Y-34105D01*
X52897Y-34096D01*
X52869Y-34082D01*
X52845Y-34062D01*
X52825Y-34038D01*
X52810Y-34011D01*
X52801Y-33982D01*
X52798Y-33951D01*
X52800Y-33921D01*
X52809Y-33891D01*
X52823Y-33863D01*
X52842Y-33839D01*
X52866Y-33819D01*
X52893Y-33804D01*
X52922Y-33794D01*
X52953Y-33791D01*
X52983Y-33793D01*
X53013Y-33801D01*
X53041Y-33815D01*
X53065Y-33834D01*
X53085Y-33858D01*
X53101Y-33885D01*
X53111Y-33914D01*
X53114Y-33945D01*
X53115Y-33949D01*
X52797Y-33790D02*
X53115Y-34108D01*
X53115Y-33790D02*
X52797Y-34108D01*
X53115Y-34949D02*
X53111Y-34979D01*
X53103Y-35009D01*
X53088Y-35036D01*
X53068Y-35061D01*
X53044Y-35080D01*
X53017Y-35095D01*
X52987Y-35104D01*
X52957Y-35107D01*
X52927Y-35105D01*
X52897Y-35096D01*
X52869Y-35082D01*
X52845Y-35062D01*
X52825Y-35038D01*
X52810Y-35011D01*
X52801Y-34982D01*
X52798Y-34951D01*
X52800Y-34921D01*
X52809Y-34891D01*
X52823Y-34863D01*
X52842Y-34839D01*
X52866Y-34819D01*
X52893Y-34804D01*
X52922Y-34794D01*
X52953Y-34791D01*
X52983Y-34793D01*
X53013Y-34801D01*
X53041Y-34815D01*
X53065Y-34834D01*
X53085Y-34858D01*
X53101Y-34885D01*
X53111Y-34914D01*
X53114Y-34945D01*
X53115Y-34949D01*
X52797Y-34790D02*
X53115Y-35108D01*
X53115Y-34790D02*
X52797Y-35108D01*
X53115Y-35949D02*
X53111Y-35979D01*
X53103Y-36009D01*
X53088Y-36036D01*
X53068Y-36061D01*
X53044Y-36080D01*
X53017Y-36095D01*
X52987Y-36104D01*
X52957Y-36107D01*
X52927Y-36105D01*
X52897Y-36096D01*
X52869Y-36082D01*
X52845Y-36062D01*
X52825Y-36038D01*
X52810Y-36011D01*
X52801Y-35982D01*
X52798Y-35951D01*
X52800Y-35921D01*
X52809Y-35891D01*
X52823Y-35863D01*
X52842Y-35839D01*
X52866Y-35819D01*
X52893Y-35804D01*
X52922Y-35794D01*
X52953Y-35791D01*
X52983Y-35793D01*
X53013Y-35801D01*
X53041Y-35815D01*
X53065Y-35834D01*
X53085Y-35858D01*
X53101Y-35885D01*
X53111Y-35914D01*
X53114Y-35945D01*
X53115Y-35949D01*
X52797Y-35790D02*
X53115Y-36108D01*
X53115Y-35790D02*
X52797Y-36108D01*
X53115Y-36949D02*
X53111Y-36979D01*
X53103Y-37009D01*
X53088Y-37036D01*
X53068Y-37061D01*
X53044Y-37080D01*
X53017Y-37095D01*
X52987Y-37104D01*
X52957Y-37107D01*
X52927Y-37105D01*
X52897Y-37096D01*
X52869Y-37082D01*
X52845Y-37062D01*
X52825Y-37038D01*
X52810Y-37011D01*
X52801Y-36982D01*
X52798Y-36951D01*
X52800Y-36921D01*
X52809Y-36891D01*
X52823Y-36863D01*
X52842Y-36839D01*
X52866Y-36819D01*
X52893Y-36804D01*
X52922Y-36794D01*
X52953Y-36791D01*
X52983Y-36793D01*
X53013Y-36801D01*
X53041Y-36815D01*
X53065Y-36834D01*
X53085Y-36858D01*
X53101Y-36885D01*
X53111Y-36914D01*
X53114Y-36945D01*
X53115Y-36949D01*
X52797Y-36790D02*
X53115Y-37108D01*
X53115Y-36790D02*
X52797Y-37108D01*
X53115Y-37949D02*
X53111Y-37979D01*
X53103Y-38009D01*
X53088Y-38036D01*
X53068Y-38061D01*
X53044Y-38080D01*
X53017Y-38095D01*
X52987Y-38104D01*
X52957Y-38107D01*
X52927Y-38105D01*
X52897Y-38096D01*
X52869Y-38082D01*
X52845Y-38062D01*
X52825Y-38038D01*
X52810Y-38011D01*
X52801Y-37982D01*
X52798Y-37951D01*
X52800Y-37921D01*
X52809Y-37891D01*
X52823Y-37863D01*
X52842Y-37839D01*
X52866Y-37819D01*
X52893Y-37804D01*
X52922Y-37794D01*
X52953Y-37791D01*
X52983Y-37793D01*
X53013Y-37801D01*
X53041Y-37815D01*
X53065Y-37834D01*
X53085Y-37858D01*
X53101Y-37885D01*
X53111Y-37914D01*
X53114Y-37945D01*
X53115Y-37949D01*
X52797Y-37790D02*
X53115Y-38108D01*
X53115Y-37790D02*
X52797Y-38108D01*
X53115Y-38949D02*
X53111Y-38979D01*
X53103Y-39009D01*
X53088Y-39036D01*
X53068Y-39061D01*
X53044Y-39080D01*
X53017Y-39095D01*
X52987Y-39104D01*
X52957Y-39107D01*
X52927Y-39105D01*
X52897Y-39096D01*
X52869Y-39082D01*
X52845Y-39062D01*
X52825Y-39038D01*
X52810Y-39011D01*
X52801Y-38982D01*
X52798Y-38951D01*
X52800Y-38921D01*
X52809Y-38891D01*
X52823Y-38863D01*
X52842Y-38839D01*
X52866Y-38819D01*
X52893Y-38804D01*
X52922Y-38794D01*
X52953Y-38791D01*
X52983Y-38793D01*
X53013Y-38801D01*
X53041Y-38815D01*
X53065Y-38834D01*
X53085Y-38858D01*
X53101Y-38885D01*
X53111Y-38914D01*
X53114Y-38945D01*
X53115Y-38949D01*
X52797Y-38790D02*
X53115Y-39108D01*
X53115Y-38790D02*
X52797Y-39108D01*
X53115Y-39949D02*
X53111Y-39979D01*
X53103Y-40009D01*
X53088Y-40036D01*
X53068Y-40061D01*
X53044Y-40080D01*
X53017Y-40095D01*
X52987Y-40104D01*
X52957Y-40107D01*
X52927Y-40105D01*
X52897Y-40096D01*
X52869Y-40082D01*
X52845Y-40062D01*
X52825Y-40038D01*
X52810Y-40011D01*
X52801Y-39982D01*
X52798Y-39951D01*
X52800Y-39921D01*
X52809Y-39891D01*
X52823Y-39863D01*
X52842Y-39839D01*
X52866Y-39819D01*
X52893Y-39804D01*
X52922Y-39794D01*
X52953Y-39791D01*
X52983Y-39793D01*
X53013Y-39801D01*
X53041Y-39815D01*
X53065Y-39834D01*
X53085Y-39858D01*
X53101Y-39885D01*
X53111Y-39914D01*
X53114Y-39945D01*
X53115Y-39949D01*
X52797Y-39790D02*
X53115Y-40108D01*
X53115Y-39790D02*
X52797Y-40108D01*
X53115Y-40949D02*
X53111Y-40979D01*
X53103Y-41009D01*
X53088Y-41036D01*
X53068Y-41061D01*
X53044Y-41080D01*
X53017Y-41095D01*
X52987Y-41104D01*
X52957Y-41107D01*
X52927Y-41105D01*
X52897Y-41096D01*
X52869Y-41082D01*
X52845Y-41062D01*
X52825Y-41038D01*
X52810Y-41011D01*
X52801Y-40982D01*
X52798Y-40951D01*
X52800Y-40921D01*
X52809Y-40891D01*
X52823Y-40863D01*
X52842Y-40839D01*
X52866Y-40819D01*
X52893Y-40804D01*
X52922Y-40794D01*
X52953Y-40791D01*
X52983Y-40793D01*
X53013Y-40801D01*
X53041Y-40815D01*
X53065Y-40834D01*
X53085Y-40858D01*
X53101Y-40885D01*
X53111Y-40914D01*
X53114Y-40945D01*
X53115Y-40949D01*
X52797Y-40790D02*
X53115Y-41108D01*
X53115Y-40790D02*
X52797Y-41108D01*
X46140Y-33726D02*
X46136Y-33757D01*
X46127Y-33786D01*
X46113Y-33814D01*
X46093Y-33838D01*
X46069Y-33858D01*
X46042Y-33873D01*
X46012Y-33882D01*
X45981Y-33885D01*
X45951Y-33883D01*
X45921Y-33874D01*
X45893Y-33859D01*
X45869Y-33840D01*
X45848Y-33816D01*
X45833Y-33789D01*
X45824Y-33759D01*
X45821Y-33728D01*
X45823Y-33698D01*
X45832Y-33668D01*
X45846Y-33640D01*
X45865Y-33615D01*
X45889Y-33595D01*
X45916Y-33580D01*
X45946Y-33570D01*
X45977Y-33567D01*
X46007Y-33569D01*
X46037Y-33577D01*
X46065Y-33591D01*
X46090Y-33611D01*
X46110Y-33634D01*
X46126Y-33661D01*
X46136Y-33691D01*
X46139Y-33722D01*
X46140Y-33726D01*
X45820Y-33726D02*
X46140Y-33726D01*
X46140Y-34726D02*
X46136Y-34757D01*
X46127Y-34786D01*
X46113Y-34814D01*
X46093Y-34838D01*
X46069Y-34858D01*
X46042Y-34873D01*
X46012Y-34882D01*
X45981Y-34885D01*
X45951Y-34883D01*
X45921Y-34874D01*
X45893Y-34859D01*
X45869Y-34840D01*
X45848Y-34816D01*
X45833Y-34789D01*
X45824Y-34759D01*
X45821Y-34728D01*
X45823Y-34698D01*
X45832Y-34668D01*
X45846Y-34640D01*
X45865Y-34615D01*
X45889Y-34595D01*
X45916Y-34580D01*
X45946Y-34570D01*
X45977Y-34567D01*
X46007Y-34569D01*
X46037Y-34577D01*
X46065Y-34591D01*
X46090Y-34611D01*
X46110Y-34634D01*
X46126Y-34661D01*
X46136Y-34691D01*
X46139Y-34722D01*
X46140Y-34726D01*
X45820Y-34726D02*
X46140Y-34726D01*
X46140Y-35726D02*
X46136Y-35757D01*
X46127Y-35786D01*
X46113Y-35814D01*
X46093Y-35838D01*
X46069Y-35858D01*
X46042Y-35873D01*
X46012Y-35882D01*
X45981Y-35885D01*
X45951Y-35883D01*
X45921Y-35874D01*
X45893Y-35859D01*
X45869Y-35840D01*
X45848Y-35816D01*
X45833Y-35789D01*
X45824Y-35759D01*
X45821Y-35728D01*
X45823Y-35698D01*
X45832Y-35668D01*
X45846Y-35640D01*
X45865Y-35615D01*
X45889Y-35595D01*
X45916Y-35580D01*
X45946Y-35570D01*
X45977Y-35567D01*
X46007Y-35569D01*
X46037Y-35577D01*
X46065Y-35591D01*
X46090Y-35611D01*
X46110Y-35634D01*
X46126Y-35661D01*
X46136Y-35691D01*
X46139Y-35722D01*
X46140Y-35726D01*
X45820Y-35726D02*
X46140Y-35726D01*
X46140Y-36726D02*
X46136Y-36757D01*
X46127Y-36786D01*
X46113Y-36814D01*
X46093Y-36838D01*
X46069Y-36858D01*
X46042Y-36873D01*
X46012Y-36882D01*
X45981Y-36885D01*
X45951Y-36883D01*
X45921Y-36874D01*
X45893Y-36859D01*
X45869Y-36840D01*
X45848Y-36816D01*
X45833Y-36789D01*
X45824Y-36759D01*
X45821Y-36728D01*
X45823Y-36698D01*
X45832Y-36668D01*
X45846Y-36640D01*
X45865Y-36615D01*
X45889Y-36595D01*
X45916Y-36580D01*
X45946Y-36570D01*
X45977Y-36567D01*
X46007Y-36569D01*
X46037Y-36577D01*
X46065Y-36591D01*
X46090Y-36611D01*
X46110Y-36634D01*
X46126Y-36661D01*
X46136Y-36691D01*
X46139Y-36722D01*
X46140Y-36726D01*
X45820Y-36726D02*
X46140Y-36726D01*
X46140Y-37726D02*
X46136Y-37757D01*
X46127Y-37786D01*
X46113Y-37814D01*
X46093Y-37838D01*
X46069Y-37858D01*
X46042Y-37873D01*
X46012Y-37882D01*
X45981Y-37885D01*
X45951Y-37883D01*
X45921Y-37874D01*
X45893Y-37859D01*
X45869Y-37840D01*
X45848Y-37816D01*
X45833Y-37789D01*
X45824Y-37759D01*
X45821Y-37728D01*
X45823Y-37698D01*
X45832Y-37668D01*
X45846Y-37640D01*
X45865Y-37615D01*
X45889Y-37595D01*
X45916Y-37580D01*
X45946Y-37570D01*
X45977Y-37567D01*
X46007Y-37569D01*
X46037Y-37577D01*
X46065Y-37591D01*
X46090Y-37611D01*
X46110Y-37634D01*
X46126Y-37661D01*
X46136Y-37691D01*
X46139Y-37722D01*
X46140Y-37726D01*
X45820Y-37726D02*
X46140Y-37726D01*
X46140Y-38726D02*
X46136Y-38757D01*
X46127Y-38786D01*
X46113Y-38814D01*
X46093Y-38838D01*
X46069Y-38858D01*
X46042Y-38873D01*
X46012Y-38882D01*
X45981Y-38885D01*
X45951Y-38883D01*
X45921Y-38874D01*
X45893Y-38859D01*
X45869Y-38840D01*
X45848Y-38816D01*
X45833Y-38789D01*
X45824Y-38759D01*
X45821Y-38728D01*
X45823Y-38698D01*
X45832Y-38668D01*
X45846Y-38640D01*
X45865Y-38615D01*
X45889Y-38595D01*
X45916Y-38580D01*
X45946Y-38570D01*
X45977Y-38567D01*
X46007Y-38569D01*
X46037Y-38577D01*
X46065Y-38591D01*
X46090Y-38611D01*
X46110Y-38634D01*
X46126Y-38661D01*
X46136Y-38691D01*
X46139Y-38722D01*
X46140Y-38726D01*
X45820Y-38726D02*
X46140Y-38726D01*
X47056Y-27931D02*
X47044Y-28052D01*
X47008Y-28169D01*
X46951Y-28276D01*
X46874Y-28371D01*
X46780Y-28449D01*
X46673Y-28507D01*
X46556Y-28543D01*
X46435Y-28555D01*
X46314Y-28544D01*
X46197Y-28510D01*
X46089Y-28453D01*
X45994Y-28377D01*
X45916Y-28284D01*
X45857Y-28177D01*
X45820Y-28060D01*
X45807Y-27939D01*
X45817Y-27819D01*
X45850Y-27701D01*
X45906Y-27593D01*
X45982Y-27497D01*
X46075Y-27418D01*
X46181Y-27359D01*
X46297Y-27321D01*
X46418Y-27307D01*
X46539Y-27316D01*
X46657Y-27349D01*
X46765Y-27404D01*
X46862Y-27479D01*
X46941Y-27571D01*
X47001Y-27677D01*
X47040Y-27793D01*
X47055Y-27914D01*
X47056Y-27931D01*
X46431Y-27306D02*
X46431Y-28556D01*
X47056Y-44431D02*
X47044Y-44552D01*
X47008Y-44669D01*
X46951Y-44776D01*
X46874Y-44871D01*
X46780Y-44949D01*
X46673Y-45007D01*
X46556Y-45043D01*
X46435Y-45055D01*
X46314Y-45044D01*
X46197Y-45010D01*
X46089Y-44953D01*
X45994Y-44877D01*
X45916Y-44784D01*
X45857Y-44677D01*
X45820Y-44560D01*
X45807Y-44439D01*
X45817Y-44319D01*
X45850Y-44201D01*
X45906Y-44093D01*
X45982Y-43997D01*
X46075Y-43918D01*
X46181Y-43859D01*
X46297Y-43821D01*
X46418Y-43807D01*
X46539Y-43816D01*
X46657Y-43849D01*
X46765Y-43904D01*
X46862Y-43979D01*
X46941Y-44071D01*
X47001Y-44177D01*
X47040Y-44293D01*
X47055Y-44414D01*
X47056Y-44431D01*
X46431Y-43806D02*
X46431Y-45056D01*
X73056Y-26681D02*
X73044Y-26802D01*
X73008Y-26919D01*
X72951Y-27026D01*
X72874Y-27121D01*
X72780Y-27199D01*
X72673Y-27257D01*
X72556Y-27293D01*
X72435Y-27305D01*
X72314Y-27294D01*
X72197Y-27260D01*
X72089Y-27203D01*
X71994Y-27127D01*
X71916Y-27034D01*
X71857Y-26927D01*
X71820Y-26810D01*
X71807Y-26689D01*
X71817Y-26569D01*
X71850Y-26451D01*
X71906Y-26343D01*
X71982Y-26247D01*
X72075Y-26168D01*
X72181Y-26109D01*
X72297Y-26071D01*
X72418Y-26057D01*
X72539Y-26066D01*
X72657Y-26099D01*
X72765Y-26154D01*
X72862Y-26229D01*
X72941Y-26321D01*
X73001Y-26427D01*
X73040Y-26543D01*
X73055Y-26664D01*
X73056Y-26681D01*
X72431Y-26056D02*
X72431Y-27306D01*
X73056Y-45681D02*
X73044Y-45802D01*
X73008Y-45919D01*
X72951Y-46026D01*
X72874Y-46121D01*
X72780Y-46199D01*
X72673Y-46257D01*
X72556Y-46293D01*
X72435Y-46305D01*
X72314Y-46294D01*
X72197Y-46260D01*
X72089Y-46203D01*
X71994Y-46127D01*
X71916Y-46034D01*
X71857Y-45927D01*
X71820Y-45810D01*
X71807Y-45689D01*
X71817Y-45569D01*
X71850Y-45451D01*
X71906Y-45343D01*
X71982Y-45247D01*
X72075Y-45168D01*
X72181Y-45109D01*
X72297Y-45071D01*
X72418Y-45057D01*
X72539Y-45066D01*
X72657Y-45099D01*
X72765Y-45154D01*
X72862Y-45229D01*
X72941Y-45321D01*
X73001Y-45427D01*
X73040Y-45543D01*
X73055Y-45664D01*
X73056Y-45681D01*
X72431Y-45056D02*
X72431Y-46306D01*
G54D12*
X43745Y-72698D02*
X43745Y-71898D01*
X43936Y-71898D01*
X44050Y-71936D01*
X44126Y-72012D01*
X44165Y-72088D01*
X44203Y-72241D01*
X44203Y-72355D01*
X44165Y-72507D01*
X44126Y-72584D01*
X44050Y-72660D01*
X43936Y-72698D01*
X43745Y-72698D01*
X44545Y-72698D02*
X44545Y-72164D01*
X44545Y-72317D02*
X44584Y-72241D01*
X44622Y-72203D01*
X44698Y-72164D01*
X44774Y-72164D01*
X45040Y-72698D02*
X45040Y-72164D01*
X45040Y-71898D02*
X45002Y-71936D01*
X45040Y-71974D01*
X45079Y-71936D01*
X45040Y-71898D01*
X45040Y-71974D01*
X45536Y-72698D02*
X45460Y-72660D01*
X45421Y-72584D01*
X45421Y-71898D01*
X45955Y-72698D02*
X45879Y-72660D01*
X45840Y-72584D01*
X45840Y-71898D01*
X46869Y-72698D02*
X46869Y-71898D01*
X47136Y-72469D01*
X47403Y-71898D01*
X47403Y-72698D01*
X48126Y-72698D02*
X48126Y-72279D01*
X48088Y-72203D01*
X48012Y-72164D01*
X47860Y-72164D01*
X47783Y-72203D01*
X48126Y-72660D02*
X48050Y-72698D01*
X47860Y-72698D01*
X47783Y-72660D01*
X47745Y-72584D01*
X47745Y-72507D01*
X47783Y-72431D01*
X47860Y-72393D01*
X48050Y-72393D01*
X48126Y-72355D01*
X48507Y-72164D02*
X48507Y-72964D01*
X48507Y-72203D02*
X48584Y-72164D01*
X48736Y-72164D01*
X48812Y-72203D01*
X48850Y-72241D01*
X48888Y-72317D01*
X48888Y-72545D01*
X48850Y-72622D01*
X48812Y-72660D01*
X48736Y-72698D01*
X48584Y-72698D01*
X48507Y-72660D01*
X49231Y-72622D02*
X49270Y-72660D01*
X49231Y-72698D01*
X49193Y-72660D01*
X49231Y-72622D01*
X49231Y-72698D01*
X49231Y-72203D02*
X49270Y-72241D01*
X49231Y-72279D01*
X49193Y-72241D01*
X49231Y-72203D01*
X49231Y-72279D01*
X43285Y-74019D02*
X43355Y-74089D01*
X43355Y-74019D02*
X43285Y-74089D01*
X43898Y-73578D02*
X43974Y-73578D01*
X44050Y-73616D01*
X44088Y-73654D01*
X44126Y-73730D01*
X44165Y-73883D01*
X44165Y-74073D01*
X44126Y-74225D01*
X44088Y-74302D01*
X44050Y-74340D01*
X43974Y-74378D01*
X43898Y-74378D01*
X43822Y-74340D01*
X43784Y-74302D01*
X43745Y-74225D01*
X43707Y-74073D01*
X43707Y-73883D01*
X43745Y-73730D01*
X43784Y-73654D01*
X43822Y-73616D01*
X43898Y-73578D01*
X44507Y-74302D02*
X44546Y-74340D01*
X44507Y-74378D01*
X44469Y-74340D01*
X44507Y-74302D01*
X44507Y-74378D01*
X45308Y-74378D02*
X44850Y-74378D01*
X45079Y-74378D02*
X45079Y-73578D01*
X45003Y-73692D01*
X44927Y-73768D01*
X44850Y-73806D01*
X45765Y-73921D02*
X45689Y-73883D01*
X45650Y-73844D01*
X45612Y-73768D01*
X45612Y-73730D01*
X45650Y-73654D01*
X45689Y-73616D01*
X45765Y-73578D01*
X45917Y-73578D01*
X45993Y-73616D01*
X46031Y-73654D01*
X46070Y-73730D01*
X46070Y-73768D01*
X46031Y-73844D01*
X45993Y-73883D01*
X45917Y-73921D01*
X45765Y-73921D01*
X45689Y-73959D01*
X45650Y-73997D01*
X45612Y-74073D01*
X45612Y-74225D01*
X45650Y-74302D01*
X45689Y-74340D01*
X45765Y-74378D01*
X45917Y-74378D01*
X45993Y-74340D01*
X46031Y-74302D01*
X46070Y-74225D01*
X46070Y-74073D01*
X46031Y-73997D01*
X45993Y-73959D01*
X45917Y-73921D01*
X46412Y-74378D02*
X46412Y-73844D01*
X46412Y-73921D02*
X46451Y-73883D01*
X46527Y-73844D01*
X46641Y-73844D01*
X46717Y-73883D01*
X46755Y-73959D01*
X46755Y-74378D01*
X46755Y-73959D02*
X46793Y-73883D01*
X46870Y-73844D01*
X46984Y-73844D01*
X47060Y-73883D01*
X47098Y-73959D01*
X47098Y-74378D01*
X47479Y-74378D02*
X47479Y-73844D01*
X47479Y-73921D02*
X47518Y-73883D01*
X47594Y-73844D01*
X47708Y-73844D01*
X47784Y-73883D01*
X47822Y-73959D01*
X47822Y-74378D01*
X47822Y-73959D02*
X47860Y-73883D01*
X47937Y-73844D01*
X48051Y-73844D01*
X48127Y-73883D01*
X48165Y-73959D01*
X48165Y-74378D01*
X49728Y-73540D02*
X49042Y-74568D01*
X50757Y-73578D02*
X50833Y-73578D01*
X50909Y-73616D01*
X50947Y-73654D01*
X50985Y-73730D01*
X51024Y-73883D01*
X51024Y-74073D01*
X50985Y-74225D01*
X50947Y-74302D01*
X50909Y-74340D01*
X50833Y-74378D01*
X50757Y-74378D01*
X50681Y-74340D01*
X50643Y-74302D01*
X50604Y-74225D01*
X50566Y-74073D01*
X50566Y-73883D01*
X50604Y-73730D01*
X50643Y-73654D01*
X50681Y-73616D01*
X50757Y-73578D01*
X51366Y-74302D02*
X51405Y-74340D01*
X51366Y-74378D01*
X51328Y-74340D01*
X51366Y-74302D01*
X51366Y-74378D01*
X51900Y-73578D02*
X51976Y-73578D01*
X52052Y-73616D01*
X52090Y-73654D01*
X52128Y-73730D01*
X52167Y-73883D01*
X52167Y-74073D01*
X52128Y-74225D01*
X52090Y-74302D01*
X52052Y-74340D01*
X51976Y-74378D01*
X51900Y-74378D01*
X51824Y-74340D01*
X51786Y-74302D01*
X51747Y-74225D01*
X51709Y-74073D01*
X51709Y-73883D01*
X51747Y-73730D01*
X51786Y-73654D01*
X51824Y-73616D01*
X51900Y-73578D01*
X52662Y-73578D02*
X52738Y-73578D01*
X52814Y-73616D01*
X52852Y-73654D01*
X52890Y-73730D01*
X52929Y-73883D01*
X52929Y-74073D01*
X52890Y-74225D01*
X52852Y-74302D01*
X52814Y-74340D01*
X52738Y-74378D01*
X52662Y-74378D01*
X52586Y-74340D01*
X52548Y-74302D01*
X52509Y-74225D01*
X52471Y-74073D01*
X52471Y-73883D01*
X52509Y-73730D01*
X52548Y-73654D01*
X52586Y-73616D01*
X52662Y-73578D01*
X53195Y-73578D02*
X53729Y-73578D01*
X53386Y-74378D01*
X53995Y-73578D02*
X53995Y-73730D01*
X54300Y-73578D02*
X54300Y-73730D01*
X55482Y-74683D02*
X55444Y-74644D01*
X55368Y-74530D01*
X55330Y-74454D01*
X55292Y-74340D01*
X55253Y-74149D01*
X55253Y-73997D01*
X55292Y-73806D01*
X55330Y-73692D01*
X55368Y-73616D01*
X55444Y-73502D01*
X55482Y-73464D01*
X55710Y-73578D02*
X56244Y-73578D01*
X55901Y-74378D01*
X57158Y-74378D02*
X57158Y-73578D01*
X57501Y-74378D02*
X57501Y-73959D01*
X57463Y-73883D01*
X57387Y-73844D01*
X57273Y-73844D01*
X57197Y-73883D01*
X57158Y-73921D01*
X57997Y-74378D02*
X57921Y-74340D01*
X57882Y-74302D01*
X57844Y-74225D01*
X57844Y-73997D01*
X57882Y-73921D01*
X57921Y-73883D01*
X57997Y-73844D01*
X58111Y-73844D01*
X58187Y-73883D01*
X58225Y-73921D01*
X58263Y-73997D01*
X58263Y-74225D01*
X58225Y-74302D01*
X58187Y-74340D01*
X58111Y-74378D01*
X57997Y-74378D01*
X58721Y-74378D02*
X58645Y-74340D01*
X58606Y-74264D01*
X58606Y-73578D01*
X59330Y-74340D02*
X59254Y-74378D01*
X59102Y-74378D01*
X59025Y-74340D01*
X58987Y-74264D01*
X58987Y-73959D01*
X59025Y-73883D01*
X59102Y-73844D01*
X59254Y-73844D01*
X59330Y-73883D01*
X59368Y-73959D01*
X59368Y-74035D01*
X58987Y-74111D01*
X59673Y-74340D02*
X59750Y-74378D01*
X59902Y-74378D01*
X59978Y-74340D01*
X60016Y-74264D01*
X60016Y-74225D01*
X59978Y-74149D01*
X59902Y-74111D01*
X59788Y-74111D01*
X59711Y-74073D01*
X59673Y-73997D01*
X59673Y-73959D01*
X59711Y-73883D01*
X59788Y-73844D01*
X59902Y-73844D01*
X59978Y-73883D01*
X60283Y-74683D02*
X60321Y-74644D01*
X60398Y-74530D01*
X60436Y-74454D01*
X60474Y-74340D01*
X60512Y-74149D01*
X60512Y-73997D01*
X60474Y-73806D01*
X60436Y-73692D01*
X60398Y-73616D01*
X60321Y-73502D01*
X60283Y-73464D01*
G54D10*
X43355Y-75110D02*
X43354Y-75119D01*
X43351Y-75128D01*
X43346Y-75137D01*
X43340Y-75144D01*
X43333Y-75150D01*
X43324Y-75155D01*
X43315Y-75157D01*
X43306Y-75158D01*
X43297Y-75158D01*
X43288Y-75155D01*
X43280Y-75151D01*
X43272Y-75145D01*
X43266Y-75137D01*
X43261Y-75129D01*
X43259Y-75120D01*
X43258Y-75110D01*
X43258Y-75102D01*
X43261Y-75092D01*
X43265Y-75084D01*
X43271Y-75076D01*
X43279Y-75070D01*
X43287Y-75066D01*
X43296Y-75063D01*
X43305Y-75062D01*
X43314Y-75062D01*
X43323Y-75065D01*
X43332Y-75069D01*
X43339Y-75075D01*
X43346Y-75082D01*
X43350Y-75091D01*
X43353Y-75100D01*
X43354Y-75109D01*
X43355Y-75110D01*
G54D12*
X43898Y-74634D02*
X43974Y-74634D01*
X44050Y-74672D01*
X44088Y-74710D01*
X44126Y-74786D01*
X44165Y-74939D01*
X44165Y-75129D01*
X44126Y-75281D01*
X44088Y-75358D01*
X44050Y-75396D01*
X43974Y-75434D01*
X43898Y-75434D01*
X43822Y-75396D01*
X43784Y-75358D01*
X43745Y-75281D01*
X43707Y-75129D01*
X43707Y-74939D01*
X43745Y-74786D01*
X43784Y-74710D01*
X43822Y-74672D01*
X43898Y-74634D01*
X44507Y-75358D02*
X44546Y-75396D01*
X44507Y-75434D01*
X44469Y-75396D01*
X44507Y-75358D01*
X44507Y-75434D01*
X44850Y-74710D02*
X44888Y-74672D01*
X44965Y-74634D01*
X45155Y-74634D01*
X45231Y-74672D01*
X45269Y-74710D01*
X45308Y-74786D01*
X45308Y-74862D01*
X45269Y-74977D01*
X44812Y-75434D01*
X45308Y-75434D01*
X46031Y-74634D02*
X45650Y-74634D01*
X45612Y-75015D01*
X45650Y-74977D01*
X45727Y-74939D01*
X45917Y-74939D01*
X45993Y-74977D01*
X46031Y-75015D01*
X46070Y-75091D01*
X46070Y-75281D01*
X46031Y-75358D01*
X45993Y-75396D01*
X45917Y-75434D01*
X45727Y-75434D01*
X45650Y-75396D01*
X45612Y-75358D01*
X46412Y-75434D02*
X46412Y-74900D01*
X46412Y-74977D02*
X46451Y-74939D01*
X46527Y-74900D01*
X46641Y-74900D01*
X46717Y-74939D01*
X46755Y-75015D01*
X46755Y-75434D01*
X46755Y-75015D02*
X46793Y-74939D01*
X46870Y-74900D01*
X46984Y-74900D01*
X47060Y-74939D01*
X47098Y-75015D01*
X47098Y-75434D01*
X47479Y-75434D02*
X47479Y-74900D01*
X47479Y-74977D02*
X47518Y-74939D01*
X47594Y-74900D01*
X47708Y-74900D01*
X47784Y-74939D01*
X47822Y-75015D01*
X47822Y-75434D01*
X47822Y-75015D02*
X47860Y-74939D01*
X47937Y-74900D01*
X48051Y-74900D01*
X48127Y-74939D01*
X48165Y-75015D01*
X48165Y-75434D01*
X49728Y-74596D02*
X49042Y-75624D01*
X50757Y-74634D02*
X50833Y-74634D01*
X50909Y-74672D01*
X50947Y-74710D01*
X50985Y-74786D01*
X51024Y-74939D01*
X51024Y-75129D01*
X50985Y-75281D01*
X50947Y-75358D01*
X50909Y-75396D01*
X50833Y-75434D01*
X50757Y-75434D01*
X50681Y-75396D01*
X50643Y-75358D01*
X50604Y-75281D01*
X50566Y-75129D01*
X50566Y-74939D01*
X50604Y-74786D01*
X50643Y-74710D01*
X50681Y-74672D01*
X50757Y-74634D01*
X51366Y-75358D02*
X51405Y-75396D01*
X51366Y-75434D01*
X51328Y-75396D01*
X51366Y-75358D01*
X51366Y-75434D01*
X51900Y-74634D02*
X51976Y-74634D01*
X52052Y-74672D01*
X52090Y-74710D01*
X52128Y-74786D01*
X52167Y-74939D01*
X52167Y-75129D01*
X52128Y-75281D01*
X52090Y-75358D01*
X52052Y-75396D01*
X51976Y-75434D01*
X51900Y-75434D01*
X51824Y-75396D01*
X51786Y-75358D01*
X51747Y-75281D01*
X51709Y-75129D01*
X51709Y-74939D01*
X51747Y-74786D01*
X51786Y-74710D01*
X51824Y-74672D01*
X51900Y-74634D01*
X52929Y-75434D02*
X52471Y-75434D01*
X52700Y-75434D02*
X52700Y-74634D01*
X52624Y-74748D01*
X52548Y-74824D01*
X52471Y-74862D01*
X53424Y-74634D02*
X53500Y-74634D01*
X53576Y-74672D01*
X53614Y-74710D01*
X53652Y-74786D01*
X53691Y-74939D01*
X53691Y-75129D01*
X53652Y-75281D01*
X53614Y-75358D01*
X53576Y-75396D01*
X53500Y-75434D01*
X53424Y-75434D01*
X53348Y-75396D01*
X53310Y-75358D01*
X53271Y-75281D01*
X53233Y-75129D01*
X53233Y-74939D01*
X53271Y-74786D01*
X53310Y-74710D01*
X53348Y-74672D01*
X53424Y-74634D01*
X53995Y-74634D02*
X53995Y-74786D01*
X54300Y-74634D02*
X54300Y-74786D01*
X55482Y-75739D02*
X55444Y-75700D01*
X55368Y-75586D01*
X55330Y-75510D01*
X55292Y-75396D01*
X55253Y-75205D01*
X55253Y-75053D01*
X55292Y-74862D01*
X55330Y-74748D01*
X55368Y-74672D01*
X55444Y-74558D01*
X55482Y-74520D01*
X56206Y-75434D02*
X55748Y-75434D01*
X55977Y-75434D02*
X55977Y-74634D01*
X55901Y-74748D01*
X55825Y-74824D01*
X55748Y-74862D01*
X56663Y-74977D02*
X56587Y-74939D01*
X56548Y-74900D01*
X56510Y-74824D01*
X56510Y-74786D01*
X56548Y-74710D01*
X56587Y-74672D01*
X56663Y-74634D01*
X56815Y-74634D01*
X56891Y-74672D01*
X56929Y-74710D01*
X56968Y-74786D01*
X56968Y-74824D01*
X56929Y-74900D01*
X56891Y-74939D01*
X56815Y-74977D01*
X56663Y-74977D01*
X56587Y-75015D01*
X56548Y-75053D01*
X56510Y-75129D01*
X56510Y-75281D01*
X56548Y-75358D01*
X56587Y-75396D01*
X56663Y-75434D01*
X56815Y-75434D01*
X56891Y-75396D01*
X56929Y-75358D01*
X56968Y-75281D01*
X56968Y-75129D01*
X56929Y-75053D01*
X56891Y-75015D01*
X56815Y-74977D01*
X57653Y-74900D02*
X57653Y-75434D01*
X57463Y-74596D02*
X57272Y-75167D01*
X57768Y-75167D01*
X58682Y-75434D02*
X58682Y-74634D01*
X59025Y-75434D02*
X59025Y-75015D01*
X58987Y-74939D01*
X58911Y-74900D01*
X58797Y-74900D01*
X58721Y-74939D01*
X58682Y-74977D01*
X59521Y-75434D02*
X59445Y-75396D01*
X59406Y-75358D01*
X59368Y-75281D01*
X59368Y-75053D01*
X59406Y-74977D01*
X59445Y-74939D01*
X59521Y-74900D01*
X59635Y-74900D01*
X59711Y-74939D01*
X59749Y-74977D01*
X59787Y-75053D01*
X59787Y-75281D01*
X59749Y-75358D01*
X59711Y-75396D01*
X59635Y-75434D01*
X59521Y-75434D01*
X60245Y-75434D02*
X60169Y-75396D01*
X60130Y-75320D01*
X60130Y-74634D01*
X60854Y-75396D02*
X60778Y-75434D01*
X60626Y-75434D01*
X60549Y-75396D01*
X60511Y-75320D01*
X60511Y-75015D01*
X60549Y-74939D01*
X60626Y-74900D01*
X60778Y-74900D01*
X60854Y-74939D01*
X60892Y-75015D01*
X60892Y-75091D01*
X60511Y-75167D01*
X61197Y-75396D02*
X61274Y-75434D01*
X61426Y-75434D01*
X61502Y-75396D01*
X61540Y-75320D01*
X61540Y-75281D01*
X61502Y-75205D01*
X61426Y-75167D01*
X61312Y-75167D01*
X61235Y-75129D01*
X61197Y-75053D01*
X61197Y-75015D01*
X61235Y-74939D01*
X61312Y-74900D01*
X61426Y-74900D01*
X61502Y-74939D01*
X61807Y-75739D02*
X61845Y-75700D01*
X61922Y-75586D01*
X61960Y-75510D01*
X61998Y-75396D01*
X62036Y-75205D01*
X62036Y-75053D01*
X61998Y-74862D01*
X61960Y-74748D01*
X61922Y-74672D01*
X61845Y-74558D01*
X61807Y-74520D01*
X43197Y-76009D02*
X43197Y-76323D01*
X43354Y-76166D02*
X43040Y-76166D01*
X43898Y-75690D02*
X43974Y-75690D01*
X44050Y-75728D01*
X44088Y-75766D01*
X44126Y-75842D01*
X44165Y-75995D01*
X44165Y-76185D01*
X44126Y-76337D01*
X44088Y-76414D01*
X44050Y-76452D01*
X43974Y-76490D01*
X43898Y-76490D01*
X43822Y-76452D01*
X43784Y-76414D01*
X43745Y-76337D01*
X43707Y-76185D01*
X43707Y-75995D01*
X43745Y-75842D01*
X43784Y-75766D01*
X43822Y-75728D01*
X43898Y-75690D01*
X44507Y-76414D02*
X44546Y-76452D01*
X44507Y-76490D01*
X44469Y-76452D01*
X44507Y-76414D01*
X44507Y-76490D01*
X45003Y-76033D02*
X44927Y-75995D01*
X44888Y-75956D01*
X44850Y-75880D01*
X44850Y-75842D01*
X44888Y-75766D01*
X44927Y-75728D01*
X45003Y-75690D01*
X45155Y-75690D01*
X45231Y-75728D01*
X45269Y-75766D01*
X45308Y-75842D01*
X45308Y-75880D01*
X45269Y-75956D01*
X45231Y-75995D01*
X45155Y-76033D01*
X45003Y-76033D01*
X44927Y-76071D01*
X44888Y-76109D01*
X44850Y-76185D01*
X44850Y-76337D01*
X44888Y-76414D01*
X44927Y-76452D01*
X45003Y-76490D01*
X45155Y-76490D01*
X45231Y-76452D01*
X45269Y-76414D01*
X45308Y-76337D01*
X45308Y-76185D01*
X45269Y-76109D01*
X45231Y-76071D01*
X45155Y-76033D01*
X45803Y-75690D02*
X45879Y-75690D01*
X45955Y-75728D01*
X45993Y-75766D01*
X46031Y-75842D01*
X46070Y-75995D01*
X46070Y-76185D01*
X46031Y-76337D01*
X45993Y-76414D01*
X45955Y-76452D01*
X45879Y-76490D01*
X45803Y-76490D01*
X45727Y-76452D01*
X45689Y-76414D01*
X45650Y-76337D01*
X45612Y-76185D01*
X45612Y-75995D01*
X45650Y-75842D01*
X45689Y-75766D01*
X45727Y-75728D01*
X45803Y-75690D01*
X46412Y-76490D02*
X46412Y-75956D01*
X46412Y-76033D02*
X46451Y-75995D01*
X46527Y-75956D01*
X46641Y-75956D01*
X46717Y-75995D01*
X46755Y-76071D01*
X46755Y-76490D01*
X46755Y-76071D02*
X46793Y-75995D01*
X46870Y-75956D01*
X46984Y-75956D01*
X47060Y-75995D01*
X47098Y-76071D01*
X47098Y-76490D01*
X47479Y-76490D02*
X47479Y-75956D01*
X47479Y-76033D02*
X47518Y-75995D01*
X47594Y-75956D01*
X47708Y-75956D01*
X47784Y-75995D01*
X47822Y-76071D01*
X47822Y-76490D01*
X47822Y-76071D02*
X47860Y-75995D01*
X47937Y-75956D01*
X48051Y-75956D01*
X48127Y-75995D01*
X48165Y-76071D01*
X48165Y-76490D01*
X49728Y-75652D02*
X49042Y-76680D01*
X50757Y-75690D02*
X50833Y-75690D01*
X50909Y-75728D01*
X50947Y-75766D01*
X50985Y-75842D01*
X51024Y-75995D01*
X51024Y-76185D01*
X50985Y-76337D01*
X50947Y-76414D01*
X50909Y-76452D01*
X50833Y-76490D01*
X50757Y-76490D01*
X50681Y-76452D01*
X50643Y-76414D01*
X50604Y-76337D01*
X50566Y-76185D01*
X50566Y-75995D01*
X50604Y-75842D01*
X50643Y-75766D01*
X50681Y-75728D01*
X50757Y-75690D01*
X51366Y-76414D02*
X51405Y-76452D01*
X51366Y-76490D01*
X51328Y-76452D01*
X51366Y-76414D01*
X51366Y-76490D01*
X51900Y-75690D02*
X51976Y-75690D01*
X52052Y-75728D01*
X52090Y-75766D01*
X52128Y-75842D01*
X52167Y-75995D01*
X52167Y-76185D01*
X52128Y-76337D01*
X52090Y-76414D01*
X52052Y-76452D01*
X51976Y-76490D01*
X51900Y-76490D01*
X51824Y-76452D01*
X51786Y-76414D01*
X51747Y-76337D01*
X51709Y-76185D01*
X51709Y-75995D01*
X51747Y-75842D01*
X51786Y-75766D01*
X51824Y-75728D01*
X51900Y-75690D01*
X52433Y-75690D02*
X52929Y-75690D01*
X52662Y-75995D01*
X52776Y-75995D01*
X52852Y-76033D01*
X52890Y-76071D01*
X52929Y-76147D01*
X52929Y-76337D01*
X52890Y-76414D01*
X52852Y-76452D01*
X52776Y-76490D01*
X52548Y-76490D01*
X52471Y-76452D01*
X52433Y-76414D01*
X53233Y-75766D02*
X53271Y-75728D01*
X53348Y-75690D01*
X53538Y-75690D01*
X53614Y-75728D01*
X53652Y-75766D01*
X53691Y-75842D01*
X53691Y-75918D01*
X53652Y-76033D01*
X53195Y-76490D01*
X53691Y-76490D01*
X53995Y-75690D02*
X53995Y-75842D01*
X54300Y-75690D02*
X54300Y-75842D01*
X55482Y-76795D02*
X55444Y-76756D01*
X55368Y-76642D01*
X55330Y-76566D01*
X55292Y-76452D01*
X55253Y-76261D01*
X55253Y-76109D01*
X55292Y-75918D01*
X55330Y-75804D01*
X55368Y-75728D01*
X55444Y-75614D01*
X55482Y-75576D01*
X56206Y-76490D02*
X55748Y-76490D01*
X55977Y-76490D02*
X55977Y-75690D01*
X55901Y-75804D01*
X55825Y-75880D01*
X55748Y-75918D01*
X56701Y-75690D02*
X56777Y-75690D01*
X56853Y-75728D01*
X56891Y-75766D01*
X56929Y-75842D01*
X56968Y-75995D01*
X56968Y-76185D01*
X56929Y-76337D01*
X56891Y-76414D01*
X56853Y-76452D01*
X56777Y-76490D01*
X56701Y-76490D01*
X56625Y-76452D01*
X56587Y-76414D01*
X56548Y-76337D01*
X56510Y-76185D01*
X56510Y-75995D01*
X56548Y-75842D01*
X56587Y-75766D01*
X56625Y-75728D01*
X56701Y-75690D01*
X57425Y-76033D02*
X57349Y-75995D01*
X57310Y-75956D01*
X57272Y-75880D01*
X57272Y-75842D01*
X57310Y-75766D01*
X57349Y-75728D01*
X57425Y-75690D01*
X57577Y-75690D01*
X57653Y-75728D01*
X57691Y-75766D01*
X57730Y-75842D01*
X57730Y-75880D01*
X57691Y-75956D01*
X57653Y-75995D01*
X57577Y-76033D01*
X57425Y-76033D01*
X57349Y-76071D01*
X57310Y-76109D01*
X57272Y-76185D01*
X57272Y-76337D01*
X57310Y-76414D01*
X57349Y-76452D01*
X57425Y-76490D01*
X57577Y-76490D01*
X57653Y-76452D01*
X57691Y-76414D01*
X57730Y-76337D01*
X57730Y-76185D01*
X57691Y-76109D01*
X57653Y-76071D01*
X57577Y-76033D01*
X58682Y-76490D02*
X58682Y-75690D01*
X59025Y-76490D02*
X59025Y-76071D01*
X58987Y-75995D01*
X58911Y-75956D01*
X58797Y-75956D01*
X58721Y-75995D01*
X58682Y-76033D01*
X59521Y-76490D02*
X59445Y-76452D01*
X59406Y-76414D01*
X59368Y-76337D01*
X59368Y-76109D01*
X59406Y-76033D01*
X59445Y-75995D01*
X59521Y-75956D01*
X59635Y-75956D01*
X59711Y-75995D01*
X59749Y-76033D01*
X59787Y-76109D01*
X59787Y-76337D01*
X59749Y-76414D01*
X59711Y-76452D01*
X59635Y-76490D01*
X59521Y-76490D01*
X60245Y-76490D02*
X60169Y-76452D01*
X60130Y-76376D01*
X60130Y-75690D01*
X60854Y-76452D02*
X60778Y-76490D01*
X60626Y-76490D01*
X60549Y-76452D01*
X60511Y-76376D01*
X60511Y-76071D01*
X60549Y-75995D01*
X60626Y-75956D01*
X60778Y-75956D01*
X60854Y-75995D01*
X60892Y-76071D01*
X60892Y-76147D01*
X60511Y-76223D01*
X61197Y-76452D02*
X61274Y-76490D01*
X61426Y-76490D01*
X61502Y-76452D01*
X61540Y-76376D01*
X61540Y-76337D01*
X61502Y-76261D01*
X61426Y-76223D01*
X61312Y-76223D01*
X61235Y-76185D01*
X61197Y-76109D01*
X61197Y-76071D01*
X61235Y-75995D01*
X61312Y-75956D01*
X61426Y-75956D01*
X61502Y-75995D01*
X61807Y-76795D02*
X61845Y-76756D01*
X61922Y-76642D01*
X61960Y-76566D01*
X61998Y-76452D01*
X62036Y-76261D01*
X62036Y-76109D01*
X61998Y-75918D01*
X61960Y-75804D01*
X61922Y-75728D01*
X61845Y-75614D01*
X61807Y-75576D01*
G54D10*
X43354Y-77222D02*
X43350Y-77252D01*
X43342Y-77282D01*
X43327Y-77309D01*
X43307Y-77334D01*
X43283Y-77353D01*
X43256Y-77368D01*
X43226Y-77377D01*
X43196Y-77380D01*
X43166Y-77378D01*
X43136Y-77369D01*
X43108Y-77355D01*
X43084Y-77335D01*
X43064Y-77311D01*
X43049Y-77284D01*
X43040Y-77255D01*
X43037Y-77224D01*
X43039Y-77194D01*
X43048Y-77164D01*
X43062Y-77136D01*
X43081Y-77112D01*
X43105Y-77092D01*
X43132Y-77077D01*
X43161Y-77067D01*
X43192Y-77064D01*
X43222Y-77066D01*
X43252Y-77074D01*
X43280Y-77088D01*
X43304Y-77107D01*
X43324Y-77131D01*
X43340Y-77158D01*
X43350Y-77187D01*
X43353Y-77218D01*
X43354Y-77222D01*
X43036Y-77063D02*
X43354Y-77381D01*
X43354Y-77063D02*
X43036Y-77381D01*
G54D12*
X43898Y-76746D02*
X43974Y-76746D01*
X44050Y-76784D01*
X44088Y-76822D01*
X44126Y-76898D01*
X44165Y-77051D01*
X44165Y-77241D01*
X44126Y-77393D01*
X44088Y-77470D01*
X44050Y-77508D01*
X43974Y-77546D01*
X43898Y-77546D01*
X43822Y-77508D01*
X43784Y-77470D01*
X43745Y-77393D01*
X43707Y-77241D01*
X43707Y-77051D01*
X43745Y-76898D01*
X43784Y-76822D01*
X43822Y-76784D01*
X43898Y-76746D01*
X44507Y-77470D02*
X44546Y-77508D01*
X44507Y-77546D01*
X44469Y-77508D01*
X44507Y-77470D01*
X44507Y-77546D01*
X45003Y-77089D02*
X44927Y-77051D01*
X44888Y-77012D01*
X44850Y-76936D01*
X44850Y-76898D01*
X44888Y-76822D01*
X44927Y-76784D01*
X45003Y-76746D01*
X45155Y-76746D01*
X45231Y-76784D01*
X45269Y-76822D01*
X45308Y-76898D01*
X45308Y-76936D01*
X45269Y-77012D01*
X45231Y-77051D01*
X45155Y-77089D01*
X45003Y-77089D01*
X44927Y-77127D01*
X44888Y-77165D01*
X44850Y-77241D01*
X44850Y-77393D01*
X44888Y-77470D01*
X44927Y-77508D01*
X45003Y-77546D01*
X45155Y-77546D01*
X45231Y-77508D01*
X45269Y-77470D01*
X45308Y-77393D01*
X45308Y-77241D01*
X45269Y-77165D01*
X45231Y-77127D01*
X45155Y-77089D01*
X46070Y-77546D02*
X45612Y-77546D01*
X45841Y-77546D02*
X45841Y-76746D01*
X45765Y-76860D01*
X45689Y-76936D01*
X45612Y-76974D01*
X46412Y-77546D02*
X46412Y-77012D01*
X46412Y-77089D02*
X46451Y-77051D01*
X46527Y-77012D01*
X46641Y-77012D01*
X46717Y-77051D01*
X46755Y-77127D01*
X46755Y-77546D01*
X46755Y-77127D02*
X46793Y-77051D01*
X46870Y-77012D01*
X46984Y-77012D01*
X47060Y-77051D01*
X47098Y-77127D01*
X47098Y-77546D01*
X47479Y-77546D02*
X47479Y-77012D01*
X47479Y-77089D02*
X47518Y-77051D01*
X47594Y-77012D01*
X47708Y-77012D01*
X47784Y-77051D01*
X47822Y-77127D01*
X47822Y-77546D01*
X47822Y-77127D02*
X47860Y-77051D01*
X47937Y-77012D01*
X48051Y-77012D01*
X48127Y-77051D01*
X48165Y-77127D01*
X48165Y-77546D01*
X49728Y-76708D02*
X49042Y-77736D01*
X50757Y-76746D02*
X50833Y-76746D01*
X50909Y-76784D01*
X50947Y-76822D01*
X50985Y-76898D01*
X51024Y-77051D01*
X51024Y-77241D01*
X50985Y-77393D01*
X50947Y-77470D01*
X50909Y-77508D01*
X50833Y-77546D01*
X50757Y-77546D01*
X50681Y-77508D01*
X50643Y-77470D01*
X50604Y-77393D01*
X50566Y-77241D01*
X50566Y-77051D01*
X50604Y-76898D01*
X50643Y-76822D01*
X50681Y-76784D01*
X50757Y-76746D01*
X51366Y-77470D02*
X51405Y-77508D01*
X51366Y-77546D01*
X51328Y-77508D01*
X51366Y-77470D01*
X51366Y-77546D01*
X51900Y-76746D02*
X51976Y-76746D01*
X52052Y-76784D01*
X52090Y-76822D01*
X52128Y-76898D01*
X52167Y-77051D01*
X52167Y-77241D01*
X52128Y-77393D01*
X52090Y-77470D01*
X52052Y-77508D01*
X51976Y-77546D01*
X51900Y-77546D01*
X51824Y-77508D01*
X51786Y-77470D01*
X51747Y-77393D01*
X51709Y-77241D01*
X51709Y-77051D01*
X51747Y-76898D01*
X51786Y-76822D01*
X51824Y-76784D01*
X51900Y-76746D01*
X52433Y-76746D02*
X52929Y-76746D01*
X52662Y-77051D01*
X52776Y-77051D01*
X52852Y-77089D01*
X52890Y-77127D01*
X52929Y-77203D01*
X52929Y-77393D01*
X52890Y-77470D01*
X52852Y-77508D01*
X52776Y-77546D01*
X52548Y-77546D01*
X52471Y-77508D01*
X52433Y-77470D01*
X53233Y-76822D02*
X53271Y-76784D01*
X53348Y-76746D01*
X53538Y-76746D01*
X53614Y-76784D01*
X53652Y-76822D01*
X53691Y-76898D01*
X53691Y-76974D01*
X53652Y-77089D01*
X53195Y-77546D01*
X53691Y-77546D01*
X53995Y-76746D02*
X53995Y-76898D01*
X54300Y-76746D02*
X54300Y-76898D01*
X55482Y-77851D02*
X55444Y-77812D01*
X55368Y-77698D01*
X55330Y-77622D01*
X55292Y-77508D01*
X55253Y-77317D01*
X55253Y-77165D01*
X55292Y-76974D01*
X55330Y-76860D01*
X55368Y-76784D01*
X55444Y-76670D01*
X55482Y-76632D01*
X56129Y-77012D02*
X56129Y-77546D01*
X55939Y-76708D02*
X55748Y-77279D01*
X56244Y-77279D01*
X56701Y-76746D02*
X56777Y-76746D01*
X56853Y-76784D01*
X56891Y-76822D01*
X56929Y-76898D01*
X56968Y-77051D01*
X56968Y-77241D01*
X56929Y-77393D01*
X56891Y-77470D01*
X56853Y-77508D01*
X56777Y-77546D01*
X56701Y-77546D01*
X56625Y-77508D01*
X56587Y-77470D01*
X56548Y-77393D01*
X56510Y-77241D01*
X56510Y-77051D01*
X56548Y-76898D01*
X56587Y-76822D01*
X56625Y-76784D01*
X56701Y-76746D01*
X57920Y-77546D02*
X57920Y-76746D01*
X58263Y-77546D02*
X58263Y-77127D01*
X58225Y-77051D01*
X58149Y-77012D01*
X58035Y-77012D01*
X57959Y-77051D01*
X57920Y-77089D01*
X58759Y-77546D02*
X58683Y-77508D01*
X58644Y-77470D01*
X58606Y-77393D01*
X58606Y-77165D01*
X58644Y-77089D01*
X58683Y-77051D01*
X58759Y-77012D01*
X58873Y-77012D01*
X58949Y-77051D01*
X58987Y-77089D01*
X59025Y-77165D01*
X59025Y-77393D01*
X58987Y-77470D01*
X58949Y-77508D01*
X58873Y-77546D01*
X58759Y-77546D01*
X59483Y-77546D02*
X59407Y-77508D01*
X59368Y-77432D01*
X59368Y-76746D01*
X60092Y-77508D02*
X60016Y-77546D01*
X59864Y-77546D01*
X59787Y-77508D01*
X59749Y-77432D01*
X59749Y-77127D01*
X59787Y-77051D01*
X59864Y-77012D01*
X60016Y-77012D01*
X60092Y-77051D01*
X60130Y-77127D01*
X60130Y-77203D01*
X59749Y-77279D01*
X60435Y-77508D02*
X60512Y-77546D01*
X60664Y-77546D01*
X60740Y-77508D01*
X60778Y-77432D01*
X60778Y-77393D01*
X60740Y-77317D01*
X60664Y-77279D01*
X60550Y-77279D01*
X60473Y-77241D01*
X60435Y-77165D01*
X60435Y-77127D01*
X60473Y-77051D01*
X60550Y-77012D01*
X60664Y-77012D01*
X60740Y-77051D01*
X61045Y-77851D02*
X61083Y-77812D01*
X61160Y-77698D01*
X61198Y-77622D01*
X61236Y-77508D01*
X61274Y-77317D01*
X61274Y-77165D01*
X61236Y-76974D01*
X61198Y-76860D01*
X61160Y-76784D01*
X61083Y-76670D01*
X61045Y-76632D01*
G54D10*
X43355Y-78278D02*
X43351Y-78309D01*
X43342Y-78338D01*
X43328Y-78366D01*
X43308Y-78390D01*
X43284Y-78410D01*
X43257Y-78425D01*
X43227Y-78434D01*
X43196Y-78437D01*
X43166Y-78435D01*
X43136Y-78426D01*
X43108Y-78411D01*
X43084Y-78392D01*
X43063Y-78368D01*
X43048Y-78341D01*
X43039Y-78311D01*
X43036Y-78280D01*
X43038Y-78250D01*
X43047Y-78220D01*
X43061Y-78192D01*
X43080Y-78167D01*
X43104Y-78147D01*
X43131Y-78132D01*
X43161Y-78122D01*
X43192Y-78119D01*
X43222Y-78121D01*
X43252Y-78129D01*
X43280Y-78143D01*
X43305Y-78163D01*
X43325Y-78186D01*
X43341Y-78213D01*
X43351Y-78243D01*
X43354Y-78274D01*
X43355Y-78278D01*
X43035Y-78278D02*
X43355Y-78278D01*
G54D12*
X43898Y-77802D02*
X43974Y-77802D01*
X44050Y-77840D01*
X44088Y-77878D01*
X44126Y-77954D01*
X44165Y-78107D01*
X44165Y-78297D01*
X44126Y-78449D01*
X44088Y-78526D01*
X44050Y-78564D01*
X43974Y-78602D01*
X43898Y-78602D01*
X43822Y-78564D01*
X43784Y-78526D01*
X43745Y-78449D01*
X43707Y-78297D01*
X43707Y-78107D01*
X43745Y-77954D01*
X43784Y-77878D01*
X43822Y-77840D01*
X43898Y-77802D01*
X44507Y-78526D02*
X44546Y-78564D01*
X44507Y-78602D01*
X44469Y-78564D01*
X44507Y-78526D01*
X44507Y-78602D01*
X45003Y-78145D02*
X44927Y-78107D01*
X44888Y-78068D01*
X44850Y-77992D01*
X44850Y-77954D01*
X44888Y-77878D01*
X44927Y-77840D01*
X45003Y-77802D01*
X45155Y-77802D01*
X45231Y-77840D01*
X45269Y-77878D01*
X45308Y-77954D01*
X45308Y-77992D01*
X45269Y-78068D01*
X45231Y-78107D01*
X45155Y-78145D01*
X45003Y-78145D01*
X44927Y-78183D01*
X44888Y-78221D01*
X44850Y-78297D01*
X44850Y-78449D01*
X44888Y-78526D01*
X44927Y-78564D01*
X45003Y-78602D01*
X45155Y-78602D01*
X45231Y-78564D01*
X45269Y-78526D01*
X45308Y-78449D01*
X45308Y-78297D01*
X45269Y-78221D01*
X45231Y-78183D01*
X45155Y-78145D01*
X46070Y-78602D02*
X45612Y-78602D01*
X45841Y-78602D02*
X45841Y-77802D01*
X45765Y-77916D01*
X45689Y-77992D01*
X45612Y-78030D01*
X46412Y-78602D02*
X46412Y-78068D01*
X46412Y-78145D02*
X46451Y-78107D01*
X46527Y-78068D01*
X46641Y-78068D01*
X46717Y-78107D01*
X46755Y-78183D01*
X46755Y-78602D01*
X46755Y-78183D02*
X46793Y-78107D01*
X46870Y-78068D01*
X46984Y-78068D01*
X47060Y-78107D01*
X47098Y-78183D01*
X47098Y-78602D01*
X47479Y-78602D02*
X47479Y-78068D01*
X47479Y-78145D02*
X47518Y-78107D01*
X47594Y-78068D01*
X47708Y-78068D01*
X47784Y-78107D01*
X47822Y-78183D01*
X47822Y-78602D01*
X47822Y-78183D02*
X47860Y-78107D01*
X47937Y-78068D01*
X48051Y-78068D01*
X48127Y-78107D01*
X48165Y-78183D01*
X48165Y-78602D01*
X49728Y-77764D02*
X49042Y-78792D01*
X50757Y-77802D02*
X50833Y-77802D01*
X50909Y-77840D01*
X50947Y-77878D01*
X50985Y-77954D01*
X51024Y-78107D01*
X51024Y-78297D01*
X50985Y-78449D01*
X50947Y-78526D01*
X50909Y-78564D01*
X50833Y-78602D01*
X50757Y-78602D01*
X50681Y-78564D01*
X50643Y-78526D01*
X50604Y-78449D01*
X50566Y-78297D01*
X50566Y-78107D01*
X50604Y-77954D01*
X50643Y-77878D01*
X50681Y-77840D01*
X50757Y-77802D01*
X51366Y-78526D02*
X51405Y-78564D01*
X51366Y-78602D01*
X51328Y-78564D01*
X51366Y-78526D01*
X51366Y-78602D01*
X51900Y-77802D02*
X51976Y-77802D01*
X52052Y-77840D01*
X52090Y-77878D01*
X52128Y-77954D01*
X52167Y-78107D01*
X52167Y-78297D01*
X52128Y-78449D01*
X52090Y-78526D01*
X52052Y-78564D01*
X51976Y-78602D01*
X51900Y-78602D01*
X51824Y-78564D01*
X51786Y-78526D01*
X51747Y-78449D01*
X51709Y-78297D01*
X51709Y-78107D01*
X51747Y-77954D01*
X51786Y-77878D01*
X51824Y-77840D01*
X51900Y-77802D01*
X52433Y-77802D02*
X52929Y-77802D01*
X52662Y-78107D01*
X52776Y-78107D01*
X52852Y-78145D01*
X52890Y-78183D01*
X52929Y-78259D01*
X52929Y-78449D01*
X52890Y-78526D01*
X52852Y-78564D01*
X52776Y-78602D01*
X52548Y-78602D01*
X52471Y-78564D01*
X52433Y-78526D01*
X53233Y-77878D02*
X53271Y-77840D01*
X53348Y-77802D01*
X53538Y-77802D01*
X53614Y-77840D01*
X53652Y-77878D01*
X53691Y-77954D01*
X53691Y-78030D01*
X53652Y-78145D01*
X53195Y-78602D01*
X53691Y-78602D01*
X53995Y-77802D02*
X53995Y-77954D01*
X54300Y-77802D02*
X54300Y-77954D01*
X55482Y-78907D02*
X55444Y-78868D01*
X55368Y-78754D01*
X55330Y-78678D01*
X55292Y-78564D01*
X55253Y-78373D01*
X55253Y-78221D01*
X55292Y-78030D01*
X55330Y-77916D01*
X55368Y-77840D01*
X55444Y-77726D01*
X55482Y-77688D01*
X56129Y-77802D02*
X55977Y-77802D01*
X55901Y-77840D01*
X55863Y-77878D01*
X55786Y-77992D01*
X55748Y-78145D01*
X55748Y-78449D01*
X55786Y-78526D01*
X55825Y-78564D01*
X55901Y-78602D01*
X56053Y-78602D01*
X56129Y-78564D01*
X56167Y-78526D01*
X56206Y-78449D01*
X56206Y-78259D01*
X56167Y-78183D01*
X56129Y-78145D01*
X56053Y-78107D01*
X55901Y-78107D01*
X55825Y-78145D01*
X55786Y-78183D01*
X55748Y-78259D01*
X57158Y-78602D02*
X57158Y-77802D01*
X57501Y-78602D02*
X57501Y-78183D01*
X57463Y-78107D01*
X57387Y-78068D01*
X57273Y-78068D01*
X57197Y-78107D01*
X57158Y-78145D01*
X57997Y-78602D02*
X57921Y-78564D01*
X57882Y-78526D01*
X57844Y-78449D01*
X57844Y-78221D01*
X57882Y-78145D01*
X57921Y-78107D01*
X57997Y-78068D01*
X58111Y-78068D01*
X58187Y-78107D01*
X58225Y-78145D01*
X58263Y-78221D01*
X58263Y-78449D01*
X58225Y-78526D01*
X58187Y-78564D01*
X58111Y-78602D01*
X57997Y-78602D01*
X58721Y-78602D02*
X58645Y-78564D01*
X58606Y-78488D01*
X58606Y-77802D01*
X59330Y-78564D02*
X59254Y-78602D01*
X59102Y-78602D01*
X59025Y-78564D01*
X58987Y-78488D01*
X58987Y-78183D01*
X59025Y-78107D01*
X59102Y-78068D01*
X59254Y-78068D01*
X59330Y-78107D01*
X59368Y-78183D01*
X59368Y-78259D01*
X58987Y-78335D01*
X59673Y-78564D02*
X59750Y-78602D01*
X59902Y-78602D01*
X59978Y-78564D01*
X60016Y-78488D01*
X60016Y-78449D01*
X59978Y-78373D01*
X59902Y-78335D01*
X59788Y-78335D01*
X59711Y-78297D01*
X59673Y-78221D01*
X59673Y-78183D01*
X59711Y-78107D01*
X59788Y-78068D01*
X59902Y-78068D01*
X59978Y-78107D01*
X60283Y-78907D02*
X60321Y-78868D01*
X60398Y-78754D01*
X60436Y-78678D01*
X60474Y-78564D01*
X60512Y-78373D01*
X60512Y-78221D01*
X60474Y-78030D01*
X60436Y-77916D01*
X60398Y-77840D01*
X60321Y-77726D01*
X60283Y-77688D01*
G54D10*
X43355Y-79334D02*
X43343Y-79455D01*
X43307Y-79572D01*
X43250Y-79679D01*
X43173Y-79774D01*
X43079Y-79852D01*
X42972Y-79910D01*
X42855Y-79946D01*
X42734Y-79958D01*
X42613Y-79947D01*
X42496Y-79913D01*
X42388Y-79856D01*
X42293Y-79780D01*
X42215Y-79687D01*
X42156Y-79580D01*
X42119Y-79463D01*
X42106Y-79342D01*
X42116Y-79222D01*
X42149Y-79104D01*
X42205Y-78996D01*
X42281Y-78900D01*
X42374Y-78821D01*
X42480Y-78762D01*
X42596Y-78724D01*
X42717Y-78710D01*
X42838Y-78719D01*
X42956Y-78752D01*
X43064Y-78807D01*
X43161Y-78882D01*
X43240Y-78974D01*
X43300Y-79080D01*
X43339Y-79196D01*
X43354Y-79317D01*
X43355Y-79334D01*
X42730Y-78709D02*
X42730Y-79959D01*
G54D12*
X43669Y-78858D02*
X44165Y-78858D01*
X43898Y-79163D01*
X44012Y-79163D01*
X44088Y-79201D01*
X44126Y-79239D01*
X44165Y-79315D01*
X44165Y-79505D01*
X44126Y-79582D01*
X44088Y-79620D01*
X44012Y-79658D01*
X43784Y-79658D01*
X43707Y-79620D01*
X43669Y-79582D01*
X44507Y-79582D02*
X44546Y-79620D01*
X44507Y-79658D01*
X44469Y-79620D01*
X44507Y-79582D01*
X44507Y-79658D01*
X45308Y-79658D02*
X44850Y-79658D01*
X45079Y-79658D02*
X45079Y-78858D01*
X45003Y-78972D01*
X44927Y-79048D01*
X44850Y-79086D01*
X45765Y-79201D02*
X45689Y-79163D01*
X45650Y-79124D01*
X45612Y-79048D01*
X45612Y-79010D01*
X45650Y-78934D01*
X45689Y-78896D01*
X45765Y-78858D01*
X45917Y-78858D01*
X45993Y-78896D01*
X46031Y-78934D01*
X46070Y-79010D01*
X46070Y-79048D01*
X46031Y-79124D01*
X45993Y-79163D01*
X45917Y-79201D01*
X45765Y-79201D01*
X45689Y-79239D01*
X45650Y-79277D01*
X45612Y-79353D01*
X45612Y-79505D01*
X45650Y-79582D01*
X45689Y-79620D01*
X45765Y-79658D01*
X45917Y-79658D01*
X45993Y-79620D01*
X46031Y-79582D01*
X46070Y-79505D01*
X46070Y-79353D01*
X46031Y-79277D01*
X45993Y-79239D01*
X45917Y-79201D01*
X46412Y-79658D02*
X46412Y-79124D01*
X46412Y-79201D02*
X46451Y-79163D01*
X46527Y-79124D01*
X46641Y-79124D01*
X46717Y-79163D01*
X46755Y-79239D01*
X46755Y-79658D01*
X46755Y-79239D02*
X46793Y-79163D01*
X46870Y-79124D01*
X46984Y-79124D01*
X47060Y-79163D01*
X47098Y-79239D01*
X47098Y-79658D01*
X47479Y-79658D02*
X47479Y-79124D01*
X47479Y-79201D02*
X47518Y-79163D01*
X47594Y-79124D01*
X47708Y-79124D01*
X47784Y-79163D01*
X47822Y-79239D01*
X47822Y-79658D01*
X47822Y-79239D02*
X47860Y-79163D01*
X47937Y-79124D01*
X48051Y-79124D01*
X48127Y-79163D01*
X48165Y-79239D01*
X48165Y-79658D01*
X49728Y-78820D02*
X49042Y-79848D01*
X50757Y-78858D02*
X50833Y-78858D01*
X50909Y-78896D01*
X50947Y-78934D01*
X50985Y-79010D01*
X51024Y-79163D01*
X51024Y-79353D01*
X50985Y-79505D01*
X50947Y-79582D01*
X50909Y-79620D01*
X50833Y-79658D01*
X50757Y-79658D01*
X50681Y-79620D01*
X50643Y-79582D01*
X50604Y-79505D01*
X50566Y-79353D01*
X50566Y-79163D01*
X50604Y-79010D01*
X50643Y-78934D01*
X50681Y-78896D01*
X50757Y-78858D01*
X51366Y-79582D02*
X51405Y-79620D01*
X51366Y-79658D01*
X51328Y-79620D01*
X51366Y-79582D01*
X51366Y-79658D01*
X52167Y-79658D02*
X51709Y-79658D01*
X51938Y-79658D02*
X51938Y-78858D01*
X51862Y-78972D01*
X51786Y-79048D01*
X51709Y-79086D01*
X52471Y-78934D02*
X52509Y-78896D01*
X52586Y-78858D01*
X52776Y-78858D01*
X52852Y-78896D01*
X52890Y-78934D01*
X52929Y-79010D01*
X52929Y-79086D01*
X52890Y-79201D01*
X52433Y-79658D01*
X52929Y-79658D01*
X53652Y-78858D02*
X53271Y-78858D01*
X53233Y-79239D01*
X53271Y-79201D01*
X53348Y-79163D01*
X53538Y-79163D01*
X53614Y-79201D01*
X53652Y-79239D01*
X53691Y-79315D01*
X53691Y-79505D01*
X53652Y-79582D01*
X53614Y-79620D01*
X53538Y-79658D01*
X53348Y-79658D01*
X53271Y-79620D01*
X53233Y-79582D01*
X53995Y-78858D02*
X53995Y-79010D01*
X54300Y-78858D02*
X54300Y-79010D01*
X55482Y-79963D02*
X55444Y-79924D01*
X55368Y-79810D01*
X55330Y-79734D01*
X55292Y-79620D01*
X55253Y-79429D01*
X55253Y-79277D01*
X55292Y-79086D01*
X55330Y-78972D01*
X55368Y-78896D01*
X55444Y-78782D01*
X55482Y-78744D01*
X56129Y-79124D02*
X56129Y-79658D01*
X55939Y-78820D02*
X55748Y-79391D01*
X56244Y-79391D01*
X57158Y-79658D02*
X57158Y-78858D01*
X57501Y-79658D02*
X57501Y-79239D01*
X57463Y-79163D01*
X57387Y-79124D01*
X57273Y-79124D01*
X57197Y-79163D01*
X57158Y-79201D01*
X57997Y-79658D02*
X57921Y-79620D01*
X57882Y-79582D01*
X57844Y-79505D01*
X57844Y-79277D01*
X57882Y-79201D01*
X57921Y-79163D01*
X57997Y-79124D01*
X58111Y-79124D01*
X58187Y-79163D01*
X58225Y-79201D01*
X58263Y-79277D01*
X58263Y-79505D01*
X58225Y-79582D01*
X58187Y-79620D01*
X58111Y-79658D01*
X57997Y-79658D01*
X58721Y-79658D02*
X58645Y-79620D01*
X58606Y-79544D01*
X58606Y-78858D01*
X59330Y-79620D02*
X59254Y-79658D01*
X59102Y-79658D01*
X59025Y-79620D01*
X58987Y-79544D01*
X58987Y-79239D01*
X59025Y-79163D01*
X59102Y-79124D01*
X59254Y-79124D01*
X59330Y-79163D01*
X59368Y-79239D01*
X59368Y-79315D01*
X58987Y-79391D01*
X59673Y-79620D02*
X59750Y-79658D01*
X59902Y-79658D01*
X59978Y-79620D01*
X60016Y-79544D01*
X60016Y-79505D01*
X59978Y-79429D01*
X59902Y-79391D01*
X59788Y-79391D01*
X59711Y-79353D01*
X59673Y-79277D01*
X59673Y-79239D01*
X59711Y-79163D01*
X59788Y-79124D01*
X59902Y-79124D01*
X59978Y-79163D01*
X60283Y-79963D02*
X60321Y-79924D01*
X60398Y-79810D01*
X60436Y-79734D01*
X60474Y-79620D01*
X60512Y-79429D01*
X60512Y-79277D01*
X60474Y-79086D01*
X60436Y-78972D01*
X60398Y-78896D01*
X60321Y-78782D01*
X60283Y-78744D01*
M02*
