G04 (created by PCBNEW (2012-jan-04)-stable) date Sat Sep 15 15:47:05 2012*
G01*
G70*
G90*
%MOIN*%
G04 Gerber Fmt 3.4, Leading zero omitted, Abs format*
%FSLAX34Y34*%
G04 APERTURE LIST*
%ADD10C,0.001000*%
%ADD11C,0.015000*%
%ADD12C,0.008000*%
G04 APERTURE END LIST*
G54D10*
G54D11*
X75449Y-40870D02*
X75429Y-40850D01*
X70118Y-40870D02*
X75449Y-40870D01*
X70118Y-33551D02*
X70118Y-40870D01*
X78189Y-33551D02*
X70118Y-33551D01*
X78189Y-25449D02*
X78189Y-33551D01*
X44118Y-25449D02*
X78189Y-25449D01*
X44118Y-46949D02*
X44118Y-25449D01*
X75469Y-46949D02*
X44118Y-46949D01*
X75469Y-40839D02*
X75469Y-46949D01*
G54D10*
X54831Y-28930D02*
X54909Y-29008D01*
X54909Y-28930D02*
X54831Y-29008D01*
X56158Y-43248D02*
X56236Y-43326D01*
X56236Y-43248D02*
X56158Y-43326D01*
X56189Y-41811D02*
X56267Y-41889D01*
X56267Y-41811D02*
X56189Y-41889D01*
X56229Y-44374D02*
X56307Y-44452D01*
X56307Y-44374D02*
X56229Y-44452D01*
X58406Y-40213D02*
X58484Y-40291D01*
X58484Y-40213D02*
X58406Y-40291D01*
X58571Y-34307D02*
X58649Y-34385D01*
X58649Y-34307D02*
X58571Y-34385D01*
X58851Y-39221D02*
X58929Y-39299D01*
X58929Y-39221D02*
X58851Y-39299D01*
X59012Y-37615D02*
X59090Y-37693D01*
X59090Y-37615D02*
X59012Y-37693D01*
X59248Y-36874D02*
X59326Y-36952D01*
X59326Y-36874D02*
X59248Y-36952D01*
X59339Y-36256D02*
X59417Y-36334D01*
X59417Y-36256D02*
X59339Y-36334D01*
X59382Y-37666D02*
X59460Y-37744D01*
X59460Y-37666D02*
X59382Y-37744D01*
X59426Y-36485D02*
X59504Y-36563D01*
X59504Y-36485D02*
X59426Y-36563D01*
X60150Y-35268D02*
X60228Y-35346D01*
X60228Y-35268D02*
X60150Y-35346D01*
X60189Y-39217D02*
X60267Y-39295D01*
X60267Y-39217D02*
X60189Y-39295D01*
X60213Y-35914D02*
X60291Y-35992D01*
X60291Y-35914D02*
X60213Y-35992D01*
X60571Y-36863D02*
X60649Y-36941D01*
X60649Y-36863D02*
X60571Y-36941D01*
X60973Y-37634D02*
X61051Y-37712D01*
X61051Y-37634D02*
X60973Y-37712D01*
X61288Y-34000D02*
X61366Y-34078D01*
X61366Y-34000D02*
X61288Y-34078D01*
X61355Y-39634D02*
X61433Y-39712D01*
X61433Y-39634D02*
X61355Y-39712D01*
X61367Y-34874D02*
X61445Y-34952D01*
X61445Y-34874D02*
X61367Y-34952D01*
X61374Y-36851D02*
X61452Y-36929D01*
X61452Y-36851D02*
X61374Y-36929D01*
X61390Y-36481D02*
X61468Y-36559D01*
X61468Y-36481D02*
X61390Y-36559D01*
X61465Y-41981D02*
X61543Y-42059D01*
X61543Y-41981D02*
X61465Y-42059D01*
X61571Y-37453D02*
X61649Y-37531D01*
X61649Y-37453D02*
X61571Y-37531D01*
X61697Y-29741D02*
X61775Y-29819D01*
X61775Y-29741D02*
X61697Y-29819D01*
X61760Y-36067D02*
X61838Y-36145D01*
X61838Y-36067D02*
X61760Y-36145D01*
X61768Y-38048D02*
X61846Y-38126D01*
X61846Y-38048D02*
X61768Y-38126D01*
X61969Y-36748D02*
X62047Y-36826D01*
X62047Y-36748D02*
X61969Y-36826D01*
X62048Y-33985D02*
X62126Y-34063D01*
X62126Y-33985D02*
X62048Y-34063D01*
X62138Y-37280D02*
X62216Y-37358D01*
X62216Y-37280D02*
X62138Y-37358D01*
X62146Y-38819D02*
X62224Y-38897D01*
X62224Y-38819D02*
X62146Y-38897D01*
X62516Y-28378D02*
X62594Y-28456D01*
X62594Y-28378D02*
X62516Y-28456D01*
X62532Y-38020D02*
X62610Y-38098D01*
X62610Y-38020D02*
X62532Y-38098D01*
X62926Y-39626D02*
X63004Y-39704D01*
X63004Y-39626D02*
X62926Y-39704D01*
X62930Y-34496D02*
X63008Y-34574D01*
X63008Y-34496D02*
X62930Y-34574D01*
X62953Y-37154D02*
X63031Y-37232D01*
X63031Y-37154D02*
X62953Y-37232D01*
X63331Y-37642D02*
X63409Y-37720D01*
X63409Y-37642D02*
X63331Y-37720D01*
X63473Y-37162D02*
X63551Y-37240D01*
X63551Y-37162D02*
X63473Y-37240D01*
X63690Y-35319D02*
X63768Y-35397D01*
X63768Y-35319D02*
X63690Y-35397D01*
X63941Y-37150D02*
X64019Y-37228D01*
X64019Y-37150D02*
X63941Y-37228D01*
X64059Y-42417D02*
X64137Y-42495D01*
X64137Y-42417D02*
X64059Y-42495D01*
X64063Y-41874D02*
X64141Y-41952D01*
X64141Y-41874D02*
X64063Y-41952D01*
X64079Y-41512D02*
X64157Y-41590D01*
X64157Y-41512D02*
X64079Y-41590D01*
X64111Y-39599D02*
X64189Y-39677D01*
X64189Y-39599D02*
X64111Y-39677D01*
X64126Y-36851D02*
X64204Y-36929D01*
X64204Y-36851D02*
X64126Y-36929D01*
X64134Y-44611D02*
X64212Y-44689D01*
X64212Y-44611D02*
X64134Y-44689D01*
X64241Y-42130D02*
X64319Y-42208D01*
X64319Y-42130D02*
X64241Y-42208D01*
X64504Y-36811D02*
X64582Y-36889D01*
X64582Y-36811D02*
X64504Y-36889D01*
X64532Y-38437D02*
X64610Y-38515D01*
X64610Y-38437D02*
X64532Y-38515D01*
X64559Y-34500D02*
X64637Y-34578D01*
X64637Y-34500D02*
X64559Y-34578D01*
X64969Y-40453D02*
X65047Y-40531D01*
X65047Y-40453D02*
X64969Y-40531D01*
X65142Y-30788D02*
X65220Y-30866D01*
X65220Y-30788D02*
X65142Y-30866D01*
X65300Y-33618D02*
X65378Y-33696D01*
X65378Y-33618D02*
X65300Y-33696D01*
X66445Y-29028D02*
X66523Y-29106D01*
X66523Y-29028D02*
X66445Y-29106D01*
X66516Y-31772D02*
X66594Y-31850D01*
X66594Y-31772D02*
X66516Y-31850D01*
X66559Y-30792D02*
X66637Y-30870D01*
X66637Y-30792D02*
X66559Y-30870D01*
X66599Y-42205D02*
X66677Y-42283D01*
X66677Y-42205D02*
X66599Y-42283D01*
X67398Y-43658D02*
X67476Y-43736D01*
X67476Y-43658D02*
X67398Y-43736D01*
X68945Y-44906D02*
X69023Y-44984D01*
X69023Y-44906D02*
X68945Y-44984D01*
X69394Y-29741D02*
X69472Y-29819D01*
X69472Y-29741D02*
X69394Y-29819D01*
X70926Y-30410D02*
X71004Y-30488D01*
X71004Y-30410D02*
X70926Y-30488D01*
X71453Y-29898D02*
X71531Y-29976D01*
X71531Y-29898D02*
X71453Y-29976D01*
X71870Y-29481D02*
X71948Y-29559D01*
X71948Y-29481D02*
X71870Y-29559D01*
X71933Y-30272D02*
X72011Y-30350D01*
X72011Y-30272D02*
X71933Y-30350D01*
X72697Y-30280D02*
X72775Y-30358D01*
X72775Y-30280D02*
X72697Y-30358D01*
X72847Y-43922D02*
X72925Y-44000D01*
X72925Y-43922D02*
X72847Y-44000D01*
X72886Y-42835D02*
X72964Y-42913D01*
X72964Y-42835D02*
X72886Y-42913D01*
X72914Y-41744D02*
X72992Y-41822D01*
X72992Y-41744D02*
X72914Y-41822D01*
G54D12*
X44336Y-48402D02*
X44336Y-47602D01*
X44527Y-47602D01*
X44641Y-47640D01*
X44717Y-47716D01*
X44756Y-47792D01*
X44794Y-47945D01*
X44794Y-48059D01*
X44756Y-48211D01*
X44717Y-48288D01*
X44641Y-48364D01*
X44527Y-48402D01*
X44336Y-48402D01*
X45136Y-48402D02*
X45136Y-47868D01*
X45136Y-48021D02*
X45175Y-47945D01*
X45213Y-47907D01*
X45289Y-47868D01*
X45365Y-47868D01*
X45631Y-48402D02*
X45631Y-47868D01*
X45631Y-47602D02*
X45593Y-47640D01*
X45631Y-47678D01*
X45670Y-47640D01*
X45631Y-47602D01*
X45631Y-47678D01*
X46127Y-48402D02*
X46051Y-48364D01*
X46012Y-48288D01*
X46012Y-47602D01*
X46546Y-48402D02*
X46470Y-48364D01*
X46431Y-48288D01*
X46431Y-47602D01*
X47460Y-48402D02*
X47460Y-47602D01*
X47727Y-48173D01*
X47994Y-47602D01*
X47994Y-48402D01*
X48717Y-48402D02*
X48717Y-47983D01*
X48679Y-47907D01*
X48603Y-47868D01*
X48451Y-47868D01*
X48374Y-47907D01*
X48717Y-48364D02*
X48641Y-48402D01*
X48451Y-48402D01*
X48374Y-48364D01*
X48336Y-48288D01*
X48336Y-48211D01*
X48374Y-48135D01*
X48451Y-48097D01*
X48641Y-48097D01*
X48717Y-48059D01*
X49098Y-47868D02*
X49098Y-48668D01*
X49098Y-47907D02*
X49175Y-47868D01*
X49327Y-47868D01*
X49403Y-47907D01*
X49441Y-47945D01*
X49479Y-48021D01*
X49479Y-48249D01*
X49441Y-48326D01*
X49403Y-48364D01*
X49327Y-48402D01*
X49175Y-48402D01*
X49098Y-48364D01*
X49822Y-48326D02*
X49861Y-48364D01*
X49822Y-48402D01*
X49784Y-48364D01*
X49822Y-48326D01*
X49822Y-48402D01*
X49822Y-47907D02*
X49861Y-47945D01*
X49822Y-47983D01*
X49784Y-47945D01*
X49822Y-47907D01*
X49822Y-47983D01*
X43867Y-49719D02*
X43945Y-49797D01*
X43945Y-49719D02*
X43867Y-49797D01*
X44489Y-49282D02*
X44565Y-49282D01*
X44641Y-49320D01*
X44679Y-49358D01*
X44717Y-49434D01*
X44756Y-49587D01*
X44756Y-49777D01*
X44717Y-49929D01*
X44679Y-50006D01*
X44641Y-50044D01*
X44565Y-50082D01*
X44489Y-50082D01*
X44413Y-50044D01*
X44375Y-50006D01*
X44336Y-49929D01*
X44298Y-49777D01*
X44298Y-49587D01*
X44336Y-49434D01*
X44375Y-49358D01*
X44413Y-49320D01*
X44489Y-49282D01*
X45098Y-50006D02*
X45137Y-50044D01*
X45098Y-50082D01*
X45060Y-50044D01*
X45098Y-50006D01*
X45098Y-50082D01*
X45632Y-49282D02*
X45708Y-49282D01*
X45784Y-49320D01*
X45822Y-49358D01*
X45860Y-49434D01*
X45899Y-49587D01*
X45899Y-49777D01*
X45860Y-49929D01*
X45822Y-50006D01*
X45784Y-50044D01*
X45708Y-50082D01*
X45632Y-50082D01*
X45556Y-50044D01*
X45518Y-50006D01*
X45479Y-49929D01*
X45441Y-49777D01*
X45441Y-49587D01*
X45479Y-49434D01*
X45518Y-49358D01*
X45556Y-49320D01*
X45632Y-49282D01*
X46394Y-49282D02*
X46470Y-49282D01*
X46546Y-49320D01*
X46584Y-49358D01*
X46622Y-49434D01*
X46661Y-49587D01*
X46661Y-49777D01*
X46622Y-49929D01*
X46584Y-50006D01*
X46546Y-50044D01*
X46470Y-50082D01*
X46394Y-50082D01*
X46318Y-50044D01*
X46280Y-50006D01*
X46241Y-49929D01*
X46203Y-49777D01*
X46203Y-49587D01*
X46241Y-49434D01*
X46280Y-49358D01*
X46318Y-49320D01*
X46394Y-49282D01*
X47118Y-49625D02*
X47042Y-49587D01*
X47003Y-49548D01*
X46965Y-49472D01*
X46965Y-49434D01*
X47003Y-49358D01*
X47042Y-49320D01*
X47118Y-49282D01*
X47270Y-49282D01*
X47346Y-49320D01*
X47384Y-49358D01*
X47423Y-49434D01*
X47423Y-49472D01*
X47384Y-49548D01*
X47346Y-49587D01*
X47270Y-49625D01*
X47118Y-49625D01*
X47042Y-49663D01*
X47003Y-49701D01*
X46965Y-49777D01*
X46965Y-49929D01*
X47003Y-50006D01*
X47042Y-50044D01*
X47118Y-50082D01*
X47270Y-50082D01*
X47346Y-50044D01*
X47384Y-50006D01*
X47423Y-49929D01*
X47423Y-49777D01*
X47384Y-49701D01*
X47346Y-49663D01*
X47270Y-49625D01*
X47727Y-49282D02*
X47727Y-49434D01*
X48032Y-49282D02*
X48032Y-49434D01*
X49557Y-49244D02*
X48871Y-50272D01*
X50586Y-49282D02*
X50662Y-49282D01*
X50738Y-49320D01*
X50776Y-49358D01*
X50814Y-49434D01*
X50853Y-49587D01*
X50853Y-49777D01*
X50814Y-49929D01*
X50776Y-50006D01*
X50738Y-50044D01*
X50662Y-50082D01*
X50586Y-50082D01*
X50510Y-50044D01*
X50472Y-50006D01*
X50433Y-49929D01*
X50395Y-49777D01*
X50395Y-49587D01*
X50433Y-49434D01*
X50472Y-49358D01*
X50510Y-49320D01*
X50586Y-49282D01*
X51195Y-50006D02*
X51234Y-50044D01*
X51195Y-50082D01*
X51157Y-50044D01*
X51195Y-50006D01*
X51195Y-50082D01*
X51538Y-49358D02*
X51576Y-49320D01*
X51653Y-49282D01*
X51843Y-49282D01*
X51919Y-49320D01*
X51957Y-49358D01*
X51996Y-49434D01*
X51996Y-49510D01*
X51957Y-49625D01*
X51500Y-50082D01*
X51996Y-50082D01*
X52491Y-49282D02*
X52567Y-49282D01*
X52643Y-49320D01*
X52681Y-49358D01*
X52719Y-49434D01*
X52758Y-49587D01*
X52758Y-49777D01*
X52719Y-49929D01*
X52681Y-50006D01*
X52643Y-50044D01*
X52567Y-50082D01*
X52491Y-50082D01*
X52415Y-50044D01*
X52377Y-50006D01*
X52338Y-49929D01*
X52300Y-49777D01*
X52300Y-49587D01*
X52338Y-49434D01*
X52377Y-49358D01*
X52415Y-49320D01*
X52491Y-49282D01*
X53100Y-50082D02*
X53100Y-49548D01*
X53100Y-49625D02*
X53139Y-49587D01*
X53215Y-49548D01*
X53329Y-49548D01*
X53405Y-49587D01*
X53443Y-49663D01*
X53443Y-50082D01*
X53443Y-49663D02*
X53481Y-49587D01*
X53558Y-49548D01*
X53672Y-49548D01*
X53748Y-49587D01*
X53786Y-49663D01*
X53786Y-50082D01*
X54167Y-50082D02*
X54167Y-49548D01*
X54167Y-49625D02*
X54206Y-49587D01*
X54282Y-49548D01*
X54396Y-49548D01*
X54472Y-49587D01*
X54510Y-49663D01*
X54510Y-50082D01*
X54510Y-49663D02*
X54548Y-49587D01*
X54625Y-49548D01*
X54739Y-49548D01*
X54815Y-49587D01*
X54853Y-49663D01*
X54853Y-50082D01*
X56073Y-50387D02*
X56035Y-50348D01*
X55959Y-50234D01*
X55921Y-50158D01*
X55883Y-50044D01*
X55844Y-49853D01*
X55844Y-49701D01*
X55883Y-49510D01*
X55921Y-49396D01*
X55959Y-49320D01*
X56035Y-49206D01*
X56073Y-49168D01*
X56720Y-49282D02*
X56568Y-49282D01*
X56492Y-49320D01*
X56454Y-49358D01*
X56377Y-49472D01*
X56339Y-49625D01*
X56339Y-49929D01*
X56377Y-50006D01*
X56416Y-50044D01*
X56492Y-50082D01*
X56644Y-50082D01*
X56720Y-50044D01*
X56758Y-50006D01*
X56797Y-49929D01*
X56797Y-49739D01*
X56758Y-49663D01*
X56720Y-49625D01*
X56644Y-49587D01*
X56492Y-49587D01*
X56416Y-49625D01*
X56377Y-49663D01*
X56339Y-49739D01*
X57254Y-49625D02*
X57178Y-49587D01*
X57139Y-49548D01*
X57101Y-49472D01*
X57101Y-49434D01*
X57139Y-49358D01*
X57178Y-49320D01*
X57254Y-49282D01*
X57406Y-49282D01*
X57482Y-49320D01*
X57520Y-49358D01*
X57559Y-49434D01*
X57559Y-49472D01*
X57520Y-49548D01*
X57482Y-49587D01*
X57406Y-49625D01*
X57254Y-49625D01*
X57178Y-49663D01*
X57139Y-49701D01*
X57101Y-49777D01*
X57101Y-49929D01*
X57139Y-50006D01*
X57178Y-50044D01*
X57254Y-50082D01*
X57406Y-50082D01*
X57482Y-50044D01*
X57520Y-50006D01*
X57559Y-49929D01*
X57559Y-49777D01*
X57520Y-49701D01*
X57482Y-49663D01*
X57406Y-49625D01*
X58511Y-50082D02*
X58511Y-49282D01*
X58854Y-50082D02*
X58854Y-49663D01*
X58816Y-49587D01*
X58740Y-49548D01*
X58626Y-49548D01*
X58550Y-49587D01*
X58511Y-49625D01*
X59350Y-50082D02*
X59274Y-50044D01*
X59235Y-50006D01*
X59197Y-49929D01*
X59197Y-49701D01*
X59235Y-49625D01*
X59274Y-49587D01*
X59350Y-49548D01*
X59464Y-49548D01*
X59540Y-49587D01*
X59578Y-49625D01*
X59616Y-49701D01*
X59616Y-49929D01*
X59578Y-50006D01*
X59540Y-50044D01*
X59464Y-50082D01*
X59350Y-50082D01*
X60074Y-50082D02*
X59998Y-50044D01*
X59959Y-49968D01*
X59959Y-49282D01*
X60683Y-50044D02*
X60607Y-50082D01*
X60455Y-50082D01*
X60378Y-50044D01*
X60340Y-49968D01*
X60340Y-49663D01*
X60378Y-49587D01*
X60455Y-49548D01*
X60607Y-49548D01*
X60683Y-49587D01*
X60721Y-49663D01*
X60721Y-49739D01*
X60340Y-49815D01*
X61026Y-50044D02*
X61103Y-50082D01*
X61255Y-50082D01*
X61331Y-50044D01*
X61369Y-49968D01*
X61369Y-49929D01*
X61331Y-49853D01*
X61255Y-49815D01*
X61141Y-49815D01*
X61064Y-49777D01*
X61026Y-49701D01*
X61026Y-49663D01*
X61064Y-49587D01*
X61141Y-49548D01*
X61255Y-49548D01*
X61331Y-49587D01*
X61636Y-50387D02*
X61674Y-50348D01*
X61751Y-50234D01*
X61789Y-50158D01*
X61827Y-50044D01*
X61865Y-49853D01*
X61865Y-49701D01*
X61827Y-49510D01*
X61789Y-49396D01*
X61751Y-49320D01*
X61674Y-49206D01*
X61636Y-49168D01*
M02*
