M48
;DRILL file {Pcbnew (2012-jan-04)-stable} date Mon Dec 31 11:21:51 2012
;FORMAT={-:-/ absolute / metric / decimal}
FMAT,2
METRIC,TZ
T1C0.178
T2C0.249
T3C0.800
T4C0.810
T5C0.813
T6C3.175
%
G90
G05
M71
T1
X141.651Y111.450
X145.849Y92.814
X155.989Y90.739
X159.159Y71.150
X161.549Y71.079
X166.571Y110.681
X171.000Y105.080
T2
X138.171Y108.869
X139.179Y112.931
X139.601Y113.416
X140.010Y112.941
X140.459Y113.396
X140.711Y105.700
X140.881Y112.911
X141.780Y105.199
X142.039Y108.679
X142.301Y110.759
X142.776Y87.991
X143.241Y112.159
X143.515Y98.021
X143.551Y96.345
X143.660Y107.140
X143.850Y112.131
X143.871Y85.590
X144.206Y107.965
X144.681Y99.014
X145.420Y77.719
X146.190Y102.179
X146.200Y77.691
X146.454Y91.646
X147.000Y77.719
X147.490Y89.789
X147.800Y77.701
X148.054Y99.624
X148.100Y85.199
X148.295Y102.740
X148.430Y101.229
X148.491Y100.429
X148.585Y91.666
X148.600Y77.719
X148.740Y102.141
X148.999Y80.104
X149.400Y77.770
X150.236Y77.861
X150.990Y77.790
X151.811Y77.790
X151.940Y95.730
X151.945Y96.731
X151.956Y97.765
X151.971Y91.694
X151.971Y99.629
X151.981Y92.700
X152.001Y98.669
X152.014Y90.749
X152.019Y89.766
X152.029Y100.810
X152.039Y94.661
X152.601Y77.841
X152.969Y96.695
X152.974Y89.715
X152.974Y91.714
X152.979Y90.716
X152.979Y94.671
X152.999Y95.669
X152.999Y97.691
X153.030Y92.761
X153.401Y77.841
X153.929Y96.751
X153.949Y92.680
X153.949Y98.669
X153.975Y90.701
X153.980Y95.689
X154.000Y89.731
X154.021Y93.749
X154.851Y77.909
X154.960Y90.729
X154.981Y92.690
X155.001Y76.121
X155.001Y100.711
X155.039Y89.771
X155.260Y85.400
X155.359Y84.511
X155.931Y94.750
X155.951Y99.670
X155.966Y95.700
X155.974Y88.730
X155.994Y93.660
X156.009Y89.779
X156.020Y80.810
X156.030Y97.671
X156.601Y76.639
X156.769Y81.270
X156.934Y85.359
X156.949Y99.710
X156.964Y88.704
X156.969Y94.709
X156.972Y96.711
X156.975Y89.705
X157.020Y100.769
X157.061Y98.699
X157.419Y79.459
X157.719Y74.280
X157.800Y84.851
X157.940Y89.720
X157.960Y93.721
X157.970Y87.760
X157.980Y91.699
X158.031Y88.770
X158.125Y95.555
X158.829Y84.160
X158.930Y93.749
X158.989Y85.301
X158.989Y87.739
X159.019Y80.170
X159.220Y77.610
X159.286Y78.389
X159.451Y84.661
X159.804Y79.804
X159.969Y100.805
X159.979Y89.741
X159.979Y94.719
X160.200Y78.476
X160.939Y89.726
X160.950Y97.701
X160.960Y94.760
X161.051Y93.660
X161.140Y85.006
X161.694Y83.411
X161.724Y84.356
X161.900Y90.739
X161.930Y99.731
X161.940Y101.689
X161.950Y96.680
X161.991Y89.690
X162.204Y79.695
X162.436Y81.156
X162.999Y92.834
X163.010Y79.959
X163.769Y74.501
X163.929Y96.751
X163.939Y89.720
X163.939Y95.611
X163.980Y98.709
X163.995Y93.706
X164.201Y73.929
X164.295Y82.375
X164.610Y79.809
X164.960Y96.660
X165.021Y99.190
X165.029Y100.681
X165.049Y101.900
X165.059Y95.679
X165.095Y97.691
X165.204Y94.280
X165.270Y84.709
X165.331Y92.875
X165.349Y83.899
X165.410Y85.570
X165.451Y74.425
X165.471Y96.261
X165.765Y90.086
X166.230Y87.821
X166.240Y86.401
X166.619Y74.000
X166.789Y88.240
X167.340Y85.100
X167.810Y87.810
X168.311Y80.861
X168.364Y99.931
X168.620Y98.389
X170.640Y107.109
X172.001Y92.301
X172.621Y72.669
X172.829Y101.620
X172.880Y91.260
X172.936Y91.956
X174.371Y106.710
X174.691Y108.080
X175.379Y96.939
X175.405Y91.801
X175.440Y94.379
X176.101Y107.211
X176.108Y106.060
X176.235Y109.004
X176.390Y108.346
X176.454Y107.696
X176.515Y105.446
X177.340Y75.550
X181.290Y74.790
X187.119Y106.609
X187.150Y110.061
T3
X123.015Y66.500
X123.015Y69.040
X123.015Y114.760
X123.015Y117.300
X125.555Y66.500
X125.555Y69.040
X125.555Y114.760
X125.555Y117.300
X128.095Y66.500
X128.095Y69.040
X128.095Y114.760
X128.095Y117.300
X128.549Y76.010
X130.635Y66.500
X130.635Y69.040
X130.635Y114.760
X130.635Y117.300
X131.089Y76.010
X133.175Y66.500
X133.175Y69.040
X133.175Y114.760
X133.175Y117.300
X133.629Y76.010
X135.715Y66.500
X135.715Y69.040
X135.715Y114.760
X135.715Y117.300
X136.169Y76.010
X138.255Y66.500
X138.255Y69.040
X138.255Y114.760
X138.255Y117.300
X138.709Y76.010
X140.795Y66.500
X140.795Y69.040
X140.795Y114.760
X140.795Y117.300
X141.249Y76.010
X143.335Y66.500
X143.335Y69.040
X143.335Y114.760
X143.335Y117.300
X145.875Y66.500
X145.875Y69.040
X145.875Y114.760
X145.875Y117.300
X148.415Y66.500
X148.415Y69.040
X148.415Y114.760
X148.415Y117.300
X150.955Y66.500
X150.955Y69.040
X150.955Y114.760
X150.955Y117.300
X153.495Y66.500
X153.495Y69.040
X153.495Y114.760
X153.495Y117.300
X156.035Y66.500
X156.035Y69.040
X156.035Y114.760
X156.035Y117.300
X158.575Y66.500
X158.575Y69.040
X158.575Y114.760
X158.575Y117.300
X161.115Y66.500
X161.115Y69.040
X161.115Y114.760
X161.115Y117.300
X163.655Y66.500
X163.655Y69.040
X163.655Y114.760
X163.655Y117.300
X166.195Y66.500
X166.195Y69.040
X166.195Y114.760
X166.195Y117.300
X168.735Y66.500
X168.735Y69.040
X168.735Y114.760
X168.735Y117.300
X171.275Y66.500
X171.275Y69.040
X171.275Y114.760
X171.275Y117.300
X173.815Y66.500
X173.815Y69.040
X173.815Y114.760
X173.815Y117.300
X176.355Y66.500
X176.355Y69.040
X176.355Y114.760
X176.355Y117.300
X178.895Y66.500
X178.895Y69.040
X178.895Y114.760
X178.895Y117.300
X181.435Y81.105
X181.435Y83.645
X183.975Y81.105
X183.975Y83.645
X186.515Y81.105
X186.515Y83.645
X189.055Y81.105
X189.055Y83.645
X191.595Y81.105
X191.595Y83.645
T4
X122.070Y81.150
X122.070Y83.690
X122.070Y86.230
X122.070Y88.770
X122.070Y91.310
X122.070Y93.850
X122.070Y96.390
X122.070Y98.930
X122.070Y101.470
X122.070Y104.010
X124.628Y81.150
X124.628Y83.690
X124.628Y86.230
X124.628Y88.770
X124.628Y91.310
X124.628Y93.850
X124.628Y96.390
X124.628Y98.930
X124.628Y101.470
X124.628Y104.010
X131.950Y81.150
X131.950Y83.690
X131.950Y86.230
X131.950Y88.770
X131.950Y91.310
X131.950Y93.850
X131.950Y96.390
X131.950Y98.930
X131.950Y101.470
X131.950Y104.010
X134.508Y81.150
X134.508Y83.690
X134.508Y86.230
X134.508Y88.770
X134.508Y91.310
X134.508Y93.850
X134.508Y96.390
X134.508Y98.930
X134.508Y101.470
X134.508Y104.010
T5
X116.789Y85.664
X116.789Y88.204
X116.789Y90.744
X116.789Y93.284
X116.789Y95.824
X116.789Y98.364
T6
X117.935Y70.945
X117.935Y112.855
X183.975Y67.770
X183.975Y116.030
T0
M30
