M48
;DRILL file {Pcbnew (2012-jan-04)-stable} date Sat Sep 15 15:47:04 2012
;FORMAT={-:-/ absolute / inch / decimal}
FMAT,2
INCH,TZ
T1C0.008
%
G90
G05
M72
T1
X5.487Y2.897
X5.620Y4.329
X5.623Y4.185
X5.627Y4.441
X5.845Y4.025
X5.861Y3.435
X5.889Y3.926
X5.905Y3.765
X5.929Y3.691
X5.938Y3.630
X5.942Y3.771
X5.947Y3.652
X6.019Y3.531
X6.023Y3.926
X6.025Y3.595
X6.061Y3.690
X6.101Y3.767
X6.133Y3.404
X6.139Y3.967
X6.141Y3.491
X6.141Y3.689
X6.143Y3.652
X6.150Y4.202
X6.161Y3.749
X6.174Y2.978
X6.180Y3.611
X6.181Y3.809
X6.201Y3.679
X6.209Y3.402
X6.218Y3.732
X6.219Y3.886
X6.256Y2.842
X6.257Y3.806
X6.296Y3.967
X6.297Y3.454
X6.299Y3.719
X6.337Y3.768
X6.351Y3.720
X6.373Y3.536
X6.398Y3.719
X6.410Y4.246
X6.410Y4.191
X6.412Y4.155
X6.415Y3.964
X6.417Y3.689
X6.417Y4.465
X6.428Y4.217
X6.454Y3.685
X6.457Y3.848
X6.460Y3.454
X6.501Y4.049
X6.518Y3.083
X6.534Y3.366
X6.648Y2.907
X6.655Y3.181
X6.660Y3.083
X6.664Y4.224
X6.744Y4.370
X6.898Y4.495
X6.943Y2.978
X7.097Y3.045
X7.149Y2.994
X7.191Y2.952
X7.197Y3.031
X7.274Y3.032
X7.289Y4.396
X7.293Y4.287
X7.295Y4.178
T0
M30
