G04 (created by PCBNEW (2012-jan-04)-stable) date Sat Sep 15 15:47:10 2012*
G01*
G70*
G90*
%MOIN*%
G04 Gerber Fmt 3.4, Leading zero omitted, Abs format*
%FSLAX34Y34*%
G04 APERTURE LIST*
%ADD10C,0.001000*%
%ADD11C,0.015000*%
%ADD12C,0.008000*%
G04 APERTURE END LIST*
G54D10*
G54D11*
X75449Y-40870D02*
X75429Y-40850D01*
X70118Y-40870D02*
X75449Y-40870D01*
X70118Y-33551D02*
X70118Y-40870D01*
X78189Y-33551D02*
X70118Y-33551D01*
X78189Y-25449D02*
X78189Y-33551D01*
X44118Y-25449D02*
X78189Y-25449D01*
X44118Y-46949D02*
X44118Y-25449D01*
X75469Y-46949D02*
X44118Y-46949D01*
X75469Y-40839D02*
X75469Y-46949D01*
G54D10*
X49552Y-29949D02*
X49630Y-30027D01*
X49630Y-29949D02*
X49552Y-30027D01*
X50402Y-29949D02*
X50480Y-30027D01*
X50480Y-29949D02*
X50402Y-30027D01*
X50930Y-33559D02*
X51008Y-33637D01*
X51008Y-33559D02*
X50930Y-33637D01*
X51162Y-33863D02*
X51240Y-33941D01*
X51240Y-33863D02*
X51162Y-33941D01*
X51343Y-29992D02*
X51421Y-30070D01*
X51421Y-29992D02*
X51343Y-30070D01*
X51367Y-34205D02*
X51445Y-34283D01*
X51445Y-34205D02*
X51367Y-34283D01*
X51599Y-34441D02*
X51677Y-34519D01*
X51677Y-34441D02*
X51599Y-34519D01*
X51788Y-35646D02*
X51866Y-35724D01*
X51866Y-35646D02*
X51788Y-35724D01*
X51792Y-36130D02*
X51870Y-36208D01*
X51870Y-36130D02*
X51792Y-36208D01*
X51800Y-35150D02*
X51878Y-35228D01*
X51878Y-35150D02*
X51800Y-35228D01*
X51859Y-34666D02*
X51937Y-34744D01*
X51937Y-34666D02*
X51859Y-34744D01*
X51874Y-36559D02*
X51952Y-36637D01*
X51952Y-36559D02*
X51874Y-36637D01*
X51910Y-37004D02*
X51988Y-37082D01*
X51988Y-37004D02*
X51910Y-37082D01*
X51910Y-38540D02*
X51988Y-38618D01*
X51988Y-38540D02*
X51910Y-38618D01*
X51922Y-37532D02*
X52000Y-37610D01*
X52000Y-37532D02*
X51922Y-37610D01*
X51941Y-39311D02*
X52019Y-39389D01*
X52019Y-39311D02*
X51941Y-39389D01*
X51985Y-37886D02*
X52063Y-37964D01*
X52063Y-37886D02*
X51985Y-37964D01*
X52536Y-30020D02*
X52614Y-30098D01*
X52614Y-30020D02*
X52536Y-30098D01*
X54670Y-29622D02*
X54748Y-29700D01*
X54748Y-29622D02*
X54670Y-29700D01*
X54831Y-28930D02*
X54909Y-29008D01*
X54909Y-28930D02*
X54831Y-29008D01*
X56158Y-43248D02*
X56236Y-43326D01*
X56236Y-43248D02*
X56158Y-43326D01*
X56189Y-41811D02*
X56267Y-41889D01*
X56267Y-41811D02*
X56189Y-41889D01*
X56229Y-44374D02*
X56307Y-44452D01*
X56307Y-44374D02*
X56229Y-44452D01*
X58000Y-44800D02*
X58078Y-44878D01*
X58078Y-44800D02*
X58000Y-44878D01*
X58193Y-40000D02*
X58271Y-40078D01*
X58271Y-40000D02*
X58193Y-40078D01*
X58213Y-40752D02*
X58291Y-40830D01*
X58291Y-40752D02*
X58213Y-40830D01*
X58406Y-40213D02*
X58484Y-40291D01*
X58484Y-40213D02*
X58406Y-40291D01*
X58461Y-44642D02*
X58539Y-44720D01*
X58539Y-44642D02*
X58461Y-44720D01*
X58571Y-34307D02*
X58649Y-34385D01*
X58649Y-34307D02*
X58571Y-34385D01*
X58587Y-34674D02*
X58665Y-34752D01*
X58665Y-34674D02*
X58587Y-34752D01*
X59000Y-34485D02*
X59078Y-34563D01*
X59078Y-34485D02*
X59000Y-34563D01*
X59008Y-45701D02*
X59086Y-45779D01*
X59086Y-45701D02*
X59008Y-45779D01*
X59201Y-40772D02*
X59279Y-40850D01*
X59279Y-40772D02*
X59201Y-40850D01*
X59374Y-38839D02*
X59452Y-38917D01*
X59452Y-38839D02*
X59374Y-38917D01*
X59382Y-34075D02*
X59460Y-34153D01*
X59460Y-34075D02*
X59382Y-34153D01*
X59382Y-37666D02*
X59460Y-37744D01*
X59460Y-37666D02*
X59382Y-37744D01*
X59386Y-35685D02*
X59464Y-35763D01*
X59464Y-35685D02*
X59386Y-35763D01*
X59402Y-34485D02*
X59480Y-34563D01*
X59480Y-34485D02*
X59402Y-34563D01*
X59402Y-34886D02*
X59480Y-34964D01*
X59480Y-34886D02*
X59402Y-34964D01*
X59402Y-37260D02*
X59480Y-37338D01*
X59480Y-37260D02*
X59402Y-37338D01*
X59410Y-36055D02*
X59488Y-36133D01*
X59488Y-36055D02*
X59410Y-36133D01*
X59426Y-36485D02*
X59504Y-36563D01*
X59504Y-36485D02*
X59426Y-36563D01*
X59512Y-40811D02*
X59590Y-40889D01*
X59590Y-40811D02*
X59512Y-40889D01*
X59563Y-44662D02*
X59641Y-44740D01*
X59641Y-44662D02*
X59563Y-44740D01*
X59595Y-33898D02*
X59673Y-33976D01*
X59673Y-33898D02*
X59595Y-33976D01*
X59784Y-36465D02*
X59862Y-36543D01*
X59862Y-36465D02*
X59784Y-36543D01*
X59788Y-35264D02*
X59866Y-35342D01*
X59866Y-35264D02*
X59788Y-35342D01*
X59788Y-39611D02*
X59866Y-39689D01*
X59866Y-39611D02*
X59788Y-39689D01*
X59792Y-37658D02*
X59870Y-37736D01*
X59870Y-37658D02*
X59792Y-37736D01*
X59867Y-33666D02*
X59945Y-33744D01*
X59945Y-33666D02*
X59867Y-33744D01*
X59981Y-45725D02*
X60059Y-45803D01*
X60059Y-45725D02*
X59981Y-45803D01*
X59989Y-40831D02*
X60067Y-40909D01*
X60067Y-40831D02*
X59989Y-40909D01*
X60040Y-33449D02*
X60118Y-33527D01*
X60118Y-33449D02*
X60040Y-33527D01*
X60150Y-35268D02*
X60228Y-35346D01*
X60228Y-35268D02*
X60150Y-35346D01*
X60185Y-34886D02*
X60263Y-34964D01*
X60263Y-34886D02*
X60185Y-34964D01*
X60185Y-40914D02*
X60263Y-40992D01*
X60263Y-40914D02*
X60185Y-40992D01*
X60189Y-39217D02*
X60267Y-39295D01*
X60267Y-39217D02*
X60189Y-39295D01*
X60374Y-40859D02*
X60452Y-40937D01*
X60452Y-40859D02*
X60374Y-40937D01*
X60378Y-33638D02*
X60456Y-33716D01*
X60456Y-33638D02*
X60378Y-33716D01*
X60559Y-37654D02*
X60637Y-37732D01*
X60637Y-37654D02*
X60559Y-37732D01*
X60571Y-36863D02*
X60649Y-36941D01*
X60649Y-36863D02*
X60571Y-36941D01*
X60571Y-38819D02*
X60649Y-38897D01*
X60649Y-38819D02*
X60571Y-38897D01*
X60575Y-34918D02*
X60653Y-34996D01*
X60653Y-34918D02*
X60575Y-34996D01*
X60583Y-40807D02*
X60661Y-40885D01*
X60661Y-40807D02*
X60583Y-40885D01*
X60591Y-33485D02*
X60669Y-33563D01*
X60669Y-33485D02*
X60591Y-33563D01*
X60756Y-27433D02*
X60834Y-27511D01*
X60834Y-27433D02*
X60756Y-27511D01*
X60764Y-29256D02*
X60842Y-29334D01*
X60842Y-29256D02*
X60764Y-29334D01*
X60776Y-33618D02*
X60854Y-33696D01*
X60854Y-33618D02*
X60776Y-33696D01*
X60788Y-44717D02*
X60866Y-44795D01*
X60866Y-44717D02*
X60788Y-44795D01*
X60882Y-26689D02*
X60960Y-26767D01*
X60960Y-26689D02*
X60882Y-26767D01*
X60902Y-28780D02*
X60980Y-28858D01*
X60980Y-28780D02*
X60902Y-28858D01*
X60902Y-40839D02*
X60980Y-40917D01*
X60980Y-40839D02*
X60902Y-40917D01*
X60973Y-37634D02*
X61051Y-37712D01*
X61051Y-37634D02*
X60973Y-37712D01*
X60977Y-36465D02*
X61055Y-36543D01*
X61055Y-36465D02*
X60977Y-36543D01*
X60981Y-33469D02*
X61059Y-33547D01*
X61059Y-33469D02*
X60981Y-33547D01*
X61020Y-45720D02*
X61098Y-45798D01*
X61098Y-45720D02*
X61020Y-45798D01*
X61170Y-33575D02*
X61248Y-33653D01*
X61248Y-33575D02*
X61170Y-33653D01*
X61193Y-40823D02*
X61271Y-40901D01*
X61271Y-40823D02*
X61193Y-40901D01*
X61256Y-44705D02*
X61334Y-44783D01*
X61334Y-44705D02*
X61256Y-44783D01*
X61323Y-35654D02*
X61401Y-35732D01*
X61401Y-35654D02*
X61323Y-35732D01*
X61343Y-38839D02*
X61421Y-38917D01*
X61421Y-38839D02*
X61343Y-38917D01*
X61355Y-39634D02*
X61433Y-39712D01*
X61433Y-39634D02*
X61355Y-39712D01*
X61367Y-34874D02*
X61445Y-34952D01*
X61445Y-34874D02*
X61367Y-34952D01*
X61370Y-33430D02*
X61448Y-33508D01*
X61448Y-33430D02*
X61370Y-33508D01*
X61374Y-36851D02*
X61452Y-36929D01*
X61452Y-36851D02*
X61374Y-36929D01*
X61374Y-37244D02*
X61452Y-37322D01*
X61452Y-37244D02*
X61374Y-37322D01*
X61374Y-37654D02*
X61452Y-37732D01*
X61452Y-37654D02*
X61374Y-37732D01*
X61465Y-41981D02*
X61543Y-42059D01*
X61543Y-41981D02*
X61465Y-42059D01*
X61520Y-40851D02*
X61598Y-40929D01*
X61598Y-40851D02*
X61520Y-40929D01*
X61532Y-28780D02*
X61610Y-28858D01*
X61610Y-28780D02*
X61532Y-28858D01*
X61536Y-29426D02*
X61614Y-29504D01*
X61614Y-29426D02*
X61536Y-29504D01*
X61548Y-33422D02*
X61626Y-33500D01*
X61626Y-33422D02*
X61548Y-33500D01*
X61697Y-29741D02*
X61775Y-29819D01*
X61775Y-29741D02*
X61697Y-29819D01*
X61756Y-38433D02*
X61834Y-38511D01*
X61834Y-38433D02*
X61756Y-38511D01*
X61760Y-36067D02*
X61838Y-36145D01*
X61838Y-36067D02*
X61760Y-36145D01*
X61764Y-37654D02*
X61842Y-37732D01*
X61842Y-37654D02*
X61764Y-37732D01*
X61768Y-36867D02*
X61846Y-36945D01*
X61846Y-36867D02*
X61768Y-36945D01*
X61768Y-37241D02*
X61846Y-37319D01*
X61846Y-37241D02*
X61768Y-37319D01*
X61768Y-38048D02*
X61846Y-38126D01*
X61846Y-38048D02*
X61768Y-38126D01*
X61788Y-40851D02*
X61866Y-40929D01*
X61866Y-40851D02*
X61788Y-40929D01*
X61906Y-27485D02*
X61984Y-27563D01*
X61984Y-27485D02*
X61906Y-27563D01*
X62012Y-45717D02*
X62090Y-45795D01*
X62090Y-45717D02*
X62012Y-45795D01*
X62063Y-40831D02*
X62141Y-40909D01*
X62141Y-40831D02*
X62063Y-40909D01*
X62122Y-39634D02*
X62200Y-39712D01*
X62200Y-39634D02*
X62122Y-39712D01*
X62126Y-36489D02*
X62204Y-36567D01*
X62204Y-36489D02*
X62126Y-36567D01*
X62134Y-34863D02*
X62212Y-34941D01*
X62212Y-34863D02*
X62134Y-34941D01*
X62138Y-37280D02*
X62216Y-37358D01*
X62216Y-37280D02*
X62138Y-37358D01*
X62146Y-38819D02*
X62224Y-38897D01*
X62224Y-38819D02*
X62146Y-38897D01*
X62158Y-36851D02*
X62236Y-36929D01*
X62236Y-36851D02*
X62158Y-36929D01*
X62166Y-37658D02*
X62244Y-37736D01*
X62244Y-37658D02*
X62166Y-37736D01*
X62355Y-40827D02*
X62433Y-40905D01*
X62433Y-40827D02*
X62355Y-40905D01*
X62402Y-44756D02*
X62480Y-44834D01*
X62480Y-44756D02*
X62402Y-44834D01*
X62516Y-28378D02*
X62594Y-28456D01*
X62594Y-28378D02*
X62516Y-28456D01*
X62520Y-35678D02*
X62598Y-35756D01*
X62598Y-35678D02*
X62520Y-35756D01*
X62532Y-38020D02*
X62610Y-38098D01*
X62610Y-38020D02*
X62532Y-38098D01*
X62536Y-39209D02*
X62614Y-39287D01*
X62614Y-39209D02*
X62536Y-39287D01*
X62552Y-38426D02*
X62630Y-38504D01*
X62630Y-38426D02*
X62552Y-38504D01*
X62630Y-40827D02*
X62708Y-40905D01*
X62708Y-40827D02*
X62630Y-40905D01*
X62705Y-27508D02*
X62783Y-27586D01*
X62783Y-27508D02*
X62705Y-27586D01*
X62890Y-45741D02*
X62968Y-45819D01*
X62968Y-45741D02*
X62890Y-45819D01*
X62902Y-26414D02*
X62980Y-26492D01*
X62980Y-26414D02*
X62902Y-26492D01*
X62906Y-27536D02*
X62984Y-27614D01*
X62984Y-27536D02*
X62906Y-27614D01*
X62926Y-36851D02*
X63004Y-36929D01*
X63004Y-36851D02*
X62926Y-36929D01*
X62926Y-39626D02*
X63004Y-39704D01*
X63004Y-39626D02*
X62926Y-39704D01*
X62930Y-34496D02*
X63008Y-34574D01*
X63008Y-34496D02*
X62930Y-34574D01*
X62933Y-40815D02*
X63011Y-40893D01*
X63011Y-40815D02*
X62933Y-40893D01*
X62937Y-35674D02*
X63015Y-35752D01*
X63015Y-35674D02*
X62937Y-35752D01*
X63225Y-40847D02*
X63303Y-40925D01*
X63303Y-40847D02*
X63225Y-40925D01*
X63244Y-44555D02*
X63322Y-44633D01*
X63322Y-44555D02*
X63244Y-44633D01*
X63331Y-35674D02*
X63409Y-35752D01*
X63409Y-35674D02*
X63331Y-35752D01*
X63331Y-37642D02*
X63409Y-37720D01*
X63409Y-37642D02*
X63331Y-37720D01*
X63331Y-38823D02*
X63409Y-38901D01*
X63409Y-38823D02*
X63331Y-38901D01*
X63339Y-36843D02*
X63417Y-36921D01*
X63417Y-36843D02*
X63339Y-36921D01*
X63339Y-38032D02*
X63417Y-38110D01*
X63417Y-38032D02*
X63339Y-38110D01*
X63339Y-39221D02*
X63417Y-39299D01*
X63417Y-39221D02*
X63339Y-39299D01*
X63343Y-39611D02*
X63421Y-39689D01*
X63421Y-39611D02*
X63343Y-39689D01*
X63421Y-40803D02*
X63499Y-40881D01*
X63499Y-40803D02*
X63421Y-40881D01*
X63690Y-35319D02*
X63768Y-35397D01*
X63768Y-35319D02*
X63690Y-35397D01*
X63693Y-40823D02*
X63771Y-40901D01*
X63771Y-40823D02*
X63693Y-40901D01*
X63717Y-27508D02*
X63795Y-27586D01*
X63795Y-27508D02*
X63717Y-27586D01*
X63717Y-29741D02*
X63795Y-29819D01*
X63795Y-29741D02*
X63717Y-29819D01*
X63737Y-34492D02*
X63815Y-34570D01*
X63815Y-34492D02*
X63737Y-34570D01*
X63737Y-36477D02*
X63815Y-36555D01*
X63815Y-36477D02*
X63737Y-36555D01*
X63737Y-39233D02*
X63815Y-39311D01*
X63815Y-39233D02*
X63737Y-39311D01*
X63890Y-26681D02*
X63968Y-26759D01*
X63968Y-26681D02*
X63890Y-26759D01*
X63902Y-45685D02*
X63980Y-45763D01*
X63980Y-45685D02*
X63902Y-45763D01*
X63961Y-40823D02*
X64039Y-40901D01*
X64039Y-40823D02*
X63961Y-40901D01*
X64095Y-36489D02*
X64173Y-36567D01*
X64173Y-36489D02*
X64095Y-36567D01*
X64111Y-39599D02*
X64189Y-39677D01*
X64189Y-39599D02*
X64111Y-39677D01*
X64126Y-36079D02*
X64204Y-36157D01*
X64204Y-36079D02*
X64126Y-36157D01*
X64126Y-36851D02*
X64204Y-36929D01*
X64204Y-36851D02*
X64126Y-36929D01*
X64130Y-37630D02*
X64208Y-37708D01*
X64208Y-37630D02*
X64130Y-37708D01*
X64130Y-38819D02*
X64208Y-38897D01*
X64208Y-38819D02*
X64130Y-38897D01*
X64134Y-35296D02*
X64212Y-35374D01*
X64212Y-35296D02*
X64134Y-35374D01*
X64197Y-40831D02*
X64275Y-40909D01*
X64275Y-40831D02*
X64197Y-40909D01*
X64327Y-44563D02*
X64405Y-44641D01*
X64405Y-44563D02*
X64327Y-44641D01*
X64403Y-36082D02*
X64481Y-36160D01*
X64481Y-36082D02*
X64403Y-36160D01*
X64492Y-40784D02*
X64570Y-40862D01*
X64570Y-40784D02*
X64492Y-40862D01*
X64512Y-39221D02*
X64590Y-39299D01*
X64590Y-39221D02*
X64512Y-39299D01*
X64532Y-37229D02*
X64610Y-37307D01*
X64610Y-37229D02*
X64532Y-37307D01*
X64532Y-38437D02*
X64610Y-38515D01*
X64610Y-38437D02*
X64532Y-38515D01*
X64559Y-34500D02*
X64637Y-34578D01*
X64637Y-34500D02*
X64559Y-34578D01*
X64890Y-40776D02*
X64968Y-40854D01*
X64968Y-40776D02*
X64890Y-40854D01*
X64914Y-45642D02*
X64992Y-45720D01*
X64992Y-45642D02*
X64914Y-45720D01*
X64941Y-30237D02*
X65019Y-30315D01*
X65019Y-30237D02*
X64941Y-30315D01*
X64957Y-34894D02*
X65035Y-34972D01*
X65035Y-34894D02*
X64957Y-34972D01*
X64969Y-40453D02*
X65047Y-40531D01*
X65047Y-40453D02*
X64969Y-40531D01*
X65032Y-35678D02*
X65110Y-35756D01*
X65110Y-35678D02*
X65032Y-35756D01*
X65040Y-38382D02*
X65118Y-38460D01*
X65118Y-38382D02*
X65040Y-38460D01*
X65122Y-37055D02*
X65200Y-37133D01*
X65200Y-37055D02*
X65122Y-37133D01*
X65130Y-29213D02*
X65208Y-29291D01*
X65208Y-29213D02*
X65130Y-29291D01*
X65181Y-40272D02*
X65259Y-40350D01*
X65259Y-40272D02*
X65181Y-40350D01*
X65300Y-33618D02*
X65378Y-33696D01*
X65378Y-33618D02*
X65300Y-33696D01*
X65370Y-37402D02*
X65448Y-37480D01*
X65448Y-37402D02*
X65370Y-37480D01*
X65410Y-44618D02*
X65488Y-44696D01*
X65488Y-44618D02*
X65410Y-44696D01*
X65642Y-30552D02*
X65720Y-30630D01*
X65720Y-30552D02*
X65642Y-30630D01*
X65642Y-32737D02*
X65720Y-32815D01*
X65720Y-32737D02*
X65642Y-32815D01*
X65756Y-32288D02*
X65834Y-32366D01*
X65834Y-32288D02*
X65756Y-32366D01*
X65815Y-30823D02*
X65893Y-30901D01*
X65893Y-30823D02*
X65815Y-30901D01*
X65863Y-27473D02*
X65941Y-27551D01*
X65941Y-27473D02*
X65863Y-27551D01*
X65922Y-45658D02*
X66000Y-45736D01*
X66000Y-45658D02*
X65922Y-45736D01*
X65985Y-35108D02*
X66063Y-35186D01*
X66063Y-35108D02*
X65985Y-35186D01*
X66229Y-34772D02*
X66307Y-34850D01*
X66307Y-34772D02*
X66229Y-34850D01*
X66264Y-40359D02*
X66342Y-40437D01*
X66342Y-40359D02*
X66264Y-40437D01*
X66378Y-30048D02*
X66456Y-30126D01*
X66456Y-30048D02*
X66378Y-30126D01*
X66378Y-31052D02*
X66456Y-31130D01*
X66456Y-31052D02*
X66378Y-31130D01*
X66406Y-44693D02*
X66484Y-44771D01*
X66484Y-44693D02*
X66406Y-44771D01*
X66477Y-34819D02*
X66555Y-34897D01*
X66555Y-34819D02*
X66477Y-34897D01*
X66516Y-31772D02*
X66594Y-31850D01*
X66594Y-31772D02*
X66516Y-31850D01*
X66540Y-30449D02*
X66618Y-30527D01*
X66618Y-30449D02*
X66540Y-30527D01*
X66772Y-34205D02*
X66850Y-34283D01*
X66850Y-34205D02*
X66772Y-34283D01*
X66949Y-45693D02*
X67027Y-45771D01*
X67027Y-45693D02*
X66949Y-45771D01*
X67351Y-33638D02*
X67429Y-33716D01*
X67429Y-33638D02*
X67351Y-33716D01*
X67410Y-44666D02*
X67488Y-44744D01*
X67488Y-44666D02*
X67410Y-44744D01*
X67559Y-36780D02*
X67637Y-36858D01*
X67637Y-36780D02*
X67559Y-36858D01*
X67662Y-28989D02*
X67740Y-29067D01*
X67740Y-28989D02*
X67662Y-29067D01*
X67748Y-31055D02*
X67826Y-31133D01*
X67826Y-31055D02*
X67748Y-31133D01*
X67807Y-30819D02*
X67885Y-30897D01*
X67885Y-30819D02*
X67807Y-30897D01*
X67933Y-45666D02*
X68011Y-45744D01*
X68011Y-45666D02*
X67933Y-45744D01*
X68311Y-44622D02*
X68389Y-44700D01*
X68389Y-44622D02*
X68311Y-44700D01*
X68575Y-41839D02*
X68653Y-41917D01*
X68653Y-41839D02*
X68575Y-41917D01*
X68709Y-43099D02*
X68787Y-43177D01*
X68787Y-43099D02*
X68709Y-43177D01*
X68843Y-41622D02*
X68921Y-41700D01*
X68921Y-41622D02*
X68843Y-41700D01*
X68926Y-45540D02*
X69004Y-45618D01*
X69004Y-45540D02*
X68926Y-45618D01*
X69394Y-29741D02*
X69472Y-29819D01*
X69472Y-29741D02*
X69394Y-29819D01*
X69402Y-44705D02*
X69480Y-44783D01*
X69480Y-44705D02*
X69402Y-44783D01*
X72847Y-43922D02*
X72925Y-44000D01*
X72925Y-43922D02*
X72847Y-44000D01*
X72886Y-42835D02*
X72964Y-42913D01*
X72964Y-42835D02*
X72886Y-42913D01*
X72914Y-41744D02*
X72992Y-41822D01*
X72992Y-41744D02*
X72914Y-41822D01*
G54D12*
X44336Y-48402D02*
X44336Y-47602D01*
X44527Y-47602D01*
X44641Y-47640D01*
X44717Y-47716D01*
X44756Y-47792D01*
X44794Y-47945D01*
X44794Y-48059D01*
X44756Y-48211D01*
X44717Y-48288D01*
X44641Y-48364D01*
X44527Y-48402D01*
X44336Y-48402D01*
X45136Y-48402D02*
X45136Y-47868D01*
X45136Y-48021D02*
X45175Y-47945D01*
X45213Y-47907D01*
X45289Y-47868D01*
X45365Y-47868D01*
X45631Y-48402D02*
X45631Y-47868D01*
X45631Y-47602D02*
X45593Y-47640D01*
X45631Y-47678D01*
X45670Y-47640D01*
X45631Y-47602D01*
X45631Y-47678D01*
X46127Y-48402D02*
X46051Y-48364D01*
X46012Y-48288D01*
X46012Y-47602D01*
X46546Y-48402D02*
X46470Y-48364D01*
X46431Y-48288D01*
X46431Y-47602D01*
X47460Y-48402D02*
X47460Y-47602D01*
X47727Y-48173D01*
X47994Y-47602D01*
X47994Y-48402D01*
X48717Y-48402D02*
X48717Y-47983D01*
X48679Y-47907D01*
X48603Y-47868D01*
X48451Y-47868D01*
X48374Y-47907D01*
X48717Y-48364D02*
X48641Y-48402D01*
X48451Y-48402D01*
X48374Y-48364D01*
X48336Y-48288D01*
X48336Y-48211D01*
X48374Y-48135D01*
X48451Y-48097D01*
X48641Y-48097D01*
X48717Y-48059D01*
X49098Y-47868D02*
X49098Y-48668D01*
X49098Y-47907D02*
X49175Y-47868D01*
X49327Y-47868D01*
X49403Y-47907D01*
X49441Y-47945D01*
X49479Y-48021D01*
X49479Y-48249D01*
X49441Y-48326D01*
X49403Y-48364D01*
X49327Y-48402D01*
X49175Y-48402D01*
X49098Y-48364D01*
X49822Y-48326D02*
X49861Y-48364D01*
X49822Y-48402D01*
X49784Y-48364D01*
X49822Y-48326D01*
X49822Y-48402D01*
X49822Y-47907D02*
X49861Y-47945D01*
X49822Y-47983D01*
X49784Y-47945D01*
X49822Y-47907D01*
X49822Y-47983D01*
X43867Y-49719D02*
X43945Y-49797D01*
X43945Y-49719D02*
X43867Y-49797D01*
X44489Y-49282D02*
X44565Y-49282D01*
X44641Y-49320D01*
X44679Y-49358D01*
X44717Y-49434D01*
X44756Y-49587D01*
X44756Y-49777D01*
X44717Y-49929D01*
X44679Y-50006D01*
X44641Y-50044D01*
X44565Y-50082D01*
X44489Y-50082D01*
X44413Y-50044D01*
X44375Y-50006D01*
X44336Y-49929D01*
X44298Y-49777D01*
X44298Y-49587D01*
X44336Y-49434D01*
X44375Y-49358D01*
X44413Y-49320D01*
X44489Y-49282D01*
X45098Y-50006D02*
X45137Y-50044D01*
X45098Y-50082D01*
X45060Y-50044D01*
X45098Y-50006D01*
X45098Y-50082D01*
X45632Y-49282D02*
X45708Y-49282D01*
X45784Y-49320D01*
X45822Y-49358D01*
X45860Y-49434D01*
X45899Y-49587D01*
X45899Y-49777D01*
X45860Y-49929D01*
X45822Y-50006D01*
X45784Y-50044D01*
X45708Y-50082D01*
X45632Y-50082D01*
X45556Y-50044D01*
X45518Y-50006D01*
X45479Y-49929D01*
X45441Y-49777D01*
X45441Y-49587D01*
X45479Y-49434D01*
X45518Y-49358D01*
X45556Y-49320D01*
X45632Y-49282D01*
X46394Y-49282D02*
X46470Y-49282D01*
X46546Y-49320D01*
X46584Y-49358D01*
X46622Y-49434D01*
X46661Y-49587D01*
X46661Y-49777D01*
X46622Y-49929D01*
X46584Y-50006D01*
X46546Y-50044D01*
X46470Y-50082D01*
X46394Y-50082D01*
X46318Y-50044D01*
X46280Y-50006D01*
X46241Y-49929D01*
X46203Y-49777D01*
X46203Y-49587D01*
X46241Y-49434D01*
X46280Y-49358D01*
X46318Y-49320D01*
X46394Y-49282D01*
X47118Y-49625D02*
X47042Y-49587D01*
X47003Y-49548D01*
X46965Y-49472D01*
X46965Y-49434D01*
X47003Y-49358D01*
X47042Y-49320D01*
X47118Y-49282D01*
X47270Y-49282D01*
X47346Y-49320D01*
X47384Y-49358D01*
X47423Y-49434D01*
X47423Y-49472D01*
X47384Y-49548D01*
X47346Y-49587D01*
X47270Y-49625D01*
X47118Y-49625D01*
X47042Y-49663D01*
X47003Y-49701D01*
X46965Y-49777D01*
X46965Y-49929D01*
X47003Y-50006D01*
X47042Y-50044D01*
X47118Y-50082D01*
X47270Y-50082D01*
X47346Y-50044D01*
X47384Y-50006D01*
X47423Y-49929D01*
X47423Y-49777D01*
X47384Y-49701D01*
X47346Y-49663D01*
X47270Y-49625D01*
X47727Y-49282D02*
X47727Y-49434D01*
X48032Y-49282D02*
X48032Y-49434D01*
X49557Y-49244D02*
X48871Y-50272D01*
X50586Y-49282D02*
X50662Y-49282D01*
X50738Y-49320D01*
X50776Y-49358D01*
X50814Y-49434D01*
X50853Y-49587D01*
X50853Y-49777D01*
X50814Y-49929D01*
X50776Y-50006D01*
X50738Y-50044D01*
X50662Y-50082D01*
X50586Y-50082D01*
X50510Y-50044D01*
X50472Y-50006D01*
X50433Y-49929D01*
X50395Y-49777D01*
X50395Y-49587D01*
X50433Y-49434D01*
X50472Y-49358D01*
X50510Y-49320D01*
X50586Y-49282D01*
X51195Y-50006D02*
X51234Y-50044D01*
X51195Y-50082D01*
X51157Y-50044D01*
X51195Y-50006D01*
X51195Y-50082D01*
X51538Y-49358D02*
X51576Y-49320D01*
X51653Y-49282D01*
X51843Y-49282D01*
X51919Y-49320D01*
X51957Y-49358D01*
X51996Y-49434D01*
X51996Y-49510D01*
X51957Y-49625D01*
X51500Y-50082D01*
X51996Y-50082D01*
X52491Y-49282D02*
X52567Y-49282D01*
X52643Y-49320D01*
X52681Y-49358D01*
X52719Y-49434D01*
X52758Y-49587D01*
X52758Y-49777D01*
X52719Y-49929D01*
X52681Y-50006D01*
X52643Y-50044D01*
X52567Y-50082D01*
X52491Y-50082D01*
X52415Y-50044D01*
X52377Y-50006D01*
X52338Y-49929D01*
X52300Y-49777D01*
X52300Y-49587D01*
X52338Y-49434D01*
X52377Y-49358D01*
X52415Y-49320D01*
X52491Y-49282D01*
X53100Y-50082D02*
X53100Y-49548D01*
X53100Y-49625D02*
X53139Y-49587D01*
X53215Y-49548D01*
X53329Y-49548D01*
X53405Y-49587D01*
X53443Y-49663D01*
X53443Y-50082D01*
X53443Y-49663D02*
X53481Y-49587D01*
X53558Y-49548D01*
X53672Y-49548D01*
X53748Y-49587D01*
X53786Y-49663D01*
X53786Y-50082D01*
X54167Y-50082D02*
X54167Y-49548D01*
X54167Y-49625D02*
X54206Y-49587D01*
X54282Y-49548D01*
X54396Y-49548D01*
X54472Y-49587D01*
X54510Y-49663D01*
X54510Y-50082D01*
X54510Y-49663D02*
X54548Y-49587D01*
X54625Y-49548D01*
X54739Y-49548D01*
X54815Y-49587D01*
X54853Y-49663D01*
X54853Y-50082D01*
X56073Y-50387D02*
X56035Y-50348D01*
X55959Y-50234D01*
X55921Y-50158D01*
X55883Y-50044D01*
X55844Y-49853D01*
X55844Y-49701D01*
X55883Y-49510D01*
X55921Y-49396D01*
X55959Y-49320D01*
X56035Y-49206D01*
X56073Y-49168D01*
X56339Y-49358D02*
X56377Y-49320D01*
X56454Y-49282D01*
X56644Y-49282D01*
X56720Y-49320D01*
X56758Y-49358D01*
X56797Y-49434D01*
X56797Y-49510D01*
X56758Y-49625D01*
X56301Y-50082D01*
X56797Y-50082D01*
X57292Y-49282D02*
X57368Y-49282D01*
X57444Y-49320D01*
X57482Y-49358D01*
X57520Y-49434D01*
X57559Y-49587D01*
X57559Y-49777D01*
X57520Y-49929D01*
X57482Y-50006D01*
X57444Y-50044D01*
X57368Y-50082D01*
X57292Y-50082D01*
X57216Y-50044D01*
X57178Y-50006D01*
X57139Y-49929D01*
X57101Y-49777D01*
X57101Y-49587D01*
X57139Y-49434D01*
X57178Y-49358D01*
X57216Y-49320D01*
X57292Y-49282D01*
X57940Y-50082D02*
X58092Y-50082D01*
X58168Y-50044D01*
X58206Y-50006D01*
X58282Y-49891D01*
X58321Y-49739D01*
X58321Y-49434D01*
X58282Y-49358D01*
X58244Y-49320D01*
X58168Y-49282D01*
X58016Y-49282D01*
X57940Y-49320D01*
X57901Y-49358D01*
X57863Y-49434D01*
X57863Y-49625D01*
X57901Y-49701D01*
X57940Y-49739D01*
X58016Y-49777D01*
X58168Y-49777D01*
X58244Y-49739D01*
X58282Y-49701D01*
X58321Y-49625D01*
X59273Y-50082D02*
X59273Y-49282D01*
X59616Y-50082D02*
X59616Y-49663D01*
X59578Y-49587D01*
X59502Y-49548D01*
X59388Y-49548D01*
X59312Y-49587D01*
X59273Y-49625D01*
X60112Y-50082D02*
X60036Y-50044D01*
X59997Y-50006D01*
X59959Y-49929D01*
X59959Y-49701D01*
X59997Y-49625D01*
X60036Y-49587D01*
X60112Y-49548D01*
X60226Y-49548D01*
X60302Y-49587D01*
X60340Y-49625D01*
X60378Y-49701D01*
X60378Y-49929D01*
X60340Y-50006D01*
X60302Y-50044D01*
X60226Y-50082D01*
X60112Y-50082D01*
X60836Y-50082D02*
X60760Y-50044D01*
X60721Y-49968D01*
X60721Y-49282D01*
X61445Y-50044D02*
X61369Y-50082D01*
X61217Y-50082D01*
X61140Y-50044D01*
X61102Y-49968D01*
X61102Y-49663D01*
X61140Y-49587D01*
X61217Y-49548D01*
X61369Y-49548D01*
X61445Y-49587D01*
X61483Y-49663D01*
X61483Y-49739D01*
X61102Y-49815D01*
X61788Y-50044D02*
X61865Y-50082D01*
X62017Y-50082D01*
X62093Y-50044D01*
X62131Y-49968D01*
X62131Y-49929D01*
X62093Y-49853D01*
X62017Y-49815D01*
X61903Y-49815D01*
X61826Y-49777D01*
X61788Y-49701D01*
X61788Y-49663D01*
X61826Y-49587D01*
X61903Y-49548D01*
X62017Y-49548D01*
X62093Y-49587D01*
X62398Y-50387D02*
X62436Y-50348D01*
X62513Y-50234D01*
X62551Y-50158D01*
X62589Y-50044D01*
X62627Y-49853D01*
X62627Y-49701D01*
X62589Y-49510D01*
X62551Y-49396D01*
X62513Y-49320D01*
X62436Y-49206D01*
X62398Y-49168D01*
M02*
