M48
;DRILL file {Pcbnew (2012-jan-04)-stable} date Sat Sep 15 15:47:06 2012
;FORMAT={-:-/ absolute / inch / decimal}
FMAT,2
INCH,TZ
T1C0.008
%
G90
G05
M72
T1
X4.959Y2.999
X5.044Y2.999
X5.487Y2.897
X5.620Y4.329
X5.623Y4.185
X5.627Y4.441
X5.845Y4.025
X5.861Y3.435
X5.863Y3.471
X5.889Y3.926
X5.905Y3.765
X5.929Y3.691
X5.938Y3.630
X5.941Y3.888
X5.942Y3.771
X5.942Y3.572
X5.944Y3.730
X5.945Y3.609
X5.947Y3.652
X5.982Y3.650
X5.983Y3.770
X6.019Y3.531
X6.022Y3.493
X6.023Y3.926
X6.061Y3.690
X6.101Y3.767
X6.133Y3.404
X6.136Y3.569
X6.139Y3.967
X6.141Y3.491
X6.141Y3.689
X6.141Y3.728
X6.141Y3.769
X6.150Y4.202
X6.174Y2.978
X6.180Y3.611
X6.180Y3.769
X6.181Y3.691
X6.181Y3.728
X6.181Y3.809
X6.209Y3.402
X6.217Y3.490
X6.218Y3.732
X6.219Y3.886
X6.220Y3.689
X6.221Y3.770
X6.256Y2.842
X6.256Y3.572
X6.257Y3.806
X6.274Y2.755
X6.294Y2.645
X6.296Y3.967
X6.297Y3.454
X6.298Y3.571
X6.337Y3.571
X6.337Y3.768
X6.373Y3.536
X6.376Y2.755
X6.378Y3.453
X6.415Y3.964
X6.417Y3.689
X6.417Y3.534
X6.457Y3.848
X6.460Y3.454
X6.500Y3.493
X6.501Y4.049
X6.507Y3.572
X6.534Y3.366
X6.541Y3.744
X6.580Y3.233
X6.602Y3.515
X6.655Y3.181
X6.770Y2.903
X6.943Y2.978
X7.289Y4.396
X7.293Y4.287
X7.295Y4.178
T0
M30
