M48
;DRILL file {Pcbnew (2012-jan-04)-stable} date Sat Nov 10 16:52:12 2012
;FORMAT={-:-/ absolute / metric / decimal}
FMAT,2
METRIC,TZ
T1C0.030
T2C0.800
T3C0.810
T4C3.175
%
G90
G05
M71
T1
X138.171Y108.869
X139.179Y112.931
X139.179Y113.370
X140.010Y112.941
X140.040Y113.350
X140.711Y105.700
X140.881Y112.911
X140.881Y113.320
X141.430Y111.661
X141.780Y105.199
X142.039Y108.679
X142.301Y110.759
X143.411Y112.291
X143.701Y107.820
X143.850Y112.131
X143.929Y85.519
X144.211Y108.001
X144.600Y76.101
X145.420Y77.719
X146.190Y102.179
X146.200Y77.691
X146.329Y93.210
X147.000Y77.719
X147.800Y77.701
X147.930Y98.839
X147.960Y92.189
X148.049Y91.580
X148.049Y97.841
X148.351Y102.781
X148.430Y101.229
X148.430Y102.210
X148.491Y100.429
X148.600Y77.719
X148.999Y87.201
X149.400Y77.770
X149.979Y90.211
X149.979Y92.179
X150.000Y94.399
X150.000Y99.431
X150.050Y96.540
X150.200Y77.821
X150.990Y77.790
X151.811Y77.790
X151.821Y97.861
X151.841Y105.120
X151.859Y91.570
X151.940Y95.730
X151.971Y99.629
X151.981Y91.059
X151.991Y93.779
X152.029Y96.500
X152.029Y100.810
X152.039Y94.661
X152.100Y98.539
X152.210Y87.760
X152.601Y77.841
X152.900Y96.779
X152.979Y94.671
X152.989Y90.119
X152.989Y90.500
X152.999Y95.669
X153.050Y90.830
X153.060Y97.620
X153.071Y92.799
X153.091Y91.821
X153.401Y77.841
X153.929Y96.751
X153.939Y90.739
X153.949Y92.680
X153.949Y98.669
X153.980Y95.689
X154.000Y89.731
X154.021Y93.749
X154.851Y77.909
X154.960Y90.729
X154.981Y92.690
X155.001Y76.121
X155.001Y100.711
X155.039Y89.771
X155.171Y85.349
X155.400Y84.859
X155.781Y87.610
X155.862Y93.820
X155.931Y94.750
X155.951Y99.670
X155.979Y88.979
X155.989Y90.739
X156.009Y89.779
X156.020Y80.810
X156.030Y97.671
X156.086Y95.595
X156.096Y93.586
X156.510Y81.079
X156.601Y76.639
X156.850Y85.461
X156.901Y88.930
X156.949Y99.710
X156.969Y94.709
X156.972Y96.711
X157.000Y89.789
X157.020Y100.769
X157.061Y98.699
X157.109Y88.590
X157.419Y79.459
X157.719Y74.280
X157.800Y84.851
X157.836Y95.844
X157.871Y93.810
X157.940Y89.720
X157.980Y91.699
X158.031Y88.770
X158.039Y87.879
X158.110Y93.571
X158.125Y95.555
X158.829Y84.160
X158.930Y93.749
X158.951Y78.049
X158.989Y85.301
X158.989Y87.739
X159.019Y80.170
X159.159Y71.150
X159.291Y76.020
X159.451Y84.491
X159.890Y101.031
X159.921Y89.819
X159.979Y94.719
X160.000Y78.141
X160.840Y80.279
X160.881Y89.779
X160.950Y97.701
X160.960Y94.760
X160.960Y95.679
X161.051Y93.660
X161.100Y85.750
X161.549Y71.079
X161.681Y87.691
X161.709Y85.060
X161.900Y90.739
X161.930Y99.731
X161.940Y101.689
X161.950Y96.680
X161.991Y89.690
X162.359Y81.150
X162.509Y80.099
X163.010Y79.959
X163.010Y92.880
X163.149Y85.441
X163.929Y96.751
X163.939Y89.720
X163.939Y95.611
X163.980Y98.709
X164.132Y74.559
X164.140Y82.179
X164.201Y74.031
X164.610Y79.809
X164.960Y96.660
X164.968Y90.581
X164.970Y87.160
X165.021Y99.190
X165.029Y100.681
X165.049Y101.900
X165.059Y95.679
X165.059Y97.640
X165.130Y74.470
X165.141Y94.440
X165.151Y100.160
X165.161Y92.870
X165.171Y93.731
X165.250Y96.180
X165.349Y83.899
X165.410Y85.570
X165.730Y90.381
X165.931Y86.721
X166.111Y89.959
X166.230Y87.821
X166.561Y101.570
X166.571Y110.681
X166.601Y99.911
X166.609Y95.240
X166.619Y74.000
X166.789Y88.240
X166.959Y89.959
X167.340Y85.100
X167.681Y87.810
X168.311Y80.861
X168.321Y99.921
X168.620Y98.389
X168.900Y105.359
X169.220Y107.109
X170.640Y107.109
X170.990Y111.239
X171.000Y105.080
X171.991Y92.151
X172.601Y73.180
X172.621Y72.669
X172.690Y91.879
X172.700Y101.750
X172.710Y92.690
X172.880Y91.260
X173.149Y74.181
X174.371Y106.710
X174.691Y108.080
X175.379Y96.939
X175.440Y94.379
X175.461Y91.780
X176.101Y107.211
X176.108Y106.060
X176.111Y109.002
X176.540Y106.060
X176.550Y107.191
X176.560Y108.999
X176.799Y72.151
X176.881Y73.269
X177.340Y75.550
X180.370Y72.520
X181.290Y74.790
X187.119Y106.609
X187.150Y110.061
T2
X116.459Y86.340
X116.459Y88.880
X116.459Y91.420
X116.459Y93.960
X116.459Y96.500
X116.459Y99.040
X123.055Y66.540
X123.055Y69.080
X123.055Y114.800
X123.055Y117.340
X125.595Y66.540
X125.595Y69.080
X125.595Y114.800
X125.595Y117.340
X128.135Y66.540
X128.135Y69.080
X128.135Y114.800
X128.135Y117.340
X128.549Y76.010
X130.675Y66.540
X130.675Y69.080
X130.675Y114.800
X130.675Y117.340
X131.089Y76.010
X133.215Y66.540
X133.215Y69.080
X133.215Y114.800
X133.215Y117.340
X133.629Y76.010
X135.755Y66.540
X135.755Y69.080
X135.755Y114.800
X135.755Y117.340
X136.169Y76.010
X138.295Y66.540
X138.295Y69.080
X138.295Y114.800
X138.295Y117.340
X138.709Y76.010
X140.835Y66.540
X140.835Y69.080
X140.835Y114.800
X140.835Y117.340
X141.249Y76.010
X143.375Y66.540
X143.375Y69.080
X143.375Y114.800
X143.375Y117.340
X145.915Y66.540
X145.915Y69.080
X145.915Y114.800
X145.915Y117.340
X148.455Y66.540
X148.455Y69.080
X148.455Y114.800
X148.455Y117.340
X150.995Y66.540
X150.995Y69.080
X150.995Y114.800
X150.995Y117.340
X153.535Y66.540
X153.535Y69.080
X153.535Y114.800
X153.535Y117.340
X156.075Y66.540
X156.075Y69.080
X156.075Y114.800
X156.075Y117.340
X158.615Y66.540
X158.615Y69.080
X158.615Y114.800
X158.615Y117.340
X161.155Y66.540
X161.155Y69.080
X161.155Y114.800
X161.155Y117.340
X163.695Y66.540
X163.695Y69.080
X163.695Y114.800
X163.695Y117.340
X166.235Y66.540
X166.235Y69.080
X166.235Y114.800
X166.235Y117.340
X168.775Y66.540
X168.775Y69.080
X168.775Y114.800
X168.775Y117.340
X171.315Y66.540
X171.315Y69.080
X171.315Y114.800
X171.315Y117.340
X173.855Y66.540
X173.855Y69.080
X173.855Y114.800
X173.855Y117.340
X176.395Y66.540
X176.395Y69.080
X176.395Y114.800
X176.395Y117.340
X178.935Y66.540
X178.935Y69.080
X178.935Y114.800
X178.935Y117.340
X181.475Y81.145
X181.475Y83.685
X184.015Y81.145
X184.015Y83.685
X186.555Y81.145
X186.555Y83.685
X189.095Y81.145
X189.095Y83.685
X191.635Y81.145
X191.635Y83.685
T3
X122.070Y81.150
X122.070Y83.690
X122.070Y86.230
X122.070Y88.770
X122.070Y91.310
X122.070Y93.850
X122.070Y96.390
X122.070Y98.930
X122.070Y101.470
X122.070Y104.010
X124.628Y81.150
X124.628Y83.690
X124.628Y86.230
X124.628Y88.770
X124.628Y91.310
X124.628Y93.850
X124.628Y96.390
X124.628Y98.930
X124.628Y101.470
X124.628Y104.010
X131.950Y81.150
X131.950Y83.690
X131.950Y86.230
X131.950Y88.770
X131.950Y91.310
X131.950Y93.850
X131.950Y96.390
X131.950Y98.930
X131.950Y101.470
X131.950Y104.010
X134.508Y81.150
X134.508Y83.690
X134.508Y86.230
X134.508Y88.770
X134.508Y91.310
X134.508Y93.850
X134.508Y96.390
X134.508Y98.930
X134.508Y101.470
X134.508Y104.010
T4
X117.975Y70.985
X117.975Y112.895
X184.015Y67.810
X184.015Y116.070
T0
M30
