M48
;DRILL file {Pcbnew (2012-jan-04)-stable} date Sat Sep 15 15:47:07 2012
;FORMAT={-:-/ absolute / inch / decimal}
FMAT,2
INCH,TZ
T1C0.008
%
G90
G05
M72
T1
X4.959Y2.999
X5.044Y2.999
X5.138Y3.003
X5.195Y3.858
X5.198Y3.935
X5.258Y3.006
X5.471Y2.966
X5.487Y2.897
X5.620Y4.329
X5.623Y4.185
X5.627Y4.441
X5.845Y4.025
X5.861Y3.435
X5.863Y3.471
X5.904Y3.452
X5.941Y3.888
X5.942Y3.771
X5.942Y3.572
X5.944Y3.452
X5.944Y3.730
X5.945Y3.609
X5.947Y3.652
X5.982Y3.650
X5.983Y3.530
X5.983Y3.965
X5.983Y3.770
X6.019Y3.531
X6.022Y3.493
X6.023Y3.926
X6.060Y3.769
X6.061Y3.690
X6.061Y3.886
X6.061Y3.496
X6.080Y2.747
X6.092Y2.673
X6.101Y3.767
X6.102Y3.650
X6.136Y3.569
X6.138Y3.888
X6.139Y3.967
X6.141Y3.491
X6.141Y3.689
X6.141Y3.728
X6.141Y3.769
X6.150Y4.202
X6.174Y2.978
X6.179Y3.847
X6.180Y3.611
X6.180Y3.769
X6.181Y3.691
X6.181Y3.728
X6.181Y3.809
X6.216Y3.967
X6.216Y3.653
X6.217Y3.490
X6.218Y3.732
X6.219Y3.886
X6.220Y3.689
X6.221Y3.770
X6.256Y2.842
X6.256Y3.572
X6.257Y3.806
X6.258Y3.925
X6.259Y3.847
X6.274Y2.755
X6.294Y2.645
X6.296Y3.689
X6.296Y3.967
X6.297Y3.454
X6.298Y3.571
X6.337Y3.571
X6.337Y3.768
X6.338Y3.688
X6.338Y3.807
X6.338Y3.965
X6.373Y3.536
X6.376Y2.755
X6.378Y3.453
X6.378Y3.652
X6.393Y2.672
X6.413Y3.653
X6.415Y3.964
X6.417Y3.689
X6.417Y3.767
X6.417Y3.886
X6.417Y3.534
X6.444Y3.612
X6.455Y3.926
X6.457Y3.848
X6.460Y3.454
X6.498Y3.028
X6.500Y3.493
X6.501Y4.049
X6.507Y3.572
X6.508Y3.842
X6.534Y3.366
X6.541Y3.744
X6.568Y3.059
X6.568Y3.278
X6.580Y3.233
X6.585Y3.086
X6.602Y3.515
X6.627Y3.481
X6.630Y4.040
X6.642Y3.009
X6.652Y3.486
X6.655Y3.181
X6.658Y3.049
X6.681Y3.424
X6.739Y3.368
X6.760Y3.682
X6.770Y2.903
X6.943Y2.978
X7.289Y4.396
X7.293Y4.287
X7.295Y4.178
T0
M30
