G04 (created by PCBNEW (2012-jan-04)-stable) date Sat Nov 10 19:24:44 2012*
G01*
G70*
G90*
%MOIN*%
G04 Gerber Fmt 3.4, Leading zero omitted, Abs format*
%FSLAX34Y34*%
G04 APERTURE LIST*
%ADD10C,0.001000*%
%ADD11C,0.015000*%
%ADD12C,0.008000*%
G04 APERTURE END LIST*
G54D10*
G54D11*
X75449Y-40870D02*
X75429Y-40850D01*
X70118Y-40870D02*
X75449Y-40870D01*
X70118Y-33551D02*
X70118Y-40870D01*
X78189Y-33551D02*
X70118Y-33551D01*
X78189Y-25449D02*
X78189Y-33551D01*
X44118Y-25449D02*
X78189Y-25449D01*
X44118Y-46949D02*
X44118Y-25449D01*
X75469Y-46949D02*
X44118Y-46949D01*
X75469Y-40839D02*
X75469Y-46949D01*
G54D10*
X54392Y-42856D02*
X54404Y-42868D01*
X54404Y-42856D02*
X54392Y-42868D01*
X54789Y-44455D02*
X54801Y-44467D01*
X54801Y-44455D02*
X54789Y-44467D01*
X54789Y-44628D02*
X54801Y-44640D01*
X54801Y-44628D02*
X54789Y-44640D01*
X55116Y-44459D02*
X55128Y-44471D01*
X55128Y-44459D02*
X55116Y-44471D01*
X55128Y-44620D02*
X55140Y-44632D01*
X55140Y-44620D02*
X55128Y-44632D01*
X55392Y-41608D02*
X55404Y-41620D01*
X55404Y-41608D02*
X55392Y-41620D01*
X55459Y-44447D02*
X55471Y-44459D01*
X55471Y-44447D02*
X55459Y-44459D01*
X55459Y-44608D02*
X55471Y-44620D01*
X55471Y-44608D02*
X55459Y-44620D01*
X55675Y-43955D02*
X55687Y-43967D01*
X55687Y-43955D02*
X55675Y-43967D01*
X55813Y-41411D02*
X55825Y-41423D01*
X55825Y-41411D02*
X55813Y-41423D01*
X55915Y-42781D02*
X55927Y-42793D01*
X55927Y-42781D02*
X55915Y-42793D01*
X56018Y-43600D02*
X56030Y-43612D01*
X56030Y-43600D02*
X56018Y-43612D01*
X56455Y-44203D02*
X56467Y-44215D01*
X56467Y-44203D02*
X56455Y-44215D01*
X56569Y-42443D02*
X56581Y-42455D01*
X56581Y-42443D02*
X56569Y-42455D01*
X56628Y-44140D02*
X56640Y-44152D01*
X56640Y-44140D02*
X56628Y-44152D01*
X56659Y-33663D02*
X56671Y-33675D01*
X56671Y-33663D02*
X56659Y-33675D01*
X56770Y-42514D02*
X56782Y-42526D01*
X56782Y-42514D02*
X56770Y-42526D01*
X56923Y-29955D02*
X56935Y-29967D01*
X56935Y-29955D02*
X56923Y-29967D01*
X57246Y-30592D02*
X57258Y-30604D01*
X57258Y-30592D02*
X57246Y-30604D01*
X57549Y-40222D02*
X57561Y-40234D01*
X57561Y-40222D02*
X57549Y-40234D01*
X57553Y-30581D02*
X57565Y-30593D01*
X57565Y-30581D02*
X57553Y-30593D01*
X57604Y-36691D02*
X57616Y-36703D01*
X57616Y-36691D02*
X57604Y-36703D01*
X57868Y-30592D02*
X57880Y-30604D01*
X57880Y-30592D02*
X57868Y-30604D01*
X58183Y-30585D02*
X58195Y-30597D01*
X58195Y-30585D02*
X58183Y-30597D01*
X58234Y-38907D02*
X58246Y-38919D01*
X58246Y-38907D02*
X58234Y-38919D01*
X58246Y-36289D02*
X58258Y-36301D01*
X58258Y-36289D02*
X58246Y-36301D01*
X58281Y-36049D02*
X58293Y-36061D01*
X58293Y-36049D02*
X58281Y-36061D01*
X58281Y-38514D02*
X58293Y-38526D01*
X58293Y-38514D02*
X58281Y-38526D01*
X58400Y-40459D02*
X58412Y-40471D01*
X58412Y-40459D02*
X58400Y-40471D01*
X58431Y-39848D02*
X58443Y-39860D01*
X58443Y-39848D02*
X58431Y-39860D01*
X58431Y-40234D02*
X58443Y-40246D01*
X58443Y-40234D02*
X58431Y-40246D01*
X58455Y-39533D02*
X58467Y-39545D01*
X58467Y-39533D02*
X58455Y-39545D01*
X58498Y-30592D02*
X58510Y-30604D01*
X58510Y-30592D02*
X58498Y-30604D01*
X58655Y-34325D02*
X58667Y-34337D01*
X58667Y-34325D02*
X58655Y-34337D01*
X58813Y-30612D02*
X58825Y-30624D01*
X58825Y-30612D02*
X58813Y-30624D01*
X59041Y-35510D02*
X59053Y-35522D01*
X59053Y-35510D02*
X59041Y-35522D01*
X59041Y-36285D02*
X59053Y-36297D01*
X59053Y-36285D02*
X59041Y-36297D01*
X59049Y-37159D02*
X59061Y-37171D01*
X59061Y-37159D02*
X59049Y-37171D01*
X59049Y-39140D02*
X59061Y-39152D01*
X59061Y-39140D02*
X59049Y-39152D01*
X59069Y-38002D02*
X59081Y-38014D01*
X59081Y-38002D02*
X59069Y-38014D01*
X59128Y-30632D02*
X59140Y-30644D01*
X59140Y-30632D02*
X59128Y-30644D01*
X59439Y-30620D02*
X59451Y-30632D01*
X59451Y-30620D02*
X59439Y-30632D01*
X59762Y-30620D02*
X59774Y-30632D01*
X59774Y-30620D02*
X59762Y-30632D01*
X59766Y-38522D02*
X59778Y-38534D01*
X59778Y-38522D02*
X59766Y-38534D01*
X59774Y-41380D02*
X59786Y-41392D01*
X59786Y-41380D02*
X59774Y-41392D01*
X59781Y-36045D02*
X59793Y-36057D01*
X59793Y-36045D02*
X59781Y-36057D01*
X59813Y-37683D02*
X59825Y-37695D01*
X59825Y-37683D02*
X59813Y-37695D01*
X59825Y-39218D02*
X59837Y-39230D01*
X59837Y-39218D02*
X59825Y-39230D01*
X59829Y-35844D02*
X59841Y-35856D01*
X59841Y-35844D02*
X59829Y-35856D01*
X59833Y-36915D02*
X59845Y-36927D01*
X59845Y-36915D02*
X59833Y-36927D01*
X59848Y-37986D02*
X59860Y-37998D01*
X59860Y-37986D02*
X59848Y-37998D01*
X59848Y-39683D02*
X59860Y-39695D01*
X59860Y-39683D02*
X59848Y-39695D01*
X59852Y-37262D02*
X59864Y-37274D01*
X59864Y-37262D02*
X59852Y-37274D01*
X59876Y-38789D02*
X59888Y-38801D01*
X59888Y-38789D02*
X59876Y-38801D01*
X59919Y-34545D02*
X59931Y-34557D01*
X59931Y-34545D02*
X59919Y-34557D01*
X60073Y-30640D02*
X60085Y-30652D01*
X60085Y-30640D02*
X60073Y-30652D01*
X60191Y-38096D02*
X60203Y-38108D01*
X60203Y-38096D02*
X60191Y-38108D01*
X60222Y-37266D02*
X60234Y-37278D01*
X60234Y-37266D02*
X60222Y-37278D01*
X60226Y-35474D02*
X60238Y-35486D01*
X60238Y-35474D02*
X60226Y-35486D01*
X60226Y-35624D02*
X60238Y-35636D01*
X60238Y-35624D02*
X60226Y-35636D01*
X60230Y-37659D02*
X60242Y-37671D01*
X60242Y-37659D02*
X60230Y-37671D01*
X60250Y-35754D02*
X60262Y-35766D01*
X60262Y-35754D02*
X60250Y-35766D01*
X60254Y-38427D02*
X60266Y-38439D01*
X60266Y-38427D02*
X60254Y-38439D01*
X60258Y-36529D02*
X60270Y-36541D01*
X60270Y-36529D02*
X60258Y-36541D01*
X60266Y-36144D02*
X60278Y-36156D01*
X60278Y-36144D02*
X60266Y-36156D01*
X60388Y-30640D02*
X60400Y-30652D01*
X60400Y-30640D02*
X60388Y-30652D01*
X60596Y-38085D02*
X60608Y-38097D01*
X60608Y-38085D02*
X60596Y-38097D01*
X60600Y-35718D02*
X60612Y-35730D01*
X60612Y-35718D02*
X60600Y-35730D01*
X60604Y-36482D02*
X60616Y-36494D01*
X60616Y-36482D02*
X60604Y-36494D01*
X60604Y-38840D02*
X60616Y-38852D01*
X60616Y-38840D02*
X60604Y-38852D01*
X60616Y-37667D02*
X60628Y-37679D01*
X60628Y-37667D02*
X60616Y-37679D01*
X60624Y-35321D02*
X60636Y-35333D01*
X60636Y-35321D02*
X60624Y-35333D01*
X60632Y-36903D02*
X60644Y-36915D01*
X60644Y-36903D02*
X60632Y-36915D01*
X60959Y-30667D02*
X60971Y-30679D01*
X60971Y-30667D02*
X60959Y-30679D01*
X61002Y-35714D02*
X61014Y-35726D01*
X61014Y-35714D02*
X61002Y-35726D01*
X61010Y-36486D02*
X61022Y-36498D01*
X61022Y-36486D02*
X61010Y-36498D01*
X61018Y-29963D02*
X61030Y-29975D01*
X61030Y-29963D02*
X61018Y-29975D01*
X61018Y-39644D02*
X61030Y-39656D01*
X61030Y-39644D02*
X61018Y-39656D01*
X61033Y-35337D02*
X61045Y-35349D01*
X61045Y-35337D02*
X61033Y-35349D01*
X61085Y-33596D02*
X61097Y-33608D01*
X61097Y-33596D02*
X61085Y-33608D01*
X61175Y-33403D02*
X61187Y-33415D01*
X61187Y-33403D02*
X61175Y-33415D01*
X61325Y-34486D02*
X61337Y-34498D01*
X61337Y-34486D02*
X61325Y-34498D01*
X61357Y-36931D02*
X61369Y-36943D01*
X61369Y-36931D02*
X61357Y-36943D01*
X61384Y-37297D02*
X61396Y-37309D01*
X61396Y-37297D02*
X61384Y-37309D01*
X61392Y-39234D02*
X61404Y-39246D01*
X61404Y-39234D02*
X61392Y-39246D01*
X61403Y-35025D02*
X61415Y-35037D01*
X61415Y-35025D02*
X61403Y-35037D01*
X61407Y-35718D02*
X61419Y-35730D01*
X61419Y-35718D02*
X61407Y-35730D01*
X61415Y-35340D02*
X61427Y-35352D01*
X61427Y-35340D02*
X61415Y-35352D01*
X61419Y-31809D02*
X61431Y-31821D01*
X61431Y-31809D02*
X61419Y-31821D01*
X61423Y-38447D02*
X61435Y-38459D01*
X61435Y-38447D02*
X61423Y-38459D01*
X61445Y-37630D02*
X61457Y-37642D01*
X61457Y-37630D02*
X61445Y-37642D01*
X61449Y-36839D02*
X61461Y-36851D01*
X61461Y-36839D02*
X61449Y-36851D01*
X61612Y-31915D02*
X61624Y-31927D01*
X61624Y-31915D02*
X61612Y-31927D01*
X61648Y-30167D02*
X61660Y-30179D01*
X61660Y-30167D02*
X61648Y-30179D01*
X61746Y-33640D02*
X61758Y-33652D01*
X61758Y-33640D02*
X61746Y-33652D01*
X61766Y-35006D02*
X61778Y-35018D01*
X61778Y-35006D02*
X61766Y-35018D01*
X61785Y-39250D02*
X61797Y-39262D01*
X61797Y-39250D02*
X61785Y-39262D01*
X61793Y-37281D02*
X61805Y-37293D01*
X61805Y-37281D02*
X61793Y-37293D01*
X61794Y-38069D02*
X61806Y-38081D01*
X61806Y-38069D02*
X61794Y-38081D01*
X61805Y-35344D02*
X61817Y-35356D01*
X61817Y-35344D02*
X61805Y-35356D01*
X61813Y-39667D02*
X61825Y-39679D01*
X61825Y-39667D02*
X61813Y-39679D01*
X61829Y-38852D02*
X61841Y-38864D01*
X61841Y-38852D02*
X61829Y-38864D01*
X61848Y-34872D02*
X61860Y-34884D01*
X61860Y-34872D02*
X61848Y-34884D01*
X61970Y-31277D02*
X61982Y-31289D01*
X61982Y-31277D02*
X61970Y-31289D01*
X62088Y-29238D02*
X62100Y-29250D01*
X62100Y-29238D02*
X62088Y-29250D01*
X62120Y-33400D02*
X62132Y-33412D01*
X62132Y-33400D02*
X62120Y-33412D01*
X62134Y-37728D02*
X62146Y-37740D01*
X62146Y-37728D02*
X62134Y-37740D01*
X62148Y-36927D02*
X62160Y-36939D01*
X62160Y-36927D02*
X62148Y-36939D01*
X62175Y-35317D02*
X62187Y-35329D01*
X62187Y-35317D02*
X62175Y-35329D01*
X62191Y-36096D02*
X62203Y-36108D01*
X62203Y-36096D02*
X62191Y-36108D01*
X62211Y-34943D02*
X62223Y-34955D01*
X62223Y-34943D02*
X62211Y-34955D01*
X62214Y-34592D02*
X62226Y-34604D01*
X62226Y-34592D02*
X62214Y-34604D01*
X62242Y-36833D02*
X62254Y-36845D01*
X62254Y-36833D02*
X62242Y-36845D01*
X62248Y-37614D02*
X62260Y-37626D01*
X62260Y-37614D02*
X62248Y-37626D01*
X62525Y-33128D02*
X62537Y-33140D01*
X62537Y-33128D02*
X62525Y-33140D01*
X62565Y-36903D02*
X62577Y-36915D01*
X62577Y-36903D02*
X62565Y-36915D01*
X62573Y-30722D02*
X62585Y-30734D01*
X62585Y-30722D02*
X62573Y-30734D01*
X62588Y-33577D02*
X62600Y-33589D01*
X62600Y-33577D02*
X62588Y-33589D01*
X62588Y-34537D02*
X62600Y-34549D01*
X62600Y-34537D02*
X62588Y-34549D01*
X62600Y-31557D02*
X62612Y-31569D01*
X62612Y-31557D02*
X62600Y-31569D01*
X62655Y-28006D02*
X62667Y-28018D01*
X62667Y-28006D02*
X62655Y-28018D01*
X62707Y-29923D02*
X62719Y-29935D01*
X62719Y-29923D02*
X62707Y-29935D01*
X62770Y-33258D02*
X62782Y-33270D01*
X62782Y-33258D02*
X62770Y-33270D01*
X62943Y-39770D02*
X62955Y-39782D01*
X62955Y-39770D02*
X62943Y-39782D01*
X62955Y-35356D02*
X62967Y-35368D01*
X62967Y-35356D02*
X62955Y-35368D01*
X62978Y-37285D02*
X62990Y-37297D01*
X62990Y-37285D02*
X62978Y-37297D01*
X62986Y-30758D02*
X62998Y-30770D01*
X62998Y-30758D02*
X62986Y-30770D01*
X63317Y-31600D02*
X63329Y-31612D01*
X63329Y-31600D02*
X63317Y-31612D01*
X63333Y-35340D02*
X63345Y-35352D01*
X63345Y-35340D02*
X63333Y-35352D01*
X63360Y-38459D02*
X63372Y-38471D01*
X63372Y-38459D02*
X63360Y-38471D01*
X63364Y-37301D02*
X63376Y-37313D01*
X63376Y-37301D02*
X63364Y-37313D01*
X63364Y-37663D02*
X63376Y-37675D01*
X63376Y-37663D02*
X63364Y-37675D01*
X63400Y-36868D02*
X63412Y-36880D01*
X63412Y-36868D02*
X63400Y-36880D01*
X63419Y-33754D02*
X63431Y-33766D01*
X63431Y-33754D02*
X63419Y-33766D01*
X63596Y-27978D02*
X63608Y-27990D01*
X63608Y-27978D02*
X63596Y-27990D01*
X63648Y-34518D02*
X63660Y-34530D01*
X63660Y-34518D02*
X63648Y-34530D01*
X63659Y-33482D02*
X63671Y-33494D01*
X63671Y-33482D02*
X63659Y-33494D01*
X63734Y-35718D02*
X63746Y-35730D01*
X63746Y-35718D02*
X63734Y-35730D01*
X63746Y-39258D02*
X63758Y-39270D01*
X63758Y-39258D02*
X63746Y-39270D01*
X63750Y-40029D02*
X63762Y-40041D01*
X63762Y-40029D02*
X63750Y-40041D01*
X63754Y-38057D02*
X63766Y-38069D01*
X63766Y-38057D02*
X63754Y-38069D01*
X63770Y-35305D02*
X63782Y-35317D01*
X63782Y-35305D02*
X63770Y-35317D01*
X63915Y-31943D02*
X63927Y-31955D01*
X63927Y-31943D02*
X63915Y-31955D01*
X63974Y-31529D02*
X63986Y-31541D01*
X63986Y-31529D02*
X63974Y-31541D01*
X64171Y-31474D02*
X64183Y-31486D01*
X64183Y-31474D02*
X64171Y-31486D01*
X64171Y-36561D02*
X64183Y-36573D01*
X64183Y-36561D02*
X64171Y-36573D01*
X64226Y-33632D02*
X64238Y-33644D01*
X64238Y-33632D02*
X64226Y-33644D01*
X64533Y-38085D02*
X64545Y-38097D01*
X64545Y-38085D02*
X64533Y-38097D01*
X64537Y-35317D02*
X64549Y-35329D01*
X64549Y-35317D02*
X64537Y-35329D01*
X64537Y-37636D02*
X64549Y-37648D01*
X64549Y-37636D02*
X64537Y-37648D01*
X64553Y-38856D02*
X64565Y-38868D01*
X64565Y-38856D02*
X64553Y-38868D01*
X64613Y-29348D02*
X64625Y-29360D01*
X64625Y-29348D02*
X64613Y-29360D01*
X64616Y-32348D02*
X64628Y-32360D01*
X64628Y-32348D02*
X64616Y-32360D01*
X64640Y-29140D02*
X64652Y-29152D01*
X64652Y-29140D02*
X64640Y-29152D01*
X64801Y-31415D02*
X64813Y-31427D01*
X64813Y-31415D02*
X64801Y-31427D01*
X64939Y-38049D02*
X64951Y-38061D01*
X64951Y-38049D02*
X64939Y-38061D01*
X64942Y-35656D02*
X64954Y-35668D01*
X64954Y-35656D02*
X64942Y-35668D01*
X64943Y-34309D02*
X64955Y-34321D01*
X64955Y-34309D02*
X64943Y-34321D01*
X64963Y-39045D02*
X64975Y-39057D01*
X64975Y-39045D02*
X64963Y-39057D01*
X64966Y-39632D02*
X64978Y-39644D01*
X64978Y-39632D02*
X64966Y-39644D01*
X64974Y-40112D02*
X64986Y-40124D01*
X64986Y-40112D02*
X64974Y-40124D01*
X64978Y-37663D02*
X64990Y-37675D01*
X64990Y-37663D02*
X64978Y-37675D01*
X64978Y-38435D02*
X64990Y-38447D01*
X64990Y-38435D02*
X64978Y-38447D01*
X65006Y-29313D02*
X65018Y-29325D01*
X65018Y-29313D02*
X65006Y-29325D01*
X65010Y-37175D02*
X65022Y-37187D01*
X65022Y-37175D02*
X65010Y-37187D01*
X65014Y-39427D02*
X65026Y-39439D01*
X65026Y-39427D02*
X65014Y-39439D01*
X65018Y-36557D02*
X65030Y-36569D01*
X65030Y-36557D02*
X65018Y-36569D01*
X65022Y-36896D02*
X65034Y-36908D01*
X65034Y-36896D02*
X65022Y-36908D01*
X65053Y-37860D02*
X65065Y-37872D01*
X65065Y-37860D02*
X65053Y-37872D01*
X65092Y-33025D02*
X65104Y-33037D01*
X65104Y-33025D02*
X65092Y-33037D01*
X65116Y-33683D02*
X65128Y-33695D01*
X65128Y-33683D02*
X65116Y-33695D01*
X65242Y-35577D02*
X65254Y-35589D01*
X65254Y-35577D02*
X65242Y-35589D01*
X65321Y-34136D02*
X65333Y-34148D01*
X65333Y-34136D02*
X65321Y-34148D01*
X65392Y-35411D02*
X65404Y-35423D01*
X65404Y-35411D02*
X65392Y-35423D01*
X65439Y-34569D02*
X65451Y-34581D01*
X65451Y-34569D02*
X65439Y-34581D01*
X65569Y-39982D02*
X65581Y-39994D01*
X65581Y-39982D02*
X65569Y-39994D01*
X65573Y-43569D02*
X65585Y-43581D01*
X65585Y-43569D02*
X65573Y-43581D01*
X65585Y-39329D02*
X65597Y-39341D01*
X65597Y-39329D02*
X65585Y-39341D01*
X65588Y-37490D02*
X65600Y-37502D01*
X65600Y-37490D02*
X65588Y-37502D01*
X65592Y-29128D02*
X65604Y-29140D01*
X65604Y-29128D02*
X65592Y-29140D01*
X65659Y-34734D02*
X65671Y-34746D01*
X65671Y-34734D02*
X65659Y-34746D01*
X65726Y-35411D02*
X65738Y-35423D01*
X65738Y-35411D02*
X65726Y-35423D01*
X65876Y-33498D02*
X65888Y-33510D01*
X65888Y-33498D02*
X65876Y-33510D01*
X66010Y-34565D02*
X66022Y-34577D01*
X66022Y-34565D02*
X66010Y-34577D01*
X66258Y-31829D02*
X66270Y-31841D01*
X66270Y-31829D02*
X66258Y-31841D01*
X66262Y-39333D02*
X66274Y-39345D01*
X66274Y-39333D02*
X66262Y-39345D01*
X66380Y-38730D02*
X66392Y-38742D01*
X66392Y-38730D02*
X66380Y-38742D01*
X66490Y-41474D02*
X66502Y-41486D01*
X66502Y-41474D02*
X66490Y-41486D01*
X66616Y-42163D02*
X66628Y-42175D01*
X66628Y-42163D02*
X66616Y-42175D01*
X67175Y-42163D02*
X67187Y-42175D01*
X67187Y-42163D02*
X67175Y-42175D01*
X67313Y-43789D02*
X67325Y-43801D01*
X67325Y-43789D02*
X67313Y-43801D01*
X67317Y-41364D02*
X67329Y-41376D01*
X67329Y-41364D02*
X67317Y-41376D01*
X67707Y-36274D02*
X67719Y-36286D01*
X67719Y-36274D02*
X67707Y-36286D01*
X67947Y-28805D02*
X67959Y-28817D01*
X67959Y-28805D02*
X67947Y-28817D01*
X67955Y-28604D02*
X67967Y-28616D01*
X67967Y-28604D02*
X67955Y-28616D01*
X67982Y-36167D02*
X67994Y-36179D01*
X67994Y-36167D02*
X67982Y-36179D01*
X67986Y-40053D02*
X67998Y-40065D01*
X67998Y-40053D02*
X67986Y-40065D01*
X67990Y-36486D02*
X68002Y-36498D01*
X68002Y-36486D02*
X67990Y-36498D01*
X68057Y-35923D02*
X68069Y-35935D01*
X68069Y-35923D02*
X68057Y-35935D01*
X68163Y-29199D02*
X68175Y-29211D01*
X68175Y-29199D02*
X68163Y-29211D01*
X68644Y-42006D02*
X68656Y-42018D01*
X68656Y-42006D02*
X68644Y-42018D01*
X68770Y-42545D02*
X68782Y-42557D01*
X68782Y-42545D02*
X68770Y-42557D01*
X69041Y-38159D02*
X69053Y-38171D01*
X69053Y-38159D02*
X69041Y-38171D01*
X69065Y-37151D02*
X69077Y-37163D01*
X69077Y-37151D02*
X69065Y-37163D01*
X69073Y-36128D02*
X69085Y-36140D01*
X69085Y-36128D02*
X69073Y-36140D01*
X69325Y-42203D02*
X69337Y-42215D01*
X69337Y-42203D02*
X69325Y-42215D01*
X69328Y-41750D02*
X69340Y-41762D01*
X69340Y-41750D02*
X69328Y-41762D01*
X69329Y-42908D02*
X69341Y-42920D01*
X69341Y-42908D02*
X69329Y-42920D01*
X69498Y-41750D02*
X69510Y-41762D01*
X69510Y-41750D02*
X69498Y-41762D01*
X69502Y-42195D02*
X69514Y-42207D01*
X69514Y-42195D02*
X69502Y-42207D01*
X69506Y-42907D02*
X69518Y-42919D01*
X69518Y-42907D02*
X69506Y-42919D01*
X69600Y-28400D02*
X69612Y-28412D01*
X69612Y-28400D02*
X69600Y-28412D01*
X69632Y-28840D02*
X69644Y-28852D01*
X69644Y-28840D02*
X69632Y-28852D01*
X69813Y-29738D02*
X69825Y-29750D01*
X69825Y-29738D02*
X69813Y-29750D01*
X71006Y-28545D02*
X71018Y-28557D01*
X71018Y-28545D02*
X71006Y-28557D01*
X71368Y-29439D02*
X71380Y-29451D01*
X71380Y-29439D02*
X71368Y-29451D01*
X73663Y-41966D02*
X73675Y-41978D01*
X73675Y-41966D02*
X73663Y-41978D01*
X73675Y-43325D02*
X73687Y-43337D01*
X73687Y-43325D02*
X73675Y-43337D01*
X46007Y-33992D02*
X46004Y-34022D01*
X45995Y-34051D01*
X45980Y-34078D01*
X45961Y-34102D01*
X45937Y-34122D01*
X45910Y-34136D01*
X45881Y-34145D01*
X45851Y-34148D01*
X45821Y-34146D01*
X45792Y-34137D01*
X45765Y-34123D01*
X45741Y-34104D01*
X45721Y-34080D01*
X45706Y-34053D01*
X45697Y-34024D01*
X45694Y-33994D01*
X45696Y-33964D01*
X45705Y-33935D01*
X45719Y-33907D01*
X45738Y-33883D01*
X45761Y-33864D01*
X45788Y-33849D01*
X45817Y-33839D01*
X45847Y-33836D01*
X45877Y-33838D01*
X45906Y-33846D01*
X45934Y-33860D01*
X45958Y-33879D01*
X45978Y-33902D01*
X45993Y-33929D01*
X46003Y-33958D01*
X46006Y-33988D01*
X46007Y-33992D01*
X46007Y-34992D02*
X46004Y-35022D01*
X45995Y-35051D01*
X45980Y-35078D01*
X45961Y-35102D01*
X45937Y-35122D01*
X45910Y-35136D01*
X45881Y-35145D01*
X45851Y-35148D01*
X45821Y-35146D01*
X45792Y-35137D01*
X45765Y-35123D01*
X45741Y-35104D01*
X45721Y-35080D01*
X45706Y-35053D01*
X45697Y-35024D01*
X45694Y-34994D01*
X45696Y-34964D01*
X45705Y-34935D01*
X45719Y-34907D01*
X45738Y-34883D01*
X45761Y-34864D01*
X45788Y-34849D01*
X45817Y-34839D01*
X45847Y-34836D01*
X45877Y-34838D01*
X45906Y-34846D01*
X45934Y-34860D01*
X45958Y-34879D01*
X45978Y-34902D01*
X45993Y-34929D01*
X46003Y-34958D01*
X46006Y-34988D01*
X46007Y-34992D01*
X46007Y-35992D02*
X46004Y-36022D01*
X45995Y-36051D01*
X45980Y-36078D01*
X45961Y-36102D01*
X45937Y-36122D01*
X45910Y-36136D01*
X45881Y-36145D01*
X45851Y-36148D01*
X45821Y-36146D01*
X45792Y-36137D01*
X45765Y-36123D01*
X45741Y-36104D01*
X45721Y-36080D01*
X45706Y-36053D01*
X45697Y-36024D01*
X45694Y-35994D01*
X45696Y-35964D01*
X45705Y-35935D01*
X45719Y-35907D01*
X45738Y-35883D01*
X45761Y-35864D01*
X45788Y-35849D01*
X45817Y-35839D01*
X45847Y-35836D01*
X45877Y-35838D01*
X45906Y-35846D01*
X45934Y-35860D01*
X45958Y-35879D01*
X45978Y-35902D01*
X45993Y-35929D01*
X46003Y-35958D01*
X46006Y-35988D01*
X46007Y-35992D01*
X46007Y-36992D02*
X46004Y-37022D01*
X45995Y-37051D01*
X45980Y-37078D01*
X45961Y-37102D01*
X45937Y-37122D01*
X45910Y-37136D01*
X45881Y-37145D01*
X45851Y-37148D01*
X45821Y-37146D01*
X45792Y-37137D01*
X45765Y-37123D01*
X45741Y-37104D01*
X45721Y-37080D01*
X45706Y-37053D01*
X45697Y-37024D01*
X45694Y-36994D01*
X45696Y-36964D01*
X45705Y-36935D01*
X45719Y-36907D01*
X45738Y-36883D01*
X45761Y-36864D01*
X45788Y-36849D01*
X45817Y-36839D01*
X45847Y-36836D01*
X45877Y-36838D01*
X45906Y-36846D01*
X45934Y-36860D01*
X45958Y-36879D01*
X45978Y-36902D01*
X45993Y-36929D01*
X46003Y-36958D01*
X46006Y-36988D01*
X46007Y-36992D01*
X46007Y-37992D02*
X46004Y-38022D01*
X45995Y-38051D01*
X45980Y-38078D01*
X45961Y-38102D01*
X45937Y-38122D01*
X45910Y-38136D01*
X45881Y-38145D01*
X45851Y-38148D01*
X45821Y-38146D01*
X45792Y-38137D01*
X45765Y-38123D01*
X45741Y-38104D01*
X45721Y-38080D01*
X45706Y-38053D01*
X45697Y-38024D01*
X45694Y-37994D01*
X45696Y-37964D01*
X45705Y-37935D01*
X45719Y-37907D01*
X45738Y-37883D01*
X45761Y-37864D01*
X45788Y-37849D01*
X45817Y-37839D01*
X45847Y-37836D01*
X45877Y-37838D01*
X45906Y-37846D01*
X45934Y-37860D01*
X45958Y-37879D01*
X45978Y-37902D01*
X45993Y-37929D01*
X46003Y-37958D01*
X46006Y-37988D01*
X46007Y-37992D01*
X46007Y-38992D02*
X46004Y-39022D01*
X45995Y-39051D01*
X45980Y-39078D01*
X45961Y-39102D01*
X45937Y-39122D01*
X45910Y-39136D01*
X45881Y-39145D01*
X45851Y-39148D01*
X45821Y-39146D01*
X45792Y-39137D01*
X45765Y-39123D01*
X45741Y-39104D01*
X45721Y-39080D01*
X45706Y-39053D01*
X45697Y-39024D01*
X45694Y-38994D01*
X45696Y-38964D01*
X45705Y-38935D01*
X45719Y-38907D01*
X45738Y-38883D01*
X45761Y-38864D01*
X45788Y-38849D01*
X45817Y-38839D01*
X45847Y-38836D01*
X45877Y-38838D01*
X45906Y-38846D01*
X45934Y-38860D01*
X45958Y-38879D01*
X45978Y-38902D01*
X45993Y-38929D01*
X46003Y-38958D01*
X46006Y-38988D01*
X46007Y-38992D01*
X48604Y-26197D02*
X48601Y-26227D01*
X48592Y-26256D01*
X48577Y-26283D01*
X48558Y-26307D01*
X48534Y-26327D01*
X48507Y-26341D01*
X48478Y-26350D01*
X48448Y-26353D01*
X48418Y-26351D01*
X48389Y-26342D01*
X48362Y-26328D01*
X48338Y-26309D01*
X48318Y-26285D01*
X48303Y-26258D01*
X48294Y-26229D01*
X48291Y-26199D01*
X48293Y-26169D01*
X48302Y-26140D01*
X48316Y-26112D01*
X48335Y-26088D01*
X48358Y-26069D01*
X48385Y-26054D01*
X48414Y-26044D01*
X48444Y-26041D01*
X48474Y-26043D01*
X48503Y-26051D01*
X48531Y-26065D01*
X48555Y-26084D01*
X48575Y-26107D01*
X48590Y-26134D01*
X48600Y-26163D01*
X48603Y-26193D01*
X48604Y-26197D01*
X48604Y-27197D02*
X48601Y-27227D01*
X48592Y-27256D01*
X48577Y-27283D01*
X48558Y-27307D01*
X48534Y-27327D01*
X48507Y-27341D01*
X48478Y-27350D01*
X48448Y-27353D01*
X48418Y-27351D01*
X48389Y-27342D01*
X48362Y-27328D01*
X48338Y-27309D01*
X48318Y-27285D01*
X48303Y-27258D01*
X48294Y-27229D01*
X48291Y-27199D01*
X48293Y-27169D01*
X48302Y-27140D01*
X48316Y-27112D01*
X48335Y-27088D01*
X48358Y-27069D01*
X48385Y-27054D01*
X48414Y-27044D01*
X48444Y-27041D01*
X48474Y-27043D01*
X48503Y-27051D01*
X48531Y-27065D01*
X48555Y-27084D01*
X48575Y-27107D01*
X48590Y-27134D01*
X48600Y-27163D01*
X48603Y-27193D01*
X48604Y-27197D01*
X48604Y-45197D02*
X48601Y-45227D01*
X48592Y-45256D01*
X48577Y-45283D01*
X48558Y-45307D01*
X48534Y-45327D01*
X48507Y-45341D01*
X48478Y-45350D01*
X48448Y-45353D01*
X48418Y-45351D01*
X48389Y-45342D01*
X48362Y-45328D01*
X48338Y-45309D01*
X48318Y-45285D01*
X48303Y-45258D01*
X48294Y-45229D01*
X48291Y-45199D01*
X48293Y-45169D01*
X48302Y-45140D01*
X48316Y-45112D01*
X48335Y-45088D01*
X48358Y-45069D01*
X48385Y-45054D01*
X48414Y-45044D01*
X48444Y-45041D01*
X48474Y-45043D01*
X48503Y-45051D01*
X48531Y-45065D01*
X48555Y-45084D01*
X48575Y-45107D01*
X48590Y-45134D01*
X48600Y-45163D01*
X48603Y-45193D01*
X48604Y-45197D01*
X48604Y-46197D02*
X48601Y-46227D01*
X48592Y-46256D01*
X48577Y-46283D01*
X48558Y-46307D01*
X48534Y-46327D01*
X48507Y-46341D01*
X48478Y-46350D01*
X48448Y-46353D01*
X48418Y-46351D01*
X48389Y-46342D01*
X48362Y-46328D01*
X48338Y-46309D01*
X48318Y-46285D01*
X48303Y-46258D01*
X48294Y-46229D01*
X48291Y-46199D01*
X48293Y-46169D01*
X48302Y-46140D01*
X48316Y-46112D01*
X48335Y-46088D01*
X48358Y-46069D01*
X48385Y-46054D01*
X48414Y-46044D01*
X48444Y-46041D01*
X48474Y-46043D01*
X48503Y-46051D01*
X48531Y-46065D01*
X48555Y-46084D01*
X48575Y-46107D01*
X48590Y-46134D01*
X48600Y-46163D01*
X48603Y-46193D01*
X48604Y-46197D01*
X49604Y-26197D02*
X49601Y-26227D01*
X49592Y-26256D01*
X49577Y-26283D01*
X49558Y-26307D01*
X49534Y-26327D01*
X49507Y-26341D01*
X49478Y-26350D01*
X49448Y-26353D01*
X49418Y-26351D01*
X49389Y-26342D01*
X49362Y-26328D01*
X49338Y-26309D01*
X49318Y-26285D01*
X49303Y-26258D01*
X49294Y-26229D01*
X49291Y-26199D01*
X49293Y-26169D01*
X49302Y-26140D01*
X49316Y-26112D01*
X49335Y-26088D01*
X49358Y-26069D01*
X49385Y-26054D01*
X49414Y-26044D01*
X49444Y-26041D01*
X49474Y-26043D01*
X49503Y-26051D01*
X49531Y-26065D01*
X49555Y-26084D01*
X49575Y-26107D01*
X49590Y-26134D01*
X49600Y-26163D01*
X49603Y-26193D01*
X49604Y-26197D01*
X49604Y-27197D02*
X49601Y-27227D01*
X49592Y-27256D01*
X49577Y-27283D01*
X49558Y-27307D01*
X49534Y-27327D01*
X49507Y-27341D01*
X49478Y-27350D01*
X49448Y-27353D01*
X49418Y-27351D01*
X49389Y-27342D01*
X49362Y-27328D01*
X49338Y-27309D01*
X49318Y-27285D01*
X49303Y-27258D01*
X49294Y-27229D01*
X49291Y-27199D01*
X49293Y-27169D01*
X49302Y-27140D01*
X49316Y-27112D01*
X49335Y-27088D01*
X49358Y-27069D01*
X49385Y-27054D01*
X49414Y-27044D01*
X49444Y-27041D01*
X49474Y-27043D01*
X49503Y-27051D01*
X49531Y-27065D01*
X49555Y-27084D01*
X49575Y-27107D01*
X49590Y-27134D01*
X49600Y-27163D01*
X49603Y-27193D01*
X49604Y-27197D01*
X49604Y-45197D02*
X49601Y-45227D01*
X49592Y-45256D01*
X49577Y-45283D01*
X49558Y-45307D01*
X49534Y-45327D01*
X49507Y-45341D01*
X49478Y-45350D01*
X49448Y-45353D01*
X49418Y-45351D01*
X49389Y-45342D01*
X49362Y-45328D01*
X49338Y-45309D01*
X49318Y-45285D01*
X49303Y-45258D01*
X49294Y-45229D01*
X49291Y-45199D01*
X49293Y-45169D01*
X49302Y-45140D01*
X49316Y-45112D01*
X49335Y-45088D01*
X49358Y-45069D01*
X49385Y-45054D01*
X49414Y-45044D01*
X49444Y-45041D01*
X49474Y-45043D01*
X49503Y-45051D01*
X49531Y-45065D01*
X49555Y-45084D01*
X49575Y-45107D01*
X49590Y-45134D01*
X49600Y-45163D01*
X49603Y-45193D01*
X49604Y-45197D01*
X49604Y-46197D02*
X49601Y-46227D01*
X49592Y-46256D01*
X49577Y-46283D01*
X49558Y-46307D01*
X49534Y-46327D01*
X49507Y-46341D01*
X49478Y-46350D01*
X49448Y-46353D01*
X49418Y-46351D01*
X49389Y-46342D01*
X49362Y-46328D01*
X49338Y-46309D01*
X49318Y-46285D01*
X49303Y-46258D01*
X49294Y-46229D01*
X49291Y-46199D01*
X49293Y-46169D01*
X49302Y-46140D01*
X49316Y-46112D01*
X49335Y-46088D01*
X49358Y-46069D01*
X49385Y-46054D01*
X49414Y-46044D01*
X49444Y-46041D01*
X49474Y-46043D01*
X49503Y-46051D01*
X49531Y-46065D01*
X49555Y-46084D01*
X49575Y-46107D01*
X49590Y-46134D01*
X49600Y-46163D01*
X49603Y-46193D01*
X49604Y-46197D01*
X50604Y-26197D02*
X50601Y-26227D01*
X50592Y-26256D01*
X50577Y-26283D01*
X50558Y-26307D01*
X50534Y-26327D01*
X50507Y-26341D01*
X50478Y-26350D01*
X50448Y-26353D01*
X50418Y-26351D01*
X50389Y-26342D01*
X50362Y-26328D01*
X50338Y-26309D01*
X50318Y-26285D01*
X50303Y-26258D01*
X50294Y-26229D01*
X50291Y-26199D01*
X50293Y-26169D01*
X50302Y-26140D01*
X50316Y-26112D01*
X50335Y-26088D01*
X50358Y-26069D01*
X50385Y-26054D01*
X50414Y-26044D01*
X50444Y-26041D01*
X50474Y-26043D01*
X50503Y-26051D01*
X50531Y-26065D01*
X50555Y-26084D01*
X50575Y-26107D01*
X50590Y-26134D01*
X50600Y-26163D01*
X50603Y-26193D01*
X50604Y-26197D01*
X50604Y-27197D02*
X50601Y-27227D01*
X50592Y-27256D01*
X50577Y-27283D01*
X50558Y-27307D01*
X50534Y-27327D01*
X50507Y-27341D01*
X50478Y-27350D01*
X50448Y-27353D01*
X50418Y-27351D01*
X50389Y-27342D01*
X50362Y-27328D01*
X50338Y-27309D01*
X50318Y-27285D01*
X50303Y-27258D01*
X50294Y-27229D01*
X50291Y-27199D01*
X50293Y-27169D01*
X50302Y-27140D01*
X50316Y-27112D01*
X50335Y-27088D01*
X50358Y-27069D01*
X50385Y-27054D01*
X50414Y-27044D01*
X50444Y-27041D01*
X50474Y-27043D01*
X50503Y-27051D01*
X50531Y-27065D01*
X50555Y-27084D01*
X50575Y-27107D01*
X50590Y-27134D01*
X50600Y-27163D01*
X50603Y-27193D01*
X50604Y-27197D01*
X50604Y-45197D02*
X50601Y-45227D01*
X50592Y-45256D01*
X50577Y-45283D01*
X50558Y-45307D01*
X50534Y-45327D01*
X50507Y-45341D01*
X50478Y-45350D01*
X50448Y-45353D01*
X50418Y-45351D01*
X50389Y-45342D01*
X50362Y-45328D01*
X50338Y-45309D01*
X50318Y-45285D01*
X50303Y-45258D01*
X50294Y-45229D01*
X50291Y-45199D01*
X50293Y-45169D01*
X50302Y-45140D01*
X50316Y-45112D01*
X50335Y-45088D01*
X50358Y-45069D01*
X50385Y-45054D01*
X50414Y-45044D01*
X50444Y-45041D01*
X50474Y-45043D01*
X50503Y-45051D01*
X50531Y-45065D01*
X50555Y-45084D01*
X50575Y-45107D01*
X50590Y-45134D01*
X50600Y-45163D01*
X50603Y-45193D01*
X50604Y-45197D01*
X50604Y-46197D02*
X50601Y-46227D01*
X50592Y-46256D01*
X50577Y-46283D01*
X50558Y-46307D01*
X50534Y-46327D01*
X50507Y-46341D01*
X50478Y-46350D01*
X50448Y-46353D01*
X50418Y-46351D01*
X50389Y-46342D01*
X50362Y-46328D01*
X50338Y-46309D01*
X50318Y-46285D01*
X50303Y-46258D01*
X50294Y-46229D01*
X50291Y-46199D01*
X50293Y-46169D01*
X50302Y-46140D01*
X50316Y-46112D01*
X50335Y-46088D01*
X50358Y-46069D01*
X50385Y-46054D01*
X50414Y-46044D01*
X50444Y-46041D01*
X50474Y-46043D01*
X50503Y-46051D01*
X50531Y-46065D01*
X50555Y-46084D01*
X50575Y-46107D01*
X50590Y-46134D01*
X50600Y-46163D01*
X50603Y-46193D01*
X50604Y-46197D01*
X50767Y-29925D02*
X50764Y-29955D01*
X50755Y-29984D01*
X50740Y-30011D01*
X50721Y-30035D01*
X50697Y-30055D01*
X50670Y-30069D01*
X50641Y-30078D01*
X50611Y-30081D01*
X50581Y-30079D01*
X50552Y-30070D01*
X50525Y-30056D01*
X50501Y-30037D01*
X50481Y-30013D01*
X50466Y-29986D01*
X50457Y-29957D01*
X50454Y-29927D01*
X50456Y-29897D01*
X50465Y-29868D01*
X50479Y-29840D01*
X50498Y-29816D01*
X50521Y-29797D01*
X50548Y-29782D01*
X50577Y-29772D01*
X50607Y-29769D01*
X50637Y-29771D01*
X50666Y-29779D01*
X50694Y-29793D01*
X50718Y-29812D01*
X50738Y-29835D01*
X50753Y-29862D01*
X50763Y-29891D01*
X50766Y-29921D01*
X50767Y-29925D01*
X51604Y-26197D02*
X51601Y-26227D01*
X51592Y-26256D01*
X51577Y-26283D01*
X51558Y-26307D01*
X51534Y-26327D01*
X51507Y-26341D01*
X51478Y-26350D01*
X51448Y-26353D01*
X51418Y-26351D01*
X51389Y-26342D01*
X51362Y-26328D01*
X51338Y-26309D01*
X51318Y-26285D01*
X51303Y-26258D01*
X51294Y-26229D01*
X51291Y-26199D01*
X51293Y-26169D01*
X51302Y-26140D01*
X51316Y-26112D01*
X51335Y-26088D01*
X51358Y-26069D01*
X51385Y-26054D01*
X51414Y-26044D01*
X51444Y-26041D01*
X51474Y-26043D01*
X51503Y-26051D01*
X51531Y-26065D01*
X51555Y-26084D01*
X51575Y-26107D01*
X51590Y-26134D01*
X51600Y-26163D01*
X51603Y-26193D01*
X51604Y-26197D01*
X51604Y-27197D02*
X51601Y-27227D01*
X51592Y-27256D01*
X51577Y-27283D01*
X51558Y-27307D01*
X51534Y-27327D01*
X51507Y-27341D01*
X51478Y-27350D01*
X51448Y-27353D01*
X51418Y-27351D01*
X51389Y-27342D01*
X51362Y-27328D01*
X51338Y-27309D01*
X51318Y-27285D01*
X51303Y-27258D01*
X51294Y-27229D01*
X51291Y-27199D01*
X51293Y-27169D01*
X51302Y-27140D01*
X51316Y-27112D01*
X51335Y-27088D01*
X51358Y-27069D01*
X51385Y-27054D01*
X51414Y-27044D01*
X51444Y-27041D01*
X51474Y-27043D01*
X51503Y-27051D01*
X51531Y-27065D01*
X51555Y-27084D01*
X51575Y-27107D01*
X51590Y-27134D01*
X51600Y-27163D01*
X51603Y-27193D01*
X51604Y-27197D01*
X51604Y-45197D02*
X51601Y-45227D01*
X51592Y-45256D01*
X51577Y-45283D01*
X51558Y-45307D01*
X51534Y-45327D01*
X51507Y-45341D01*
X51478Y-45350D01*
X51448Y-45353D01*
X51418Y-45351D01*
X51389Y-45342D01*
X51362Y-45328D01*
X51338Y-45309D01*
X51318Y-45285D01*
X51303Y-45258D01*
X51294Y-45229D01*
X51291Y-45199D01*
X51293Y-45169D01*
X51302Y-45140D01*
X51316Y-45112D01*
X51335Y-45088D01*
X51358Y-45069D01*
X51385Y-45054D01*
X51414Y-45044D01*
X51444Y-45041D01*
X51474Y-45043D01*
X51503Y-45051D01*
X51531Y-45065D01*
X51555Y-45084D01*
X51575Y-45107D01*
X51590Y-45134D01*
X51600Y-45163D01*
X51603Y-45193D01*
X51604Y-45197D01*
X51604Y-46197D02*
X51601Y-46227D01*
X51592Y-46256D01*
X51577Y-46283D01*
X51558Y-46307D01*
X51534Y-46327D01*
X51507Y-46341D01*
X51478Y-46350D01*
X51448Y-46353D01*
X51418Y-46351D01*
X51389Y-46342D01*
X51362Y-46328D01*
X51338Y-46309D01*
X51318Y-46285D01*
X51303Y-46258D01*
X51294Y-46229D01*
X51291Y-46199D01*
X51293Y-46169D01*
X51302Y-46140D01*
X51316Y-46112D01*
X51335Y-46088D01*
X51358Y-46069D01*
X51385Y-46054D01*
X51414Y-46044D01*
X51444Y-46041D01*
X51474Y-46043D01*
X51503Y-46051D01*
X51531Y-46065D01*
X51555Y-46084D01*
X51575Y-46107D01*
X51590Y-46134D01*
X51600Y-46163D01*
X51603Y-46193D01*
X51604Y-46197D01*
X51767Y-29925D02*
X51764Y-29955D01*
X51755Y-29984D01*
X51740Y-30011D01*
X51721Y-30035D01*
X51697Y-30055D01*
X51670Y-30069D01*
X51641Y-30078D01*
X51611Y-30081D01*
X51581Y-30079D01*
X51552Y-30070D01*
X51525Y-30056D01*
X51501Y-30037D01*
X51481Y-30013D01*
X51466Y-29986D01*
X51457Y-29957D01*
X51454Y-29927D01*
X51456Y-29897D01*
X51465Y-29868D01*
X51479Y-29840D01*
X51498Y-29816D01*
X51521Y-29797D01*
X51548Y-29782D01*
X51577Y-29772D01*
X51607Y-29769D01*
X51637Y-29771D01*
X51666Y-29779D01*
X51694Y-29793D01*
X51718Y-29812D01*
X51738Y-29835D01*
X51753Y-29862D01*
X51763Y-29891D01*
X51766Y-29921D01*
X51767Y-29925D01*
X52604Y-26197D02*
X52601Y-26227D01*
X52592Y-26256D01*
X52577Y-26283D01*
X52558Y-26307D01*
X52534Y-26327D01*
X52507Y-26341D01*
X52478Y-26350D01*
X52448Y-26353D01*
X52418Y-26351D01*
X52389Y-26342D01*
X52362Y-26328D01*
X52338Y-26309D01*
X52318Y-26285D01*
X52303Y-26258D01*
X52294Y-26229D01*
X52291Y-26199D01*
X52293Y-26169D01*
X52302Y-26140D01*
X52316Y-26112D01*
X52335Y-26088D01*
X52358Y-26069D01*
X52385Y-26054D01*
X52414Y-26044D01*
X52444Y-26041D01*
X52474Y-26043D01*
X52503Y-26051D01*
X52531Y-26065D01*
X52555Y-26084D01*
X52575Y-26107D01*
X52590Y-26134D01*
X52600Y-26163D01*
X52603Y-26193D01*
X52604Y-26197D01*
X52604Y-27197D02*
X52601Y-27227D01*
X52592Y-27256D01*
X52577Y-27283D01*
X52558Y-27307D01*
X52534Y-27327D01*
X52507Y-27341D01*
X52478Y-27350D01*
X52448Y-27353D01*
X52418Y-27351D01*
X52389Y-27342D01*
X52362Y-27328D01*
X52338Y-27309D01*
X52318Y-27285D01*
X52303Y-27258D01*
X52294Y-27229D01*
X52291Y-27199D01*
X52293Y-27169D01*
X52302Y-27140D01*
X52316Y-27112D01*
X52335Y-27088D01*
X52358Y-27069D01*
X52385Y-27054D01*
X52414Y-27044D01*
X52444Y-27041D01*
X52474Y-27043D01*
X52503Y-27051D01*
X52531Y-27065D01*
X52555Y-27084D01*
X52575Y-27107D01*
X52590Y-27134D01*
X52600Y-27163D01*
X52603Y-27193D01*
X52604Y-27197D01*
X52604Y-45197D02*
X52601Y-45227D01*
X52592Y-45256D01*
X52577Y-45283D01*
X52558Y-45307D01*
X52534Y-45327D01*
X52507Y-45341D01*
X52478Y-45350D01*
X52448Y-45353D01*
X52418Y-45351D01*
X52389Y-45342D01*
X52362Y-45328D01*
X52338Y-45309D01*
X52318Y-45285D01*
X52303Y-45258D01*
X52294Y-45229D01*
X52291Y-45199D01*
X52293Y-45169D01*
X52302Y-45140D01*
X52316Y-45112D01*
X52335Y-45088D01*
X52358Y-45069D01*
X52385Y-45054D01*
X52414Y-45044D01*
X52444Y-45041D01*
X52474Y-45043D01*
X52503Y-45051D01*
X52531Y-45065D01*
X52555Y-45084D01*
X52575Y-45107D01*
X52590Y-45134D01*
X52600Y-45163D01*
X52603Y-45193D01*
X52604Y-45197D01*
X52604Y-46197D02*
X52601Y-46227D01*
X52592Y-46256D01*
X52577Y-46283D01*
X52558Y-46307D01*
X52534Y-46327D01*
X52507Y-46341D01*
X52478Y-46350D01*
X52448Y-46353D01*
X52418Y-46351D01*
X52389Y-46342D01*
X52362Y-46328D01*
X52338Y-46309D01*
X52318Y-46285D01*
X52303Y-46258D01*
X52294Y-46229D01*
X52291Y-46199D01*
X52293Y-46169D01*
X52302Y-46140D01*
X52316Y-46112D01*
X52335Y-46088D01*
X52358Y-46069D01*
X52385Y-46054D01*
X52414Y-46044D01*
X52444Y-46041D01*
X52474Y-46043D01*
X52503Y-46051D01*
X52531Y-46065D01*
X52555Y-46084D01*
X52575Y-46107D01*
X52590Y-46134D01*
X52600Y-46163D01*
X52603Y-46193D01*
X52604Y-46197D01*
X52767Y-29925D02*
X52764Y-29955D01*
X52755Y-29984D01*
X52740Y-30011D01*
X52721Y-30035D01*
X52697Y-30055D01*
X52670Y-30069D01*
X52641Y-30078D01*
X52611Y-30081D01*
X52581Y-30079D01*
X52552Y-30070D01*
X52525Y-30056D01*
X52501Y-30037D01*
X52481Y-30013D01*
X52466Y-29986D01*
X52457Y-29957D01*
X52454Y-29927D01*
X52456Y-29897D01*
X52465Y-29868D01*
X52479Y-29840D01*
X52498Y-29816D01*
X52521Y-29797D01*
X52548Y-29782D01*
X52577Y-29772D01*
X52607Y-29769D01*
X52637Y-29771D01*
X52666Y-29779D01*
X52694Y-29793D01*
X52718Y-29812D01*
X52738Y-29835D01*
X52753Y-29862D01*
X52763Y-29891D01*
X52766Y-29921D01*
X52767Y-29925D01*
X53604Y-26197D02*
X53601Y-26227D01*
X53592Y-26256D01*
X53577Y-26283D01*
X53558Y-26307D01*
X53534Y-26327D01*
X53507Y-26341D01*
X53478Y-26350D01*
X53448Y-26353D01*
X53418Y-26351D01*
X53389Y-26342D01*
X53362Y-26328D01*
X53338Y-26309D01*
X53318Y-26285D01*
X53303Y-26258D01*
X53294Y-26229D01*
X53291Y-26199D01*
X53293Y-26169D01*
X53302Y-26140D01*
X53316Y-26112D01*
X53335Y-26088D01*
X53358Y-26069D01*
X53385Y-26054D01*
X53414Y-26044D01*
X53444Y-26041D01*
X53474Y-26043D01*
X53503Y-26051D01*
X53531Y-26065D01*
X53555Y-26084D01*
X53575Y-26107D01*
X53590Y-26134D01*
X53600Y-26163D01*
X53603Y-26193D01*
X53604Y-26197D01*
X53604Y-27197D02*
X53601Y-27227D01*
X53592Y-27256D01*
X53577Y-27283D01*
X53558Y-27307D01*
X53534Y-27327D01*
X53507Y-27341D01*
X53478Y-27350D01*
X53448Y-27353D01*
X53418Y-27351D01*
X53389Y-27342D01*
X53362Y-27328D01*
X53338Y-27309D01*
X53318Y-27285D01*
X53303Y-27258D01*
X53294Y-27229D01*
X53291Y-27199D01*
X53293Y-27169D01*
X53302Y-27140D01*
X53316Y-27112D01*
X53335Y-27088D01*
X53358Y-27069D01*
X53385Y-27054D01*
X53414Y-27044D01*
X53444Y-27041D01*
X53474Y-27043D01*
X53503Y-27051D01*
X53531Y-27065D01*
X53555Y-27084D01*
X53575Y-27107D01*
X53590Y-27134D01*
X53600Y-27163D01*
X53603Y-27193D01*
X53604Y-27197D01*
X53604Y-45197D02*
X53601Y-45227D01*
X53592Y-45256D01*
X53577Y-45283D01*
X53558Y-45307D01*
X53534Y-45327D01*
X53507Y-45341D01*
X53478Y-45350D01*
X53448Y-45353D01*
X53418Y-45351D01*
X53389Y-45342D01*
X53362Y-45328D01*
X53338Y-45309D01*
X53318Y-45285D01*
X53303Y-45258D01*
X53294Y-45229D01*
X53291Y-45199D01*
X53293Y-45169D01*
X53302Y-45140D01*
X53316Y-45112D01*
X53335Y-45088D01*
X53358Y-45069D01*
X53385Y-45054D01*
X53414Y-45044D01*
X53444Y-45041D01*
X53474Y-45043D01*
X53503Y-45051D01*
X53531Y-45065D01*
X53555Y-45084D01*
X53575Y-45107D01*
X53590Y-45134D01*
X53600Y-45163D01*
X53603Y-45193D01*
X53604Y-45197D01*
X53604Y-46197D02*
X53601Y-46227D01*
X53592Y-46256D01*
X53577Y-46283D01*
X53558Y-46307D01*
X53534Y-46327D01*
X53507Y-46341D01*
X53478Y-46350D01*
X53448Y-46353D01*
X53418Y-46351D01*
X53389Y-46342D01*
X53362Y-46328D01*
X53338Y-46309D01*
X53318Y-46285D01*
X53303Y-46258D01*
X53294Y-46229D01*
X53291Y-46199D01*
X53293Y-46169D01*
X53302Y-46140D01*
X53316Y-46112D01*
X53335Y-46088D01*
X53358Y-46069D01*
X53385Y-46054D01*
X53414Y-46044D01*
X53444Y-46041D01*
X53474Y-46043D01*
X53503Y-46051D01*
X53531Y-46065D01*
X53555Y-46084D01*
X53575Y-46107D01*
X53590Y-46134D01*
X53600Y-46163D01*
X53603Y-46193D01*
X53604Y-46197D01*
X53767Y-29925D02*
X53764Y-29955D01*
X53755Y-29984D01*
X53740Y-30011D01*
X53721Y-30035D01*
X53697Y-30055D01*
X53670Y-30069D01*
X53641Y-30078D01*
X53611Y-30081D01*
X53581Y-30079D01*
X53552Y-30070D01*
X53525Y-30056D01*
X53501Y-30037D01*
X53481Y-30013D01*
X53466Y-29986D01*
X53457Y-29957D01*
X53454Y-29927D01*
X53456Y-29897D01*
X53465Y-29868D01*
X53479Y-29840D01*
X53498Y-29816D01*
X53521Y-29797D01*
X53548Y-29782D01*
X53577Y-29772D01*
X53607Y-29769D01*
X53637Y-29771D01*
X53666Y-29779D01*
X53694Y-29793D01*
X53718Y-29812D01*
X53738Y-29835D01*
X53753Y-29862D01*
X53763Y-29891D01*
X53766Y-29921D01*
X53767Y-29925D01*
X54604Y-26197D02*
X54601Y-26227D01*
X54592Y-26256D01*
X54577Y-26283D01*
X54558Y-26307D01*
X54534Y-26327D01*
X54507Y-26341D01*
X54478Y-26350D01*
X54448Y-26353D01*
X54418Y-26351D01*
X54389Y-26342D01*
X54362Y-26328D01*
X54338Y-26309D01*
X54318Y-26285D01*
X54303Y-26258D01*
X54294Y-26229D01*
X54291Y-26199D01*
X54293Y-26169D01*
X54302Y-26140D01*
X54316Y-26112D01*
X54335Y-26088D01*
X54358Y-26069D01*
X54385Y-26054D01*
X54414Y-26044D01*
X54444Y-26041D01*
X54474Y-26043D01*
X54503Y-26051D01*
X54531Y-26065D01*
X54555Y-26084D01*
X54575Y-26107D01*
X54590Y-26134D01*
X54600Y-26163D01*
X54603Y-26193D01*
X54604Y-26197D01*
X54604Y-27197D02*
X54601Y-27227D01*
X54592Y-27256D01*
X54577Y-27283D01*
X54558Y-27307D01*
X54534Y-27327D01*
X54507Y-27341D01*
X54478Y-27350D01*
X54448Y-27353D01*
X54418Y-27351D01*
X54389Y-27342D01*
X54362Y-27328D01*
X54338Y-27309D01*
X54318Y-27285D01*
X54303Y-27258D01*
X54294Y-27229D01*
X54291Y-27199D01*
X54293Y-27169D01*
X54302Y-27140D01*
X54316Y-27112D01*
X54335Y-27088D01*
X54358Y-27069D01*
X54385Y-27054D01*
X54414Y-27044D01*
X54444Y-27041D01*
X54474Y-27043D01*
X54503Y-27051D01*
X54531Y-27065D01*
X54555Y-27084D01*
X54575Y-27107D01*
X54590Y-27134D01*
X54600Y-27163D01*
X54603Y-27193D01*
X54604Y-27197D01*
X54604Y-45197D02*
X54601Y-45227D01*
X54592Y-45256D01*
X54577Y-45283D01*
X54558Y-45307D01*
X54534Y-45327D01*
X54507Y-45341D01*
X54478Y-45350D01*
X54448Y-45353D01*
X54418Y-45351D01*
X54389Y-45342D01*
X54362Y-45328D01*
X54338Y-45309D01*
X54318Y-45285D01*
X54303Y-45258D01*
X54294Y-45229D01*
X54291Y-45199D01*
X54293Y-45169D01*
X54302Y-45140D01*
X54316Y-45112D01*
X54335Y-45088D01*
X54358Y-45069D01*
X54385Y-45054D01*
X54414Y-45044D01*
X54444Y-45041D01*
X54474Y-45043D01*
X54503Y-45051D01*
X54531Y-45065D01*
X54555Y-45084D01*
X54575Y-45107D01*
X54590Y-45134D01*
X54600Y-45163D01*
X54603Y-45193D01*
X54604Y-45197D01*
X54604Y-46197D02*
X54601Y-46227D01*
X54592Y-46256D01*
X54577Y-46283D01*
X54558Y-46307D01*
X54534Y-46327D01*
X54507Y-46341D01*
X54478Y-46350D01*
X54448Y-46353D01*
X54418Y-46351D01*
X54389Y-46342D01*
X54362Y-46328D01*
X54338Y-46309D01*
X54318Y-46285D01*
X54303Y-46258D01*
X54294Y-46229D01*
X54291Y-46199D01*
X54293Y-46169D01*
X54302Y-46140D01*
X54316Y-46112D01*
X54335Y-46088D01*
X54358Y-46069D01*
X54385Y-46054D01*
X54414Y-46044D01*
X54444Y-46041D01*
X54474Y-46043D01*
X54503Y-46051D01*
X54531Y-46065D01*
X54555Y-46084D01*
X54575Y-46107D01*
X54590Y-46134D01*
X54600Y-46163D01*
X54603Y-46193D01*
X54604Y-46197D01*
X54767Y-29925D02*
X54764Y-29955D01*
X54755Y-29984D01*
X54740Y-30011D01*
X54721Y-30035D01*
X54697Y-30055D01*
X54670Y-30069D01*
X54641Y-30078D01*
X54611Y-30081D01*
X54581Y-30079D01*
X54552Y-30070D01*
X54525Y-30056D01*
X54501Y-30037D01*
X54481Y-30013D01*
X54466Y-29986D01*
X54457Y-29957D01*
X54454Y-29927D01*
X54456Y-29897D01*
X54465Y-29868D01*
X54479Y-29840D01*
X54498Y-29816D01*
X54521Y-29797D01*
X54548Y-29782D01*
X54577Y-29772D01*
X54607Y-29769D01*
X54637Y-29771D01*
X54666Y-29779D01*
X54694Y-29793D01*
X54718Y-29812D01*
X54738Y-29835D01*
X54753Y-29862D01*
X54763Y-29891D01*
X54766Y-29921D01*
X54767Y-29925D01*
X55604Y-26197D02*
X55601Y-26227D01*
X55592Y-26256D01*
X55577Y-26283D01*
X55558Y-26307D01*
X55534Y-26327D01*
X55507Y-26341D01*
X55478Y-26350D01*
X55448Y-26353D01*
X55418Y-26351D01*
X55389Y-26342D01*
X55362Y-26328D01*
X55338Y-26309D01*
X55318Y-26285D01*
X55303Y-26258D01*
X55294Y-26229D01*
X55291Y-26199D01*
X55293Y-26169D01*
X55302Y-26140D01*
X55316Y-26112D01*
X55335Y-26088D01*
X55358Y-26069D01*
X55385Y-26054D01*
X55414Y-26044D01*
X55444Y-26041D01*
X55474Y-26043D01*
X55503Y-26051D01*
X55531Y-26065D01*
X55555Y-26084D01*
X55575Y-26107D01*
X55590Y-26134D01*
X55600Y-26163D01*
X55603Y-26193D01*
X55604Y-26197D01*
X55604Y-27197D02*
X55601Y-27227D01*
X55592Y-27256D01*
X55577Y-27283D01*
X55558Y-27307D01*
X55534Y-27327D01*
X55507Y-27341D01*
X55478Y-27350D01*
X55448Y-27353D01*
X55418Y-27351D01*
X55389Y-27342D01*
X55362Y-27328D01*
X55338Y-27309D01*
X55318Y-27285D01*
X55303Y-27258D01*
X55294Y-27229D01*
X55291Y-27199D01*
X55293Y-27169D01*
X55302Y-27140D01*
X55316Y-27112D01*
X55335Y-27088D01*
X55358Y-27069D01*
X55385Y-27054D01*
X55414Y-27044D01*
X55444Y-27041D01*
X55474Y-27043D01*
X55503Y-27051D01*
X55531Y-27065D01*
X55555Y-27084D01*
X55575Y-27107D01*
X55590Y-27134D01*
X55600Y-27163D01*
X55603Y-27193D01*
X55604Y-27197D01*
X55604Y-45197D02*
X55601Y-45227D01*
X55592Y-45256D01*
X55577Y-45283D01*
X55558Y-45307D01*
X55534Y-45327D01*
X55507Y-45341D01*
X55478Y-45350D01*
X55448Y-45353D01*
X55418Y-45351D01*
X55389Y-45342D01*
X55362Y-45328D01*
X55338Y-45309D01*
X55318Y-45285D01*
X55303Y-45258D01*
X55294Y-45229D01*
X55291Y-45199D01*
X55293Y-45169D01*
X55302Y-45140D01*
X55316Y-45112D01*
X55335Y-45088D01*
X55358Y-45069D01*
X55385Y-45054D01*
X55414Y-45044D01*
X55444Y-45041D01*
X55474Y-45043D01*
X55503Y-45051D01*
X55531Y-45065D01*
X55555Y-45084D01*
X55575Y-45107D01*
X55590Y-45134D01*
X55600Y-45163D01*
X55603Y-45193D01*
X55604Y-45197D01*
X55604Y-46197D02*
X55601Y-46227D01*
X55592Y-46256D01*
X55577Y-46283D01*
X55558Y-46307D01*
X55534Y-46327D01*
X55507Y-46341D01*
X55478Y-46350D01*
X55448Y-46353D01*
X55418Y-46351D01*
X55389Y-46342D01*
X55362Y-46328D01*
X55338Y-46309D01*
X55318Y-46285D01*
X55303Y-46258D01*
X55294Y-46229D01*
X55291Y-46199D01*
X55293Y-46169D01*
X55302Y-46140D01*
X55316Y-46112D01*
X55335Y-46088D01*
X55358Y-46069D01*
X55385Y-46054D01*
X55414Y-46044D01*
X55444Y-46041D01*
X55474Y-46043D01*
X55503Y-46051D01*
X55531Y-46065D01*
X55555Y-46084D01*
X55575Y-46107D01*
X55590Y-46134D01*
X55600Y-46163D01*
X55603Y-46193D01*
X55604Y-46197D01*
X55767Y-29925D02*
X55764Y-29955D01*
X55755Y-29984D01*
X55740Y-30011D01*
X55721Y-30035D01*
X55697Y-30055D01*
X55670Y-30069D01*
X55641Y-30078D01*
X55611Y-30081D01*
X55581Y-30079D01*
X55552Y-30070D01*
X55525Y-30056D01*
X55501Y-30037D01*
X55481Y-30013D01*
X55466Y-29986D01*
X55457Y-29957D01*
X55454Y-29927D01*
X55456Y-29897D01*
X55465Y-29868D01*
X55479Y-29840D01*
X55498Y-29816D01*
X55521Y-29797D01*
X55548Y-29782D01*
X55577Y-29772D01*
X55607Y-29769D01*
X55637Y-29771D01*
X55666Y-29779D01*
X55694Y-29793D01*
X55718Y-29812D01*
X55738Y-29835D01*
X55753Y-29862D01*
X55763Y-29891D01*
X55766Y-29921D01*
X55767Y-29925D01*
X56604Y-26197D02*
X56601Y-26227D01*
X56592Y-26256D01*
X56577Y-26283D01*
X56558Y-26307D01*
X56534Y-26327D01*
X56507Y-26341D01*
X56478Y-26350D01*
X56448Y-26353D01*
X56418Y-26351D01*
X56389Y-26342D01*
X56362Y-26328D01*
X56338Y-26309D01*
X56318Y-26285D01*
X56303Y-26258D01*
X56294Y-26229D01*
X56291Y-26199D01*
X56293Y-26169D01*
X56302Y-26140D01*
X56316Y-26112D01*
X56335Y-26088D01*
X56358Y-26069D01*
X56385Y-26054D01*
X56414Y-26044D01*
X56444Y-26041D01*
X56474Y-26043D01*
X56503Y-26051D01*
X56531Y-26065D01*
X56555Y-26084D01*
X56575Y-26107D01*
X56590Y-26134D01*
X56600Y-26163D01*
X56603Y-26193D01*
X56604Y-26197D01*
X56604Y-27197D02*
X56601Y-27227D01*
X56592Y-27256D01*
X56577Y-27283D01*
X56558Y-27307D01*
X56534Y-27327D01*
X56507Y-27341D01*
X56478Y-27350D01*
X56448Y-27353D01*
X56418Y-27351D01*
X56389Y-27342D01*
X56362Y-27328D01*
X56338Y-27309D01*
X56318Y-27285D01*
X56303Y-27258D01*
X56294Y-27229D01*
X56291Y-27199D01*
X56293Y-27169D01*
X56302Y-27140D01*
X56316Y-27112D01*
X56335Y-27088D01*
X56358Y-27069D01*
X56385Y-27054D01*
X56414Y-27044D01*
X56444Y-27041D01*
X56474Y-27043D01*
X56503Y-27051D01*
X56531Y-27065D01*
X56555Y-27084D01*
X56575Y-27107D01*
X56590Y-27134D01*
X56600Y-27163D01*
X56603Y-27193D01*
X56604Y-27197D01*
X56604Y-45197D02*
X56601Y-45227D01*
X56592Y-45256D01*
X56577Y-45283D01*
X56558Y-45307D01*
X56534Y-45327D01*
X56507Y-45341D01*
X56478Y-45350D01*
X56448Y-45353D01*
X56418Y-45351D01*
X56389Y-45342D01*
X56362Y-45328D01*
X56338Y-45309D01*
X56318Y-45285D01*
X56303Y-45258D01*
X56294Y-45229D01*
X56291Y-45199D01*
X56293Y-45169D01*
X56302Y-45140D01*
X56316Y-45112D01*
X56335Y-45088D01*
X56358Y-45069D01*
X56385Y-45054D01*
X56414Y-45044D01*
X56444Y-45041D01*
X56474Y-45043D01*
X56503Y-45051D01*
X56531Y-45065D01*
X56555Y-45084D01*
X56575Y-45107D01*
X56590Y-45134D01*
X56600Y-45163D01*
X56603Y-45193D01*
X56604Y-45197D01*
X56604Y-46197D02*
X56601Y-46227D01*
X56592Y-46256D01*
X56577Y-46283D01*
X56558Y-46307D01*
X56534Y-46327D01*
X56507Y-46341D01*
X56478Y-46350D01*
X56448Y-46353D01*
X56418Y-46351D01*
X56389Y-46342D01*
X56362Y-46328D01*
X56338Y-46309D01*
X56318Y-46285D01*
X56303Y-46258D01*
X56294Y-46229D01*
X56291Y-46199D01*
X56293Y-46169D01*
X56302Y-46140D01*
X56316Y-46112D01*
X56335Y-46088D01*
X56358Y-46069D01*
X56385Y-46054D01*
X56414Y-46044D01*
X56444Y-46041D01*
X56474Y-46043D01*
X56503Y-46051D01*
X56531Y-46065D01*
X56555Y-46084D01*
X56575Y-46107D01*
X56590Y-46134D01*
X56600Y-46163D01*
X56603Y-46193D01*
X56604Y-46197D01*
X57604Y-26197D02*
X57601Y-26227D01*
X57592Y-26256D01*
X57577Y-26283D01*
X57558Y-26307D01*
X57534Y-26327D01*
X57507Y-26341D01*
X57478Y-26350D01*
X57448Y-26353D01*
X57418Y-26351D01*
X57389Y-26342D01*
X57362Y-26328D01*
X57338Y-26309D01*
X57318Y-26285D01*
X57303Y-26258D01*
X57294Y-26229D01*
X57291Y-26199D01*
X57293Y-26169D01*
X57302Y-26140D01*
X57316Y-26112D01*
X57335Y-26088D01*
X57358Y-26069D01*
X57385Y-26054D01*
X57414Y-26044D01*
X57444Y-26041D01*
X57474Y-26043D01*
X57503Y-26051D01*
X57531Y-26065D01*
X57555Y-26084D01*
X57575Y-26107D01*
X57590Y-26134D01*
X57600Y-26163D01*
X57603Y-26193D01*
X57604Y-26197D01*
X57604Y-27197D02*
X57601Y-27227D01*
X57592Y-27256D01*
X57577Y-27283D01*
X57558Y-27307D01*
X57534Y-27327D01*
X57507Y-27341D01*
X57478Y-27350D01*
X57448Y-27353D01*
X57418Y-27351D01*
X57389Y-27342D01*
X57362Y-27328D01*
X57338Y-27309D01*
X57318Y-27285D01*
X57303Y-27258D01*
X57294Y-27229D01*
X57291Y-27199D01*
X57293Y-27169D01*
X57302Y-27140D01*
X57316Y-27112D01*
X57335Y-27088D01*
X57358Y-27069D01*
X57385Y-27054D01*
X57414Y-27044D01*
X57444Y-27041D01*
X57474Y-27043D01*
X57503Y-27051D01*
X57531Y-27065D01*
X57555Y-27084D01*
X57575Y-27107D01*
X57590Y-27134D01*
X57600Y-27163D01*
X57603Y-27193D01*
X57604Y-27197D01*
X57604Y-45197D02*
X57601Y-45227D01*
X57592Y-45256D01*
X57577Y-45283D01*
X57558Y-45307D01*
X57534Y-45327D01*
X57507Y-45341D01*
X57478Y-45350D01*
X57448Y-45353D01*
X57418Y-45351D01*
X57389Y-45342D01*
X57362Y-45328D01*
X57338Y-45309D01*
X57318Y-45285D01*
X57303Y-45258D01*
X57294Y-45229D01*
X57291Y-45199D01*
X57293Y-45169D01*
X57302Y-45140D01*
X57316Y-45112D01*
X57335Y-45088D01*
X57358Y-45069D01*
X57385Y-45054D01*
X57414Y-45044D01*
X57444Y-45041D01*
X57474Y-45043D01*
X57503Y-45051D01*
X57531Y-45065D01*
X57555Y-45084D01*
X57575Y-45107D01*
X57590Y-45134D01*
X57600Y-45163D01*
X57603Y-45193D01*
X57604Y-45197D01*
X57604Y-46197D02*
X57601Y-46227D01*
X57592Y-46256D01*
X57577Y-46283D01*
X57558Y-46307D01*
X57534Y-46327D01*
X57507Y-46341D01*
X57478Y-46350D01*
X57448Y-46353D01*
X57418Y-46351D01*
X57389Y-46342D01*
X57362Y-46328D01*
X57338Y-46309D01*
X57318Y-46285D01*
X57303Y-46258D01*
X57294Y-46229D01*
X57291Y-46199D01*
X57293Y-46169D01*
X57302Y-46140D01*
X57316Y-46112D01*
X57335Y-46088D01*
X57358Y-46069D01*
X57385Y-46054D01*
X57414Y-46044D01*
X57444Y-46041D01*
X57474Y-46043D01*
X57503Y-46051D01*
X57531Y-46065D01*
X57555Y-46084D01*
X57575Y-46107D01*
X57590Y-46134D01*
X57600Y-46163D01*
X57603Y-46193D01*
X57604Y-46197D01*
X58604Y-26197D02*
X58601Y-26227D01*
X58592Y-26256D01*
X58577Y-26283D01*
X58558Y-26307D01*
X58534Y-26327D01*
X58507Y-26341D01*
X58478Y-26350D01*
X58448Y-26353D01*
X58418Y-26351D01*
X58389Y-26342D01*
X58362Y-26328D01*
X58338Y-26309D01*
X58318Y-26285D01*
X58303Y-26258D01*
X58294Y-26229D01*
X58291Y-26199D01*
X58293Y-26169D01*
X58302Y-26140D01*
X58316Y-26112D01*
X58335Y-26088D01*
X58358Y-26069D01*
X58385Y-26054D01*
X58414Y-26044D01*
X58444Y-26041D01*
X58474Y-26043D01*
X58503Y-26051D01*
X58531Y-26065D01*
X58555Y-26084D01*
X58575Y-26107D01*
X58590Y-26134D01*
X58600Y-26163D01*
X58603Y-26193D01*
X58604Y-26197D01*
X58604Y-27197D02*
X58601Y-27227D01*
X58592Y-27256D01*
X58577Y-27283D01*
X58558Y-27307D01*
X58534Y-27327D01*
X58507Y-27341D01*
X58478Y-27350D01*
X58448Y-27353D01*
X58418Y-27351D01*
X58389Y-27342D01*
X58362Y-27328D01*
X58338Y-27309D01*
X58318Y-27285D01*
X58303Y-27258D01*
X58294Y-27229D01*
X58291Y-27199D01*
X58293Y-27169D01*
X58302Y-27140D01*
X58316Y-27112D01*
X58335Y-27088D01*
X58358Y-27069D01*
X58385Y-27054D01*
X58414Y-27044D01*
X58444Y-27041D01*
X58474Y-27043D01*
X58503Y-27051D01*
X58531Y-27065D01*
X58555Y-27084D01*
X58575Y-27107D01*
X58590Y-27134D01*
X58600Y-27163D01*
X58603Y-27193D01*
X58604Y-27197D01*
X58604Y-45197D02*
X58601Y-45227D01*
X58592Y-45256D01*
X58577Y-45283D01*
X58558Y-45307D01*
X58534Y-45327D01*
X58507Y-45341D01*
X58478Y-45350D01*
X58448Y-45353D01*
X58418Y-45351D01*
X58389Y-45342D01*
X58362Y-45328D01*
X58338Y-45309D01*
X58318Y-45285D01*
X58303Y-45258D01*
X58294Y-45229D01*
X58291Y-45199D01*
X58293Y-45169D01*
X58302Y-45140D01*
X58316Y-45112D01*
X58335Y-45088D01*
X58358Y-45069D01*
X58385Y-45054D01*
X58414Y-45044D01*
X58444Y-45041D01*
X58474Y-45043D01*
X58503Y-45051D01*
X58531Y-45065D01*
X58555Y-45084D01*
X58575Y-45107D01*
X58590Y-45134D01*
X58600Y-45163D01*
X58603Y-45193D01*
X58604Y-45197D01*
X58604Y-46197D02*
X58601Y-46227D01*
X58592Y-46256D01*
X58577Y-46283D01*
X58558Y-46307D01*
X58534Y-46327D01*
X58507Y-46341D01*
X58478Y-46350D01*
X58448Y-46353D01*
X58418Y-46351D01*
X58389Y-46342D01*
X58362Y-46328D01*
X58338Y-46309D01*
X58318Y-46285D01*
X58303Y-46258D01*
X58294Y-46229D01*
X58291Y-46199D01*
X58293Y-46169D01*
X58302Y-46140D01*
X58316Y-46112D01*
X58335Y-46088D01*
X58358Y-46069D01*
X58385Y-46054D01*
X58414Y-46044D01*
X58444Y-46041D01*
X58474Y-46043D01*
X58503Y-46051D01*
X58531Y-46065D01*
X58555Y-46084D01*
X58575Y-46107D01*
X58590Y-46134D01*
X58600Y-46163D01*
X58603Y-46193D01*
X58604Y-46197D01*
X59604Y-26197D02*
X59601Y-26227D01*
X59592Y-26256D01*
X59577Y-26283D01*
X59558Y-26307D01*
X59534Y-26327D01*
X59507Y-26341D01*
X59478Y-26350D01*
X59448Y-26353D01*
X59418Y-26351D01*
X59389Y-26342D01*
X59362Y-26328D01*
X59338Y-26309D01*
X59318Y-26285D01*
X59303Y-26258D01*
X59294Y-26229D01*
X59291Y-26199D01*
X59293Y-26169D01*
X59302Y-26140D01*
X59316Y-26112D01*
X59335Y-26088D01*
X59358Y-26069D01*
X59385Y-26054D01*
X59414Y-26044D01*
X59444Y-26041D01*
X59474Y-26043D01*
X59503Y-26051D01*
X59531Y-26065D01*
X59555Y-26084D01*
X59575Y-26107D01*
X59590Y-26134D01*
X59600Y-26163D01*
X59603Y-26193D01*
X59604Y-26197D01*
X59604Y-27197D02*
X59601Y-27227D01*
X59592Y-27256D01*
X59577Y-27283D01*
X59558Y-27307D01*
X59534Y-27327D01*
X59507Y-27341D01*
X59478Y-27350D01*
X59448Y-27353D01*
X59418Y-27351D01*
X59389Y-27342D01*
X59362Y-27328D01*
X59338Y-27309D01*
X59318Y-27285D01*
X59303Y-27258D01*
X59294Y-27229D01*
X59291Y-27199D01*
X59293Y-27169D01*
X59302Y-27140D01*
X59316Y-27112D01*
X59335Y-27088D01*
X59358Y-27069D01*
X59385Y-27054D01*
X59414Y-27044D01*
X59444Y-27041D01*
X59474Y-27043D01*
X59503Y-27051D01*
X59531Y-27065D01*
X59555Y-27084D01*
X59575Y-27107D01*
X59590Y-27134D01*
X59600Y-27163D01*
X59603Y-27193D01*
X59604Y-27197D01*
X59604Y-45197D02*
X59601Y-45227D01*
X59592Y-45256D01*
X59577Y-45283D01*
X59558Y-45307D01*
X59534Y-45327D01*
X59507Y-45341D01*
X59478Y-45350D01*
X59448Y-45353D01*
X59418Y-45351D01*
X59389Y-45342D01*
X59362Y-45328D01*
X59338Y-45309D01*
X59318Y-45285D01*
X59303Y-45258D01*
X59294Y-45229D01*
X59291Y-45199D01*
X59293Y-45169D01*
X59302Y-45140D01*
X59316Y-45112D01*
X59335Y-45088D01*
X59358Y-45069D01*
X59385Y-45054D01*
X59414Y-45044D01*
X59444Y-45041D01*
X59474Y-45043D01*
X59503Y-45051D01*
X59531Y-45065D01*
X59555Y-45084D01*
X59575Y-45107D01*
X59590Y-45134D01*
X59600Y-45163D01*
X59603Y-45193D01*
X59604Y-45197D01*
X59604Y-46197D02*
X59601Y-46227D01*
X59592Y-46256D01*
X59577Y-46283D01*
X59558Y-46307D01*
X59534Y-46327D01*
X59507Y-46341D01*
X59478Y-46350D01*
X59448Y-46353D01*
X59418Y-46351D01*
X59389Y-46342D01*
X59362Y-46328D01*
X59338Y-46309D01*
X59318Y-46285D01*
X59303Y-46258D01*
X59294Y-46229D01*
X59291Y-46199D01*
X59293Y-46169D01*
X59302Y-46140D01*
X59316Y-46112D01*
X59335Y-46088D01*
X59358Y-46069D01*
X59385Y-46054D01*
X59414Y-46044D01*
X59444Y-46041D01*
X59474Y-46043D01*
X59503Y-46051D01*
X59531Y-46065D01*
X59555Y-46084D01*
X59575Y-46107D01*
X59590Y-46134D01*
X59600Y-46163D01*
X59603Y-46193D01*
X59604Y-46197D01*
X60604Y-26197D02*
X60601Y-26227D01*
X60592Y-26256D01*
X60577Y-26283D01*
X60558Y-26307D01*
X60534Y-26327D01*
X60507Y-26341D01*
X60478Y-26350D01*
X60448Y-26353D01*
X60418Y-26351D01*
X60389Y-26342D01*
X60362Y-26328D01*
X60338Y-26309D01*
X60318Y-26285D01*
X60303Y-26258D01*
X60294Y-26229D01*
X60291Y-26199D01*
X60293Y-26169D01*
X60302Y-26140D01*
X60316Y-26112D01*
X60335Y-26088D01*
X60358Y-26069D01*
X60385Y-26054D01*
X60414Y-26044D01*
X60444Y-26041D01*
X60474Y-26043D01*
X60503Y-26051D01*
X60531Y-26065D01*
X60555Y-26084D01*
X60575Y-26107D01*
X60590Y-26134D01*
X60600Y-26163D01*
X60603Y-26193D01*
X60604Y-26197D01*
X60604Y-27197D02*
X60601Y-27227D01*
X60592Y-27256D01*
X60577Y-27283D01*
X60558Y-27307D01*
X60534Y-27327D01*
X60507Y-27341D01*
X60478Y-27350D01*
X60448Y-27353D01*
X60418Y-27351D01*
X60389Y-27342D01*
X60362Y-27328D01*
X60338Y-27309D01*
X60318Y-27285D01*
X60303Y-27258D01*
X60294Y-27229D01*
X60291Y-27199D01*
X60293Y-27169D01*
X60302Y-27140D01*
X60316Y-27112D01*
X60335Y-27088D01*
X60358Y-27069D01*
X60385Y-27054D01*
X60414Y-27044D01*
X60444Y-27041D01*
X60474Y-27043D01*
X60503Y-27051D01*
X60531Y-27065D01*
X60555Y-27084D01*
X60575Y-27107D01*
X60590Y-27134D01*
X60600Y-27163D01*
X60603Y-27193D01*
X60604Y-27197D01*
X60604Y-45197D02*
X60601Y-45227D01*
X60592Y-45256D01*
X60577Y-45283D01*
X60558Y-45307D01*
X60534Y-45327D01*
X60507Y-45341D01*
X60478Y-45350D01*
X60448Y-45353D01*
X60418Y-45351D01*
X60389Y-45342D01*
X60362Y-45328D01*
X60338Y-45309D01*
X60318Y-45285D01*
X60303Y-45258D01*
X60294Y-45229D01*
X60291Y-45199D01*
X60293Y-45169D01*
X60302Y-45140D01*
X60316Y-45112D01*
X60335Y-45088D01*
X60358Y-45069D01*
X60385Y-45054D01*
X60414Y-45044D01*
X60444Y-45041D01*
X60474Y-45043D01*
X60503Y-45051D01*
X60531Y-45065D01*
X60555Y-45084D01*
X60575Y-45107D01*
X60590Y-45134D01*
X60600Y-45163D01*
X60603Y-45193D01*
X60604Y-45197D01*
X60604Y-46197D02*
X60601Y-46227D01*
X60592Y-46256D01*
X60577Y-46283D01*
X60558Y-46307D01*
X60534Y-46327D01*
X60507Y-46341D01*
X60478Y-46350D01*
X60448Y-46353D01*
X60418Y-46351D01*
X60389Y-46342D01*
X60362Y-46328D01*
X60338Y-46309D01*
X60318Y-46285D01*
X60303Y-46258D01*
X60294Y-46229D01*
X60291Y-46199D01*
X60293Y-46169D01*
X60302Y-46140D01*
X60316Y-46112D01*
X60335Y-46088D01*
X60358Y-46069D01*
X60385Y-46054D01*
X60414Y-46044D01*
X60444Y-46041D01*
X60474Y-46043D01*
X60503Y-46051D01*
X60531Y-46065D01*
X60555Y-46084D01*
X60575Y-46107D01*
X60590Y-46134D01*
X60600Y-46163D01*
X60603Y-46193D01*
X60604Y-46197D01*
X61604Y-26197D02*
X61601Y-26227D01*
X61592Y-26256D01*
X61577Y-26283D01*
X61558Y-26307D01*
X61534Y-26327D01*
X61507Y-26341D01*
X61478Y-26350D01*
X61448Y-26353D01*
X61418Y-26351D01*
X61389Y-26342D01*
X61362Y-26328D01*
X61338Y-26309D01*
X61318Y-26285D01*
X61303Y-26258D01*
X61294Y-26229D01*
X61291Y-26199D01*
X61293Y-26169D01*
X61302Y-26140D01*
X61316Y-26112D01*
X61335Y-26088D01*
X61358Y-26069D01*
X61385Y-26054D01*
X61414Y-26044D01*
X61444Y-26041D01*
X61474Y-26043D01*
X61503Y-26051D01*
X61531Y-26065D01*
X61555Y-26084D01*
X61575Y-26107D01*
X61590Y-26134D01*
X61600Y-26163D01*
X61603Y-26193D01*
X61604Y-26197D01*
X61604Y-27197D02*
X61601Y-27227D01*
X61592Y-27256D01*
X61577Y-27283D01*
X61558Y-27307D01*
X61534Y-27327D01*
X61507Y-27341D01*
X61478Y-27350D01*
X61448Y-27353D01*
X61418Y-27351D01*
X61389Y-27342D01*
X61362Y-27328D01*
X61338Y-27309D01*
X61318Y-27285D01*
X61303Y-27258D01*
X61294Y-27229D01*
X61291Y-27199D01*
X61293Y-27169D01*
X61302Y-27140D01*
X61316Y-27112D01*
X61335Y-27088D01*
X61358Y-27069D01*
X61385Y-27054D01*
X61414Y-27044D01*
X61444Y-27041D01*
X61474Y-27043D01*
X61503Y-27051D01*
X61531Y-27065D01*
X61555Y-27084D01*
X61575Y-27107D01*
X61590Y-27134D01*
X61600Y-27163D01*
X61603Y-27193D01*
X61604Y-27197D01*
X61604Y-45197D02*
X61601Y-45227D01*
X61592Y-45256D01*
X61577Y-45283D01*
X61558Y-45307D01*
X61534Y-45327D01*
X61507Y-45341D01*
X61478Y-45350D01*
X61448Y-45353D01*
X61418Y-45351D01*
X61389Y-45342D01*
X61362Y-45328D01*
X61338Y-45309D01*
X61318Y-45285D01*
X61303Y-45258D01*
X61294Y-45229D01*
X61291Y-45199D01*
X61293Y-45169D01*
X61302Y-45140D01*
X61316Y-45112D01*
X61335Y-45088D01*
X61358Y-45069D01*
X61385Y-45054D01*
X61414Y-45044D01*
X61444Y-45041D01*
X61474Y-45043D01*
X61503Y-45051D01*
X61531Y-45065D01*
X61555Y-45084D01*
X61575Y-45107D01*
X61590Y-45134D01*
X61600Y-45163D01*
X61603Y-45193D01*
X61604Y-45197D01*
X61604Y-46197D02*
X61601Y-46227D01*
X61592Y-46256D01*
X61577Y-46283D01*
X61558Y-46307D01*
X61534Y-46327D01*
X61507Y-46341D01*
X61478Y-46350D01*
X61448Y-46353D01*
X61418Y-46351D01*
X61389Y-46342D01*
X61362Y-46328D01*
X61338Y-46309D01*
X61318Y-46285D01*
X61303Y-46258D01*
X61294Y-46229D01*
X61291Y-46199D01*
X61293Y-46169D01*
X61302Y-46140D01*
X61316Y-46112D01*
X61335Y-46088D01*
X61358Y-46069D01*
X61385Y-46054D01*
X61414Y-46044D01*
X61444Y-46041D01*
X61474Y-46043D01*
X61503Y-46051D01*
X61531Y-46065D01*
X61555Y-46084D01*
X61575Y-46107D01*
X61590Y-46134D01*
X61600Y-46163D01*
X61603Y-46193D01*
X61604Y-46197D01*
X62604Y-26197D02*
X62601Y-26227D01*
X62592Y-26256D01*
X62577Y-26283D01*
X62558Y-26307D01*
X62534Y-26327D01*
X62507Y-26341D01*
X62478Y-26350D01*
X62448Y-26353D01*
X62418Y-26351D01*
X62389Y-26342D01*
X62362Y-26328D01*
X62338Y-26309D01*
X62318Y-26285D01*
X62303Y-26258D01*
X62294Y-26229D01*
X62291Y-26199D01*
X62293Y-26169D01*
X62302Y-26140D01*
X62316Y-26112D01*
X62335Y-26088D01*
X62358Y-26069D01*
X62385Y-26054D01*
X62414Y-26044D01*
X62444Y-26041D01*
X62474Y-26043D01*
X62503Y-26051D01*
X62531Y-26065D01*
X62555Y-26084D01*
X62575Y-26107D01*
X62590Y-26134D01*
X62600Y-26163D01*
X62603Y-26193D01*
X62604Y-26197D01*
X62604Y-27197D02*
X62601Y-27227D01*
X62592Y-27256D01*
X62577Y-27283D01*
X62558Y-27307D01*
X62534Y-27327D01*
X62507Y-27341D01*
X62478Y-27350D01*
X62448Y-27353D01*
X62418Y-27351D01*
X62389Y-27342D01*
X62362Y-27328D01*
X62338Y-27309D01*
X62318Y-27285D01*
X62303Y-27258D01*
X62294Y-27229D01*
X62291Y-27199D01*
X62293Y-27169D01*
X62302Y-27140D01*
X62316Y-27112D01*
X62335Y-27088D01*
X62358Y-27069D01*
X62385Y-27054D01*
X62414Y-27044D01*
X62444Y-27041D01*
X62474Y-27043D01*
X62503Y-27051D01*
X62531Y-27065D01*
X62555Y-27084D01*
X62575Y-27107D01*
X62590Y-27134D01*
X62600Y-27163D01*
X62603Y-27193D01*
X62604Y-27197D01*
X62604Y-45197D02*
X62601Y-45227D01*
X62592Y-45256D01*
X62577Y-45283D01*
X62558Y-45307D01*
X62534Y-45327D01*
X62507Y-45341D01*
X62478Y-45350D01*
X62448Y-45353D01*
X62418Y-45351D01*
X62389Y-45342D01*
X62362Y-45328D01*
X62338Y-45309D01*
X62318Y-45285D01*
X62303Y-45258D01*
X62294Y-45229D01*
X62291Y-45199D01*
X62293Y-45169D01*
X62302Y-45140D01*
X62316Y-45112D01*
X62335Y-45088D01*
X62358Y-45069D01*
X62385Y-45054D01*
X62414Y-45044D01*
X62444Y-45041D01*
X62474Y-45043D01*
X62503Y-45051D01*
X62531Y-45065D01*
X62555Y-45084D01*
X62575Y-45107D01*
X62590Y-45134D01*
X62600Y-45163D01*
X62603Y-45193D01*
X62604Y-45197D01*
X62604Y-46197D02*
X62601Y-46227D01*
X62592Y-46256D01*
X62577Y-46283D01*
X62558Y-46307D01*
X62534Y-46327D01*
X62507Y-46341D01*
X62478Y-46350D01*
X62448Y-46353D01*
X62418Y-46351D01*
X62389Y-46342D01*
X62362Y-46328D01*
X62338Y-46309D01*
X62318Y-46285D01*
X62303Y-46258D01*
X62294Y-46229D01*
X62291Y-46199D01*
X62293Y-46169D01*
X62302Y-46140D01*
X62316Y-46112D01*
X62335Y-46088D01*
X62358Y-46069D01*
X62385Y-46054D01*
X62414Y-46044D01*
X62444Y-46041D01*
X62474Y-46043D01*
X62503Y-46051D01*
X62531Y-46065D01*
X62555Y-46084D01*
X62575Y-46107D01*
X62590Y-46134D01*
X62600Y-46163D01*
X62603Y-46193D01*
X62604Y-46197D01*
X63604Y-26197D02*
X63601Y-26227D01*
X63592Y-26256D01*
X63577Y-26283D01*
X63558Y-26307D01*
X63534Y-26327D01*
X63507Y-26341D01*
X63478Y-26350D01*
X63448Y-26353D01*
X63418Y-26351D01*
X63389Y-26342D01*
X63362Y-26328D01*
X63338Y-26309D01*
X63318Y-26285D01*
X63303Y-26258D01*
X63294Y-26229D01*
X63291Y-26199D01*
X63293Y-26169D01*
X63302Y-26140D01*
X63316Y-26112D01*
X63335Y-26088D01*
X63358Y-26069D01*
X63385Y-26054D01*
X63414Y-26044D01*
X63444Y-26041D01*
X63474Y-26043D01*
X63503Y-26051D01*
X63531Y-26065D01*
X63555Y-26084D01*
X63575Y-26107D01*
X63590Y-26134D01*
X63600Y-26163D01*
X63603Y-26193D01*
X63604Y-26197D01*
X63604Y-27197D02*
X63601Y-27227D01*
X63592Y-27256D01*
X63577Y-27283D01*
X63558Y-27307D01*
X63534Y-27327D01*
X63507Y-27341D01*
X63478Y-27350D01*
X63448Y-27353D01*
X63418Y-27351D01*
X63389Y-27342D01*
X63362Y-27328D01*
X63338Y-27309D01*
X63318Y-27285D01*
X63303Y-27258D01*
X63294Y-27229D01*
X63291Y-27199D01*
X63293Y-27169D01*
X63302Y-27140D01*
X63316Y-27112D01*
X63335Y-27088D01*
X63358Y-27069D01*
X63385Y-27054D01*
X63414Y-27044D01*
X63444Y-27041D01*
X63474Y-27043D01*
X63503Y-27051D01*
X63531Y-27065D01*
X63555Y-27084D01*
X63575Y-27107D01*
X63590Y-27134D01*
X63600Y-27163D01*
X63603Y-27193D01*
X63604Y-27197D01*
X63604Y-45197D02*
X63601Y-45227D01*
X63592Y-45256D01*
X63577Y-45283D01*
X63558Y-45307D01*
X63534Y-45327D01*
X63507Y-45341D01*
X63478Y-45350D01*
X63448Y-45353D01*
X63418Y-45351D01*
X63389Y-45342D01*
X63362Y-45328D01*
X63338Y-45309D01*
X63318Y-45285D01*
X63303Y-45258D01*
X63294Y-45229D01*
X63291Y-45199D01*
X63293Y-45169D01*
X63302Y-45140D01*
X63316Y-45112D01*
X63335Y-45088D01*
X63358Y-45069D01*
X63385Y-45054D01*
X63414Y-45044D01*
X63444Y-45041D01*
X63474Y-45043D01*
X63503Y-45051D01*
X63531Y-45065D01*
X63555Y-45084D01*
X63575Y-45107D01*
X63590Y-45134D01*
X63600Y-45163D01*
X63603Y-45193D01*
X63604Y-45197D01*
X63604Y-46197D02*
X63601Y-46227D01*
X63592Y-46256D01*
X63577Y-46283D01*
X63558Y-46307D01*
X63534Y-46327D01*
X63507Y-46341D01*
X63478Y-46350D01*
X63448Y-46353D01*
X63418Y-46351D01*
X63389Y-46342D01*
X63362Y-46328D01*
X63338Y-46309D01*
X63318Y-46285D01*
X63303Y-46258D01*
X63294Y-46229D01*
X63291Y-46199D01*
X63293Y-46169D01*
X63302Y-46140D01*
X63316Y-46112D01*
X63335Y-46088D01*
X63358Y-46069D01*
X63385Y-46054D01*
X63414Y-46044D01*
X63444Y-46041D01*
X63474Y-46043D01*
X63503Y-46051D01*
X63531Y-46065D01*
X63555Y-46084D01*
X63575Y-46107D01*
X63590Y-46134D01*
X63600Y-46163D01*
X63603Y-46193D01*
X63604Y-46197D01*
X64604Y-26197D02*
X64601Y-26227D01*
X64592Y-26256D01*
X64577Y-26283D01*
X64558Y-26307D01*
X64534Y-26327D01*
X64507Y-26341D01*
X64478Y-26350D01*
X64448Y-26353D01*
X64418Y-26351D01*
X64389Y-26342D01*
X64362Y-26328D01*
X64338Y-26309D01*
X64318Y-26285D01*
X64303Y-26258D01*
X64294Y-26229D01*
X64291Y-26199D01*
X64293Y-26169D01*
X64302Y-26140D01*
X64316Y-26112D01*
X64335Y-26088D01*
X64358Y-26069D01*
X64385Y-26054D01*
X64414Y-26044D01*
X64444Y-26041D01*
X64474Y-26043D01*
X64503Y-26051D01*
X64531Y-26065D01*
X64555Y-26084D01*
X64575Y-26107D01*
X64590Y-26134D01*
X64600Y-26163D01*
X64603Y-26193D01*
X64604Y-26197D01*
X64604Y-27197D02*
X64601Y-27227D01*
X64592Y-27256D01*
X64577Y-27283D01*
X64558Y-27307D01*
X64534Y-27327D01*
X64507Y-27341D01*
X64478Y-27350D01*
X64448Y-27353D01*
X64418Y-27351D01*
X64389Y-27342D01*
X64362Y-27328D01*
X64338Y-27309D01*
X64318Y-27285D01*
X64303Y-27258D01*
X64294Y-27229D01*
X64291Y-27199D01*
X64293Y-27169D01*
X64302Y-27140D01*
X64316Y-27112D01*
X64335Y-27088D01*
X64358Y-27069D01*
X64385Y-27054D01*
X64414Y-27044D01*
X64444Y-27041D01*
X64474Y-27043D01*
X64503Y-27051D01*
X64531Y-27065D01*
X64555Y-27084D01*
X64575Y-27107D01*
X64590Y-27134D01*
X64600Y-27163D01*
X64603Y-27193D01*
X64604Y-27197D01*
X64604Y-45197D02*
X64601Y-45227D01*
X64592Y-45256D01*
X64577Y-45283D01*
X64558Y-45307D01*
X64534Y-45327D01*
X64507Y-45341D01*
X64478Y-45350D01*
X64448Y-45353D01*
X64418Y-45351D01*
X64389Y-45342D01*
X64362Y-45328D01*
X64338Y-45309D01*
X64318Y-45285D01*
X64303Y-45258D01*
X64294Y-45229D01*
X64291Y-45199D01*
X64293Y-45169D01*
X64302Y-45140D01*
X64316Y-45112D01*
X64335Y-45088D01*
X64358Y-45069D01*
X64385Y-45054D01*
X64414Y-45044D01*
X64444Y-45041D01*
X64474Y-45043D01*
X64503Y-45051D01*
X64531Y-45065D01*
X64555Y-45084D01*
X64575Y-45107D01*
X64590Y-45134D01*
X64600Y-45163D01*
X64603Y-45193D01*
X64604Y-45197D01*
X64604Y-46197D02*
X64601Y-46227D01*
X64592Y-46256D01*
X64577Y-46283D01*
X64558Y-46307D01*
X64534Y-46327D01*
X64507Y-46341D01*
X64478Y-46350D01*
X64448Y-46353D01*
X64418Y-46351D01*
X64389Y-46342D01*
X64362Y-46328D01*
X64338Y-46309D01*
X64318Y-46285D01*
X64303Y-46258D01*
X64294Y-46229D01*
X64291Y-46199D01*
X64293Y-46169D01*
X64302Y-46140D01*
X64316Y-46112D01*
X64335Y-46088D01*
X64358Y-46069D01*
X64385Y-46054D01*
X64414Y-46044D01*
X64444Y-46041D01*
X64474Y-46043D01*
X64503Y-46051D01*
X64531Y-46065D01*
X64555Y-46084D01*
X64575Y-46107D01*
X64590Y-46134D01*
X64600Y-46163D01*
X64603Y-46193D01*
X64604Y-46197D01*
X65604Y-26197D02*
X65601Y-26227D01*
X65592Y-26256D01*
X65577Y-26283D01*
X65558Y-26307D01*
X65534Y-26327D01*
X65507Y-26341D01*
X65478Y-26350D01*
X65448Y-26353D01*
X65418Y-26351D01*
X65389Y-26342D01*
X65362Y-26328D01*
X65338Y-26309D01*
X65318Y-26285D01*
X65303Y-26258D01*
X65294Y-26229D01*
X65291Y-26199D01*
X65293Y-26169D01*
X65302Y-26140D01*
X65316Y-26112D01*
X65335Y-26088D01*
X65358Y-26069D01*
X65385Y-26054D01*
X65414Y-26044D01*
X65444Y-26041D01*
X65474Y-26043D01*
X65503Y-26051D01*
X65531Y-26065D01*
X65555Y-26084D01*
X65575Y-26107D01*
X65590Y-26134D01*
X65600Y-26163D01*
X65603Y-26193D01*
X65604Y-26197D01*
X65604Y-27197D02*
X65601Y-27227D01*
X65592Y-27256D01*
X65577Y-27283D01*
X65558Y-27307D01*
X65534Y-27327D01*
X65507Y-27341D01*
X65478Y-27350D01*
X65448Y-27353D01*
X65418Y-27351D01*
X65389Y-27342D01*
X65362Y-27328D01*
X65338Y-27309D01*
X65318Y-27285D01*
X65303Y-27258D01*
X65294Y-27229D01*
X65291Y-27199D01*
X65293Y-27169D01*
X65302Y-27140D01*
X65316Y-27112D01*
X65335Y-27088D01*
X65358Y-27069D01*
X65385Y-27054D01*
X65414Y-27044D01*
X65444Y-27041D01*
X65474Y-27043D01*
X65503Y-27051D01*
X65531Y-27065D01*
X65555Y-27084D01*
X65575Y-27107D01*
X65590Y-27134D01*
X65600Y-27163D01*
X65603Y-27193D01*
X65604Y-27197D01*
X65604Y-45197D02*
X65601Y-45227D01*
X65592Y-45256D01*
X65577Y-45283D01*
X65558Y-45307D01*
X65534Y-45327D01*
X65507Y-45341D01*
X65478Y-45350D01*
X65448Y-45353D01*
X65418Y-45351D01*
X65389Y-45342D01*
X65362Y-45328D01*
X65338Y-45309D01*
X65318Y-45285D01*
X65303Y-45258D01*
X65294Y-45229D01*
X65291Y-45199D01*
X65293Y-45169D01*
X65302Y-45140D01*
X65316Y-45112D01*
X65335Y-45088D01*
X65358Y-45069D01*
X65385Y-45054D01*
X65414Y-45044D01*
X65444Y-45041D01*
X65474Y-45043D01*
X65503Y-45051D01*
X65531Y-45065D01*
X65555Y-45084D01*
X65575Y-45107D01*
X65590Y-45134D01*
X65600Y-45163D01*
X65603Y-45193D01*
X65604Y-45197D01*
X65604Y-46197D02*
X65601Y-46227D01*
X65592Y-46256D01*
X65577Y-46283D01*
X65558Y-46307D01*
X65534Y-46327D01*
X65507Y-46341D01*
X65478Y-46350D01*
X65448Y-46353D01*
X65418Y-46351D01*
X65389Y-46342D01*
X65362Y-46328D01*
X65338Y-46309D01*
X65318Y-46285D01*
X65303Y-46258D01*
X65294Y-46229D01*
X65291Y-46199D01*
X65293Y-46169D01*
X65302Y-46140D01*
X65316Y-46112D01*
X65335Y-46088D01*
X65358Y-46069D01*
X65385Y-46054D01*
X65414Y-46044D01*
X65444Y-46041D01*
X65474Y-46043D01*
X65503Y-46051D01*
X65531Y-46065D01*
X65555Y-46084D01*
X65575Y-46107D01*
X65590Y-46134D01*
X65600Y-46163D01*
X65603Y-46193D01*
X65604Y-46197D01*
X66604Y-26197D02*
X66601Y-26227D01*
X66592Y-26256D01*
X66577Y-26283D01*
X66558Y-26307D01*
X66534Y-26327D01*
X66507Y-26341D01*
X66478Y-26350D01*
X66448Y-26353D01*
X66418Y-26351D01*
X66389Y-26342D01*
X66362Y-26328D01*
X66338Y-26309D01*
X66318Y-26285D01*
X66303Y-26258D01*
X66294Y-26229D01*
X66291Y-26199D01*
X66293Y-26169D01*
X66302Y-26140D01*
X66316Y-26112D01*
X66335Y-26088D01*
X66358Y-26069D01*
X66385Y-26054D01*
X66414Y-26044D01*
X66444Y-26041D01*
X66474Y-26043D01*
X66503Y-26051D01*
X66531Y-26065D01*
X66555Y-26084D01*
X66575Y-26107D01*
X66590Y-26134D01*
X66600Y-26163D01*
X66603Y-26193D01*
X66604Y-26197D01*
X66604Y-27197D02*
X66601Y-27227D01*
X66592Y-27256D01*
X66577Y-27283D01*
X66558Y-27307D01*
X66534Y-27327D01*
X66507Y-27341D01*
X66478Y-27350D01*
X66448Y-27353D01*
X66418Y-27351D01*
X66389Y-27342D01*
X66362Y-27328D01*
X66338Y-27309D01*
X66318Y-27285D01*
X66303Y-27258D01*
X66294Y-27229D01*
X66291Y-27199D01*
X66293Y-27169D01*
X66302Y-27140D01*
X66316Y-27112D01*
X66335Y-27088D01*
X66358Y-27069D01*
X66385Y-27054D01*
X66414Y-27044D01*
X66444Y-27041D01*
X66474Y-27043D01*
X66503Y-27051D01*
X66531Y-27065D01*
X66555Y-27084D01*
X66575Y-27107D01*
X66590Y-27134D01*
X66600Y-27163D01*
X66603Y-27193D01*
X66604Y-27197D01*
X66604Y-45197D02*
X66601Y-45227D01*
X66592Y-45256D01*
X66577Y-45283D01*
X66558Y-45307D01*
X66534Y-45327D01*
X66507Y-45341D01*
X66478Y-45350D01*
X66448Y-45353D01*
X66418Y-45351D01*
X66389Y-45342D01*
X66362Y-45328D01*
X66338Y-45309D01*
X66318Y-45285D01*
X66303Y-45258D01*
X66294Y-45229D01*
X66291Y-45199D01*
X66293Y-45169D01*
X66302Y-45140D01*
X66316Y-45112D01*
X66335Y-45088D01*
X66358Y-45069D01*
X66385Y-45054D01*
X66414Y-45044D01*
X66444Y-45041D01*
X66474Y-45043D01*
X66503Y-45051D01*
X66531Y-45065D01*
X66555Y-45084D01*
X66575Y-45107D01*
X66590Y-45134D01*
X66600Y-45163D01*
X66603Y-45193D01*
X66604Y-45197D01*
X66604Y-46197D02*
X66601Y-46227D01*
X66592Y-46256D01*
X66577Y-46283D01*
X66558Y-46307D01*
X66534Y-46327D01*
X66507Y-46341D01*
X66478Y-46350D01*
X66448Y-46353D01*
X66418Y-46351D01*
X66389Y-46342D01*
X66362Y-46328D01*
X66338Y-46309D01*
X66318Y-46285D01*
X66303Y-46258D01*
X66294Y-46229D01*
X66291Y-46199D01*
X66293Y-46169D01*
X66302Y-46140D01*
X66316Y-46112D01*
X66335Y-46088D01*
X66358Y-46069D01*
X66385Y-46054D01*
X66414Y-46044D01*
X66444Y-46041D01*
X66474Y-46043D01*
X66503Y-46051D01*
X66531Y-46065D01*
X66555Y-46084D01*
X66575Y-46107D01*
X66590Y-46134D01*
X66600Y-46163D01*
X66603Y-46193D01*
X66604Y-46197D01*
X67604Y-26197D02*
X67601Y-26227D01*
X67592Y-26256D01*
X67577Y-26283D01*
X67558Y-26307D01*
X67534Y-26327D01*
X67507Y-26341D01*
X67478Y-26350D01*
X67448Y-26353D01*
X67418Y-26351D01*
X67389Y-26342D01*
X67362Y-26328D01*
X67338Y-26309D01*
X67318Y-26285D01*
X67303Y-26258D01*
X67294Y-26229D01*
X67291Y-26199D01*
X67293Y-26169D01*
X67302Y-26140D01*
X67316Y-26112D01*
X67335Y-26088D01*
X67358Y-26069D01*
X67385Y-26054D01*
X67414Y-26044D01*
X67444Y-26041D01*
X67474Y-26043D01*
X67503Y-26051D01*
X67531Y-26065D01*
X67555Y-26084D01*
X67575Y-26107D01*
X67590Y-26134D01*
X67600Y-26163D01*
X67603Y-26193D01*
X67604Y-26197D01*
X67604Y-27197D02*
X67601Y-27227D01*
X67592Y-27256D01*
X67577Y-27283D01*
X67558Y-27307D01*
X67534Y-27327D01*
X67507Y-27341D01*
X67478Y-27350D01*
X67448Y-27353D01*
X67418Y-27351D01*
X67389Y-27342D01*
X67362Y-27328D01*
X67338Y-27309D01*
X67318Y-27285D01*
X67303Y-27258D01*
X67294Y-27229D01*
X67291Y-27199D01*
X67293Y-27169D01*
X67302Y-27140D01*
X67316Y-27112D01*
X67335Y-27088D01*
X67358Y-27069D01*
X67385Y-27054D01*
X67414Y-27044D01*
X67444Y-27041D01*
X67474Y-27043D01*
X67503Y-27051D01*
X67531Y-27065D01*
X67555Y-27084D01*
X67575Y-27107D01*
X67590Y-27134D01*
X67600Y-27163D01*
X67603Y-27193D01*
X67604Y-27197D01*
X67604Y-45197D02*
X67601Y-45227D01*
X67592Y-45256D01*
X67577Y-45283D01*
X67558Y-45307D01*
X67534Y-45327D01*
X67507Y-45341D01*
X67478Y-45350D01*
X67448Y-45353D01*
X67418Y-45351D01*
X67389Y-45342D01*
X67362Y-45328D01*
X67338Y-45309D01*
X67318Y-45285D01*
X67303Y-45258D01*
X67294Y-45229D01*
X67291Y-45199D01*
X67293Y-45169D01*
X67302Y-45140D01*
X67316Y-45112D01*
X67335Y-45088D01*
X67358Y-45069D01*
X67385Y-45054D01*
X67414Y-45044D01*
X67444Y-45041D01*
X67474Y-45043D01*
X67503Y-45051D01*
X67531Y-45065D01*
X67555Y-45084D01*
X67575Y-45107D01*
X67590Y-45134D01*
X67600Y-45163D01*
X67603Y-45193D01*
X67604Y-45197D01*
X67604Y-46197D02*
X67601Y-46227D01*
X67592Y-46256D01*
X67577Y-46283D01*
X67558Y-46307D01*
X67534Y-46327D01*
X67507Y-46341D01*
X67478Y-46350D01*
X67448Y-46353D01*
X67418Y-46351D01*
X67389Y-46342D01*
X67362Y-46328D01*
X67338Y-46309D01*
X67318Y-46285D01*
X67303Y-46258D01*
X67294Y-46229D01*
X67291Y-46199D01*
X67293Y-46169D01*
X67302Y-46140D01*
X67316Y-46112D01*
X67335Y-46088D01*
X67358Y-46069D01*
X67385Y-46054D01*
X67414Y-46044D01*
X67444Y-46041D01*
X67474Y-46043D01*
X67503Y-46051D01*
X67531Y-46065D01*
X67555Y-46084D01*
X67575Y-46107D01*
X67590Y-46134D01*
X67600Y-46163D01*
X67603Y-46193D01*
X67604Y-46197D01*
X68604Y-26197D02*
X68601Y-26227D01*
X68592Y-26256D01*
X68577Y-26283D01*
X68558Y-26307D01*
X68534Y-26327D01*
X68507Y-26341D01*
X68478Y-26350D01*
X68448Y-26353D01*
X68418Y-26351D01*
X68389Y-26342D01*
X68362Y-26328D01*
X68338Y-26309D01*
X68318Y-26285D01*
X68303Y-26258D01*
X68294Y-26229D01*
X68291Y-26199D01*
X68293Y-26169D01*
X68302Y-26140D01*
X68316Y-26112D01*
X68335Y-26088D01*
X68358Y-26069D01*
X68385Y-26054D01*
X68414Y-26044D01*
X68444Y-26041D01*
X68474Y-26043D01*
X68503Y-26051D01*
X68531Y-26065D01*
X68555Y-26084D01*
X68575Y-26107D01*
X68590Y-26134D01*
X68600Y-26163D01*
X68603Y-26193D01*
X68604Y-26197D01*
X68604Y-27197D02*
X68601Y-27227D01*
X68592Y-27256D01*
X68577Y-27283D01*
X68558Y-27307D01*
X68534Y-27327D01*
X68507Y-27341D01*
X68478Y-27350D01*
X68448Y-27353D01*
X68418Y-27351D01*
X68389Y-27342D01*
X68362Y-27328D01*
X68338Y-27309D01*
X68318Y-27285D01*
X68303Y-27258D01*
X68294Y-27229D01*
X68291Y-27199D01*
X68293Y-27169D01*
X68302Y-27140D01*
X68316Y-27112D01*
X68335Y-27088D01*
X68358Y-27069D01*
X68385Y-27054D01*
X68414Y-27044D01*
X68444Y-27041D01*
X68474Y-27043D01*
X68503Y-27051D01*
X68531Y-27065D01*
X68555Y-27084D01*
X68575Y-27107D01*
X68590Y-27134D01*
X68600Y-27163D01*
X68603Y-27193D01*
X68604Y-27197D01*
X68604Y-45197D02*
X68601Y-45227D01*
X68592Y-45256D01*
X68577Y-45283D01*
X68558Y-45307D01*
X68534Y-45327D01*
X68507Y-45341D01*
X68478Y-45350D01*
X68448Y-45353D01*
X68418Y-45351D01*
X68389Y-45342D01*
X68362Y-45328D01*
X68338Y-45309D01*
X68318Y-45285D01*
X68303Y-45258D01*
X68294Y-45229D01*
X68291Y-45199D01*
X68293Y-45169D01*
X68302Y-45140D01*
X68316Y-45112D01*
X68335Y-45088D01*
X68358Y-45069D01*
X68385Y-45054D01*
X68414Y-45044D01*
X68444Y-45041D01*
X68474Y-45043D01*
X68503Y-45051D01*
X68531Y-45065D01*
X68555Y-45084D01*
X68575Y-45107D01*
X68590Y-45134D01*
X68600Y-45163D01*
X68603Y-45193D01*
X68604Y-45197D01*
X68604Y-46197D02*
X68601Y-46227D01*
X68592Y-46256D01*
X68577Y-46283D01*
X68558Y-46307D01*
X68534Y-46327D01*
X68507Y-46341D01*
X68478Y-46350D01*
X68448Y-46353D01*
X68418Y-46351D01*
X68389Y-46342D01*
X68362Y-46328D01*
X68338Y-46309D01*
X68318Y-46285D01*
X68303Y-46258D01*
X68294Y-46229D01*
X68291Y-46199D01*
X68293Y-46169D01*
X68302Y-46140D01*
X68316Y-46112D01*
X68335Y-46088D01*
X68358Y-46069D01*
X68385Y-46054D01*
X68414Y-46044D01*
X68444Y-46041D01*
X68474Y-46043D01*
X68503Y-46051D01*
X68531Y-46065D01*
X68555Y-46084D01*
X68575Y-46107D01*
X68590Y-46134D01*
X68600Y-46163D01*
X68603Y-46193D01*
X68604Y-46197D01*
X69604Y-26197D02*
X69601Y-26227D01*
X69592Y-26256D01*
X69577Y-26283D01*
X69558Y-26307D01*
X69534Y-26327D01*
X69507Y-26341D01*
X69478Y-26350D01*
X69448Y-26353D01*
X69418Y-26351D01*
X69389Y-26342D01*
X69362Y-26328D01*
X69338Y-26309D01*
X69318Y-26285D01*
X69303Y-26258D01*
X69294Y-26229D01*
X69291Y-26199D01*
X69293Y-26169D01*
X69302Y-26140D01*
X69316Y-26112D01*
X69335Y-26088D01*
X69358Y-26069D01*
X69385Y-26054D01*
X69414Y-26044D01*
X69444Y-26041D01*
X69474Y-26043D01*
X69503Y-26051D01*
X69531Y-26065D01*
X69555Y-26084D01*
X69575Y-26107D01*
X69590Y-26134D01*
X69600Y-26163D01*
X69603Y-26193D01*
X69604Y-26197D01*
X69604Y-27197D02*
X69601Y-27227D01*
X69592Y-27256D01*
X69577Y-27283D01*
X69558Y-27307D01*
X69534Y-27327D01*
X69507Y-27341D01*
X69478Y-27350D01*
X69448Y-27353D01*
X69418Y-27351D01*
X69389Y-27342D01*
X69362Y-27328D01*
X69338Y-27309D01*
X69318Y-27285D01*
X69303Y-27258D01*
X69294Y-27229D01*
X69291Y-27199D01*
X69293Y-27169D01*
X69302Y-27140D01*
X69316Y-27112D01*
X69335Y-27088D01*
X69358Y-27069D01*
X69385Y-27054D01*
X69414Y-27044D01*
X69444Y-27041D01*
X69474Y-27043D01*
X69503Y-27051D01*
X69531Y-27065D01*
X69555Y-27084D01*
X69575Y-27107D01*
X69590Y-27134D01*
X69600Y-27163D01*
X69603Y-27193D01*
X69604Y-27197D01*
X69604Y-45197D02*
X69601Y-45227D01*
X69592Y-45256D01*
X69577Y-45283D01*
X69558Y-45307D01*
X69534Y-45327D01*
X69507Y-45341D01*
X69478Y-45350D01*
X69448Y-45353D01*
X69418Y-45351D01*
X69389Y-45342D01*
X69362Y-45328D01*
X69338Y-45309D01*
X69318Y-45285D01*
X69303Y-45258D01*
X69294Y-45229D01*
X69291Y-45199D01*
X69293Y-45169D01*
X69302Y-45140D01*
X69316Y-45112D01*
X69335Y-45088D01*
X69358Y-45069D01*
X69385Y-45054D01*
X69414Y-45044D01*
X69444Y-45041D01*
X69474Y-45043D01*
X69503Y-45051D01*
X69531Y-45065D01*
X69555Y-45084D01*
X69575Y-45107D01*
X69590Y-45134D01*
X69600Y-45163D01*
X69603Y-45193D01*
X69604Y-45197D01*
X69604Y-46197D02*
X69601Y-46227D01*
X69592Y-46256D01*
X69577Y-46283D01*
X69558Y-46307D01*
X69534Y-46327D01*
X69507Y-46341D01*
X69478Y-46350D01*
X69448Y-46353D01*
X69418Y-46351D01*
X69389Y-46342D01*
X69362Y-46328D01*
X69338Y-46309D01*
X69318Y-46285D01*
X69303Y-46258D01*
X69294Y-46229D01*
X69291Y-46199D01*
X69293Y-46169D01*
X69302Y-46140D01*
X69316Y-46112D01*
X69335Y-46088D01*
X69358Y-46069D01*
X69385Y-46054D01*
X69414Y-46044D01*
X69444Y-46041D01*
X69474Y-46043D01*
X69503Y-46051D01*
X69531Y-46065D01*
X69555Y-46084D01*
X69575Y-46107D01*
X69590Y-46134D01*
X69600Y-46163D01*
X69603Y-46193D01*
X69604Y-46197D01*
X70604Y-26197D02*
X70601Y-26227D01*
X70592Y-26256D01*
X70577Y-26283D01*
X70558Y-26307D01*
X70534Y-26327D01*
X70507Y-26341D01*
X70478Y-26350D01*
X70448Y-26353D01*
X70418Y-26351D01*
X70389Y-26342D01*
X70362Y-26328D01*
X70338Y-26309D01*
X70318Y-26285D01*
X70303Y-26258D01*
X70294Y-26229D01*
X70291Y-26199D01*
X70293Y-26169D01*
X70302Y-26140D01*
X70316Y-26112D01*
X70335Y-26088D01*
X70358Y-26069D01*
X70385Y-26054D01*
X70414Y-26044D01*
X70444Y-26041D01*
X70474Y-26043D01*
X70503Y-26051D01*
X70531Y-26065D01*
X70555Y-26084D01*
X70575Y-26107D01*
X70590Y-26134D01*
X70600Y-26163D01*
X70603Y-26193D01*
X70604Y-26197D01*
X70604Y-27197D02*
X70601Y-27227D01*
X70592Y-27256D01*
X70577Y-27283D01*
X70558Y-27307D01*
X70534Y-27327D01*
X70507Y-27341D01*
X70478Y-27350D01*
X70448Y-27353D01*
X70418Y-27351D01*
X70389Y-27342D01*
X70362Y-27328D01*
X70338Y-27309D01*
X70318Y-27285D01*
X70303Y-27258D01*
X70294Y-27229D01*
X70291Y-27199D01*
X70293Y-27169D01*
X70302Y-27140D01*
X70316Y-27112D01*
X70335Y-27088D01*
X70358Y-27069D01*
X70385Y-27054D01*
X70414Y-27044D01*
X70444Y-27041D01*
X70474Y-27043D01*
X70503Y-27051D01*
X70531Y-27065D01*
X70555Y-27084D01*
X70575Y-27107D01*
X70590Y-27134D01*
X70600Y-27163D01*
X70603Y-27193D01*
X70604Y-27197D01*
X70604Y-45197D02*
X70601Y-45227D01*
X70592Y-45256D01*
X70577Y-45283D01*
X70558Y-45307D01*
X70534Y-45327D01*
X70507Y-45341D01*
X70478Y-45350D01*
X70448Y-45353D01*
X70418Y-45351D01*
X70389Y-45342D01*
X70362Y-45328D01*
X70338Y-45309D01*
X70318Y-45285D01*
X70303Y-45258D01*
X70294Y-45229D01*
X70291Y-45199D01*
X70293Y-45169D01*
X70302Y-45140D01*
X70316Y-45112D01*
X70335Y-45088D01*
X70358Y-45069D01*
X70385Y-45054D01*
X70414Y-45044D01*
X70444Y-45041D01*
X70474Y-45043D01*
X70503Y-45051D01*
X70531Y-45065D01*
X70555Y-45084D01*
X70575Y-45107D01*
X70590Y-45134D01*
X70600Y-45163D01*
X70603Y-45193D01*
X70604Y-45197D01*
X70604Y-46197D02*
X70601Y-46227D01*
X70592Y-46256D01*
X70577Y-46283D01*
X70558Y-46307D01*
X70534Y-46327D01*
X70507Y-46341D01*
X70478Y-46350D01*
X70448Y-46353D01*
X70418Y-46351D01*
X70389Y-46342D01*
X70362Y-46328D01*
X70338Y-46309D01*
X70318Y-46285D01*
X70303Y-46258D01*
X70294Y-46229D01*
X70291Y-46199D01*
X70293Y-46169D01*
X70302Y-46140D01*
X70316Y-46112D01*
X70335Y-46088D01*
X70358Y-46069D01*
X70385Y-46054D01*
X70414Y-46044D01*
X70444Y-46041D01*
X70474Y-46043D01*
X70503Y-46051D01*
X70531Y-46065D01*
X70555Y-46084D01*
X70575Y-46107D01*
X70590Y-46134D01*
X70600Y-46163D01*
X70603Y-46193D01*
X70604Y-46197D01*
X71604Y-31947D02*
X71601Y-31977D01*
X71592Y-32006D01*
X71577Y-32033D01*
X71558Y-32057D01*
X71534Y-32077D01*
X71507Y-32091D01*
X71478Y-32100D01*
X71448Y-32103D01*
X71418Y-32101D01*
X71389Y-32092D01*
X71362Y-32078D01*
X71338Y-32059D01*
X71318Y-32035D01*
X71303Y-32008D01*
X71294Y-31979D01*
X71291Y-31949D01*
X71293Y-31919D01*
X71302Y-31890D01*
X71316Y-31862D01*
X71335Y-31838D01*
X71358Y-31819D01*
X71385Y-31804D01*
X71414Y-31794D01*
X71444Y-31791D01*
X71474Y-31793D01*
X71503Y-31801D01*
X71531Y-31815D01*
X71555Y-31834D01*
X71575Y-31857D01*
X71590Y-31884D01*
X71600Y-31913D01*
X71603Y-31943D01*
X71604Y-31947D01*
X71604Y-32947D02*
X71601Y-32977D01*
X71592Y-33006D01*
X71577Y-33033D01*
X71558Y-33057D01*
X71534Y-33077D01*
X71507Y-33091D01*
X71478Y-33100D01*
X71448Y-33103D01*
X71418Y-33101D01*
X71389Y-33092D01*
X71362Y-33078D01*
X71338Y-33059D01*
X71318Y-33035D01*
X71303Y-33008D01*
X71294Y-32979D01*
X71291Y-32949D01*
X71293Y-32919D01*
X71302Y-32890D01*
X71316Y-32862D01*
X71335Y-32838D01*
X71358Y-32819D01*
X71385Y-32804D01*
X71414Y-32794D01*
X71444Y-32791D01*
X71474Y-32793D01*
X71503Y-32801D01*
X71531Y-32815D01*
X71555Y-32834D01*
X71575Y-32857D01*
X71590Y-32884D01*
X71600Y-32913D01*
X71603Y-32943D01*
X71604Y-32947D01*
X72604Y-31947D02*
X72601Y-31977D01*
X72592Y-32006D01*
X72577Y-32033D01*
X72558Y-32057D01*
X72534Y-32077D01*
X72507Y-32091D01*
X72478Y-32100D01*
X72448Y-32103D01*
X72418Y-32101D01*
X72389Y-32092D01*
X72362Y-32078D01*
X72338Y-32059D01*
X72318Y-32035D01*
X72303Y-32008D01*
X72294Y-31979D01*
X72291Y-31949D01*
X72293Y-31919D01*
X72302Y-31890D01*
X72316Y-31862D01*
X72335Y-31838D01*
X72358Y-31819D01*
X72385Y-31804D01*
X72414Y-31794D01*
X72444Y-31791D01*
X72474Y-31793D01*
X72503Y-31801D01*
X72531Y-31815D01*
X72555Y-31834D01*
X72575Y-31857D01*
X72590Y-31884D01*
X72600Y-31913D01*
X72603Y-31943D01*
X72604Y-31947D01*
X72604Y-32947D02*
X72601Y-32977D01*
X72592Y-33006D01*
X72577Y-33033D01*
X72558Y-33057D01*
X72534Y-33077D01*
X72507Y-33091D01*
X72478Y-33100D01*
X72448Y-33103D01*
X72418Y-33101D01*
X72389Y-33092D01*
X72362Y-33078D01*
X72338Y-33059D01*
X72318Y-33035D01*
X72303Y-33008D01*
X72294Y-32979D01*
X72291Y-32949D01*
X72293Y-32919D01*
X72302Y-32890D01*
X72316Y-32862D01*
X72335Y-32838D01*
X72358Y-32819D01*
X72385Y-32804D01*
X72414Y-32794D01*
X72444Y-32791D01*
X72474Y-32793D01*
X72503Y-32801D01*
X72531Y-32815D01*
X72555Y-32834D01*
X72575Y-32857D01*
X72590Y-32884D01*
X72600Y-32913D01*
X72603Y-32943D01*
X72604Y-32947D01*
X73604Y-31947D02*
X73601Y-31977D01*
X73592Y-32006D01*
X73577Y-32033D01*
X73558Y-32057D01*
X73534Y-32077D01*
X73507Y-32091D01*
X73478Y-32100D01*
X73448Y-32103D01*
X73418Y-32101D01*
X73389Y-32092D01*
X73362Y-32078D01*
X73338Y-32059D01*
X73318Y-32035D01*
X73303Y-32008D01*
X73294Y-31979D01*
X73291Y-31949D01*
X73293Y-31919D01*
X73302Y-31890D01*
X73316Y-31862D01*
X73335Y-31838D01*
X73358Y-31819D01*
X73385Y-31804D01*
X73414Y-31794D01*
X73444Y-31791D01*
X73474Y-31793D01*
X73503Y-31801D01*
X73531Y-31815D01*
X73555Y-31834D01*
X73575Y-31857D01*
X73590Y-31884D01*
X73600Y-31913D01*
X73603Y-31943D01*
X73604Y-31947D01*
X73604Y-32947D02*
X73601Y-32977D01*
X73592Y-33006D01*
X73577Y-33033D01*
X73558Y-33057D01*
X73534Y-33077D01*
X73507Y-33091D01*
X73478Y-33100D01*
X73448Y-33103D01*
X73418Y-33101D01*
X73389Y-33092D01*
X73362Y-33078D01*
X73338Y-33059D01*
X73318Y-33035D01*
X73303Y-33008D01*
X73294Y-32979D01*
X73291Y-32949D01*
X73293Y-32919D01*
X73302Y-32890D01*
X73316Y-32862D01*
X73335Y-32838D01*
X73358Y-32819D01*
X73385Y-32804D01*
X73414Y-32794D01*
X73444Y-32791D01*
X73474Y-32793D01*
X73503Y-32801D01*
X73531Y-32815D01*
X73555Y-32834D01*
X73575Y-32857D01*
X73590Y-32884D01*
X73600Y-32913D01*
X73603Y-32943D01*
X73604Y-32947D01*
X74604Y-31947D02*
X74601Y-31977D01*
X74592Y-32006D01*
X74577Y-32033D01*
X74558Y-32057D01*
X74534Y-32077D01*
X74507Y-32091D01*
X74478Y-32100D01*
X74448Y-32103D01*
X74418Y-32101D01*
X74389Y-32092D01*
X74362Y-32078D01*
X74338Y-32059D01*
X74318Y-32035D01*
X74303Y-32008D01*
X74294Y-31979D01*
X74291Y-31949D01*
X74293Y-31919D01*
X74302Y-31890D01*
X74316Y-31862D01*
X74335Y-31838D01*
X74358Y-31819D01*
X74385Y-31804D01*
X74414Y-31794D01*
X74444Y-31791D01*
X74474Y-31793D01*
X74503Y-31801D01*
X74531Y-31815D01*
X74555Y-31834D01*
X74575Y-31857D01*
X74590Y-31884D01*
X74600Y-31913D01*
X74603Y-31943D01*
X74604Y-31947D01*
X74604Y-32947D02*
X74601Y-32977D01*
X74592Y-33006D01*
X74577Y-33033D01*
X74558Y-33057D01*
X74534Y-33077D01*
X74507Y-33091D01*
X74478Y-33100D01*
X74448Y-33103D01*
X74418Y-33101D01*
X74389Y-33092D01*
X74362Y-33078D01*
X74338Y-33059D01*
X74318Y-33035D01*
X74303Y-33008D01*
X74294Y-32979D01*
X74291Y-32949D01*
X74293Y-32919D01*
X74302Y-32890D01*
X74316Y-32862D01*
X74335Y-32838D01*
X74358Y-32819D01*
X74385Y-32804D01*
X74414Y-32794D01*
X74444Y-32791D01*
X74474Y-32793D01*
X74503Y-32801D01*
X74531Y-32815D01*
X74555Y-32834D01*
X74575Y-32857D01*
X74590Y-32884D01*
X74600Y-32913D01*
X74603Y-32943D01*
X74604Y-32947D01*
X75604Y-31947D02*
X75601Y-31977D01*
X75592Y-32006D01*
X75577Y-32033D01*
X75558Y-32057D01*
X75534Y-32077D01*
X75507Y-32091D01*
X75478Y-32100D01*
X75448Y-32103D01*
X75418Y-32101D01*
X75389Y-32092D01*
X75362Y-32078D01*
X75338Y-32059D01*
X75318Y-32035D01*
X75303Y-32008D01*
X75294Y-31979D01*
X75291Y-31949D01*
X75293Y-31919D01*
X75302Y-31890D01*
X75316Y-31862D01*
X75335Y-31838D01*
X75358Y-31819D01*
X75385Y-31804D01*
X75414Y-31794D01*
X75444Y-31791D01*
X75474Y-31793D01*
X75503Y-31801D01*
X75531Y-31815D01*
X75555Y-31834D01*
X75575Y-31857D01*
X75590Y-31884D01*
X75600Y-31913D01*
X75603Y-31943D01*
X75604Y-31947D01*
X75604Y-32947D02*
X75601Y-32977D01*
X75592Y-33006D01*
X75577Y-33033D01*
X75558Y-33057D01*
X75534Y-33077D01*
X75507Y-33091D01*
X75478Y-33100D01*
X75448Y-33103D01*
X75418Y-33101D01*
X75389Y-33092D01*
X75362Y-33078D01*
X75338Y-33059D01*
X75318Y-33035D01*
X75303Y-33008D01*
X75294Y-32979D01*
X75291Y-32949D01*
X75293Y-32919D01*
X75302Y-32890D01*
X75316Y-32862D01*
X75335Y-32838D01*
X75358Y-32819D01*
X75385Y-32804D01*
X75414Y-32794D01*
X75444Y-32791D01*
X75474Y-32793D01*
X75503Y-32801D01*
X75531Y-32815D01*
X75555Y-32834D01*
X75575Y-32857D01*
X75590Y-32884D01*
X75600Y-32913D01*
X75603Y-32943D01*
X75604Y-32947D01*
X48059Y-31790D02*
X48059Y-32108D01*
X48218Y-31949D02*
X47900Y-31949D01*
X48059Y-32790D02*
X48059Y-33108D01*
X48218Y-32949D02*
X47900Y-32949D01*
X48059Y-33790D02*
X48059Y-34108D01*
X48218Y-33949D02*
X47900Y-33949D01*
X48059Y-34790D02*
X48059Y-35108D01*
X48218Y-34949D02*
X47900Y-34949D01*
X48059Y-35790D02*
X48059Y-36108D01*
X48218Y-35949D02*
X47900Y-35949D01*
X48059Y-36790D02*
X48059Y-37108D01*
X48218Y-36949D02*
X47900Y-36949D01*
X48059Y-37790D02*
X48059Y-38108D01*
X48218Y-37949D02*
X47900Y-37949D01*
X48059Y-38790D02*
X48059Y-39108D01*
X48218Y-38949D02*
X47900Y-38949D01*
X48059Y-39790D02*
X48059Y-40108D01*
X48218Y-39949D02*
X47900Y-39949D01*
X48059Y-40790D02*
X48059Y-41108D01*
X48218Y-40949D02*
X47900Y-40949D01*
X49066Y-31790D02*
X49066Y-32108D01*
X49225Y-31949D02*
X48907Y-31949D01*
X49066Y-32790D02*
X49066Y-33108D01*
X49225Y-32949D02*
X48907Y-32949D01*
X49066Y-33790D02*
X49066Y-34108D01*
X49225Y-33949D02*
X48907Y-33949D01*
X49066Y-34790D02*
X49066Y-35108D01*
X49225Y-34949D02*
X48907Y-34949D01*
X49066Y-35790D02*
X49066Y-36108D01*
X49225Y-35949D02*
X48907Y-35949D01*
X49066Y-36790D02*
X49066Y-37108D01*
X49225Y-36949D02*
X48907Y-36949D01*
X49066Y-37790D02*
X49066Y-38108D01*
X49225Y-37949D02*
X48907Y-37949D01*
X49066Y-38790D02*
X49066Y-39108D01*
X49225Y-38949D02*
X48907Y-38949D01*
X49066Y-39790D02*
X49066Y-40108D01*
X49225Y-39949D02*
X48907Y-39949D01*
X49066Y-40790D02*
X49066Y-41108D01*
X49225Y-40949D02*
X48907Y-40949D01*
X51949Y-31790D02*
X51949Y-32108D01*
X52108Y-31949D02*
X51790Y-31949D01*
X51949Y-32790D02*
X51949Y-33108D01*
X52108Y-32949D02*
X51790Y-32949D01*
X51949Y-33790D02*
X51949Y-34108D01*
X52108Y-33949D02*
X51790Y-33949D01*
X51949Y-34790D02*
X51949Y-35108D01*
X52108Y-34949D02*
X51790Y-34949D01*
X51949Y-35790D02*
X51949Y-36108D01*
X52108Y-35949D02*
X51790Y-35949D01*
X51949Y-36790D02*
X51949Y-37108D01*
X52108Y-36949D02*
X51790Y-36949D01*
X51949Y-37790D02*
X51949Y-38108D01*
X52108Y-37949D02*
X51790Y-37949D01*
X51949Y-38790D02*
X51949Y-39108D01*
X52108Y-38949D02*
X51790Y-38949D01*
X51949Y-39790D02*
X51949Y-40108D01*
X52108Y-39949D02*
X51790Y-39949D01*
X51949Y-40790D02*
X51949Y-41108D01*
X52108Y-40949D02*
X51790Y-40949D01*
X52956Y-31790D02*
X52956Y-32108D01*
X53115Y-31949D02*
X52797Y-31949D01*
X52956Y-32790D02*
X52956Y-33108D01*
X53115Y-32949D02*
X52797Y-32949D01*
X52956Y-33790D02*
X52956Y-34108D01*
X53115Y-33949D02*
X52797Y-33949D01*
X52956Y-34790D02*
X52956Y-35108D01*
X53115Y-34949D02*
X52797Y-34949D01*
X52956Y-35790D02*
X52956Y-36108D01*
X53115Y-35949D02*
X52797Y-35949D01*
X52956Y-36790D02*
X52956Y-37108D01*
X53115Y-36949D02*
X52797Y-36949D01*
X52956Y-37790D02*
X52956Y-38108D01*
X53115Y-37949D02*
X52797Y-37949D01*
X52956Y-38790D02*
X52956Y-39108D01*
X53115Y-38949D02*
X52797Y-38949D01*
X52956Y-39790D02*
X52956Y-40108D01*
X53115Y-39949D02*
X52797Y-39949D01*
X52956Y-40790D02*
X52956Y-41108D01*
X53115Y-40949D02*
X52797Y-40949D01*
X47072Y-27947D02*
X47060Y-28068D01*
X47024Y-28185D01*
X46967Y-28292D01*
X46890Y-28387D01*
X46796Y-28465D01*
X46689Y-28523D01*
X46572Y-28559D01*
X46451Y-28571D01*
X46330Y-28560D01*
X46213Y-28526D01*
X46105Y-28469D01*
X46010Y-28393D01*
X45932Y-28300D01*
X45873Y-28193D01*
X45836Y-28076D01*
X45823Y-27955D01*
X45833Y-27835D01*
X45866Y-27717D01*
X45922Y-27609D01*
X45998Y-27513D01*
X46091Y-27434D01*
X46197Y-27375D01*
X46313Y-27337D01*
X46434Y-27323D01*
X46555Y-27332D01*
X46673Y-27365D01*
X46781Y-27420D01*
X46878Y-27495D01*
X46957Y-27587D01*
X47017Y-27693D01*
X47056Y-27809D01*
X47071Y-27930D01*
X47072Y-27947D01*
X45822Y-27322D02*
X47072Y-28572D01*
X47072Y-27322D02*
X45822Y-28572D01*
X47072Y-44447D02*
X47060Y-44568D01*
X47024Y-44685D01*
X46967Y-44792D01*
X46890Y-44887D01*
X46796Y-44965D01*
X46689Y-45023D01*
X46572Y-45059D01*
X46451Y-45071D01*
X46330Y-45060D01*
X46213Y-45026D01*
X46105Y-44969D01*
X46010Y-44893D01*
X45932Y-44800D01*
X45873Y-44693D01*
X45836Y-44576D01*
X45823Y-44455D01*
X45833Y-44335D01*
X45866Y-44217D01*
X45922Y-44109D01*
X45998Y-44013D01*
X46091Y-43934D01*
X46197Y-43875D01*
X46313Y-43837D01*
X46434Y-43823D01*
X46555Y-43832D01*
X46673Y-43865D01*
X46781Y-43920D01*
X46878Y-43995D01*
X46957Y-44087D01*
X47017Y-44193D01*
X47056Y-44309D01*
X47071Y-44430D01*
X47072Y-44447D01*
X45822Y-43822D02*
X47072Y-45072D01*
X47072Y-43822D02*
X45822Y-45072D01*
X73072Y-26697D02*
X73060Y-26818D01*
X73024Y-26935D01*
X72967Y-27042D01*
X72890Y-27137D01*
X72796Y-27215D01*
X72689Y-27273D01*
X72572Y-27309D01*
X72451Y-27321D01*
X72330Y-27310D01*
X72213Y-27276D01*
X72105Y-27219D01*
X72010Y-27143D01*
X71932Y-27050D01*
X71873Y-26943D01*
X71836Y-26826D01*
X71823Y-26705D01*
X71833Y-26585D01*
X71866Y-26467D01*
X71922Y-26359D01*
X71998Y-26263D01*
X72091Y-26184D01*
X72197Y-26125D01*
X72313Y-26087D01*
X72434Y-26073D01*
X72555Y-26082D01*
X72673Y-26115D01*
X72781Y-26170D01*
X72878Y-26245D01*
X72957Y-26337D01*
X73017Y-26443D01*
X73056Y-26559D01*
X73071Y-26680D01*
X73072Y-26697D01*
X71822Y-26072D02*
X73072Y-27322D01*
X73072Y-26072D02*
X71822Y-27322D01*
X73072Y-45697D02*
X73060Y-45818D01*
X73024Y-45935D01*
X72967Y-46042D01*
X72890Y-46137D01*
X72796Y-46215D01*
X72689Y-46273D01*
X72572Y-46309D01*
X72451Y-46321D01*
X72330Y-46310D01*
X72213Y-46276D01*
X72105Y-46219D01*
X72010Y-46143D01*
X71932Y-46050D01*
X71873Y-45943D01*
X71836Y-45826D01*
X71823Y-45705D01*
X71833Y-45585D01*
X71866Y-45467D01*
X71922Y-45359D01*
X71998Y-45263D01*
X72091Y-45184D01*
X72197Y-45125D01*
X72313Y-45087D01*
X72434Y-45073D01*
X72555Y-45082D01*
X72673Y-45115D01*
X72781Y-45170D01*
X72878Y-45245D01*
X72957Y-45337D01*
X73017Y-45443D01*
X73056Y-45559D01*
X73071Y-45680D01*
X73072Y-45697D01*
X71822Y-45072D02*
X73072Y-46322D01*
X73072Y-45072D02*
X71822Y-46322D01*
G54D12*
X42377Y-48402D02*
X42377Y-47602D01*
X42568Y-47602D01*
X42682Y-47640D01*
X42758Y-47716D01*
X42797Y-47792D01*
X42835Y-47945D01*
X42835Y-48059D01*
X42797Y-48211D01*
X42758Y-48288D01*
X42682Y-48364D01*
X42568Y-48402D01*
X42377Y-48402D01*
X43177Y-48402D02*
X43177Y-47868D01*
X43177Y-48021D02*
X43216Y-47945D01*
X43254Y-47907D01*
X43330Y-47868D01*
X43406Y-47868D01*
X43672Y-48402D02*
X43672Y-47868D01*
X43672Y-47602D02*
X43634Y-47640D01*
X43672Y-47678D01*
X43711Y-47640D01*
X43672Y-47602D01*
X43672Y-47678D01*
X44168Y-48402D02*
X44092Y-48364D01*
X44053Y-48288D01*
X44053Y-47602D01*
X44587Y-48402D02*
X44511Y-48364D01*
X44472Y-48288D01*
X44472Y-47602D01*
X45501Y-48402D02*
X45501Y-47602D01*
X45768Y-48173D01*
X46035Y-47602D01*
X46035Y-48402D01*
X46758Y-48402D02*
X46758Y-47983D01*
X46720Y-47907D01*
X46644Y-47868D01*
X46492Y-47868D01*
X46415Y-47907D01*
X46758Y-48364D02*
X46682Y-48402D01*
X46492Y-48402D01*
X46415Y-48364D01*
X46377Y-48288D01*
X46377Y-48211D01*
X46415Y-48135D01*
X46492Y-48097D01*
X46682Y-48097D01*
X46758Y-48059D01*
X47139Y-47868D02*
X47139Y-48668D01*
X47139Y-47907D02*
X47216Y-47868D01*
X47368Y-47868D01*
X47444Y-47907D01*
X47482Y-47945D01*
X47520Y-48021D01*
X47520Y-48249D01*
X47482Y-48326D01*
X47444Y-48364D01*
X47368Y-48402D01*
X47216Y-48402D01*
X47139Y-48364D01*
X47863Y-48326D02*
X47902Y-48364D01*
X47863Y-48402D01*
X47825Y-48364D01*
X47863Y-48326D01*
X47863Y-48402D01*
X47863Y-47907D02*
X47902Y-47945D01*
X47863Y-47983D01*
X47825Y-47945D01*
X47863Y-47907D01*
X47863Y-47983D01*
X41975Y-49752D02*
X41987Y-49764D01*
X41987Y-49752D02*
X41975Y-49764D01*
X42530Y-49282D02*
X42606Y-49282D01*
X42682Y-49320D01*
X42720Y-49358D01*
X42758Y-49434D01*
X42797Y-49587D01*
X42797Y-49777D01*
X42758Y-49929D01*
X42720Y-50006D01*
X42682Y-50044D01*
X42606Y-50082D01*
X42530Y-50082D01*
X42454Y-50044D01*
X42416Y-50006D01*
X42377Y-49929D01*
X42339Y-49777D01*
X42339Y-49587D01*
X42377Y-49434D01*
X42416Y-49358D01*
X42454Y-49320D01*
X42530Y-49282D01*
X43139Y-50006D02*
X43178Y-50044D01*
X43139Y-50082D01*
X43101Y-50044D01*
X43139Y-50006D01*
X43139Y-50082D01*
X43673Y-49282D02*
X43749Y-49282D01*
X43825Y-49320D01*
X43863Y-49358D01*
X43901Y-49434D01*
X43940Y-49587D01*
X43940Y-49777D01*
X43901Y-49929D01*
X43863Y-50006D01*
X43825Y-50044D01*
X43749Y-50082D01*
X43673Y-50082D01*
X43597Y-50044D01*
X43559Y-50006D01*
X43520Y-49929D01*
X43482Y-49777D01*
X43482Y-49587D01*
X43520Y-49434D01*
X43559Y-49358D01*
X43597Y-49320D01*
X43673Y-49282D01*
X44206Y-49282D02*
X44702Y-49282D01*
X44435Y-49587D01*
X44549Y-49587D01*
X44625Y-49625D01*
X44663Y-49663D01*
X44702Y-49739D01*
X44702Y-49929D01*
X44663Y-50006D01*
X44625Y-50044D01*
X44549Y-50082D01*
X44321Y-50082D01*
X44244Y-50044D01*
X44206Y-50006D01*
X45044Y-50082D02*
X45044Y-49548D01*
X45044Y-49625D02*
X45083Y-49587D01*
X45159Y-49548D01*
X45273Y-49548D01*
X45349Y-49587D01*
X45387Y-49663D01*
X45387Y-50082D01*
X45387Y-49663D02*
X45425Y-49587D01*
X45502Y-49548D01*
X45616Y-49548D01*
X45692Y-49587D01*
X45730Y-49663D01*
X45730Y-50082D01*
X46111Y-50082D02*
X46111Y-49548D01*
X46111Y-49625D02*
X46150Y-49587D01*
X46226Y-49548D01*
X46340Y-49548D01*
X46416Y-49587D01*
X46454Y-49663D01*
X46454Y-50082D01*
X46454Y-49663D02*
X46492Y-49587D01*
X46569Y-49548D01*
X46683Y-49548D01*
X46759Y-49587D01*
X46797Y-49663D01*
X46797Y-50082D01*
X48360Y-49244D02*
X47674Y-50272D01*
X49389Y-49282D02*
X49465Y-49282D01*
X49541Y-49320D01*
X49579Y-49358D01*
X49617Y-49434D01*
X49656Y-49587D01*
X49656Y-49777D01*
X49617Y-49929D01*
X49579Y-50006D01*
X49541Y-50044D01*
X49465Y-50082D01*
X49389Y-50082D01*
X49313Y-50044D01*
X49275Y-50006D01*
X49236Y-49929D01*
X49198Y-49777D01*
X49198Y-49587D01*
X49236Y-49434D01*
X49275Y-49358D01*
X49313Y-49320D01*
X49389Y-49282D01*
X49998Y-50006D02*
X50037Y-50044D01*
X49998Y-50082D01*
X49960Y-50044D01*
X49998Y-50006D01*
X49998Y-50082D01*
X50532Y-49282D02*
X50608Y-49282D01*
X50684Y-49320D01*
X50722Y-49358D01*
X50760Y-49434D01*
X50799Y-49587D01*
X50799Y-49777D01*
X50760Y-49929D01*
X50722Y-50006D01*
X50684Y-50044D01*
X50608Y-50082D01*
X50532Y-50082D01*
X50456Y-50044D01*
X50418Y-50006D01*
X50379Y-49929D01*
X50341Y-49777D01*
X50341Y-49587D01*
X50379Y-49434D01*
X50418Y-49358D01*
X50456Y-49320D01*
X50532Y-49282D01*
X51294Y-49282D02*
X51370Y-49282D01*
X51446Y-49320D01*
X51484Y-49358D01*
X51522Y-49434D01*
X51561Y-49587D01*
X51561Y-49777D01*
X51522Y-49929D01*
X51484Y-50006D01*
X51446Y-50044D01*
X51370Y-50082D01*
X51294Y-50082D01*
X51218Y-50044D01*
X51180Y-50006D01*
X51141Y-49929D01*
X51103Y-49777D01*
X51103Y-49587D01*
X51141Y-49434D01*
X51180Y-49358D01*
X51218Y-49320D01*
X51294Y-49282D01*
X52323Y-50082D02*
X51865Y-50082D01*
X52094Y-50082D02*
X52094Y-49282D01*
X52018Y-49396D01*
X51942Y-49472D01*
X51865Y-49510D01*
X52627Y-49282D02*
X52627Y-49434D01*
X52932Y-49282D02*
X52932Y-49434D01*
X54114Y-50387D02*
X54076Y-50348D01*
X54000Y-50234D01*
X53962Y-50158D01*
X53924Y-50044D01*
X53885Y-49853D01*
X53885Y-49701D01*
X53924Y-49510D01*
X53962Y-49396D01*
X54000Y-49320D01*
X54076Y-49206D01*
X54114Y-49168D01*
X54380Y-49358D02*
X54418Y-49320D01*
X54495Y-49282D01*
X54685Y-49282D01*
X54761Y-49320D01*
X54799Y-49358D01*
X54838Y-49434D01*
X54838Y-49510D01*
X54799Y-49625D01*
X54342Y-50082D01*
X54838Y-50082D01*
X55600Y-50082D02*
X55142Y-50082D01*
X55371Y-50082D02*
X55371Y-49282D01*
X55295Y-49396D01*
X55219Y-49472D01*
X55142Y-49510D01*
X56057Y-49625D02*
X55981Y-49587D01*
X55942Y-49548D01*
X55904Y-49472D01*
X55904Y-49434D01*
X55942Y-49358D01*
X55981Y-49320D01*
X56057Y-49282D01*
X56209Y-49282D01*
X56285Y-49320D01*
X56323Y-49358D01*
X56362Y-49434D01*
X56362Y-49472D01*
X56323Y-49548D01*
X56285Y-49587D01*
X56209Y-49625D01*
X56057Y-49625D01*
X55981Y-49663D01*
X55942Y-49701D01*
X55904Y-49777D01*
X55904Y-49929D01*
X55942Y-50006D01*
X55981Y-50044D01*
X56057Y-50082D01*
X56209Y-50082D01*
X56285Y-50044D01*
X56323Y-50006D01*
X56362Y-49929D01*
X56362Y-49777D01*
X56323Y-49701D01*
X56285Y-49663D01*
X56209Y-49625D01*
X57314Y-50082D02*
X57314Y-49282D01*
X57657Y-50082D02*
X57657Y-49663D01*
X57619Y-49587D01*
X57543Y-49548D01*
X57429Y-49548D01*
X57353Y-49587D01*
X57314Y-49625D01*
X58153Y-50082D02*
X58077Y-50044D01*
X58038Y-50006D01*
X58000Y-49929D01*
X58000Y-49701D01*
X58038Y-49625D01*
X58077Y-49587D01*
X58153Y-49548D01*
X58267Y-49548D01*
X58343Y-49587D01*
X58381Y-49625D01*
X58419Y-49701D01*
X58419Y-49929D01*
X58381Y-50006D01*
X58343Y-50044D01*
X58267Y-50082D01*
X58153Y-50082D01*
X58877Y-50082D02*
X58801Y-50044D01*
X58762Y-49968D01*
X58762Y-49282D01*
X59486Y-50044D02*
X59410Y-50082D01*
X59258Y-50082D01*
X59181Y-50044D01*
X59143Y-49968D01*
X59143Y-49663D01*
X59181Y-49587D01*
X59258Y-49548D01*
X59410Y-49548D01*
X59486Y-49587D01*
X59524Y-49663D01*
X59524Y-49739D01*
X59143Y-49815D01*
X59829Y-50044D02*
X59906Y-50082D01*
X60058Y-50082D01*
X60134Y-50044D01*
X60172Y-49968D01*
X60172Y-49929D01*
X60134Y-49853D01*
X60058Y-49815D01*
X59944Y-49815D01*
X59867Y-49777D01*
X59829Y-49701D01*
X59829Y-49663D01*
X59867Y-49587D01*
X59944Y-49548D01*
X60058Y-49548D01*
X60134Y-49587D01*
X60439Y-50387D02*
X60477Y-50348D01*
X60554Y-50234D01*
X60592Y-50158D01*
X60630Y-50044D01*
X60668Y-49853D01*
X60668Y-49701D01*
X60630Y-49510D01*
X60592Y-49396D01*
X60554Y-49320D01*
X60477Y-49206D01*
X60439Y-49168D01*
G54D10*
X41986Y-50814D02*
X41983Y-50844D01*
X41974Y-50873D01*
X41959Y-50900D01*
X41940Y-50924D01*
X41916Y-50944D01*
X41889Y-50958D01*
X41860Y-50967D01*
X41830Y-50970D01*
X41800Y-50968D01*
X41771Y-50959D01*
X41744Y-50945D01*
X41720Y-50926D01*
X41700Y-50902D01*
X41685Y-50875D01*
X41676Y-50846D01*
X41673Y-50816D01*
X41675Y-50786D01*
X41684Y-50757D01*
X41698Y-50729D01*
X41717Y-50705D01*
X41740Y-50686D01*
X41767Y-50671D01*
X41796Y-50661D01*
X41826Y-50658D01*
X41856Y-50660D01*
X41885Y-50668D01*
X41913Y-50682D01*
X41937Y-50701D01*
X41957Y-50724D01*
X41972Y-50751D01*
X41982Y-50780D01*
X41985Y-50810D01*
X41986Y-50814D01*
G54D12*
X42530Y-50338D02*
X42606Y-50338D01*
X42682Y-50376D01*
X42720Y-50414D01*
X42758Y-50490D01*
X42797Y-50643D01*
X42797Y-50833D01*
X42758Y-50985D01*
X42720Y-51062D01*
X42682Y-51100D01*
X42606Y-51138D01*
X42530Y-51138D01*
X42454Y-51100D01*
X42416Y-51062D01*
X42377Y-50985D01*
X42339Y-50833D01*
X42339Y-50643D01*
X42377Y-50490D01*
X42416Y-50414D01*
X42454Y-50376D01*
X42530Y-50338D01*
X43139Y-51062D02*
X43178Y-51100D01*
X43139Y-51138D01*
X43101Y-51100D01*
X43139Y-51062D01*
X43139Y-51138D01*
X43635Y-50681D02*
X43559Y-50643D01*
X43520Y-50604D01*
X43482Y-50528D01*
X43482Y-50490D01*
X43520Y-50414D01*
X43559Y-50376D01*
X43635Y-50338D01*
X43787Y-50338D01*
X43863Y-50376D01*
X43901Y-50414D01*
X43940Y-50490D01*
X43940Y-50528D01*
X43901Y-50604D01*
X43863Y-50643D01*
X43787Y-50681D01*
X43635Y-50681D01*
X43559Y-50719D01*
X43520Y-50757D01*
X43482Y-50833D01*
X43482Y-50985D01*
X43520Y-51062D01*
X43559Y-51100D01*
X43635Y-51138D01*
X43787Y-51138D01*
X43863Y-51100D01*
X43901Y-51062D01*
X43940Y-50985D01*
X43940Y-50833D01*
X43901Y-50757D01*
X43863Y-50719D01*
X43787Y-50681D01*
X44435Y-50338D02*
X44511Y-50338D01*
X44587Y-50376D01*
X44625Y-50414D01*
X44663Y-50490D01*
X44702Y-50643D01*
X44702Y-50833D01*
X44663Y-50985D01*
X44625Y-51062D01*
X44587Y-51100D01*
X44511Y-51138D01*
X44435Y-51138D01*
X44359Y-51100D01*
X44321Y-51062D01*
X44282Y-50985D01*
X44244Y-50833D01*
X44244Y-50643D01*
X44282Y-50490D01*
X44321Y-50414D01*
X44359Y-50376D01*
X44435Y-50338D01*
X45044Y-51138D02*
X45044Y-50604D01*
X45044Y-50681D02*
X45083Y-50643D01*
X45159Y-50604D01*
X45273Y-50604D01*
X45349Y-50643D01*
X45387Y-50719D01*
X45387Y-51138D01*
X45387Y-50719D02*
X45425Y-50643D01*
X45502Y-50604D01*
X45616Y-50604D01*
X45692Y-50643D01*
X45730Y-50719D01*
X45730Y-51138D01*
X46111Y-51138D02*
X46111Y-50604D01*
X46111Y-50681D02*
X46150Y-50643D01*
X46226Y-50604D01*
X46340Y-50604D01*
X46416Y-50643D01*
X46454Y-50719D01*
X46454Y-51138D01*
X46454Y-50719D02*
X46492Y-50643D01*
X46569Y-50604D01*
X46683Y-50604D01*
X46759Y-50643D01*
X46797Y-50719D01*
X46797Y-51138D01*
X48360Y-50300D02*
X47674Y-51328D01*
X49389Y-50338D02*
X49465Y-50338D01*
X49541Y-50376D01*
X49579Y-50414D01*
X49617Y-50490D01*
X49656Y-50643D01*
X49656Y-50833D01*
X49617Y-50985D01*
X49579Y-51062D01*
X49541Y-51100D01*
X49465Y-51138D01*
X49389Y-51138D01*
X49313Y-51100D01*
X49275Y-51062D01*
X49236Y-50985D01*
X49198Y-50833D01*
X49198Y-50643D01*
X49236Y-50490D01*
X49275Y-50414D01*
X49313Y-50376D01*
X49389Y-50338D01*
X49998Y-51062D02*
X50037Y-51100D01*
X49998Y-51138D01*
X49960Y-51100D01*
X49998Y-51062D01*
X49998Y-51138D01*
X50532Y-50338D02*
X50608Y-50338D01*
X50684Y-50376D01*
X50722Y-50414D01*
X50760Y-50490D01*
X50799Y-50643D01*
X50799Y-50833D01*
X50760Y-50985D01*
X50722Y-51062D01*
X50684Y-51100D01*
X50608Y-51138D01*
X50532Y-51138D01*
X50456Y-51100D01*
X50418Y-51062D01*
X50379Y-50985D01*
X50341Y-50833D01*
X50341Y-50643D01*
X50379Y-50490D01*
X50418Y-50414D01*
X50456Y-50376D01*
X50532Y-50338D01*
X51065Y-50338D02*
X51561Y-50338D01*
X51294Y-50643D01*
X51408Y-50643D01*
X51484Y-50681D01*
X51522Y-50719D01*
X51561Y-50795D01*
X51561Y-50985D01*
X51522Y-51062D01*
X51484Y-51100D01*
X51408Y-51138D01*
X51180Y-51138D01*
X51103Y-51100D01*
X51065Y-51062D01*
X51865Y-50414D02*
X51903Y-50376D01*
X51980Y-50338D01*
X52170Y-50338D01*
X52246Y-50376D01*
X52284Y-50414D01*
X52323Y-50490D01*
X52323Y-50566D01*
X52284Y-50681D01*
X51827Y-51138D01*
X52323Y-51138D01*
X52627Y-50338D02*
X52627Y-50490D01*
X52932Y-50338D02*
X52932Y-50490D01*
X54114Y-51443D02*
X54076Y-51404D01*
X54000Y-51290D01*
X53962Y-51214D01*
X53924Y-51100D01*
X53885Y-50909D01*
X53885Y-50757D01*
X53924Y-50566D01*
X53962Y-50452D01*
X54000Y-50376D01*
X54076Y-50262D01*
X54114Y-50224D01*
X54838Y-51138D02*
X54380Y-51138D01*
X54609Y-51138D02*
X54609Y-50338D01*
X54533Y-50452D01*
X54457Y-50528D01*
X54380Y-50566D01*
X55600Y-51138D02*
X55142Y-51138D01*
X55371Y-51138D02*
X55371Y-50338D01*
X55295Y-50452D01*
X55219Y-50528D01*
X55142Y-50566D01*
X56285Y-50604D02*
X56285Y-51138D01*
X56095Y-50300D02*
X55904Y-50871D01*
X56400Y-50871D01*
X57314Y-51138D02*
X57314Y-50338D01*
X57657Y-51138D02*
X57657Y-50719D01*
X57619Y-50643D01*
X57543Y-50604D01*
X57429Y-50604D01*
X57353Y-50643D01*
X57314Y-50681D01*
X58153Y-51138D02*
X58077Y-51100D01*
X58038Y-51062D01*
X58000Y-50985D01*
X58000Y-50757D01*
X58038Y-50681D01*
X58077Y-50643D01*
X58153Y-50604D01*
X58267Y-50604D01*
X58343Y-50643D01*
X58381Y-50681D01*
X58419Y-50757D01*
X58419Y-50985D01*
X58381Y-51062D01*
X58343Y-51100D01*
X58267Y-51138D01*
X58153Y-51138D01*
X58877Y-51138D02*
X58801Y-51100D01*
X58762Y-51024D01*
X58762Y-50338D01*
X59486Y-51100D02*
X59410Y-51138D01*
X59258Y-51138D01*
X59181Y-51100D01*
X59143Y-51024D01*
X59143Y-50719D01*
X59181Y-50643D01*
X59258Y-50604D01*
X59410Y-50604D01*
X59486Y-50643D01*
X59524Y-50719D01*
X59524Y-50795D01*
X59143Y-50871D01*
X59829Y-51100D02*
X59906Y-51138D01*
X60058Y-51138D01*
X60134Y-51100D01*
X60172Y-51024D01*
X60172Y-50985D01*
X60134Y-50909D01*
X60058Y-50871D01*
X59944Y-50871D01*
X59867Y-50833D01*
X59829Y-50757D01*
X59829Y-50719D01*
X59867Y-50643D01*
X59944Y-50604D01*
X60058Y-50604D01*
X60134Y-50643D01*
X60439Y-51443D02*
X60477Y-51404D01*
X60554Y-51290D01*
X60592Y-51214D01*
X60630Y-51100D01*
X60668Y-50909D01*
X60668Y-50757D01*
X60630Y-50566D01*
X60592Y-50452D01*
X60554Y-50376D01*
X60477Y-50262D01*
X60439Y-50224D01*
X41827Y-51711D02*
X41827Y-52029D01*
X41986Y-51870D02*
X41668Y-51870D01*
X42530Y-51394D02*
X42606Y-51394D01*
X42682Y-51432D01*
X42720Y-51470D01*
X42758Y-51546D01*
X42797Y-51699D01*
X42797Y-51889D01*
X42758Y-52041D01*
X42720Y-52118D01*
X42682Y-52156D01*
X42606Y-52194D01*
X42530Y-52194D01*
X42454Y-52156D01*
X42416Y-52118D01*
X42377Y-52041D01*
X42339Y-51889D01*
X42339Y-51699D01*
X42377Y-51546D01*
X42416Y-51470D01*
X42454Y-51432D01*
X42530Y-51394D01*
X43139Y-52118D02*
X43178Y-52156D01*
X43139Y-52194D01*
X43101Y-52156D01*
X43139Y-52118D01*
X43139Y-52194D01*
X43635Y-51737D02*
X43559Y-51699D01*
X43520Y-51660D01*
X43482Y-51584D01*
X43482Y-51546D01*
X43520Y-51470D01*
X43559Y-51432D01*
X43635Y-51394D01*
X43787Y-51394D01*
X43863Y-51432D01*
X43901Y-51470D01*
X43940Y-51546D01*
X43940Y-51584D01*
X43901Y-51660D01*
X43863Y-51699D01*
X43787Y-51737D01*
X43635Y-51737D01*
X43559Y-51775D01*
X43520Y-51813D01*
X43482Y-51889D01*
X43482Y-52041D01*
X43520Y-52118D01*
X43559Y-52156D01*
X43635Y-52194D01*
X43787Y-52194D01*
X43863Y-52156D01*
X43901Y-52118D01*
X43940Y-52041D01*
X43940Y-51889D01*
X43901Y-51813D01*
X43863Y-51775D01*
X43787Y-51737D01*
X44702Y-52194D02*
X44244Y-52194D01*
X44473Y-52194D02*
X44473Y-51394D01*
X44397Y-51508D01*
X44321Y-51584D01*
X44244Y-51622D01*
X45044Y-52194D02*
X45044Y-51660D01*
X45044Y-51737D02*
X45083Y-51699D01*
X45159Y-51660D01*
X45273Y-51660D01*
X45349Y-51699D01*
X45387Y-51775D01*
X45387Y-52194D01*
X45387Y-51775D02*
X45425Y-51699D01*
X45502Y-51660D01*
X45616Y-51660D01*
X45692Y-51699D01*
X45730Y-51775D01*
X45730Y-52194D01*
X46111Y-52194D02*
X46111Y-51660D01*
X46111Y-51737D02*
X46150Y-51699D01*
X46226Y-51660D01*
X46340Y-51660D01*
X46416Y-51699D01*
X46454Y-51775D01*
X46454Y-52194D01*
X46454Y-51775D02*
X46492Y-51699D01*
X46569Y-51660D01*
X46683Y-51660D01*
X46759Y-51699D01*
X46797Y-51775D01*
X46797Y-52194D01*
X48360Y-51356D02*
X47674Y-52384D01*
X49389Y-51394D02*
X49465Y-51394D01*
X49541Y-51432D01*
X49579Y-51470D01*
X49617Y-51546D01*
X49656Y-51699D01*
X49656Y-51889D01*
X49617Y-52041D01*
X49579Y-52118D01*
X49541Y-52156D01*
X49465Y-52194D01*
X49389Y-52194D01*
X49313Y-52156D01*
X49275Y-52118D01*
X49236Y-52041D01*
X49198Y-51889D01*
X49198Y-51699D01*
X49236Y-51546D01*
X49275Y-51470D01*
X49313Y-51432D01*
X49389Y-51394D01*
X49998Y-52118D02*
X50037Y-52156D01*
X49998Y-52194D01*
X49960Y-52156D01*
X49998Y-52118D01*
X49998Y-52194D01*
X50532Y-51394D02*
X50608Y-51394D01*
X50684Y-51432D01*
X50722Y-51470D01*
X50760Y-51546D01*
X50799Y-51699D01*
X50799Y-51889D01*
X50760Y-52041D01*
X50722Y-52118D01*
X50684Y-52156D01*
X50608Y-52194D01*
X50532Y-52194D01*
X50456Y-52156D01*
X50418Y-52118D01*
X50379Y-52041D01*
X50341Y-51889D01*
X50341Y-51699D01*
X50379Y-51546D01*
X50418Y-51470D01*
X50456Y-51432D01*
X50532Y-51394D01*
X51065Y-51394D02*
X51561Y-51394D01*
X51294Y-51699D01*
X51408Y-51699D01*
X51484Y-51737D01*
X51522Y-51775D01*
X51561Y-51851D01*
X51561Y-52041D01*
X51522Y-52118D01*
X51484Y-52156D01*
X51408Y-52194D01*
X51180Y-52194D01*
X51103Y-52156D01*
X51065Y-52118D01*
X51865Y-51470D02*
X51903Y-51432D01*
X51980Y-51394D01*
X52170Y-51394D01*
X52246Y-51432D01*
X52284Y-51470D01*
X52323Y-51546D01*
X52323Y-51622D01*
X52284Y-51737D01*
X51827Y-52194D01*
X52323Y-52194D01*
X52627Y-51394D02*
X52627Y-51546D01*
X52932Y-51394D02*
X52932Y-51546D01*
X54114Y-52499D02*
X54076Y-52460D01*
X54000Y-52346D01*
X53962Y-52270D01*
X53924Y-52156D01*
X53885Y-51965D01*
X53885Y-51813D01*
X53924Y-51622D01*
X53962Y-51508D01*
X54000Y-51432D01*
X54076Y-51318D01*
X54114Y-51280D01*
X54761Y-51660D02*
X54761Y-52194D01*
X54571Y-51356D02*
X54380Y-51927D01*
X54876Y-51927D01*
X55333Y-51394D02*
X55409Y-51394D01*
X55485Y-51432D01*
X55523Y-51470D01*
X55561Y-51546D01*
X55600Y-51699D01*
X55600Y-51889D01*
X55561Y-52041D01*
X55523Y-52118D01*
X55485Y-52156D01*
X55409Y-52194D01*
X55333Y-52194D01*
X55257Y-52156D01*
X55219Y-52118D01*
X55180Y-52041D01*
X55142Y-51889D01*
X55142Y-51699D01*
X55180Y-51546D01*
X55219Y-51470D01*
X55257Y-51432D01*
X55333Y-51394D01*
X56552Y-52194D02*
X56552Y-51394D01*
X56895Y-52194D02*
X56895Y-51775D01*
X56857Y-51699D01*
X56781Y-51660D01*
X56667Y-51660D01*
X56591Y-51699D01*
X56552Y-51737D01*
X57391Y-52194D02*
X57315Y-52156D01*
X57276Y-52118D01*
X57238Y-52041D01*
X57238Y-51813D01*
X57276Y-51737D01*
X57315Y-51699D01*
X57391Y-51660D01*
X57505Y-51660D01*
X57581Y-51699D01*
X57619Y-51737D01*
X57657Y-51813D01*
X57657Y-52041D01*
X57619Y-52118D01*
X57581Y-52156D01*
X57505Y-52194D01*
X57391Y-52194D01*
X58115Y-52194D02*
X58039Y-52156D01*
X58000Y-52080D01*
X58000Y-51394D01*
X58724Y-52156D02*
X58648Y-52194D01*
X58496Y-52194D01*
X58419Y-52156D01*
X58381Y-52080D01*
X58381Y-51775D01*
X58419Y-51699D01*
X58496Y-51660D01*
X58648Y-51660D01*
X58724Y-51699D01*
X58762Y-51775D01*
X58762Y-51851D01*
X58381Y-51927D01*
X59067Y-52156D02*
X59144Y-52194D01*
X59296Y-52194D01*
X59372Y-52156D01*
X59410Y-52080D01*
X59410Y-52041D01*
X59372Y-51965D01*
X59296Y-51927D01*
X59182Y-51927D01*
X59105Y-51889D01*
X59067Y-51813D01*
X59067Y-51775D01*
X59105Y-51699D01*
X59182Y-51660D01*
X59296Y-51660D01*
X59372Y-51699D01*
X59677Y-52499D02*
X59715Y-52460D01*
X59792Y-52346D01*
X59830Y-52270D01*
X59868Y-52156D01*
X59906Y-51965D01*
X59906Y-51813D01*
X59868Y-51622D01*
X59830Y-51508D01*
X59792Y-51432D01*
X59715Y-51318D01*
X59677Y-51280D01*
G54D10*
X41987Y-52926D02*
X41975Y-53047D01*
X41939Y-53164D01*
X41882Y-53271D01*
X41805Y-53366D01*
X41711Y-53444D01*
X41604Y-53502D01*
X41487Y-53538D01*
X41366Y-53550D01*
X41245Y-53539D01*
X41128Y-53505D01*
X41020Y-53448D01*
X40925Y-53372D01*
X40847Y-53279D01*
X40788Y-53172D01*
X40751Y-53055D01*
X40738Y-52934D01*
X40748Y-52814D01*
X40781Y-52696D01*
X40837Y-52588D01*
X40913Y-52492D01*
X41006Y-52413D01*
X41112Y-52354D01*
X41228Y-52316D01*
X41349Y-52302D01*
X41470Y-52311D01*
X41588Y-52344D01*
X41696Y-52399D01*
X41793Y-52474D01*
X41872Y-52566D01*
X41932Y-52672D01*
X41971Y-52788D01*
X41986Y-52909D01*
X41987Y-52926D01*
X40737Y-52301D02*
X41987Y-53551D01*
X41987Y-52301D02*
X40737Y-53551D01*
G54D12*
X42301Y-52450D02*
X42797Y-52450D01*
X42530Y-52755D01*
X42644Y-52755D01*
X42720Y-52793D01*
X42758Y-52831D01*
X42797Y-52907D01*
X42797Y-53097D01*
X42758Y-53174D01*
X42720Y-53212D01*
X42644Y-53250D01*
X42416Y-53250D01*
X42339Y-53212D01*
X42301Y-53174D01*
X43139Y-53174D02*
X43178Y-53212D01*
X43139Y-53250D01*
X43101Y-53212D01*
X43139Y-53174D01*
X43139Y-53250D01*
X43940Y-53250D02*
X43482Y-53250D01*
X43711Y-53250D02*
X43711Y-52450D01*
X43635Y-52564D01*
X43559Y-52640D01*
X43482Y-52678D01*
X44397Y-52793D02*
X44321Y-52755D01*
X44282Y-52716D01*
X44244Y-52640D01*
X44244Y-52602D01*
X44282Y-52526D01*
X44321Y-52488D01*
X44397Y-52450D01*
X44549Y-52450D01*
X44625Y-52488D01*
X44663Y-52526D01*
X44702Y-52602D01*
X44702Y-52640D01*
X44663Y-52716D01*
X44625Y-52755D01*
X44549Y-52793D01*
X44397Y-52793D01*
X44321Y-52831D01*
X44282Y-52869D01*
X44244Y-52945D01*
X44244Y-53097D01*
X44282Y-53174D01*
X44321Y-53212D01*
X44397Y-53250D01*
X44549Y-53250D01*
X44625Y-53212D01*
X44663Y-53174D01*
X44702Y-53097D01*
X44702Y-52945D01*
X44663Y-52869D01*
X44625Y-52831D01*
X44549Y-52793D01*
X45044Y-53250D02*
X45044Y-52716D01*
X45044Y-52793D02*
X45083Y-52755D01*
X45159Y-52716D01*
X45273Y-52716D01*
X45349Y-52755D01*
X45387Y-52831D01*
X45387Y-53250D01*
X45387Y-52831D02*
X45425Y-52755D01*
X45502Y-52716D01*
X45616Y-52716D01*
X45692Y-52755D01*
X45730Y-52831D01*
X45730Y-53250D01*
X46111Y-53250D02*
X46111Y-52716D01*
X46111Y-52793D02*
X46150Y-52755D01*
X46226Y-52716D01*
X46340Y-52716D01*
X46416Y-52755D01*
X46454Y-52831D01*
X46454Y-53250D01*
X46454Y-52831D02*
X46492Y-52755D01*
X46569Y-52716D01*
X46683Y-52716D01*
X46759Y-52755D01*
X46797Y-52831D01*
X46797Y-53250D01*
X48360Y-52412D02*
X47674Y-53440D01*
X49389Y-52450D02*
X49465Y-52450D01*
X49541Y-52488D01*
X49579Y-52526D01*
X49617Y-52602D01*
X49656Y-52755D01*
X49656Y-52945D01*
X49617Y-53097D01*
X49579Y-53174D01*
X49541Y-53212D01*
X49465Y-53250D01*
X49389Y-53250D01*
X49313Y-53212D01*
X49275Y-53174D01*
X49236Y-53097D01*
X49198Y-52945D01*
X49198Y-52755D01*
X49236Y-52602D01*
X49275Y-52526D01*
X49313Y-52488D01*
X49389Y-52450D01*
X49998Y-53174D02*
X50037Y-53212D01*
X49998Y-53250D01*
X49960Y-53212D01*
X49998Y-53174D01*
X49998Y-53250D01*
X50799Y-53250D02*
X50341Y-53250D01*
X50570Y-53250D02*
X50570Y-52450D01*
X50494Y-52564D01*
X50418Y-52640D01*
X50341Y-52678D01*
X51103Y-52526D02*
X51141Y-52488D01*
X51218Y-52450D01*
X51408Y-52450D01*
X51484Y-52488D01*
X51522Y-52526D01*
X51561Y-52602D01*
X51561Y-52678D01*
X51522Y-52793D01*
X51065Y-53250D01*
X51561Y-53250D01*
X52284Y-52450D02*
X51903Y-52450D01*
X51865Y-52831D01*
X51903Y-52793D01*
X51980Y-52755D01*
X52170Y-52755D01*
X52246Y-52793D01*
X52284Y-52831D01*
X52323Y-52907D01*
X52323Y-53097D01*
X52284Y-53174D01*
X52246Y-53212D01*
X52170Y-53250D01*
X51980Y-53250D01*
X51903Y-53212D01*
X51865Y-53174D01*
X52627Y-52450D02*
X52627Y-52602D01*
X52932Y-52450D02*
X52932Y-52602D01*
X54114Y-53555D02*
X54076Y-53516D01*
X54000Y-53402D01*
X53962Y-53326D01*
X53924Y-53212D01*
X53885Y-53021D01*
X53885Y-52869D01*
X53924Y-52678D01*
X53962Y-52564D01*
X54000Y-52488D01*
X54076Y-52374D01*
X54114Y-52336D01*
X54761Y-52716D02*
X54761Y-53250D01*
X54571Y-52412D02*
X54380Y-52983D01*
X54876Y-52983D01*
X55790Y-53250D02*
X55790Y-52450D01*
X56133Y-53250D02*
X56133Y-52831D01*
X56095Y-52755D01*
X56019Y-52716D01*
X55905Y-52716D01*
X55829Y-52755D01*
X55790Y-52793D01*
X56629Y-53250D02*
X56553Y-53212D01*
X56514Y-53174D01*
X56476Y-53097D01*
X56476Y-52869D01*
X56514Y-52793D01*
X56553Y-52755D01*
X56629Y-52716D01*
X56743Y-52716D01*
X56819Y-52755D01*
X56857Y-52793D01*
X56895Y-52869D01*
X56895Y-53097D01*
X56857Y-53174D01*
X56819Y-53212D01*
X56743Y-53250D01*
X56629Y-53250D01*
X57353Y-53250D02*
X57277Y-53212D01*
X57238Y-53136D01*
X57238Y-52450D01*
X57962Y-53212D02*
X57886Y-53250D01*
X57734Y-53250D01*
X57657Y-53212D01*
X57619Y-53136D01*
X57619Y-52831D01*
X57657Y-52755D01*
X57734Y-52716D01*
X57886Y-52716D01*
X57962Y-52755D01*
X58000Y-52831D01*
X58000Y-52907D01*
X57619Y-52983D01*
X58305Y-53212D02*
X58382Y-53250D01*
X58534Y-53250D01*
X58610Y-53212D01*
X58648Y-53136D01*
X58648Y-53097D01*
X58610Y-53021D01*
X58534Y-52983D01*
X58420Y-52983D01*
X58343Y-52945D01*
X58305Y-52869D01*
X58305Y-52831D01*
X58343Y-52755D01*
X58420Y-52716D01*
X58534Y-52716D01*
X58610Y-52755D01*
X58915Y-53555D02*
X58953Y-53516D01*
X59030Y-53402D01*
X59068Y-53326D01*
X59106Y-53212D01*
X59144Y-53021D01*
X59144Y-52869D01*
X59106Y-52678D01*
X59068Y-52564D01*
X59030Y-52488D01*
X58953Y-52374D01*
X58915Y-52336D01*
M02*
